<svg width="47" height="33" viewBox="0 0 47 33" fill="none" xmlns="http://www.w3.org/2000/svg">
<path d="M0.25 16.5C0.25 16.3354 0.252448 16.1713 0.257308 16.0079L0.00741857 16.0004C0.0173552 15.6663 0.0372266 15.3346 0.0667475 15.0057L0.315746 15.0281C0.345156 14.7005 0.384287 14.3757 0.432847 14.054L0.185648 14.0166C0.235507 13.6863 0.295159 13.3592 0.364298 13.0356L0.60878 13.0879C0.677462 12.7664 0.75565 12.4485 0.843036 12.1344L0.602184 12.0674C0.691572 11.7461 0.790439 11.4288 0.898463 11.1157L1.13479 11.1973C1.24182 10.8871 1.35799 10.5811 1.48296 10.2798L1.25203 10.184C1.37963 9.8763 1.51627 9.57329 1.66162 9.27531L1.88632 9.38492C2.0301 9.09016 2.18254 8.8004 2.34331 8.51595L2.12567 8.39294C2.28944 8.1032 2.46171 7.8189 2.64215 7.54039L2.85196 7.67632C3.0301 7.40135 3.21633 7.13211 3.41031 6.86892L3.20906 6.7206C3.40637 6.45289 3.61157 6.19136 3.82432 5.93635L4.01629 6.0965C4.22605 5.84507 4.44328 5.60007 4.66761 5.36184L4.48561 5.19045C4.71345 4.9485 4.94851 4.71344 5.19045 4.48561L5.36184 4.66761C5.60007 4.44327 5.84507 4.22605 6.0965 4.01629L5.93635 3.82432C6.19136 3.61157 6.45289 3.40637 6.7206 3.20906L6.86892 3.41031C7.13211 3.21633 7.40136 3.0301 7.67632 2.85196L7.54039 2.64215C7.8189 2.46171 8.1032 2.28943 8.39294 2.12567L8.51595 2.34331C8.8004 2.18254 9.09016 2.0301 9.38492 1.88632L9.27532 1.66162C9.57329 1.51627 9.8763 1.37963 10.184 1.25203L10.2798 1.48296C10.5811 1.35799 10.8871 1.24182 11.1973 1.13479L11.1157 0.898463C11.4288 0.790439 11.7461 0.691572 12.0674 0.602183L12.1344 0.843035C12.4485 0.75565 12.7664 0.677462 13.0879 0.60878L13.0356 0.364298C13.3592 0.295159 13.6863 0.235507 14.0166 0.185648L14.054 0.432847C14.3757 0.384287 14.7005 0.345156 15.0281 0.315746L15.0057 0.0667474C15.3346 0.0372265 15.6663 0.0173552 16.0004 0.00741857L16.0079 0.257308C16.1713 0.252448 16.3354 0.25 16.5 0.25H16.9922V0H17.9766V0.25H18.9609V0H19.9453V0.25H20.9297V0H21.9141V0.25H22.8984V0H23.8828V0.25H24.8672V0H25.8516V0.25H26.8359V0H27.8203V0.25H28.8047V0H29.7891V0.25H30.7734V0H31.7578V0.25H32.7422V0H33.7266V0.25H34.7109V0H35.6953V0.25H36.6797V0H37.6641V0.25H38.6484V0H39.6328V0.25H40.6172V0H41.6016V0.25H42.5859V0H43.5703V0.25H44.5547V0H45.5391V0.25H46.5234V0H47.5078V0.25H47.75V0.485294H48V1.45588H47.75V2.42647H48V3.39706H47.75V4.36765H48V5.33824H47.75V6.30882H48V7.27941H47.75V8.25H48V9.22059H47.75V10.1912H48V11.1618H47.75V12.1324H48V13.1029H47.75V14.0735H48V15.0441H47.75V16.0147H48V16.9853H47.75V17.9559H48V18.9265H47.75V19.8971H48V20.8677H47.75V21.8382H48V22.8088H47.75V23.7794H48V24.75H47.75V25.7206H48V26.6912H47.75V27.6618H48V28.6324H47.75V29.603H48V30.5735H47.75V31.5441H48V32.5147H47.75V32.75H47.5078V33H46.5234V32.75H45.5391V33H44.5547V32.75H43.5703V33H42.5859V32.75H41.6016V33H40.6172V32.75H39.6328V33H38.6484V32.75H37.6641V33H36.6797V32.75H35.6953V33H34.7109V32.75H33.7266V33H32.7422V32.75H31.7578V33H30.7734V32.75H29.7891V33H28.8047V32.75H27.8203V33H26.8359V32.75H25.8516V33H24.8672V32.75H23.8828V33H22.8984V32.75H21.9141V33H20.9297V32.75H19.9453V33H18.9609V32.75H17.9766V33H16.9922V32.75H16.5C16.3354 32.75 16.1713 32.7476 16.0079 32.7427L16.0004 32.9926C15.6663 32.9826 15.3346 32.9628 15.0057 32.9333L15.0281 32.6843C14.7005 32.6548 14.3757 32.6157 14.054 32.5672L14.0166 32.8144C13.6863 32.7645 13.3592 32.7048 13.0356 32.6357L13.0879 32.3912C12.7664 32.3225 12.4485 32.2444 12.1344 32.157L12.0674 32.3978C11.7461 32.3084 11.4288 32.2096 11.1157 32.1015L11.1973 31.8652C10.8871 31.7582 10.5811 31.642 10.2798 31.517L10.184 31.748C9.8763 31.6204 9.57329 31.4837 9.27531 31.3384L9.38492 31.1137C9.09016 30.9699 8.8004 30.8175 8.51595 30.6567L8.39294 30.8743C8.1032 30.7106 7.8189 30.5383 7.54039 30.3579L7.67632 30.148C7.40135 29.9699 7.13211 29.7837 6.86892 29.5897L6.7206 29.7909C6.45289 29.5936 6.19136 29.3884 5.93635 29.1757L6.0965 28.9837C5.84507 28.7739 5.60007 28.5567 5.36184 28.3324L5.19045 28.5144C4.9485 28.2866 4.71344 28.0515 4.48561 27.8095L4.66761 27.6382C4.44327 27.3999 4.22605 27.1549 4.01629 26.9035L3.82432 27.0637C3.61157 26.8086 3.40637 26.5471 3.20906 26.2794L3.41031 26.1311C3.21633 25.8679 3.0301 25.5986 2.85196 25.3237L2.64215 25.4596C2.46171 25.1811 2.28943 24.8968 2.12567 24.6071L2.34331 24.484C2.18254 24.1996 2.0301 23.9098 1.88632 23.6151L1.66162 23.7247C1.51627 23.4267 1.37963 23.1237 1.25203 22.816L1.48296 22.7202C1.35799 22.4189 1.24182 22.1129 1.13479 21.8027L0.898463 21.8843C0.790439 21.5712 0.691572 21.2539 0.602184 20.9326L0.843035 20.8656C0.75565 20.5515 0.677462 20.2336 0.60878 19.9121L0.364298 19.9644C0.295159 19.6408 0.235507 19.3137 0.185648 18.9834L0.432847 18.946C0.384287 18.6243 0.345156 18.2995 0.315746 17.9719L0.0667474 17.9942C0.0372265 17.6654 0.0173552 17.3337 0.00741858 16.9996L0.257308 16.9921C0.252448 16.8287 0.25 16.6646 0.25 16.5Z" stroke="#F4FAFB" stroke-width="0.5" stroke-dasharray="1 1"/>
</svg>
