<svg width="52" height="28" viewBox="0 0 52 28" fill="none" xmlns="http://www.w3.org/2000/svg">
<path opacity="0.999" fill-rule="evenodd" clip-rule="evenodd" d="M8.11494 3.9649C8.33009 3.94522 8.53508 3.9816 8.72989 4.07403C8.91273 4.17039 9.09687 4.26393 9.28231 4.35465C9.48389 4.43088 9.68887 4.44127 9.89726 4.38583C10.1101 4.31625 10.3186 4.23656 10.5226 4.14678C10.8306 4.06483 11.1363 4.07175 11.4399 4.16757C11.8781 4.35041 12.0605 4.67781 11.9871 5.14975C11.9304 5.38401 11.8365 5.60227 11.7056 5.80454C11.4378 6.20699 11.1269 6.57595 10.7728 6.91144C9.07385 6.91838 7.37491 6.91838 5.67597 6.91144C5.14116 6.50979 4.66866 6.04555 4.25845 5.51872C4.26192 5.51526 4.26541 5.51179 4.26888 5.50833C4.09743 5.2864 4.02274 5.03524 4.04478 4.7548C4.10215 4.51389 4.24633 4.34587 4.47733 4.25072C4.7494 4.15777 5.02735 4.13698 5.31117 4.18836C5.41007 4.20622 5.50735 4.23047 5.60301 4.26111C5.84666 4.35595 6.09333 4.44257 6.34304 4.52095C6.613 4.60887 6.87705 4.59501 7.13518 4.47937C7.22821 4.43155 7.31854 4.37959 7.40618 4.32347C7.61302 4.14586 7.84928 4.02633 8.11494 3.9649Z" fill="#2D2D2D"/>
<path fill-rule="evenodd" clip-rule="evenodd" d="M45.7934 17.5179C45.6163 17.7671 45.3766 17.9058 45.0743 17.9337C45.064 17.9287 45.0554 17.9218 45.0482 17.9129C45.0234 17.8397 44.9835 17.7704 44.9283 17.705C45.0064 17.6117 45.0741 17.5113 45.1316 17.4036C45.1558 17.3174 45.1784 17.2308 45.1993 17.1437C45.1982 17.134 45.1947 17.1252 45.1889 17.1178C45.2058 17.0269 45.2197 16.935 45.2306 16.8423C45.2284 16.7936 45.2284 16.7451 45.2306 16.6968C45.2079 16.5941 45.1836 16.4954 45.1576 16.4006C45.1117 16.3369 45.063 16.2745 45.0117 16.2135C44.9624 16.1748 44.9103 16.1402 44.8554 16.1096C44.7694 16.0874 44.6826 16.0666 44.5948 16.0472C44.1199 16.0284 43.7535 16.2173 43.4952 16.6137C43.451 16.7135 43.4197 16.8174 43.4014 16.9255C43.3839 17.0232 43.363 17.1202 43.3388 17.2165C43.3238 17.2991 43.3203 17.3823 43.3284 17.4659C43.3477 17.5461 43.3685 17.6258 43.3909 17.705C43.4274 17.757 43.4639 17.8089 43.5004 17.8609C43.4878 17.8809 43.4739 17.9 43.4587 17.9181C43.1317 17.923 42.8068 17.9248 42.4842 17.9233C42.4689 17.9033 42.4515 17.8963 42.432 17.9025C42.3716 17.8727 42.3107 17.852 42.2496 17.8401C42.2435 17.8423 42.2383 17.8457 42.234 17.8505C42.1882 17.833 42.1448 17.8192 42.1037 17.8089C42.0763 17.8162 42.0485 17.8127 42.0203 17.7985C41.9984 17.8065 41.9742 17.8065 41.9474 17.7985C41.8375 17.8076 41.7315 17.8319 41.6295 17.8713C41.6252 17.8665 41.62 17.8631 41.6138 17.8609C41.5567 17.8746 41.5028 17.8954 41.4523 17.9233C40.9141 17.9232 40.3739 17.9232 39.8315 17.9233C39.8018 17.8123 39.7689 17.7014 39.7325 17.5907C39.5876 17.3495 39.3739 17.2282 39.0915 17.2269C38.7675 17.2582 38.4392 17.2998 38.1065 17.3516C38.1031 17.3482 38.0995 17.3447 38.0961 17.3412C37.7765 17.3952 37.4552 17.4385 37.132 17.4711C37.0154 17.4911 36.9008 17.5188 36.788 17.5543C36.6208 17.6291 36.5062 17.7521 36.4441 17.9233C35.3322 17.925 34.2205 17.9233 33.1087 17.9181C32.8421 17.4956 32.4652 17.2583 31.9778 17.2061C31.9013 17.1845 31.8232 17.1707 31.7433 17.1645C31.5102 17.1613 31.2773 17.1838 31.045 17.2321C30.8829 17.2683 30.7127 17.3098 30.5343 17.3568C30.0883 17.4902 29.6539 17.6772 29.2314 17.9181C24.7252 17.9233 20.219 17.925 15.7129 17.9233C15.6981 17.9134 15.6806 17.91 15.6607 17.9129C15.6503 17.9119 15.6417 17.9155 15.6347 17.9233C15.6166 17.9133 15.5976 17.9063 15.5774 17.9025C15.57 17.8931 15.5595 17.8896 15.5461 17.8921C15.483 17.8827 15.4205 17.8619 15.3585 17.8297C15.3436 17.8189 15.3262 17.812 15.3064 17.8089C15.2855 17.7985 15.2647 17.7881 15.2438 17.7777C15.1097 17.696 14.995 17.592 14.8999 17.4659C14.8739 17.4351 14.8531 17.4005 14.8373 17.362C14.8381 17.3461 14.8312 17.3357 14.8165 17.3308C14.8016 17.3175 14.7946 17.3002 14.7956 17.2789C14.794 17.2617 14.787 17.2478 14.7748 17.2373C14.7627 17.225 14.7523 17.213 14.7435 17.2009C14.747 17.1975 14.7505 17.1939 14.7539 17.1905C14.7462 17.1559 14.7324 17.1247 14.7123 17.097C14.717 17.0927 14.7205 17.0875 14.7227 17.0814C14.709 17.041 14.702 16.9994 14.7018 16.9567C14.7047 16.9368 14.7013 16.9195 14.6914 16.9047C14.6914 13.0453 14.6914 9.18581 14.6914 5.32638C14.7013 5.31163 14.7047 5.29431 14.7018 5.27441C14.7517 4.9241 14.9288 4.65214 15.2334 4.45852C15.3982 4.36447 15.5754 4.3125 15.765 4.30262C25.3269 4.29761 34.8881 4.29587 44.4489 4.29742C44.6886 4.29916 44.9283 4.30088 45.1681 4.30262C45.6006 4.37022 45.8595 4.61794 45.9446 5.04575C45.9487 9.0819 45.9418 13.118 45.9237 17.1541C45.906 17.2852 45.8625 17.4065 45.7934 17.5179Z" fill="#810019"/>
<path opacity="0.392" fill-rule="evenodd" clip-rule="evenodd" d="M14.7021 5.27441C14.705 5.29432 14.7015 5.31163 14.6916 5.32638C14.6837 5.3081 14.6872 5.29077 14.7021 5.27441Z" fill="#867F7F"/>
<path fill-rule="evenodd" clip-rule="evenodd" d="M39.8835 8.28866C39.4857 8.29211 39.0896 8.28865 38.6953 8.27826C39.1724 7.49237 39.6518 6.70767 40.1337 5.92414C40.7869 5.91721 41.44 5.91721 42.0932 5.92414C41.3584 6.71409 40.6218 7.50227 39.8835 8.28866Z" fill="#FEFEFE"/>
<path fill-rule="evenodd" clip-rule="evenodd" d="M35.0674 6.94775C35.0674 9.98611 35.0674 13.0245 35.0674 16.0628C34.515 16.0628 33.9626 16.0628 33.4102 16.0628C33.4102 13.0245 33.4102 9.98611 33.4102 6.94775C33.9626 6.94775 34.515 6.94775 35.0674 6.94775Z" fill="#FEFEFE"/>
<path fill-rule="evenodd" clip-rule="evenodd" d="M17.3594 7.17651C17.9361 7.17651 18.5129 7.17651 19.0896 7.17651C19.0896 8.29208 19.0896 9.40765 19.0896 10.5232C20.0832 10.5232 21.0769 10.5232 22.0705 10.5232C22.0705 9.40765 22.0705 8.29208 22.0705 7.17651C22.6438 7.17651 23.2171 7.17651 23.7903 7.17651C23.7903 10.1387 23.7903 13.1008 23.7903 16.0629C23.2171 16.0629 22.6438 16.0629 22.0705 16.0629C22.0705 14.7637 22.0705 13.4646 22.0705 12.1654C21.0769 12.1654 20.0832 12.1654 19.0896 12.1654C19.0896 13.4646 19.0896 14.7637 19.0896 16.0629C18.5129 16.0629 17.9361 16.0629 17.3594 16.0629C17.3594 13.1008 17.3594 10.1387 17.3594 7.17651Z" fill="#FEFEFE"/>
<path opacity="0.999" fill-rule="evenodd" clip-rule="evenodd" d="M5.62242 7.18693C7.28315 7.18519 8.94387 7.18693 10.6046 7.19213C10.8031 7.24349 10.8849 7.36995 10.8495 7.57149C10.8068 7.67997 10.7286 7.74752 10.615 7.77416C8.94734 7.78109 7.27967 7.78109 5.612 7.77416C5.42575 7.72685 5.3441 7.60733 5.36706 7.41559C5.4051 7.28578 5.49023 7.20957 5.62242 7.18693Z" fill="#303030"/>
<path opacity="0.999" fill-rule="evenodd" clip-rule="evenodd" d="M11.1056 18.0375C11.0687 18.0343 11.0339 18.0377 11.0013 18.0479C10.968 18.0452 10.9333 18.0486 10.8971 18.0583C10.8416 18.0445 10.7859 18.0445 10.7303 18.0583C10.6819 18.0656 10.6298 18.0656 10.574 18.0583C10.5095 18.055 10.4469 18.0584 10.3864 18.0687C10.3551 18.0687 10.3238 18.0687 10.2926 18.0687C10.2315 18.0654 10.1725 18.0688 10.1154 18.0791C10.0841 18.0791 10.0528 18.0791 10.0216 18.0791C9.9536 18.0758 9.88759 18.0792 9.82354 18.0895C9.72308 18.0984 9.62232 18.1018 9.52128 18.0999C9.47263 18.0999 9.424 18.0999 9.37536 18.0999C9.37536 16.4855 9.37536 14.8709 9.37536 13.2565C8.51544 13.2531 7.65729 13.2565 6.80089 13.2669C6.80089 14.8779 6.80089 16.4889 6.80089 18.0999C6.71056 18.0999 6.62023 18.0999 6.5299 18.0999C6.45688 18.1062 6.38739 18.1062 6.32144 18.0999C6.25543 18.086 6.18941 18.086 6.1234 18.0999C6.04033 18.0939 5.96043 18.0905 5.88368 18.0895C5.81767 18.0757 5.75165 18.0757 5.68564 18.0895C5.6375 18.0811 5.58885 18.0775 5.53972 18.0791C5.49313 18.0688 5.44448 18.0654 5.3938 18.0687C5.34311 18.0654 5.29447 18.0688 5.24788 18.0791C5.19973 18.0707 5.15109 18.0671 5.10196 18.0687C4.99613 18.0584 4.88843 18.0549 4.77884 18.0583C4.70583 18.0646 4.63634 18.0646 4.57039 18.0583C4.51827 18.0445 4.46616 18.0445 4.41404 18.0583C4.3204 18.0494 4.2266 18.039 4.13262 18.0271C4.11873 18.0305 4.10483 18.0341 4.09093 18.0375C4.0553 18.0173 4.01882 18.0139 3.98149 18.0271C3.97628 18.0219 3.97107 18.0167 3.96586 18.0115C3.52737 17.9547 3.10525 17.8455 2.69947 17.6841C2.60891 17.6304 2.51684 17.5784 2.42326 17.5282C1.97673 17.2199 1.68142 16.8093 1.53731 16.2966C1.51336 16.2101 1.48903 16.1236 1.46435 16.0368C1.46979 16.0309 1.47326 16.024 1.47478 16.016C1.45983 15.9598 1.45288 15.9026 1.45393 15.8445C1.457 15.8212 1.45352 15.8004 1.44351 15.7821C1.41499 15.3292 1.448 14.8857 1.54252 14.4518C1.81969 13.1126 2.34605 11.8792 3.1216 10.7517C3.80578 9.76943 4.60139 8.88079 5.50845 8.08577C7.22823 8.07883 8.94802 8.07883 10.6678 8.08577C10.9244 8.22734 11.1607 8.3971 11.3766 8.59505C11.95 9.14507 12.4208 9.7704 12.7889 10.4711C13.4047 11.6655 13.8181 12.9265 14.0292 14.2543C14.0952 14.7434 14.0917 15.2319 14.0188 15.7198C13.801 16.8237 13.1548 17.5373 12.0801 17.8608C11.7662 17.9625 11.4413 18.0213 11.1056 18.0375ZM9.75058 10.575C9.74042 10.604 9.7439 10.6316 9.76101 10.6581C9.77321 11.207 9.57169 11.6591 9.15648 12.0145C8.64228 12.3931 8.08639 12.4659 7.48881 12.2328C6.87324 11.932 6.55361 11.4383 6.5299 10.7517C6.53888 10.2436 6.73692 9.82614 7.124 9.49928C7.36766 9.30645 7.64908 9.19039 7.96826 9.1511C7.98935 9.15333 8.01366 9.15333 8.04122 9.1511C8.70204 9.12652 9.20755 9.40022 9.55776 9.97218C9.62269 10.095 9.67133 10.2163 9.70368 10.336C9.7227 10.4151 9.73834 10.4949 9.75058 10.575Z" fill="#2D2D2D"/>
<path fill-rule="evenodd" clip-rule="evenodd" d="M38.696 8.27808C39.0903 8.28846 39.4863 8.29192 39.8842 8.28847C39.4863 8.30229 39.0868 8.30229 38.6855 8.28847C38.6868 8.28216 38.6903 8.2787 38.696 8.27808Z" fill="#8C2335"/>
<path opacity="0.392" fill-rule="evenodd" clip-rule="evenodd" d="M8.04171 9.15126C8.01415 9.15349 7.98984 9.15349 7.96875 9.15126C7.99307 9.13741 8.01739 9.13741 8.04171 9.15126Z" fill="#908687"/>
<path fill-rule="evenodd" clip-rule="evenodd" d="M28.4497 9.31745C29.2031 9.26086 29.9119 9.40809 30.576 9.75917C31.5424 10.3501 32.0932 11.2109 32.2281 12.3419C32.252 12.6393 32.2607 12.9373 32.2541 13.2358C30.4822 13.2358 28.7103 13.2358 26.9384 13.2358C27.0723 14.0144 27.5205 14.508 28.283 14.7169C28.9786 14.8629 29.6144 14.7312 30.1904 14.3219C30.2717 14.2599 30.3482 14.1923 30.4197 14.1192C30.8847 14.3402 31.3503 14.5602 31.8163 14.7792C31.2046 15.6491 30.3638 16.1272 29.294 16.2135C28.6701 16.2787 28.062 16.2095 27.47 16.0056C26.7838 15.7373 26.2401 15.2956 25.8388 14.6805C25.549 14.2119 25.3823 13.7027 25.3385 13.1526C25.2805 12.5042 25.3778 11.8806 25.6303 11.2818C26.0448 10.4043 26.71 9.80324 27.6263 9.47855C27.8966 9.39589 28.171 9.34219 28.4497 9.31745Z" fill="#FEFEFE"/>
<path fill-rule="evenodd" clip-rule="evenodd" d="M41.4162 10.1801C41.4168 10.1857 41.4202 10.1892 41.4266 10.1904C41.437 9.95496 41.4405 9.71937 41.437 9.48369C41.986 9.48369 42.5349 9.48369 43.0838 9.48369C43.0838 11.6767 43.0838 13.8697 43.0838 16.0628C42.5349 16.0628 41.986 16.0628 41.437 16.0628C41.4388 15.8341 41.437 15.6054 41.4318 15.3768C41.1562 15.6399 40.8452 15.853 40.499 16.016C39.9273 16.2404 39.34 16.2889 38.7375 16.1615C38.268 16.0487 37.8511 15.8373 37.4867 15.5275C36.6433 14.7895 36.2333 13.8576 36.2568 12.7316C36.2446 11.7034 36.6024 10.8304 37.3304 10.1125C38.0459 9.46019 38.8867 9.20729 39.8527 9.35377C40.4613 9.46837 40.9825 9.7438 41.4162 10.1801Z" fill="#FEFEFE"/>
<path fill-rule="evenodd" clip-rule="evenodd" d="M41.4369 9.48389C41.4403 9.71957 41.4369 9.95516 41.4264 10.1906C41.4201 10.1894 41.4166 10.1859 41.416 10.1802C41.423 9.94813 41.4299 9.716 41.4369 9.48389Z" fill="#96424E"/>
<path opacity="0.141" fill-rule="evenodd" clip-rule="evenodd" d="M9.74982 10.5752C9.75996 10.6007 9.76343 10.6283 9.76024 10.6583C9.74314 10.6318 9.73966 10.6042 9.74982 10.5752Z" fill="#A59799"/>
<path fill-rule="evenodd" clip-rule="evenodd" d="M28.7315 10.7309C29.2688 10.7091 29.7378 10.8737 30.1386 11.2246C30.345 11.4254 30.4943 11.6627 30.5868 11.9366C29.3951 11.9504 28.2034 11.9504 27.0117 11.9366C27.1158 11.7078 27.2461 11.4965 27.4026 11.3026C27.6851 11.0135 28.0274 10.8351 28.4292 10.7673C28.5311 10.7513 28.6319 10.7391 28.7315 10.7309Z" fill="#810019"/>
<path fill-rule="evenodd" clip-rule="evenodd" d="M39.5299 10.8246C40.1237 10.7833 40.6258 10.974 41.036 11.3962C41.3185 11.7243 41.4748 12.1054 41.5051 12.5395C41.5374 12.9384 41.4784 13.323 41.3279 13.6932C40.9582 14.4191 40.3623 14.7603 39.5403 14.717C38.8638 14.6282 38.3791 14.2766 38.0863 13.662C37.926 13.2603 37.8739 12.8446 37.93 12.4148C38.0182 11.8044 38.3257 11.3419 38.8524 11.0273C39.0669 10.9185 39.2927 10.8509 39.5299 10.8246Z" fill="#810019"/>
<path opacity="0.235" fill-rule="evenodd" clip-rule="evenodd" d="M6.80078 13.267C7.65718 13.2567 8.51533 13.2532 9.37525 13.2567C9.37525 14.8711 9.37525 16.4856 9.37525 18.1C9.42389 18.1 9.47252 18.1 9.52117 18.1C9.49709 18.1069 9.47103 18.1104 9.44299 18.1104C9.41144 18.1117 9.38191 18.1065 9.3544 18.0948C9.35586 16.4898 9.35933 14.884 9.36482 13.2774C8.51017 13.267 7.65549 13.2636 6.80078 13.267Z" fill="#908A8A"/>
<path opacity="0.322" fill-rule="evenodd" clip-rule="evenodd" d="M1.4431 15.7822C1.45311 15.8005 1.45659 15.8213 1.45352 15.8446C1.44529 15.8417 1.43834 15.8365 1.43267 15.829C1.42969 15.8146 1.43317 15.799 1.4431 15.7822Z" fill="#928889"/>
<path fill-rule="evenodd" clip-rule="evenodd" d="M35.0674 6.94775C35.0778 9.98784 35.0813 13.0297 35.0778 16.0732C34.5202 16.0766 33.9642 16.0732 33.4102 16.0628C33.9626 16.0628 34.515 16.0628 35.0674 16.0628C35.0674 13.0245 35.0674 9.98611 35.0674 6.94775Z" fill="#A2535B"/>
<path opacity="0.991" fill-rule="evenodd" clip-rule="evenodd" d="M44.4068 16.4786C44.4953 16.4733 44.5821 16.4819 44.6673 16.5045C44.7354 16.5413 44.7753 16.5985 44.7872 16.676C44.7891 16.8395 44.7787 17.0023 44.7559 17.1645C44.6817 17.3633 44.5446 17.5 44.3442 17.5751C44.302 17.5868 44.262 17.6024 44.2244 17.6218C44.2201 17.6171 44.2149 17.6136 44.2087 17.6115C44.1704 17.6166 44.1339 17.627 44.0993 17.6426C44.0581 17.635 44.0164 17.6281 43.9742 17.6218C43.8227 17.609 43.7514 17.5241 43.7605 17.3672C43.7656 17.3244 43.7656 17.2828 43.7605 17.2425C43.7992 17.1179 43.8322 16.9914 43.8596 16.8631C43.9362 16.7071 44.056 16.598 44.2192 16.5357C44.282 16.5132 44.3445 16.4942 44.4068 16.4786Z" fill="#2D2D2D"/>
<path opacity="0.322" fill-rule="evenodd" clip-rule="evenodd" d="M14.6903 16.9048C14.7002 16.9195 14.7036 16.9369 14.7007 16.9568C14.6794 16.9426 14.676 16.9254 14.6903 16.9048Z" fill="#897E7F"/>
<path opacity="0.185" fill-rule="evenodd" clip-rule="evenodd" d="M39.8308 17.9232C39.8105 17.926 39.7949 17.9191 39.7839 17.9024C39.7636 17.6325 39.6333 17.4332 39.393 17.3048C39.3294 17.2903 39.2668 17.273 39.2054 17.2528C39.1655 17.251 39.1255 17.2494 39.0856 17.2476C38.9697 17.2647 38.8533 17.2786 38.7364 17.2892C38.7282 17.2847 38.7194 17.2813 38.7103 17.2788C38.6009 17.3153 38.488 17.3308 38.3716 17.3255C38.3413 17.3364 38.3118 17.3484 38.283 17.3619C38.2228 17.3633 38.162 17.3633 38.1006 17.3619C37.989 17.3972 37.8743 17.4127 37.7566 17.4087C37.7384 17.4136 37.7211 17.4205 37.7045 17.4295C37.571 17.4331 37.4407 17.4522 37.3137 17.4866C37.2389 17.4719 37.1608 17.4805 37.0792 17.5126C36.8652 17.518 36.6897 17.6028 36.5528 17.7673C36.5198 17.8124 36.4919 17.8609 36.4694 17.9128C36.4624 17.9206 36.4538 17.9241 36.4434 17.9232C36.5055 17.752 36.6201 17.629 36.7873 17.5542C36.9001 17.5188 37.0147 17.491 37.1313 17.4711C37.4545 17.4384 37.7758 17.3951 38.0954 17.3411C38.0988 17.3446 38.1024 17.3481 38.1058 17.3515C38.4385 17.2997 38.7668 17.2581 39.0908 17.2268C39.3732 17.2282 39.5869 17.3494 39.7318 17.5906C39.7682 17.7013 39.8011 17.8122 39.8308 17.9232Z" fill="#4D2D32"/>
<path opacity="0.031" fill-rule="evenodd" clip-rule="evenodd" d="M14.7741 17.2372C14.7863 17.2477 14.7933 17.2616 14.7949 17.2788C14.781 17.2704 14.7706 17.2582 14.7637 17.2424C14.7661 17.2383 14.7695 17.2365 14.7741 17.2372Z" fill="#827274"/>
<path opacity="0.031" fill-rule="evenodd" clip-rule="evenodd" d="M14.8165 17.3308C14.8312 17.3357 14.838 17.3461 14.8373 17.362C14.8226 17.3571 14.8157 17.3467 14.8165 17.3308Z" fill="#7D6B6D"/>
<path opacity="0.031" fill-rule="evenodd" clip-rule="evenodd" d="M14.9002 17.4661C14.8927 17.4735 14.8927 17.4735 14.9002 17.4661V17.4661Z" fill="#786566"/>
<path opacity="0.031" fill-rule="evenodd" clip-rule="evenodd" d="M45.793 17.5181C45.8079 17.5255 45.8079 17.5255 45.793 17.5181V17.5181Z" fill="#786566"/>
<path opacity="0.031" fill-rule="evenodd" clip-rule="evenodd" d="M2.42358 17.5283C2.4161 17.5358 2.4161 17.5358 2.42358 17.5283V17.5283Z" fill="#786566"/>
<path opacity="0.993" fill-rule="evenodd" clip-rule="evenodd" d="M31.5243 17.6011C31.8583 17.5786 32.1674 17.653 32.452 17.8245C32.6669 17.9741 32.7868 18.1803 32.8116 18.4429C32.8304 18.7593 32.7713 19.0607 32.6344 19.3472C32.4837 19.6652 32.2892 19.9528 32.0507 20.2098C31.5405 20.7567 30.9412 21.1777 30.2527 21.4726C30.9165 21.7464 31.5697 22.0444 32.2122 22.3665C32.3183 22.4346 32.3444 22.5264 32.2904 22.6419C32.1852 22.8104 32.0429 22.9178 31.8631 22.9641C31.8386 22.9767 31.8125 22.9854 31.7849 22.9901C31.7254 22.9979 31.6681 23.0031 31.6129 23.0057C31.1438 22.7622 30.6661 22.5161 30.1798 22.2677C30.1763 22.2712 30.1728 22.2747 30.1693 22.2781C30.1912 22.4611 30.2034 22.6446 30.2058 22.829C30.1919 23.0796 30.0686 23.2424 29.8358 23.3175C29.7084 23.3805 29.5765 23.4099 29.4397 23.4058C29.3481 23.3975 29.2804 23.3542 29.2365 23.2759C29.2032 23.0032 29.1928 22.7294 29.2052 22.4548C29.2118 22.2676 29.2204 22.0806 29.2313 21.8936C29.2278 21.8658 29.2243 21.8382 29.2209 21.8104C29.1856 21.8204 29.1526 21.8343 29.1218 21.852C29.116 21.8466 29.109 21.8431 29.101 21.8416C29.0691 21.8476 29.0378 21.8545 29.0072 21.8624C28.9364 21.8573 28.8635 21.8469 28.7883 21.8312C28.5954 21.7784 28.5519 21.6641 28.658 21.4882C28.7088 21.4256 28.7678 21.3718 28.8352 21.3271C28.9295 21.2732 29.0269 21.2246 29.1271 21.1816C29.1814 21.1629 29.2369 21.1508 29.2938 21.1452C29.3711 20.5054 29.4891 19.8732 29.6482 19.2484C29.7383 19.051 29.8912 18.9331 30.1068 18.8951C30.2092 18.8783 30.3064 18.8923 30.3987 18.9366C30.4148 18.9492 30.427 18.9648 30.4351 18.9834C30.4421 19.025 30.4421 19.0665 30.4351 19.1081C30.3177 19.6852 30.2413 20.2672 30.2058 20.8542C30.8205 20.5497 31.3138 20.1096 31.6859 19.5343C31.8438 19.2632 31.9098 18.9722 31.8839 18.6612C31.8468 18.4302 31.7095 18.2933 31.4722 18.2507C31.3682 18.2508 31.2675 18.2491 31.1699 18.2455C30.4759 18.3184 29.821 18.5298 29.2052 18.8795C29.2018 18.876 29.1982 18.8725 29.1948 18.8691C29.1211 18.907 29.0429 18.9192 28.9603 18.9054C28.8502 18.8591 28.8276 18.7846 28.8925 18.682C28.9256 18.6352 28.9655 18.5954 29.0124 18.5625C29.6661 18.1164 30.3819 17.8115 31.1595 17.6478C31.2822 17.6287 31.4038 17.6131 31.5243 17.6011Z" fill="#2D2D2D"/>
<path opacity="0.993" fill-rule="evenodd" clip-rule="evenodd" d="M46.9289 17.6218C47.1785 17.5783 47.3956 17.6407 47.5804 17.8089C47.6483 17.9075 47.6656 18.015 47.6325 18.1311C47.594 18.239 47.5419 18.3396 47.4761 18.4325C47.1038 18.9115 46.6661 19.31 46.1629 19.6277C46.095 19.8738 46.1193 20.1095 46.2358 20.3345C46.2806 20.387 46.338 20.4147 46.4078 20.4176C46.696 20.3711 46.9287 20.2342 47.1061 20.0071C47.1885 19.9473 47.2787 19.9265 47.3771 19.9447C47.3916 19.9547 47.3986 19.9685 47.398 19.9863C47.3283 20.1769 47.2172 20.3398 47.0644 20.4748C46.767 20.728 46.4282 20.8891 46.0482 20.9581C45.9374 20.9593 45.8245 20.9576 45.7095 20.9529C45.3825 20.9005 45.1897 20.7117 45.131 20.3864C45.1246 19.5949 45.3644 18.8847 45.8502 18.2558C46.1304 17.9091 46.49 17.6978 46.9289 17.6218ZM46.2619 19.2224C46.3539 18.8534 46.5311 18.5329 46.7934 18.261C46.879 18.2698 46.9398 18.3132 46.9758 18.3909C46.9987 18.438 46.9952 18.483 46.9654 18.526C46.8766 18.6596 46.7741 18.7825 46.6579 18.895C46.5276 19.0067 46.3955 19.1158 46.2619 19.2224Z" fill="#2D2D2D"/>
<path opacity="0.988" fill-rule="evenodd" clip-rule="evenodd" d="M39.1018 17.6531C39.2733 17.6456 39.3636 17.7271 39.3728 17.8973C39.3743 17.9928 39.3326 18.062 39.2478 18.1052C38.6848 18.1903 38.1185 18.27 37.5488 18.3442C37.402 18.3656 37.2526 18.3864 37.1006 18.4066C37.0002 18.4251 36.9184 18.3921 36.8557 18.3078C36.7912 18.1859 36.8103 18.0768 36.913 17.9805C36.9362 17.9672 36.9605 17.9568 36.986 17.9493C37.6931 17.8527 38.3984 17.754 39.1018 17.6531Z" fill="#2D2D2D"/>
<path opacity="0.031" fill-rule="evenodd" clip-rule="evenodd" d="M15.2439 17.7778C15.2364 17.7853 15.2364 17.7853 15.2439 17.7778V17.7778Z" fill="#786566"/>
<path opacity="0.031" fill-rule="evenodd" clip-rule="evenodd" d="M15.3066 17.8091C15.3264 17.8122 15.3439 17.8191 15.3588 17.8299C15.3358 17.8338 15.3185 17.8269 15.3066 17.8091Z" fill="#8C787B"/>
<path opacity="0.994" fill-rule="evenodd" clip-rule="evenodd" d="M44.3338 17.8818C44.514 17.8727 44.6235 17.9559 44.6621 18.1312C44.6732 18.2017 44.6784 18.2727 44.6778 18.3443C44.641 19.3089 44.6115 20.2737 44.5892 21.2389C44.5697 21.6519 44.5037 22.0572 44.3911 22.4549C44.2942 22.773 44.1379 23.0571 43.9221 23.3072C43.5672 23.6598 43.1433 23.8365 42.6505 23.8372C42.5905 23.8197 42.5314 23.7989 42.4733 23.7749C42.3343 23.7089 42.2439 23.6015 42.2023 23.4527C42.187 23.3771 42.1766 23.3009 42.1711 23.224C42.1537 22.8422 42.2093 22.468 42.3378 22.1015C42.4207 21.8634 42.518 21.6313 42.6297 21.4052C42.7075 21.3224 42.803 21.274 42.9163 21.2596C42.9691 21.2557 42.9986 21.2799 43.0049 21.3324C43.0119 21.4433 43.0119 21.5541 43.0049 21.665C42.969 21.9108 42.9342 22.1568 42.9007 22.4029C42.8894 22.5426 42.8964 22.6812 42.9215 22.8187C42.9537 22.9419 43.0197 23.0424 43.1195 23.1201C43.2646 22.9798 43.3584 22.81 43.401 22.6108C43.4825 22.2843 43.5346 21.9552 43.5573 21.6234C43.5958 21.0177 43.62 20.4114 43.6303 19.8046C43.6369 19.6553 43.6474 19.5064 43.6615 19.3576C43.6607 19.1498 43.6607 18.9419 43.6615 18.734C43.6657 18.5433 43.7108 18.3632 43.797 18.1936C43.8704 18.0815 43.9694 18.0002 44.0941 17.9493C44.173 17.9185 44.2529 17.8959 44.3338 17.8818Z" fill="#2D2D2D"/>
<path opacity="0.031" fill-rule="evenodd" clip-rule="evenodd" d="M15.5449 17.8921C15.5584 17.8896 15.5688 17.8932 15.5762 17.9025C15.5628 17.9152 15.5524 17.9117 15.5449 17.8921Z" fill="#7B6E6F"/>
<path opacity="0.031" fill-rule="evenodd" clip-rule="evenodd" d="M15.6602 17.9129C15.6801 17.91 15.6975 17.9134 15.7123 17.9233C15.6931 17.9355 15.6758 17.932 15.6602 17.9129Z" fill="#7D7071"/>
<path opacity="0.235" fill-rule="evenodd" clip-rule="evenodd" d="M11.1062 18.0375C11.0847 18.045 11.0622 18.0519 11.0384 18.0583C11.0246 18.0523 11.0124 18.0489 11.002 18.0479C11.0345 18.0378 11.0693 18.0343 11.1062 18.0375Z" fill="#958D8E"/>
<path opacity="0.392" fill-rule="evenodd" clip-rule="evenodd" d="M4.41406 18.0585C4.46618 18.0446 4.51829 18.0446 4.57041 18.0585C4.52007 18.0637 4.46796 18.0637 4.41406 18.0585Z" fill="#8A8384"/>
<path opacity="0.392" fill-rule="evenodd" clip-rule="evenodd" d="M10.8972 18.0585C10.8391 18.0598 10.7834 18.0598 10.7305 18.0585C10.786 18.0446 10.8417 18.0446 10.8972 18.0585Z" fill="#968C8D"/>
<path opacity="0.51" fill-rule="evenodd" clip-rule="evenodd" d="M4.7793 18.0584C4.88888 18.055 4.99658 18.0585 5.10241 18.0688C5.0688 18.0718 5.03406 18.0752 4.99818 18.0792C4.92386 18.0726 4.8509 18.0657 4.7793 18.0584Z" fill="#787171"/>
<path opacity="0.141" fill-rule="evenodd" clip-rule="evenodd" d="M10.3867 18.0687C10.4473 18.0585 10.5098 18.055 10.5743 18.0584C10.5564 18.0658 10.5373 18.0728 10.517 18.0791C10.4734 18.0733 10.43 18.0698 10.3867 18.0687Z" fill="#998B8D"/>
<path opacity="0.235" fill-rule="evenodd" clip-rule="evenodd" d="M5.24805 18.0792C5.29464 18.069 5.34328 18.0655 5.39397 18.0689C5.39397 18.0723 5.39397 18.0758 5.39397 18.0792C5.34532 18.0792 5.29669 18.0792 5.24805 18.0792Z" fill="#A4999B"/>
<path opacity="0.51" fill-rule="evenodd" clip-rule="evenodd" d="M5.39453 18.0792C5.39453 18.0758 5.39453 18.0723 5.39453 18.0689C5.44522 18.0655 5.49386 18.069 5.54045 18.0792C5.49538 18.0839 5.44674 18.0839 5.39453 18.0792Z" fill="#666061"/>
<path opacity="0.392" fill-rule="evenodd" clip-rule="evenodd" d="M10.2924 18.0689C10.2486 18.0763 10.2035 18.0833 10.1569 18.0896C10.1409 18.0824 10.127 18.0789 10.1152 18.0792C10.1723 18.069 10.2314 18.0655 10.2924 18.0689Z" fill="#887E7F"/>
<path opacity="0.392" fill-rule="evenodd" clip-rule="evenodd" d="M5.68555 18.0895C5.75156 18.0756 5.81757 18.0756 5.88358 18.0895C5.82016 18.0906 5.75415 18.0906 5.68555 18.0895Z" fill="#8E8788"/>
<path opacity="0.235" fill-rule="evenodd" clip-rule="evenodd" d="M9.82422 18.0895C9.88827 18.0792 9.95428 18.0758 10.0223 18.0791C9.95677 18.0935 9.89076 18.097 9.82422 18.0895Z" fill="#8E8687"/>
<path opacity="0.392" fill-rule="evenodd" clip-rule="evenodd" d="M6.12305 18.1C6.18906 18.0861 6.25507 18.0861 6.32108 18.1C6.25792 18.1132 6.19191 18.1132 6.12305 18.1Z" fill="#8C8586"/>
<path opacity="0.235" fill-rule="evenodd" clip-rule="evenodd" d="M6.5293 18.1001C6.61963 18.1001 6.70996 18.1001 6.80029 18.1001C6.78469 18.1085 6.76731 18.1154 6.74818 18.1209C6.67386 18.1143 6.6009 18.1074 6.5293 18.1001Z" fill="#8F8687"/>
<path opacity="0.994" fill-rule="evenodd" clip-rule="evenodd" d="M41.9363 18.2351C42.3251 18.2435 42.5839 18.4306 42.7128 18.7964C42.7635 18.9553 42.7862 19.118 42.7805 19.2848C42.7768 19.4374 42.7699 19.5899 42.7597 19.7422C42.7777 20.0399 42.7829 20.3378 42.7753 20.636C42.78 20.7884 42.7313 20.9199 42.6294 21.031C42.557 21.1136 42.4753 21.1847 42.3845 21.244C42.2545 21.3217 42.1208 21.3304 41.9832 21.27C41.9459 21.2401 41.9058 21.2141 41.8633 21.192C41.7886 21.128 41.7591 21.0466 41.7747 20.9478C41.7549 20.5387 41.7601 20.1299 41.7903 19.7214C41.79 19.6979 41.7865 19.6753 41.7799 19.6538C41.8009 19.4486 41.8147 19.2425 41.8216 19.0354C41.814 18.9317 41.7758 18.8364 41.707 18.7496C41.6852 18.7389 41.6627 18.7303 41.6392 18.7236C41.4428 18.9312 41.2796 19.1632 41.1493 19.42C40.8755 19.9985 40.747 20.6081 40.7637 21.2492C40.7281 21.3424 40.6708 21.4204 40.5917 21.4831C40.3863 21.645 40.1552 21.716 39.8986 21.6961C39.8028 21.6525 39.7559 21.578 39.7579 21.4727C39.7934 20.8445 39.8282 20.2175 39.8621 19.5915C39.8744 19.4147 39.9542 19.276 40.1018 19.1757C40.2711 19.0583 40.4587 19.0063 40.6647 19.0198C40.723 19.0255 40.7699 19.0515 40.8054 19.0978C40.932 18.8681 41.0971 18.6688 41.3005 18.5001C41.4873 18.3497 41.6992 18.2614 41.9363 18.2351Z" fill="#2D2D2D"/>
<path opacity="0.994" fill-rule="evenodd" clip-rule="evenodd" d="M38.0585 18.6404C38.2463 18.6306 38.4044 18.693 38.5328 18.8275C38.5528 18.857 38.5702 18.8882 38.5849 18.921C38.7499 18.7305 38.9566 18.656 39.2051 18.6976C39.2673 18.7332 39.302 18.7869 39.3093 18.8587C39.2258 19.3062 39.1615 19.7566 39.1165 20.2098C39.0957 20.5511 39.0975 20.8923 39.1217 21.2336C39.1219 21.6369 38.9239 21.8742 38.5276 21.9455C38.3895 21.9377 38.2835 21.8754 38.2097 21.7584C38.1389 21.6235 38.1042 21.4815 38.1054 21.3323C37.9291 21.5983 37.705 21.8148 37.4332 21.9819C37.2012 22.1078 36.958 22.1355 36.7036 22.065C36.5473 21.9994 36.4414 21.8868 36.3857 21.7273C36.3251 21.5569 36.3043 21.3802 36.3231 21.1972C36.4153 20.3729 36.7314 19.6488 37.2716 19.025C37.4121 18.871 37.5807 18.7585 37.7771 18.6872C37.8731 18.6756 37.9669 18.66 38.0585 18.6404ZM38.0273 19.1601C38.0567 19.1557 38.0793 19.1661 38.095 19.1913C38.2102 19.4333 38.2519 19.6863 38.2201 19.95C38.1415 20.5105 37.8966 20.9834 37.4853 21.3687C37.4232 21.4005 37.3867 21.3815 37.3758 21.3115C37.3512 21.1914 37.3444 21.0702 37.355 20.9477C37.3969 20.3928 37.5602 19.8766 37.8449 19.3991C37.9007 19.3153 37.9615 19.2357 38.0273 19.1601Z" fill="#2D2D2D"/>
<path opacity="0.995" fill-rule="evenodd" clip-rule="evenodd" d="M35.4229 19.0459C35.5249 19.0349 35.6222 19.0505 35.7147 19.0926C35.7903 19.164 35.8216 19.2524 35.8085 19.3577C35.8094 20.0692 35.7798 20.7794 35.7199 21.4883C35.6756 21.9992 35.5854 22.5015 35.4489 22.9954C35.1579 23.7647 34.6107 24.2064 33.8073 24.3205C33.5813 24.3527 33.3884 24.2851 33.2289 24.1179C33.15 24.0004 33.1725 23.9051 33.2966 23.832C33.3991 23.7685 33.5103 23.7287 33.6301 23.7125C33.9 23.7869 34.1241 23.7176 34.3024 23.5046C34.4265 23.3138 34.5098 23.106 34.5526 22.881C34.6212 22.4954 34.6663 22.1075 34.6881 21.717C34.4888 22.113 34.1709 22.3572 33.7344 22.4497C33.5015 22.4916 33.2999 22.4309 33.1298 22.2678C33.0437 22.141 32.9829 22.0025 32.9474 21.8521C32.857 21.5004 32.8257 21.14 32.8536 20.7712C32.8816 20.3859 32.9511 20.0083 33.0621 19.6383C33.1307 19.5095 33.2331 19.4177 33.3696 19.3629C33.508 19.2944 33.6539 19.2701 33.8073 19.2901C33.8557 19.2992 33.9008 19.3166 33.9428 19.3421C33.9913 19.3896 34.0069 19.4467 33.9897 19.5136C33.8854 19.9758 33.8437 20.4435 33.8647 20.9167C33.8791 21.1516 33.9243 21.3802 34.0002 21.6026C34.0829 21.4411 34.1629 21.2783 34.2399 21.1142C34.413 20.6932 34.5902 20.274 34.7715 19.8565C34.7876 19.8147 34.7963 19.7714 34.7975 19.7266C34.7534 19.5406 34.8021 19.3847 34.9434 19.2589C35.0872 19.1506 35.2469 19.0795 35.4229 19.0459Z" fill="#2D2D2D"/>
</svg>
