<svg width="222" height="162" viewBox="0 0 222 162" fill="none" xmlns="http://www.w3.org/2000/svg">
<path d="M-1.87972 161.447C-1.9332 161.103 -1.96918 160.753 -1.98714 160.399L-1.73746 160.387C-1.74612 160.216 -1.75049 160.045 -1.75049 159.872V159.37H-2.00049V158.367H-1.75049V157.363H-2.00049V156.359H-1.75049V155.355H-2.00049V154.351H-1.75049V153.347H-2.00049V152.343H-1.75049V151.34H-2.00049V150.336H-1.75049V149.332H-2.00049V148.328H-1.75049V147.324H-2.00049V146.32H-1.75049V145.317H-2.00049V144.313H-1.75049V143.309H-2.00049V142.305H-1.75049V141.301H-2.00049V140.297H-1.75049V139.293H-2.00049V138.29H-1.75049V137.286H-2.00049V136.282H-1.75049V135.278H-2.00049V134.274H-1.75049V133.27H-2.00049V132.267H-1.75049V131.263H-2.00049V130.259H-1.75049V129.255H-2.00049V128.251H-1.75049V127.247H-2.00049V126.243H-1.75049V125.24H-2.00049V124.236H-1.75049V123.232H-2.00049V122.228H-1.75049V121.224H-2.00049V120.22H-1.75049V119.217H-2.00049V118.213H-1.75049V117.209H-2.00049V116.205H-1.75049V115.201H-2.00049V114.197H-1.75049V113.193H-2.00049V112.19H-1.75049V111.186H-2.00049V110.182H-1.75049V109.178H-2.00049V108.174H-1.75049V107.17H-2.00049V106.167H-1.75049V105.163H-2.00049V104.159H-1.75049V103.155H-2.00049V102.151H-1.75049V101.147H-2.00049V100.143H-1.75049V99.1396H-2.00049V98.1358H-1.75049V97.132H-2.00049V96.1281H-1.75049V95.1243H-2.00049V94.1204H-1.75049V93.1166H-2.00049V92.1127H-1.75049V91.1089H-2.00049V90.105H-1.75049V89.1012H-2.00049V88.0974H-1.75049V87.0935H-2.00049V86.0897H-1.75049V85.0858H-2.00049V84.082H-1.75049V83.0781H-2.00049V82.0743H-1.75049V81.0704H-2.00049V80.0666H-1.75049V79.0627H-2.00049V78.0589H-1.75049V77.0551H-2.00049V76.0512H-1.75049V75.0474H-2.00049V74.0435H-1.75049V73.0397H-2.00049V72.0358H-1.75049V71.032H-2.00049V70.0281H-1.75049V69.0243H-2.00049V68.0204H-1.75049V67.0166H-2.00049V66.0127H-1.75049V65.0089H-2.00049V64.005H-1.75049V63.0012H-2.00049V61.9973H-1.75049V60.9935H-2.00049V59.9896H-1.75049V58.9858H-2.00049V57.9819H-1.75049V56.9781H-2.00049V55.9743H-1.75049V54.9704H-2.00049V53.9666H-1.75049V52.9627H-2.00049V51.9589H-1.75049V50.955H-2.00049V49.9511H-1.75049V48.9473H-2.00049V47.9435H-1.75049V46.9396H-2.00049V45.9358H-1.75049V44.9319H-2.00049V43.9281H-1.75049V42.9242H-2.00049V41.9204H-1.75049V40.9165H-2.00049V39.9127H-1.75049V38.9088H-2.00049V37.905H-1.75049V36.9011H-2.00049V35.8973H-1.75049V34.8934H-2.00049V33.8896H-1.75049V32.8857H-2.00049V31.8819H-1.75049V30.878H-2.00049V29.8742H-1.75049V28.8703H-2.00049V27.8665H-1.75049V26.8626H-2.00049V25.8588H-1.75049V24.8549H-2.00049V23.8511H-1.75049V22.8472H-2.00049V21.8434H-1.75049V20.8395H-2.00049V19.8357H-1.75049V18.8318H-2.00049V17.828H-1.75049V16.8241H-2.00049V15.8203H-1.75049V14.8164H-2.00049V13.8126H-1.75049V12.8088H-2.00049V11.8049H-1.75049V10.8011H-2.00049V9.79721H-1.75049V8.79336H-2.00049V7.78951H-1.75049V7.28759C-1.75049 7.11289 -1.74601 6.93911 -1.73714 6.76639L-1.98681 6.75357C-1.9684 6.39498 -1.93152 6.04074 -1.87692 5.692L-1.62993 5.73067C-1.57583 5.38512 -1.50391 5.04517 -1.41495 4.71199L-1.65649 4.6475C-1.56415 4.30171 -1.45391 3.96296 -1.32656 3.63251L-1.09328 3.72242C-0.968 3.39734 -0.825759 3.08054 -0.667385 2.77328L-0.889603 2.65874C-0.726109 2.34154 -0.545836 2.03419 -0.34964 1.73801L-0.14122 1.87608C0.0504773 1.58669 0.257754 1.30827 0.479766 1.04209L0.287782 0.881962C0.515607 0.608822 0.758571 0.348209 1.01581 0.101452L1.18888 0.281868C1.43838 0.0425339 1.70166 -0.183409 1.97789 -0.394701L1.82601 -0.593271C2.10738 -0.808493 2.40185 -1.00892 2.70858 -1.19328L2.83737 -0.97901C3.13245 -1.15636 3.43921 -1.31847 3.7569 -1.46414L3.6527 -1.69139C3.97318 -1.83834 4.30444 -1.96897 4.64573 -2.08213L4.72441 -1.84483C4.88822 -1.89914 5.05442 -1.94933 5.22294 -1.99526L5.66101 -2.11454L5.59538 -2.35578C5.89177 -2.43641 6.19606 -2.51904 6.5081 -2.60362L6.5735 -2.36233C6.88546 -2.44689 7.20518 -2.53339 7.53251 -2.62179L7.46734 -2.86314C7.79475 -2.95155 8.12978 -3.04186 8.47228 -3.13399L8.53722 -2.89257C8.8736 -2.98306 9.21719 -3.07532 9.56787 -3.16929L9.50316 -3.41077C9.80099 -3.49058 10.1039 -3.57163 10.4119 -3.65389L10.4764 -3.41235C10.7843 -3.49459 11.0972 -3.57803 11.4151 -3.66264L11.3508 -3.90423C11.6687 -3.98886 11.9916 -4.07466 12.3193 -4.1616L12.3834 -3.91996C12.7111 -4.00689 13.0436 -4.09495 13.381 -4.18412L13.3171 -4.42582C13.6545 -4.51501 13.9966 -4.6053 14.3435 -4.69668L14.4072 -4.45492C14.7157 -4.53618 15.0278 -4.61829 15.3437 -4.70122L15.2802 -4.94303C15.5886 -5.02401 15.9006 -5.10579 16.216 -5.18834L16.2793 -4.94648C16.5946 -5.02901 16.9133 -5.1123 17.2354 -5.19635L17.1723 -5.43825C17.4945 -5.52231 17.8201 -5.60711 18.149 -5.69264L18.2119 -5.45069C18.5407 -5.5362 18.8729 -5.62244 19.2084 -5.70938L19.1457 -5.95138C19.4812 -6.03834 19.82 -6.126 20.162 -6.21435L20.2245 -5.97229C20.5382 -6.05333 20.8547 -6.13494 21.1738 -6.21711L21.1115 -6.45921C21.4223 -6.53926 21.7357 -6.61983 22.0517 -6.70092L22.1138 -6.45877C22.4297 -6.53984 22.748 -6.62143 23.0688 -6.70352L23.0068 -6.94572C23.3277 -7.02782 23.651 -7.11042 23.9768 -7.1935L24.0386 -6.95126C24.3643 -7.03433 24.6924 -7.11788 25.0229 -7.2019L24.9613 -7.44419C25.2918 -7.52823 25.6248 -7.61274 25.9601 -7.6977L26.0215 -7.45536C26.3567 -7.5403 26.6943 -7.6257 27.0342 -7.71153L26.9729 -7.95392C27.2836 -8.03239 27.5963 -8.11122 27.9108 -8.1904L27.9718 -7.94797C28.286 -8.02706 28.602 -8.1065 28.9199 -8.18628L28.859 -8.42876C29.177 -8.50856 29.4968 -8.5887 29.8185 -8.66917L29.8792 -8.42664C30.2008 -8.5071 30.5242 -8.58788 30.8494 -8.66899L30.789 -8.91156C31.1143 -8.99268 31.4414 -9.07412 31.7703 -9.15587L31.8306 -8.91325C32.1594 -8.99498 32.4901 -9.07702 32.8224 -9.15936L32.7623 -9.40202C33.0948 -9.48438 33.4289 -9.56702 33.7649 -9.64995L33.8248 -9.40724C34.1473 -9.48687 34.4714 -9.56676 34.7971 -9.6469L34.7374 -9.88966C35.0523 -9.96717 35.3688 -10.0449 35.6867 -10.1229L35.7462 -9.88008C36.064 -9.95804 36.3833 -10.0362 36.704 -10.1146L36.6446 -10.3575C36.9654 -10.4359 37.2875 -10.5145 37.6111 -10.5934L37.6702 -10.3505C37.9937 -10.4293 38.3186 -10.5083 38.6449 -10.5876L38.5859 -10.8305C38.9122 -10.9098 39.2399 -10.9892 39.5689 -11.0688L39.6277 -10.8259C39.9567 -10.9055 40.287 -10.9853 40.6186 -11.0653L40.56 -11.3083C40.8917 -11.3883 41.2247 -11.4685 41.559 -11.5489L41.6174 -11.3058C41.941 -11.3835 42.2657 -11.4615 42.5916 -11.5395L42.5334 -11.7827C42.8505 -11.8586 43.1688 -11.9347 43.4882 -12.011L43.5463 -11.7678C43.8656 -11.8441 44.1861 -11.9204 44.5076 -11.9969L44.4498 -12.2401C44.7714 -12.3167 45.0941 -12.3933 45.4179 -12.4701L45.4756 -12.2268C45.7993 -12.3036 46.1241 -12.3804 46.4499 -12.4574L46.3925 -12.7007C46.7184 -12.7777 47.0454 -12.8548 47.3734 -12.9321L47.4307 -12.6887C47.7586 -12.7659 48.0876 -12.8432 48.4176 -12.9206L48.3605 -13.164C48.6906 -13.2414 49.0216 -13.3189 49.3537 -13.3965L49.4106 -13.1531C49.7419 -13.2305 50.0741 -13.308 50.4073 -13.3856L50.3506 -13.6291C50.6689 -13.7032 50.9881 -13.7774 51.3081 -13.8516L51.3646 -13.6081C51.6846 -13.6823 52.0055 -13.7566 52.3272 -13.831L52.2709 -14.0746C52.5927 -14.1489 52.9153 -14.2234 53.2388 -14.2979L53.2949 -14.0543C53.6183 -14.1287 53.9425 -14.2033 54.2676 -14.2778L54.2117 -14.5215C54.5368 -14.5961 54.8628 -14.6708 55.1896 -14.7454L55.2453 -14.5017C55.572 -14.5764 55.8995 -14.6511 56.2278 -14.7259L56.1723 -14.9696C56.5006 -15.0444 56.8298 -15.1192 57.1597 -15.194L57.215 -14.9502C57.5448 -15.025 57.8755 -15.0998 58.2068 -15.1747L58.1518 -15.4185C58.4816 -15.493 58.8122 -15.5676 59.1436 -15.6421L59.1984 -15.3982C59.5189 -15.4703 59.84 -15.5424 60.1618 -15.6145L60.1071 -15.8585C60.429 -15.9306 60.7515 -16.0028 61.0747 -16.0749L61.1292 -15.8309C61.4523 -15.903 61.776 -15.9751 62.1004 -16.0473L62.0462 -16.2913C62.3707 -16.3634 62.6958 -16.4356 63.0215 -16.5077L63.0756 -16.2636C63.4013 -16.3357 63.7276 -16.4078 64.0545 -16.4799L64.0006 -16.724C64.3276 -16.7961 64.6552 -16.8682 64.9834 -16.9403L65.037 -16.6961C65.3651 -16.7681 65.6938 -16.8401 66.0231 -16.9121L65.9697 -17.1563C66.2991 -17.2283 66.629 -17.3003 66.9596 -17.3723L67.0127 -17.128C67.3432 -17.1999 67.6742 -17.2718 68.0057 -17.3436L67.9528 -17.588C68.2763 -17.6581 68.6003 -17.7282 68.9249 -17.7982L68.9776 -17.5538C69.3007 -17.6235 69.6244 -17.6932 69.9486 -17.7628L69.896 -18.0073C70.2203 -18.0769 70.545 -18.1465 70.8702 -18.2161L70.9225 -17.9716C71.2476 -18.0411 71.5732 -18.1106 71.8992 -18.18L71.8472 -18.4245C72.1733 -18.494 72.4999 -18.5633 72.827 -18.6326L72.8788 -18.3881C73.2058 -18.4574 73.5332 -18.5266 73.8611 -18.5957L73.8095 -18.8403C74.1375 -18.9095 74.4659 -18.9786 74.7947 -19.0476L74.846 -18.803C75.1748 -18.872 75.5039 -18.9409 75.8335 -19.0097L75.7823 -19.2545C76.112 -19.3233 76.442 -19.3921 76.7725 -19.4608L76.8234 -19.216C77.1516 -19.2843 77.4802 -19.3524 77.8092 -19.4205L77.7586 -19.6653C78.0831 -19.7324 78.408 -19.7995 78.7332 -19.8664L78.7836 -19.6215C79.1088 -19.6885 79.4344 -19.7553 79.7602 -19.822L79.7101 -20.067C80.036 -20.1337 80.3623 -20.2004 80.689 -20.2669L80.7389 -20.0219C81.0654 -20.0885 81.3923 -20.1549 81.7195 -20.2212L81.6698 -20.4662C81.9971 -20.5326 82.3247 -20.5988 82.6526 -20.6649L82.702 -20.4199C83.0298 -20.4859 83.3579 -20.5519 83.6863 -20.6178L83.6371 -20.8629C83.9656 -20.9288 84.2944 -20.9945 84.6235 -21.0602L84.6724 -20.815C85.0013 -20.8806 85.3306 -20.9461 85.6601 -21.0115L85.6115 -21.2567C85.9411 -21.3221 86.2709 -21.3873 86.6011 -21.4524L86.6494 -21.2072C86.9771 -21.2718 87.3049 -21.3363 87.633 -21.4006L87.5849 -21.6459C87.9114 -21.71 88.2382 -21.7739 88.5651 -21.8376L88.613 -21.5922C88.9398 -21.656 89.2669 -21.7196 89.5942 -21.783L89.5466 -22.0284C89.874 -22.0919 90.2016 -22.1552 90.5294 -22.2184L90.5767 -21.9729C90.9044 -22.0361 91.2323 -22.0991 91.5603 -22.1619L91.5133 -22.4074C91.8415 -22.4703 92.1698 -22.533 92.4984 -22.5955L92.5451 -22.3499C92.8735 -22.4125 93.2021 -22.4748 93.5309 -22.537L93.4844 -22.7827C93.8133 -22.8449 94.1423 -22.9069 94.4715 -22.9688L94.5177 -22.7231C94.8467 -22.7849 95.176 -22.8466 95.5053 -22.9081L95.4594 -23.1539C95.7889 -23.2154 96.1185 -23.2768 96.4482 -23.3379L96.4938 -23.0921C96.8222 -23.153 97.1507 -23.2138 97.4794 -23.2744L97.4341 -23.5202C97.7624 -23.5807 98.0908 -23.641 98.4193 -23.7012L98.4643 -23.4552C98.7927 -23.5153 99.1212 -23.5753 99.4498 -23.635L99.4051 -23.881C99.7338 -23.9407 100.063 -24.0003 100.391 -24.0596L100.436 -23.8136C100.765 -23.8729 101.093 -23.932 101.422 -23.991L101.378 -24.237C101.707 -24.296 102.036 -24.3547 102.365 -24.4133L102.409 -24.1671C102.738 -24.2256 103.067 -24.2839 103.396 -24.342L103.353 -24.5882C103.682 -24.6463 104.011 -24.7042 104.34 -24.7619L104.384 -24.5157C104.713 -24.5733 105.042 -24.6308 105.371 -24.688L105.328 -24.9343C105.657 -24.9915 105.987 -25.0485 106.316 -25.1053L106.359 -24.859C106.688 -24.9158 107.018 -24.9725 107.348 -25.0289L107.306 -25.2753C107.636 -25.3318 107.966 -25.388 108.296 -25.444L108.338 -25.1975C108.668 -25.2535 108.998 -25.3092 109.328 -25.3647L109.286 -25.6112C109.616 -25.6667 109.946 -25.722 110.276 -25.777L110.317 -25.5304C110.647 -25.5854 110.977 -25.6401 111.306 -25.6946L111.266 -25.9412C111.595 -25.9958 111.925 -26.05 112.255 -26.104L112.295 -25.8573C112.625 -25.9113 112.954 -25.965 113.283 -26.0184L113.243 -26.2652C113.573 -26.3187 113.902 -26.3719 114.232 -26.4248L114.271 -26.178C114.601 -26.2309 114.93 -26.2835 115.259 -26.3359L115.219 -26.5828C115.548 -26.6352 115.877 -26.6873 116.206 -26.7391L116.245 -26.4922C116.577 -26.5445 116.909 -26.5965 117.24 -26.6482L117.202 -26.8952C117.533 -26.947 117.865 -26.9985 118.197 -27.0497L118.235 -26.8026C118.566 -26.8538 118.898 -26.9047 119.229 -26.9553L119.191 -27.2024C119.522 -27.253 119.853 -27.3033 120.184 -27.3533L120.222 -27.1061C120.552 -27.1561 120.883 -27.2058 121.213 -27.2551L121.176 -27.5024C121.507 -27.5518 121.837 -27.6009 122.167 -27.6496L122.204 -27.4023C122.534 -27.451 122.864 -27.4995 123.193 -27.5476L123.157 -27.795C123.487 -27.8431 123.817 -27.8909 124.146 -27.9384L124.182 -27.6909C124.511 -27.7384 124.84 -27.7855 125.168 -27.8323L125.133 -28.0798C125.463 -28.1268 125.792 -28.1734 126.121 -28.2197L126.156 -27.9721C126.49 -28.0191 126.824 -28.0657 127.157 -28.1119L127.123 -28.3596C127.457 -28.4058 127.79 -28.4517 128.123 -28.4973L128.157 -28.2496C128.49 -28.2952 128.822 -28.3403 129.154 -28.3852L129.121 -28.6329C129.453 -28.6778 129.785 -28.7222 130.117 -28.7663L130.15 -28.5185C130.482 -28.5626 130.813 -28.6063 131.144 -28.6497L131.112 -28.8976C131.443 -28.9409 131.774 -28.9839 132.104 -29.0266L132.136 -28.7786C132.467 -28.8212 132.796 -28.8634 133.126 -28.9053L133.095 -29.1533C133.424 -29.1951 133.754 -29.2366 134.083 -29.2777L134.114 -29.0296C134.443 -29.0707 134.771 -29.1113 135.1 -29.1516L135.069 -29.3998C135.402 -29.4406 135.734 -29.481 136.066 -29.5211L136.096 -29.2729C136.432 -29.3133 136.767 -29.3534 137.102 -29.393L137.073 -29.6413C137.408 -29.6809 137.742 -29.7202 138.076 -29.759L138.105 -29.5106C138.439 -29.5494 138.773 -29.5877 139.106 -29.6256L139.078 -29.874C139.411 -29.912 139.744 -29.9495 140.076 -29.9865L140.104 -29.738C140.436 -29.7751 140.768 -29.8116 141.099 -29.8478L141.072 -30.0963C141.403 -30.1324 141.734 -30.1681 142.064 -30.2034L142.091 -29.9548C142.421 -29.99 142.751 -30.0248 143.08 -30.0591L143.054 -30.3077C143.383 -30.3421 143.712 -30.3759 144.041 -30.4093L144.066 -30.1606C144.396 -30.1942 144.725 -30.2273 145.054 -30.2599L145.029 -30.5086C145.368 -30.5422 145.705 -30.5753 146.043 -30.6078L146.067 -30.3589C146.404 -30.3915 146.74 -30.4235 147.076 -30.455L147.052 -30.7039C147.388 -30.7354 147.724 -30.7664 148.059 -30.7969L148.081 -30.5479C148.416 -30.5783 148.75 -30.6083 149.083 -30.6377L149.061 -30.8867C149.394 -30.9161 149.727 -30.945 150.059 -30.9733L150.081 -30.7242C150.413 -30.7526 150.744 -30.7804 151.074 -30.8076L151.054 -31.0568C151.385 -31.084 151.715 -31.1108 152.044 -31.1369L152.064 -30.8877C152.393 -30.9139 152.722 -30.9395 153.05 -30.9645L153.031 -31.2138C153.36 -31.239 153.688 -31.2636 154.016 -31.2876L154.035 -31.0383C154.375 -31.0632 154.715 -31.0876 155.053 -31.1113L155.036 -31.3607C155.375 -31.3845 155.713 -31.4076 156.051 -31.4301L156.068 -31.1807C156.405 -31.2031 156.741 -31.225 157.077 -31.2462L157.061 -31.4957C157.397 -31.517 157.732 -31.5376 158.066 -31.5576L158.081 -31.308C158.415 -31.328 158.748 -31.3473 159.08 -31.3659L159.066 -31.6155C159.398 -31.6342 159.73 -31.6523 160.06 -31.6696L160.073 -31.42C160.404 -31.4374 160.733 -31.4541 161.062 -31.4701L161.049 -31.7198C161.378 -31.7359 161.706 -31.7513 162.033 -31.766L162.044 -31.5163C162.378 -31.5313 162.71 -31.5456 163.041 -31.5592L163.031 -31.809C163.373 -31.8231 163.715 -31.8364 164.055 -31.8489L164.064 -31.5991C164.404 -31.6117 164.743 -31.6234 165.08 -31.6345L165.072 -31.8843C165.41 -31.8954 165.747 -31.9056 166.083 -31.9151L166.09 -31.6652C166.426 -31.6747 166.76 -31.6834 167.093 -31.6913L167.087 -31.9412C167.421 -31.9492 167.753 -31.9563 168.084 -31.9626L168.089 -31.7127C168.42 -31.719 168.75 -31.7246 169.078 -31.7293L169.075 -31.9793C169.404 -31.9841 169.731 -31.988 170.058 -31.9912L170.06 -31.7412C170.389 -31.7443 170.717 -31.7467 171.043 -31.7482L171.042 -31.9982C171.387 -31.9998 171.731 -32.0005 172.073 -32.0002L172.073 -31.7502C172.414 -31.7499 172.755 -31.7487 173.093 -31.7466L173.095 -31.9966C173.434 -31.9944 173.772 -31.9913 174.109 -31.9873L174.106 -31.7373C174.441 -31.7332 174.776 -31.7282 175.109 -31.7223L175.113 -31.9722C175.447 -31.9662 175.779 -31.9593 176.109 -31.9514L176.103 -31.7014C176.433 -31.6935 176.762 -31.6846 177.089 -31.6748L177.096 -31.9246C177.424 -31.9148 177.749 -31.9039 178.074 -31.892L178.065 -31.6422C178.398 -31.63 178.729 -31.6167 179.059 -31.6024L179.07 -31.8522C179.415 -31.8372 179.759 -31.821 180.101 -31.8036L180.088 -31.554C180.43 -31.5366 180.769 -31.5181 181.107 -31.4984L181.122 -31.748C181.46 -31.7283 181.796 -31.7073 182.13 -31.6852L182.114 -31.4357C182.448 -31.4136 182.779 -31.3903 183.109 -31.3658L183.128 -31.6151C183.458 -31.5906 183.787 -31.5648 184.113 -31.5378L184.093 -31.2886C184.418 -31.2617 184.742 -31.2335 185.064 -31.204L185.087 -31.453C185.414 -31.4231 185.739 -31.3918 186.063 -31.3593L186.038 -31.1106C186.384 -31.0757 186.728 -31.0394 187.069 -31.0015L187.096 -31.25C187.439 -31.2121 187.778 -31.1726 188.115 -31.1317L188.085 -30.8835C188.421 -30.8426 188.755 -30.8002 189.086 -30.7563L189.119 -31.0041C189.451 -30.9601 189.78 -30.9145 190.107 -30.8673L190.072 -30.6199C190.397 -30.5728 190.721 -30.5243 191.041 -30.4741L191.08 -30.7211C191.401 -30.6708 191.72 -30.6189 192.036 -30.5655L191.995 -30.319C192.328 -30.2626 192.659 -30.2044 192.986 -30.1444L193.031 -30.3903C193.374 -30.3275 193.714 -30.2627 194.05 -30.1959L194.001 -29.9507C194.336 -29.8842 194.668 -29.8157 194.996 -29.7452L195.048 -29.9896C195.378 -29.9188 195.703 -29.846 196.026 -29.7712L195.969 -29.5277C196.29 -29.4532 196.608 -29.3767 196.922 -29.2981L196.982 -29.5406C197.298 -29.4617 197.609 -29.3808 197.917 -29.2977L197.852 -29.0563C198.18 -28.9681 198.503 -28.8775 198.822 -28.7845L198.892 -29.0245C199.228 -28.9267 199.559 -28.8262 199.885 -28.7231L199.81 -28.4847C200.134 -28.3822 200.454 -28.2771 200.769 -28.1693L200.85 -28.4058C201.167 -28.2974 201.479 -28.1862 201.787 -28.0724L201.7 -27.8379C202.005 -27.7248 202.306 -27.609 202.601 -27.4905L202.694 -27.7226C203 -27.5999 203.301 -27.4743 203.597 -27.3457L203.497 -27.1165C203.818 -26.9769 204.132 -26.8339 204.44 -26.6875L204.548 -26.9132C204.858 -26.7655 205.162 -26.6142 205.46 -26.4594L205.345 -26.2376C205.639 -26.0841 205.928 -25.9271 206.209 -25.7666L206.333 -25.9838C206.618 -25.8217 206.895 -25.6559 207.166 -25.4864L207.034 -25.2744C207.316 -25.0977 207.591 -24.9171 207.859 -24.7324L208.001 -24.9381C208.287 -24.7404 208.565 -24.5381 208.833 -24.331L208.681 -24.1329C208.946 -23.9286 209.203 -23.7197 209.451 -23.5062L209.614 -23.6957C209.865 -23.4791 210.108 -23.2578 210.341 -23.0317L210.168 -22.8521C210.401 -22.6262 210.625 -22.3955 210.84 -22.16L211.024 -22.3284C211.255 -22.0755 211.475 -21.8169 211.684 -21.5527L211.488 -21.3974C211.694 -21.1378 211.889 -20.8727 212.073 -20.602L212.28 -20.7427C212.468 -20.467 212.645 -20.1855 212.81 -19.8982L212.594 -19.7732C212.756 -19.4918 212.908 -19.2047 213.048 -18.9118L213.274 -19.0199C213.416 -18.7229 213.548 -18.4201 213.668 -18.1114L213.435 -18.0207C213.553 -17.7179 213.659 -17.4093 213.755 -17.0947L213.994 -17.1673C214.091 -16.8467 214.177 -16.52 214.252 -16.1873L214.008 -16.1329C214.079 -15.8125 214.14 -15.4862 214.189 -15.1539L214.436 -15.1907C214.483 -14.8771 214.52 -14.5586 214.546 -14.2348L214.297 -14.2142C214.324 -13.8957 214.34 -13.572 214.347 -13.2431L214.597 -13.2482C214.604 -12.9142 214.601 -12.5749 214.587 -12.2305L214.337 -12.2402C214.324 -11.9006 214.301 -11.5556 214.267 -11.2051L214.516 -11.1813C214.486 -10.8672 214.448 -10.549 214.402 -10.2265L214.154 -10.2621C214.11 -9.95369 214.058 -9.64125 213.998 -9.32475L214.244 -9.27845C214.184 -8.95848 214.116 -8.63456 214.04 -8.30664L213.796 -8.36303C213.721 -8.03837 213.638 -7.70962 213.547 -7.37674L213.788 -7.3109C213.697 -6.97497 213.597 -6.63502 213.489 -6.291L213.251 -6.36567C213.155 -6.0611 213.054 -5.75322 212.945 -5.44201L213.182 -5.35995C213.08 -5.06618 212.972 -4.76955 212.858 -4.47004L212.625 -4.5586C212.512 -4.26119 212.394 -3.96085 212.269 -3.65753L212.501 -3.56285C212.376 -3.25755 212.245 -2.94936 212.109 -2.63824L211.88 -2.7387C211.744 -2.42945 211.602 -2.11722 211.455 -1.80199L211.682 -1.6961C211.533 -1.37912 211.379 -1.0592 211.219 -0.736315L210.995 -0.847317C210.916 -0.686701 210.835 -0.525331 210.752 -0.363207C210.672 -0.206779 210.593 -0.050705 210.515 0.105019L210.738 0.21767C210.581 0.528488 210.426 0.837898 210.273 1.14591L210.049 1.03487C209.896 1.34342 209.746 1.65059 209.597 1.95638L209.822 2.06578C209.673 2.37103 209.527 2.67488 209.382 2.97738L209.156 2.86964C209.012 3.1727 208.869 3.4744 208.728 3.77475L208.955 3.88077C208.814 4.18054 208.676 4.47896 208.54 4.77604L208.313 4.67177C208.176 4.96944 208.041 5.26579 207.909 5.56082L208.137 5.66331C208 5.96738 207.866 6.27003 207.733 6.57129L207.504 6.47066C207.364 6.79029 207.225 7.10837 207.09 7.42491L207.319 7.5235C207.184 7.83936 207.051 8.15367 206.92 8.46646L206.689 8.36994C206.558 8.68343 206.429 8.9954 206.302 9.30587L206.534 9.40028C206.408 9.71004 206.283 10.0183 206.162 10.3251L205.929 10.2328C205.807 10.5403 205.687 10.8463 205.57 11.1509L205.803 11.2409C205.686 11.5447 205.571 11.8471 205.458 12.148L205.224 12.0602C205.102 12.384 204.984 12.7061 204.867 13.0266L205.102 13.1119C204.984 13.4366 204.869 13.7597 204.756 14.0811L204.52 13.9983C204.407 14.3205 204.297 14.6411 204.189 14.96L204.426 15.0402C204.318 15.3582 204.213 15.6746 204.11 15.9894L203.873 15.9119C203.77 16.2276 203.669 16.5417 203.571 16.8541L203.81 16.9289C203.712 17.2404 203.617 17.5504 203.524 17.8588L203.285 17.7868C203.185 18.1176 203.089 18.4467 202.995 18.774L203.235 18.843C203.14 19.1741 203.048 19.5034 202.958 19.8309L202.717 19.7651C202.628 20.0936 202.541 20.4204 202.457 20.7455L202.699 20.8081C202.615 21.1321 202.534 21.4543 202.455 21.7747L202.212 21.7153C202.134 22.0369 202.058 22.3567 201.985 22.6749L202.228 22.7309C202.154 23.0552 202.082 23.3777 202.013 23.6984L201.768 23.6457C201.695 23.9852 201.625 24.3227 201.558 24.6583L201.803 24.7072C201.736 25.0416 201.673 25.3741 201.612 25.7047L201.366 25.6595C201.305 25.9913 201.247 26.3213 201.192 26.6495L201.438 26.691C201.383 27.0179 201.331 27.343 201.282 27.6664L201.035 27.6288C200.985 27.9572 200.938 28.2837 200.894 28.6085L201.141 28.6422C201.095 28.9841 201.052 29.3241 201.012 29.6621L200.763 29.6326C200.723 29.972 200.686 30.3095 200.652 30.6451L200.901 30.6703C200.867 31.0045 200.836 31.3367 200.808 31.6672L200.559 31.6463C200.531 31.9781 200.507 32.3081 200.485 32.6364L200.734 32.653C200.712 32.987 200.693 33.3191 200.677 33.6494L200.427 33.6372C200.41 33.9808 200.397 34.3224 200.387 34.6621L200.637 34.6696C200.626 35.0078 200.619 35.3441 200.615 35.6785L200.365 35.6756C200.361 36.0115 200.361 36.3456 200.363 36.678L200.613 36.6763C200.615 37.0071 200.62 37.3362 200.628 37.6635L200.378 37.6697C200.387 38.0115 200.399 38.3514 200.414 38.6896L200.663 38.6786C200.678 39.0173 200.696 39.3543 200.718 39.6895L200.468 39.7052C200.489 40.042 200.514 40.377 200.541 40.7103L200.79 40.6898C200.817 41.0215 200.848 41.3516 200.881 41.68L200.632 41.7051C200.666 42.0409 200.703 42.3751 200.742 42.7077L200.991 42.678C201.031 43.0142 201.074 43.3488 201.12 43.6819L200.873 43.7162C200.919 44.0508 200.969 44.3837 201.021 44.7151L201.268 44.6762C201.32 45.0061 201.374 45.3344 201.432 45.6613L201.186 45.7047C201.244 46.0356 201.305 46.365 201.369 46.6931L201.614 46.6454C201.679 46.9768 201.746 47.3068 201.816 47.6354L201.571 47.6874C201.641 48.0174 201.714 48.346 201.789 48.6734L202.033 48.6173C202.108 48.9432 202.186 49.2679 202.266 49.5914L202.023 49.6515C202.104 49.9773 202.187 50.3019 202.272 50.6253L202.514 50.5614C202.6 50.8866 202.689 51.2107 202.779 51.5337L202.539 51.6013C202.63 51.9255 202.723 52.2486 202.819 52.5706L203.059 52.4994C203.154 52.8203 203.251 53.1402 203.351 53.4592L203.113 53.5338C203.213 53.8542 203.315 54.1736 203.419 54.4922L203.657 54.4145C203.761 54.7331 203.867 55.051 203.976 55.368L203.739 55.4488C203.848 55.7669 203.958 56.0841 204.071 56.4007L204.306 56.317C204.418 56.6326 204.532 56.9476 204.648 57.2619L204.413 57.3482C204.529 57.6633 204.646 57.9777 204.766 58.2916L204.999 58.2029C205.118 58.5156 205.238 58.8277 205.36 59.1394L205.127 59.2304C205.249 59.5428 205.373 59.8548 205.498 60.1664L205.73 60.0733C205.855 60.3842 205.981 60.6948 206.109 61.0051L205.877 61.1001C206.005 61.4106 206.134 61.7208 206.264 62.0308L206.494 61.9342C206.623 62.2419 206.754 62.5495 206.885 62.857L206.655 62.9552C206.787 63.2632 206.919 63.571 207.053 63.8787L207.282 63.7792C207.416 64.0865 207.55 64.3939 207.685 64.7012L207.456 64.8019C207.533 64.9767 207.61 65.1515 207.688 65.3263C207.747 65.4589 207.806 65.5915 207.865 65.7241L208.093 65.6224C208.228 65.9268 208.365 66.2313 208.502 66.536L208.274 66.6385C208.411 66.9435 208.548 67.2486 208.687 67.554L208.914 67.4509C209.052 67.7561 209.191 68.0616 209.33 68.3675L209.103 68.471C209.187 68.6567 209.272 68.8426 209.357 69.0286C209.401 69.1264 209.446 69.2242 209.491 69.322C209.501 69.3446 209.511 69.3671 209.522 69.3897L209.749 69.2859C209.887 69.5885 210.026 69.8915 210.164 70.195L209.937 70.299L210.354 71.2111L210.581 71.1072C210.72 71.4118 210.86 71.7169 210.999 72.0227L210.772 72.1264C210.911 72.4322 211.051 72.7385 211.19 73.0456L211.418 72.9422C211.555 73.2451 211.693 73.5488 211.83 73.8532L211.602 73.956C211.739 74.2596 211.876 74.5639 212.013 74.8691L212.241 74.7669C212.378 75.0723 212.514 75.3785 212.65 75.6857L212.422 75.7871C212.558 76.0939 212.694 76.4017 212.829 76.7104L213.058 76.6099C213.192 76.9152 213.326 77.2214 213.459 77.5286L213.229 77.628C213.362 77.9329 213.493 78.2387 213.624 78.5456L213.854 78.4474C213.985 78.7548 214.116 79.0632 214.246 79.3727L214.015 79.4696C214.145 79.7786 214.275 80.0889 214.403 80.4003L214.634 80.3049C214.762 80.6144 214.889 80.925 215.015 81.237L214.783 81.3307C214.907 81.6377 215.031 81.9458 215.153 82.2552L215.386 82.1631C215.509 82.4731 215.631 82.7844 215.752 83.0971L215.518 83.1873C215.639 83.4993 215.759 83.8126 215.878 84.1274L216.112 84.0391C216.231 84.3545 216.349 84.6713 216.466 84.9896L216.231 85.0758C216.345 85.3855 216.458 85.6965 216.57 86.009L216.805 85.9248C216.917 86.2377 217.028 86.552 217.137 86.8679L216.901 86.9498C217.01 87.2649 217.118 87.5815 217.225 87.8997L217.462 87.8201C217.569 88.1391 217.675 88.4596 217.78 88.7817L217.542 88.8589C217.645 89.1758 217.746 89.4943 217.846 89.8143L218.085 89.7397C218.184 90.0551 218.281 90.3721 218.377 90.6908L218.138 90.763C218.234 91.0808 218.328 91.4002 218.421 91.7214L218.661 91.6518C218.754 91.9738 218.846 92.2975 218.936 92.623L218.696 92.6898C218.786 93.0143 218.874 93.3406 218.961 93.6687L219.203 93.6046C219.287 93.9242 219.37 94.2454 219.452 94.5684L219.21 94.6296C219.29 94.9492 219.37 95.2705 219.447 95.5936L219.69 95.5352C219.768 95.8592 219.845 96.185 219.919 96.5125L219.675 96.5681C219.75 96.8947 219.823 97.2231 219.894 97.5534L220.138 97.5008C220.209 97.8321 220.279 98.1652 220.347 98.5002L220.102 98.5498C220.167 98.8703 220.23 99.1924 220.291 99.5164L220.537 99.4698C220.599 99.7943 220.659 100.121 220.717 100.449L220.471 100.492C220.529 100.819 220.585 101.148 220.64 101.479L220.886 101.439C220.941 101.77 220.994 102.104 221.045 102.44L220.798 102.477C220.849 102.812 220.898 103.148 220.945 103.487L221.193 103.452C221.238 103.777 221.281 104.103 221.323 104.431L221.075 104.462C221.117 104.788 221.156 105.115 221.194 105.445L221.443 105.416C221.481 105.747 221.517 106.079 221.551 106.413L221.303 106.438C221.337 106.772 221.369 107.106 221.4 107.443L221.649 107.421C221.68 107.759 221.708 108.098 221.735 108.44L221.486 108.46C221.512 108.789 221.536 109.12 221.558 109.452L221.807 109.436C221.829 109.763 221.849 110.091 221.867 110.422L221.618 110.435C221.636 110.765 221.652 111.096 221.667 111.429L221.916 111.418C221.931 111.752 221.944 112.088 221.954 112.426L221.704 112.434C221.715 112.77 221.724 113.109 221.731 113.449L221.981 113.444C221.988 113.785 221.993 114.128 221.996 114.473L221.746 114.475C221.749 114.799 221.75 115.124 221.749 115.451L221.999 115.451C221.999 115.779 221.996 116.109 221.992 116.441L221.742 116.437C221.738 116.768 221.732 117.1 221.724 117.434L221.974 117.44C221.966 117.775 221.957 118.112 221.945 118.451L221.695 118.442C221.684 118.78 221.67 119.119 221.655 119.461L221.905 119.472C221.89 119.812 221.873 120.155 221.853 120.499L221.604 120.486C221.586 120.808 221.567 121.132 221.545 121.458L221.795 121.474C221.774 121.801 221.751 122.129 221.726 122.459L221.477 122.441C221.452 122.77 221.425 123.1 221.397 123.433L221.646 123.454C221.618 123.787 221.588 124.122 221.556 124.459L221.308 124.435C221.276 124.771 221.242 125.109 221.207 125.448L221.456 125.474C221.42 125.814 221.383 126.156 221.344 126.5L221.096 126.471C221.059 126.798 221.02 127.126 220.979 127.455L221.227 127.485C221.188 127.808 221.147 128.133 221.104 128.459L220.856 128.426C220.813 128.751 220.769 129.078 220.722 129.407L220.97 129.441C220.924 129.77 220.876 130.101 220.826 130.433L220.579 130.396C220.53 130.728 220.479 131.061 220.426 131.396L220.673 131.435C220.62 131.77 220.565 132.107 220.509 132.446L220.262 132.405C220.206 132.743 220.148 133.082 220.088 133.423L220.334 133.466C220.278 133.787 220.221 134.109 220.161 134.433L219.915 134.388C219.857 134.707 219.797 135.028 219.735 135.35L219.981 135.397C219.919 135.72 219.856 136.044 219.792 136.37L219.546 136.321C219.482 136.646 219.416 136.973 219.348 137.301L219.593 137.351C219.525 137.68 219.455 138.01 219.384 138.341L219.14 138.289C219.069 138.62 218.997 138.952 218.923 139.286L219.167 139.34C219.093 139.674 219.017 140.01 218.939 140.347L218.696 140.292C218.621 140.617 218.545 140.943 218.467 141.271L218.711 141.328C218.636 141.643 218.56 141.959 218.483 142.277L218.24 142.218C218.163 142.535 218.084 142.853 218.004 143.172L218.247 143.233C218.166 143.553 218.085 143.875 218.002 144.197L217.76 144.135C217.677 144.457 217.592 144.781 217.506 145.105L217.748 145.169C217.662 145.495 217.575 145.821 217.486 146.149L217.245 146.084C217.156 146.411 217.066 146.74 216.974 147.07L217.215 147.137C217.123 147.468 217.03 147.8 216.935 148.133L216.694 148.065C216.603 148.386 216.511 148.707 216.417 149.03L216.657 149.1C216.566 149.411 216.475 149.722 216.382 150.035L216.142 149.964C216.095 150.125 216.047 150.286 215.998 150.447C215.953 150.599 215.907 150.752 215.86 150.905L216.1 150.977C216.004 151.292 215.907 151.609 215.809 151.926L215.57 151.852C215.472 152.17 215.373 152.488 215.273 152.807L215.511 152.883C215.41 153.202 215.308 153.524 215.205 153.846L214.967 153.77C214.863 154.092 214.759 154.415 214.653 154.739L214.891 154.817C214.784 155.142 214.677 155.468 214.568 155.795L214.331 155.716C214.222 156.043 214.112 156.371 214.001 156.7L214.238 156.78C214.133 157.089 214.028 157.398 213.921 157.708L213.685 157.627C213.58 157.933 213.473 158.24 213.366 158.549L213.602 158.631C213.494 158.94 213.385 159.249 213.275 159.56L213.039 159.477C212.93 159.787 212.818 160.099 212.706 160.411L212.941 160.496C212.829 160.809 212.715 161.123 212.6 161.438L212.365 161.352C212.251 161.667 212.135 161.983 212.017 162.3L212.252 162.387C212.135 162.704 212.016 163.022 211.896 163.342L211.662 163.254C211.543 163.573 211.422 163.894 211.3 164.215L211.533 164.304C211.411 164.625 211.288 164.948 211.163 165.272L210.93 165.182C210.867 165.344 210.805 165.506 210.742 165.669C210.679 165.83 210.616 165.99 210.553 166.151L210.786 166.242C210.659 166.563 210.531 166.882 210.401 167.198L210.17 167.104C210.041 167.419 209.91 167.732 209.778 168.044L210.008 168.141C209.875 168.454 209.741 168.764 209.605 169.072L209.377 168.971C209.242 169.278 209.105 169.583 208.967 169.886L209.194 169.99C209.056 170.293 208.916 170.595 208.774 170.895L208.548 170.788C208.407 171.087 208.265 171.383 208.121 171.678L208.346 171.788C208.201 172.083 208.055 172.376 207.908 172.668L207.685 172.555C207.538 172.846 207.389 173.135 207.24 173.422L207.461 173.538C207.302 173.843 207.141 174.146 206.978 174.447L206.758 174.328C206.596 174.627 206.432 174.924 206.267 175.219L206.485 175.341C206.319 175.637 206.152 175.931 205.983 176.222L205.767 176.097C205.599 176.387 205.429 176.675 205.257 176.961L205.472 177.09C205.3 177.377 205.126 177.661 204.951 177.944L204.738 177.812C204.564 178.093 204.388 178.372 204.21 178.649L204.421 178.784C204.243 179.062 204.063 179.337 203.882 179.611L203.673 179.473C203.492 179.746 203.309 180.017 203.125 180.286L203.331 180.427C203.138 180.71 202.943 180.989 202.747 181.267L202.543 181.122C202.347 181.398 202.149 181.672 201.95 181.944L202.152 182.091C201.952 182.364 201.751 182.634 201.548 182.902L201.349 182.751C201.146 183.017 200.943 183.281 200.737 183.543L200.934 183.698C200.728 183.961 200.52 184.221 200.311 184.479L200.116 184.322C199.908 184.579 199.698 184.834 199.486 185.086L199.678 185.247C199.466 185.5 199.252 185.751 199.036 186L198.847 185.836C198.629 186.088 198.409 186.338 198.187 186.585L198.373 186.752C198.147 187.005 197.919 187.255 197.69 187.502L197.507 187.332C197.278 187.579 197.048 187.823 196.816 188.064L196.997 188.237C196.764 188.48 196.53 188.72 196.294 188.958L196.117 188.782C195.882 189.019 195.645 189.253 195.407 189.485L195.582 189.664C195.343 189.897 195.103 190.128 194.86 190.356L194.689 190.174C194.448 190.401 194.206 190.626 193.961 190.848L194.13 191.033C193.884 191.257 193.636 191.478 193.388 191.698L193.222 191.51C192.97 191.732 192.717 191.952 192.462 192.169L192.624 192.359C192.367 192.577 192.11 192.793 191.85 193.006L191.692 192.813C191.433 193.025 191.174 193.235 190.912 193.442L191.068 193.638C190.806 193.846 190.542 194.052 190.277 194.256L190.124 194.057C189.86 194.26 189.595 194.46 189.327 194.658L189.476 194.859C189.208 195.058 188.938 195.254 188.667 195.448L188.522 195.244C188.252 195.438 187.98 195.628 187.707 195.817L187.849 196.023C187.573 196.213 187.296 196.401 187.017 196.587L186.879 196.379C186.601 196.564 186.322 196.747 186.041 196.927L186.177 197.137C185.895 197.319 185.612 197.497 185.327 197.674L185.196 197.461C184.912 197.637 184.628 197.811 184.342 197.982L184.47 198.196C184.183 198.368 183.894 198.538 183.604 198.705L183.479 198.488C183.191 198.655 182.9 198.819 182.609 198.981L182.73 199.2C182.438 199.362 182.144 199.523 181.849 199.681L181.731 199.46C181.437 199.617 181.143 199.772 180.847 199.925L180.962 200.147C180.665 200.3 180.367 200.451 180.068 200.599L179.957 200.375C179.659 200.523 179.36 200.669 179.059 200.813L179.167 201.038C178.865 201.183 178.562 201.325 178.258 201.465L178.153 201.237C177.85 201.377 177.546 201.514 177.241 201.649L177.342 201.878C177.035 202.013 176.727 202.147 176.418 202.278L176.32 202.048C176.012 202.179 175.703 202.308 175.393 202.434L175.487 202.666C175.179 202.792 174.869 202.916 174.558 203.037L174.467 202.805C174.158 202.926 173.848 203.044 173.537 203.161L173.625 203.395C173.313 203.513 173 203.628 172.685 203.741L172.601 203.506C172.414 203.573 172.226 203.64 172.039 203.706C171.912 203.75 171.785 203.795 171.658 203.839L171.739 204.075C171.423 204.184 171.105 204.291 170.787 204.397L170.708 204.159C170.391 204.264 170.072 204.367 169.753 204.468L169.828 204.707C169.508 204.808 169.186 204.908 168.863 205.005L168.791 204.766C168.472 204.862 168.151 204.957 167.83 205.049L167.9 205.289C167.581 205.381 167.261 205.471 166.94 205.56L166.874 205.319C166.554 205.407 166.233 205.493 165.911 205.577L165.975 205.819C165.652 205.904 165.328 205.986 165.004 206.067L164.943 205.825C164.62 205.905 164.295 205.984 163.97 206.062L164.027 206.305C163.701 206.382 163.374 206.458 163.046 206.532L162.991 206.288C162.664 206.361 162.336 206.433 162.007 206.503L162.059 206.748C161.729 206.818 161.399 206.886 161.068 206.953L161.018 206.708C160.694 206.773 160.37 206.837 160.044 206.898L160.091 207.144C159.765 207.206 159.438 207.266 159.11 207.325L159.066 207.079C158.739 207.138 158.411 207.195 158.083 207.25L158.124 207.497C157.795 207.552 157.465 207.606 157.134 207.658L157.095 207.411C156.765 207.463 156.434 207.514 156.102 207.563L156.139 207.81C155.806 207.859 155.473 207.906 155.14 207.952L155.106 207.705C154.773 207.75 154.439 207.794 154.104 207.837L154.136 208.085C153.804 208.127 153.472 208.168 153.139 208.207L153.11 207.959C152.781 207.998 152.452 208.035 152.123 208.07L152.149 208.319C151.819 208.355 151.488 208.389 151.156 208.422L151.131 208.173C150.8 208.206 150.468 208.237 150.136 208.267L150.159 208.516C149.826 208.546 149.492 208.575 149.158 208.602L149.137 208.353C148.804 208.38 148.47 208.405 148.135 208.429L148.153 208.679C147.818 208.703 147.482 208.726 147.145 208.747L147.129 208.498C146.793 208.519 146.457 208.539 146.12 208.558L146.134 208.807C145.802 208.826 145.469 208.843 145.136 208.858L145.124 208.609C144.794 208.624 144.462 208.638 144.13 208.651L144.14 208.901C143.807 208.914 143.474 208.926 143.141 208.936L143.133 208.686C142.8 208.697 142.467 208.706 142.133 208.714L142.139 208.963C141.804 208.971 141.469 208.978 141.134 208.983L141.13 208.733C140.795 208.738 140.46 208.742 140.124 208.745L140.126 208.995C139.79 208.998 139.453 208.999 139.116 209L139.116 208.75C138.779 208.75 138.442 208.749 138.105 208.747L138.103 208.997C137.771 208.995 137.438 208.991 137.105 208.987L137.109 208.737C136.777 208.732 136.445 208.727 136.113 208.72L136.107 208.97C135.774 208.963 135.441 208.955 135.107 208.946L135.114 208.696C134.781 208.687 134.447 208.677 134.113 208.665L134.105 208.915C133.77 208.904 133.436 208.891 133.1 208.878L133.111 208.628C132.776 208.615 132.441 208.6 132.106 208.584L132.094 208.834C131.758 208.818 131.422 208.801 131.086 208.783L131.099 208.533C130.763 208.515 130.427 208.496 130.091 208.476L130.076 208.726C129.744 208.706 129.411 208.685 129.079 208.663L129.095 208.413C128.764 208.392 128.432 208.369 128.1 208.345L128.082 208.594C127.75 208.57 127.417 208.545 127.084 208.519L127.103 208.27C126.964 208.259 126.824 208.248 126.684 208.237C126.491 208.221 126.298 208.205 126.105 208.189L126.084 208.438C125.751 208.41 125.417 208.381 125.083 208.351L125.106 208.102C124.772 208.072 124.439 208.041 124.105 208.009L124.081 208.258C123.747 208.226 123.412 208.193 123.078 208.16L123.103 207.911C122.768 207.877 122.434 207.842 122.099 207.807L122.073 208.055C121.741 208.02 121.409 207.983 121.077 207.946L121.104 207.698C120.774 207.661 120.443 207.623 120.112 207.584L120.083 207.832C119.752 207.793 119.42 207.753 119.089 207.712L119.119 207.464C118.788 207.424 118.457 207.382 118.126 207.34L118.094 207.588C117.762 207.545 117.43 207.502 117.098 207.457L117.131 207.21C116.799 207.165 116.468 207.12 116.136 207.074L116.101 207.322C115.769 207.276 115.437 207.229 115.104 207.182L115.14 206.934C114.808 206.887 114.476 206.838 114.143 206.789L114.107 207.036C113.775 206.987 113.444 206.937 113.113 206.886L113.15 206.639C112.821 206.589 112.492 206.538 112.162 206.486L112.123 206.732C111.794 206.68 111.464 206.627 111.134 206.574L111.174 206.327C110.845 206.273 110.515 206.219 110.186 206.164L110.144 206.41C109.814 206.355 109.484 206.299 109.154 206.242L109.197 205.996C108.867 205.939 108.538 205.882 108.208 205.824L108.164 206.07C107.834 206.012 107.504 205.953 107.174 205.893L107.219 205.647C106.889 205.587 106.56 205.527 106.23 205.465L106.185 205.711C105.855 205.65 105.525 205.588 105.195 205.526L105.242 205.28C104.914 205.218 104.586 205.155 104.258 205.091L104.211 205.336C103.883 205.273 103.554 205.208 103.226 205.143L103.275 204.898C102.947 204.833 102.62 204.767 102.292 204.7L102.242 204.945C101.914 204.879 101.587 204.812 101.259 204.744L101.309 204.499C100.982 204.431 100.655 204.363 100.327 204.294L100.276 204.538C99.9481 204.469 99.6206 204.399 99.2931 204.329L99.3457 204.085C99.0186 204.014 98.6917 203.943 98.3648 203.871L98.3112 204.116C97.984 204.044 97.6569 203.971 97.33 203.898L97.3845 203.654C97.0579 203.582 96.7315 203.508 96.4052 203.434L96.3498 203.678C96.0232 203.603 95.6968 203.529 95.3705 203.453L95.4268 203.21C95.1009 203.134 94.775 203.058 94.4494 202.982L94.3922 203.225C94.0662 203.149 93.7404 203.071 93.4148 202.994L93.4729 202.75C93.1475 202.673 92.8224 202.594 92.4974 202.516L92.4384 202.759C92.1132 202.68 91.7881 202.6 91.4632 202.52L91.523 202.277C91.1984 202.197 90.874 202.117 90.5498 202.036L90.4892 202.278C90.1647 202.197 89.8404 202.116 89.5164 202.033L89.5779 201.791C89.2537 201.709 88.9297 201.626 88.6059 201.543L88.5436 201.785C88.2185 201.701 87.8937 201.617 87.5691 201.532L87.6322 201.29C87.3079 201.206 86.9838 201.12 86.6599 201.035L86.596 201.277C86.2719 201.191 85.9481 201.105 85.6245 201.018L85.6892 200.776C85.3659 200.69 85.0429 200.603 84.7201 200.515L84.6546 200.756C84.3316 200.668 84.0089 200.58 83.6864 200.492L83.7527 200.251C83.4305 200.162 83.1086 200.073 82.787 199.983L82.72 200.224C82.3981 200.135 82.0766 200.045 81.7554 199.954L81.8232 199.713C81.5022 199.623 81.1816 199.532 80.8612 199.441L80.7927 199.681C80.4691 199.589 80.1459 199.496 79.823 199.403L79.8923 199.163C79.5695 199.07 79.247 198.976 78.9249 198.882L78.8549 199.122C78.5325 199.028 78.2105 198.934 77.8888 198.839L77.9596 198.599C77.6382 198.504 77.3172 198.409 76.9965 198.313L76.9251 198.553C76.6042 198.457 76.2837 198.361 75.9636 198.264L76.0357 198.025C75.7159 197.929 75.3964 197.832 75.0773 197.735L75.0045 197.974C74.6852 197.876 74.3663 197.779 74.0478 197.681L74.1214 197.442C73.8032 197.344 73.4853 197.246 73.168 197.147L73.0937 197.386C72.7728 197.286 72.4524 197.186 72.1324 197.085L72.2073 196.847C71.8858 196.746 71.5648 196.644 71.2443 196.543L71.1687 196.781C70.8479 196.679 70.5276 196.577 70.2078 196.475L70.2841 196.237C69.9645 196.134 69.6454 196.032 69.3268 195.929L69.2499 196.167C68.9311 196.064 68.6127 195.96 68.2949 195.856L68.3725 195.619C68.2292 195.572 68.0861 195.525 67.943 195.478C67.7689 195.421 67.595 195.364 67.4212 195.307L67.343 195.544C67.0263 195.44 66.71 195.336 66.3943 195.231L66.4731 194.993C66.1576 194.889 65.8426 194.784 65.5282 194.678L65.4488 194.915C65.1306 194.809 64.813 194.702 64.496 194.595L64.5761 194.358C64.2559 194.249 63.9363 194.141 63.6173 194.032L63.5366 194.269C63.2174 194.16 62.8988 194.051 62.5808 193.942L62.6621 193.705C62.3443 193.596 62.0271 193.486 61.7106 193.377L61.6287 193.613C61.3119 193.503 60.9958 193.393 60.6803 193.283L60.7628 193.047C60.4475 192.936 60.1329 192.826 59.8189 192.715L59.7358 192.951C59.4216 192.84 59.1081 192.729 58.7952 192.618L58.8789 192.383C58.5662 192.272 58.2543 192.16 57.9429 192.049L57.8587 192.284C57.5424 192.171 57.2267 192.058 56.9118 191.944L56.9967 191.709C56.6778 191.594 56.3597 191.479 56.0423 191.363L55.9569 191.598C55.6394 191.483 55.3225 191.367 55.0065 191.251L55.0925 191.017C54.7766 190.901 54.4615 190.785 54.1472 190.669L54.0607 190.904C53.7462 190.788 53.4325 190.672 53.1196 190.555L53.2067 190.321C52.8939 190.205 52.582 190.088 52.2709 189.972L52.1832 190.206C51.8719 190.089 51.5614 189.973 51.2517 189.856L51.3399 189.622C51.0304 189.505 50.7218 189.388 50.414 189.272L50.3252 189.505C50.0084 189.385 49.6924 189.265 49.3774 189.144L49.4667 188.911C49.1494 188.789 48.8331 188.668 48.5177 188.547L48.4278 188.78C48.1123 188.658 47.7976 188.537 47.4839 188.415L47.5743 188.182C47.2608 188.06 46.9482 187.939 46.6366 187.817L46.5457 188.05C46.2339 187.928 45.9231 187.807 45.6133 187.685L45.7047 187.452C45.3951 187.331 45.0864 187.209 44.7788 187.087L44.6868 187.32C44.379 187.198 44.0722 187.076 43.7664 186.955L43.8589 186.722C43.549 186.599 43.2401 186.476 42.9323 186.352L42.8394 186.584C42.5219 186.457 42.2056 186.33 41.8904 186.203L41.9839 185.971C41.6689 185.844 41.3551 185.717 41.0424 185.59L40.9484 185.822C40.6356 185.695 40.3239 185.568 40.0134 185.441L40.1079 185.21C39.7976 185.083 39.4885 184.957 39.1805 184.83L39.0855 185.061C38.7774 184.935 38.4705 184.808 38.1649 184.682L38.2604 184.451C37.9549 184.325 37.6506 184.198 37.3476 184.072L37.2516 184.303C36.9458 184.176 36.6413 184.049 36.3381 183.922L36.4346 183.691C36.2446 183.612 36.0551 183.533 35.8662 183.453C35.7397 183.4 35.6135 183.347 35.4876 183.294L35.3906 183.524C35.0761 183.392 34.7631 183.26 34.4516 183.128L34.5491 182.898C34.2377 182.766 33.9278 182.634 33.6193 182.503L33.5214 182.733C33.2127 182.601 32.9056 182.47 32.6 182.339L32.6984 182.109C32.3929 181.978 32.089 181.848 31.7865 181.717L31.6875 181.947C31.3849 181.817 31.0838 181.686 30.7842 181.557L30.8837 181.327C30.5767 181.194 30.2714 181.061 29.9677 180.929L29.8678 181.158C29.5515 181.02 29.237 180.883 28.9243 180.746L29.0247 180.517C28.7122 180.38 28.4015 180.243 28.0926 180.107L27.9917 180.336C27.6827 180.199 27.3755 180.063 27.0701 179.928L27.1715 179.699C26.8663 179.564 26.563 179.429 26.2616 179.295L26.1597 179.523C25.8582 179.388 25.5585 179.254 25.2607 179.121L25.363 178.893C25.0648 178.759 24.7685 178.626 24.4742 178.493L24.3714 178.721C24.0536 178.578 23.738 178.435 23.4247 178.293L23.528 178.065C23.2148 177.923 22.904 177.782 22.5955 177.641L22.4918 177.868C22.1832 177.728 21.8769 177.587 21.5729 177.448L21.6772 177.221C21.3734 177.081 21.072 176.943 20.773 176.805L20.6683 177.032C20.3692 176.894 20.0725 176.757 19.7782 176.62L19.8834 176.394C19.5849 176.255 19.2889 176.117 18.9955 175.981L18.8898 176.207C18.5718 176.059 18.2567 175.912 17.9447 175.765L18.0508 175.539C17.739 175.393 17.4301 175.248 17.1244 175.103L17.0178 175.329C16.7119 175.185 16.4091 175.042 16.1094 174.9L16.2165 174.674C15.917 174.532 15.6206 174.391 15.3274 174.251L15.2198 174.477C14.9264 174.337 14.6362 174.198 14.3492 174.061L14.4573 173.835C14.1421 173.684 13.8307 173.535 13.5234 173.386L13.4148 173.611C13.1006 173.46 12.7905 173.31 12.4846 173.162L12.5937 172.937C12.288 172.788 11.9864 172.642 11.6891 172.497L11.5795 172.722C11.2821 172.576 10.9889 172.433 10.7 172.291L10.8101 172.067C10.5192 171.924 10.2327 171.783 9.95071 171.644L9.84012 171.868C9.51663 171.709 9.19899 171.552 8.88729 171.397L8.99843 171.173C8.68691 171.018 8.38134 170.866 8.08181 170.717L7.97012 170.94C7.67041 170.791 7.37675 170.644 7.08922 170.499L7.20144 170.276C6.9141 170.131 6.63289 169.99 6.35792 169.851L6.24517 170.074C5.91849 169.909 5.6006 169.748 5.29169 169.59L5.40505 169.368C5.09257 169.209 4.78927 169.054 4.49533 168.903L4.38135 169.126C4.0872 168.975 3.80241 168.829 3.52715 168.687L3.64172 168.465C3.50419 168.394 3.36904 168.324 3.23629 168.255C3.08343 168.176 2.93367 168.093 2.78706 168.007L2.6601 168.222C2.35471 168.042 2.06254 167.847 1.78414 167.638L1.93438 167.438C1.65937 167.231 1.39818 167.01 1.15136 166.777L0.979512 166.958C0.723364 166.716 0.482256 166.46 0.256768 166.192L0.448033 166.031C0.227531 165.769 0.0223503 165.495 -0.166929 165.211L-0.375051 165.349C-0.569574 165.057 -0.747721 164.754 -0.908898 164.441L-0.686702 164.327C-0.843123 164.023 -0.983168 163.711 -1.10625 163.391L-1.33963 163.48C-1.46507 163.154 -1.57333 162.819 -1.66381 162.478L-1.42217 162.414C-1.50947 162.085 -1.57982 161.749 -1.63267 161.409L-1.87972 161.447Z" stroke="white" stroke-width="0.5" stroke-dasharray="1 1"/>
</svg>
