<svg width="90" height="90" viewBox="0 0 90 90" fill="none" xmlns="http://www.w3.org/2000/svg">
<g clip-path="url(#clip0_114_197)">
<path fill-rule="evenodd" clip-rule="evenodd" d="M78.1072 14.4643C75.8623 18.0972 73.9337 21.9543 72.3215 26.0357C69.9557 24.7812 67.491 23.7098 64.9286 22.8214C64.1202 22.5965 63.9059 22.168 64.2857 21.5357C66.0157 17.9698 67.8369 14.4341 69.75 10.9286C72.7033 11.6645 75.4895 12.8431 78.1072 14.4643Z" fill="#C82F2B"/>
<path fill-rule="evenodd" clip-rule="evenodd" d="M59.4643 30.5357C57.7684 27.3323 56.0541 24.118 54.3214 20.8928C54.8613 20.0989 55.5041 19.4561 56.25 18.9643C57.1232 18.2407 57.9803 18.2407 58.8214 18.9643C60.3442 22.4331 61.8442 25.8617 63.3214 29.25C61.9165 29.3809 60.6308 29.8094 59.4643 30.5357Z" fill="#54B08B"/>
<path fill-rule="evenodd" clip-rule="evenodd" d="M29.8928 24.1072C28.4362 23.8765 27.2576 24.305 26.3571 25.3929C26.091 25.0988 25.7695 24.8846 25.3928 24.75C24.9609 25.6817 24.5323 26.5388 24.1071 27.3215C23.8928 27.3215 23.6785 27.3215 23.4642 27.3215C21.4675 22.3466 23.1817 20.3109 28.6071 21.2143C29.3703 21.8697 30.0132 22.6197 30.5357 23.4643C30.4562 23.8543 30.242 24.0686 29.8928 24.1072Z" fill="#4E2521"/>
<path fill-rule="evenodd" clip-rule="evenodd" d="M78.1071 14.4643C78.75 14.4643 79.3928 14.4643 80.0357 14.4643C78.9512 19.0049 77.2367 23.2905 74.8928 27.3214C74.0186 26.8844 73.1616 26.4558 72.3214 26.0357C73.9337 21.9543 75.8623 18.0971 78.1071 14.4643Z" fill="#E19494"/>
<path fill-rule="evenodd" clip-rule="evenodd" d="M51.1071 20.8929C52.0826 20.8997 52.8326 21.3282 53.3571 22.1786C54.8087 25.2981 56.4159 28.2981 58.1785 31.1786C56.9349 32.0207 55.6492 32.8779 54.3214 33.75C52.1958 30.3658 50.0529 26.9372 47.8928 23.4643C49.3537 23.0566 50.4251 22.1994 51.1071 20.8929Z" fill="#59B18B"/>
<path fill-rule="evenodd" clip-rule="evenodd" d="M56.25 18.9643C55.5041 19.4561 54.8613 20.0989 54.3214 20.8929C56.0541 24.118 57.7684 27.3323 59.4643 30.5357C59.2446 31.0746 58.816 31.2889 58.1786 31.1786C56.4159 28.2981 54.8088 25.2981 53.3571 22.1786C52.8326 21.3282 52.0826 20.8997 51.1071 20.8929C48.6393 20.5393 48.6393 19.8964 51.1071 18.9643C51.4838 19.0989 51.8053 19.3131 52.0714 19.6072C52.3079 18.7007 52.8435 18.0579 53.6786 17.6786C54.3366 18.5485 55.1938 18.977 56.25 18.9643Z" fill="#F3C039"/>
<path opacity="0.998" fill-rule="evenodd" clip-rule="evenodd" d="M29.8929 24.1072C29.1983 25.1002 29.1983 26.0645 29.8929 27C29.0515 28.3019 27.9801 29.2662 26.6786 29.8929C26.2817 29.964 25.9603 30.1783 25.7143 30.5357C24.8325 29.6292 24.2968 28.5579 24.1072 27.3214C24.5324 26.5388 24.961 25.6816 25.3929 24.75C25.7696 24.8846 26.091 25.0988 26.3572 25.3929C27.2576 24.305 28.4362 23.8765 29.8929 24.1072Z" fill="#FCC7B0"/>
<path fill-rule="evenodd" clip-rule="evenodd" d="M87.75 28.6071C85.4145 32.4196 83.0578 32.2054 80.6786 27.9643C83.0289 24.0378 85.3862 24.2521 87.75 28.6071Z" fill="#FF626B"/>
<path fill-rule="evenodd" clip-rule="evenodd" d="M23.4642 27.3214C23.6785 27.3214 23.8928 27.3214 24.1071 27.3214C24.2967 28.5578 24.8324 29.6292 25.7142 30.5357C25.9602 30.1783 26.2816 29.964 26.6785 29.8928C26.4018 32.0542 27.0446 33.8756 28.6071 35.3571C31.1186 36.7209 33.69 37.8994 36.3214 38.8928C36.3214 39.5357 36.3214 40.1786 36.3214 40.8214C32.1146 40.741 28.3646 39.4553 25.0714 36.9643C23.7436 39.1889 22.7793 41.546 22.1785 44.0357C18.8591 45.0907 15.6448 44.8764 12.5357 43.3928C11.8456 42.9103 11.7385 42.2675 12.2142 41.4643C14.2454 36.5391 16.924 32.0391 20.2499 27.9643C21.2598 27.4439 22.3313 27.2297 23.4642 27.3214Z" fill="#C82F2B"/>
<path fill-rule="evenodd" clip-rule="evenodd" d="M79.3929 29.8929C80.8451 30.9318 82.1308 32.1104 83.25 33.4286C82.5107 34.7021 81.6532 35.8806 80.6786 36.9643C75.5525 35.1412 75.1237 32.7841 79.3929 29.8929Z" fill="#FF606B"/>
<path fill-rule="evenodd" clip-rule="evenodd" d="M80.6786 27.9643C83.0578 32.2054 85.4145 32.4197 87.75 28.6072C88.3929 28.8214 88.8217 29.25 89.0357 29.8929C88.1936 30.9521 87.3367 32.0236 86.4643 33.1072C87.4125 34.1172 88.4842 34.9743 89.6786 35.6786C89.6786 36.5357 89.6786 37.3929 89.6786 38.25C88.3691 36.9453 86.8693 35.8738 85.1786 35.0357C83.8614 35.924 82.7904 36.9954 81.9643 38.25C81.3214 38.0357 80.8927 37.6072 80.6786 36.9643C81.6532 35.8806 82.5107 34.7021 83.25 33.4286C82.1308 32.1103 80.8451 30.9318 79.3929 29.8929C79.3459 28.9113 79.7747 28.2684 80.6786 27.9643Z" fill="#FEC024"/>
<path opacity="0.969" fill-rule="evenodd" clip-rule="evenodd" d="M89.0357 29.8929C89.2497 29.8929 89.4644 29.8929 89.6785 29.8929C89.6785 31.8215 89.6785 33.75 89.6785 35.6786C88.4841 34.9743 87.4124 34.1172 86.4642 33.1072C87.3366 32.0236 88.1935 30.9521 89.0357 29.8929Z" fill="#FF5C69"/>
<path fill-rule="evenodd" clip-rule="evenodd" d="M47.25 36.3214C45.6886 36.3761 44.4029 37.0189 43.3928 38.25C43.8513 39.7131 44.1727 41.2131 44.3571 42.75C44.6031 42.3926 44.9245 42.1783 45.3214 42.1072C46.6179 42.7689 47.9036 43.4118 49.1785 44.0357C49.1785 44.4643 49.1785 44.8928 49.1785 45.3214C48.0232 44.5309 46.7375 44.1023 45.3214 44.0357C44.8999 44.5357 44.3642 44.9643 43.7143 45.3214C42.5025 44.3624 41.8596 43.0767 41.7857 41.4643C41.3303 40.8983 40.7947 40.4697 40.1785 40.1786C39.7499 39.5357 39.3214 38.8929 38.8928 38.25C39.7156 33.0952 42.3941 31.8095 46.9285 34.3929C47.2389 35.0023 47.3461 35.6452 47.25 36.3214Z" fill="#451D1A"/>
<path fill-rule="evenodd" clip-rule="evenodd" d="M89.6785 38.25C89.6785 38.4643 89.6785 38.6786 89.6785 38.8928C88.4166 39.8314 87.2382 40.9028 86.1428 42.1071C84.6417 40.8856 83.2487 39.5999 81.9642 38.25C82.7903 36.9954 83.8613 35.924 85.1785 35.0357C86.8692 35.8738 88.369 36.9452 89.6785 38.25Z" fill="#FF616C"/>
<path fill-rule="evenodd" clip-rule="evenodd" d="M47.25 36.3214C47.5402 38.6383 46.8974 40.5668 45.3214 42.1071C44.9245 42.1783 44.6031 42.3926 44.3571 42.75C44.1727 41.2131 43.8513 39.7131 43.3928 38.25C44.4029 37.0189 45.6886 36.3761 47.25 36.3214Z" fill="#F7C6AF"/>
<path fill-rule="evenodd" clip-rule="evenodd" d="M60.1071 40.8214C59.3399 41.3176 58.697 41.9605 58.1786 42.75C57.543 40.6759 56.9001 38.5331 56.25 36.3214C57.0265 35.8495 57.8837 35.6352 58.8214 35.6786C59.25 37.3929 59.6786 39.1071 60.1071 40.8214Z" fill="#C82F2B"/>
<path fill-rule="evenodd" clip-rule="evenodd" d="M56.25 36.3214C56.9001 38.5331 57.5429 40.6759 58.1785 42.75C57.3518 45.0985 55.6375 46.1699 53.0357 45.9643C51.7791 45.8199 50.7077 45.3914 49.8214 44.6786C49.8214 44.25 49.6071 44.0357 49.1785 44.0357C48.8517 42.5151 48.4231 41.0151 47.8928 39.5357C50.5574 38.1721 53.3431 37.1007 56.25 36.3214Z" fill="#FE616A"/>
<path opacity="0.455" fill-rule="evenodd" clip-rule="evenodd" d="M38.8928 38.25C39.3214 38.8929 39.75 39.5357 40.1786 40.1786C39.75 40.1786 39.5357 40.3928 39.5357 40.8214C39.646 41.4589 39.4317 41.8875 38.8928 42.1071C38.4535 41.0294 37.5963 40.6008 36.3214 40.8214C36.3214 40.1786 36.3214 39.5357 36.3214 38.8929C37.2591 38.9362 38.1163 38.7219 38.8928 38.25Z" fill="#EEC3B0"/>
<path fill-rule="evenodd" clip-rule="evenodd" d="M39.5357 40.8214C41.4028 43.2133 42.2599 45.999 42.1071 49.1786C42.1071 49.3928 42.1071 49.6071 42.1071 49.8214C38.1248 50.8684 36.0891 49.3683 36 45.3214C36.6809 43.9334 37.6451 42.8619 38.8929 42.1071C39.4317 41.8875 39.646 41.4589 39.5357 40.8214Z" fill="#4A1F1C"/>
<path fill-rule="evenodd" clip-rule="evenodd" d="M39.5358 40.8214C39.5358 40.3929 39.75 40.1786 40.1786 40.1786C40.7947 40.4697 41.3304 40.8983 41.7858 41.4643C41.8597 43.0767 42.5026 44.3624 43.7143 45.3214C44.3643 44.9643 44.9 44.5357 45.3215 44.0357C45.2782 44.9735 45.4924 45.8307 45.9643 46.6072C44.872 46.5042 43.8005 46.6113 42.7501 46.9286C43.2337 47.3598 43.4481 47.8955 43.3929 48.5357C42.9643 48.75 42.5358 48.9643 42.1072 49.1786C42.26 45.999 41.4028 43.2133 39.5358 40.8214Z" fill="#9C9EB0"/>
<path fill-rule="evenodd" clip-rule="evenodd" d="M12.5357 43.3929C15.6449 44.8764 18.8591 45.0907 22.1786 44.0357C24.2984 45.8329 26.3341 47.7615 28.2857 49.8215C29.0189 55.3128 29.7688 60.7771 30.5357 66.2143C30.3215 66.4284 30.1071 66.6431 29.8929 66.8572C30.4589 67.3123 30.8875 67.8485 31.1786 68.4643C31.3929 68.8931 31.6072 69.3212 31.8215 69.75C30.75 69.75 29.6786 69.75 28.6072 69.75C28.7597 68.9201 28.5455 68.2772 27.9643 67.8215C25.7701 63.488 24.2701 58.8809 23.4643 54C22.6185 52.9337 21.5471 52.1837 20.25 51.75C17.8664 50.0614 15.6164 48.1328 13.5 45.9643C13.1897 46.5737 13.0825 47.2166 13.1786 47.8929C12.5562 46.5381 12.3419 45.0381 12.5357 43.3929Z" fill="#1D3E55"/>
<path fill-rule="evenodd" clip-rule="evenodd" d="M61.3929 44.0357C61.8648 44.8122 62.0791 45.6694 62.0358 46.6071C60.5358 46.6071 59.0357 46.6071 57.5358 46.6071C58.3728 45.1145 59.6585 44.2574 61.3929 44.0357Z" fill="#BB2726"/>
<path fill-rule="evenodd" clip-rule="evenodd" d="M78.1071 47.8929C77.8217 48.9299 77.1788 49.6799 76.1785 50.1429C76.7263 51.254 77.3691 51.3611 78.1071 50.4643C78.3212 51.1072 78.75 51.5357 79.3928 51.75C78.8747 52.5395 78.2318 53.1824 77.4643 53.6786C74.1478 52.1279 70.9335 50.4136 67.8214 48.5357C67.8767 47.8955 67.662 47.3598 67.1785 46.9286C65.4775 46.6088 63.7632 46.5017 62.0357 46.6072C62.079 45.6694 61.8647 44.8122 61.3928 44.0357C63.1534 43.5143 64.8675 43.3 66.5357 43.3929C69.8355 46.3287 73.6926 47.8286 78.1071 47.8929Z" fill="#FABFA8"/>
<path opacity="0.01" fill-rule="evenodd" clip-rule="evenodd" d="M83.25 45.3214C84.5132 45.6096 84.7273 46.2525 83.8929 47.25C83.3233 46.7196 83.1092 46.0768 83.25 45.3214Z" fill="#DDE6F2"/>
<path fill-rule="evenodd" clip-rule="evenodd" d="M45.9643 46.6071C46.6071 47.0357 47.25 47.4642 47.8929 47.8928C47.8929 48.5357 47.8929 49.1786 47.8929 49.8214C47.25 49.8214 46.6071 49.8214 45.9643 49.8214C46.0853 48.7907 45.7638 47.9336 45 47.25C44.9218 48.4952 44.3861 49.3523 43.3929 49.8214C43.3929 49.3928 43.3929 48.9643 43.3929 48.5357C43.448 47.8955 43.2337 47.3598 42.75 46.9286C43.8005 46.6113 44.8719 46.5041 45.9643 46.6071Z" fill="#0C0A1A"/>
<path fill-rule="evenodd" clip-rule="evenodd" d="M60.1071 40.8214C61.0272 41.6445 61.4557 42.716 61.3928 44.0357C59.6584 44.2574 58.3727 45.1145 57.5357 46.6071C57.1071 46.6071 56.8928 46.8214 56.8928 47.25C55.5512 47.9472 54.6941 49.0186 54.3214 50.4643C53.8928 50.4643 53.4643 50.4643 53.0357 50.4643C51.192 49.9161 49.4776 49.059 47.8928 47.8928C47.25 47.4642 46.6071 47.0357 45.9642 46.6071C45.4923 45.8306 45.2781 44.9734 45.3214 44.0357C46.7375 44.1023 48.0232 44.5308 49.1785 45.3214C49.6071 45.3214 49.8214 45.1071 49.8214 44.6786C50.7077 45.3914 51.7791 45.8199 53.0357 45.9643C55.6375 46.1699 57.3517 45.0985 58.1785 42.75C58.697 41.9605 59.3398 41.3176 60.1071 40.8214Z" fill="#F7C6B1"/>
<path fill-rule="evenodd" clip-rule="evenodd" d="M78.1072 50.4643C77.3692 51.3611 76.7263 51.254 76.1786 50.1428C77.1789 49.6799 77.8217 48.9299 78.1072 47.8928C81.4969 46.0334 82.0324 46.6763 79.7143 49.8214C79.2829 50.3051 78.7474 50.5194 78.1072 50.4643Z" fill="#FF7277"/>
<path fill-rule="evenodd" clip-rule="evenodd" d="M20.25 51.75C20.4541 53.7248 20.2398 55.6534 19.6072 57.5357C15.242 60.789 10.5277 63.3604 5.46433 65.25C5.63277 66.2002 5.41849 67.0571 4.82147 67.8214C3.72165 66.7029 3.18593 65.4172 3.21433 63.9643C7.4172 61.0545 11.1672 57.6259 14.4643 53.6786C13.7304 51.8148 13.3018 49.8862 13.1786 47.8929C13.0825 47.2166 13.1897 46.5737 13.5 45.9643C15.6165 48.1328 17.8665 50.0614 20.25 51.75Z" fill="#1B3343"/>
<path fill-rule="evenodd" clip-rule="evenodd" d="M56.8928 47.25C58.5381 47.0561 60.0381 47.2704 61.3928 47.8928C60.3302 47.9954 59.4731 48.424 58.8214 49.1785C58.3928 49.1785 57.9643 49.1785 57.5357 49.1785C56.389 49.4309 55.3175 49.8595 54.3214 50.4643C54.6941 49.0186 55.5513 47.9472 56.8928 47.25Z" fill="#E86A72"/>
<path fill-rule="evenodd" clip-rule="evenodd" d="M61.3928 47.8929C63.1587 47.6914 64.8733 47.9057 66.5357 48.5357C66.0561 49.3304 65.8421 50.1875 65.8928 51.1071C64.8649 50.935 64.0077 51.1493 63.3214 51.75C63.3214 52.3929 63.3214 53.0357 63.3214 53.6786C61.5896 52.3754 60.0896 50.8754 58.8214 49.1786C59.4731 48.4241 60.3302 47.9955 61.3928 47.8929Z" fill="#ECD0C7"/>
<path fill-rule="evenodd" clip-rule="evenodd" d="M77.4642 53.6786C78.2318 53.1824 78.8747 52.5395 79.3928 51.75C80.6907 50.943 81.9765 50.7288 83.25 51.1072C81.79 52.7551 80.0755 54.0408 78.1071 54.9643C77.5941 54.6706 77.38 54.242 77.4642 53.6786Z" fill="#FF6D74"/>
<path fill-rule="evenodd" clip-rule="evenodd" d="M47.8928 47.8929C49.4777 49.059 51.192 49.9161 53.0357 50.4643C53.0357 50.6786 53.0357 50.8929 53.0357 51.1071C52.2481 51.5264 51.8196 52.2764 51.75 53.3571C51.9642 54.1072 52.1786 54.8571 52.3928 55.6071C54.9189 55.0075 57.4904 54.7932 60.1071 54.9643C60.044 51.1888 59.4012 50.9745 58.1785 54.3214C57.2627 50.9594 56.5126 50.9594 55.9285 54.3214C55.7935 53.3198 55.4721 52.4626 54.9643 51.75C56.018 51.1248 56.8752 50.2677 57.5357 49.1786C57.9643 49.1786 58.3928 49.1786 58.8214 49.1786C60.0896 50.8754 61.5896 52.3754 63.3214 53.6786C63.3214 54.1072 63.3214 54.5357 63.3214 54.9643C63.4586 56.0211 63.2444 56.9854 62.6785 57.8571C60.7415 58.18 58.813 58.5014 56.8928 58.8214C56.7835 57.9715 56.9979 57.2215 57.5357 56.5714C55.6071 56.1428 53.6785 56.1428 51.75 56.5714C51.3925 56.8174 51.1783 57.1388 51.1071 57.5357C50.8928 57.5357 50.6785 57.5357 50.4643 57.5357C50.0357 56.8929 49.6071 56.25 49.1785 55.6071C49.8548 55.7032 50.4977 55.5961 51.1071 55.2857C50.7134 53.9052 50.2848 52.5124 49.8214 51.1071C49.869 52.2721 49.6547 53.5578 49.1785 54.9643C48.5578 53.7454 48.3435 52.4597 48.5357 51.1071C47.8928 51.1071 47.25 51.1071 46.6071 51.1071C46.6071 51.9643 46.6071 52.8214 46.6071 53.6786C46.3928 53.6786 46.1785 53.6786 45.9643 53.6786C45.75 53.0357 45.3214 52.6071 44.6785 52.3929C44.6785 52.1786 44.6785 51.9643 44.6785 51.75C44.2499 51.1071 43.8214 50.4643 43.3928 49.8214C44.386 49.3523 44.9218 48.4952 45 47.25C45.7638 47.9336 46.0852 48.7907 45.9643 49.8214C46.6071 49.8214 47.25 49.8214 47.8928 49.8214C47.8928 49.1786 47.8928 48.5357 47.8928 47.8929Z" fill="#343950"/>
<path opacity="0.01" fill-rule="evenodd" clip-rule="evenodd" d="M81.9642 58.1786C83.2275 58.4668 83.4415 59.1096 82.6071 60.1072C82.0375 59.5768 81.8235 58.9339 81.9642 58.1786Z" fill="#DBE5F0"/>
<path opacity="0.58" fill-rule="evenodd" clip-rule="evenodd" d="M56.8929 47.25C56.8929 46.8214 57.1072 46.6071 57.5357 46.6071C59.0357 46.6071 60.5358 46.6071 62.0357 46.6071C63.7633 46.5016 65.4776 46.6088 67.1786 46.9285C67.662 47.3598 67.8767 47.8955 67.8215 48.5357C66.5531 51.6859 65.2674 54.9002 63.9643 58.1785C63.3215 58.7142 62.6786 59.25 62.0357 59.7857C56.4779 60.876 50.9065 61.8403 45.3215 62.6786C45.4132 63.8115 45.1989 64.8829 44.6786 65.8928C50.7027 66.1178 56.4884 66.7607 62.0357 67.8214C61.0077 68.5041 59.9362 68.5041 58.8215 67.8214C55.3929 67.8214 51.9643 67.8214 48.5357 67.8214C47.421 68.5041 46.3495 68.5041 45.3215 67.8214C44.2313 67.7025 43.3742 67.1663 42.75 66.2143C43.6072 64.4998 44.4643 62.7857 45.3215 61.0714C44.1877 57.2785 43.1163 53.5284 42.1072 49.8214C42.1072 49.6071 42.1072 49.3928 42.1072 49.1785C42.5358 48.9643 42.9643 48.75 43.3929 48.5357C43.3929 48.9643 43.3929 49.3928 43.3929 49.8214C43.8215 50.4643 44.25 51.1071 44.6786 51.75C43.8215 51.9642 43.8215 52.1786 44.6786 52.3928C44.5055 53.6326 44.827 54.7041 45.6429 55.6071C45.9533 54.9977 46.0604 54.3548 45.9643 53.6785C46.1786 53.6785 46.3929 53.6785 46.6072 53.6785C46.6072 53.8928 46.6072 54.1071 46.6072 54.3214C46.6072 54.75 46.8214 54.9643 47.25 54.9643C47.25 55.3929 47.4643 55.6071 47.8929 55.6071C48.3215 55.6071 48.75 55.6071 49.1786 55.6071C49.6072 56.25 50.0357 56.8928 50.4643 57.5357C49.6441 58.1055 49.6441 58.7484 50.4643 59.4643C51.0337 58.9339 51.248 58.291 51.1072 57.5357C52.761 59.3332 54.6896 59.7617 56.8929 58.8214C58.813 58.5014 60.7416 58.18 62.6786 57.8571C63.2444 56.9853 63.4587 56.0211 63.3215 54.9643C64.029 54.0974 64.6721 53.1331 65.25 52.0714C64.6406 51.761 63.9977 51.6539 63.3215 51.75C64.0078 51.1492 64.865 50.935 65.8929 51.1071C65.8421 50.1875 66.0562 49.3304 66.5357 48.5357C64.8733 47.9057 63.1588 47.6914 61.3929 47.8928C60.0381 47.2704 58.5382 47.0561 56.8929 47.25ZM50.4643 57.5357C50.6786 57.5357 50.8929 57.5357 51.1072 57.5357C51.248 58.291 51.0337 58.9339 50.4643 59.4643C49.6441 58.7484 49.6441 58.1055 50.4643 57.5357ZM47.25 57.5357C47.2886 57.1866 47.5029 56.9723 47.8929 56.8928C48.6199 57.905 48.727 58.9765 48.2143 60.1071C48.0793 59.1055 47.7579 58.2483 47.25 57.5357ZM45.3215 57.5357C45.36 57.1866 45.5743 56.9723 45.9643 56.8928C46.6913 57.905 46.7984 58.9765 46.2857 60.1071C46.1507 59.1055 45.8293 58.2483 45.3215 57.5357ZM44.6786 52.3928C45.3215 52.6071 45.7501 53.0357 45.9643 53.6785C46.0604 54.3548 45.9533 54.9977 45.6429 55.6071C44.827 54.7041 44.5055 53.6326 44.6786 52.3928ZM63.3215 51.75C63.9977 51.6539 64.6406 51.761 65.25 52.0714C64.6721 53.1331 64.029 54.0974 63.3215 54.9643C63.3215 54.5357 63.3215 54.1071 63.3215 53.6785C63.3215 53.0357 63.3215 52.3928 63.3215 51.75Z" fill="#C8D4E7"/>
<path fill-rule="evenodd" clip-rule="evenodd" d="M56.8929 58.8214C54.6896 59.7618 52.761 59.3332 51.1072 57.5357C51.1783 57.1388 51.3926 56.8174 51.75 56.5714C53.6786 56.1429 55.6072 56.1429 57.5357 56.5714C56.9979 57.2216 56.7836 57.9715 56.8929 58.8214Z" fill="#1A1C2E"/>
<path fill-rule="evenodd" clip-rule="evenodd" d="M53.0357 51.1071C53.6085 51.4991 54.2514 51.7134 54.9643 51.75C55.4721 52.4626 55.7936 53.3198 55.9286 54.3214C56.5127 50.9594 57.2627 50.9594 58.1786 54.3214C59.4012 50.9744 60.0441 51.1888 60.1071 54.9643C57.4904 54.7931 54.919 55.0075 52.3929 55.6071C52.1786 54.8571 51.9643 54.1071 51.75 53.3571C51.8196 52.2764 52.2481 51.5264 53.0357 51.1071Z" fill="#101125"/>
<path fill-rule="evenodd" clip-rule="evenodd" d="M49.1786 55.6071C48.75 55.6071 48.3215 55.6071 47.8929 55.6071C47.4643 55.6071 47.25 55.3929 47.25 54.9643C46.8214 54.9643 46.6072 54.75 46.6072 54.3214C46.6072 54.1071 46.6072 53.8928 46.6072 53.6785C46.6072 52.8214 46.6072 51.9642 46.6072 51.1071C47.25 51.1071 47.8929 51.1071 48.5357 51.1071C48.3436 52.4597 48.5579 53.7454 49.1786 54.9643C49.6548 53.5578 49.869 52.272 49.8215 51.1071C50.2848 52.5124 50.7134 53.9052 51.1072 55.2857C50.4977 55.5961 49.8549 55.7032 49.1786 55.6071Z" fill="#12121F"/>
<path fill-rule="evenodd" clip-rule="evenodd" d="M57.5358 49.1786C56.8753 50.2677 56.0181 51.1248 54.9643 51.75C54.2514 51.7134 53.6086 51.4992 53.0358 51.1072C53.0358 50.8929 53.0358 50.6786 53.0358 50.4643C53.4644 50.4643 53.8929 50.4643 54.3215 50.4643C55.3176 49.8595 56.389 49.4309 57.5358 49.1786Z" fill="#E2E7EB"/>
<path opacity="0.01" fill-rule="evenodd" clip-rule="evenodd" d="M82.6072 66.5357C83.4641 66.9645 83.4641 66.9645 82.6072 66.5357V66.5357Z" fill="#D3DFED"/>
<path opacity="0.183" fill-rule="evenodd" clip-rule="evenodd" d="M31.1786 68.4643C35.8929 68.4643 40.6072 68.4643 45.3214 68.4643C45.5357 68.8931 45.75 69.3212 45.9643 69.75C41.25 69.75 36.5357 69.75 31.8214 69.75C31.6072 69.3212 31.3929 68.8931 31.1786 68.4643Z" fill="#627F8D"/>
<path opacity="0.663" fill-rule="evenodd" clip-rule="evenodd" d="M45.3214 67.8214C46.3495 68.5041 47.4209 68.5041 48.5357 67.8214C48.5357 68.0355 48.5357 68.2502 48.5357 68.4643C47.8928 68.6783 47.4642 69.1071 47.25 69.75C46.8214 69.75 46.3929 69.75 45.9643 69.75C45.75 69.3212 45.5357 68.8931 45.3214 68.4643C45.3214 68.2502 45.3214 68.0355 45.3214 67.8214Z" fill="#272D3D"/>
<path opacity="0.121" fill-rule="evenodd" clip-rule="evenodd" d="M48.5357 68.4643C51.9643 68.4643 55.3929 68.4643 58.8214 68.4643C59.4643 68.6784 59.8929 69.1072 60.1071 69.75C55.8214 69.75 51.5357 69.75 47.25 69.75C47.4643 69.1072 47.8929 68.6784 48.5357 68.4643Z" fill="#5E7B88"/>
<path fill-rule="evenodd" clip-rule="evenodd" d="M58.8214 68.4643C58.8214 68.2502 58.8214 68.0355 58.8214 67.8214C59.9362 68.5041 61.0076 68.5041 62.0357 67.8214C61.9991 68.5343 61.7849 69.1772 61.3928 69.75C60.9642 69.75 60.5357 69.75 60.1071 69.75C59.8929 69.1071 59.4643 68.6783 58.8214 68.4643Z" fill="#212A3D"/>
<path opacity="0.208" fill-rule="evenodd" clip-rule="evenodd" d="M62.0357 67.8214C71.1996 68.4527 80.4137 68.6674 89.6785 68.4643C89.6785 68.8931 89.6785 69.3212 89.6785 69.75C80.2498 69.75 70.8216 69.75 61.3928 69.75C61.7848 69.1772 61.9991 68.5343 62.0357 67.8214Z" fill="#627F8E"/>
<path opacity="0.184" fill-rule="evenodd" clip-rule="evenodd" d="M27.9643 67.8214C28.5454 68.2772 28.7597 68.9201 28.6072 69.75C18.9643 69.75 9.32145 69.75 -0.321411 69.75C-0.321411 69.3212 -0.321411 68.8931 -0.321411 68.4643C9.22039 68.6758 18.649 68.4617 27.9643 67.8214Z" fill="#62808E"/>
</g>
<defs>
<clipPath id="clip0_114_197">
<rect width="90" height="90" fill="white"/>
</clipPath>
</defs>
</svg>
