<svg width="80" height="80" viewBox="0 0 80 80" fill="none" xmlns="http://www.w3.org/2000/svg">
<path fill-rule="evenodd" clip-rule="evenodd" d="M37.4285 8.85715C41.0458 8.38069 42.6648 9.90452 42.2857 13.4286C39.4843 15.9537 37.2938 15.4776 35.7142 12C36.0709 10.8085 36.6423 9.76092 37.4285 8.85715Z" fill="#FEA524"/>
<path fill-rule="evenodd" clip-rule="evenodd" d="M27.1429 13.4286C31.2488 13.6276 32.8678 15.7228 32.0001 19.7143C28.425 22.4455 25.8536 21.6836 24.2858 17.4286C24.8377 15.7322 25.7901 14.3989 27.1429 13.4286Z" fill="#FEA228"/>
<path fill-rule="evenodd" clip-rule="evenodd" d="M38.5714 26.5714C36.2201 23.7172 36.4105 20.9553 39.1428 18.2857C45.6775 16.2501 48.6299 18.631 48 25.4286C45.2348 29.4322 42.0919 29.8132 38.5714 26.5714Z" fill="#FBB032"/>
<path fill-rule="evenodd" clip-rule="evenodd" d="M38.5714 26.5714C36.7332 20.6556 38.8284 18.0842 44.8572 18.8571C47.1618 20.6672 47.638 22.8576 46.2857 25.4286C46.11 24.9668 45.8242 24.5859 45.4286 24.2857C43.1418 25.9102 42.7609 25.6245 44.2857 23.4286C42.8663 22.511 42.8663 21.6539 44.2857 20.8571C42.9572 19.5313 41.8144 19.817 40.8572 21.7143C41.5519 22.7084 42.5043 23.2799 43.7143 23.4286C40.6304 23.3063 40.2494 24.0682 42.5714 25.7143C46.217 25.9982 46.217 26.6649 42.5714 27.7143C41.228 27.3295 39.8947 26.9485 38.5714 26.5714Z" fill="#FE9701"/>
<path opacity="0.035" fill-rule="evenodd" clip-rule="evenodd" d="M3.71423 29.4286C5.46958 29.2472 7.18389 29.4377 8.85709 30C7.62492 30.0387 6.3868 30.2292 5.1428 30.5715C4.35674 30.4662 3.88055 30.0852 3.71423 29.4286Z" fill="#F39DB5"/>
<path fill-rule="evenodd" clip-rule="evenodd" d="M36.8572 31.7143C37.3663 32.1493 37.7472 32.7207 38 33.4286C37.731 35.5615 36.9691 37.4663 35.7143 39.1429C35.3333 39.1429 35.1429 39.3333 35.1429 39.7143C34.7619 39.7143 34.5715 39.9047 34.5715 40.2857C34.381 40.2857 34.1905 40.2857 34 40.2857C33.4286 40.2857 32.8572 40.2857 32.2857 40.2857C28.3922 40.1118 25.916 38.1118 24.8572 34.2857C25.6458 29.6989 28.3125 27.9846 32.8572 29.1429C35.1922 30.6656 36.4303 32.8561 36.5715 35.7143C36.8552 34.3944 36.9505 33.061 36.8572 31.7143Z" fill="#FE9B0E"/>
<path fill-rule="evenodd" clip-rule="evenodd" d="M20.2857 36.8571C20.2857 37.2381 20.4762 37.4285 20.8572 37.4285C20.8572 37.619 20.8572 37.8095 20.8572 38C22.5299 41.0184 23.5775 44.2565 24 47.7143C24.9064 48.9545 25.6684 50.2879 26.2857 51.7143C26.8252 47.9074 27.3014 44.0979 27.7143 40.2857C29.1978 40.723 30.7216 40.9135 32.2857 40.8571C32.6927 42.1681 32.2164 43.3109 30.8572 44.2857C30.6667 43.4018 30.9524 42.6399 31.7143 42C30.7619 41.2381 29.8096 41.2381 28.8572 42C28.2408 44.4538 27.9551 46.93 28 49.4285C30.0872 47.1298 30.3729 47.3203 28.8572 50C29.1073 50.575 29.4882 50.575 30 50C30.6891 51.1337 30.6891 52.2766 30 53.4285C30.381 53.8095 30.7619 54.1904 31.1429 54.5714C29.0845 55.6125 29.0845 56.184 31.1429 56.2857C27.5239 57.0476 23.9048 57.0476 20.2857 56.2857C20.8869 56.3711 21.4583 56.2759 22 56C20.6903 55.2629 19.5475 54.3105 18.5715 53.1428C19.4264 52.8529 20.093 53.1386 20.5715 54C20.9524 53.4285 20.9524 52.8571 20.5715 52.2857C19.0921 51.3079 17.6636 50.2603 16.2857 49.1428C17.6474 49.3975 18.8855 50.0641 20 51.1428C19.3528 45.7535 16.9718 41.2773 12.8572 37.7143C13.5644 37.7584 14.1358 37.6632 14.5715 37.4285C13.9664 36.2665 13.395 35.1236 12.8572 34C13.7826 33.0065 14.9255 32.7208 16.2857 33.1428C17.9187 34.1109 19.252 35.3489 20.2857 36.8571Z" fill="#259688"/>
<path fill-rule="evenodd" clip-rule="evenodd" d="M54 38.5714C51.6051 38.0927 50.4622 36.5689 50.5714 34C48.5555 34.8122 46.4602 35.1932 44.2857 35.1429C41.3994 35.2002 40.1613 33.8669 40.5714 31.1429C41.3643 31.7449 42.2214 31.8402 43.1428 31.4286C42.9524 31.2381 42.7618 31.0476 42.5714 30.8572C45.2348 30.3805 47.9014 30.19 50.5714 30.2857C51.0949 30.4996 51.5712 30.7853 52 31.1429C52.4552 32.6974 53.1218 34.126 54 35.4286C54.4371 36.3199 54.4371 37.3676 54 38.5714Z" fill="#1F1D55"/>
<path fill-rule="evenodd" clip-rule="evenodd" d="M54 38.5714C54.5666 38.4734 54.9476 38.6639 55.1429 39.1429C53.6344 39.4023 52.301 40.069 51.1429 41.1429C50.8087 41.8871 50.4277 42.5537 50 43.1429C50.2234 41.2354 49.5567 40.664 48 41.4286C45.0143 40.4146 43.7762 38.3194 44.2857 35.1429C46.4603 35.1931 48.5555 34.8122 50.5714 34C50.4623 36.5689 51.6051 38.0927 54 38.5714Z" fill="#F7B8BE"/>
<path fill-rule="evenodd" clip-rule="evenodd" d="M33.4285 28.2857C35.1428 28.8571 36.2857 30 36.8571 31.7143C36.9504 33.061 36.8552 34.3944 36.5714 35.7143C36.4302 32.8561 35.1921 30.6656 32.8571 29.1428C28.3124 27.9846 25.6457 29.6989 24.8571 34.2857C25.9159 38.1118 28.3921 40.1118 32.2857 40.2857C32.2857 40.4762 32.2857 40.6667 32.2857 40.8571C30.7216 40.9135 29.1977 40.723 27.7142 40.2857C23.4246 36.5518 23.2341 32.6471 27.1428 28.5714C29.2128 27.5898 31.3081 27.4946 33.4285 28.2857Z" fill="#F1B51D"/>
<path fill-rule="evenodd" clip-rule="evenodd" d="M33.4286 28.2857C31.3082 27.4946 29.2129 27.5898 27.1429 28.5714C23.2342 32.6471 23.4247 36.5518 27.7143 40.2857C27.3014 44.0979 26.8252 47.9074 26.2858 51.7143C25.6684 50.2879 24.9065 48.9546 24.0001 47.7143C23.5775 44.2566 22.5299 41.0185 20.8572 38C21.6191 37.8095 21.6191 37.619 20.8572 37.4286C20.4762 37.4286 20.2858 37.2381 20.2858 36.8571C20.7585 33.7228 21.0442 30.4847 21.1429 27.1429C23.4247 22.1802 26.8533 21.0373 31.4286 23.7143C32.5673 25.0386 33.234 26.5624 33.4286 28.2857Z" fill="#38ACA2"/>
<path fill-rule="evenodd" clip-rule="evenodd" d="M55.1429 39.1429C58.8657 41.1537 61.3417 44.2013 62.5714 48.2857C61.8011 48.9147 60.944 49.4861 60 50C58.548 52.5305 57.1197 55.0067 55.7143 57.4286C54.3215 56.324 52.9882 55.0859 51.7143 53.7143C49.7257 53.0843 47.821 52.4176 46 51.7143C47.2299 49.7295 48.1823 47.6343 48.8571 45.4286C49.2381 44.6667 49.619 43.9048 50 43.1429C50.4277 42.5537 50.8087 41.8871 51.1429 41.1429C52.301 40.069 53.6344 39.4023 55.1429 39.1429Z" fill="#FC2E59"/>
<path fill-rule="evenodd" clip-rule="evenodd" d="M42.5714 44.2857C38.9523 44.6667 35.3333 45.0476 31.7142 45.4286C33.1018 48.3963 34.6257 51.2534 36.2857 54C35.6659 55.1925 34.7135 55.9544 33.4285 56.2857C32.6666 56.2857 31.9047 56.2857 31.1428 56.2857C29.0845 56.184 29.0845 55.6126 31.1428 54.5714C30.7618 54.1904 30.3809 53.8095 29.9999 53.4286C30.689 52.2766 30.689 51.1338 29.9999 50C29.4881 50.575 29.1072 50.575 28.8571 50C30.3729 47.3203 30.0871 47.1298 27.9999 49.4286C27.955 46.93 28.2407 44.4538 28.8571 42C29.8095 41.2381 30.7618 41.2381 31.7142 42C30.9523 42.6399 30.6666 43.4018 30.8571 44.2857C32.2163 43.311 32.6926 42.1681 32.2857 40.8571C32.2857 40.6667 32.2857 40.4762 32.2857 40.2857C32.8571 40.2857 33.4285 40.2857 33.9999 40.2857C34.1904 41.0476 34.3809 41.0476 34.5714 40.2857C34.9523 40.2857 35.1428 40.0952 35.1428 39.7143C35.5238 39.7143 35.7142 39.5238 35.7142 39.1428C40.7081 37.6169 42.9938 39.3312 42.5714 44.2857Z" fill="#2A9E90"/>
<path fill-rule="evenodd" clip-rule="evenodd" d="M31.7142 45.4286C32.215 45.3538 32.596 45.5443 32.8571 46C34.0522 48.5827 35.3855 51.0589 36.8571 53.4286C36.8571 53.8096 36.6666 54 36.2857 54C34.6257 51.2535 33.1018 48.3963 31.7142 45.4286Z" fill="#397BEB"/>
<path fill-rule="evenodd" clip-rule="evenodd" d="M48.8571 45.4286C48.1823 47.6342 47.2299 49.7295 45.9999 51.7143C42.6061 50.5926 39.5585 51.164 36.8571 53.4286C35.3855 51.0589 34.0522 48.5827 32.8571 46C32.596 45.5443 32.215 45.3538 31.7142 45.4286C35.3333 45.0476 38.9523 44.6667 42.5714 44.2857C44.2557 44.4441 45.8747 44.2536 47.4285 43.7143C47.9153 44.3261 48.3914 44.8976 48.8571 45.4286Z" fill="#BFDCFA"/>
<path fill-rule="evenodd" clip-rule="evenodd" d="M62.5715 48.2857C64.6298 48.3956 66.344 49.1575 67.7143 50.5714C65.4338 50.6404 63.6246 51.5927 62.2858 53.4286C61.436 55.4951 60.6743 57.5903 60 59.7143C59.3332 60.3811 58.6669 61.0474 58 61.7143C54.2661 63.0988 50.4566 64.2417 46.5715 65.1428C45.2951 66.0788 44.5332 67.3171 44.2858 68.8571C43.5239 68.8571 42.7619 68.8571 42 68.8571C38.8211 65.9131 39.0116 63.1514 42.5715 60.5714C43.8331 60.4623 44.9759 60.1766 46 59.7143C49.6675 60.2971 52.9056 59.5348 55.7143 57.4286C57.1197 55.0066 58.548 52.5304 60 50C60.944 49.486 61.8012 48.9146 62.5715 48.2857Z" fill="#A81414"/>
<path fill-rule="evenodd" clip-rule="evenodd" d="M12.8571 34C13.395 35.1237 13.9664 36.2665 14.5714 37.4286C14.1358 37.6632 13.5643 37.7585 12.8571 37.7143C16.9718 41.2773 19.3527 45.7535 20 51.1429C18.8855 50.0642 17.6474 49.3975 16.2857 49.1429C17.6635 50.2603 19.0921 51.3079 20.5714 52.2857C20.9524 52.8571 20.9524 53.4286 20.5714 54C20.093 53.1386 19.4263 52.8529 18.5714 53.1429C19.5474 54.3106 20.6903 55.2629 22 56C21.4583 56.2759 20.8869 56.3711 20.2857 56.2857C19.548 56.4213 18.9766 56.2309 18.5714 55.7143C18.8218 55.7517 19.0123 55.6565 19.1429 55.4286C15.8795 51.2873 13.1177 46.811 10.8571 42C10.4762 40.0953 10.4762 38.1905 10.8571 36.2857C11.3993 35.3754 12.0659 34.6135 12.8571 34Z" fill="#41B6AC"/>
<path fill-rule="evenodd" clip-rule="evenodd" d="M46 51.7143C47.821 52.4176 49.7257 53.0842 51.7143 53.7143C52.9882 55.0859 54.3215 56.324 55.7143 57.4286C52.2989 57.7948 48.8703 58.0806 45.4286 58.2857C45.1176 58.6954 44.7366 58.9811 44.2857 59.1428C43.4772 58.692 42.62 58.3108 41.7143 58C40.1087 61.2377 37.5373 63.3326 34 64.2857C32.9324 64.7217 31.98 65.2931 31.1429 66C30.1236 66.2246 29.1712 66.6051 28.2857 67.1428C28.0953 67.1428 27.9048 67.1428 27.7143 67.1428C26.9743 66.5783 26.2124 66.0068 25.4286 65.4286C27.8823 62.212 30.549 59.164 33.4286 56.2857C34.7136 55.9544 35.666 55.1925 36.2857 54C36.6667 54 36.8572 53.8095 36.8572 53.4286C39.5585 51.164 42.6062 50.5926 46 51.7143Z" fill="#FDC909"/>
<path fill-rule="evenodd" clip-rule="evenodd" d="M67.7143 50.5714C71.708 54.2697 73.1366 58.8411 72.0001 64.2857C71.6229 65.328 70.9561 66.0897 70.0001 66.5714C68.3092 67.7388 66.4046 68.4057 64.2858 68.5714C57.6218 68.8571 50.9551 68.9526 44.2858 68.8571C44.5332 67.3171 45.2951 66.0788 46.5715 65.1428C50.4566 64.2417 54.2661 63.0988 58.0001 61.7143C58.6669 61.0474 59.3332 60.3811 60.0001 59.7143C60.6743 57.5903 61.4361 55.4951 62.2858 53.4286C63.6246 51.5927 65.4338 50.6404 67.7143 50.5714Z" fill="#991B14"/>
<path fill-rule="evenodd" clip-rule="evenodd" d="M55.7143 57.4286C52.9057 59.5349 49.6675 60.2972 46.0001 59.7143C45.2623 59.8497 44.6909 59.6594 44.2858 59.1429C44.7367 58.9812 45.1177 58.6954 45.4286 58.2857C48.8703 58.0806 52.2989 57.7949 55.7143 57.4286Z" fill="#EA991F"/>
<path fill-rule="evenodd" clip-rule="evenodd" d="M18.5715 55.7143C18.9766 56.2309 19.548 56.4213 20.2857 56.2857C23.9048 57.0476 27.5239 57.0476 31.1429 56.2857C31.9048 56.2857 32.6667 56.2857 33.4286 56.2857C30.549 59.164 27.8823 62.212 25.4286 65.4286C25.0476 65.4286 24.8572 65.6189 24.8572 66C23.1429 66.3811 21.4286 66.7617 19.7143 67.1429C19.7143 66.7617 19.7143 66.3811 19.7143 66C19.4009 62.8806 18.4486 60.0234 16.8572 57.4286C16.8663 56.2766 17.4377 55.7051 18.5715 55.7143Z" fill="#FB5F0C"/>
<path fill-rule="evenodd" clip-rule="evenodd" d="M44.2857 59.1429C44.6909 59.6594 45.2623 59.8497 46 59.7143C44.9759 60.1766 43.833 60.4623 42.5714 60.5714C39.0115 63.1514 38.821 65.9131 42 68.8571C39.3333 68.8571 36.6667 68.8571 34 68.8571C34 67.3331 34 65.8097 34 64.2857C37.5373 63.3326 40.1087 61.2377 41.7143 58C42.62 58.3109 43.4771 58.692 44.2857 59.1429Z" fill="#991B14"/>
<path fill-rule="evenodd" clip-rule="evenodd" d="M25.4286 65.4286C26.2124 66.0069 26.9743 66.5783 27.7143 67.1429C26.5412 67.1989 25.5888 66.8177 24.8572 66C24.8572 65.6189 25.0476 65.4286 25.4286 65.4286Z" fill="#EBBED8"/>
<path opacity="0.941" fill-rule="evenodd" clip-rule="evenodd" d="M34 64.2857C34 65.8097 34 67.3331 34 68.8571C36.6667 68.8571 39.3333 68.8571 42 68.8571C42.7619 68.8571 43.5239 68.8571 44.2857 68.8571C50.9551 68.9526 57.6217 68.8571 64.2857 68.5714C66.4046 68.4057 68.3092 67.7388 70 66.5714C71.0892 67.1326 72.232 67.704 73.4286 68.2857C72.196 69.0228 70.8629 69.4994 69.4286 69.7143C69.6189 69.9046 69.8097 70.0954 70 70.2857C66.972 70.8171 63.924 71.1983 60.8572 71.4286C42.6891 72.2657 24.5939 71.6943 6.57146 69.7143C4.60491 69.2366 4.50967 68.7606 6.28575 68.2857C9.27272 67.9777 12.2251 67.5017 15.1429 66.8571C14.9524 66.6668 14.7619 66.476 14.5715 66.2857C16.2752 66.0011 17.9895 65.9057 19.7143 66C19.7143 66.3811 19.7143 66.7617 19.7143 67.1428C18.9913 67.7023 18.2294 68.2737 17.4286 68.8571C17.7288 69.2526 18.1097 69.5383 18.5715 69.7143C21.4459 69.9508 24.303 69.7606 27.1429 69.1428C27.4606 68.924 27.6511 68.6383 27.7143 68.2857C29.6448 68.6337 30.7877 67.872 31.1429 66C31.98 65.2931 32.9324 64.7217 34 64.2857Z" fill="#99C5FB"/>
<path fill-rule="evenodd" clip-rule="evenodd" d="M31.1428 66C30.7876 67.872 29.6447 68.6337 27.7142 68.2857C27.9047 67.9046 28.0952 67.524 28.2857 67.1429C29.1711 66.6051 30.1235 66.2246 31.1428 66Z" fill="#F44E13"/>
<path fill-rule="evenodd" clip-rule="evenodd" d="M24.8572 66C25.5888 66.8177 26.5412 67.1989 27.7143 67.1429C27.9048 67.1429 28.0953 67.1429 28.2857 67.1429C28.0953 67.524 27.9048 67.9046 27.7143 68.2857C27.651 68.6383 27.4606 68.924 27.1429 69.1429C24.303 69.7606 21.4458 69.9509 18.5714 69.7143C18.1097 69.5383 17.7288 69.2526 17.4286 68.8571C18.2294 68.2737 18.9913 67.7023 19.7143 67.1429C21.4286 66.7617 23.1429 66.3811 24.8572 66Z" fill="#100F4E"/>
</svg>
