<svg width="64" height="64" viewBox="0 0 64 64" fill="none" xmlns="http://www.w3.org/2000/svg">
<path fill-rule="evenodd" clip-rule="evenodd" d="M28.5 10.5C27.701 13.4299 27.3677 16.4299 27.5 19.5C19.8333 19.5 12.1667 19.5 4.5 19.5C5.83333 17.1667 7.16667 14.8333 8.5 12.5C8.61071 11.8826 8.94404 11.3826 9.5 11C15.8246 10.5005 22.1579 10.3338 28.5 10.5Z" fill="#DFA489"/>
<path fill-rule="evenodd" clip-rule="evenodd" d="M28.5 10.5C30.8333 10.5 33.1667 10.5 35.5 10.5C35.5 10.8333 35.5 11.1667 35.5 11.5C36.2653 14.0961 36.5987 16.7628 36.5 19.5C33.5 19.5 30.5 19.5 27.5 19.5C27.3677 16.4299 27.701 13.4299 28.5 10.5Z" fill="#C9BBB1"/>
<path fill-rule="evenodd" clip-rule="evenodd" d="M35.5 11.5C41.5092 11.3338 47.5092 11.5005 53.5 12C55.684 14.0165 57.684 16.1831 59.5 18.5C57.7118 19.2826 56.7118 20.6159 56.5 22.5C54.8333 22.5 53.1667 22.5 51.5 22.5C51.5 21.5 51.5 20.5 51.5 19.5C46.5 19.5 41.5 19.5 36.5 19.5C36.5987 16.7628 36.2653 14.0961 35.5 11.5Z" fill="#D4A696"/>
<path fill-rule="evenodd" clip-rule="evenodd" d="M35.5 11.5C35.5 11.1667 35.5 10.8333 35.5 10.5C41.8421 10.3338 48.1754 10.5005 54.5 11C57.8275 13.4858 60.1609 16.6524 61.5 20.5C61.1373 21.1835 60.8039 21.8501 60.5 22.5C59.5104 28.31 59.1771 34.31 59.5 40.5C57.857 40.4802 56.5237 41.1468 55.5 42.5C53.9411 41.9264 52.4411 41.2598 51 40.5C48.0544 40.4149 45.0544 41.0815 42 42.5C41.0546 42.0946 40.3879 41.428 40 40.5C38.139 42.3479 35.9723 42.3479 33.5 40.5C32.2519 41.0402 31.0852 41.7069 30 42.5C23.3926 36.37 17.226 37.0366 11.5 44.5C8.61093 47.2558 6.44426 50.5891 5.00004 54.5C4.50018 42.8381 4.33351 31.1714 4.50004 19.5C12.1667 19.5 19.8333 19.5 27.5 19.5C27.3338 25.8421 27.5005 32.1754 28 38.5C30.9509 34.6 33.6175 34.9334 36 39.5C36.4996 32.8417 36.6663 26.175 36.5 19.5C41.5 19.5 46.5 19.5 51.5 19.5C51.5 20.5 51.5 21.5 51.5 22.5C47.8333 22.5 44.1667 22.5 40.5 22.5C40.5 25.8333 40.5 29.1667 40.5 32.5C46.1667 32.5 51.8333 32.5 57.5 32.5C57.8128 28.9581 57.4794 25.6248 56.5 22.5C56.7118 20.6159 57.7118 19.2826 59.5 18.5C57.684 16.1831 55.684 14.0165 53.5 12C47.5092 11.5005 41.5092 11.3338 35.5 11.5Z" fill="#BE9A87"/>
<path fill-rule="evenodd" clip-rule="evenodd" d="M27.5 19.5C30.5 19.5 33.5 19.5 36.5 19.5C36.6663 26.175 36.4996 32.8417 36 39.5C33.6175 34.9334 30.9509 34.6 28 38.5C27.5005 32.1754 27.3338 25.8421 27.5 19.5Z" fill="#A28E7F"/>
<path fill-rule="evenodd" clip-rule="evenodd" d="M8.49995 12.5C7.16662 14.8333 5.83328 17.1667 4.49995 19.5C4.33342 31.1714 4.50009 42.8381 4.99995 54.5C6.44417 50.5891 8.61084 47.2558 11.5 44.5C16.3891 49.0825 21.2224 53.7492 26 58.5C26.4828 59.448 26.6495 60.448 26.5 61.5C37.5 61.5 48.5 61.5 59.5 61.5C59.5 54.5 59.5 47.5 59.5 40.5C59.1771 34.31 59.5103 28.31 60.5 22.5C60.5 35.5 60.5 48.5 60.5 61.5C41.674 62.497 22.674 62.8303 3.49995 62.5C3.49995 62.1667 3.49995 61.8333 3.49995 61.5C3.33337 46.4963 3.50003 31.4963 3.99995 16.5C5.37116 14.9586 6.87116 13.6253 8.49995 12.5Z" fill="#AD6F52"/>
<path fill-rule="evenodd" clip-rule="evenodd" d="M59.5 40.5C59.5 47.5 59.5 54.5 59.5 61.5C48.5 61.5 37.5 61.5 26.5 61.5C26.6495 60.448 26.4828 59.448 26 58.5C21.2224 53.7492 16.3891 49.0825 11.5 44.5C17.226 37.0366 23.3926 36.37 30 42.5C31.0852 41.7069 32.2519 41.0402 33.5 40.5C35.9723 42.3479 38.139 42.3479 40 40.5C40.3879 41.428 41.0546 42.0946 42 42.5C45.0544 41.0815 48.0544 40.4149 51 40.5C52.4411 41.2598 53.9411 41.9264 55.5 42.5C56.5237 41.1468 57.857 40.4802 59.5 40.5Z" fill="#AE8C87"/>
<path fill-rule="evenodd" clip-rule="evenodd" d="M51.5 22.5C53.1667 22.5 54.8333 22.5 56.5 22.5C57.4794 25.6248 57.8128 28.9581 57.5 32.5C51.8333 32.5 46.1667 32.5 40.5 32.5C40.5 29.1667 40.5 25.8333 40.5 22.5C44.1667 22.5 47.8333 22.5 51.5 22.5Z" fill="#DEE1E2"/>
<path opacity="0.169" fill-rule="evenodd" clip-rule="evenodd" d="M3.49997 61.5C3.49997 61.8333 3.49997 62.1667 3.49997 62.5C3.49997 62.8333 3.49997 63.1667 3.49997 63.5C2.8333 63.5 2.16664 63.5 1.49997 63.5C0.339817 61.7973 1.00648 61.1307 3.49997 61.5Z" fill="black"/>
<path opacity="0.162" fill-rule="evenodd" clip-rule="evenodd" d="M60.5 61.5C61.5 61.5 62.5 61.5 63.5 61.5C63.5 61.8333 63.5 62.1667 63.5 62.5C62.8333 62.5 62.5 62.8333 62.5 63.5C42.8333 63.5 23.1667 63.5 3.5 63.5C3.5 63.1667 3.5 62.8333 3.5 62.5C22.674 62.8303 41.674 62.497 60.5 61.5Z" fill="#2C2218"/>
</svg>
