<svg width="80" height="80" viewBox="0 0 80 80" fill="none" xmlns="http://www.w3.org/2000/svg">
<path opacity="0.761" fill-rule="evenodd" clip-rule="evenodd" d="M48.8572 6C50.8326 6.09554 51.0231 6.66697 49.4286 7.71429C48.9225 7.24286 48.732 6.67143 48.8572 6Z" fill="#F0938E"/>
<path opacity="0.869" fill-rule="evenodd" clip-rule="evenodd" d="M27.1429 6.57141C28.6664 6.3233 29.3331 6.89473 29.1429 8.2857C27.0877 9.18061 26.4211 8.60918 27.1429 6.57141Z" fill="#E54138"/>
<path opacity="0.776" fill-rule="evenodd" clip-rule="evenodd" d="M38.5714 8.85712C39.694 9.11329 39.8845 9.68472 39.1428 10.5714C38.6367 10.1 38.4463 9.52855 38.5714 8.85712Z" fill="#E54138"/>
<path opacity="0.294" fill-rule="evenodd" clip-rule="evenodd" d="M15.1428 26C14.7618 25.8096 14.3809 25.619 14 25.4286C12.8749 23.5177 12.6845 21.5177 13.4285 19.4286C11.3242 16.3508 11.6099 13.3984 14.2857 10.5714C17.2253 8.7283 17.3205 6.63305 14.5714 4.28573C17.8854 3.04893 21.314 2.09655 24.8571 1.42859C25.0476 1.61906 25.2381 1.80954 25.4285 2.00002C24.1499 4.17307 23.1975 6.45876 22.5714 8.85716C21.3367 8.67099 20.289 8.09956 19.4285 7.14287C17.9846 9.10779 16.2703 10.8221 14.2857 12.2857C12.7949 14.5172 12.7949 16.6124 14.2857 18.5714C15.7664 15.6889 18.1473 14.5461 21.4285 15.1429C22.6571 18.5829 21.419 20.4877 17.7142 20.8572C16.4852 20.7014 15.3423 20.3205 14.2857 19.7143C13.9501 21.8915 14.2358 23.9868 15.1428 26ZM17.4285 16.2857C21.276 16.1665 21.7522 17.3094 18.8571 19.7143C17.5488 20.0127 16.3107 19.6317 15.1428 18.5714C15.7421 17.5911 16.504 16.8292 17.4285 16.2857Z" fill="#F0938E"/>
<path opacity="0.725" fill-rule="evenodd" clip-rule="evenodd" d="M65.4286 9.42858C66.4834 9.26983 67.2457 9.65075 67.7143 10.5714C67.2457 11.4921 66.4834 11.873 65.4286 11.7143C65.4286 10.9524 65.4286 10.1905 65.4286 9.42858Z" fill="#F0938E"/>
<path opacity="0.835" fill-rule="evenodd" clip-rule="evenodd" d="M52.8572 15.7143C53.0197 16.8084 52.8292 17.7607 52.2857 18.5714C43.1429 18.5714 34 18.5714 24.8572 18.5714C24.3232 17.9614 24.1327 17.1994 24.2858 16.2857C24.7168 14.8051 25.6692 13.7575 27.1429 13.1428C34.7619 12.7619 42.381 12.7619 50 13.1428C51.2346 13.7119 52.187 14.5691 52.8572 15.7143Z" fill="#991B14"/>
<path opacity="0.988" fill-rule="evenodd" clip-rule="evenodd" d="M59.1429 14.5714C61.996 14.8554 62.5675 16.0935 60.8572 18.2857C57.9326 18.1852 57.3612 16.9472 59.1429 14.5714Z" fill="#E54138"/>
<path fill-rule="evenodd" clip-rule="evenodd" d="M37.4286 15.1429C39.9337 14.9568 42.4098 15.1473 44.8572 15.7143C43.619 15.9047 42.381 16.0953 41.1429 16.2857C39.6513 16.2667 38.4132 15.8858 37.4286 15.1429Z" fill="#E54138"/>
<path fill-rule="evenodd" clip-rule="evenodd" d="M24.8572 18.5714C34 18.5714 43.1429 18.5714 52.2858 18.5714C52.2858 26 52.2858 33.4286 52.2858 40.8571C50.8615 39.1566 49.7186 37.2518 48.8572 35.1428C48.5223 35.0232 48.2366 34.8328 48 34.5714C47.841 35.0947 47.5552 35.4757 47.1429 35.7143C44.4494 35.5276 41.7827 35.7181 39.1429 36.2857C39.7969 37.0806 39.7969 37.8424 39.1429 38.5714C38.7472 38.2712 38.4615 37.8903 38.2857 37.4286C37.5239 38.9524 36.7619 38.9524 36 37.4286C35.7585 38.2606 35.2824 38.5463 34.5715 38.2857C33.8096 37.5238 33.8096 36.7619 34.5715 36C31.7207 35.7147 28.8635 35.6195 26 35.7143C26 40.6667 26 45.619 26 50.5714C34.381 50.5714 42.7619 50.5714 51.1429 50.5714C51.1429 48.4762 51.1429 46.381 51.1429 44.2857C49.6691 44.0476 48.431 44.4286 47.4286 45.4286C47.1429 44.7619 46.6667 44.2857 46 44C47.637 43.8955 49.1608 43.6098 50.5715 43.1428C51.3334 43.5238 51.9048 44.0952 52.2858 44.8571C52.2858 52.2857 52.2858 59.7143 52.2858 67.1428C43.1429 67.1428 34 67.1428 24.8572 67.1428C24.8572 56.8571 24.8572 46.5714 24.8572 36.2857C24.8572 30.381 24.8572 24.4762 24.8572 18.5714Z" fill="#FCEEEC"/>
<path opacity="0.812" fill-rule="evenodd" clip-rule="evenodd" d="M67.1428 18.5714C68.2657 18.8276 68.456 19.399 67.7143 20.2857C67.208 19.8143 67.0177 19.2428 67.1428 18.5714Z" fill="#E54138"/>
<path fill-rule="evenodd" clip-rule="evenodd" d="M32.2857 22C30.74 20.8106 29.0257 20.6201 27.1429 21.4286C26.5922 25.3954 26.4017 29.3954 26.5714 33.4286C28.6667 33.4286 30.7619 33.4286 32.8572 33.4286C32.8572 29.8096 32.8572 26.1905 32.8572 22.5714C33.3241 23.9821 33.6098 25.5059 33.7143 27.1429C39.4767 26.5794 45.2862 26.3889 51.1429 26.5714C51.1429 29.0476 51.1429 31.5238 51.1429 34C42.7655 34.686 34.3845 34.686 26 34C26.117 29.2188 25.9265 24.4569 25.4286 19.7143C34 19.7143 42.5714 19.7143 51.1429 19.7143C51.1429 21.8096 51.1429 23.9048 51.1429 26C45.4159 26.1897 39.7016 25.9992 34 25.4286C35.4898 24.9609 37.0136 24.6752 38.5714 24.5714C37.0136 24.4677 35.4898 24.182 34 23.7143C36.6498 23.1829 39.3165 22.8019 42 22.5714C42.08 21.6436 41.699 20.9769 40.8572 20.5714C38.0064 20.2861 35.1492 20.1909 32.2857 20.2857C32.2857 20.8572 32.2857 21.4286 32.2857 22Z" fill="#F0938E"/>
<path opacity="0.98" fill-rule="evenodd" clip-rule="evenodd" d="M9.42856 22C10.4884 21.8697 10.9646 22.2507 10.8571 23.1429C9.3517 23.8241 8.87553 23.4432 9.42856 22Z" fill="#E54138"/>
<path opacity="0.992" fill-rule="evenodd" clip-rule="evenodd" d="M16.8572 22C18.9492 21.9575 19.3301 22.529 18 23.7143C17.1895 23.4259 16.8085 22.8545 16.8572 22Z" fill="#E54138"/>
<path fill-rule="evenodd" clip-rule="evenodd" d="M24.2857 16.2857C24.1327 17.1994 24.3231 17.9614 24.8571 18.5714C24.8571 24.4762 24.8571 30.381 24.8571 36.2857C24.3989 35.4562 24.1132 34.5038 24 33.4286C23.718 34.3623 23.6227 35.3147 23.7143 36.2857C23.1751 34.4755 23.1751 32.5707 23.7143 30.5714C24.0904 29.8324 24.2808 28.9752 24.2857 28C24.2464 26.8654 23.8655 26.0083 23.1428 25.4286C23.4991 22.3229 23.88 19.2752 24.2857 16.2857Z" fill="#F0938E"/>
<path fill-rule="evenodd" clip-rule="evenodd" d="M52.8572 15.7143C53.2726 20.8487 53.844 25.9916 54.5715 31.1429C54.46 34.6449 54.0791 38.0734 53.4286 41.4286C52.7871 42.1471 52.4062 41.9566 52.2858 40.8572C52.2858 33.4286 52.2858 26 52.2858 18.5714C52.8293 17.7608 53.0198 16.8084 52.8572 15.7143Z" fill="#E54138"/>
<path opacity="0.145" fill-rule="evenodd" clip-rule="evenodd" d="M58.5714 26C59.1428 26 59.7143 26 60.2857 26C60.2857 26.5714 60.2857 27.1429 60.2857 27.7143C59.7143 27.7143 59.1428 27.7143 58.5714 27.7143C58.5714 27.1429 58.5714 26.5714 58.5714 26Z" fill="#F0938E"/>
<path opacity="0.016" fill-rule="evenodd" clip-rule="evenodd" d="M14.0001 25.4286C14.0001 26 14.0001 26.5714 14.0001 27.1429C13.4286 27.1429 12.8572 27.1429 12.2858 27.1429C12.2858 26.5714 12.2858 26 12.2858 25.4286C12.8572 25.4286 13.4286 25.4286 14.0001 25.4286Z" fill="#F0938E"/>
<path opacity="0.01" fill-rule="evenodd" clip-rule="evenodd" d="M15.1428 26C16.4573 26.0123 17.124 26.5838 17.1428 27.7143C16.1551 27.4433 15.4884 26.8718 15.1428 26Z" fill="#F0938E"/>
<path opacity="0.01" fill-rule="evenodd" clip-rule="evenodd" d="M18 26.5714C18.8893 27.0234 19.6511 27.2138 20.2857 27.1428C19.9047 27.3333 19.5238 27.5238 19.1429 27.7143C18.4495 27.573 18.0686 27.1921 18 26.5714Z" fill="#FCEEEC"/>
<path opacity="0.01" fill-rule="evenodd" clip-rule="evenodd" d="M20.8571 26.5714C21.9068 26.6511 22.0974 27.032 21.4286 27.7143C20.9728 27.4532 20.7823 27.0722 20.8571 26.5714Z" fill="#FCEEEC"/>
<path opacity="0.999" fill-rule="evenodd" clip-rule="evenodd" d="M65.4286 26.5714C67.1429 26.381 67.9046 27.1428 67.7143 28.8571C66.9526 28.8571 66.1903 28.8571 65.4286 28.8571C65.4286 28.0952 65.4286 27.3333 65.4286 26.5714Z" fill="#F0938E"/>
<path fill-rule="evenodd" clip-rule="evenodd" d="M32.2857 22C32.6667 22 32.8572 22.1905 32.8572 22.5715C32.8572 26.1905 32.8572 29.8096 32.8572 33.4286C30.7619 33.4286 28.6667 33.4286 26.5715 33.4286C26.4017 29.3954 26.5922 25.3954 27.1429 21.4286C29.0257 20.6201 30.74 20.8106 32.2857 22Z" fill="#E54138"/>
<path opacity="0.529" fill-rule="evenodd" clip-rule="evenodd" d="M23.1429 25.4286C23.8656 26.0083 24.2465 26.8654 24.2857 28C24.2809 28.9753 24.0904 29.8324 23.7143 30.5714C23.1562 28.9789 22.9657 27.2646 23.1429 25.4286Z" fill="#991B14"/>
<path fill-rule="evenodd" clip-rule="evenodd" d="M34.5714 30.5714C36.865 30.4768 39.1507 30.5721 41.4286 30.8571C41.9315 31.632 42.122 32.4892 42 33.4286C39.5165 33.5232 37.0403 33.428 34.5714 33.1428C34.0496 32.3349 34.0496 31.4778 34.5714 30.5714Z" fill="#E54138"/>
<path opacity="0.012" fill-rule="evenodd" clip-rule="evenodd" d="M3.71423 31.1429C4.28566 31.1429 4.85709 31.1429 5.42852 31.1429C5.42852 31.7143 5.42852 32.2857 5.42852 32.8572C4.85709 32.8572 4.28566 32.8572 3.71423 32.8572C3.71423 32.2857 3.71423 31.7143 3.71423 31.1429Z" fill="#F0938E"/>
<path fill-rule="evenodd" clip-rule="evenodd" d="M60.2857 31.7143C60.6571 32.8201 60.8474 33.963 60.8571 35.1429C60.0954 34.7619 59.3331 34.381 58.5714 34C58.336 32.5871 58.9074 31.8252 60.2857 31.7143Z" fill="#991B14"/>
<path opacity="0.333" fill-rule="evenodd" clip-rule="evenodd" d="M10.5715 31.7143C12.6636 31.6286 13.235 32.4858 12.2858 34.2857C10.3563 34.3312 9.78484 33.4741 10.5715 31.7143Z" fill="#E54138"/>
<path fill-rule="evenodd" clip-rule="evenodd" d="M60.2858 31.7143C61.5955 31.5678 62.8338 31.7582 64.0001 32.2857C64.4749 34.2938 65.3321 36.1033 66.5715 37.7143C66.2606 38.1241 65.8795 38.4098 65.4286 38.5714C64.5949 38.6099 63.8332 38.4195 63.1429 38C62.3635 37.0337 61.6018 36.0813 60.8572 35.1429C60.8475 33.963 60.6572 32.8201 60.2858 31.7143Z" fill="#E54138"/>
<path opacity="0.824" fill-rule="evenodd" clip-rule="evenodd" d="M71.1428 33.4286C71.7143 33.4286 72.2857 33.4286 72.8571 33.4286C72.8571 34 72.8571 34.5714 72.8571 35.1429C72.2857 35.1429 71.7143 35.1429 71.1428 35.1429C71.1428 34.5714 71.1428 34 71.1428 33.4286Z" fill="#E54138"/>
<path fill-rule="evenodd" clip-rule="evenodd" d="M58.5714 34C59.3331 34.381 60.0954 34.7619 60.8571 35.1429C61.6017 36.0813 62.3634 37.0337 63.1428 38C62.2983 37.8503 61.5366 38.0407 60.8571 38.5714C61.06 39.1556 61.4411 39.5366 62 39.7143C61.0297 41.2137 59.9823 41.2137 58.8571 39.7143C57.8868 40.7235 57.1251 41.8663 56.5714 43.1429C56.3375 41.8885 56.6232 40.7457 57.4286 39.7143C57.9126 38.8764 58.6743 38.4002 59.7143 38.2857C58.6937 38.1736 57.932 37.6974 57.4286 36.8571C57.9748 35.9569 58.356 35.0046 58.5714 34Z" fill="#E19877"/>
<path opacity="0.698" fill-rule="evenodd" clip-rule="evenodd" d="M9.99998 39.7143C11.1226 39.9705 11.3131 40.5419 10.5714 41.4286C10.0653 40.9572 9.87484 40.3857 9.99998 39.7143Z" fill="#E54138"/>
<path fill-rule="evenodd" clip-rule="evenodd" d="M57.4285 39.7143C56.6232 40.7457 56.3375 41.8885 56.5714 43.1429C57.1251 41.8664 57.8868 40.7235 58.8571 39.7143C59.9823 41.2137 61.0297 41.2137 62 39.7143C62.4668 41.1249 62.7525 42.6488 62.8571 44.2857C63.4794 39.2212 64.7177 39.2212 66.5714 44.2857C66.2583 45.3678 65.6868 46.3202 64.8571 47.1429C65.4605 49.4119 65.4605 51.6976 64.8571 54C62.1354 54.1568 59.4685 53.9663 56.8571 53.4286C57.0408 50.2708 56.8503 47.2232 56.2857 44.2857C55.7739 44.8608 55.3929 44.8608 55.1428 44.2857C55.1428 43.1429 55.1428 42 55.1428 40.8572C55.7221 40.1865 56.484 39.8055 57.4285 39.7143Z" fill="#E54138"/>
<path opacity="0.941" fill-rule="evenodd" clip-rule="evenodd" d="M14 40.8571C15.9755 40.9527 16.1659 41.5241 14.5714 42.5714C14.0653 42.1 13.8748 41.5285 14 40.8571Z" fill="#F0938E"/>
<path fill-rule="evenodd" clip-rule="evenodd" d="M47.1429 35.7143C48.7345 37.9473 49.8773 40.4235 50.5714 43.1429C49.1608 43.6098 47.637 43.8955 46 44C46.6667 44.2857 47.1429 44.7619 47.4286 45.4286C48.431 44.4286 49.669 44.0476 51.1429 44.2857C51.1429 46.381 51.1429 48.4762 51.1429 50.5714C42.7619 50.5714 34.381 50.5714 26 50.5714C26 45.619 26 40.6667 26 35.7143C28.8635 35.6195 31.7206 35.7147 34.5714 36C33.8095 36.7619 33.8095 37.5238 34.5714 38.2857C35.2823 38.5464 35.7585 38.2606 36 37.4286C36.7619 38.9524 37.5238 38.9524 38.2857 37.4286C38.4615 37.8904 38.7472 38.2713 39.1429 38.5714C39.7969 37.8425 39.7969 37.0806 39.1429 36.2857C41.7826 35.7181 44.4493 35.5277 47.1429 35.7143Z" fill="#F0938E"/>
<path fill-rule="evenodd" clip-rule="evenodd" d="M52.2857 40.8571C52.4061 41.9566 52.7871 42.1471 53.4285 41.4286C53.9377 41.0801 54.5091 40.8896 55.1428 40.8571C55.1428 42 55.1428 43.1428 55.1428 44.2857C54.4051 44.1501 53.8337 44.3406 53.4285 44.8571C53.2381 44.8571 53.0476 44.8571 52.8571 44.8571C52.6667 44.8571 52.4761 44.8571 52.2857 44.8571C51.9047 44.0952 51.3333 43.5238 50.5714 43.1428C49.8773 40.4235 48.7344 37.9473 47.1428 35.7143C47.5552 35.4757 47.8409 35.0947 48 34.5714C48.2365 34.8328 48.5223 35.0232 48.8571 35.1428C49.7185 37.2518 50.8614 39.1566 52.2857 40.8571Z" fill="#F5A185"/>
<path fill-rule="evenodd" clip-rule="evenodd" d="M27.7142 36.8571C29.409 36.6345 30.9328 37.0154 32.2857 38C32.8552 41.7906 33.0457 45.6001 32.8571 49.4286C30.7618 49.4286 28.6666 49.4286 26.5714 49.4286C26.2788 45.1208 26.6598 40.9303 27.7142 36.8571Z" fill="#E54138"/>
<path opacity="0.38" fill-rule="evenodd" clip-rule="evenodd" d="M70 43.7143C70.5714 43.7143 71.1429 43.7143 71.7143 43.7143C71.7143 44.2857 71.7143 44.8572 71.7143 45.4286C71.1429 45.4286 70.5714 45.4286 70 45.4286C70 44.8572 70 44.2857 70 43.7143Z" fill="#F0938E"/>
<path fill-rule="evenodd" clip-rule="evenodd" d="M20.2858 42.5714C21.7622 42.8847 22.3337 43.8371 22.0001 45.4286C19.8379 45.4141 19.2665 44.4618 20.2858 42.5714Z" fill="#E54138"/>
<path fill-rule="evenodd" clip-rule="evenodd" d="M55.1428 44.2857C55.3929 44.8607 55.7738 44.8607 56.2857 44.2857C56.3801 46.3895 56.2849 48.4848 55.9999 50.5714C55.3442 50.0239 54.7728 50.2144 54.2857 51.1428C54.0002 54.7569 53.905 58.376 53.9999 62C53.4291 56.7146 53.2386 51.0003 53.4285 44.8571C53.8337 44.3406 54.4051 44.1501 55.1428 44.2857Z" fill="#FCEEEC"/>
<path fill-rule="evenodd" clip-rule="evenodd" d="M66.5714 44.2857C67.0525 45.6133 67.624 46.9467 68.2857 48.2857C67.632 50.2493 66.8702 52.154 66 54C65.7205 54.8544 65.34 55.6163 64.8571 56.2857C63.5222 55.6606 63.5222 54.8987 64.8571 54C65.4605 51.6976 65.4605 49.4119 64.8571 47.1428C65.6868 46.3202 66.2582 45.3678 66.5714 44.2857Z" fill="#F5A385"/>
<path opacity="0.545" fill-rule="evenodd" clip-rule="evenodd" d="M74 47.7143C75.8137 47.9727 76.004 48.5441 74.5714 49.4286C74.0651 48.9572 73.8749 48.3857 74 47.7143Z" fill="#F0938E"/>
<path opacity="0.952" fill-rule="evenodd" clip-rule="evenodd" d="M70 47.1429C70.8177 47.3604 71.2937 47.9319 71.4285 48.8572C71.6188 53.4286 71.8097 58 72 62.5715C73.3605 62.0372 74.7891 61.8469 76.2857 62C76.2857 65.2383 76.2857 68.476 76.2857 71.7143C77.4285 71.7143 78.5714 71.7143 79.7142 71.7143C79.7142 72.0955 79.7142 72.476 79.7142 72.8572C74.9525 72.8572 70.1903 72.8572 65.4285 72.8572C65.4285 73.6189 65.4285 74.3812 65.4285 75.1429C67.0302 75.9589 68.7445 76.34 70.5714 76.2857C70.5714 76.8572 70.5714 77.4286 70.5714 78C64.0954 78.7617 57.6188 78.7617 51.1428 78C51.1428 77.4286 51.1428 76.8572 51.1428 76.2857C52.8672 76.1692 54.5815 75.9789 56.2857 75.7143C55.4885 76.3703 55.5837 76.9417 56.5714 77.4286C57.5423 76.9109 58.5903 76.7206 59.7143 76.8572C59.7143 76.0955 59.7143 75.3332 59.7143 74.5715C59.1428 74.5715 58.5714 74.5715 58 74.5715C58 74 58 73.4286 58 72.8572C58.5714 72.8572 59.1428 72.8572 59.7143 72.8572C59.9057 68.8412 60.2868 64.8412 60.8571 60.8572C61.6211 64.868 62.3834 68.868 63.1428 72.8572C63.7143 72.8572 64.2857 72.8572 64.8571 72.8572C64.372 67.3155 64.372 61.7915 64.8571 56.2857C65.34 55.6163 65.7205 54.8544 66 54C67.6085 53.6421 69.0371 52.8801 70.2857 51.7143C70.5314 50.1759 70.436 48.6521 70 47.1429Z" fill="#F0938E"/>
<path opacity="0.306" fill-rule="evenodd" clip-rule="evenodd" d="M5.99998 49.4286C6.57141 49.4286 7.14284 49.4286 7.71426 49.4286C7.87301 50.4837 7.49209 51.2456 6.57141 51.7143C6.04072 51.035 5.85027 50.273 5.99998 49.4286Z" fill="#E54138"/>
<path fill-rule="evenodd" clip-rule="evenodd" d="M63.1429 38C63.8332 38.4195 64.5949 38.6099 65.4286 38.5714C68.6057 40.1859 69.7486 42.7573 68.8572 46.2857C69.3806 46.4448 69.7612 46.7305 70 47.1428C70.436 48.652 70.5315 50.1759 70.2857 51.7143C69.0372 52.8801 67.6086 53.642 66 54C66.8703 52.154 67.632 50.2493 68.2857 48.2857C67.624 46.9467 67.0526 45.6133 66.5715 44.2857C64.7177 39.2211 63.4795 39.2211 62.8572 44.2857C62.7526 42.6487 62.4669 41.1249 62 39.7143C61.4412 39.5366 61.06 39.1556 60.8572 38.5714C61.5366 38.0407 62.2983 37.8503 63.1429 38Z" fill="#F4BF43"/>
<path fill-rule="evenodd" clip-rule="evenodd" d="M56.2858 44.2857C56.8504 47.2231 57.0408 50.2707 56.8572 53.4286C56.8572 55.3333 56.8572 57.2383 56.8572 59.1428C56.9518 61.4366 56.8565 63.7223 56.5715 66C56.2858 65.7143 56 65.4286 55.7143 65.1428C56.4395 63.9206 56.4395 62.6828 55.7143 61.4286C55.1904 61.7868 54.619 61.9777 54 62C53.9051 58.376 54.0003 54.7569 54.2858 51.1428C54.7729 50.2144 55.3443 50.0239 56 50.5714C56.285 48.4848 56.3802 46.3895 56.2858 44.2857Z" fill="#F0938E"/>
<path opacity="0.96" fill-rule="evenodd" clip-rule="evenodd" d="M12.2858 59.7143C12.2003 60.3154 12.2956 60.8868 12.5715 61.4286C13.7566 62.544 14.9947 63.5914 16.2858 64.5714C15.824 64.7474 15.4431 65.0331 15.1429 65.4286C15.7695 66.5914 16.7219 67.3531 18.0001 67.7143C17.3113 68.5686 17.3113 69.3303 18.0001 70C16.7325 70.2948 15.5897 70.8663 14.5715 71.7143C18.5534 72.284 22.5534 72.4743 26.5715 72.2857C34.5715 72.2857 42.5715 72.2857 50.5715 72.2857C53.0477 72.2857 55.5239 72.2857 58.0001 72.2857C58.0001 72.476 58.0001 72.6668 58.0001 72.8571C38.7582 73.0474 19.5201 72.8571 0.285767 72.2857C2.73308 71.7188 5.20927 71.528 7.71434 71.7143C7.642 63.2531 8.40388 54.8721 10.0001 46.5714C10.5641 48.439 10.7546 50.3438 10.5715 52.2857C11.1429 52.2857 11.7143 52.2857 12.2858 52.2857C12.2858 54.7619 12.2858 57.2383 12.2858 59.7143Z" fill="#F0938E"/>
<path opacity="0.01" fill-rule="evenodd" clip-rule="evenodd" d="M16.8572 54C17.4863 53.3724 18.2482 53.2771 19.1429 53.7143C18.4039 53.9943 17.642 54.0895 16.8572 54Z" fill="#FCEEEC"/>
<path opacity="0.946" fill-rule="evenodd" clip-rule="evenodd" d="M23.7142 50C23.8093 54.0045 23.714 58.0046 23.4285 62C23.0238 61.4966 22.5476 61.116 21.9999 60.8571C20.9554 60.4097 20.1935 59.648 19.7142 58.5714C20.2783 55.8255 20.4688 52.9683 20.2857 50C21.4285 50 22.5714 50 23.7142 50Z" fill="#FCEEEC"/>
<path fill-rule="evenodd" clip-rule="evenodd" d="M56.8572 53.4286C59.4686 53.9663 62.1355 54.1568 64.8572 54C63.5223 54.8988 63.5223 55.6606 64.8572 56.2857C64.372 61.7914 64.372 67.3154 64.8572 72.8572C64.2857 72.8572 63.7143 72.8572 63.1429 72.8572C62.3835 68.868 61.6212 64.868 60.8572 60.8572C60.2869 64.8412 59.9057 68.8412 59.7143 72.8572C59.1429 72.8572 58.5715 72.8572 58 72.8572C58 72.6669 58 72.476 58 72.2857C57.8172 67.8034 57.436 63.4223 56.8572 59.1429C56.8572 57.2383 56.8572 55.3333 56.8572 53.4286Z" fill="#991B14"/>
<path fill-rule="evenodd" clip-rule="evenodd" d="M19.7142 58.5714C20.1935 59.648 20.9554 60.4097 22 60.8571C21.2445 60.76 20.5778 60.9503 20 61.4285C19.4606 63.0554 19.7463 64.484 20.8571 65.7143C20.1181 65.9943 19.3562 66.0897 18.5714 66C18.4898 67.0068 18.6803 67.9594 19.1428 68.8571C18.7184 69.2468 18.3374 69.628 18 70C17.3112 69.3303 17.3112 68.5685 18 67.7143C16.7218 67.3531 15.7694 66.5914 15.1428 65.4285C15.443 65.0331 15.8239 64.7474 16.2857 64.5714C14.9946 63.5914 13.7565 62.544 12.5714 61.4285C12.2955 60.8868 12.2002 60.3154 12.2857 59.7143C13.2354 58.336 13.8068 56.7168 14 54.8571C15.7996 55.4537 17.7044 55.9299 19.7142 56.2857C19.7142 57.0476 19.7142 57.8097 19.7142 58.5714Z" fill="#F0938E"/>
<path opacity="0.989" fill-rule="evenodd" clip-rule="evenodd" d="M4.28569 58.5714C6.73684 58.7108 7.11775 59.6634 5.42855 61.4286C3.8482 60.8371 3.46724 59.8851 4.28569 58.5714Z" fill="#F0938E"/>
<path fill-rule="evenodd" clip-rule="evenodd" d="M23.7143 36.8571C24.1896 47.807 24.4753 58.8548 24.5714 70C25.3575 70.6885 26.0242 71.4503 26.5714 72.2857C22.5534 72.4743 18.5534 72.284 14.5714 71.7143C15.5896 70.8663 16.7324 70.2948 18 70C18.3375 69.628 18.7184 69.2468 19.1428 68.8571C18.6803 67.9594 18.4899 67.0068 18.5714 66C19.3562 66.0897 20.1182 65.9943 20.8571 65.7143C19.7463 64.484 19.4606 63.0554 20 61.4285C20.5779 60.9503 21.2445 60.76 22 60.8571C22.5476 61.116 23.0238 61.4965 23.4286 62C23.714 58.0045 23.8093 54.0045 23.7143 50C23.7143 45.619 23.7143 41.2381 23.7143 36.8571Z" fill="#E54138"/>
<path fill-rule="evenodd" clip-rule="evenodd" d="M52.8571 44.8571C53.0476 44.8571 53.2381 44.8571 53.4286 44.8571C53.2387 51.0003 53.4291 56.7146 54 62C54.619 61.9777 55.1904 61.7868 55.7143 61.4285C56.4395 62.6828 56.4395 63.9205 55.7143 65.1428C56 65.4285 56.2857 65.7143 56.5714 66C56.8564 63.7223 56.9517 61.4365 56.8571 59.1428C57.436 63.4223 57.8171 67.8034 58 72.2857C55.5238 72.2857 53.0476 72.2857 50.5714 72.2857C51.5106 71.8194 52.1773 71.0571 52.5714 70C52.8571 61.6211 52.9523 53.2403 52.8571 44.8571Z" fill="#E54138"/>
<path fill-rule="evenodd" clip-rule="evenodd" d="M24.8572 36.2857C24.8572 46.5714 24.8572 56.8572 24.8572 67.1429C34 67.1429 43.1429 67.1429 52.2857 67.1429C52.2857 59.7143 52.2857 52.2857 52.2857 44.8572C52.4762 44.8572 52.6667 44.8572 52.8572 44.8572C52.9524 53.2403 52.8571 61.6212 52.5715 70C52.1773 71.0572 51.5107 71.8194 50.5715 72.2857C42.5715 72.2857 34.5715 72.2857 26.5715 72.2857C26.0242 71.4503 25.3575 70.6886 24.5715 70C24.4753 58.8549 24.1896 47.807 23.7143 36.8572C23.7143 36.6667 23.7143 36.4762 23.7143 36.2857C23.6228 35.3148 23.718 34.3624 24 33.4286C24.1132 34.5038 24.3989 35.4562 24.8572 36.2857Z" fill="#991B14"/>
<path fill-rule="evenodd" clip-rule="evenodd" d="M41.4286 65.4286C42.439 63.1937 41.6772 62.2411 39.1429 62.5714C39.7763 62.12 40.5382 61.8343 41.4286 61.7143C39.1429 61.3331 36.8572 61.3331 34.5714 61.7143C33.9221 62.3686 33.3506 63.0354 32.8572 63.7143C32.9521 60.4708 32.8568 57.2326 32.5714 54C30.6667 52.4762 28.7619 52.4762 26.8572 54C26.5717 57.8046 26.4764 61.6143 26.5714 65.4286C26.0044 60.9623 25.8139 56.3909 26 51.7143C30.9053 51.6217 35.8576 51.8122 40.8572 52.2857C40.0169 52.8095 39.1597 53.381 38.2857 54C37.892 53.5104 37.4158 53.1295 36.8572 52.8571C35.9229 53.3315 34.9705 53.4268 34 53.1428C33.3618 54.8989 33.2666 56.7084 33.7143 58.5714C33.9981 57.2514 34.0933 55.9182 34 54.5714C37.5482 54.5047 40.9768 54.3142 44.2857 54C44.6667 53.4286 45.0476 52.8571 45.4286 52.2857C47.2962 51.7217 49.2009 51.5312 51.1429 51.7143C51.1429 56.4762 51.1429 61.2383 51.1429 66C47.7954 66.184 44.5573 65.9937 41.4286 65.4286Z" fill="#F0938E"/>
<path fill-rule="evenodd" clip-rule="evenodd" d="M39.1428 62.5714C41.6771 62.2411 42.439 63.1937 41.4285 65.4286C38.99 65.5983 36.609 65.408 34.2857 64.8571C33.8949 64.1234 33.9902 63.4566 34.5714 62.8571C36.0834 62.5731 37.6072 62.4777 39.1428 62.5714Z" fill="#E54138"/>
<path fill-rule="evenodd" clip-rule="evenodd" d="M32.8572 63.7143C32.8572 64.2857 32.8572 64.8571 32.8572 65.4286C30.7619 65.4286 28.6667 65.4286 26.5715 65.4286C26.4765 61.6143 26.5717 57.8046 26.8572 54C28.7619 52.4762 30.6667 52.4762 32.5715 54C32.8569 57.2326 32.9521 60.4708 32.8572 63.7143Z" fill="#E54138"/>
<path fill-rule="evenodd" clip-rule="evenodd" d="M34.5714 46.5714C36.865 46.4768 39.1507 46.5721 41.4286 46.8571C42.1904 47.619 42.1904 48.381 41.4286 49.1428C39.1428 49.5238 36.8571 49.5238 34.5714 49.1428C33.8698 48.2913 33.8698 47.4342 34.5714 46.5714Z" fill="#8C8E54" fill-opacity="0.0745098"/>
<path fill-rule="evenodd" clip-rule="evenodd" d="M58.0001 74.5714C58.5715 74.5714 59.1429 74.5714 59.7143 74.5714C59.7143 75.3331 59.7143 76.0954 59.7143 76.8571C58.5903 76.7206 57.5423 76.9108 56.5715 77.4286C55.5838 76.9417 55.4886 76.3703 56.2858 75.7143C56.8572 75.3331 57.4286 74.9526 58.0001 74.5714Z" fill="#C17723"/>
<path fill-rule="evenodd" clip-rule="evenodd" d="M65.4286 75.1429C65.4286 75.9046 65.4286 76.6669 65.4286 77.4286C64.0434 77.6046 62.7103 77.4137 61.4286 76.8572C62.4263 75.512 63.7594 74.9406 65.4286 75.1429Z" fill="#BD751F"/>
</svg>
