<?xml version="1.0" encoding="utf-8"?>
<!-- Generator: Adobe Illustrator 24.1.3, SVG Export Plug-In . SVG Version: 6.00 Build 0)  -->
<svg version="1.1" id="Layer_1" xmlns="http://www.w3.org/2000/svg" xmlns:xlink="http://www.w3.org/1999/xlink" x="0px" y="0px"
	 viewBox="0 0 667.54 170.51" style="enable-background:new 0 0 667.54 170.51;" xml:space="preserve">
<style type="text/css">
	.st0{fill:#FFFFFF;}
	.st1{fill:#81151D;}
	.st2{fill:#2D2D2D;}
</style>
<path class="st0" d="M268.84,125.32c0-0.14-0.03-0.26,0-0.36c0.76-2.39,1.76-4.66,3.39-6.6c0.15-0.18,0.31-0.35,0.47-0.52
	c0.62-0.64,0.86-0.66,1.55-0.16c0.57,0.41,0.83,1.21,0.54,1.75c-0.21,0.38-0.46,0.74-0.72,1.09c-1.39,1.85-3.16,3.31-4.96,4.72
	C269.05,125.28,268.96,125.28,268.84,125.32z"/>
<path class="st1" d="M22.62,115.1c-0.25-0.34-0.47-0.65-0.71-0.94c-1.04-1.24-1.35-2.73-1.52-4.27c-0.03-0.32-0.06-0.64-0.12-0.95
	c-0.27-1.49-0.14-2.98,0.4-4.37c0.56-1.46,1.59-2.52,3.17-2.99c3.4-1.01,6.36-0.07,9,2.08c1.23,1,2.13,2.28,2.45,3.91
	c0.22,1.17,0.54,2.31,0.77,3.48c0.35,1.79,0.03,3.45-1.04,4.95c-0.08,0.12-0.16,0.24-0.25,0.36c0.08,0.41,0.3,0.58,0.72,0.58
	c2.35-0.01,4.71,0,7.06-0.01c0.2,0,0.39-0.07,0.59-0.12c1.09-0.29,2.17-0.64,3.28-0.84c0.67-0.12,1.4-0.09,2.07,0.03
	c1.11,0.2,2.19,0.53,3.29,0.8c0.25,0.06,0.51,0.13,0.76,0.13c4.12,0.01,8.25,0.01,12.37,0c0.11,0,0.23-0.02,0.4-0.03
	c0.11-0.44,0.26-0.88,0.33-1.32c0.33-1.88,1.51-3.14,3.11-3.95c0.97-0.49,2.08-0.74,3.21-0.59c2.16,0.28,4.32,0.55,6.48,0.84
	c3.11,0.4,6.22,0.79,9.33,1.23c1.43,0.2,2.87,0.41,4.09,1.33c0.86,0.65,1.39,1.53,1.92,2.47c9.21,0,18.41,0,27.67,0
	c0.12-0.18,0.27-0.39,0.41-0.6c1.84-2.72,4.38-4.35,7.57-5.15c3.64-0.91,7.18-0.54,10.76,0.28c4.73,1.08,9.17,2.89,13.41,5.22
	c0.31,0.17,0.7,0.21,1.06,0.29c0.11,0.03,0.23,0,0.35,0c36.74,0,73.48,0,110.22,0c1.25,0,2.49-0.05,3.7-0.44
	c3.85-1.23,6.5-4.79,6.56-8.84c0-0.12,0-0.23,0-0.35c0-31.61,0-63.23-0.01-94.84c0-3.47-1.44-6.23-4.36-8.15
	c-1.49-0.98-3.15-1.46-4.94-1.46c-0.35,0-0.7,0-1.05,0c-76.94,0-153.88,0-230.82,0c-4.33,0-8.65-0.04-12.98-0.02
	c-3.31,0.02-6.11,2.23-6.93,5.44c-0.18,0.69-0.26,1.43-0.26,2.15c0.03,20.29,0.09,40.58,0.13,60.87
	c0.03,12.42,0.03,24.85,0.07,37.27c0,0.98,0.06,1.99,0.3,2.93c0.78,3.05,3.5,5.21,6.64,5.38c0.08,0,0.17-0.02,0.25-0.03
	C21.91,116.28,22.26,115.71,22.62,115.1z M238.76,54.89c0-2.39,0-4.7,0-7.02c0-2.32,0-4.64,0-6.97c0-2.35,0-4.7,0-7.05
	c0-2.31-0.01-4.62,0.01-6.92c4.87,0,9.61,0,14.39,0c0,24.8,0,49.55,0,74.28c-0.94,0.21-13.73,0.17-14.4-0.05c0-2.68,0-5.37,0-8.07
	c0-2.7,0-5.4,0-8.1c0-2.73,0.01-5.46,0-8.18c-0.01-2.69,0.04-5.37-0.03-8.05c-8.34,0-16.57,0-24.89,0c0,10.87,0,21.68,0,32.48
	c-1.13,0.2-13.67,0.17-14.32-0.02c-0.18-1.3-0.11-73.7,0.08-74.3c4.72,0,9.45,0,14.28,0c0,9.34,0,18.64,0,27.96
	C222.19,54.89,230.4,54.89,238.76,54.89z M51.94,52.15c0.42-0.38,0.67-0.6,0.92-0.83c4-3.65,8.64-5.89,14.08-6.38
	c3.79-0.34,7.49,0.02,11.04,1.39C84.64,48.9,89.37,53.6,92.37,60c2.97,6.32,3.44,13.01,2.34,19.83c-1.04,6.45-4.11,11.83-8.91,16.24
	c-4.82,4.43-10.47,6.73-17.07,6.68c-4.53-0.03-8.72-1.17-12.48-3.72c-1.24-0.84-2.39-1.84-3.58-2.77c-0.21-0.16-0.41-0.34-0.76-0.62
	c0,2.01,0,3.8,0,5.58c-0.83,0.22-13.07,0.2-13.77-0.01c0-18.29,0-36.59,0-54.89c0.98-0.19,13.12-0.15,13.78,0.05
	C51.94,48.21,51.94,50.07,51.94,52.15z M128.76,77.66c-0.04-0.2-0.08-0.31-0.09-0.42c-0.16-3.82,0.06-7.6,1.02-11.31
	c2.12-8.18,6.87-14.33,14.45-18.11c6.35-3.16,13.15-3.78,20.03-2.4c9.69,1.95,16.37,7.79,20.2,16.8c2.47,5.82,2.76,11.94,1.61,18.12
	c-1.9,10.26-9.67,18.62-19.75,21.3c-5.25,1.4-10.55,1.43-15.88,0.55c-7.32-1.22-13.11-4.91-17.5-10.85
	c-0.17-0.22-0.31-0.46-0.5-0.75c3.94-1.86,7.79-3.67,11.65-5.48c0.27,0.24,0.48,0.43,0.69,0.62c1.54,1.39,3.25,2.52,5.17,3.34
	c3.4,1.45,6.94,1.76,10.58,1.25c6.53-0.92,11.25-5.36,12.56-11.8c0.05-0.24,0.04-0.49,0.06-0.84
	C158.24,77.66,143.5,77.66,128.76,77.66z M118.91,25c0.04,0.16,0.08,0.24,0.08,0.33c0,25.17,0.01,50.33,0.01,75.5
	c0,0.11-0.03,0.23-0.05,0.34c0,0.03-0.03,0.05-0.04,0.07c-0.02,0.02-0.04,0.04-0.08,0.08c-4.53,0-9.08,0-13.67,0
	c0-25.46,0-50.87,0-76.32C109.76,25,114.31,25,118.91,25z M46.49,16.42c0.34-0.03,0.51-0.06,0.68-0.06c4.99,0,9.99,0.01,14.98-0.01
	c0.51,0,0.77,0.2,1.03,0.61c3.77,6.2,7.55,12.38,11.32,18.58c0.11,0.18,0.18,0.39,0.32,0.69c-0.41,0-0.69,0-0.98,0
	c-2.67,0-5.34-0.02-8.01,0.01c-0.64,0.01-1.07-0.2-1.5-0.66C58.57,29.4,52.8,23.23,47.03,17.06C46.88,16.89,46.74,16.72,46.49,16.42
	z"/>
<path class="st2" d="M146.12,153.27c-0.05,0.74-0.1,1.32-0.13,1.89c-0.04,1.07-0.14,2.15-0.09,3.21c0.06,1.47,0.79,2.58,2.1,3.29
	c1.03,0.56,2.09,1.02,3.26,1.14c0.48,0.05,0.99,0.03,1.46-0.1c0.69-0.18,1.17-0.64,1.21-1.42c0.08-1.88,0.2-3.77,0.2-5.65
	c0-1.65-0.13-3.3-0.2-4.96c-0.02-0.37,0-0.74,0-1.09c0.88,0.09,1.71,0.23,2.54,0.23c0.56,0,1.16-0.14,1.68-0.35
	c1.08-0.44,1.34-1.35,0.71-2.33c-0.48-0.74-1.13-1.33-1.9-1.75c-1.12-0.61-2.22-1.27-3.56-1.43c-0.18-1.3-0.36-2.56-0.54-3.82
	c-0.57-3.93-1.4-7.82-2.31-11.68c-0.54-2.25-3.3-3.77-5.63-3.28c-0.85,0.18-1.14,0.68-1.01,1.52c0.54,3.44,1.09,6.87,1.58,10.32
	c0.21,1.46,0.27,2.93,0.42,4.54c-0.43-0.21-0.74-0.35-1.04-0.5c-4.41-2.31-8.02-5.52-10.84-9.6c-1.38-1.99-2.2-4.22-2.36-6.64
	c-0.05-0.71,0.03-1.46,0.19-2.15c0.47-1.97,1.98-3.07,4.19-3.08c2.63-0.01,5.2,0.41,7.73,1.09c3.38,0.9,6.58,2.24,9.7,3.81
	c0.56,0.28,1.18,0.47,1.78,0.65c0.24,0.07,0.52,0.06,0.78,0.02c0.87-0.13,1.28-0.86,0.8-1.59c-0.34-0.52-0.81-1.02-1.33-1.34
	c-1.93-1.18-3.86-2.37-5.87-3.41c-3.57-1.84-7.31-3.25-11.27-4.03c-2.64-0.52-5.29-0.71-7.95-0.09c-1.46,0.34-2.79,0.97-3.94,1.94
	c-2.1,1.75-2.66,4.08-2.44,6.66c0.33,3.76,1.93,7.02,4.15,10c4.01,5.39,9.17,9.41,15.17,12.38c0.65,0.32,1.3,0.63,2.07,0.99
	c-0.3,0.15-0.52,0.28-0.74,0.38c-5.05,2.07-9.98,4.38-14.86,6.81c-0.16,0.08-0.31,0.16-0.47,0.23c-1.44,0.64-1.34,1.78-0.76,2.63
	c1.26,1.82,3.04,2.73,5.26,2.68c0.43-0.01,0.88-0.26,1.29-0.47c3.33-1.72,6.64-3.45,9.96-5.17
	C145.37,153.61,145.66,153.49,146.12,153.27z"/>
<path class="st2" d="M108.28,148.63c0.21,0.36,0.32,0.55,0.43,0.74c1.7,2.92,4.19,4.79,7.52,5.42c3.03,0.57,5.22-0.78,6.16-3.51
	c1.05-3.06,1.42-6.21,1.3-9.42c-0.13-3.43-0.72-6.8-1.69-10.1c-0.14-0.48-0.38-1.01-0.73-1.35c-1.49-1.43-3.25-2.19-5.36-1.99
	c-0.17,0.02-0.35,0.04-0.51,0.09c-1.04,0.29-1.36,0.82-1.16,1.88c0.19,1.03,0.41,2.05,0.56,3.08c0.59,3.83,0.82,7.67,0.08,11.51
	c-0.17,0.9-0.43,1.79-0.65,2.69c-0.06,0.01-0.12,0.02-0.18,0.02c-0.18-0.31-0.38-0.61-0.53-0.94c-1.31-2.97-2.6-5.95-3.9-8.92
	c-0.62-1.44-1.22-2.88-1.86-4.31c-0.28-0.63-0.46-1.26-0.35-1.94c0.3-1.84-0.58-3.06-2.05-3.98c-1.02-0.64-2.13-1.04-3.33-1.2
	c-0.34-0.05-0.7-0.05-1.04-0.01c-1.34,0.15-1.98,0.84-1.95,2.19c0.1,4.73,0.15,9.46,0.38,14.18c0.25,4.99,0.84,9.95,2.07,14.8
	c1.62,6.4,5.51,10.74,11.98,12.55c1.4,0.39,2.84,0.58,4.3,0.27c1.18-0.25,2.18-0.78,2.86-1.81c0.41-0.62,0.42-1.05-0.13-1.55
	c-1.11-1.01-2.38-1.66-3.95-1.4c-2.24,0.37-3.99-0.37-5.26-2.24c-0.98-1.44-1.52-3.07-1.82-4.76c-0.37-2.05-0.61-4.13-0.88-6.2
	c-0.14-1.03-0.21-2.08-0.31-3.12C108.26,149.17,108.28,149.01,108.28,148.63z"/>
<path class="st2" d="M37.85,160.52c-0.8-0.58-1.23-1.33-1.61-2.12c-0.69-1.45-1.06-3-1.36-4.57c-0.5-2.71-0.79-5.45-0.9-8.21
	c-0.18-4.47-0.26-8.94-0.51-13.4c-0.15-2.7-0.15-5.39-0.21-8.09c-0.03-1.15-0.24-2.31-0.52-3.42c-0.55-2.21-2.15-3.38-4.26-3.89
	c-2.15-0.53-3.27,0.25-3.58,2.45c-0.08,0.54-0.07,1.1-0.06,1.65c0.03,1.07,0.09,2.14,0.13,3.22c0.18,6.44,0.32,12.88,0.56,19.32
	c0.14,3.83,0.56,7.64,1.7,11.33c0.81,2.6,1.93,5.06,3.82,7.05c2.74,2.88,6.09,4.5,10.11,4.55c2.44,0.03,3.99-1.32,4.41-3.72
	c0.43-2.47,0.2-4.92-0.32-7.34c-0.65-3.02-1.77-5.88-3.1-8.66c-0.45-0.95-1.29-1.39-2.23-1.65c-0.7-0.19-0.96,0.01-1.08,0.73
	c-0.22,1.22-0.01,2.43,0.15,3.64c0.21,1.64,0.5,3.27,0.71,4.91c0.15,1.16,0.16,2.32-0.1,3.46
	C39.33,158.85,38.85,159.81,37.85,160.52z"/>
<path class="st2" d="M75.72,125.29c-1.06-1.11-2.29-1.78-3.76-1.95c-0.34-0.04-0.7-0.02-1.03,0.05c-0.84,0.18-1.27,0.82-1.14,1.68
	c0.29,1.86,0.6,3.72,0.89,5.58c0.64,4.17,1,8.35,0.7,12.57c-0.08,1.09-0.06,2.22,0.13,3.29c0.4,2.17,1.91,3.39,3.93,3.99
	c1.29,0.38,2.49-0.15,3.27-1.27c0.58-0.83,0.83-1.78,0.92-2.77c0.02-0.25,0.03-0.51,0.06-0.91c0.23,0.24,0.39,0.38,0.52,0.55
	c1.01,1.32,2.08,2.57,3.39,3.61c1.29,1.02,2.7,1.8,4.33,2.13c1.04,0.21,2.08,0.2,3.1-0.09c1.4-0.4,2.36-1.32,2.93-2.65
	c0.71-1.68,0.81-3.45,0.6-5.22c-0.7-6.02-3.03-11.39-6.68-16.21c-0.92-1.21-1.98-2.27-3.22-3.16c-1.71-1.24-3.67-1.55-5.7-1.4
	C77.61,123.19,76.74,123.84,75.72,125.29z M86.14,143.32c-0.04,0.44-0.09,1.05-0.16,1.65c-0.05,0.4-0.11,0.92-0.56,0.97
	c-0.29,0.03-0.68-0.27-0.92-0.52c-2.74-2.72-4.6-5.96-5.46-9.74c-0.57-2.51-0.55-5.01,0.44-7.44c0.1-0.24,0.2-0.49,0.35-0.7
	c0.24-0.34,0.51-0.37,0.79-0.07c0.35,0.39,0.68,0.79,0.97,1.23C84.4,133.12,85.89,137.94,86.14,143.32z"/>
<path class="st2" d="M50.2,123.49c1.62,1.75,2.85,3.54,3.87,5.47c1.96,3.73,3.04,7.7,3.32,11.89c0.07,1.04,0.12,2.09,0.11,3.13
	c-0.01,0.71,0.2,1.32,0.65,1.84c1.46,1.69,3.34,2.56,5.54,2.75c0.23,0.02,0.46-0.03,0.69-0.07c1.04-0.21,1.52-0.76,1.49-1.81
	c-0.04-1.51-0.13-3.02-0.22-4.52c-0.15-2.58-0.3-5.16-0.46-7.73c-0.09-1.45-0.22-2.89-0.34-4.34c-0.05-0.67-0.36-1.22-0.81-1.69
	c-1.32-1.38-2.94-2.14-4.85-2.27c-0.74-0.05-1.44,0.12-2.07,0.66c-0.2-0.32-0.36-0.59-0.53-0.86c-1.08-1.71-2.37-3.23-4.01-4.43
	c-1.31-0.95-2.73-1.64-4.37-1.82c-2.7-0.3-4.76,0.72-6.19,3.01c-0.96,1.55-1.26,3.29-1.35,5.07c-0.03,0.49-0.03,0.99,0.02,1.48
	c0.24,2.23,0.15,4.46,0.01,6.7c-0.1,1.71-0.07,3.42,0.25,5.12c0.04,0.2,0.06,0.42,0.15,0.58c0.95,1.61,2.17,2.93,4.03,3.53
	c0.8,0.25,1.56,0.15,2.24-0.33c1.5-1.05,1.59-0.67,1.64-2.74c0.05-2.2,0.11-4.41,0.05-6.61c-0.07-2.9-0.25-5.8-0.4-8.7
	c-0.05-0.93,0.12-1.8,0.66-2.56C49.53,123.96,49.87,123.77,50.2,123.49z"/>
<path class="st2" d="M20.98,136.01c-0.32-5.8-2.08-11.08-5.63-15.72c-1.78-2.32-3.96-4.15-6.75-5.17c-1.49-0.55-3.03-0.75-4.62-0.67
	c-1.05,0.05-1.97,0.45-2.81,1.06c-1.06,0.77-1.39,1.8-1.05,3.07c0.29,1.09,0.88,2.02,1.56,2.89c1.69,2.15,3.54,4.15,5.66,5.89
	c1.46,1.2,2.98,2.31,4.5,3.42c0.44,0.32,0.66,0.65,0.74,1.19c0.21,1.55,0.22,3.06-0.43,4.52c-0.52,1.16-1.26,1.58-2.49,1.3
	c-0.42-0.1-0.83-0.25-1.24-0.41c-1.46-0.56-2.73-1.41-3.73-2.63c-0.52-0.64-1.21-0.88-1.99-0.9c-0.53-0.01-0.73,0.24-0.49,0.71
	c0.39,0.77,0.77,1.59,1.32,2.23c3.08,3.56,6.96,5.51,11.72,5.55c0.65,0.01,1.33-0.13,1.96-0.32c2.26-0.67,3.63-2.45,3.74-4.8
	C21,136.82,20.98,136.42,20.98,136.01z M11.52,127.74c-0.12-0.04-0.21-0.04-0.27-0.08c-1.81-1.41-3.57-2.88-4.96-4.72
	c-0.26-0.35-0.51-0.71-0.72-1.09c-0.29-0.53-0.02-1.33,0.54-1.75c0.68-0.5,0.93-0.48,1.55,0.16c0.16,0.17,0.32,0.34,0.47,0.52
	c1.63,1.95,2.63,4.21,3.39,6.6C11.55,127.48,11.52,127.6,11.52,127.74z"/>
<path class="st2" d="M88.3,120.96c1.32,0.02,2.06-0.67,2.14-1.8c0.08-1.04-0.56-1.84-1.63-2c-1.29-0.19-2.58-0.36-3.87-0.53
	c-3.24-0.45-6.49-0.89-9.73-1.34c-1.29-0.18-2.58-0.36-3.87-0.53c-1.04-0.14-1.92,0.5-2.1,1.51c-0.21,1.17,0.32,2.06,1.46,2.26
	c1.54,0.27,3.09,0.45,4.64,0.67c3.18,0.44,6.37,0.88,9.56,1.31C86.1,120.66,87.31,120.83,88.3,120.96z"/>
<path class="st2" d="M23.9,107.61c0.08,0.82,0.09,1.79,0.3,2.72c0.14,0.63,0.44,1.29,0.85,1.77c1.54,1.78,3.51,2.61,5.89,2.23
	c0.98-0.15,1.46-0.75,1.49-1.73c0.01-0.46-0.03-0.93-0.11-1.38c-0.14-0.8-0.34-1.59-0.5-2.38c-0.16-0.79-0.52-1.48-1.09-2.04
	c-1.34-1.34-2.96-2.01-4.86-1.89c-1.31,0.08-1.92,0.72-1.97,2.05C23.9,107.14,23.9,107.31,23.9,107.61z"/>
<path class="st0" d="M238.76,54.89c-8.36,0-16.57,0-24.89,0c0-9.33,0-18.62,0-27.96c-4.83,0-9.56,0-14.28,0
	c-0.19,0.59-0.26,73-0.08,74.3c0.65,0.19,13.19,0.22,14.32,0.02c0-10.79,0-21.61,0-32.48c8.32,0,16.55,0,24.89,0
	c0.08,2.67,0.02,5.36,0.03,8.05c0.01,2.73,0,5.46,0,8.18c0,2.7,0,5.4,0,8.1c0,2.7,0,5.39,0,8.07c0.67,0.23,13.46,0.27,14.4,0.05
	c0-24.73,0-49.47,0-74.28c-4.77,0-9.52,0-14.39,0c-0.03,2.3-0.01,4.61-0.01,6.92c0,2.35,0,4.7,0,7.05c0,2.32,0,4.64,0,6.97
	C238.76,50.19,238.76,52.5,238.76,54.89z"/>
<path class="st0" d="M51.94,52.15c0-2.08,0-3.93,0-5.77c-0.65-0.2-12.8-0.24-13.78-0.05c0,18.29,0,36.59,0,54.89
	c0.69,0.22,12.94,0.23,13.77,0.01c0-1.78,0-3.57,0-5.58c0.34,0.28,0.54,0.46,0.76,0.62c1.19,0.93,2.33,1.92,3.58,2.77
	c3.76,2.55,7.94,3.69,12.48,3.72c6.59,0.05,12.24-2.25,17.07-6.68c4.8-4.41,7.87-9.79,8.91-16.24c1.1-6.82,0.63-13.51-2.34-19.83
	c-3.01-6.4-7.74-11.1-14.4-13.67c-3.55-1.37-7.25-1.74-11.04-1.39c-5.44,0.5-10.08,2.73-14.08,6.38
	C52.61,51.54,52.36,51.77,51.94,52.15z M66.48,57.4c1.12,0.14,2.26,0.2,3.36,0.44c4.66,1.04,7.93,3.87,9.95,8.11
	c1.91,4.01,2.05,8.24,1.06,12.5c-1.49,6.43-7.58,13.02-17.18,11.42c-4.93-0.82-8.47-3.64-10.66-8.08c-1.84-3.72-2.1-7.69-1.42-11.72
	C52.86,62.49,58.82,57.47,66.48,57.4z"/>
<path class="st0" d="M128.76,77.66c14.75,0,29.48,0,44.31,0c-0.02,0.35-0.02,0.6-0.06,0.84c-1.31,6.44-6.03,10.88-12.56,11.8
	c-3.63,0.51-7.18,0.2-10.58-1.25c-1.91-0.82-3.62-1.95-5.17-3.34c-0.21-0.19-0.43-0.38-0.69-0.62c-3.85,1.81-7.7,3.63-11.65,5.48
	c0.19,0.29,0.34,0.53,0.5,0.75c4.39,5.94,10.18,9.64,17.5,10.85c5.33,0.89,10.63,0.85,15.88-0.55c10.08-2.68,17.85-11.04,19.75-21.3
	c1.15-6.18,0.86-12.3-1.61-18.12c-3.83-9.01-10.52-14.85-20.2-16.8c-6.88-1.38-13.68-0.76-20.03,2.4
	c-7.58,3.78-12.33,9.93-14.45,18.11c-0.96,3.71-1.18,7.5-1.02,11.31C128.67,77.35,128.71,77.46,128.76,77.66z M142.65,66.82
	c0.17-0.48,0.27-0.84,0.41-1.18c1.45-3.54,4.03-5.99,7.46-7.54c3.56-1.61,7.28-1.8,11.06-0.92c4.19,0.97,7.47,3.22,9.57,7.04
	c0.35,0.63,0.7,1.27,1.03,1.91c0.1,0.19,0.16,0.41,0.26,0.68C162.51,66.82,152.66,66.82,142.65,66.82z"/>
<path class="st0" d="M118.91,25c-4.6,0-9.15,0-13.76,0c0,25.45,0,50.85,0,76.32c4.59,0,9.14,0,13.67,0
	c0.04-0.04,0.07-0.06,0.08-0.08c0.02-0.02,0.04-0.04,0.04-0.07c0.02-0.11,0.05-0.23,0.05-0.34c0-25.17,0-50.33-0.01-75.5
	C118.99,25.24,118.95,25.16,118.91,25z"/>
<path class="st0" d="M46.49,16.42c0.25,0.3,0.39,0.47,0.54,0.64c5.76,6.17,11.53,12.34,17.29,18.52c0.43,0.46,0.86,0.67,1.5,0.66
	c2.67-0.04,5.34-0.01,8.01-0.01c0.28,0,0.57,0,0.98,0c-0.14-0.3-0.21-0.51-0.32-0.69c-3.77-6.19-7.55-12.38-11.32-18.58
	c-0.25-0.41-0.51-0.61-1.03-0.61c-4.99,0.02-9.99,0.01-14.98,0.01C47,16.36,46.83,16.39,46.49,16.42z"/>
<path class="st1" d="M66.48,57.4c-7.66,0.06-13.62,5.08-14.9,12.67c-0.68,4.04-0.41,8.01,1.42,11.72c2.19,4.44,5.73,7.26,10.66,8.08
	c9.59,1.59,15.68-5,17.18-11.42c0.99-4.26,0.85-8.5-1.06-12.5c-2.02-4.24-5.29-7.07-9.95-8.11C68.74,57.6,67.6,57.54,66.48,57.4z"/>
<path class="st1" d="M142.65,66.82c10.01,0,19.87,0,29.81,0c-0.11-0.28-0.16-0.49-0.26-0.68c-0.34-0.64-0.68-1.28-1.03-1.91
	c-2.11-3.82-5.38-6.07-9.57-7.04c-3.78-0.88-7.5-0.69-11.06,0.92c-3.43,1.55-6.01,4-7.46,7.54
	C142.92,65.99,142.81,66.34,142.65,66.82z"/>
<path class="st1" d="M644.86,115.1c0.25-0.34,0.47-0.65,0.71-0.94c1.04-1.24,1.35-2.73,1.52-4.27c0.03-0.32,0.06-0.64,0.12-0.95
	c0.27-1.49,0.14-2.98-0.4-4.37c-0.56-1.46-1.59-2.52-3.17-2.99c-3.4-1.01-6.36-0.07-9,2.08c-1.23,1-2.13,2.28-2.45,3.91
	c-0.22,1.17-0.54,2.31-0.77,3.48c-0.35,1.79-0.03,3.45,1.04,4.95c0.08,0.12,0.16,0.24,0.25,0.36c-0.08,0.41-0.3,0.58-0.72,0.58
	c-2.35-0.01-4.71,0-7.06-0.01c-0.2,0-0.39-0.07-0.59-0.12c-1.09-0.29-2.17-0.64-3.28-0.84c-0.67-0.12-1.4-0.09-2.07,0.03
	c-1.11,0.2-2.2,0.53-3.29,0.8c-0.25,0.06-0.51,0.13-0.76,0.13c-4.12,0.01-8.25,0.01-12.37,0c-0.11,0-0.23-0.02-0.4-0.03
	c-0.11-0.44-0.26-0.88-0.33-1.32c-0.33-1.88-1.51-3.14-3.11-3.95c-0.97-0.49-2.08-0.74-3.21-0.59c-2.16,0.28-4.32,0.55-6.48,0.84
	c-3.11,0.4-6.22,0.79-9.33,1.23c-1.43,0.2-2.87,0.41-4.09,1.33c-0.86,0.65-1.39,1.53-1.92,2.47c-9.21,0-18.41,0-27.67,0
	c-0.12-0.18-0.27-0.39-0.41-0.6c-1.84-2.72-4.38-4.35-7.57-5.15c-3.64-0.91-7.18-0.54-10.76,0.28c-4.73,1.08-9.17,2.89-13.41,5.22
	c-0.31,0.17-0.7,0.21-1.06,0.29c-0.11,0.03-0.23,0-0.35,0c-36.74,0-73.48,0-110.22,0c-1.25,0-2.49-0.05-3.7-0.44
	c-3.85-1.23-6.5-4.79-6.56-8.84c0-0.12,0-0.23,0-0.35c0-31.61,0-63.23,0.01-94.84c0-3.47,1.44-6.23,4.36-8.15
	c1.49-0.98,3.15-1.46,4.94-1.46c0.35,0,0.7,0,1.05,0c76.94,0,153.88,0,230.82,0c4.33,0,8.65-0.04,12.98-0.02
	c3.31,0.02,6.11,2.23,6.93,5.44c0.18,0.69,0.26,1.43,0.26,2.15c-0.03,20.29-0.09,40.58-0.13,60.87
	c-0.03,12.42-0.03,24.85-0.07,37.27c0,0.98-0.06,1.99-0.3,2.93c-0.78,3.05-3.5,5.21-6.64,5.38c-0.08,0-0.17-0.02-0.25-0.03
	C645.57,116.28,645.23,115.71,644.86,115.1z M428.73,54.89c0-2.39,0-4.7,0-7.02c0-2.32,0-4.64,0-6.97c0-2.35,0-4.7,0-7.05
	c0-2.31,0.01-4.62-0.01-6.92c-4.87,0-9.61,0-14.39,0c0,24.8,0,49.55,0,74.28c0.94,0.21,13.73,0.17,14.4-0.05c0-2.68,0-5.37,0-8.07
	c0-2.7,0-5.4,0-8.1c0-2.73-0.01-5.46,0-8.18c0.01-2.69-0.04-5.37,0.03-8.05c8.34,0,16.57,0,24.89,0c0,10.87,0,21.68,0,32.48
	c1.13,0.2,13.67,0.17,14.32-0.02c0.18-1.3,0.11-73.7-0.08-74.3c-4.72,0-9.45,0-14.28,0c0,9.34,0,18.64,0,27.96
	C445.3,54.89,437.08,54.89,428.73,54.89z M615.54,52.15c-0.42-0.38-0.67-0.6-0.92-0.83c-4-3.65-8.64-5.89-14.08-6.38
	c-3.79-0.34-7.49,0.02-11.04,1.39c-6.66,2.58-11.39,7.28-14.4,13.67c-2.97,6.32-3.44,13.01-2.34,19.83
	c1.04,6.45,4.11,11.83,8.91,16.24c4.82,4.43,10.47,6.73,17.07,6.68c4.53-0.03,8.72-1.17,12.48-3.72c1.24-0.84,2.39-1.84,3.58-2.77
	c0.21-0.16,0.41-0.34,0.76-0.62c0,2.01,0,3.8,0,5.58c0.83,0.22,13.07,0.2,13.77-0.01c0-18.29,0-36.59,0-54.89
	c-0.98-0.19-13.12-0.15-13.78,0.05C615.54,48.21,615.54,50.07,615.54,52.15z M538.73,77.66c0.04-0.2,0.08-0.31,0.09-0.42
	c0.16-3.82-0.06-7.6-1.02-11.31c-2.12-8.18-6.87-14.33-14.45-18.11c-6.35-3.16-13.15-3.78-20.03-2.4
	c-9.69,1.95-16.37,7.79-20.2,16.8c-2.47,5.82-2.76,11.94-1.61,18.12c1.9,10.26,9.67,18.62,19.75,21.3
	c5.25,1.4,10.55,1.43,15.88,0.55c7.32-1.22,13.11-4.91,17.5-10.85c0.17-0.22,0.31-0.46,0.5-0.75c-3.94-1.86-7.79-3.67-11.65-5.48
	c-0.27,0.24-0.48,0.43-0.69,0.62c-1.54,1.39-3.25,2.52-5.17,3.34c-3.4,1.45-6.94,1.76-10.58,1.25c-6.53-0.92-11.25-5.36-12.56-11.8
	c-0.05-0.24-0.04-0.49-0.06-0.84C509.25,77.66,523.98,77.66,538.73,77.66z M548.57,25c-0.04,0.16-0.08,0.24-0.08,0.33
	c0,25.17-0.01,50.33-0.01,75.5c0,0.11,0.03,0.23,0.05,0.34c0,0.03,0.03,0.05,0.04,0.07c0.02,0.02,0.04,0.04,0.08,0.08
	c4.53,0,9.08,0,13.67,0c0-25.46,0-50.87,0-76.32C557.73,25,553.17,25,548.57,25z M621,16.42c-0.34-0.03-0.51-0.06-0.68-0.06
	c-4.99,0-9.99,0.01-14.98-0.01c-0.51,0-0.77,0.2-1.03,0.61c-3.77,6.2-7.55,12.38-11.32,18.58c-0.11,0.18-0.18,0.39-0.32,0.69
	c0.41,0,0.69,0,0.98,0c2.67,0,5.34-0.02,8.01,0.01c0.64,0.01,1.07-0.2,1.5-0.66c5.75-6.18,11.52-12.35,17.29-18.52
	C620.61,16.89,620.75,16.72,621,16.42z"/>
<path class="st2" d="M347.51,118.44c0-13.57,0-27,0-40.42c-0.71-0.19-19.37-0.28-21.46-0.1c-0.09,2.67-0.03,5.36-0.04,8.04
	c-0.01,2.7,0,5.4,0,8.1s0,5.4,0,8.1s0,5.4,0,8.1c0,2.69,0,5.39,0,8.19c-0.65,0-1.22,0.01-1.79,0c-1.65-0.04-3.31-0.09-4.96-0.13
	c-4.47-0.11-8.94-0.15-13.41-0.36c-4.51-0.22-8.92-1.06-13.14-2.75c-5.89-2.35-9.36-6.76-10.88-12.79c-0.8-3.16-0.87-6.39-0.45-9.6
	c1.67-12.54,6.08-24.07,13.08-34.6c5.72-8.61,12.53-16.27,20.22-23.16c0.42-0.38,0.85-0.52,1.41-0.51
	c8.25,0.01,16.5,0.01,24.74,0.01c5.52,0,11.04,0.01,16.55-0.01c0.63,0,1.18,0.14,1.72,0.47c1.97,1.19,3.77,2.61,5.44,4.18
	c4.62,4.34,8.23,9.44,11.24,14.98c3.87,7.13,6.59,14.7,8.63,22.53c0.86,3.31,1.63,6.65,2.03,10.05c0.55,4.58,0.58,9.15-0.59,13.66
	c-1.84,7.12-6.21,12.07-12.93,14.96c-3.25,1.4-6.66,2.2-10.19,2.45c-2.37,0.17-4.75,0.23-7.13,0.34c-2.38,0.1-4.76,0.2-7.13,0.3
	C348.2,118.45,347.91,118.44,347.51,118.44z M337.26,43.31c-7.43-0.05-13.58,6.02-13.62,13.43c-0.04,7.69,6.05,13.54,13.24,13.71
	c7.5,0.19,13.82-5.74,13.91-13.38C350.88,49.45,344.86,43.36,337.26,43.31z"/>
<path class="st2" d="M337.93,24.62c-6.8,0-13.59-0.01-20.39,0.01c-0.62,0-1.1-0.16-1.58-0.55c-3.49-2.8-6.87-5.73-9.66-9.26
	c-0.91-1.15-1.67-2.44-2.43-3.7c-0.49-0.82-0.72-1.76-0.86-2.72c-0.41-2.82,1.17-4.69,2.84-5.58c1.96-1.04,4.07-1.28,6.25-1.09
	c2.11,0.18,4.07,0.88,6.04,1.59c1.74,0.62,3.51,1.2,5.3,1.66c2.02,0.52,3.99,0.17,5.8-0.86c1.01-0.57,1.98-1.22,2.93-1.87
	c1.25-0.86,2.55-1.62,4.04-1.99c1.62-0.41,3.25-0.35,4.78,0.3c1.52,0.64,2.99,1.41,4.46,2.15c0.97,0.48,1.94,0.88,3.02,1.06
	c1.51,0.25,2.95,0,4.36-0.5c1.09-0.39,2.16-0.85,3.23-1.29c2.71-1.11,5.48-1.23,8.26-0.36c3.99,1.24,5.9,4.78,4.83,8.82
	c-0.48,1.82-1.33,3.46-2.32,5.04c-2.04,3.24-4.56,6.07-7.27,8.76c-0.36,0.36-0.74,0.39-1.18,0.39
	C351.58,24.62,344.76,24.62,337.93,24.62z"/>
<path class="st2" d="M521.37,153.27c0.05,0.74,0.1,1.32,0.13,1.89c0.04,1.07,0.14,2.15,0.09,3.21c-0.06,1.47-0.79,2.58-2.1,3.29
	c-1.03,0.56-2.09,1.02-3.26,1.14c-0.48,0.05-0.99,0.03-1.46-0.1c-0.69-0.18-1.17-0.64-1.21-1.42c-0.08-1.88-0.2-3.77-0.2-5.65
	c0-1.65,0.13-3.3,0.2-4.96c0.02-0.37,0-0.74,0-1.09c-0.88,0.09-1.71,0.23-2.54,0.23c-0.56,0-1.16-0.14-1.68-0.35
	c-1.08-0.44-1.34-1.35-0.71-2.33c0.48-0.74,1.13-1.33,1.9-1.75c1.12-0.61,2.22-1.27,3.56-1.43c0.18-1.3,0.36-2.56,0.54-3.82
	c0.57-3.93,1.4-7.82,2.31-11.68c0.54-2.25,3.3-3.77,5.63-3.28c0.85,0.18,1.14,0.68,1.01,1.52c-0.54,3.44-1.09,6.87-1.58,10.32
	c-0.21,1.46-0.27,2.93-0.42,4.54c0.43-0.21,0.74-0.35,1.04-0.5c4.41-2.31,8.02-5.52,10.84-9.6c1.38-1.99,2.2-4.22,2.36-6.64
	c0.05-0.71-0.03-1.46-0.19-2.15c-0.47-1.97-1.98-3.07-4.19-3.08c-2.63-0.01-5.2,0.41-7.73,1.09c-3.38,0.9-6.58,2.24-9.7,3.81
	c-0.56,0.28-1.18,0.47-1.78,0.65c-0.24,0.07-0.52,0.06-0.78,0.02c-0.87-0.13-1.28-0.86-0.8-1.59c0.34-0.52,0.81-1.02,1.33-1.34
	c1.93-1.18,3.86-2.37,5.87-3.41c3.57-1.84,7.31-3.25,11.27-4.03c2.64-0.52,5.29-0.71,7.95-0.09c1.46,0.34,2.79,0.97,3.95,1.94
	c2.1,1.75,2.66,4.08,2.44,6.66c-0.33,3.76-1.93,7.02-4.15,10c-4.01,5.39-9.17,9.41-15.17,12.38c-0.65,0.32-1.3,0.63-2.07,0.99
	c0.3,0.15,0.52,0.28,0.74,0.38c5.05,2.07,9.98,4.38,14.86,6.81c0.16,0.08,0.31,0.16,0.47,0.23c1.44,0.64,1.34,1.78,0.76,2.63
	c-1.26,1.82-3.04,2.73-5.26,2.68c-0.43-0.01-0.88-0.26-1.29-0.47c-3.33-1.72-6.64-3.45-9.96-5.17
	C522.11,153.61,521.82,153.49,521.37,153.27z"/>
<path class="st2" d="M559.21,148.63c-0.21,0.36-0.32,0.55-0.43,0.74c-1.7,2.92-4.19,4.79-7.52,5.42c-3.03,0.57-5.22-0.78-6.16-3.51
	c-1.05-3.06-1.42-6.21-1.3-9.42c0.13-3.43,0.72-6.8,1.69-10.1c0.14-0.48,0.38-1.01,0.73-1.35c1.49-1.43,3.25-2.19,5.36-1.99
	c0.17,0.02,0.35,0.04,0.51,0.09c1.04,0.29,1.36,0.82,1.16,1.88c-0.19,1.03-0.41,2.05-0.56,3.08c-0.59,3.83-0.82,7.67-0.08,11.51
	c0.17,0.9,0.43,1.79,0.65,2.69c0.06,0.01,0.12,0.02,0.18,0.02c0.18-0.31,0.38-0.61,0.53-0.94c1.31-2.97,2.6-5.95,3.9-8.92
	c0.62-1.44,1.22-2.88,1.86-4.31c0.28-0.63,0.46-1.26,0.35-1.94c-0.3-1.84,0.58-3.06,2.05-3.98c1.02-0.64,2.13-1.04,3.33-1.2
	c0.34-0.05,0.7-0.05,1.04-0.01c1.34,0.15,1.98,0.84,1.95,2.19c-0.1,4.73-0.15,9.46-0.38,14.18c-0.25,4.99-0.84,9.95-2.07,14.8
	c-1.62,6.4-5.51,10.74-11.98,12.55c-1.4,0.39-2.84,0.58-4.3,0.27c-1.18-0.25-2.18-0.78-2.86-1.81c-0.41-0.62-0.42-1.05,0.13-1.55
	c1.11-1.01,2.38-1.66,3.95-1.4c2.24,0.37,3.99-0.37,5.26-2.24c0.98-1.44,1.52-3.07,1.82-4.76c0.37-2.05,0.61-4.13,0.88-6.2
	c0.14-1.03,0.21-2.08,0.31-3.12C559.22,149.17,559.21,149.01,559.21,148.63z"/>
<path class="st2" d="M629.64,160.52c0.8-0.58,1.23-1.33,1.61-2.12c0.69-1.45,1.06-3,1.36-4.57c0.5-2.71,0.79-5.45,0.9-8.21
	c0.18-4.47,0.26-8.94,0.51-13.4c0.15-2.7,0.15-5.39,0.21-8.09c0.03-1.15,0.24-2.31,0.52-3.42c0.55-2.21,2.15-3.38,4.26-3.89
	c2.15-0.53,3.27,0.25,3.58,2.45c0.08,0.54,0.07,1.1,0.06,1.65c-0.03,1.07-0.09,2.14-0.13,3.22c-0.18,6.44-0.32,12.88-0.56,19.32
	c-0.14,3.83-0.56,7.64-1.7,11.33c-0.81,2.6-1.93,5.06-3.82,7.05c-2.74,2.88-6.09,4.5-10.11,4.55c-2.44,0.03-3.99-1.32-4.41-3.72
	c-0.43-2.47-0.2-4.92,0.32-7.34c0.65-3.02,1.77-5.88,3.1-8.66c0.45-0.95,1.29-1.39,2.23-1.65c0.7-0.19,0.96,0.01,1.08,0.73
	c0.22,1.22,0.01,2.43-0.15,3.64c-0.21,1.64-0.5,3.27-0.71,4.91c-0.15,1.16-0.16,2.32,0.1,3.46
	C628.15,158.85,628.64,159.81,629.64,160.52z"/>
<path class="st2" d="M591.76,125.29c1.06-1.11,2.29-1.78,3.76-1.95c0.34-0.04,0.7-0.02,1.03,0.05c0.84,0.18,1.27,0.82,1.14,1.68
	c-0.29,1.86-0.6,3.72-0.89,5.58c-0.64,4.17-1,8.35-0.7,12.57c0.08,1.09,0.06,2.22-0.13,3.29c-0.4,2.17-1.91,3.39-3.93,3.99
	c-1.29,0.38-2.49-0.15-3.27-1.27c-0.58-0.83-0.83-1.78-0.92-2.77c-0.02-0.25-0.03-0.51-0.06-0.91c-0.23,0.24-0.39,0.38-0.52,0.55
	c-1.01,1.32-2.08,2.57-3.39,3.61c-1.29,1.02-2.7,1.8-4.33,2.13c-1.04,0.21-2.08,0.2-3.1-0.09c-1.4-0.4-2.36-1.32-2.93-2.65
	c-0.71-1.68-0.81-3.45-0.6-5.22c0.7-6.02,3.03-11.39,6.68-16.21c0.92-1.21,1.98-2.27,3.22-3.16c1.71-1.24,3.67-1.55,5.7-1.4
	C589.87,123.19,590.75,123.84,591.76,125.29z M581.35,143.32c0.04,0.44,0.09,1.05,0.16,1.65c0.05,0.4,0.11,0.92,0.56,0.97
	c0.29,0.03,0.67-0.27,0.92-0.52c2.74-2.72,4.6-5.96,5.46-9.74c0.57-2.51,0.55-5.01-0.44-7.44c-0.1-0.24-0.2-0.49-0.35-0.7
	c-0.24-0.34-0.51-0.37-0.79-0.07c-0.35,0.39-0.68,0.79-0.97,1.23C583.09,133.12,581.6,137.94,581.35,143.32z"/>
<path class="st2" d="M617.29,123.49c-1.62,1.75-2.85,3.54-3.87,5.47c-1.96,3.73-3.04,7.7-3.32,11.89c-0.07,1.04-0.12,2.09-0.11,3.13
	c0.01,0.71-0.2,1.32-0.65,1.84c-1.46,1.69-3.34,2.56-5.54,2.75c-0.23,0.02-0.46-0.03-0.69-0.07c-1.04-0.21-1.52-0.76-1.49-1.81
	c0.04-1.51,0.13-3.02,0.22-4.52c0.15-2.58,0.3-5.16,0.46-7.73c0.09-1.45,0.22-2.89,0.34-4.34c0.05-0.67,0.36-1.22,0.81-1.69
	c1.32-1.38,2.94-2.14,4.85-2.27c0.74-0.05,1.44,0.12,2.07,0.66c0.2-0.32,0.36-0.59,0.53-0.86c1.08-1.71,2.37-3.23,4.01-4.43
	c1.31-0.95,2.73-1.64,4.37-1.82c2.7-0.3,4.76,0.72,6.19,3.01c0.96,1.55,1.26,3.29,1.35,5.07c0.03,0.49,0.03,0.99-0.02,1.48
	c-0.24,2.23-0.15,4.46-0.01,6.7c0.1,1.71,0.07,3.42-0.25,5.12c-0.04,0.2-0.06,0.42-0.15,0.58c-0.95,1.61-2.17,2.93-4.03,3.53
	c-0.8,0.25-1.56,0.15-2.24-0.33c-1.5-1.05-1.59-0.67-1.64-2.74c-0.05-2.2-0.11-4.41-0.05-6.61c0.07-2.9,0.25-5.8,0.4-8.7
	c0.05-0.93-0.12-1.8-0.66-2.56C617.95,123.96,617.62,123.77,617.29,123.49z"/>
<path class="st2" d="M646.51,136.01c0.32-5.8,2.08-11.08,5.63-15.72c1.78-2.32,3.96-4.15,6.75-5.17c1.49-0.55,3.03-0.75,4.62-0.67
	c1.05,0.05,1.97,0.45,2.81,1.06c1.06,0.77,1.39,1.8,1.05,3.07c-0.29,1.09-0.88,2.02-1.56,2.89c-1.69,2.15-3.54,4.15-5.66,5.89
	c-1.46,1.2-2.98,2.31-4.5,3.42c-0.44,0.32-0.66,0.65-0.74,1.19c-0.21,1.55-0.22,3.06,0.43,4.52c0.52,1.16,1.26,1.58,2.49,1.3
	c0.42-0.1,0.83-0.25,1.24-0.41c1.46-0.56,2.73-1.41,3.73-2.63c0.52-0.64,1.21-0.88,1.99-0.9c0.53-0.01,0.73,0.24,0.49,0.71
	c-0.39,0.77-0.77,1.59-1.32,2.23c-3.08,3.56-6.96,5.51-11.72,5.55c-0.65,0.01-1.33-0.13-1.96-0.32c-2.26-0.67-3.63-2.45-3.74-4.8
	C646.49,136.82,646.51,136.42,646.51,136.01z M655.97,127.74c0.12-0.04,0.21-0.04,0.27-0.08c1.81-1.41,3.57-2.88,4.96-4.72
	c0.26-0.35,0.51-0.71,0.72-1.09c0.29-0.53,0.02-1.33-0.54-1.75c-0.68-0.5-0.93-0.48-1.55,0.16c-0.16,0.17-0.32,0.34-0.47,0.52
	c-1.63,1.95-2.63,4.21-3.39,6.6C655.94,127.48,655.97,127.6,655.97,127.74z"/>
<path class="st2" d="M336.95,27.07c6.71,0,13.41,0,20.12,0.01c0.43,0,0.88,0.04,1.28,0.17c1.01,0.34,1.6,1.29,1.54,2.37
	c-0.06,1.02-0.74,1.87-1.75,2.14c-0.33,0.09-0.69,0.12-1.03,0.12c-13.41,0.01-26.83,0.01-40.24,0c-0.34,0-0.7-0.03-1.03-0.11
	c-1.17-0.29-1.9-1.36-1.79-2.54c0.11-1.13,1.03-2.04,2.17-2.14c0.32-0.03,0.64-0.01,0.96-0.01
	C323.77,27.07,330.36,27.07,336.95,27.07z"/>
<path class="st2" d="M579.19,120.96c-1.32,0.02-2.06-0.67-2.14-1.8c-0.08-1.04,0.56-1.84,1.63-2c1.29-0.19,2.58-0.36,3.87-0.53
	c3.24-0.45,6.49-0.89,9.73-1.34c1.29-0.18,2.58-0.36,3.87-0.53c1.04-0.14,1.92,0.5,2.1,1.51c0.21,1.17-0.32,2.06-1.46,2.26
	c-1.54,0.27-3.09,0.45-4.64,0.67c-3.18,0.44-6.37,0.88-9.56,1.31C581.38,120.66,580.18,120.83,579.19,120.96z"/>
<path class="st2" d="M643.58,107.61c-0.08,0.82-0.09,1.79-0.3,2.72c-0.14,0.63-0.44,1.29-0.85,1.77c-1.54,1.78-3.51,2.61-5.89,2.23
	c-0.98-0.15-1.46-0.75-1.49-1.73c-0.01-0.46,0.03-0.93,0.11-1.38c0.14-0.8,0.34-1.59,0.5-2.38c0.16-0.79,0.52-1.48,1.09-2.04
	c1.34-1.34,2.96-2.01,4.86-1.89c1.31,0.08,1.92,0.72,1.97,2.05C643.59,107.14,643.58,107.31,643.58,107.61z"/>
<path class="st0" d="M428.73,54.89c8.36,0,16.57,0,24.89,0c0-9.33,0-18.62,0-27.96c4.83,0,9.56,0,14.28,0
	c0.19,0.59,0.26,73,0.08,74.3c-0.65,0.19-13.19,0.22-14.32,0.02c0-10.79,0-21.61,0-32.48c-8.32,0-16.55,0-24.89,0
	c-0.08,2.67-0.02,5.36-0.03,8.05c-0.01,2.73,0,5.46,0,8.18c0,2.7,0,5.4,0,8.1c0,2.7,0,5.39,0,8.07c-0.67,0.23-13.46,0.27-14.4,0.05
	c0-24.73,0-49.47,0-74.28c4.77,0,9.52,0,14.39,0c0.03,2.3,0.01,4.61,0.01,6.92c0,2.35,0,4.7,0,7.05c0,2.32,0,4.64,0,6.97
	C428.73,50.19,428.73,52.5,428.73,54.89z"/>
<path class="st0" d="M615.54,52.15c0-2.08,0-3.93,0-5.77c0.65-0.2,12.8-0.24,13.78-0.05c0,18.29,0,36.59,0,54.89
	c-0.69,0.22-12.94,0.23-13.77,0.01c0-1.78,0-3.57,0-5.58c-0.34,0.28-0.54,0.46-0.76,0.62c-1.19,0.93-2.33,1.92-3.58,2.77
	c-3.76,2.55-7.94,3.69-12.48,3.72c-6.59,0.05-12.24-2.25-17.07-6.68c-4.8-4.41-7.87-9.79-8.91-16.24
	c-1.1-6.82-0.63-13.51,2.34-19.83c3.01-6.4,7.74-11.1,14.4-13.67c3.55-1.37,7.25-1.74,11.04-1.39c5.44,0.5,10.08,2.73,14.08,6.38
	C614.88,51.54,615.13,51.77,615.54,52.15z M601,57.4c-1.12,0.14-2.26,0.2-3.36,0.44c-4.66,1.04-7.93,3.87-9.95,8.11
	c-1.91,4.01-2.05,8.24-1.06,12.5c1.49,6.43,7.58,13.02,17.18,11.42c4.93-0.82,8.47-3.64,10.66-8.08c1.84-3.72,2.1-7.69,1.42-11.72
	C614.63,62.49,608.67,57.47,601,57.4z"/>
<path class="st0" d="M538.73,77.66c-14.75,0-29.48,0-44.31,0c0.02,0.35,0.02,0.6,0.06,0.84c1.31,6.44,6.03,10.88,12.56,11.8
	c3.63,0.51,7.18,0.2,10.58-1.25c1.91-0.82,3.62-1.95,5.17-3.34c0.21-0.19,0.43-0.38,0.69-0.62c3.85,1.81,7.7,3.63,11.65,5.48
	c-0.19,0.29-0.34,0.53-0.5,0.75c-4.39,5.94-10.18,9.64-17.5,10.85c-5.33,0.89-10.63,0.85-15.88-0.55
	c-10.08-2.68-17.85-11.04-19.75-21.3c-1.15-6.18-0.86-12.3,1.61-18.12c3.83-9.01,10.52-14.85,20.2-16.8
	c6.88-1.38,13.68-0.76,20.03,2.4c7.58,3.78,12.33,9.93,14.45,18.11c0.96,3.71,1.18,7.5,1.02,11.31
	C538.81,77.35,538.77,77.46,538.73,77.66z M524.84,66.82c-0.17-0.48-0.27-0.84-0.41-1.18c-1.45-3.54-4.03-5.99-7.46-7.54
	c-3.56-1.61-7.28-1.8-11.06-0.92c-4.19,0.97-7.47,3.22-9.57,7.04c-0.35,0.63-0.7,1.27-1.03,1.91c-0.1,0.19-0.16,0.41-0.26,0.68
	C504.97,66.82,514.82,66.82,524.84,66.82z"/>
<path class="st0" d="M548.57,25c4.6,0,9.15,0,13.76,0c0,25.45,0,50.85,0,76.32c-4.59,0-9.14,0-13.67,0
	c-0.04-0.04-0.07-0.06-0.08-0.08c-0.02-0.02-0.04-0.04-0.04-0.07c-0.02-0.11-0.05-0.23-0.05-0.34c0-25.17,0-50.33,0.01-75.5
	C548.5,25.24,548.53,25.16,548.57,25z"/>
<path class="st0" d="M621,16.42c-0.25,0.3-0.39,0.47-0.54,0.64c-5.76,6.17-11.53,12.34-17.29,18.52c-0.43,0.46-0.86,0.67-1.5,0.66
	c-2.67-0.04-5.34-0.01-8.01-0.01c-0.28,0-0.57,0-0.98,0c0.14-0.3,0.21-0.51,0.32-0.69c3.77-6.19,7.55-12.38,11.32-18.58
	c0.25-0.41,0.51-0.61,1.03-0.61c4.99,0.02,9.99,0.01,14.98,0.01C620.49,16.36,620.66,16.39,621,16.42z"/>
<path class="st1" d="M601,57.4c7.66,0.06,13.62,5.08,14.9,12.67c0.68,4.04,0.41,8.01-1.42,11.72c-2.19,4.44-5.73,7.26-10.66,8.08
	c-9.59,1.59-15.68-5-17.18-11.42c-0.99-4.26-0.85-8.5,1.06-12.5c2.02-4.24,5.29-7.07,9.95-8.11C598.74,57.6,599.88,57.54,601,57.4z"
	/>
<path class="st1" d="M524.84,66.82c-10.01,0-19.87,0-29.81,0c0.11-0.28,0.16-0.49,0.26-0.68c0.34-0.64,0.68-1.28,1.03-1.91
	c2.11-3.82,5.38-6.07,9.57-7.04c3.78-0.88,7.5-0.69,11.06,0.92c3.43,1.55,6.01,4,7.46,7.54C524.57,65.99,524.67,66.34,524.84,66.82z
	"/>
</svg>
