<svg width="775" height="210" viewBox="0 0 775 210" fill="none" xmlns="http://www.w3.org/2000/svg">
<g clip-path="url(#clip0_16855_6941)">
<path d="M731.16 0H460.95C454.902 0 450 4.90248 450 10.95V119.63C450 125.678 454.902 130.58 460.95 130.58H731.16C737.208 130.58 742.11 125.678 742.11 119.63V10.95C742.11 4.90248 737.208 0 731.16 0Z" fill="#810019"/>
<path d="M615.511 84.77C615.675 83.3961 615.759 82.0137 615.761 80.63C615.757 72.6129 612.877 64.8634 607.644 58.7894C602.411 52.7155 595.173 48.7202 587.245 47.5295C579.317 46.3388 571.225 48.0316 564.439 52.3005C557.653 56.5694 552.623 63.131 550.264 70.7931C547.905 78.4553 548.373 86.7095 551.582 94.056C554.792 101.403 560.531 107.354 567.756 110.829C574.981 114.304 583.212 115.071 590.955 112.993C598.698 110.914 605.438 106.126 609.951 99.5L596.311 93.5C593.943 95.9603 590.958 97.7401 587.667 98.654C584.376 99.5678 580.901 99.5822 577.603 98.6957C574.305 97.8091 571.305 96.0541 568.916 93.6135C566.527 91.173 564.837 88.1363 564.021 84.82L615.511 84.77ZM582.561 61.12C586.325 61.1187 590.006 62.2307 593.139 64.3162C596.273 66.4016 598.719 69.3673 600.171 72.84H564.951C566.404 69.3681 568.851 66.4032 571.985 64.3179C575.118 62.2326 578.798 61.12 582.561 61.12Z" fill="white"/>
<path d="M535.7 27.8V110.8H518.73V74.34H491.56V110.8H474.59V27.8H491.56V59.44H518.73V27.8H535.7Z" fill="white"/>
<path d="M640.419 27.8H625.219V110.8H640.419V27.8Z" fill="white"/>
<path d="M700.991 49.72V56.48C698.438 53.5728 695.301 51.2365 691.784 49.6237C688.267 48.0109 684.45 47.1578 680.581 47.12C664.501 47.12 651.461 61.75 651.461 79.79C651.461 97.83 664.461 112.47 680.581 112.47C684.45 112.432 688.267 111.579 691.784 109.966C695.301 108.353 698.438 106.017 700.991 103.11V110.41H715.131V49.72H700.991ZM683.721 99.05C674.181 99.05 666.441 90.66 666.441 80.31C666.441 69.96 674.181 61.57 683.721 61.57C693.261 61.57 700.991 69.96 700.991 80.31C700.991 90.66 693.261 99.05 683.721 99.05Z" fill="white"/>
<path d="M674.16 38.34H686.08L706.03 16.33H687.92L674.16 38.34Z" fill="white"/>
<path d="M612.15 151.193C607.466 158.528 600.396 164.294 592.44 167.787C599.821 170.616 606.991 173.909 614.172 177.29C616.217 178.194 615.671 180.284 614.25 181.684C612.83 183.085 609.826 184.497 607.858 183.496C602.885 180.912 597.835 178.425 592.709 176.035C593.119 179.51 595.548 184.42 591.497 186.66C589.514 187.774 585.718 189.191 584.261 186.545C583.058 181.578 582.79 176.325 582.456 171.256C578.236 172.81 572.512 170.579 577.651 166.362C579.056 165.579 580.594 164.429 582.265 164.408C582.278 157.8 582.736 151.229 583.551 144.703C583.847 142.73 585.711 141.365 587.505 140.889C588.787 140.562 591.782 140.561 591.583 142.61C591.085 148.834 590.944 155.104 591.248 161.41C596.561 158.669 601.026 154.707 604.198 149.489C607.431 144.791 608.587 134.438 600.768 133.863C593.348 133.682 585.658 136.439 579.287 139.921C578.22 140.576 576.206 141.43 575.194 140.316C574.105 139.299 575.265 137.929 576.159 137.296C585.135 130.511 605.205 121.449 613.962 132.218C617.797 137.843 615.495 145.954 612.15 151.193ZM639.03 147.519C638.443 143.29 648.474 139.826 649.142 144.747C650.505 157.043 651.813 169.609 650.28 181.896C649.386 187.703 646.38 192.707 641.012 195.534C637.119 197.485 630.874 198.836 627.931 194.709C626.571 192.852 630.917 191.023 632.256 191.216C643.337 193.681 640.338 175.7 640.707 169.165C639.488 176.678 627.748 182.011 623.623 173.813C619.818 166.103 619.708 156.993 621.008 148.681C621.379 146.62 624.458 145.204 626.264 144.903C627.639 144.653 630.738 144.901 630.551 147.029C629.841 154.394 630.078 162.349 633.251 169.168C635.799 163.253 637.074 156.961 639.159 150.838C639.576 149.911 638.98 148.578 639.03 147.519ZM682.834 140.684C682.47 148.008 682.02 155.342 683.31 162.559C683.723 165.317 684.549 167.851 682.921 170.412C678.683 175.386 673.918 172.176 673.483 166.262C671.286 169.943 668.376 173.532 664.004 174.399C646.665 176.883 656.836 138.927 668.13 138.734C670.934 137.965 674.028 138.916 675.47 141.465C676.609 139.225 682.166 137.254 682.834 140.684ZM667.376 166.544C672.743 160.735 675.091 150.896 670.686 144.047C670.396 143.818 670.009 143.513 669.638 144.083C666.977 147.555 665.015 154.717 665.032 160.066C664.946 161.568 665.163 169.349 667.376 166.544ZM717.636 147.981C717.745 152.618 719.441 157.33 718.944 162.038C717.77 164.721 714.483 168.091 711.439 166.082C710.751 165.461 709.866 165.39 709.397 164.393C707.954 157.37 707.885 150.097 707.211 142.895C707.068 141.684 706.106 140.218 705.525 139.761C705.245 139.618 704.803 139.583 704.792 139.496C698.993 146.848 697.5 156.498 698.918 165.542C698.792 169.68 689.042 173.286 688.796 168.227C688.335 161.352 687.788 154.486 687.587 147.579C687.525 144.078 694.624 141.047 696.691 143.698C702.86 129.811 717.549 132.376 717.636 147.981ZM724.803 134.064C725.79 132.018 730.471 130.062 732.36 131.945C734.152 133.751 733.863 136.504 734.063 138.937C734.338 141.273 734.527 143.619 734.803 145.955C735.042 158.384 740.622 179.657 730.94 189.045C726.905 192.767 717.211 196.104 714.47 189.234C712.259 182.39 713.89 174.653 716.28 168.142C716.707 167.302 719.638 165.378 720.102 167.077C721.641 172.686 718.01 182.062 723.549 185.882C729.1 181.63 724.826 155.817 724.716 148.198C724.781 143.541 722.601 138.447 724.803 134.064ZM731.439 116.701C733.852 117.82 732.932 121.175 733.187 123.338C732.74 126.987 728.003 129.213 724.714 128.11C722.118 126.925 723.461 123.433 723.465 121.239C723.845 117.773 728.334 115.664 731.439 116.701ZM759.094 153.791C759.618 153.028 762.595 152.238 762 153.887C759.596 162.505 742.492 168.471 739.129 157.814C737.048 146.129 743.154 127.25 757.635 128.787C766.812 131.476 760.269 138.476 756.5 142.956C754.159 145.426 751.529 147.666 748.771 149.571C748.604 151.871 748.706 154.228 749.903 156.192C750.764 158.283 752.688 158.232 754.693 157.381C756.448 156.648 758.067 155.492 759.094 153.791ZM754.156 134.987C754.156 134.987 754.069 134.997 753.993 135.094C754.069 134.997 754.069 134.997 754.156 134.987ZM753.199 135.802C752.807 136.199 753.036 135.909 753.199 135.802V135.802ZM753.754 135.298C751.088 137.981 749.806 141.992 749.187 145.662C751.492 143.635 753.883 141.598 755.49 138.865C755.709 138.488 756.157 137.821 756.106 137.389C756.044 136.869 755.5 135.969 754.94 135.684C754.476 135.475 754.196 135.333 753.754 135.298Z" fill="#2D2D2D"/>
<path d="M612.15 151.193L612.993 151.731L612.993 151.731L612.15 151.193ZM592.44 167.787L592.038 166.872L589.81 167.85L592.083 168.721L592.44 167.787ZM614.172 177.29L613.746 178.194L613.757 178.2L613.768 178.204L614.172 177.29ZM607.858 183.496L607.397 184.383L607.405 184.387L607.858 183.496ZM592.709 176.035L593.132 175.129L591.506 174.371L591.716 176.152L592.709 176.035ZM591.497 186.66L591.013 185.784L591.006 185.788L591.497 186.66ZM584.261 186.545L583.289 186.78L583.32 186.91L583.385 187.027L584.261 186.545ZM582.456 171.256L583.454 171.19L583.366 169.855L582.111 170.317L582.456 171.256ZM577.651 166.362L577.165 165.488L577.086 165.532L577.017 165.589L577.651 166.362ZM582.265 164.408L582.277 165.408L583.263 165.395L583.265 164.41L582.265 164.408ZM583.551 144.703L582.562 144.554L582.56 144.567L582.559 144.579L583.551 144.703ZM587.505 140.889L587.257 139.92L587.248 139.923L587.505 140.889ZM591.583 142.61L590.588 142.513L590.587 142.522L590.587 142.53L591.583 142.61ZM591.248 161.41L590.249 161.458L590.324 163.012L591.706 162.299L591.248 161.41ZM604.198 149.489L603.374 148.922L603.358 148.945L603.343 148.969L604.198 149.489ZM600.768 133.863L600.842 132.866L600.817 132.864L600.793 132.863L600.768 133.863ZM579.287 139.921L578.808 139.044L578.786 139.055L578.765 139.068L579.287 139.921ZM575.194 140.316L575.934 139.643L575.907 139.613L575.877 139.585L575.194 140.316ZM576.159 137.296L576.737 138.111L576.75 138.102L576.762 138.093L576.159 137.296ZM613.962 132.218L614.789 131.655L614.765 131.62L614.738 131.587L613.962 132.218ZM611.307 150.655C606.739 157.808 599.829 163.451 592.038 166.872L592.843 168.703C600.963 165.138 608.194 159.247 612.993 151.731L611.307 150.655ZM592.083 168.721C599.426 171.535 606.568 174.815 613.746 178.194L614.598 176.385C607.415 173.003 600.215 169.696 592.798 166.854L592.083 168.721ZM613.768 178.204C614.132 178.365 614.308 178.545 614.397 178.688C614.485 178.829 614.529 179.003 614.513 179.229C614.478 179.717 614.153 180.376 613.548 180.972L614.953 182.396C615.768 181.592 616.426 180.505 616.508 179.373C616.55 178.788 616.437 178.182 616.096 177.633C615.757 177.086 615.235 176.666 614.577 176.375L613.768 178.204ZM613.548 180.972C612.95 181.563 611.974 182.188 610.935 182.545C609.875 182.908 608.947 182.928 608.312 182.604L607.405 184.387C608.737 185.065 610.295 184.879 611.584 184.437C612.894 183.987 614.131 183.207 614.953 182.396L613.548 180.972ZM608.319 182.608C603.333 180.018 598.271 177.524 593.132 175.129L592.287 176.941C597.4 179.325 602.437 181.806 607.397 184.383L608.319 182.608ZM591.716 176.152C591.826 177.086 592.071 178.109 592.287 179.066C592.51 180.053 592.709 180.998 592.779 181.889C592.849 182.777 592.781 183.537 592.526 184.168C592.281 184.774 591.836 185.329 591.013 185.784L591.98 187.535C593.183 186.87 593.954 185.972 594.38 184.918C594.796 183.89 594.855 182.785 594.773 181.732C594.691 180.681 594.459 179.607 594.238 178.626C594.01 177.616 593.797 176.721 593.702 175.918L591.716 176.152ZM591.006 185.788C590.069 186.315 588.757 186.879 587.565 187.019C586.388 187.158 585.587 186.88 585.137 186.062L583.385 187.027C584.392 188.856 586.217 189.192 587.799 189.006C589.364 188.821 590.941 188.119 591.987 187.531L591.006 185.788ZM585.232 186.309C584.055 181.445 583.79 176.29 583.454 171.19L581.459 171.321C581.79 176.359 582.061 181.711 583.289 186.78L585.232 186.309ZM582.111 170.317C581.191 170.656 580.178 170.791 579.256 170.741C578.319 170.691 577.564 170.456 577.104 170.145C576.681 169.859 576.582 169.58 576.629 169.277C576.693 168.863 577.069 168.133 578.286 167.135L577.017 165.589C575.663 166.699 574.828 167.83 574.652 168.972C574.459 170.225 575.091 171.198 575.983 171.802C576.84 172.381 577.986 172.676 579.149 172.739C580.326 172.802 581.612 172.632 582.802 172.194L582.111 170.317ZM578.138 167.235C578.949 166.784 579.542 166.379 580.309 165.992C581.021 165.633 581.663 165.416 582.277 165.408L582.252 163.408C581.196 163.421 580.233 163.79 579.408 164.207C578.636 164.596 577.759 165.157 577.165 165.488L578.138 167.235ZM583.265 164.41C583.278 157.847 583.732 151.316 584.543 144.827L582.559 144.579C581.739 151.141 581.278 157.754 581.265 164.406L583.265 164.41ZM584.54 144.851C584.752 143.436 586.164 142.28 587.761 141.856L587.248 139.923C585.259 140.45 582.941 142.024 582.562 144.554L584.54 144.851ZM587.752 141.858C588.27 141.726 589.17 141.661 589.863 141.83C590.205 141.913 590.399 142.029 590.49 142.124C590.548 142.184 590.611 142.274 590.588 142.513L592.579 142.706C592.655 141.921 592.418 141.243 591.93 140.736C591.476 140.265 590.878 140.018 590.336 139.886C589.261 139.625 588.022 139.725 587.257 139.92L587.752 141.858ZM590.587 142.53C590.085 148.793 589.943 155.106 590.249 161.458L592.246 161.362C591.945 155.103 592.085 148.876 592.58 142.69L590.587 142.53ZM591.706 162.299C597.169 159.481 601.777 155.397 605.052 150.008L603.343 148.969C600.275 154.018 595.953 157.858 590.789 160.522L591.706 162.299ZM605.021 150.056C606.766 147.521 607.929 143.528 607.624 140.043C607.47 138.286 606.936 136.574 605.825 135.245C604.693 133.892 603.038 133.027 600.842 132.866L600.695 134.86C602.408 134.986 603.541 135.631 604.29 136.528C605.06 137.449 605.501 138.726 605.631 140.217C605.895 143.226 604.863 146.759 603.374 148.922L605.021 150.056ZM600.793 132.863C593.128 132.676 585.259 135.518 578.808 139.044L579.767 140.799C586.058 137.36 593.568 134.687 600.744 134.863L600.793 132.863ZM578.765 139.068C578.285 139.363 577.627 139.678 577.02 139.802C576.39 139.931 576.087 139.811 575.934 139.643L574.454 140.989C575.314 141.934 576.523 141.945 577.42 141.761C578.34 141.573 579.222 141.134 579.81 140.774L578.765 139.068ZM575.877 139.585C575.763 139.479 575.756 139.417 575.754 139.397C575.75 139.355 575.755 139.259 575.833 139.098C575.999 138.754 576.37 138.372 576.737 138.111L575.581 136.48C575.054 136.853 574.398 137.473 574.033 138.227C573.845 138.614 573.709 139.091 573.766 139.612C573.824 140.154 574.081 140.645 574.512 141.047L575.877 139.585ZM576.762 138.093C581.163 134.767 588.302 130.875 595.38 129.146C602.503 127.405 609.185 127.929 613.186 132.849L614.738 131.587C609.982 125.738 602.251 125.408 594.905 127.203C587.515 129.008 580.131 133.04 575.556 136.498L576.762 138.093ZM613.136 132.781C614.867 135.32 615.25 138.474 614.76 141.7C614.27 144.926 612.917 148.133 611.307 150.655L612.993 151.731C614.728 149.014 616.199 145.546 616.737 142C617.276 138.455 616.892 134.741 614.789 131.655L613.136 132.781ZM639.03 147.519L640.029 147.567L640.033 147.474L640.021 147.382L639.03 147.519ZM649.142 144.747L650.136 144.637L650.135 144.625L650.133 144.613L649.142 144.747ZM650.28 181.896L651.268 182.048L651.271 182.034L651.272 182.02L650.28 181.896ZM641.012 195.534L641.46 196.428L641.469 196.424L641.477 196.419L641.012 195.534ZM627.931 194.709L628.745 194.128L628.738 194.118L627.931 194.709ZM632.256 191.216L632.473 190.24L632.436 190.232L632.399 190.226L632.256 191.216ZM640.707 169.165L641.706 169.221L639.72 169.005L640.707 169.165ZM623.623 173.813L622.726 174.255L622.73 174.262L623.623 173.813ZM621.008 148.681L620.024 148.504L620.022 148.515L620.02 148.527L621.008 148.681ZM626.264 144.903L626.429 145.889L626.436 145.888L626.443 145.887L626.264 144.903ZM630.551 147.029L631.546 147.125L631.547 147.117L630.551 147.029ZM633.251 169.168L632.344 169.589L633.286 171.614L634.169 169.563L633.251 169.168ZM639.159 150.838L638.247 150.427L638.227 150.471L638.212 150.516L639.159 150.838ZM640.021 147.382C639.935 146.761 640.221 146.05 640.965 145.328C641.701 144.613 642.775 144.009 643.911 143.657C645.059 143.302 646.144 143.242 646.916 143.469C647.289 143.579 647.563 143.747 647.754 143.955C647.94 144.158 648.092 144.448 648.151 144.882L650.133 144.613C650.025 143.816 649.717 143.137 649.229 142.604C648.746 142.077 648.131 141.741 647.48 141.55C646.201 141.174 644.689 141.322 643.32 141.747C641.938 142.174 640.573 142.921 639.572 143.892C638.58 144.855 637.832 146.163 638.04 147.657L640.021 147.382ZM648.148 144.857C649.513 157.168 650.804 169.62 649.288 181.772L651.272 182.02C652.822 169.598 651.498 156.918 650.136 144.637L648.148 144.857ZM649.292 181.744C648.437 187.295 645.587 191.995 640.546 194.649L641.477 196.419C647.174 193.42 650.335 188.112 651.268 182.048L649.292 181.744ZM640.564 194.64C638.706 195.571 636.317 196.34 634.088 196.401C631.871 196.461 629.957 195.828 628.745 194.128L627.117 195.29C628.848 197.717 631.528 198.471 634.142 198.4C636.745 198.329 639.424 197.448 641.46 196.428L640.564 194.64ZM628.738 194.118C628.67 194.026 628.671 193.983 628.671 193.98C628.671 193.97 628.671 193.926 628.72 193.836C628.836 193.627 629.123 193.341 629.605 193.046C630.066 192.763 630.612 192.528 631.113 192.377C631.65 192.215 632.001 192.19 632.113 192.206L632.399 190.226C631.842 190.146 631.147 190.277 630.535 190.462C629.888 190.657 629.182 190.959 628.559 191.342C627.956 191.711 627.329 192.219 626.97 192.869C626.782 193.209 626.655 193.611 626.672 194.056C626.69 194.507 626.852 194.928 627.124 195.3L628.738 194.118ZM632.039 192.192C635.093 192.872 637.378 192.156 638.946 190.394C640.433 188.724 641.141 186.256 641.489 183.7C641.841 181.115 641.845 178.265 641.789 175.692C641.732 173.072 641.616 170.803 641.706 169.221L639.709 169.109C639.613 170.794 639.734 173.224 639.789 175.736C639.845 178.295 639.837 181.012 639.508 183.43C639.174 185.879 638.532 187.852 637.452 189.064C636.455 190.185 634.959 190.793 632.473 190.24L632.039 192.192ZM639.72 169.005C639.182 172.32 636.265 175.28 632.928 176.435C631.281 177.006 629.613 177.105 628.162 176.648C626.734 176.198 625.433 175.185 624.516 173.363L622.73 174.262C623.876 176.539 625.589 177.934 627.561 178.555C629.509 179.169 631.626 179.003 633.582 178.325C637.452 176.985 641.013 173.522 641.694 169.325L639.72 169.005ZM624.52 173.37C620.846 165.926 620.711 157.055 621.996 148.836L620.02 148.527C618.706 156.931 618.791 166.281 622.726 174.255L624.52 173.37ZM621.992 148.858C622.102 148.251 622.662 147.582 623.627 146.98C624.558 146.4 625.655 146.018 626.429 145.889L626.1 143.916C625.067 144.088 623.722 144.565 622.569 145.283C621.45 145.98 620.286 147.05 620.024 148.504L621.992 148.858ZM626.443 145.887C626.998 145.786 627.947 145.788 628.687 146.026C629.052 146.143 629.283 146.291 629.409 146.432C629.508 146.542 629.577 146.682 629.555 146.941L631.547 147.117C631.618 146.312 631.37 145.623 630.898 145.096C630.452 144.599 629.858 144.302 629.299 144.122C628.193 143.767 626.905 143.77 626.086 143.919L626.443 145.887ZM629.555 146.933C628.839 154.362 629.059 162.53 632.344 169.589L634.158 168.746C631.096 162.167 630.842 154.425 631.546 147.125L629.555 146.933ZM634.169 169.563C635.469 166.547 636.438 163.447 637.338 160.361C638.244 157.258 639.072 154.194 640.105 151.16L638.212 150.516C637.16 153.605 636.309 156.748 635.418 159.801C634.523 162.87 633.581 165.873 632.332 168.772L634.169 169.563ZM640.07 151.248C640.413 150.486 640.309 149.647 640.22 149.074C640.112 148.382 640.01 147.962 640.029 147.567L638.031 147.472C638 148.136 638.17 148.911 638.244 149.382C638.336 149.972 638.321 150.263 638.247 150.427L640.07 151.248ZM682.834 140.684L683.833 140.733L683.839 140.612L683.816 140.493L682.834 140.684ZM683.31 162.559L684.299 162.41L684.297 162.397L684.294 162.383L683.31 162.559ZM682.921 170.412L683.682 171.061L683.727 171.007L683.765 170.949L682.921 170.412ZM673.483 166.262L674.481 166.189L674.248 163.03L672.625 165.75L673.483 166.262ZM664.004 174.399L664.146 175.389L664.173 175.385L664.199 175.38L664.004 174.399ZM668.13 138.734L668.147 139.734L668.273 139.732L668.394 139.699L668.13 138.734ZM675.47 141.465L674.599 141.957L675.516 143.579L676.361 141.918L675.47 141.465ZM667.376 166.544L666.641 165.866L666.615 165.894L666.591 165.925L667.376 166.544ZM670.686 144.047L671.527 143.506L671.437 143.366L671.306 143.262L670.686 144.047ZM669.638 144.083L670.432 144.691L670.455 144.661L670.476 144.629L669.638 144.083ZM665.032 160.066L666.031 160.123L666.032 160.093L666.032 160.063L665.032 160.066ZM681.835 140.634C681.473 147.926 681.011 155.384 682.326 162.735L684.294 162.383C683.028 155.3 683.467 148.089 683.833 140.733L681.835 140.634ZM682.321 162.707C682.545 164.199 682.83 165.371 682.882 166.601C682.93 167.754 682.754 168.811 682.077 169.876L683.765 170.949C684.716 169.452 684.941 167.962 684.88 166.518C684.823 165.151 684.489 163.676 684.299 162.41L682.321 162.707ZM682.16 169.764C681.191 170.901 680.255 171.496 679.44 171.734C678.64 171.967 677.898 171.875 677.236 171.532C675.875 170.827 674.683 168.938 674.481 166.189L672.486 166.336C672.719 169.5 674.126 172.173 676.316 173.308C677.429 173.885 678.7 174.033 680 173.654C681.283 173.279 682.532 172.41 683.682 171.061L682.16 169.764ZM672.625 165.75C670.448 169.396 667.732 172.64 663.81 173.418L664.199 175.38C669.02 174.424 672.124 170.49 674.342 166.775L672.625 165.75ZM663.862 173.409C661.869 173.695 660.371 173.388 659.247 172.726C658.12 172.062 657.264 170.979 656.672 169.524C655.47 166.574 655.433 162.283 656.311 157.761C657.184 153.265 658.931 148.702 661.124 145.277C662.221 143.564 663.407 142.17 664.62 141.207C665.834 140.245 667.021 139.753 668.147 139.734L668.113 137.735C666.414 137.764 664.814 138.501 663.377 139.641C661.94 140.781 660.614 142.364 659.44 144.198C657.092 147.866 655.262 152.673 654.348 157.38C653.439 162.06 653.404 166.805 654.819 170.279C655.535 172.036 656.641 173.512 658.233 174.449C659.827 175.388 661.805 175.724 664.146 175.389L663.862 173.409ZM668.394 139.699C670.849 139.025 673.428 139.885 674.599 141.957L676.34 140.973C674.629 137.946 671.018 136.905 667.865 137.77L668.394 139.699ZM676.361 141.918C676.536 141.574 676.939 141.149 677.549 140.756C678.145 140.372 678.855 140.071 679.537 139.926C680.234 139.778 680.801 139.811 681.179 139.967C681.494 140.098 681.748 140.338 681.853 140.875L683.816 140.493C683.586 139.314 682.895 138.514 681.945 138.12C681.057 137.752 680.039 137.774 679.12 137.97C678.187 138.169 677.253 138.567 676.465 139.075C675.692 139.574 674.973 140.236 674.578 141.012L676.361 141.918ZM668.11 167.223C673.683 161.191 676.253 150.854 671.527 143.506L669.845 144.588C673.93 150.939 671.803 160.279 666.641 165.866L668.11 167.223ZM671.306 143.262C671.215 143.19 670.846 142.87 670.377 142.783C670.093 142.729 669.771 142.755 669.459 142.916C669.166 143.067 668.955 143.3 668.8 143.537L670.476 144.629C670.507 144.581 670.483 144.638 670.376 144.693C670.321 144.722 670.256 144.743 670.185 144.753C670.115 144.762 670.054 144.757 670.008 144.748C669.926 144.733 669.892 144.705 669.922 144.724C669.951 144.742 669.987 144.769 670.067 144.832L671.306 143.262ZM668.844 143.475C667.405 145.352 666.206 148.146 665.369 151.098C664.528 154.063 664.023 157.284 664.032 160.069L666.032 160.063C666.024 157.499 666.492 154.465 667.293 151.644C668.097 148.809 669.21 146.286 670.432 144.691L668.844 143.475ZM664.034 160.009C663.988 160.82 664.021 163.222 664.358 165.097C664.443 165.572 664.552 166.038 664.694 166.449C664.829 166.842 665.025 167.274 665.328 167.604C665.668 167.973 666.209 168.265 666.872 168.105C667.42 167.972 667.841 167.57 668.161 167.164L666.591 165.925C666.358 166.22 666.288 166.188 666.401 166.161C666.481 166.142 666.584 166.144 666.682 166.181C666.769 166.213 666.805 166.256 666.8 166.249C666.773 166.221 666.688 166.095 666.584 165.797C666.488 165.517 666.401 165.16 666.326 164.743C666.023 163.054 665.991 160.813 666.031 160.123L664.034 160.009ZM717.636 147.981L716.636 147.987L716.636 147.996L716.637 148.004L717.636 147.981ZM718.944 162.038L719.86 162.439L719.922 162.297L719.939 162.143L718.944 162.038ZM711.439 166.082L710.768 166.824L710.824 166.875L710.888 166.917L711.439 166.082ZM709.397 164.393L708.417 164.594L708.441 164.711L708.492 164.818L709.397 164.393ZM707.211 142.895L708.207 142.802L708.206 142.79L708.204 142.778L707.211 142.895ZM705.525 139.761L706.145 138.975L706.067 138.914L705.979 138.869L705.525 139.761ZM704.792 139.496L705.785 139.379L705.503 136.981L704.007 138.877L704.792 139.496ZM698.918 165.542L699.917 165.572L699.92 165.479L699.906 165.387L698.918 165.542ZM688.796 168.227L689.794 168.179L689.794 168.17L689.793 168.161L688.796 168.227ZM687.587 147.579L686.587 147.597L686.588 147.608L687.587 147.579ZM696.691 143.698L695.903 144.313L696.928 145.628L697.605 144.104L696.691 143.698ZM716.637 148.004C716.693 150.41 717.162 152.842 717.53 155.141C717.904 157.479 718.183 159.721 717.95 161.933L719.939 162.143C720.202 159.647 719.882 157.178 719.505 154.825C719.122 152.431 718.688 150.189 718.636 147.958L716.637 148.004ZM718.028 161.637C717.502 162.839 716.495 164.192 715.326 164.995C714.185 165.779 713.059 165.953 711.989 165.247L710.888 166.917C712.862 168.22 714.902 167.714 716.459 166.644C717.988 165.593 719.212 163.92 719.86 162.439L718.028 161.637ZM712.109 165.34C711.67 164.943 711.079 164.659 710.851 164.522C710.575 164.356 710.42 164.218 710.302 163.968L708.492 164.818C708.843 165.565 709.364 165.961 709.82 166.236C710.324 166.539 710.52 166.6 710.768 166.824L712.109 165.34ZM710.377 164.192C708.948 157.237 708.892 150.119 708.207 142.802L706.215 142.988C706.879 150.074 706.961 157.502 708.417 164.594L710.377 164.192ZM708.204 142.778C708.111 141.986 707.766 141.183 707.399 140.546C707.038 139.92 706.577 139.316 706.145 138.975L704.906 140.546C705.054 140.663 705.364 141.021 705.666 141.544C705.961 142.057 706.168 142.593 706.218 143.012L708.204 142.778ZM705.979 138.869C705.835 138.796 705.693 138.747 705.586 138.715C705.478 138.682 705.37 138.655 705.305 138.638C705.268 138.629 705.244 138.623 705.225 138.617C705.205 138.612 705.208 138.612 705.222 138.617C705.227 138.619 705.299 138.645 705.388 138.707C705.435 138.74 705.515 138.802 705.593 138.903C705.674 139.009 705.761 139.169 705.785 139.379L703.799 139.613C703.851 140.053 704.15 140.282 704.242 140.346C704.359 140.427 704.47 140.471 704.521 140.49C704.63 140.531 704.752 140.561 704.811 140.576C704.892 140.597 704.948 140.611 705.003 140.628C705.057 140.645 705.076 140.654 705.072 140.652L705.979 138.869ZM704.007 138.877C697.991 146.503 696.481 156.458 697.93 165.697L699.906 165.387C698.518 156.538 699.995 147.192 705.577 140.116L704.007 138.877ZM697.918 165.511C697.899 166.159 697.486 166.922 696.649 167.675C695.83 168.411 694.721 169.025 693.6 169.38C692.458 169.742 691.445 169.791 690.772 169.573C690.453 169.469 690.235 169.315 690.089 169.124C689.943 168.935 689.817 168.644 689.794 168.179L687.797 168.276C687.836 169.076 688.068 169.778 688.503 170.344C688.938 170.909 689.523 171.27 690.155 171.475C691.383 171.874 692.861 171.712 694.204 171.287C695.567 170.855 696.934 170.108 697.986 169.162C699.021 168.233 699.874 166.994 699.917 165.572L697.918 165.511ZM689.793 168.161C689.332 161.268 688.787 154.432 688.587 147.55L686.588 147.608C686.789 154.54 687.339 161.436 687.798 168.294L689.793 168.161ZM688.587 147.562C688.578 147.036 688.839 146.429 689.422 145.807C690 145.191 690.823 144.639 691.733 144.251C692.645 143.862 693.577 143.665 694.352 143.693C695.132 143.721 695.63 143.964 695.903 144.313L697.48 143.083C696.718 142.106 695.554 141.734 694.423 141.694C693.288 141.654 692.062 141.937 690.948 142.412C689.832 142.888 688.764 143.585 687.963 144.439C687.169 145.287 686.566 146.372 686.587 147.597L688.587 147.562ZM697.605 144.104C700.572 137.425 705.411 135.023 709.256 135.762C713.078 136.497 716.595 140.473 716.636 147.987L718.636 147.976C718.591 139.884 714.72 134.776 709.633 133.798C704.569 132.825 698.979 136.085 695.777 143.292L697.605 144.104ZM724.803 134.064L725.697 134.513L725.7 134.506L725.704 134.499L724.803 134.064ZM732.36 131.945L733.07 131.24L733.066 131.236L732.36 131.945ZM734.063 138.937L733.066 139.019L733.067 139.037L733.07 139.054L734.063 138.937ZM734.803 145.955L735.803 145.936L735.802 145.887L735.796 145.838L734.803 145.955ZM730.94 189.045L731.618 189.78L731.627 189.772L731.636 189.763L730.94 189.045ZM714.47 189.234L713.519 189.542L713.529 189.574L713.541 189.605L714.47 189.234ZM716.28 168.142L715.388 167.689L715.361 167.742L715.341 167.798L716.28 168.142ZM720.102 167.077L719.137 167.341L719.137 167.342L720.102 167.077ZM723.549 185.882L722.981 186.705L723.58 187.118L724.157 186.676L723.549 185.882ZM724.716 148.198L723.716 148.184L723.716 148.199L723.716 148.213L724.716 148.198ZM731.439 116.701L731.859 115.794L731.809 115.771L731.756 115.753L731.439 116.701ZM733.187 123.338L734.179 123.459L734.194 123.34L734.18 123.221L733.187 123.338ZM724.714 128.11L724.299 129.019L724.347 129.041L724.396 129.058L724.714 128.11ZM723.465 121.239L722.471 121.13L722.465 121.183L722.465 121.237L723.465 121.239ZM725.704 134.499C725.853 134.19 726.19 133.801 726.723 133.414C727.243 133.035 727.887 132.704 728.559 132.48C729.235 132.255 729.895 132.153 730.453 132.191C731.008 132.23 731.4 132.399 731.654 132.653L733.066 131.236C732.376 130.549 731.474 130.257 730.59 130.196C729.708 130.136 728.781 130.298 727.927 130.582C727.07 130.868 726.24 131.292 725.546 131.797C724.865 132.292 724.247 132.916 723.902 133.63L725.704 134.499ZM731.65 132.649C732.334 133.338 732.658 134.236 732.819 135.349C732.9 135.907 732.937 136.495 732.966 137.118C732.994 137.726 733.014 138.387 733.066 139.019L735.059 138.855C735.011 138.271 734.993 137.676 734.964 137.026C734.934 136.392 734.894 135.723 734.798 135.062C734.607 133.739 734.179 132.358 733.07 131.24L731.65 132.649ZM733.07 139.054C733.206 140.212 733.321 141.373 733.438 142.545C733.554 143.714 733.671 144.894 733.81 146.073L735.796 145.838C735.66 144.681 735.544 143.52 735.428 142.347C735.312 141.178 735.195 139.999 735.056 138.82L733.07 139.054ZM733.803 145.975C733.864 149.134 734.263 152.843 734.667 156.715C735.073 160.608 735.486 164.689 735.592 168.667C735.806 176.694 734.752 183.956 730.244 188.327L731.636 189.763C736.81 184.746 737.807 176.677 737.591 168.614C737.483 164.547 737.061 160.393 736.656 156.508C736.249 152.602 735.862 148.991 735.803 145.936L733.803 145.975ZM730.262 188.31C728.387 190.04 725.142 191.709 722.086 192.121C720.568 192.325 719.172 192.21 718.034 191.711C716.923 191.224 715.989 190.344 715.399 188.864L713.541 189.605C714.321 191.56 715.627 192.839 717.231 193.542C718.807 194.233 720.6 194.339 722.353 194.103C725.838 193.633 729.458 191.773 731.618 189.78L730.262 188.31ZM715.422 188.927C713.316 182.409 714.851 174.937 717.218 168.487L715.341 167.798C712.929 174.368 711.202 182.371 713.519 189.542L715.422 188.927ZM717.171 168.596C717.164 168.61 717.185 168.567 717.276 168.471C717.359 168.383 717.473 168.277 717.614 168.165C717.899 167.939 718.248 167.72 718.582 167.572C718.942 167.412 719.162 167.39 719.239 167.4C719.257 167.402 719.217 167.4 719.168 167.357C719.117 167.313 719.121 167.284 719.137 167.341L721.066 166.814C720.966 166.446 720.777 166.105 720.476 165.844C720.176 165.585 719.828 165.46 719.499 165.417C718.882 165.336 718.256 165.529 717.772 165.743C717.262 165.969 716.769 166.282 716.369 166.6C716.002 166.892 715.596 167.28 715.388 167.689L717.171 168.596ZM719.137 167.342C719.482 168.597 719.548 170.114 719.511 171.823C719.492 172.671 719.45 173.543 719.409 174.439C719.369 175.33 719.331 176.242 719.325 177.144C719.302 180.678 719.753 184.479 722.981 186.705L724.117 185.059C721.806 183.465 721.302 180.668 721.325 177.157C721.331 176.297 721.367 175.42 721.407 174.53C721.447 173.646 721.491 172.744 721.51 171.866C721.548 170.12 721.491 168.361 721.066 166.813L719.137 167.342ZM724.157 186.676C725.062 185.983 725.689 184.916 726.136 183.7C726.587 182.472 726.887 181.002 727.081 179.392C727.47 176.17 727.449 172.24 727.254 168.254C727.059 164.261 726.686 160.167 726.356 156.611C726.025 153.03 725.743 150.039 725.716 148.184L723.716 148.213C723.745 150.167 724.038 153.26 724.365 156.795C724.695 160.355 725.064 164.408 725.257 168.352C725.45 172.303 725.464 176.1 725.096 179.152C724.912 180.678 724.636 181.982 724.259 183.01C723.877 184.049 723.423 184.719 722.941 185.088L724.157 186.676ZM725.716 148.212C725.733 146.973 725.601 145.723 725.439 144.509C725.272 143.266 725.082 142.109 724.952 140.92C724.696 138.569 724.728 136.44 725.697 134.513L723.909 133.615C722.675 136.072 722.696 138.681 722.964 141.137C723.096 142.351 723.301 143.615 723.456 144.774C723.615 145.962 723.732 147.095 723.716 148.184L725.716 148.212ZM731.018 117.609C731.727 117.938 732.032 118.581 732.125 119.711C732.172 120.274 732.158 120.875 732.146 121.526C732.133 122.148 732.12 122.834 732.194 123.455L734.18 123.221C734.126 122.76 734.132 122.216 734.145 121.566C734.158 120.944 734.175 120.231 734.119 119.545C734.005 118.177 733.563 116.584 731.859 115.794L731.018 117.609ZM732.194 123.216C732.022 124.622 731.006 125.85 729.548 126.622C728.087 127.396 726.366 127.609 725.032 127.162L724.396 129.058C726.351 129.714 728.643 129.365 730.484 128.39C732.329 127.412 733.905 125.702 734.179 123.459L732.194 123.216ZM725.13 127.2C724.703 127.005 724.475 126.743 724.334 126.432C724.18 126.091 724.109 125.64 724.114 125.062C724.12 124.485 724.198 123.865 724.285 123.202C724.368 122.569 724.464 121.868 724.465 121.241L722.465 121.237C722.464 121.707 722.391 122.265 722.302 122.941C722.217 123.587 722.121 124.325 722.115 125.044C722.108 125.761 722.188 126.542 722.512 127.257C722.85 128.003 723.428 128.622 724.299 129.019L725.13 127.2ZM724.459 121.348C724.603 120.039 725.538 118.891 726.901 118.164C728.268 117.435 729.88 117.235 731.122 117.65L731.756 115.753C729.892 115.131 727.708 115.467 725.96 116.399C724.207 117.334 722.708 118.973 722.471 121.13L724.459 121.348ZM759.094 153.791L758.269 153.226L758.253 153.249L758.238 153.274L759.094 153.791ZM762 153.887L761.06 153.548L761.047 153.583L761.037 153.618L762 153.887ZM739.129 157.814L738.144 157.989L738.156 158.053L738.175 158.115L739.129 157.814ZM757.635 128.787L757.916 127.827L757.83 127.802L757.74 127.792L757.635 128.787ZM756.5 142.956L757.225 143.644L757.246 143.623L757.265 143.6L756.5 142.956ZM748.771 149.571L748.203 148.748L747.808 149.02L747.773 149.498L748.771 149.571ZM749.903 156.192L750.828 155.811L750.798 155.739L750.757 155.671L749.903 156.192ZM754.693 157.381L754.307 156.458L754.302 156.46L754.693 157.381ZM753.754 135.298L753.833 134.301L753.371 134.264L753.044 134.593L753.754 135.298ZM749.187 145.662L748.201 145.495L747.732 148.272L749.847 146.413L749.187 145.662ZM755.49 138.865L756.352 139.372L756.355 139.367L755.49 138.865ZM754.94 135.684L755.393 134.793L755.372 134.782L755.35 134.772L754.94 135.684ZM759.919 154.357C759.891 154.397 759.89 154.382 759.968 154.327C760.037 154.279 760.137 154.221 760.266 154.163C760.527 154.045 760.83 153.957 761.084 153.927C761.21 153.913 761.297 153.915 761.347 153.922C761.402 153.929 761.363 153.935 761.288 153.882C761.19 153.811 761.109 153.692 761.085 153.564C761.066 153.465 761.097 153.444 761.06 153.548L762.941 154.226C763.052 153.918 763.12 153.561 763.05 153.192C762.975 152.794 762.755 152.472 762.453 152.256C761.931 151.882 761.272 151.891 760.85 151.941C760.368 151.998 759.866 152.148 759.44 152.341C759.055 152.516 758.56 152.802 758.269 153.226L759.919 154.357ZM761.037 153.618C760.508 155.513 759.145 157.338 757.258 158.856C755.378 160.368 753.042 161.524 750.684 162.108C748.318 162.693 746.008 162.685 744.139 161.973C742.309 161.277 740.831 159.884 740.083 157.513L738.175 158.115C739.108 161.072 741.029 162.93 743.427 163.843C745.786 164.74 748.533 164.7 751.164 164.049C753.803 163.396 756.404 162.11 758.512 160.414C760.614 158.722 762.29 156.57 762.963 154.156L761.037 153.618ZM740.113 157.639C739.111 152.01 740.085 144.592 743.061 138.799C746.026 133.028 750.846 129.072 757.529 129.781L757.74 127.792C749.943 126.965 744.47 131.68 741.282 137.885C738.105 144.069 737.066 151.933 738.144 157.989L740.113 157.639ZM757.354 129.746C759.532 130.385 760.552 131.217 760.987 131.994C761.409 132.747 761.409 133.683 760.982 134.859C760.554 136.041 759.741 137.325 758.759 138.629C757.78 139.929 756.693 141.173 755.734 142.313L757.265 143.6C758.191 142.5 759.335 141.189 760.357 139.832C761.376 138.479 762.331 137.005 762.862 135.541C763.396 134.07 763.546 132.472 762.732 131.017C761.93 129.585 760.326 128.533 757.916 127.827L757.354 129.746ZM755.774 142.269C753.482 144.687 750.905 146.882 748.203 148.748L749.339 150.393C752.153 148.45 754.836 146.165 757.225 143.644L755.774 142.269ZM747.773 149.498C747.603 151.844 747.682 154.469 749.049 156.712L750.757 155.671C749.73 153.986 749.604 151.898 749.768 149.643L747.773 149.498ZM748.978 156.572C749.529 157.911 750.495 158.671 751.702 158.876C752.818 159.065 754.011 158.756 755.083 158.302L754.302 156.46C753.369 156.856 752.598 156.999 752.036 156.904C751.564 156.824 751.138 156.564 750.828 155.811L748.978 156.572ZM755.078 158.304C756.969 157.514 758.783 156.24 759.95 154.309L758.238 153.274C757.35 154.744 755.928 155.781 754.307 156.458L755.078 158.304ZM754.156 134.987C754.038 133.994 754.038 133.994 754.037 133.994C754.037 133.994 754.037 133.994 754.036 133.994C754.036 133.994 754.035 133.994 754.034 133.994C754.033 133.995 754.032 133.995 754.031 133.995C754.028 133.995 754.025 133.996 754.022 133.996C754.017 133.997 754.011 133.997 754.005 133.998C753.994 134 753.982 134.002 753.969 134.004C753.943 134.009 753.915 134.015 753.884 134.024C753.824 134.04 753.753 134.063 753.678 134.099C753.523 134.172 753.353 134.291 753.208 134.475L754.778 135.713C754.709 135.801 754.621 135.866 754.528 135.909C754.483 135.93 754.439 135.946 754.397 135.957C754.376 135.962 754.355 135.967 754.335 135.971C754.324 135.973 754.314 135.974 754.304 135.976C754.299 135.977 754.293 135.977 754.288 135.978C754.286 135.978 754.283 135.979 754.281 135.979C754.279 135.979 754.278 135.979 754.277 135.98C754.276 135.98 754.275 135.98 754.275 135.98C754.274 135.98 754.274 135.98 754.274 135.98C754.273 135.98 754.273 135.98 754.156 134.987ZM754.778 135.713C754.804 135.681 754.799 135.687 754.79 135.698C754.778 135.71 754.719 135.778 754.619 135.844C754.503 135.92 754.393 135.955 754.32 135.971C754.273 135.981 754.233 135.985 754.273 135.98L754.038 133.994C754.035 133.994 753.962 134.002 753.889 134.018C753.789 134.04 753.658 134.083 753.521 134.172C753.401 134.251 753.322 134.338 753.287 134.378C753.253 134.416 753.22 134.459 753.208 134.475L754.778 135.713ZM752.487 135.099C752.391 135.197 752.355 135.229 752.356 135.229C752.356 135.228 752.372 135.215 752.397 135.196C752.409 135.187 752.437 135.167 752.476 135.143C752.483 135.139 752.616 135.054 752.809 135.02C752.898 135.004 753.191 134.962 753.498 135.147C753.875 135.374 753.972 135.744 753.982 135.959C753.99 136.144 753.944 136.284 753.927 136.332C753.905 136.395 753.881 136.443 753.868 136.468C753.841 136.52 753.815 136.557 753.805 136.571C753.793 136.589 753.782 136.602 753.776 136.61C753.75 136.643 753.771 136.622 753.748 136.638L752.65 134.966C752.464 135.088 752.289 135.266 752.206 135.371C752.199 135.38 752.147 135.445 752.1 135.534C752.085 135.561 752.061 135.609 752.039 135.673C752.022 135.722 751.975 135.863 751.984 136.049C751.994 136.264 752.091 136.635 752.468 136.861C752.776 137.046 753.069 137.005 753.159 136.989C753.353 136.954 753.489 136.868 753.498 136.862C753.54 136.837 753.572 136.814 753.588 136.802C753.622 136.777 753.65 136.753 753.666 136.74C753.729 136.685 753.811 136.605 753.911 136.504L752.487 135.099ZM753.044 134.593C750.158 137.498 748.831 141.76 748.201 145.495L750.173 145.828C750.781 142.223 752.017 138.464 754.463 136.002L753.044 134.593ZM749.847 146.413C752.12 144.414 754.648 142.271 756.352 139.372L754.628 138.358C753.118 140.926 750.864 142.856 748.526 144.911L749.847 146.413ZM756.355 139.367C756.435 139.23 756.643 138.898 756.795 138.592C756.929 138.323 757.162 137.809 757.099 137.271L755.113 137.506C755.103 137.427 755.121 137.404 755.103 137.465C755.087 137.519 755.056 137.598 755.003 137.703C754.89 137.933 754.765 138.123 754.626 138.363L756.355 139.367ZM757.099 137.271C757.043 136.796 756.802 136.291 756.546 135.899C756.289 135.508 755.896 135.048 755.393 134.793L754.486 136.575C754.544 136.605 754.703 136.737 754.874 136.997C754.95 137.114 755.012 137.231 755.055 137.333C755.077 137.383 755.092 137.426 755.101 137.458C755.111 137.492 755.113 137.507 755.113 137.506L757.099 137.271ZM755.35 134.772C754.931 134.583 754.483 134.353 753.833 134.301L753.674 136.294C753.91 136.313 754.022 136.367 754.529 136.596L755.35 134.772Z" fill="white"/>
<rect x="654.116" y="128.036" width="25.5019" height="5.81292" rx="2.90646" transform="rotate(-9.4872 654.116 128.036)" fill="#2D2D2D" stroke="white" stroke-width="2"/>
</g>
<g clip-path="url(#clip1_16855_6941)">
<path d="M35.1486 0H305.359C311.406 0 316.309 4.90248 316.309 10.95V119.63C316.309 125.678 311.406 130.58 305.359 130.58H35.1486C29.1011 130.58 24.1986 125.678 24.1986 119.63V10.95C24.1986 4.90248 29.1011 0 35.1486 0Z" fill="#810019"/>
<path d="M158.797 84.77C158.633 83.3961 158.55 82.0137 158.547 80.63C158.552 72.6129 161.432 64.8634 166.664 58.7894C171.897 52.7155 179.135 48.7202 187.063 47.5295C194.992 46.3388 203.084 48.0316 209.87 52.3005C216.656 56.5694 221.685 63.131 224.045 70.7931C226.404 78.4553 225.936 86.7095 222.726 94.056C219.516 101.403 213.778 107.354 206.553 110.829C199.328 114.304 191.096 115.071 183.353 112.993C175.611 110.914 168.87 106.126 164.357 99.5L177.997 93.5C180.366 95.9603 183.351 97.7401 186.642 98.654C189.932 99.5678 193.408 99.5822 196.706 98.6957C200.004 97.8091 203.003 96.0541 205.392 93.6135C207.781 91.173 209.472 88.1363 210.287 84.82L158.797 84.77ZM191.747 61.12C187.983 61.1187 184.303 62.2307 181.169 64.3162C178.036 66.4016 175.589 69.3673 174.137 72.84H209.357C207.904 69.3681 205.457 66.4032 202.324 64.3179C199.191 62.2326 195.511 61.12 191.747 61.12Z" fill="white"/>
<path d="M238.609 27.8V110.8H255.579V74.34H282.749V110.8H299.719V27.8H282.749V59.44H255.579V27.8H238.609Z" fill="white"/>
<path d="M133.89 27.8H149.09V110.8H133.89V27.8Z" fill="white"/>
<path d="M73.3176 49.72V56.48C75.8706 53.5728 79.0078 51.2365 82.5246 49.6237C86.0414 48.0109 89.8588 47.1578 93.7276 47.12C109.808 47.12 122.848 61.75 122.848 79.79C122.848 97.83 109.848 112.47 93.7276 112.47C89.8588 112.432 86.0414 111.579 82.5246 109.966C79.0078 108.353 75.8706 106.017 73.3176 103.11V110.41H59.1777V49.72H73.3176ZM90.5877 99.05C100.128 99.05 107.868 90.66 107.868 80.31C107.868 69.96 100.128 61.57 90.5877 61.57C81.0477 61.57 73.3176 69.96 73.3176 80.31C73.3176 90.66 81.0477 99.05 90.5877 99.05Z" fill="white"/>
<path d="M100.148 38.34H88.2284L68.2784 16.33H86.3884L100.148 38.34Z" fill="white"/>
<path d="M162.159 151.193C166.842 158.528 173.913 164.294 181.868 167.787C174.488 170.616 167.317 173.909 160.136 177.29C158.092 178.194 158.638 180.284 160.058 181.684C161.478 183.085 164.483 184.497 166.45 183.496C171.423 180.912 176.473 178.425 181.6 176.035C181.189 179.51 178.76 184.42 182.812 186.66C184.794 187.774 188.591 189.191 190.048 186.545C191.251 181.578 191.518 176.325 191.852 171.256C196.073 172.81 201.797 170.579 196.657 166.362C195.252 165.579 193.715 164.429 192.044 164.408C192.031 157.8 191.573 151.229 190.758 144.703C190.462 142.73 188.597 141.365 186.804 140.889C185.521 140.562 182.527 140.561 182.725 142.61C183.224 148.834 183.365 155.104 183.061 161.41C177.747 158.669 173.283 154.707 170.111 149.489C166.878 144.791 165.721 134.438 173.54 133.863C180.96 133.682 188.65 136.439 195.021 139.921C196.089 140.576 198.102 141.43 199.114 140.316C200.203 139.299 199.044 137.929 198.15 137.296C189.173 130.511 169.104 121.449 160.346 132.218C156.512 137.843 158.814 145.954 162.159 151.193ZM135.278 147.519C135.865 143.29 125.835 139.826 125.166 144.747C123.803 157.043 122.496 169.609 124.029 181.896C124.922 187.703 127.928 192.707 133.297 195.534C137.19 197.485 143.434 198.836 146.378 194.709C147.737 192.852 143.391 191.023 142.053 191.216C130.972 193.681 133.971 175.7 133.601 169.165C134.82 176.678 146.56 182.011 150.686 173.813C154.49 166.103 154.6 156.993 153.3 148.681C152.93 146.62 149.851 145.204 148.044 144.903C146.67 144.653 143.57 144.901 143.758 147.029C144.468 154.394 144.231 162.349 141.058 169.168C138.51 163.253 137.235 156.961 135.15 150.838C134.733 149.911 135.329 148.578 135.278 147.519ZM91.4745 140.684C91.8383 148.008 92.2887 155.342 90.9985 162.559C90.5853 165.317 89.7599 167.851 91.3877 170.412C95.6256 175.386 100.391 172.176 100.825 166.262C103.023 169.943 105.933 173.532 110.304 174.399C127.644 176.883 117.473 138.927 106.179 138.734C103.375 137.965 100.28 138.916 98.8389 141.465C97.6996 139.225 92.1424 137.254 91.4745 140.684ZM106.933 166.544C101.565 160.735 99.2173 150.896 103.622 144.047C103.912 143.818 104.299 143.513 104.671 144.083C107.331 147.555 109.293 154.717 109.276 160.066C109.362 161.568 109.146 169.349 106.933 166.544ZM56.6722 147.981C56.5637 152.618 54.8672 157.33 55.3643 162.038C56.5391 164.721 59.8258 168.091 62.8701 166.082C63.5574 165.461 64.443 165.39 64.9116 164.393C66.3544 157.37 66.4231 150.097 67.0975 142.895C67.2404 141.684 68.2029 140.218 68.7833 139.761C69.0632 139.618 69.5061 139.583 69.5163 139.496C75.3158 146.848 76.8088 156.498 75.3907 165.542C75.5165 169.68 85.2669 173.286 85.513 168.227C85.9735 161.352 86.5205 154.486 86.7214 147.579C86.7837 144.078 79.6847 141.047 77.6174 143.698C71.4486 129.811 56.7591 132.376 56.6722 147.981ZM49.5056 134.064C48.519 132.018 43.8372 130.062 41.9483 131.945C40.1561 133.751 40.4453 136.504 40.2459 138.937C39.9703 141.273 39.7811 143.619 39.5055 145.955C39.267 158.384 33.6864 179.657 43.3686 189.045C47.4034 192.767 57.0979 196.104 59.8385 189.234C62.0498 182.39 60.4188 174.653 58.0289 168.142C57.6017 167.302 54.6708 165.378 54.207 167.077C52.668 172.686 56.2987 182.062 50.7598 185.882C45.2086 181.63 49.4827 155.817 49.5923 148.198C49.5278 143.541 51.7079 138.447 49.5056 134.064ZM42.8698 116.701C40.4569 117.82 41.377 121.175 41.1217 123.338C41.5683 126.987 46.306 129.213 49.5942 128.11C52.1904 126.925 50.8479 123.433 50.8436 121.239C50.4631 117.773 45.9748 115.664 42.8698 116.701ZM15.2146 153.791C14.6906 153.028 11.7135 152.238 12.3084 153.887C14.7127 162.505 31.8168 168.471 35.1797 157.814C37.2603 146.129 31.1544 127.25 16.6739 128.787C7.49639 131.476 14.0392 138.476 17.809 142.956C20.1493 145.426 22.7799 147.666 25.5378 149.571C25.7049 151.871 25.6023 154.228 24.4056 156.192C23.5447 158.283 21.6208 158.232 19.6158 157.381C17.8602 156.648 16.2421 155.492 15.2146 153.791ZM20.153 134.987C20.153 134.987 20.2395 134.997 20.3158 135.094C20.2395 134.997 20.2395 134.997 20.153 134.987ZM21.1096 135.802C21.5013 136.199 21.2724 135.909 21.1096 135.802V135.802ZM20.555 135.298C23.221 137.981 24.5022 141.992 25.1218 145.662C22.8169 143.635 20.4255 141.598 18.8182 138.865C18.5994 138.488 18.1518 137.821 18.2028 137.389C18.2641 136.869 18.809 135.969 19.369 135.684C19.8322 135.475 20.1122 135.333 20.555 135.298Z" fill="#2D2D2D"/>
<path d="M162.159 151.193L161.316 151.731L161.316 151.731L162.159 151.193ZM181.868 167.787L182.27 166.872L184.499 167.85L182.226 168.721L181.868 167.787ZM160.136 177.29L160.562 178.194L160.552 178.2L160.541 178.204L160.136 177.29ZM166.45 183.496L166.911 184.383L166.904 184.387L166.45 183.496ZM181.6 176.035L181.177 175.129L182.803 174.371L182.593 176.152L181.6 176.035ZM182.812 186.66L183.296 185.784L183.302 185.788L182.812 186.66ZM190.048 186.545L191.02 186.78L190.988 186.91L190.924 187.027L190.048 186.545ZM191.852 171.256L190.854 171.19L190.942 169.855L192.198 170.317L191.852 171.256ZM196.657 166.362L197.144 165.488L197.222 165.532L197.292 165.589L196.657 166.362ZM192.044 164.408L192.031 165.408L191.046 165.395L191.044 164.41L192.044 164.408ZM190.758 144.703L191.747 144.554L191.748 144.567L191.75 144.579L190.758 144.703ZM186.804 140.889L187.051 139.92L187.06 139.923L186.804 140.889ZM182.725 142.61L183.721 142.513L183.721 142.522L183.722 142.53L182.725 142.61ZM183.061 161.41L184.06 161.458L183.985 163.012L182.603 162.299L183.061 161.41ZM170.111 149.489L170.935 148.922L170.951 148.945L170.965 148.969L170.111 149.489ZM173.54 133.863L173.467 132.866L173.491 132.864L173.516 132.863L173.54 133.863ZM195.021 139.921L195.501 139.044L195.523 139.055L195.544 139.068L195.021 139.921ZM199.114 140.316L198.374 139.643L198.402 139.613L198.432 139.585L199.114 140.316ZM198.15 137.296L197.571 138.111L197.559 138.102L197.547 138.093L198.15 137.296ZM160.346 132.218L159.52 131.655L159.544 131.62L159.57 131.587L160.346 132.218ZM163.002 150.655C167.57 157.808 174.48 163.451 182.27 166.872L181.466 168.703C173.346 165.138 166.115 159.247 161.316 151.731L163.002 150.655ZM182.226 168.721C174.883 171.535 167.741 174.815 160.562 178.194L159.71 176.385C166.894 173.003 174.093 169.696 181.51 166.854L182.226 168.721ZM160.541 178.204C160.177 178.365 160 178.545 159.912 178.688C159.824 178.829 159.779 179.003 159.795 179.229C159.831 179.717 160.156 180.376 160.76 180.972L159.356 182.396C158.54 181.592 157.882 180.505 157.801 179.373C157.758 178.788 157.872 178.182 158.212 177.633C158.552 177.086 159.073 176.666 159.732 176.375L160.541 178.204ZM160.76 180.972C161.359 181.563 162.334 182.188 163.373 182.545C164.433 182.908 165.361 182.928 165.997 182.604L166.904 184.387C165.572 185.065 164.013 184.879 162.724 184.437C161.414 183.987 160.177 183.207 159.356 182.396L160.76 180.972ZM165.989 182.608C170.975 180.018 176.038 177.524 181.177 175.129L182.022 176.941C176.909 179.325 171.872 181.806 166.911 184.383L165.989 182.608ZM182.593 176.152C182.482 177.086 182.238 178.109 182.022 179.066C181.799 180.053 181.599 180.998 181.53 181.889C181.46 182.777 181.527 183.537 181.783 184.168C182.028 184.774 182.473 185.329 183.296 185.784L182.328 187.535C181.126 186.87 180.355 185.972 179.929 184.918C179.513 183.89 179.453 182.785 179.536 181.732C179.618 180.681 179.849 179.607 180.071 178.626C180.299 177.616 180.512 176.721 180.606 175.918L182.593 176.152ZM183.302 185.788C184.239 186.315 185.551 186.879 186.744 187.019C187.92 187.158 188.722 186.88 189.172 186.062L190.924 187.027C189.917 188.856 188.092 189.192 186.51 189.006C184.944 188.821 183.367 188.119 182.322 187.531L183.302 185.788ZM189.076 186.309C190.254 181.445 190.518 176.29 190.854 171.19L192.85 171.321C192.518 176.359 192.247 181.711 191.02 186.78L189.076 186.309ZM192.198 170.317C193.118 170.656 194.13 170.791 195.053 170.741C195.99 170.691 196.745 170.456 197.204 170.145C197.628 169.859 197.727 169.58 197.68 169.277C197.616 168.863 197.24 168.133 196.023 167.135L197.292 165.589C198.645 166.699 199.48 167.83 199.657 168.972C199.85 170.225 199.218 171.198 198.325 171.802C197.469 172.381 196.322 172.676 195.16 172.739C193.983 172.802 192.697 172.632 191.506 172.194L192.198 170.317ZM196.171 167.235C195.36 166.784 194.766 166.379 194 165.992C193.288 165.633 192.645 165.416 192.031 165.408L192.056 163.408C193.113 163.421 194.075 163.79 194.901 164.207C195.672 164.596 196.55 165.157 197.144 165.488L196.171 167.235ZM191.044 164.41C191.031 157.847 190.576 151.316 189.765 144.827L191.75 144.579C192.57 151.141 193.031 157.754 193.044 164.406L191.044 164.41ZM189.769 144.851C189.557 143.436 188.145 142.28 186.547 141.856L187.06 139.923C189.05 140.45 191.367 142.024 191.747 144.554L189.769 144.851ZM186.556 141.858C186.039 141.726 185.139 141.661 184.445 141.83C184.103 141.913 183.91 142.029 183.818 142.124C183.761 142.184 183.697 142.274 183.721 142.513L181.73 142.706C181.654 141.921 181.89 141.243 182.379 140.736C182.833 140.265 183.431 140.018 183.973 139.886C185.048 139.625 186.286 139.725 187.051 139.92L186.556 141.858ZM183.722 142.53C184.224 148.793 184.366 155.106 184.06 161.458L182.062 161.362C182.364 155.103 182.224 148.876 181.728 142.69L183.722 142.53ZM182.603 162.299C177.139 159.481 172.531 155.397 169.256 150.008L170.965 148.969C174.034 154.018 178.356 157.858 183.519 160.522L182.603 162.299ZM169.287 150.056C167.543 147.521 166.38 143.528 166.685 140.043C166.839 138.286 167.373 136.574 168.484 135.245C169.616 133.892 171.271 133.027 173.467 132.866L173.614 134.86C171.9 134.986 170.768 135.631 170.018 136.528C169.248 137.449 168.808 138.726 168.677 140.217C168.414 143.226 169.446 146.759 170.935 148.922L169.287 150.056ZM173.516 132.863C181.18 132.676 189.05 135.518 195.501 139.044L194.542 140.799C188.251 137.36 180.74 134.687 173.565 134.863L173.516 132.863ZM195.544 139.068C196.024 139.363 196.682 139.678 197.289 139.802C197.919 139.931 198.222 139.811 198.374 139.643L199.854 140.989C198.995 141.934 197.785 141.945 196.888 141.761C195.969 141.573 195.087 141.134 194.499 140.774L195.544 139.068ZM198.432 139.585C198.546 139.479 198.552 139.417 198.555 139.397C198.559 139.355 198.553 139.259 198.475 139.098C198.309 138.754 197.939 138.372 197.571 138.111L198.728 136.48C199.254 136.853 199.911 137.473 200.276 138.227C200.463 138.614 200.599 139.091 200.543 139.612C200.484 140.154 200.227 140.645 199.797 141.047L198.432 139.585ZM197.547 138.093C193.146 134.767 186.006 130.875 178.929 129.146C171.806 127.405 165.123 127.929 161.122 132.849L159.57 131.587C164.327 125.738 172.058 125.408 179.403 127.203C186.794 129.008 194.177 133.04 198.753 136.498L197.547 138.093ZM161.173 132.781C159.442 135.32 159.059 138.474 159.549 141.7C160.039 144.926 161.391 148.133 163.002 150.655L161.316 151.731C159.581 149.014 158.11 145.546 157.571 142C157.033 138.455 157.416 134.741 159.52 131.655L161.173 132.781ZM135.278 147.519L134.28 147.567L134.275 147.474L134.288 147.382L135.278 147.519ZM125.166 144.747L124.172 144.637L124.174 144.625L124.175 144.613L125.166 144.747ZM124.029 181.896L123.04 182.048L123.038 182.034L123.036 182.02L124.029 181.896ZM133.297 195.534L132.849 196.428L132.84 196.424L132.831 196.419L133.297 195.534ZM146.378 194.709L145.563 194.128L145.571 194.118L146.378 194.709ZM142.053 191.216L141.836 190.24L141.872 190.232L141.91 190.226L142.053 191.216ZM133.601 169.165L132.603 169.221L134.589 169.005L133.601 169.165ZM150.686 173.813L151.582 174.255L151.579 174.262L150.686 173.813ZM153.3 148.681L154.285 148.504L154.287 148.515L154.288 148.527L153.3 148.681ZM148.044 144.903L147.88 145.889L147.872 145.888L147.865 145.887L148.044 144.903ZM143.758 147.029L142.762 147.125L142.762 147.117L143.758 147.029ZM141.058 169.168L141.964 169.589L141.022 171.614L140.139 169.563L141.058 169.168ZM135.15 150.838L136.062 150.427L136.081 150.471L136.097 150.516L135.15 150.838ZM134.288 147.382C134.374 146.761 134.088 146.05 133.344 145.328C132.608 144.613 131.534 144.009 130.397 143.657C129.249 143.302 128.164 143.242 127.393 143.469C127.019 143.579 126.745 143.747 126.554 143.955C126.368 144.158 126.216 144.448 126.157 144.882L124.175 144.613C124.284 143.816 124.591 143.137 125.079 142.604C125.563 142.077 126.178 141.741 126.829 141.55C128.108 141.174 129.619 141.322 130.989 141.747C132.37 142.174 133.736 142.921 134.736 143.892C135.729 144.855 136.476 146.163 136.269 147.657L134.288 147.382ZM126.16 144.857C124.795 157.168 123.505 169.62 125.021 181.772L123.036 182.02C121.487 169.598 122.811 156.918 124.172 144.637L126.16 144.857ZM125.017 181.744C125.871 187.295 128.722 191.995 133.763 194.649L132.831 196.419C127.135 193.42 123.973 188.112 123.04 182.048L125.017 181.744ZM133.745 194.64C135.603 195.571 137.992 196.34 140.221 196.401C142.437 196.461 144.352 195.828 145.563 194.128L147.192 195.29C145.46 197.717 142.781 198.471 140.166 198.4C137.564 198.329 134.884 197.448 132.849 196.428L133.745 194.64ZM145.571 194.118C145.638 194.026 145.638 193.983 145.638 193.98C145.638 193.97 145.638 193.926 145.588 193.836C145.473 193.627 145.185 193.341 144.704 193.046C144.243 192.763 143.697 192.528 143.195 192.377C142.658 192.215 142.308 192.19 142.195 192.206L141.91 190.226C142.467 190.146 143.162 190.277 143.773 190.462C144.421 190.657 145.127 190.959 145.75 191.342C146.353 191.711 146.98 192.219 147.339 192.869C147.526 193.209 147.653 193.611 147.636 194.056C147.619 194.507 147.457 194.928 147.184 195.3L145.571 194.118ZM142.27 192.192C139.215 192.872 136.93 192.156 135.362 190.394C133.876 188.724 133.167 186.256 132.819 183.7C132.467 181.115 132.463 178.265 132.52 175.692C132.577 173.072 132.692 170.803 132.603 169.221L134.6 169.109C134.695 170.794 134.574 173.224 134.519 175.736C134.463 178.295 134.472 181.012 134.801 183.43C135.134 185.879 135.777 187.852 136.856 189.064C137.854 190.185 139.349 190.793 141.836 190.24L142.27 192.192ZM134.589 169.005C135.126 172.32 138.044 175.28 141.381 176.435C143.028 177.006 144.695 177.105 146.147 176.648C147.575 176.198 148.875 175.185 149.792 173.363L151.579 174.262C150.433 176.539 148.719 177.934 146.748 178.555C144.799 179.169 142.683 179.003 140.726 178.325C136.857 176.985 133.295 173.522 132.614 169.325L134.589 169.005ZM149.789 173.37C153.463 165.926 153.598 157.055 152.312 148.836L154.288 148.527C155.603 156.931 155.518 166.281 151.582 174.255L149.789 173.37ZM152.316 148.858C152.207 148.251 151.647 147.582 150.682 146.98C149.751 146.4 148.654 146.018 147.88 145.889L148.208 143.916C149.241 144.088 150.587 144.565 151.74 145.283C152.858 145.98 154.023 147.05 154.285 148.504L152.316 148.858ZM147.865 145.887C147.31 145.786 146.362 145.788 145.621 146.026C145.257 146.143 145.025 146.291 144.9 146.432C144.801 146.542 144.731 146.682 144.754 146.941L142.762 147.117C142.691 146.312 142.938 145.623 143.411 145.096C143.857 144.599 144.45 144.302 145.009 144.122C146.116 143.767 147.404 143.77 148.223 143.919L147.865 145.887ZM144.753 146.933C145.469 154.362 145.249 162.53 141.964 169.589L140.151 168.746C143.213 162.167 143.466 154.425 142.763 147.125L144.753 146.933ZM140.139 169.563C138.84 166.547 137.87 163.447 136.97 160.361C136.065 157.258 135.236 154.194 134.203 151.16L136.097 150.516C137.148 153.605 138 156.748 138.89 159.801C139.786 162.87 140.728 165.873 141.976 168.772L140.139 169.563ZM134.238 151.248C133.895 150.486 133.999 149.647 134.089 149.074C134.196 148.382 134.298 147.962 134.28 147.567L136.277 147.472C136.309 148.136 136.138 148.911 136.065 149.382C135.973 149.972 135.988 150.263 136.062 150.427L134.238 151.248ZM91.4745 140.684L90.4757 140.733L90.4697 140.612L90.4929 140.493L91.4745 140.684ZM90.9985 162.559L90.0096 162.41L90.0117 162.397L90.0141 162.383L90.9985 162.559ZM91.3877 170.412L90.6265 171.061L90.5812 171.007L90.5438 170.949L91.3877 170.412ZM100.825 166.262L99.828 166.189L100.06 163.03L101.684 165.75L100.825 166.262ZM110.304 174.399L110.162 175.389L110.136 175.385L110.11 175.38L110.304 174.399ZM106.179 138.734L106.162 139.734L106.036 139.732L105.914 139.699L106.179 138.734ZM98.8389 141.465L99.7094 141.957L98.7923 143.579L97.9475 141.918L98.8389 141.465ZM106.933 166.544L107.667 165.866L107.694 165.894L107.718 165.925L106.933 166.544ZM103.622 144.047L102.781 143.506L102.872 143.366L103.003 143.262L103.622 144.047ZM104.671 144.083L103.877 144.691L103.854 144.661L103.833 144.629L104.671 144.083ZM109.276 160.066L108.278 160.123L108.276 160.093L108.276 160.063L109.276 160.066ZM92.4732 140.634C92.8355 147.926 93.2972 155.384 91.9829 162.735L90.0141 162.383C91.2803 155.3 90.8412 148.089 90.4757 140.733L92.4732 140.634ZM91.9875 162.707C91.7639 164.199 91.4785 165.371 91.4269 166.601C91.3784 167.754 91.5551 168.811 92.2316 169.876L90.5438 170.949C89.5925 169.452 89.368 167.962 89.4286 166.518C89.486 165.151 89.8199 163.676 90.0096 162.41L91.9875 162.707ZM92.1489 169.764C93.1177 170.901 94.0539 171.496 94.8691 171.734C95.6688 171.967 96.4105 171.875 97.0726 171.532C98.4336 170.827 99.6259 168.938 99.828 166.189L101.823 166.336C101.59 169.5 100.182 172.173 97.9928 173.308C96.8795 173.885 95.6082 174.033 94.309 173.654C93.0253 173.279 91.7766 172.41 90.6265 171.061L92.1489 169.764ZM101.684 165.75C103.861 169.396 106.577 172.64 110.499 173.418L110.11 175.38C105.289 174.424 102.185 170.49 99.9667 166.775L101.684 165.75ZM110.446 173.409C112.44 173.695 113.938 173.388 115.061 172.726C116.188 172.062 117.044 170.979 117.637 169.524C118.839 166.574 118.876 162.283 117.997 157.761C117.124 153.265 115.378 148.702 113.184 145.277C112.088 143.564 110.901 142.17 109.688 141.207C108.475 140.245 107.287 139.753 106.162 139.734L106.196 137.735C107.894 137.764 109.495 138.501 110.932 139.641C112.369 140.781 113.694 142.364 114.869 144.198C117.217 147.866 119.047 152.673 119.961 157.38C120.87 162.06 120.904 166.805 119.489 170.279C118.773 172.036 117.667 173.512 116.076 174.449C114.481 175.388 112.504 175.724 110.162 175.389L110.446 173.409ZM105.914 139.699C103.459 139.025 100.881 139.885 99.7094 141.957L97.9683 140.973C99.6793 137.946 103.291 136.905 106.444 137.77L105.914 139.699ZM97.9475 141.918C97.7726 141.574 97.3694 141.149 96.7593 140.756C96.1637 140.372 95.4537 140.071 94.7715 139.926C94.0749 139.778 93.5073 139.811 93.13 139.967C92.8144 140.098 92.5605 140.338 92.456 140.875L90.4929 140.493C90.7224 139.314 91.4136 138.514 92.3635 138.12C93.2516 137.752 94.2698 137.774 95.1883 137.97C96.1214 138.169 97.056 138.567 97.8436 139.075C98.6168 139.574 99.3355 140.236 99.7302 141.012L97.9475 141.918ZM106.198 167.223C100.625 161.191 98.0556 150.854 102.781 143.506L104.463 144.588C100.379 150.939 102.505 160.279 107.667 165.866L106.198 167.223ZM103.003 143.262C103.094 143.19 103.463 142.87 103.932 142.783C104.216 142.729 104.538 142.755 104.849 142.916C105.143 143.067 105.354 143.3 105.509 143.537L103.833 144.629C103.802 144.581 103.825 144.638 103.933 144.693C103.988 144.722 104.053 144.743 104.124 144.753C104.194 144.762 104.255 144.757 104.3 144.748C104.383 144.733 104.416 144.705 104.387 144.724C104.358 144.742 104.321 144.769 104.242 144.832L103.003 143.262ZM105.464 143.475C106.903 145.352 108.102 148.146 108.94 151.098C109.781 154.063 110.285 157.284 110.276 160.069L108.276 160.063C108.284 157.499 107.816 154.465 107.016 151.644C106.211 148.809 105.099 146.286 103.877 144.691L105.464 143.475ZM110.275 160.009C110.321 160.82 110.287 163.222 109.951 165.097C109.866 165.572 109.757 166.038 109.615 166.449C109.479 166.842 109.284 167.274 108.98 167.604C108.64 167.973 108.099 168.265 107.437 168.105C106.889 167.972 106.468 167.57 106.148 167.164L107.718 165.925C107.951 166.22 108.02 166.188 107.908 166.161C107.828 166.142 107.725 166.144 107.627 166.181C107.54 166.213 107.503 166.256 107.509 166.249C107.535 166.221 107.621 166.095 107.724 165.797C107.821 165.517 107.908 165.16 107.982 164.743C108.286 163.054 108.317 160.813 108.278 160.123L110.275 160.009ZM56.6722 147.981L57.6722 147.987L57.6721 147.996L57.6719 148.004L56.6722 147.981ZM55.3643 162.038L54.4483 162.439L54.3861 162.297L54.3699 162.143L55.3643 162.038ZM62.8701 166.082L63.5403 166.824L63.4841 166.875L63.4209 166.917L62.8701 166.082ZM64.9116 164.393L65.8911 164.594L65.8672 164.711L65.8167 164.818L64.9116 164.393ZM67.0975 142.895L66.1019 142.802L66.103 142.79L66.1044 142.778L67.0975 142.895ZM68.7833 139.761L68.1639 138.975L68.2416 138.914L68.3299 138.869L68.7833 139.761ZM69.5163 139.496L68.5232 139.379L68.8061 136.981L70.3014 138.877L69.5163 139.496ZM75.3907 165.542L74.3912 165.572L74.3883 165.479L74.4028 165.387L75.3907 165.542ZM85.513 168.227L84.5142 168.179L84.5146 168.17L84.5152 168.161L85.513 168.227ZM86.7214 147.579L87.7213 147.597L87.721 147.608L86.7214 147.579ZM77.6174 143.698L78.406 144.313L77.3805 145.628L76.7036 144.104L77.6174 143.698ZM57.6719 148.004C57.6156 150.41 57.1466 152.842 56.7786 155.141C56.4042 157.479 56.1252 159.721 56.3588 161.933L54.3699 162.143C54.1063 159.647 54.427 157.178 54.8037 154.825C55.1868 152.431 55.6203 150.189 55.6725 147.958L57.6719 148.004ZM56.2803 161.637C56.8068 162.839 57.8134 164.192 58.9824 164.995C60.1233 165.779 61.2496 165.953 62.3192 165.247L63.4209 166.917C61.4462 168.22 59.4071 167.714 57.8499 166.644C56.3208 165.593 55.0966 163.92 54.4483 162.439L56.2803 161.637ZM62.1999 165.34C62.6387 164.943 63.2295 164.659 63.4576 164.522C63.7333 164.356 63.8889 164.218 64.0065 163.968L65.8167 164.818C65.4658 165.565 64.9442 165.961 64.4881 166.236C63.9844 166.539 63.7888 166.6 63.5403 166.824L62.1999 165.34ZM63.9321 164.192C65.3608 157.237 65.4167 150.119 66.1019 142.802L68.0931 142.988C67.4296 150.074 67.3481 157.502 65.8911 164.594L63.9321 164.192ZM66.1044 142.778C66.1978 141.986 66.543 141.183 66.9097 140.546C67.2704 139.92 67.7317 139.316 68.1639 138.975L69.4026 140.546C69.2545 140.663 68.9444 141.021 68.643 141.544C68.3477 142.057 68.1401 142.593 68.0906 143.012L66.1044 142.778ZM68.3299 138.869C68.4735 138.796 68.6155 138.747 68.7229 138.715C68.8309 138.682 68.9381 138.655 69.0038 138.638C69.0408 138.629 69.0649 138.623 69.0834 138.617C69.1034 138.612 69.1008 138.612 69.0862 138.617C69.082 138.619 69.0093 138.645 68.9204 138.707C68.8731 138.74 68.7932 138.802 68.716 138.903C68.635 139.009 68.5479 139.169 68.5232 139.379L70.5094 139.613C70.4575 140.053 70.1581 140.282 70.0662 140.346C69.9501 140.427 69.8389 140.471 69.7874 140.49C69.6789 140.531 69.5566 140.561 69.4981 140.576C69.4168 140.597 69.3601 140.611 69.3061 140.628C69.2513 140.645 69.233 140.654 69.2366 140.652L68.3299 138.869ZM70.3014 138.877C76.318 146.503 77.8273 156.458 76.3786 165.697L74.4028 165.387C75.7903 156.538 74.3137 147.192 68.7312 140.116L70.3014 138.877ZM76.3902 165.511C76.4099 166.159 76.8223 166.922 77.6593 167.675C78.4784 168.411 79.5881 169.025 80.7086 169.38C81.8503 169.742 82.8638 169.791 83.5365 169.573C83.8553 169.469 84.0736 169.315 84.22 169.124C84.3654 168.935 84.4915 168.644 84.5142 168.179L86.5118 168.276C86.4729 169.076 86.2405 169.778 85.8051 170.344C85.3706 170.909 84.7859 171.27 84.154 171.475C82.9254 171.874 81.4473 171.712 80.1049 171.287C78.7413 170.855 77.3744 170.108 76.3223 169.162C75.288 168.233 74.4344 166.994 74.3912 165.572L76.3902 165.511ZM84.5152 168.161C84.9768 161.268 85.5216 154.432 85.7218 147.55L87.721 147.608C87.5193 154.54 86.9701 161.436 86.5107 168.294L84.5152 168.161ZM85.7215 147.562C85.7309 147.036 85.47 146.429 84.8863 145.807C84.3087 145.191 83.4852 144.639 82.5756 144.251C81.6639 143.862 80.7318 143.665 79.9563 143.693C79.1765 143.721 78.6782 143.964 78.406 144.313L76.8289 143.083C77.5904 142.106 78.7546 141.734 79.8853 141.694C81.0204 141.654 82.2468 141.937 83.3604 142.412C84.4762 142.888 85.545 143.585 86.3455 144.439C87.1399 145.287 87.743 146.372 87.7212 147.597L85.7215 147.562ZM76.7036 144.104C73.7365 137.425 68.8974 135.023 65.0528 135.762C61.2307 136.497 57.714 140.473 57.6722 147.987L55.6722 147.976C55.7173 139.884 59.5889 134.776 64.6754 133.798C69.7395 132.825 75.3296 136.085 78.5313 143.292L76.7036 144.104ZM49.5056 134.064L48.6121 134.513L48.6084 134.506L48.6049 134.499L49.5056 134.064ZM41.9483 131.945L41.2384 131.24L41.2424 131.236L41.9483 131.945ZM40.2459 138.937L41.2426 139.019L41.2411 139.037L41.239 139.054L40.2459 138.937ZM39.5055 145.955L38.5057 145.936L38.5066 145.887L38.5124 145.838L39.5055 145.955ZM43.3686 189.045L42.6906 189.78L42.6814 189.772L42.6725 189.763L43.3686 189.045ZM59.8385 189.234L60.7901 189.542L60.7798 189.574L60.7673 189.605L59.8385 189.234ZM58.0289 168.142L58.9203 167.689L58.9472 167.742L58.9677 167.798L58.0289 168.142ZM54.207 167.077L55.1717 167.341L55.1714 167.342L54.207 167.077ZM50.7598 185.882L51.3276 186.705L50.729 187.118L50.1518 186.676L50.7598 185.882ZM49.5923 148.198L50.5922 148.184L50.5924 148.199L50.5922 148.213L49.5923 148.198ZM42.8698 116.701L42.4491 115.794L42.4999 115.771L42.553 115.753L42.8698 116.701ZM41.1217 123.338L40.1291 123.459L40.1145 123.34L40.1286 123.221L41.1217 123.338ZM49.5942 128.11L50.0095 129.019L49.9619 129.041L49.9123 129.058L49.5942 128.11ZM50.8436 121.239L51.8376 121.13L51.8435 121.183L51.8436 121.237L50.8436 121.239ZM48.6049 134.499C48.456 134.19 48.1187 133.801 47.5859 133.414C47.0655 133.035 46.4214 132.704 45.7493 132.48C45.0736 132.255 44.4136 132.153 43.8557 132.191C43.3003 132.23 42.9087 132.399 42.6542 132.653L41.2424 131.236C41.9324 130.549 42.8343 130.257 43.7189 130.196C44.6008 130.136 45.5271 130.298 46.3813 130.582C47.2391 130.868 48.0685 131.292 48.7625 131.797C49.444 132.292 50.0619 132.916 50.4064 133.63L48.6049 134.499ZM42.6582 132.649C41.9747 133.338 41.6509 134.236 41.4895 135.349C41.4085 135.907 41.3716 136.495 41.3429 137.118C41.315 137.726 41.2944 138.387 41.2426 139.019L39.2493 138.855C39.2972 138.271 39.3152 137.676 39.3451 137.026C39.3742 136.392 39.4144 135.723 39.5102 135.062C39.702 133.739 40.1297 132.358 41.2385 131.24L42.6582 132.649ZM41.239 139.054C41.1025 140.212 40.9872 141.373 40.8708 142.545C40.7548 143.714 40.6377 144.894 40.4986 146.073L38.5124 145.838C38.6489 144.681 38.7642 143.52 38.8806 142.347C38.9966 141.178 39.1137 139.999 39.2528 138.82L41.239 139.054ZM40.5053 145.975C40.4447 149.134 40.0452 152.843 39.6415 156.715C39.2357 160.608 38.8226 164.689 38.7164 168.667C38.5022 176.694 39.5564 183.956 44.0648 188.327L42.6725 189.763C37.4986 184.746 36.502 176.677 36.7171 168.614C36.8257 164.547 37.2473 160.393 37.6523 156.508C38.0594 152.602 38.447 148.991 38.5057 145.936L40.5053 145.975ZM44.0467 188.31C45.9213 190.04 49.1661 191.709 52.2224 192.121C53.7401 192.325 55.1364 192.21 56.2747 191.711C57.3851 191.224 58.3192 190.344 58.9097 188.864L60.7673 189.605C59.9875 191.56 58.6821 192.839 57.0778 193.542C55.5015 194.233 53.7081 194.339 51.9553 194.103C48.4705 193.633 44.8507 191.773 42.6906 189.78L44.0467 188.31ZM58.8869 188.927C60.9928 182.409 59.458 174.937 57.0902 168.487L58.9677 167.798C61.3795 174.368 63.1068 182.371 60.7901 189.542L58.8869 188.927ZM57.1376 168.596C57.145 168.61 57.1233 168.567 57.0325 168.471C56.9497 168.383 56.8354 168.277 56.6944 168.165C56.4094 167.939 56.0607 167.72 55.7268 167.572C55.3667 167.412 55.1463 167.39 55.0697 167.4C55.0518 167.402 55.0914 167.4 55.1409 167.357C55.1914 167.313 55.1871 167.284 55.1717 167.341L53.2423 166.814C53.3428 166.446 53.5316 166.105 53.8328 165.844C54.133 165.585 54.4811 165.46 54.8098 165.417C55.4265 165.336 56.0526 165.529 56.5365 165.743C57.0468 165.969 57.5399 166.282 57.9391 166.6C58.307 166.892 58.7122 167.28 58.9203 167.689L57.1376 168.596ZM55.1714 167.342C54.8269 168.597 54.7608 170.114 54.7978 171.823C54.8162 172.671 54.8589 173.543 54.8994 174.439C54.9396 175.33 54.9775 176.242 54.9833 177.144C55.0063 180.678 54.5554 184.479 51.3276 186.705L50.1921 185.059C52.5031 183.465 53.0062 180.668 52.9834 177.157C52.9778 176.297 52.9416 175.42 52.9014 174.53C52.8615 173.646 52.8173 172.744 52.7982 171.866C52.7604 170.12 52.8176 168.361 53.2427 166.813L55.1714 167.342ZM50.1518 186.676C49.2463 185.983 48.6194 184.916 48.1727 183.7C47.7219 182.472 47.4214 181.002 47.2272 179.392C46.8388 176.17 46.8594 172.24 47.0544 168.254C47.2498 164.261 47.6229 160.167 47.9521 156.611C48.2836 153.03 48.5657 150.039 48.5924 148.184L50.5922 148.213C50.5641 150.167 50.2708 153.26 49.9436 156.795C49.614 160.355 49.245 164.408 49.0521 168.352C48.8587 172.303 48.8448 176.1 49.2129 179.152C49.3969 180.678 49.6724 181.982 50.05 183.01C50.4317 184.049 50.8856 184.719 51.3679 185.088L50.1518 186.676ZM48.5924 148.212C48.5752 146.973 48.7074 145.723 48.8701 144.509C49.0366 143.266 49.227 142.109 49.3565 140.92C49.6125 138.569 49.5802 136.44 48.6121 134.513L50.3992 133.615C51.6334 136.072 51.6121 138.681 51.3447 141.137C51.2125 142.351 51.0076 143.615 50.8524 144.774C50.6933 145.962 50.5771 147.095 50.5922 148.184L48.5924 148.212ZM43.2905 117.609C42.5814 117.938 42.2768 118.581 42.1832 119.711C42.1366 120.274 42.1501 120.875 42.163 121.526C42.1754 122.148 42.1881 122.834 42.1148 123.455L40.1286 123.221C40.1829 122.76 40.1764 122.216 40.1634 121.566C40.1511 120.944 40.1332 120.231 40.1901 119.545C40.3035 118.177 40.7454 116.584 42.4491 115.794L43.2905 117.609ZM42.1143 123.216C42.2864 124.622 43.3029 125.85 44.7605 126.622C46.2214 127.396 47.9427 127.609 49.2762 127.162L49.9123 129.058C47.9576 129.714 45.6658 129.365 43.8243 128.39C41.9793 127.412 40.4037 125.702 40.1291 123.459L42.1143 123.216ZM49.179 127.2C49.6058 127.005 49.8338 126.743 49.9743 126.432C50.1287 126.091 50.1993 125.64 50.1941 125.062C50.189 124.485 50.1109 123.865 50.0238 123.202C49.9408 122.569 49.8448 121.868 49.8436 121.241L51.8436 121.237C51.8445 121.707 51.9181 122.265 52.0068 122.941C52.0915 123.587 52.1876 124.325 52.1941 125.044C52.2005 125.761 52.1203 126.542 51.7963 127.257C51.4585 128.003 50.8808 128.622 50.0095 129.019L49.179 127.2ZM49.8496 121.348C49.7059 120.039 48.7708 118.891 47.4078 118.164C46.041 117.435 44.4283 117.235 43.1866 117.65L42.553 115.753C44.4164 115.131 46.6003 115.467 48.349 116.399C50.1016 117.334 51.6008 118.973 51.8376 121.13L49.8496 121.348ZM15.2146 153.791L16.0391 153.226L16.0555 153.249L16.0704 153.274L15.2146 153.791ZM12.3084 153.887L13.2491 153.548L13.2616 153.583L13.2716 153.618L12.3084 153.887ZM35.1797 157.814L36.1642 157.989L36.1528 158.053L36.1333 158.115L35.1797 157.814ZM16.6739 128.787L16.3927 127.827L16.479 127.802L16.5683 127.792L16.6739 128.787ZM17.809 142.956L17.0832 143.644L17.0629 143.623L17.0438 143.6L17.809 142.956ZM25.5378 149.571L26.106 148.748L26.5004 149.02L26.5351 149.498L25.5378 149.571ZM24.4056 156.192L23.4808 155.811L23.5107 155.739L23.5516 155.671L24.4056 156.192ZM19.6158 157.381L20.0013 156.458L20.0064 156.46L19.6158 157.381ZM20.555 135.298L20.4751 134.301L20.9374 134.264L21.2643 134.593L20.555 135.298ZM25.1218 145.662L26.1078 145.495L26.5768 148.272L24.4615 146.413L25.1218 145.662ZM18.8182 138.865L17.9561 139.372L17.9534 139.367L18.8182 138.865ZM19.369 135.684L18.9156 134.793L18.9368 134.782L18.9585 134.772L19.369 135.684ZM14.39 154.357C14.4176 154.397 14.4183 154.382 14.3406 154.327C14.2715 154.279 14.1711 154.221 14.043 154.163C13.782 154.045 13.4787 153.957 13.2247 153.927C13.0988 153.913 13.0113 153.915 12.9618 153.922C12.9062 153.929 12.9458 153.935 13.0203 153.882C13.1186 153.811 13.1992 153.692 13.2235 153.564C13.2422 153.465 13.2116 153.444 13.2491 153.548L11.3677 154.226C11.2564 153.918 11.1887 153.561 11.2584 153.192C11.3337 152.794 11.5534 152.472 11.8553 152.256C12.3778 151.882 13.0371 151.891 13.4591 151.941C13.9405 151.998 14.4426 152.148 14.8686 152.341C15.2536 152.516 15.7482 152.802 16.0391 153.226L14.39 154.357ZM13.2716 153.618C13.8002 155.513 15.164 157.338 17.0504 158.856C18.9303 160.368 21.2667 161.524 23.6248 162.108C25.9903 162.693 28.3001 162.685 30.1697 161.973C31.9995 161.277 33.4778 159.884 34.226 157.513L36.1333 158.115C35.2001 161.072 33.2793 162.93 30.8812 163.843C28.5228 164.74 25.7758 164.7 23.1444 164.049C20.5056 163.396 17.9049 162.11 15.7965 160.414C13.6946 158.722 12.0187 156.57 11.3452 154.156L13.2716 153.618ZM34.1952 157.639C35.1974 152.01 34.2236 144.592 31.2477 138.799C28.2828 133.028 23.463 129.072 16.7794 129.781L16.5683 127.792C24.3652 126.965 29.8387 131.68 33.0267 137.885C36.2038 144.069 37.2427 151.933 36.1642 157.989L34.1952 157.639ZM16.9551 129.746C14.7764 130.385 13.7569 131.217 13.3219 131.994C12.8999 132.747 12.8999 133.683 13.3263 134.859C13.755 136.041 14.568 137.325 15.5495 138.629C16.5282 139.929 17.6154 141.173 18.5742 142.313L17.0438 143.6C16.1176 142.5 14.9733 141.189 13.9518 139.832C12.933 138.479 11.9772 137.005 11.4461 135.541C10.9128 134.07 10.7622 132.472 11.5768 131.017C12.3784 129.585 13.9827 128.533 16.3927 127.827L16.9551 129.746ZM18.5348 142.269C20.8265 144.687 23.404 146.882 26.106 148.748L24.9695 150.393C22.1557 148.45 19.4722 146.165 17.0832 143.644L18.5348 142.269ZM26.5351 149.498C26.7056 151.844 26.6263 154.469 25.2595 156.712L23.5516 155.671C24.5783 153.986 24.7043 151.898 24.5404 149.643L26.5351 149.498ZM25.3303 156.572C24.7794 157.911 23.8132 158.671 22.6068 158.876C21.491 159.065 20.2973 158.756 19.2253 158.302L20.0064 156.46C20.9394 156.856 21.7101 156.999 22.2727 156.904C22.7447 156.824 23.1708 156.564 23.4808 155.811L25.3303 156.572ZM19.2303 158.304C17.3394 157.514 15.5257 156.24 14.3587 154.309L16.0704 153.274C16.9585 154.744 18.381 155.781 20.0013 156.458L19.2303 158.304ZM20.153 134.987C20.2702 133.994 20.2707 133.994 20.2712 133.994C20.2713 133.994 20.2718 133.994 20.2721 133.994C20.2728 133.994 20.2735 133.994 20.2741 133.994C20.2754 133.995 20.2767 133.995 20.2781 133.995C20.2807 133.995 20.2835 133.996 20.2862 133.996C20.2917 133.997 20.2973 133.997 20.3031 133.998C20.3148 134 20.327 134.002 20.3399 134.004C20.3655 134.009 20.3938 134.015 20.4242 134.024C20.4848 134.04 20.5552 134.063 20.631 134.099C20.786 134.172 20.9558 134.291 21.1009 134.475L19.5307 135.713C19.5996 135.801 19.688 135.866 19.7806 135.909C19.8252 135.93 19.8693 135.946 19.9113 135.957C19.9323 135.962 19.9532 135.967 19.9739 135.971C19.9842 135.973 19.9945 135.974 20.0048 135.976C20.01 135.977 20.0152 135.977 20.0203 135.978C20.0229 135.978 20.0255 135.979 20.0281 135.979C20.0294 135.979 20.0306 135.979 20.0319 135.98C20.0326 135.98 20.0332 135.98 20.0339 135.98C20.0342 135.98 20.0347 135.98 20.0348 135.98C20.0353 135.98 20.0358 135.98 20.153 134.987ZM19.5307 135.713C19.505 135.681 19.5096 135.687 19.5189 135.698C19.5301 135.71 19.5894 135.778 19.6893 135.844C19.8051 135.92 19.9155 135.955 19.9888 135.971C20.0351 135.981 20.0758 135.985 20.0358 135.98L20.2702 133.994C20.2734 133.994 20.3466 134.002 20.4196 134.018C20.5196 134.04 20.651 134.083 20.7872 134.172C20.9074 134.251 20.9864 134.338 21.0218 134.378C21.0553 134.416 21.0885 134.459 21.1009 134.475L19.5307 135.713ZM21.8215 135.099C21.9176 135.197 21.9535 135.229 21.9531 135.229C21.9526 135.228 21.9368 135.215 21.9116 135.196C21.8999 135.187 21.8717 135.167 21.8326 135.143C21.8259 135.139 21.6923 135.054 21.5 135.02C21.4109 135.004 21.1176 134.962 20.8101 135.147C20.4339 135.374 20.3365 135.744 20.3268 135.959C20.3184 136.144 20.3646 136.284 20.3813 136.332C20.4033 136.395 20.4272 136.443 20.4407 136.468C20.4679 136.52 20.4935 136.557 20.5033 136.571C20.5159 136.589 20.5264 136.602 20.5324 136.61C20.5584 136.643 20.5373 136.622 20.5606 136.638L21.6585 134.966C21.8447 135.088 22.0195 135.266 22.1026 135.371C22.1097 135.38 22.1619 135.445 22.209 135.534C22.2231 135.561 22.2475 135.609 22.2698 135.673C22.2868 135.722 22.3331 135.863 22.3247 136.049C22.315 136.264 22.2174 136.635 21.8408 136.861C21.5329 137.046 21.2391 137.005 21.1494 136.989C20.9556 136.954 20.8198 136.868 20.8103 136.862C20.7683 136.837 20.7364 136.814 20.7203 136.802C20.6863 136.777 20.6584 136.753 20.6424 136.74C20.5798 136.685 20.4974 136.605 20.3977 136.504L21.8215 135.099ZM21.2643 134.593C24.1509 137.498 25.4772 141.76 26.1078 145.495L24.1358 145.828C23.5271 142.223 22.2911 138.464 19.8456 136.002L21.2643 134.593ZM24.4615 146.413C22.1888 144.414 19.6607 142.271 17.9561 139.372L19.6802 138.358C21.1904 140.926 23.4451 142.856 25.7821 144.911L24.4615 146.413ZM17.9534 139.367C17.874 139.23 17.6655 138.898 17.5135 138.592C17.3799 138.323 17.1463 137.809 17.2097 137.271L19.196 137.506C19.2052 137.427 19.1874 137.404 19.2057 137.465C19.2215 137.519 19.2529 137.598 19.3052 137.703C19.4189 137.933 19.5436 138.123 19.683 138.363L17.9534 139.367ZM17.2097 137.271C17.2658 136.796 17.5062 136.291 17.763 135.899C18.0199 135.508 18.413 135.048 18.9156 134.793L19.8223 136.575C19.7649 136.605 19.6057 136.737 19.4347 136.997C19.3584 137.114 19.2964 137.231 19.2532 137.333C19.2319 137.383 19.2171 137.426 19.2075 137.458C19.1976 137.492 19.1958 137.507 19.196 137.506L17.2097 137.271ZM18.9585 134.772C19.3776 134.583 19.8254 134.353 20.4751 134.301L20.6348 136.294C20.399 136.313 20.2868 136.367 19.7794 136.596L18.9585 134.772Z" fill="white"/>
<rect x="-1.15115" y="0.821495" width="25.5019" height="5.81292" rx="2.90646" transform="matrix(-0.986322 -0.164827 -0.164827 0.986322 119.193 127.036)" fill="#2D2D2D" stroke="white" stroke-width="2"/>
</g>
<g clip-path="url(#clip2_16855_6941)">
<path d="M438.967 82.9419C430.882 48.456 410.291 38.2598 410.291 38.2598H362.793L355.593 45.4479C332.222 66.2026 326.779 94.6477 326.779 94.6477C319.705 120.074 335.87 126.241 335.87 126.241C349.194 131.648 371.547 131.027 374.462 130.923V85.6536H398.703V130.3C409.779 129.875 419.877 129.389 419.877 129.389C433.268 126.996 438.95 116.423 438.95 116.423C445.779 102.829 438.967 82.9419 438.967 82.9419ZM386.781 78.8827C383.802 78.8827 380.89 78.0027 378.414 76.3539C375.937 74.7052 374.007 72.3617 372.867 69.62C371.727 66.8782 371.429 63.8613 372.01 60.9506C372.591 58.04 374.026 55.3664 376.132 53.2679C378.238 51.1695 380.921 49.7404 383.843 49.1615C386.764 48.5825 389.792 48.8797 392.544 50.0153C395.295 51.151 397.647 53.0742 399.302 55.5417C400.957 58.0092 401.84 60.9102 401.84 63.8779C401.84 67.8574 400.253 71.6739 397.429 74.4879C394.605 77.3018 390.775 78.8827 386.781 78.8827Z" fill="#2D2D2D"/>
<path d="M409.534 29.8284H364.055C362.59 29.8284 361.402 31.0117 361.402 32.4714C361.402 33.9311 362.59 35.1145 364.055 35.1145H409.534C410.999 35.1145 412.187 33.9311 412.187 32.4714C412.187 31.0117 410.999 29.8284 409.534 29.8284Z" fill="#2D2D2D"/>
<path d="M364.183 27.1854C364.183 27.1854 350.162 16.2976 349.277 8.67032C349.277 8.67032 349.404 2.7557 355.404 2.31382C358.352 1.83335 361.376 2.1169 364.183 3.1372C367.406 4.7262 370.897 5.70699 374.479 6.03002C374.479 6.03002 376.311 6.53502 381.237 2.8847C381.237 2.8847 385.154 -1.01813 390.269 0.241643C390.269 0.241643 393.492 0.933283 397.596 3.76572C397.596 3.76572 401.64 5.41248 405.618 3.32383C405.618 3.32383 412.124 -0.449997 418.314 2.37969C418.314 2.37969 422.548 3.51321 422.721 10.3116C422.721 10.3116 422.534 13.7725 418.49 19.0587L411.604 27.1772L364.183 27.1854Z" fill="#2D2D2D"/>
</g>
<defs>
<clipPath id="clip0_16855_6941">
<rect width="324.31" height="209.34" fill="white" transform="translate(450)"/>
</clipPath>
<clipPath id="clip1_16855_6941">
<rect width="324.31" height="209.34" fill="white" transform="matrix(-1 0 0 1 324.309 0)"/>
</clipPath>
<clipPath id="clip2_16855_6941">
<rect width="117" height="131" fill="white" transform="translate(325)"/>
</clipPath>
</defs>
</svg>
