<?xml version="1.0" encoding="utf-8"?>
<!-- Generator: Adobe Illustrator 24.1.3, SVG Export Plug-In . SVG Version: 6.00 Build 0)  -->
<svg version="1.1" id="Layer_1" xmlns="http://www.w3.org/2000/svg" xmlns:xlink="http://www.w3.org/1999/xlink" x="0px" y="0px"
	 viewBox="0 0 667.5 170.5" style="enable-background:new 0 0 667.5 170.5;" xml:space="preserve">
<style type="text/css">
	.st0{fill:#FFFFFF;}
	.st1{fill:#81151D;}
</style>
<path class="st0" d="M268.8,125.3c0-0.1,0-0.3,0-0.4c0.8-2.4,1.8-4.7,3.4-6.6c0.1-0.2,0.3-0.3,0.5-0.5c0.6-0.6,0.9-0.7,1.5-0.2
	c0.6,0.4,0.8,1.2,0.5,1.8c-0.2,0.4-0.5,0.7-0.7,1.1c-1.4,1.8-3.2,3.3-5,4.7C269,125.3,269,125.3,268.8,125.3z"/>
<path class="st1" d="M22.6,115.1c-0.3-0.3-0.5-0.7-0.7-0.9c-1-1.2-1.4-2.7-1.5-4.3c0-0.3-0.1-0.6-0.1-0.9c-0.3-1.5-0.1-3,0.4-4.4
	c0.6-1.5,1.6-2.5,3.2-3c3.4-1,6.4-0.1,9,2.1c1.2,1,2.1,2.3,2.5,3.9c0.2,1.2,0.5,2.3,0.8,3.5c0.3,1.8,0,3.4-1,4.9
	c-0.1,0.1-0.2,0.2-0.3,0.4c0.1,0.4,0.3,0.6,0.7,0.6c2.3,0,4.7,0,7.1,0c0.2,0,0.4-0.1,0.6-0.1c1.1-0.3,2.2-0.6,3.3-0.8
	c0.7-0.1,1.4-0.1,2.1,0c1.1,0.2,2.2,0.5,3.3,0.8c0.3,0.1,0.5,0.1,0.8,0.1c4.1,0,8.3,0,12.4,0c0.1,0,0.2,0,0.4,0
	c0.1-0.4,0.3-0.9,0.3-1.3c0.3-1.9,1.5-3.1,3.1-3.9c1-0.5,2.1-0.7,3.2-0.6c2.2,0.3,4.3,0.6,6.5,0.8c3.1,0.4,6.2,0.8,9.3,1.2
	c1.4,0.2,2.9,0.4,4.1,1.3c0.9,0.7,1.4,1.5,1.9,2.5c9.2,0,18.4,0,27.7,0c0.1-0.2,0.3-0.4,0.4-0.6c1.8-2.7,4.4-4.3,7.6-5.2
	c3.6-0.9,7.2-0.5,10.8,0.3c4.7,1.1,9.2,2.9,13.4,5.2c0.3,0.2,0.7,0.2,1.1,0.3c0.1,0,0.2,0,0.4,0c36.7,0,73.5,0,110.2,0
	c1.3,0,2.5-0.1,3.7-0.4c3.9-1.2,6.5-4.8,6.6-8.8c0-0.1,0-0.2,0-0.3c0-31.6,0-63.2,0-94.8c0-3.5-1.4-6.2-4.4-8.1
	c-1.5-1-3.1-1.5-4.9-1.5c-0.4,0-0.7,0-1,0c-76.9,0-153.9,0-230.8,0c-4.3,0-8.6,0-13,0c-3.3,0-6.1,2.2-6.9,5.4
	c-0.2,0.7-0.3,1.4-0.3,2.2c0,20.3,0.1,40.6,0.1,60.9c0,12.4,0,24.8,0.1,37.3c0,1,0.1,2,0.3,2.9c0.8,3.1,3.5,5.2,6.6,5.4
	c0.1,0,0.2,0,0.3,0C21.9,116.3,22.3,115.7,22.6,115.1z M238.8,54.9c0-2.4,0-4.7,0-7s0-4.6,0-7c0-2.3,0-4.7,0-7c0-2.3,0-4.6,0-6.9
	c4.9,0,9.6,0,14.4,0c0,24.8,0,49.5,0,74.3c-0.9,0.2-13.7,0.2-14.4-0.1c0-2.7,0-5.4,0-8.1s0-5.4,0-8.1c0-2.7,0-5.5,0-8.2
	c0-2.7,0-5.4,0-8.1c-8.3,0-16.6,0-24.9,0c0,10.9,0,21.7,0,32.5c-1.1,0.2-13.7,0.2-14.3,0c-0.2-1.3-0.1-73.7,0.1-74.3
	c4.7,0,9.4,0,14.3,0c0,9.3,0,18.6,0,28C222.2,54.9,230.4,54.9,238.8,54.9z M51.9,52.2c0.4-0.4,0.7-0.6,0.9-0.8
	c4-3.7,8.6-5.9,14.1-6.4c3.8-0.3,7.5,0,11,1.4c6.7,2.6,11.4,7.3,14.4,13.7c3,6.3,3.4,13,2.3,19.8c-1,6.4-4.1,11.8-8.9,16.2
	c-4.8,4.4-10.5,6.7-17.1,6.7c-4.5,0-8.7-1.2-12.5-3.7c-1.2-0.8-2.4-1.8-3.6-2.8c-0.2-0.2-0.4-0.3-0.8-0.6c0,2,0,3.8,0,5.6
	c-0.8,0.2-13.1,0.2-13.8,0c0-18.3,0-36.6,0-54.9c1-0.2,13.1-0.2,13.8,0C51.9,48.2,51.9,50.1,51.9,52.2z M128.8,77.7
	c0-0.2-0.1-0.3-0.1-0.4c-0.2-3.8,0.1-7.6,1-11.3c2.1-8.2,6.9-14.3,14.4-18.1c6.4-3.2,13.1-3.8,20-2.4c9.7,2,16.4,7.8,20.2,16.8
	c2.5,5.8,2.8,11.9,1.6,18.1c-1.9,10.3-9.7,18.6-19.8,21.3c-5.3,1.4-10.6,1.4-15.9,0.6c-7.3-1.2-13.1-4.9-17.5-10.8
	c-0.2-0.2-0.3-0.5-0.5-0.8c3.9-1.9,7.8-3.7,11.6-5.5c0.3,0.2,0.5,0.4,0.7,0.6c1.5,1.4,3.3,2.5,5.2,3.3c3.4,1.4,6.9,1.8,10.6,1.3
	c6.5-0.9,11.3-5.4,12.6-11.8c0.1-0.2,0-0.5,0.1-0.8C158.2,77.7,143.5,77.7,128.8,77.7z M118.9,25c0,0.2,0.1,0.2,0.1,0.3
	c0,25.2,0,50.3,0,75.5c0,0.1,0,0.2-0.1,0.3c0,0,0,0.1,0,0.1c0,0,0,0-0.1,0.1c-4.5,0-9.1,0-13.7,0c0-25.5,0-50.9,0-76.3
	C109.8,25,114.3,25,118.9,25z M46.5,16.4c0.3,0,0.5-0.1,0.7-0.1c5,0,10,0,15,0c0.5,0,0.8,0.2,1,0.6c3.8,6.2,7.6,12.4,11.3,18.6
	c0.1,0.2,0.2,0.4,0.3,0.7c-0.4,0-0.7,0-1,0c-2.7,0-5.3,0-8,0c-0.6,0-1.1-0.2-1.5-0.7C58.6,29.4,52.8,23.2,47,17.1
	C46.9,16.9,46.7,16.7,46.5,16.4z"/>
<path class="st0" d="M146.1,153.3c-0.1,0.7-0.1,1.3-0.1,1.9c0,1.1-0.1,2.1-0.1,3.2c0.1,1.5,0.8,2.6,2.1,3.3c1,0.6,2.1,1,3.3,1.1
	c0.5,0.1,1,0,1.5-0.1c0.7-0.2,1.2-0.6,1.2-1.4c0.1-1.9,0.2-3.8,0.2-5.6c0-1.6-0.1-3.3-0.2-5c0-0.4,0-0.7,0-1.1
	c0.9,0.1,1.7,0.2,2.5,0.2c0.6,0,1.2-0.1,1.7-0.4c1.1-0.4,1.3-1.4,0.7-2.3c-0.5-0.7-1.1-1.3-1.9-1.8c-1.1-0.6-2.2-1.3-3.6-1.4
	c-0.2-1.3-0.4-2.6-0.5-3.8c-0.6-3.9-1.4-7.8-2.3-11.7c-0.5-2.3-3.3-3.8-5.6-3.3c-0.9,0.2-1.1,0.7-1,1.5c0.5,3.4,1.1,6.9,1.6,10.3
	c0.2,1.5,0.3,2.9,0.4,4.5c-0.4-0.2-0.7-0.4-1-0.5c-4.4-2.3-8-5.5-10.8-9.6c-1.4-2-2.2-4.2-2.4-6.6c-0.1-0.7,0-1.5,0.2-2.2
	c0.5-2,2-3.1,4.2-3.1c2.6,0,5.2,0.4,7.7,1.1c3.4,0.9,6.6,2.2,9.7,3.8c0.6,0.3,1.2,0.5,1.8,0.7c0.2,0.1,0.5,0.1,0.8,0
	c0.9-0.1,1.3-0.9,0.8-1.6c-0.3-0.5-0.8-1-1.3-1.3c-1.9-1.2-3.9-2.4-5.9-3.4c-3.6-1.8-7.3-3.3-11.3-4c-2.6-0.5-5.3-0.7-7.9-0.1
	c-1.5,0.3-2.8,1-3.9,1.9c-2.1,1.8-2.7,4.1-2.4,6.7c0.3,3.8,1.9,7,4.1,10c4,5.4,9.2,9.4,15.2,12.4c0.6,0.3,1.3,0.6,2.1,1
	c-0.3,0.1-0.5,0.3-0.7,0.4c-5.1,2.1-10,4.4-14.9,6.8c-0.2,0.1-0.3,0.2-0.5,0.2c-1.4,0.6-1.3,1.8-0.8,2.6c1.3,1.8,3,2.7,5.3,2.7
	c0.4,0,0.9-0.3,1.3-0.5c3.3-1.7,6.6-3.4,10-5.2C145.4,153.6,145.7,153.5,146.1,153.3z"/>
<path class="st0" d="M108.3,148.6c0.2,0.4,0.3,0.6,0.4,0.7c1.7,2.9,4.2,4.8,7.5,5.4c3,0.6,5.2-0.8,6.2-3.5c1.1-3.1,1.4-6.2,1.3-9.4
	c-0.1-3.4-0.7-6.8-1.7-10.1c-0.1-0.5-0.4-1-0.7-1.4c-1.5-1.4-3.3-2.2-5.4-2c-0.2,0-0.3,0-0.5,0.1c-1,0.3-1.4,0.8-1.2,1.9
	c0.2,1,0.4,2.1,0.6,3.1c0.6,3.8,0.8,7.7,0.1,11.5c-0.2,0.9-0.4,1.8-0.7,2.7c-0.1,0-0.1,0-0.2,0c-0.2-0.3-0.4-0.6-0.5-0.9
	c-1.3-3-2.6-5.9-3.9-8.9c-0.6-1.4-1.2-2.9-1.9-4.3c-0.3-0.6-0.5-1.3-0.3-1.9c0.3-1.8-0.6-3.1-2.1-4c-1-0.6-2.1-1-3.3-1.2
	c-0.3-0.1-0.7-0.1-1,0c-1.3,0.2-2,0.8-1.9,2.2c0.1,4.7,0.2,9.5,0.4,14.2c0.3,5,0.8,9.9,2.1,14.8c1.6,6.4,5.5,10.7,12,12.6
	c1.4,0.4,2.8,0.6,4.3,0.3c1.2-0.3,2.2-0.8,2.9-1.8c0.4-0.6,0.4-1.1-0.1-1.6c-1.1-1-2.4-1.7-3.9-1.4c-2.2,0.4-4-0.4-5.3-2.2
	c-1-1.4-1.5-3.1-1.8-4.8c-0.4-2.1-0.6-4.1-0.9-6.2c-0.1-1-0.2-2.1-0.3-3.1C108.3,149.2,108.3,149,108.3,148.6z"/>
<path class="st0" d="M37.8,160.5c-0.8-0.6-1.2-1.3-1.6-2.1c-0.7-1.4-1.1-3-1.4-4.6c-0.5-2.7-0.8-5.4-0.9-8.2
	c-0.2-4.5-0.3-8.9-0.5-13.4c-0.2-2.7-0.2-5.4-0.2-8.1c0-1.2-0.2-2.3-0.5-3.4c-0.5-2.2-2.1-3.4-4.3-3.9c-2.1-0.5-3.3,0.3-3.6,2.4
	c-0.1,0.5-0.1,1.1-0.1,1.7c0,1.1,0.1,2.1,0.1,3.2c0.2,6.4,0.3,12.9,0.6,19.3c0.1,3.8,0.6,7.6,1.7,11.3c0.8,2.6,1.9,5.1,3.8,7.1
	c2.7,2.9,6.1,4.5,10.1,4.6c2.4,0,4-1.3,4.4-3.7c0.4-2.5,0.2-4.9-0.3-7.3c-0.7-3-1.8-5.9-3.1-8.7c-0.5-0.9-1.3-1.4-2.2-1.6
	c-0.7-0.2-1,0-1.1,0.7c-0.2,1.2,0,2.4,0.2,3.6c0.2,1.6,0.5,3.3,0.7,4.9c0.2,1.2,0.2,2.3-0.1,3.5C39.3,158.9,38.8,159.8,37.8,160.5z"
	/>
<path class="st0" d="M75.7,125.3c-1.1-1.1-2.3-1.8-3.8-1.9c-0.3,0-0.7,0-1,0.1c-0.8,0.2-1.3,0.8-1.1,1.7c0.3,1.9,0.6,3.7,0.9,5.6
	c0.6,4.2,1,8.4,0.7,12.6c-0.1,1.1-0.1,2.2,0.1,3.3c0.4,2.2,1.9,3.4,3.9,4c1.3,0.4,2.5-0.1,3.3-1.3c0.6-0.8,0.8-1.8,0.9-2.8
	c0-0.3,0-0.5,0.1-0.9c0.2,0.2,0.4,0.4,0.5,0.6c1,1.3,2.1,2.6,3.4,3.6c1.3,1,2.7,1.8,4.3,2.1c1,0.2,2.1,0.2,3.1-0.1
	c1.4-0.4,2.4-1.3,2.9-2.6c0.7-1.7,0.8-3.4,0.6-5.2c-0.7-6-3-11.4-6.7-16.2c-0.9-1.2-2-2.3-3.2-3.2c-1.7-1.2-3.7-1.6-5.7-1.4
	C77.6,123.2,76.7,123.8,75.7,125.3z M86.1,143.3c0,0.4-0.1,1.1-0.2,1.6c-0.1,0.4-0.1,0.9-0.6,1c-0.3,0-0.7-0.3-0.9-0.5
	c-2.7-2.7-4.6-6-5.5-9.7c-0.6-2.5-0.6-5,0.4-7.4c0.1-0.2,0.2-0.5,0.3-0.7c0.2-0.3,0.5-0.4,0.8-0.1c0.3,0.4,0.7,0.8,1,1.2
	C84.4,133.1,85.9,137.9,86.1,143.3z"/>
<path class="st0" d="M50.2,123.5c1.6,1.8,2.8,3.5,3.9,5.5c2,3.7,3,7.7,3.3,11.9c0.1,1,0.1,2.1,0.1,3.1c0,0.7,0.2,1.3,0.7,1.8
	c1.5,1.7,3.3,2.6,5.5,2.8c0.2,0,0.5,0,0.7-0.1c1-0.2,1.5-0.8,1.5-1.8c0-1.5-0.1-3-0.2-4.5c-0.2-2.6-0.3-5.2-0.5-7.7
	c-0.1-1.4-0.2-2.9-0.3-4.3c-0.1-0.7-0.4-1.2-0.8-1.7c-1.3-1.4-2.9-2.1-4.8-2.3c-0.7-0.1-1.4,0.1-2.1,0.7c-0.2-0.3-0.4-0.6-0.5-0.9
	c-1.1-1.7-2.4-3.2-4-4.4c-1.3-0.9-2.7-1.6-4.4-1.8c-2.7-0.3-4.8,0.7-6.2,3c-1,1.6-1.3,3.3-1.3,5.1c0,0.5,0,1,0,1.5
	c0.2,2.2,0.2,4.5,0,6.7c-0.1,1.7-0.1,3.4,0.3,5.1c0,0.2,0.1,0.4,0.2,0.6c1,1.6,2.2,2.9,4,3.5c0.8,0.3,1.6,0.1,2.2-0.3
	c1.5-1.1,1.6-0.7,1.6-2.7c0-2.2,0.1-4.4,0-6.6c-0.1-2.9-0.3-5.8-0.4-8.7c0-0.9,0.1-1.8,0.7-2.6C49.5,124,49.9,123.8,50.2,123.5z"/>
<path class="st0" d="M21,136c-0.3-5.8-2.1-11.1-5.6-15.7c-1.8-2.3-4-4.2-6.8-5.2c-1.5-0.6-3-0.8-4.6-0.7c-1,0.1-2,0.4-2.8,1.1
	c-1.1,0.8-1.4,1.8-1,3.1c0.3,1.1,0.9,2,1.6,2.9c1.7,2.2,3.5,4.2,5.7,5.9c1.5,1.2,3,2.3,4.5,3.4c0.4,0.3,0.7,0.6,0.7,1.2
	c0.2,1.6,0.2,3.1-0.4,4.5c-0.5,1.2-1.3,1.6-2.5,1.3c-0.4-0.1-0.8-0.3-1.2-0.4c-1.5-0.6-2.7-1.4-3.7-2.6c-0.5-0.6-1.2-0.9-2-0.9
	c-0.5,0-0.7,0.2-0.5,0.7c0.4,0.8,0.8,1.6,1.3,2.2c3.1,3.6,7,5.5,11.7,5.6c0.6,0,1.3-0.1,2-0.3c2.3-0.7,3.6-2.4,3.7-4.8
	C21,136.8,21,136.4,21,136z M11.5,127.7c-0.1,0-0.2,0-0.3-0.1c-1.8-1.4-3.6-2.9-5-4.7c-0.3-0.3-0.5-0.7-0.7-1.1
	c-0.3-0.5,0-1.3,0.5-1.8c0.7-0.5,0.9-0.5,1.6,0.2c0.2,0.2,0.3,0.3,0.5,0.5c1.6,1.9,2.6,4.2,3.4,6.6
	C11.6,127.5,11.5,127.6,11.5,127.7z"/>
<path class="st0" d="M88.3,121c1.3,0,2.1-0.7,2.1-1.8c0.1-1-0.6-1.8-1.6-2c-1.3-0.2-2.6-0.4-3.9-0.5c-3.2-0.4-6.5-0.9-9.7-1.3
	c-1.3-0.2-2.6-0.4-3.9-0.5c-1-0.1-1.9,0.5-2.1,1.5c-0.2,1.2,0.3,2.1,1.5,2.3c1.5,0.3,3.1,0.4,4.6,0.7c3.2,0.4,6.4,0.9,9.6,1.3
	C86.1,120.7,87.3,120.8,88.3,121z"/>
<path class="st0" d="M23.9,107.6c0.1,0.8,0.1,1.8,0.3,2.7c0.1,0.6,0.4,1.3,0.9,1.8c1.5,1.8,3.5,2.6,5.9,2.2c1-0.2,1.5-0.8,1.5-1.7
	c0-0.5,0-0.9-0.1-1.4c-0.1-0.8-0.3-1.6-0.5-2.4s-0.5-1.5-1.1-2c-1.3-1.3-3-2-4.9-1.9c-1.3,0.1-1.9,0.7-2,2.1
	C23.9,107.1,23.9,107.3,23.9,107.6z"/>
<path class="st0" d="M238.8,54.9c-8.4,0-16.6,0-24.9,0c0-9.3,0-18.6,0-28c-4.8,0-9.6,0-14.3,0c-0.2,0.6-0.3,73-0.1,74.3
	c0.6,0.2,13.2,0.2,14.3,0c0-10.8,0-21.6,0-32.5c8.3,0,16.6,0,24.9,0c0.1,2.7,0,5.4,0,8.1c0,2.7,0,5.5,0,8.2c0,2.7,0,5.4,0,8.1
	s0,5.4,0,8.1c0.7,0.2,13.5,0.3,14.4,0.1c0-24.7,0-49.5,0-74.3c-4.8,0-9.5,0-14.4,0c0,2.3,0,4.6,0,6.9c0,2.3,0,4.7,0,7
	c0,2.3,0,4.6,0,7C238.8,50.2,238.8,52.5,238.8,54.9z"/>
<path class="st0" d="M51.9,52.2c0-2.1,0-3.9,0-5.8c-0.7-0.2-12.8-0.2-13.8,0c0,18.3,0,36.6,0,54.9c0.7,0.2,12.9,0.2,13.8,0
	c0-1.8,0-3.6,0-5.6c0.3,0.3,0.5,0.5,0.8,0.6c1.2,0.9,2.3,1.9,3.6,2.8c3.8,2.6,7.9,3.7,12.5,3.7c6.6,0.1,12.2-2.3,17.1-6.7
	c4.8-4.4,7.9-9.8,8.9-16.2c1.1-6.8,0.6-13.5-2.3-19.8c-3-6.4-7.7-11.1-14.4-13.7c-3.6-1.4-7.3-1.7-11-1.4
	c-5.4,0.5-10.1,2.7-14.1,6.4C52.6,51.5,52.4,51.8,51.9,52.2z M66.5,57.4c1.1,0.1,2.3,0.2,3.4,0.4c4.7,1,7.9,3.9,9.9,8.1
	c1.9,4,2.1,8.2,1.1,12.5c-1.5,6.4-7.6,13-17.2,11.4c-4.9-0.8-8.5-3.6-10.7-8.1c-1.8-3.7-2.1-7.7-1.4-11.7
	C52.9,62.5,58.8,57.5,66.5,57.4z"/>
<path class="st0" d="M128.8,77.7c14.8,0,29.5,0,44.3,0c0,0.3,0,0.6-0.1,0.8c-1.3,6.4-6,10.9-12.6,11.8c-3.6,0.5-7.2,0.2-10.6-1.3
	c-1.9-0.8-3.6-1.9-5.2-3.3c-0.2-0.2-0.4-0.4-0.7-0.6c-3.9,1.8-7.7,3.6-11.6,5.5c0.2,0.3,0.3,0.5,0.5,0.8c4.4,5.9,10.2,9.6,17.5,10.8
	c5.3,0.9,10.6,0.8,15.9-0.6c10.1-2.7,17.9-11,19.8-21.3c1.1-6.2,0.9-12.3-1.6-18.1c-3.8-9-10.5-14.8-20.2-16.8
	c-6.9-1.4-13.7-0.8-20,2.4c-7.6,3.8-12.3,9.9-14.4,18.1c-1,3.7-1.2,7.5-1,11.3C128.7,77.4,128.7,77.5,128.8,77.7z M142.6,66.8
	c0.2-0.5,0.3-0.8,0.4-1.2c1.4-3.5,4-6,7.5-7.5c3.6-1.6,7.3-1.8,11.1-0.9c4.2,1,7.5,3.2,9.6,7c0.4,0.6,0.7,1.3,1,1.9
	c0.1,0.2,0.2,0.4,0.3,0.7C162.5,66.8,152.7,66.8,142.6,66.8z"/>
<path class="st0" d="M118.9,25c-4.6,0-9.2,0-13.8,0c0,25.4,0,50.8,0,76.3c4.6,0,9.1,0,13.7,0c0,0,0.1-0.1,0.1-0.1c0,0,0,0,0-0.1
	c0-0.1,0.1-0.2,0.1-0.3c0-25.2,0-50.3,0-75.5C119,25.2,118.9,25.2,118.9,25z"/>
<path class="st0" d="M46.5,16.4c0.3,0.3,0.4,0.5,0.5,0.6c5.8,6.2,11.5,12.3,17.3,18.5c0.4,0.5,0.9,0.7,1.5,0.7c2.7,0,5.3,0,8,0
	c0.3,0,0.6,0,1,0c-0.1-0.3-0.2-0.5-0.3-0.7c-3.8-6.2-7.6-12.4-11.3-18.6c-0.3-0.4-0.5-0.6-1-0.6c-5,0-10,0-15,0
	C47,16.4,46.8,16.4,46.5,16.4z"/>
<path class="st1" d="M66.5,57.4c-7.7,0.1-13.6,5.1-14.9,12.7c-0.7,4-0.4,8,1.4,11.7c2.2,4.4,5.7,7.3,10.7,8.1
	c9.6,1.6,15.7-5,17.2-11.4c1-4.3,0.8-8.5-1.1-12.5c-2-4.2-5.3-7.1-9.9-8.1C68.7,57.6,67.6,57.5,66.5,57.4z"/>
<path class="st1" d="M142.6,66.8c10,0,19.9,0,29.8,0c-0.1-0.3-0.2-0.5-0.3-0.7c-0.3-0.6-0.7-1.3-1-1.9c-2.1-3.8-5.4-6.1-9.6-7
	c-3.8-0.9-7.5-0.7-11.1,0.9c-3.4,1.5-6,4-7.5,7.5C142.9,66,142.8,66.3,142.6,66.8z"/>
<path class="st1" d="M644.9,115.1c0.3-0.3,0.5-0.7,0.7-0.9c1-1.2,1.3-2.7,1.5-4.3c0-0.3,0.1-0.6,0.1-0.9c0.3-1.5,0.1-3-0.4-4.4
	c-0.6-1.5-1.6-2.5-3.2-3c-3.4-1-6.4-0.1-9,2.1c-1.2,1-2.1,2.3-2.5,3.9c-0.2,1.2-0.5,2.3-0.8,3.5c-0.3,1.8,0,3.4,1,4.9
	c0.1,0.1,0.2,0.2,0.3,0.4c-0.1,0.4-0.3,0.6-0.7,0.6c-2.3,0-4.7,0-7.1,0c-0.2,0-0.4-0.1-0.6-0.1c-1.1-0.3-2.2-0.6-3.3-0.8
	c-0.7-0.1-1.4-0.1-2.1,0c-1.1,0.2-2.2,0.5-3.3,0.8c-0.3,0.1-0.5,0.1-0.8,0.1c-4.1,0-8.3,0-12.4,0c-0.1,0-0.2,0-0.4,0
	c-0.1-0.4-0.3-0.9-0.3-1.3c-0.3-1.9-1.5-3.1-3.1-3.9c-1-0.5-2.1-0.7-3.2-0.6c-2.2,0.3-4.3,0.6-6.5,0.8c-3.1,0.4-6.2,0.8-9.3,1.2
	c-1.4,0.2-2.9,0.4-4.1,1.3c-0.9,0.7-1.4,1.5-1.9,2.5c-9.2,0-18.4,0-27.7,0c-0.1-0.2-0.3-0.4-0.4-0.6c-1.8-2.7-4.4-4.3-7.6-5.2
	c-3.6-0.9-7.2-0.5-10.8,0.3c-4.7,1.1-9.2,2.9-13.4,5.2c-0.3,0.2-0.7,0.2-1.1,0.3c-0.1,0-0.2,0-0.3,0c-36.7,0-73.5,0-110.2,0
	c-1.3,0-2.5-0.1-3.7-0.4c-3.9-1.2-6.5-4.8-6.6-8.8c0-0.1,0-0.2,0-0.3c0-31.6,0-63.2,0-94.8c0-3.5,1.4-6.2,4.4-8.1
	c1.5-1,3.1-1.5,4.9-1.5c0.4,0,0.7,0,1,0c76.9,0,153.9,0,230.8,0c4.3,0,8.7,0,13,0c3.3,0,6.1,2.2,6.9,5.4c0.2,0.7,0.3,1.4,0.3,2.2
	c0,20.3-0.1,40.6-0.1,60.9c0,12.4,0,24.8-0.1,37.3c0,1-0.1,2-0.3,2.9c-0.8,3.1-3.5,5.2-6.6,5.4c-0.1,0-0.2,0-0.3,0
	C645.6,116.3,645.2,115.7,644.9,115.1z M428.7,54.9c0-2.4,0-4.7,0-7s0-4.6,0-7c0-2.3,0-4.7,0-7c0-2.3,0-4.6,0-6.9
	c-4.9,0-9.6,0-14.4,0c0,24.8,0,49.5,0,74.3c0.9,0.2,13.7,0.2,14.4-0.1c0-2.7,0-5.4,0-8.1s0-5.4,0-8.1c0-2.7,0-5.5,0-8.2
	c0-2.7,0-5.4,0-8.1c8.3,0,16.6,0,24.9,0c0,10.9,0,21.7,0,32.5c1.1,0.2,13.7,0.2,14.3,0c0.2-1.3,0.1-73.7-0.1-74.3
	c-4.7,0-9.5,0-14.3,0c0,9.3,0,18.6,0,28C445.3,54.9,437.1,54.9,428.7,54.9z M615.5,52.2c-0.4-0.4-0.7-0.6-0.9-0.8
	c-4-3.7-8.6-5.9-14.1-6.4c-3.8-0.3-7.5,0-11,1.4c-6.7,2.6-11.4,7.3-14.4,13.7c-3,6.3-3.4,13-2.3,19.8c1,6.4,4.1,11.8,8.9,16.2
	c4.8,4.4,10.5,6.7,17.1,6.7c4.5,0,8.7-1.2,12.5-3.7c1.2-0.8,2.4-1.8,3.6-2.8c0.2-0.2,0.4-0.3,0.8-0.6c0,2,0,3.8,0,5.6
	c0.8,0.2,13.1,0.2,13.8,0c0-18.3,0-36.6,0-54.9c-1-0.2-13.1-0.2-13.8,0C615.5,48.2,615.5,50.1,615.5,52.2z M538.7,77.7
	c0-0.2,0.1-0.3,0.1-0.4c0.2-3.8-0.1-7.6-1-11.3c-2.1-8.2-6.9-14.3-14.5-18.1c-6.3-3.2-13.1-3.8-20-2.4c-9.7,2-16.4,7.8-20.2,16.8
	c-2.5,5.8-2.8,11.9-1.6,18.1c1.9,10.3,9.7,18.6,19.8,21.3c5.3,1.4,10.5,1.4,15.9,0.6c7.3-1.2,13.1-4.9,17.5-10.8
	c0.2-0.2,0.3-0.5,0.5-0.8c-3.9-1.9-7.8-3.7-11.7-5.5c-0.3,0.2-0.5,0.4-0.7,0.6c-1.5,1.4-3.3,2.5-5.2,3.3c-3.4,1.4-6.9,1.8-10.6,1.3
	c-6.5-0.9-11.3-5.4-12.6-11.8c0-0.2,0-0.5-0.1-0.8C509.3,77.7,524,77.7,538.7,77.7z M548.6,25c0,0.2-0.1,0.2-0.1,0.3
	c0,25.2,0,50.3,0,75.5c0,0.1,0,0.2,0,0.3c0,0,0,0.1,0,0.1c0,0,0,0,0.1,0.1c4.5,0,9.1,0,13.7,0c0-25.5,0-50.9,0-76.3
	C557.7,25,553.2,25,548.6,25z M621,16.4c-0.3,0-0.5-0.1-0.7-0.1c-5,0-10,0-15,0c-0.5,0-0.8,0.2-1,0.6c-3.8,6.2-7.5,12.4-11.3,18.6
	c-0.1,0.2-0.2,0.4-0.3,0.7c0.4,0,0.7,0,1,0c2.7,0,5.3,0,8,0c0.6,0,1.1-0.2,1.5-0.7c5.8-6.2,11.5-12.3,17.3-18.5
	C620.6,16.9,620.8,16.7,621,16.4z"/>
<path class="st0" d="M347.5,118.4c0-13.6,0-27,0-40.4c-0.7-0.2-19.4-0.3-21.5-0.1c-0.1,2.7,0,5.4,0,8c0,2.7,0,5.4,0,8.1s0,5.4,0,8.1
	s0,5.4,0,8.1c0,2.7,0,5.4,0,8.2c-0.6,0-1.2,0-1.8,0c-1.6,0-3.3-0.1-5-0.1c-4.5-0.1-8.9-0.2-13.4-0.4c-4.5-0.2-8.9-1.1-13.1-2.8
	c-5.9-2.3-9.4-6.8-10.9-12.8c-0.8-3.2-0.9-6.4-0.5-9.6c1.7-12.5,6.1-24.1,13.1-34.6c5.7-8.6,12.5-16.3,20.2-23.2
	c0.4-0.4,0.9-0.5,1.4-0.5c8.3,0,16.5,0,24.7,0c5.5,0,11,0,16.5,0c0.6,0,1.2,0.1,1.7,0.5c2,1.2,3.8,2.6,5.4,4.2
	c4.6,4.3,8.2,9.4,11.2,15c3.9,7.1,6.6,14.7,8.6,22.5c0.9,3.3,1.6,6.7,2,10.1c0.5,4.6,0.6,9.2-0.6,13.7c-1.8,7.1-6.2,12.1-12.9,15
	c-3.3,1.4-6.7,2.2-10.2,2.4c-2.4,0.2-4.8,0.2-7.1,0.3c-2.4,0.1-4.8,0.2-7.1,0.3C348.2,118.5,347.9,118.4,347.5,118.4z M337.3,43.3
	c-7.4,0-13.6,6-13.6,13.4c0,7.7,6,13.5,13.2,13.7c7.5,0.2,13.8-5.7,13.9-13.4C350.9,49.5,344.9,43.4,337.3,43.3z"/>
<path class="st0" d="M337.9,24.6c-6.8,0-13.6,0-20.4,0c-0.6,0-1.1-0.2-1.6-0.5c-3.5-2.8-6.9-5.7-9.7-9.3c-0.9-1.1-1.7-2.4-2.4-3.7
	c-0.5-0.8-0.7-1.8-0.9-2.7c-0.4-2.8,1.2-4.7,2.8-5.6c2-1,4.1-1.3,6.3-1.1c2.1,0.2,4.1,0.9,6,1.6c1.7,0.6,3.5,1.2,5.3,1.7
	c2,0.5,4,0.2,5.8-0.9c1-0.6,2-1.2,2.9-1.9c1.3-0.9,2.5-1.6,4-2c1.6-0.4,3.3-0.3,4.8,0.3c1.5,0.6,3,1.4,4.5,2.2c1,0.5,1.9,0.9,3,1.1
	c1.5,0.2,3,0,4.4-0.5c1.1-0.4,2.2-0.8,3.2-1.3c2.7-1.1,5.5-1.2,8.3-0.4c4,1.2,5.9,4.8,4.8,8.8c-0.5,1.8-1.3,3.5-2.3,5
	c-2,3.2-4.6,6.1-7.3,8.8c-0.4,0.4-0.7,0.4-1.2,0.4C351.6,24.6,344.8,24.6,337.9,24.6z"/>
<path class="st0" d="M521.4,153.3c0,0.7,0.1,1.3,0.1,1.9c0,1.1,0.1,2.1,0.1,3.2c-0.1,1.5-0.8,2.6-2.1,3.3c-1,0.6-2.1,1-3.3,1.1
	c-0.5,0.1-1,0-1.5-0.1c-0.7-0.2-1.2-0.6-1.2-1.4c-0.1-1.9-0.2-3.8-0.2-5.6c0-1.6,0.1-3.3,0.2-5c0-0.4,0-0.7,0-1.1
	c-0.9,0.1-1.7,0.2-2.5,0.2c-0.6,0-1.2-0.1-1.7-0.4c-1.1-0.4-1.3-1.4-0.7-2.3c0.5-0.7,1.1-1.3,1.9-1.8c1.1-0.6,2.2-1.3,3.6-1.4
	c0.2-1.3,0.4-2.6,0.5-3.8c0.6-3.9,1.4-7.8,2.3-11.7c0.5-2.3,3.3-3.8,5.6-3.3c0.8,0.2,1.1,0.7,1,1.5c-0.5,3.4-1.1,6.9-1.6,10.3
	c-0.2,1.5-0.3,2.9-0.4,4.5c0.4-0.2,0.7-0.4,1-0.5c4.4-2.3,8-5.5,10.8-9.6c1.4-2,2.2-4.2,2.4-6.6c0-0.7,0-1.5-0.2-2.2
	c-0.5-2-2-3.1-4.2-3.1c-2.6,0-5.2,0.4-7.7,1.1c-3.4,0.9-6.6,2.2-9.7,3.8c-0.6,0.3-1.2,0.5-1.8,0.7c-0.2,0.1-0.5,0.1-0.8,0
	c-0.9-0.1-1.3-0.9-0.8-1.6c0.3-0.5,0.8-1,1.3-1.3c1.9-1.2,3.9-2.4,5.9-3.4c3.6-1.8,7.3-3.3,11.3-4c2.6-0.5,5.3-0.7,8-0.1
	c1.5,0.3,2.8,1,4,1.9c2.1,1.8,2.7,4.1,2.4,6.7c-0.3,3.8-1.9,7-4.2,10c-4,5.4-9.2,9.4-15.2,12.4c-0.7,0.3-1.3,0.6-2.1,1
	c0.3,0.1,0.5,0.3,0.7,0.4c5,2.1,10,4.4,14.9,6.8c0.2,0.1,0.3,0.2,0.5,0.2c1.4,0.6,1.3,1.8,0.8,2.6c-1.3,1.8-3,2.7-5.3,2.7
	c-0.4,0-0.9-0.3-1.3-0.5c-3.3-1.7-6.6-3.4-10-5.2C522.1,153.6,521.8,153.5,521.4,153.3z"/>
<path class="st0" d="M559.2,148.6c-0.2,0.4-0.3,0.6-0.4,0.7c-1.7,2.9-4.2,4.8-7.5,5.4c-3,0.6-5.2-0.8-6.2-3.5
	c-1-3.1-1.4-6.2-1.3-9.4c0.1-3.4,0.7-6.8,1.7-10.1c0.1-0.5,0.4-1,0.7-1.4c1.5-1.4,3.3-2.2,5.4-2c0.2,0,0.3,0,0.5,0.1
	c1,0.3,1.4,0.8,1.2,1.9c-0.2,1-0.4,2.1-0.6,3.1c-0.6,3.8-0.8,7.7-0.1,11.5c0.2,0.9,0.4,1.8,0.7,2.7c0.1,0,0.1,0,0.2,0
	c0.2-0.3,0.4-0.6,0.5-0.9c1.3-3,2.6-5.9,3.9-8.9c0.6-1.4,1.2-2.9,1.9-4.3c0.3-0.6,0.5-1.3,0.3-1.9c-0.3-1.8,0.6-3.1,2-4
	c1-0.6,2.1-1,3.3-1.2c0.3-0.1,0.7-0.1,1,0c1.3,0.2,2,0.8,2,2.2c-0.1,4.7-0.2,9.5-0.4,14.2c-0.3,5-0.8,9.9-2.1,14.8
	c-1.6,6.4-5.5,10.7-12,12.6c-1.4,0.4-2.8,0.6-4.3,0.3c-1.2-0.3-2.2-0.8-2.9-1.8c-0.4-0.6-0.4-1.1,0.1-1.6c1.1-1,2.4-1.7,4-1.4
	c2.2,0.4,4-0.4,5.3-2.2c1-1.4,1.5-3.1,1.8-4.8c0.4-2.1,0.6-4.1,0.9-6.2c0.1-1,0.2-2.1,0.3-3.1C559.2,149.2,559.2,149,559.2,148.6z"
	/>
<path class="st0" d="M629.6,160.5c0.8-0.6,1.2-1.3,1.6-2.1c0.7-1.4,1.1-3,1.4-4.6c0.5-2.7,0.8-5.4,0.9-8.2c0.2-4.5,0.3-8.9,0.5-13.4
	c0.2-2.7,0.2-5.4,0.2-8.1c0-1.2,0.2-2.3,0.5-3.4c0.5-2.2,2.2-3.4,4.3-3.9c2.2-0.5,3.3,0.3,3.6,2.4c0.1,0.5,0.1,1.1,0.1,1.7
	c0,1.1-0.1,2.1-0.1,3.2c-0.2,6.4-0.3,12.9-0.6,19.3c-0.1,3.8-0.6,7.6-1.7,11.3c-0.8,2.6-1.9,5.1-3.8,7.1c-2.7,2.9-6.1,4.5-10.1,4.6
	c-2.4,0-4-1.3-4.4-3.7c-0.4-2.5-0.2-4.9,0.3-7.3c0.7-3,1.8-5.9,3.1-8.7c0.5-0.9,1.3-1.4,2.2-1.6c0.7-0.2,1,0,1.1,0.7
	c0.2,1.2,0,2.4-0.2,3.6c-0.2,1.6-0.5,3.3-0.7,4.9c-0.2,1.2-0.2,2.3,0.1,3.5C628.2,158.9,628.6,159.8,629.6,160.5z"/>
<path class="st0" d="M591.8,125.3c1.1-1.1,2.3-1.8,3.8-1.9c0.3,0,0.7,0,1,0.1c0.8,0.2,1.3,0.8,1.1,1.7c-0.3,1.9-0.6,3.7-0.9,5.6
	c-0.6,4.2-1,8.4-0.7,12.6c0.1,1.1,0.1,2.2-0.1,3.3c-0.4,2.2-1.9,3.4-3.9,4c-1.3,0.4-2.5-0.1-3.3-1.3c-0.6-0.8-0.8-1.8-0.9-2.8
	c0-0.3,0-0.5-0.1-0.9c-0.2,0.2-0.4,0.4-0.5,0.6c-1,1.3-2.1,2.6-3.4,3.6c-1.3,1-2.7,1.8-4.3,2.1c-1,0.2-2.1,0.2-3.1-0.1
	c-1.4-0.4-2.4-1.3-2.9-2.6c-0.7-1.7-0.8-3.4-0.6-5.2c0.7-6,3-11.4,6.7-16.2c0.9-1.2,2-2.3,3.2-3.2c1.7-1.2,3.7-1.6,5.7-1.4
	C589.9,123.2,590.8,123.8,591.8,125.3z M581.3,143.3c0,0.4,0.1,1.1,0.2,1.6c0,0.4,0.1,0.9,0.6,1c0.3,0,0.7-0.3,0.9-0.5
	c2.7-2.7,4.6-6,5.5-9.7c0.6-2.5,0.5-5-0.4-7.4c-0.1-0.2-0.2-0.5-0.3-0.7c-0.2-0.3-0.5-0.4-0.8-0.1c-0.3,0.4-0.7,0.8-1,1.2
	C583.1,133.1,581.6,137.9,581.3,143.3z"/>
<path class="st0" d="M617.3,123.5c-1.6,1.8-2.8,3.5-3.9,5.5c-2,3.7-3,7.7-3.3,11.9c-0.1,1-0.1,2.1-0.1,3.1c0,0.7-0.2,1.3-0.7,1.8
	c-1.5,1.7-3.3,2.6-5.5,2.8c-0.2,0-0.5,0-0.7-0.1c-1-0.2-1.5-0.8-1.5-1.8c0-1.5,0.1-3,0.2-4.5c0.2-2.6,0.3-5.2,0.5-7.7
	c0.1-1.4,0.2-2.9,0.3-4.3c0-0.7,0.4-1.2,0.8-1.7c1.3-1.4,2.9-2.1,4.8-2.3c0.7-0.1,1.4,0.1,2.1,0.7c0.2-0.3,0.4-0.6,0.5-0.9
	c1.1-1.7,2.4-3.2,4-4.4c1.3-0.9,2.7-1.6,4.4-1.8c2.7-0.3,4.8,0.7,6.2,3c1,1.6,1.3,3.3,1.3,5.1c0,0.5,0,1,0,1.5
	c-0.2,2.2-0.2,4.5,0,6.7c0.1,1.7,0.1,3.4-0.3,5.1c0,0.2-0.1,0.4-0.2,0.6c-1,1.6-2.2,2.9-4,3.5c-0.8,0.3-1.6,0.1-2.2-0.3
	c-1.5-1.1-1.6-0.7-1.6-2.7c0-2.2-0.1-4.4,0-6.6c0.1-2.9,0.3-5.8,0.4-8.7c0-0.9-0.1-1.8-0.7-2.6C618,124,617.6,123.8,617.3,123.5z"/>
<path class="st0" d="M646.5,136c0.3-5.8,2.1-11.1,5.6-15.7c1.8-2.3,4-4.2,6.8-5.2c1.5-0.6,3-0.8,4.6-0.7c1,0.1,2,0.4,2.8,1.1
	c1.1,0.8,1.4,1.8,1,3.1c-0.3,1.1-0.9,2-1.6,2.9c-1.7,2.2-3.5,4.2-5.7,5.9c-1.5,1.2-3,2.3-4.5,3.4c-0.4,0.3-0.7,0.6-0.7,1.2
	c-0.2,1.6-0.2,3.1,0.4,4.5c0.5,1.2,1.3,1.6,2.5,1.3c0.4-0.1,0.8-0.3,1.2-0.4c1.5-0.6,2.7-1.4,3.7-2.6c0.5-0.6,1.2-0.9,2-0.9
	c0.5,0,0.7,0.2,0.5,0.7c-0.4,0.8-0.8,1.6-1.3,2.2c-3.1,3.6-7,5.5-11.7,5.6c-0.7,0-1.3-0.1-2-0.3c-2.3-0.7-3.6-2.4-3.7-4.8
	C646.5,136.8,646.5,136.4,646.5,136z M656,127.7c0.1,0,0.2,0,0.3-0.1c1.8-1.4,3.6-2.9,5-4.7c0.3-0.3,0.5-0.7,0.7-1.1
	c0.3-0.5,0-1.3-0.5-1.8c-0.7-0.5-0.9-0.5-1.5,0.2c-0.2,0.2-0.3,0.3-0.5,0.5c-1.6,1.9-2.6,4.2-3.4,6.6
	C655.9,127.5,656,127.6,656,127.7z"/>
<path class="st0" d="M337,27.1c6.7,0,13.4,0,20.1,0c0.4,0,0.9,0,1.3,0.2c1,0.3,1.6,1.3,1.5,2.4c-0.1,1-0.7,1.9-1.8,2.1
	c-0.3,0.1-0.7,0.1-1,0.1c-13.4,0-26.8,0-40.2,0c-0.3,0-0.7,0-1-0.1c-1.2-0.3-1.9-1.4-1.8-2.5c0.1-1.1,1-2,2.2-2.1c0.3,0,0.6,0,1,0
	C323.8,27.1,330.4,27.1,337,27.1z"/>
<path class="st0" d="M579.2,121c-1.3,0-2.1-0.7-2.1-1.8c-0.1-1,0.6-1.8,1.6-2c1.3-0.2,2.6-0.4,3.9-0.5c3.2-0.4,6.5-0.9,9.7-1.3
	c1.3-0.2,2.6-0.4,3.9-0.5c1-0.1,1.9,0.5,2.1,1.5c0.2,1.2-0.3,2.1-1.5,2.3c-1.5,0.3-3.1,0.4-4.6,0.7c-3.2,0.4-6.4,0.9-9.6,1.3
	C581.4,120.7,580.2,120.8,579.2,121z"/>
<path class="st0" d="M643.6,107.6c-0.1,0.8-0.1,1.8-0.3,2.7c-0.1,0.6-0.4,1.3-0.8,1.8c-1.5,1.8-3.5,2.6-5.9,2.2
	c-1-0.2-1.5-0.8-1.5-1.7c0-0.5,0-0.9,0.1-1.4c0.1-0.8,0.3-1.6,0.5-2.4s0.5-1.5,1.1-2c1.3-1.3,3-2,4.9-1.9c1.3,0.1,1.9,0.7,2,2.1
	C643.6,107.1,643.6,107.3,643.6,107.6z"/>
<path class="st0" d="M428.7,54.9c8.4,0,16.6,0,24.9,0c0-9.3,0-18.6,0-28c4.8,0,9.6,0,14.3,0c0.2,0.6,0.3,73,0.1,74.3
	c-0.6,0.2-13.2,0.2-14.3,0c0-10.8,0-21.6,0-32.5c-8.3,0-16.5,0-24.9,0c-0.1,2.7,0,5.4,0,8.1c0,2.7,0,5.5,0,8.2c0,2.7,0,5.4,0,8.1
	s0,5.4,0,8.1c-0.7,0.2-13.5,0.3-14.4,0.1c0-24.7,0-49.5,0-74.3c4.8,0,9.5,0,14.4,0c0,2.3,0,4.6,0,6.9c0,2.3,0,4.7,0,7
	c0,2.3,0,4.6,0,7C428.7,50.2,428.7,52.5,428.7,54.9z"/>
<path class="st0" d="M615.5,52.2c0-2.1,0-3.9,0-5.8c0.7-0.2,12.8-0.2,13.8,0c0,18.3,0,36.6,0,54.9c-0.7,0.2-12.9,0.2-13.8,0
	c0-1.8,0-3.6,0-5.6c-0.3,0.3-0.5,0.5-0.8,0.6c-1.2,0.9-2.3,1.9-3.6,2.8c-3.8,2.6-7.9,3.7-12.5,3.7c-6.6,0.1-12.2-2.3-17.1-6.7
	c-4.8-4.4-7.9-9.8-8.9-16.2c-1.1-6.8-0.6-13.5,2.3-19.8c3-6.4,7.7-11.1,14.4-13.7c3.5-1.4,7.3-1.7,11-1.4c5.4,0.5,10.1,2.7,14.1,6.4
	C614.9,51.5,615.1,51.8,615.5,52.2z M601,57.4c-1.1,0.1-2.3,0.2-3.4,0.4c-4.7,1-7.9,3.9-10,8.1c-1.9,4-2,8.2-1.1,12.5
	c1.5,6.4,7.6,13,17.2,11.4c4.9-0.8,8.5-3.6,10.7-8.1c1.8-3.7,2.1-7.7,1.4-11.7C614.6,62.5,608.7,57.5,601,57.4z"/>
<path class="st0" d="M538.7,77.7c-14.8,0-29.5,0-44.3,0c0,0.3,0,0.6,0.1,0.8c1.3,6.4,6,10.9,12.6,11.8c3.6,0.5,7.2,0.2,10.6-1.3
	c1.9-0.8,3.6-1.9,5.2-3.3c0.2-0.2,0.4-0.4,0.7-0.6c3.8,1.8,7.7,3.6,11.7,5.5c-0.2,0.3-0.3,0.5-0.5,0.8c-4.4,5.9-10.2,9.6-17.5,10.8
	c-5.3,0.9-10.6,0.8-15.9-0.6c-10.1-2.7-17.9-11-19.8-21.3c-1.1-6.2-0.9-12.3,1.6-18.1c3.8-9,10.5-14.8,20.2-16.8
	c6.9-1.4,13.7-0.8,20,2.4c7.6,3.8,12.3,9.9,14.5,18.1c1,3.7,1.2,7.5,1,11.3C538.8,77.4,538.8,77.5,538.7,77.7z M524.8,66.8
	c-0.2-0.5-0.3-0.8-0.4-1.2c-1.5-3.5-4-6-7.5-7.5c-3.6-1.6-7.3-1.8-11.1-0.9c-4.2,1-7.5,3.2-9.6,7c-0.4,0.6-0.7,1.3-1,1.9
	c-0.1,0.2-0.2,0.4-0.3,0.7C505,66.8,514.8,66.8,524.8,66.8z"/>
<path class="st0" d="M548.6,25c4.6,0,9.2,0,13.8,0c0,25.4,0,50.8,0,76.3c-4.6,0-9.1,0-13.7,0c0,0-0.1-0.1-0.1-0.1c0,0,0,0,0-0.1
	c0-0.1,0-0.2,0-0.3c0-25.2,0-50.3,0-75.5C548.5,25.2,548.5,25.2,548.6,25z"/>
<path class="st0" d="M621,16.4c-0.3,0.3-0.4,0.5-0.5,0.6c-5.8,6.2-11.5,12.3-17.3,18.5c-0.4,0.5-0.9,0.7-1.5,0.7c-2.7,0-5.3,0-8,0
	c-0.3,0-0.6,0-1,0c0.1-0.3,0.2-0.5,0.3-0.7c3.8-6.2,7.5-12.4,11.3-18.6c0.3-0.4,0.5-0.6,1-0.6c5,0,10,0,15,0
	C620.5,16.4,620.7,16.4,621,16.4z"/>
<path class="st1" d="M601,57.4c7.7,0.1,13.6,5.1,14.9,12.7c0.7,4,0.4,8-1.4,11.7c-2.2,4.4-5.7,7.3-10.7,8.1
	c-9.6,1.6-15.7-5-17.2-11.4c-1-4.3-0.8-8.5,1.1-12.5c2-4.2,5.3-7.1,10-8.1C598.7,57.6,599.9,57.5,601,57.4z"/>
<path class="st1" d="M524.8,66.8c-10,0-19.9,0-29.8,0c0.1-0.3,0.2-0.5,0.3-0.7c0.3-0.6,0.7-1.3,1-1.9c2.1-3.8,5.4-6.1,9.6-7
	c3.8-0.9,7.5-0.7,11.1,0.9c3.4,1.5,6,4,7.5,7.5C524.6,66,524.7,66.3,524.8,66.8z"/>
</svg>
