<svg width="393" height="526" viewBox="0 0 393 526" fill="none" xmlns="http://www.w3.org/2000/svg">
<g clip-path="url(#clip0_13375_6755)">
<rect width="393" height="526" fill="#810019"/>
<path d="M300.184 441.682L380.945 461.423L323.468 521.493L300.184 441.682Z" fill="#A60020" fill-opacity="0.5"/>
<circle cx="42" cy="40" r="76" fill="#A60020" fill-opacity="0.2"/>
<circle cx="31.5" cy="340.5" r="50" stroke="#A60020" stroke-width="3"/>
<line x1="2.44398" y1="-11.6729" x2="32.3813" y2="32.1079" stroke="#A60020"/>
<line x1="9.41273" y1="-11.6729" x2="39.3501" y2="32.1079" stroke="#A60020"/>
<line x1="16.3815" y1="-11.6729" x2="46.3188" y2="32.1079" stroke="#A60020"/>
<line x1="23.3502" y1="-11.6729" x2="53.2876" y2="32.1079" stroke="#A60020"/>
<line x1="30.319" y1="-11.6729" x2="60.2563" y2="32.1079" stroke="#A60020"/>
<line x1="37.2877" y1="-11.6729" x2="67.2251" y2="32.1079" stroke="#A60020"/>
<line x1="44.2565" y1="-11.6729" x2="74.1938" y2="32.1079" stroke="#A60020"/>
<line x1="51.2252" y1="-11.6729" x2="81.1626" y2="32.1079" stroke="#A60020"/>
<line x1="7.41273" y1="495.718" x2="37.3501" y2="539.499" stroke="#A60020"/>
<line x1="14.3815" y1="495.718" x2="44.3188" y2="539.499" stroke="#A60020"/>
<line x1="21.3502" y1="495.718" x2="51.2876" y2="539.499" stroke="#A60020"/>
<line x1="28.319" y1="495.718" x2="58.2563" y2="539.499" stroke="#A60020"/>
<line x1="35.2877" y1="495.718" x2="65.2251" y2="539.499" stroke="#A60020"/>
<line x1="42.2565" y1="495.718" x2="72.1938" y2="539.499" stroke="#A60020"/>
<line x1="49.2252" y1="495.718" x2="79.1626" y2="539.499" stroke="#A60020"/>
<line x1="56.194" y1="495.718" x2="86.1313" y2="539.499" stroke="#A60020"/>
<circle cx="252" cy="10" r="88.5" stroke="#A60020" stroke-width="3"/>
<circle opacity="0.3" cx="69.4122" cy="450.412" r="101" transform="rotate(-95.6243 69.4122 450.412)" fill="url(#paint0_linear_13375_6755)"/>
<circle opacity="0.3" cx="363.432" cy="29.2714" r="69.7697" transform="rotate(-95.6243 363.432 29.2714)" fill="url(#paint1_linear_13375_6755)"/>
</g>
<defs>
<linearGradient id="paint0_linear_13375_6755" x1="-31.5878" y1="450.412" x2="22.8991" y2="358.05" gradientUnits="userSpaceOnUse">
<stop stop-color="#DA002A"/>
<stop offset="1" stop-color="#1B0005" stop-opacity="0"/>
</linearGradient>
<linearGradient id="paint1_linear_13375_6755" x1="323.564" y1="-33.1892" x2="382.037" y2="79.1069" gradientUnits="userSpaceOnUse">
<stop stop-color="#DA002A"/>
<stop offset="1" stop-color="#1B0005" stop-opacity="0"/>
</linearGradient>
<clipPath id="clip0_13375_6755">
<path d="M0 0H383C388.523 0 393 4.47715 393 10V516C393 521.523 388.523 526 383 526H0V0Z" fill="white"/>
</clipPath>
</defs>
</svg>
