<svg width="21" height="21" viewBox="0 0 21 21" fill="none" xmlns="http://www.w3.org/2000/svg">
<path d="M8.29771 7.83417L6.94 8.57937V8.31396L8.29771 9.04896L7.7975 9.88604L6.53167 9.13062L6.67458 9.03875L6.695 10.4577H5.73542L5.74563 9.03875L5.88854 9.13062L4.62271 9.88604L4.13271 9.04896L5.49042 8.31396V8.57937L4.13271 7.83417L4.62271 6.99708L5.88854 7.76271L5.74563 7.84437L5.73542 6.42542H6.695L6.67458 7.84437L6.53167 7.76271L7.7975 6.99708L8.29771 7.83417Z" fill="#9D9D9D"/>
<path d="M12.9234 7.83417L11.5657 8.57937V8.31396L12.9234 9.04896L12.4232 9.88604L11.1573 9.13062L11.3002 9.03875L11.3207 10.4577H10.3611L10.3713 9.03875L10.5142 9.13062L9.24836 9.88604L8.75836 9.04896L10.1161 8.31396V8.57937L8.75836 7.83417L9.24836 6.99708L10.5142 7.76271L10.3713 7.84437L10.3611 6.42542H11.3207L11.3002 7.84437L11.1573 7.76271L12.4232 6.99708L12.9234 7.83417Z" fill="#9D9D9D"/>
<path d="M17.549 7.83417L16.1913 8.57937V8.31396L17.549 9.04896L17.0488 9.88604L15.783 9.13062L15.9259 9.03875L15.9463 10.4577H14.9867L14.9969 9.03875L15.1398 9.13062L13.874 9.88604L13.384 9.04896L14.7417 8.31396V8.57937L13.384 7.83417L13.874 6.99708L15.1398 7.76271L14.9969 7.84437L14.9867 6.42542H15.9463L15.9259 7.84437L15.783 7.76271L17.0488 6.99708L17.549 7.83417Z" fill="#9D9D9D"/>
<path d="M10.4754 1.97695C10.4836 1.97285 10.4918 1.96875 10.5 1.96875C10.5082 1.96875 10.5164 1.97285 10.5246 1.97695L18.8918 7.95703C18.9779 8.01855 19.0312 8.11699 19.0312 8.22363V8.78145L11.9561 14.5893C11.107 15.2865 9.88887 15.2865 9.03984 14.5893L1.96875 8.78145V8.22363C1.96875 8.11699 2.01797 8.01855 2.1082 7.95703L10.4754 1.97695ZM1.96875 11.3285L7.79297 16.1109C9.36797 17.4029 11.6361 17.4029 13.207 16.1109L19.0312 11.3285V18.7031C19.0312 18.8836 18.8836 19.0312 18.7031 19.0312H2.29688C2.11641 19.0312 1.96875 18.8836 1.96875 18.7031V11.3285ZM10.5 0C10.0816 0 9.67148 0.13125 9.33105 0.373242L0.963867 6.35332C0.356836 6.78398 0 7.48125 0 8.22363V18.7031C0 19.9705 1.02949 21 2.29688 21H18.7031C19.9705 21 21 19.9705 21 18.7031V8.22363C21 7.48125 20.6432 6.78398 20.0402 6.35332L11.6689 0.373242C11.3285 0.13125 10.9184 0 10.5 0Z" fill="#9D9D9D"/>
</svg>
