<svg width="37" height="40" viewBox="0 0 37 40" fill="none" xmlns="http://www.w3.org/2000/svg">
<g clip-path="url(#clip0_7743_4883)">
<path opacity="0.999" fill-rule="evenodd" clip-rule="evenodd" d="M19.5372 -0.0144043C19.8015 -0.0144043 20.0659 -0.0144043 20.3302 -0.0144043C20.6729 0.0536457 21.0084 0.154823 21.3368 0.289127C21.8719 0.557125 22.4108 0.817295 22.9535 1.06964C23.5434 1.28164 24.1433 1.31054 24.7531 1.15636C25.3762 0.962825 25.9862 0.741198 26.5833 0.491481C27.4846 0.263534 28.3794 0.282806 29.2676 0.549297C30.5502 1.05783 31.084 1.96842 30.869 3.28108C30.703 3.93263 30.4286 4.53969 30.0454 5.10227C29.2616 6.2216 28.3516 7.24783 27.3154 8.18094C22.3434 8.20022 17.3714 8.20022 12.3995 8.18094C12.0879 7.94792 11.7829 7.71183 11.4844 7.4727C11.464 7.43417 11.4335 7.40526 11.3929 7.38598C11.3348 7.3791 11.2941 7.35019 11.2709 7.29926C11.2505 7.26072 11.22 7.23181 11.1794 7.21253C10.4585 6.64499 9.78742 6.0283 9.16617 5.36244C9.15601 5.33353 9.13567 5.31425 9.10516 5.30462C9.07466 5.29499 9.05431 5.27571 9.04416 5.24681C9.04638 5.20266 9.02604 5.17376 8.98315 5.16008C8.70991 4.87939 8.47604 4.58548 8.28158 4.2784C7.77984 3.66116 7.56126 2.96257 7.62577 2.18258C7.79366 1.51254 8.21561 1.0452 8.89164 0.780559C9.7937 0.496667 10.7088 0.458122 11.6369 0.664928C11.8199 0.713108 12.0029 0.761286 12.186 0.809467C12.899 1.07326 13.6209 1.31416 14.3517 1.53216C15.2424 1.80745 16.0965 1.73036 16.9139 1.3009C17.1486 1.16087 17.3825 1.02114 17.6155 0.881736C17.662 0.883846 17.6925 0.864573 17.707 0.82392C18.2448 0.405296 18.8548 0.125855 19.5372 -0.0144043Z" fill="#D9D9D9"/>
<path opacity="0.596" fill-rule="evenodd" clip-rule="evenodd" d="M17.707 0.823887C17.6926 0.86454 17.6621 0.883812 17.6155 0.881702C17.6299 0.841049 17.6604 0.821776 17.707 0.823887Z" fill="#D9D9D9"/>
<path opacity="0.031" fill-rule="evenodd" clip-rule="evenodd" d="M8.98307 5.16003C9.02596 5.17371 9.04631 5.20262 9.04408 5.24676C9.00119 5.23308 8.98085 5.20418 8.98307 5.16003Z" fill="#D9D9D9"/>
<path opacity="0.031" fill-rule="evenodd" clip-rule="evenodd" d="M9.10522 5.30457C9.13573 5.31419 9.15607 5.33347 9.16623 5.36238C9.12557 5.36238 9.10522 5.3431 9.10522 5.30457Z" fill="#D9D9D9"/>
<path opacity="0.031" fill-rule="evenodd" clip-rule="evenodd" d="M11.1792 7.21252C11.2199 7.23181 11.2504 7.26071 11.2707 7.29925C11.2097 7.29925 11.1792 7.27034 11.1792 7.21252Z" fill="#D9D9D9"/>
<path opacity="0.031" fill-rule="evenodd" clip-rule="evenodd" d="M11.3928 7.38599C11.4335 7.40527 11.464 7.43418 11.4843 7.47271C11.4233 7.47271 11.3928 7.4438 11.3928 7.38599Z" fill="#D9D9D9"/>
<path opacity="0.999" fill-rule="evenodd" clip-rule="evenodd" d="M12.2469 8.947C17.1071 8.94217 21.9672 8.947 26.8273 8.96146C27.4085 9.10432 27.6474 9.45604 27.5441 10.0166C27.419 10.3183 27.1902 10.5062 26.8578 10.5803C21.9773 10.5996 17.0969 10.5996 12.2164 10.5803C11.6713 10.4487 11.4324 10.1163 11.4996 9.58297C11.6109 9.22194 11.86 9.00996 12.2469 8.947Z" fill="#D9D9D9"/>
<path opacity="0.999" fill-rule="evenodd" clip-rule="evenodd" d="M36.9849 29.7894C36.9849 30.358 36.9849 30.9264 36.9849 31.495C36.588 35.6577 34.2289 38.1342 29.9082 38.9243C29.8688 38.9173 29.8383 38.9272 29.8167 38.9532C29.3135 39.0489 28.8051 39.1067 28.2915 39.1266C28.1533 39.1174 28.0211 39.1272 27.895 39.1555C27.8442 39.1555 27.7933 39.1555 27.7425 39.1555C27.4827 39.146 27.2285 39.1558 26.9799 39.1844C26.8986 39.1844 26.8172 39.1844 26.7359 39.1844C26.5774 39.1752 26.4249 39.1847 26.2784 39.2133C26.1563 39.2133 26.0343 39.2133 25.9123 39.2133C25.7336 39.2041 25.5608 39.2136 25.3938 39.2422C25.3023 39.2422 25.2108 39.2422 25.1192 39.2422C24.981 39.233 24.8488 39.2428 24.7227 39.2712C24.3672 39.2911 24.0114 39.3009 23.6551 39.3001C23.5127 39.3001 23.3704 39.3001 23.2281 39.3001C23.2281 34.8098 23.2281 30.3193 23.2281 25.8291C20.7115 25.8194 18.2001 25.8291 15.6938 25.858C15.6938 30.3387 15.6938 34.8194 15.6938 39.3001C15.4295 39.3001 15.1651 39.3001 14.9008 39.3001C14.6871 39.3177 14.4837 39.3177 14.2907 39.3001C14.0727 39.2714 13.849 39.2619 13.6197 39.2712C13.406 39.2888 13.2026 39.2888 13.0096 39.2712C12.7916 39.2425 12.5679 39.233 12.3385 39.2422C12.2267 39.2422 12.1149 39.2422 12.003 39.2422C11.8667 39.2136 11.7243 39.2041 11.576 39.2133C11.4031 39.2133 11.2303 39.2133 11.0574 39.2133C10.8437 39.231 10.6404 39.231 10.4474 39.2133C10.2293 39.1847 10.0056 39.1752 9.77629 39.1844C9.56262 39.2021 9.35925 39.2021 9.16623 39.1844C9.00945 39.1558 8.84674 39.1463 8.67819 39.1555C8.40134 39.1567 8.12682 39.1376 7.85461 39.0977C7.79034 39.0697 7.71914 39.0601 7.64109 39.0688C7.59024 39.0688 7.53942 39.0688 7.48857 39.0688C7.46695 39.0428 7.43644 39.033 7.39706 39.0399C7.30342 39.0436 7.21191 39.0341 7.12254 39.011C7.07926 38.9835 7.02844 38.974 6.97002 38.9821C6.72359 38.9561 6.47957 38.9173 6.23795 38.8664C6.21633 38.8404 6.18583 38.8306 6.14645 38.8375C6.04155 38.8292 5.93988 38.8101 5.84142 38.7797C5.81979 38.7537 5.78929 38.7439 5.74991 38.7508C5.40538 38.6933 5.06985 38.6066 4.74331 38.4906C4.72169 38.4646 4.69118 38.4548 4.6518 38.4617C4.39082 38.3848 4.1468 38.2981 3.91974 38.2016C3.88881 38.1677 3.84815 38.1484 3.79772 38.1438C3.66528 38.1105 3.53311 38.0527 3.40119 37.9703C3.37709 37.9443 3.34659 37.9249 3.30968 37.9125C3.15869 37.8602 3.01634 37.7928 2.88264 37.7101C2.39983 37.4263 1.98296 37.0695 1.63202 36.6405C1.61168 36.6021 1.58118 36.5732 1.54051 36.5538C0.874998 35.8034 0.437791 34.9651 0.228886 34.0389C0.236125 34.0016 0.225957 33.9727 0.198383 33.9521C0.198383 33.9426 0.198383 33.9328 0.198383 33.9232C0.205622 33.8859 0.195454 33.857 0.167881 33.8365C0.145961 33.7712 0.135793 33.7035 0.137378 33.6341C0.145547 33.5879 0.135379 33.5494 0.106875 33.5185C0.0642888 33.3578 0.0439535 33.1939 0.0458691 33.0271C0.0545465 32.9719 0.044379 32.9236 0.0153662 32.8825C0.0243559 32.8178 0.0141883 32.76 -0.0151367 32.7091C-0.0151367 32.237 -0.0151367 31.7647 -0.0151367 31.2926C0.0112458 31.1336 0.0315812 30.9697 0.0458691 30.8012C0.0751939 30.7503 0.0853617 30.6925 0.0763719 30.6277C0.267069 29.0907 0.633105 27.5922 1.17448 26.1326C2.0694 23.439 3.37593 20.9385 5.0941 18.631C7.06925 15.9971 9.34171 13.6026 11.9115 11.4474C16.9445 11.4282 21.9774 11.4282 27.0104 11.4474C27.7614 11.8412 28.4528 12.3134 29.0846 12.8639C30.7629 14.3937 32.1407 16.133 33.2178 18.0818C35.2285 21.7696 36.484 25.6721 36.9849 29.7894ZM19.3542 14.3816C20.4034 14.3548 21.349 14.5956 22.191 15.1043C22.2054 15.1449 22.2359 15.1642 22.2825 15.1621C22.7705 15.4897 23.1874 15.8848 23.5331 16.3473C23.5309 16.3914 23.5512 16.4204 23.5941 16.434C23.8601 16.8495 24.0583 17.2734 24.1889 17.706C24.2446 17.9264 24.2903 18.148 24.3262 18.3709C24.2964 18.4514 24.3066 18.5285 24.3567 18.6021C24.3567 18.7756 24.3567 18.949 24.3567 19.1225C24.335 19.1916 24.3147 19.2639 24.2957 19.3393C24.3026 19.3508 24.3128 19.3556 24.3262 19.3537C24.3262 19.3826 24.3262 19.4115 24.3262 19.4404C24.3038 19.4803 24.2834 19.5236 24.2652 19.5705C24.2721 19.5821 24.2823 19.5869 24.2957 19.585C23.9666 21.1748 23.021 22.3167 21.4589 23.0105C19.4772 23.6911 17.7233 23.3491 16.1971 21.9843C14.9396 20.6315 14.5939 19.0897 15.16 17.3591C15.7854 15.8782 16.8988 14.9291 18.5001 14.5117C18.7021 14.4685 18.9055 14.4348 19.1102 14.4105C19.1082 14.4232 19.1133 14.4328 19.1254 14.4394C19.2049 14.4214 19.2812 14.4021 19.3542 14.3816Z" fill="#D9D9D9"/>
<path opacity="0.141" fill-rule="evenodd" clip-rule="evenodd" d="M19.3541 14.3816C19.2811 14.4021 19.2048 14.4214 19.1253 14.4394C19.1131 14.4328 19.1081 14.4232 19.11 14.4105C19.1847 14.3824 19.2661 14.3727 19.3541 14.3816Z" fill="#D9D9D9"/>
<path opacity="0.51" fill-rule="evenodd" clip-rule="evenodd" d="M22.1909 15.1043C22.2375 15.1022 22.268 15.1215 22.2824 15.1621C22.2358 15.1642 22.2053 15.1449 22.1909 15.1043Z" fill="#D9D9D9"/>
<path opacity="0.031" fill-rule="evenodd" clip-rule="evenodd" d="M23.5329 16.3473C23.5758 16.361 23.5961 16.3899 23.5939 16.434C23.551 16.4203 23.5307 16.3914 23.5329 16.3473Z" fill="#D9D9D9"/>
<path opacity="0.141" fill-rule="evenodd" clip-rule="evenodd" d="M24.3259 18.3708C24.3556 18.4416 24.3658 18.5187 24.3564 18.6021C24.3064 18.5285 24.2962 18.4514 24.3259 18.3708Z" fill="#D9D9D9"/>
<path opacity="0.322" fill-rule="evenodd" clip-rule="evenodd" d="M24.3567 19.1224C24.366 19.2058 24.3558 19.2829 24.3262 19.3537C24.3128 19.3556 24.3026 19.3508 24.2957 19.3392C24.3147 19.2639 24.335 19.1916 24.3567 19.1224Z" fill="#D9D9D9"/>
<path opacity="0.235" fill-rule="evenodd" clip-rule="evenodd" d="M24.3261 19.4404C24.3348 19.4958 24.3246 19.5439 24.2956 19.585C24.2823 19.5868 24.2721 19.582 24.2651 19.5705C24.2834 19.5236 24.3038 19.4803 24.3261 19.4404Z" fill="#D9D9D9"/>
<path opacity="0.235" fill-rule="evenodd" clip-rule="evenodd" d="M15.6938 25.858C18.2001 25.8291 20.7115 25.8194 23.2281 25.829C23.2281 30.3193 23.2281 34.8098 23.2281 39.3001C23.3704 39.3001 23.5127 39.3001 23.6551 39.3001C23.5846 39.3191 23.5084 39.329 23.4263 39.329C23.334 39.3324 23.2476 39.318 23.1671 39.2856C23.1713 34.8214 23.1815 30.3551 23.1976 25.8869C20.6964 25.858 18.1952 25.8483 15.6938 25.858Z" fill="#D9D9D9"/>
<path opacity="0.322" fill-rule="evenodd" clip-rule="evenodd" d="M0.0761425 30.6278C0.0851323 30.6926 0.0749645 30.7504 0.0456396 30.8013C0.0370055 30.7804 0.0268379 30.7564 0.0151367 30.729C0.0329748 30.6914 0.0533102 30.6576 0.0761425 30.6278Z" fill="#D9D9D9"/>
<path opacity="0.322" fill-rule="evenodd" clip-rule="evenodd" d="M0.0153662 32.8826C0.044379 32.9236 0.0545465 32.9719 0.045869 33.0271C0.0255338 33.0176 0.00519855 33.0077 -0.0151367 32.9982C-0.0151367 32.9887 -0.0151367 32.9788 -0.0151367 32.9693C0.0255338 32.9598 0.0255338 32.9499 -0.0151367 32.9404C-0.0151367 32.9308 -0.0151367 32.921 -0.0151367 32.9115C0.00519855 32.9115 0.0153662 32.9019 0.0153662 32.8826Z" fill="#D9D9D9"/>
<path opacity="0.141" fill-rule="evenodd" clip-rule="evenodd" d="M0.106754 33.5186C0.135258 33.5495 0.145426 33.5879 0.137257 33.6342C0.0881652 33.6004 0.0779974 33.5619 0.106754 33.5186Z" fill="#D9D9D9"/>
<path opacity="0.031" fill-rule="evenodd" clip-rule="evenodd" d="M0.16771 33.8365C0.195284 33.857 0.205451 33.8859 0.198213 33.9232C0.174805 33.9039 0.15447 33.8796 0.137207 33.851C0.144175 33.8394 0.154343 33.8345 0.16771 33.8365Z" fill="#D9D9D9"/>
<path opacity="0.51" fill-rule="evenodd" clip-rule="evenodd" d="M0.198227 33.9521C0.225801 33.9726 0.235969 34.0015 0.22873 34.0388C0.205323 34.0195 0.184987 33.9952 0.167725 33.9666C0.174693 33.955 0.184861 33.9501 0.198227 33.9521Z" fill="#D9D9D9"/>
<path opacity="0.031" fill-rule="evenodd" clip-rule="evenodd" d="M1.54028 36.5538C1.58095 36.5732 1.61146 36.6021 1.63179 36.6406C1.57079 36.6406 1.54028 36.6116 1.54028 36.5538Z" fill="#D9D9D9"/>
<path opacity="0.031" fill-rule="evenodd" clip-rule="evenodd" d="M2.88465 37.7102C2.86137 37.7336 2.86137 37.7336 2.88465 37.7102V37.7102Z" fill="#D9D9D9"/>
<path opacity="0.031" fill-rule="evenodd" clip-rule="evenodd" d="M3.30957 37.9125C3.34648 37.9249 3.37698 37.9443 3.40108 37.9703C3.34986 37.9764 3.31936 37.9573 3.30957 37.9125Z" fill="#D9D9D9"/>
<path opacity="0.031" fill-rule="evenodd" clip-rule="evenodd" d="M3.79761 38.1438C3.84803 38.1484 3.88869 38.1678 3.91962 38.2016C3.86227 38.2094 3.82161 38.1901 3.79761 38.1438Z" fill="#D9D9D9"/>
<path opacity="0.031" fill-rule="evenodd" clip-rule="evenodd" d="M4.65161 38.4618C4.69099 38.4548 4.72149 38.4646 4.74312 38.4907C4.7451 38.5034 4.74004 38.5129 4.72787 38.5196C4.69752 38.5031 4.67211 38.484 4.65161 38.4618Z" fill="#D9D9D9"/>
<path opacity="0.031" fill-rule="evenodd" clip-rule="evenodd" d="M5.74976 38.7508C5.78914 38.7439 5.81964 38.7537 5.84126 38.7797C5.84325 38.7924 5.83818 38.802 5.82601 38.8086C5.79566 38.7922 5.77025 38.7731 5.74976 38.7508Z" fill="#D9D9D9"/>
<path opacity="0.235" fill-rule="evenodd" clip-rule="evenodd" d="M6.14624 38.8376C6.18562 38.8307 6.21612 38.8405 6.23775 38.8665C6.1952 38.9044 6.16469 38.8948 6.14624 38.8376Z" fill="#D9D9D9"/>
<path opacity="0.031" fill-rule="evenodd" clip-rule="evenodd" d="M29.9082 38.9243C29.8862 38.9786 29.8557 38.9885 29.8167 38.9532C29.8383 38.9272 29.8688 38.9173 29.9082 38.9243Z" fill="#D9D9D9"/>
<path opacity="0.392" fill-rule="evenodd" clip-rule="evenodd" d="M6.96997 38.9822C7.02838 38.9741 7.0792 38.9836 7.12249 39.0111C7.12447 39.0238 7.1194 39.0333 7.10723 39.04C7.05776 39.0226 7.012 39.0033 6.96997 38.9822Z" fill="#D9D9D9"/>
<path opacity="0.141" fill-rule="evenodd" clip-rule="evenodd" d="M7.39697 39.0399C7.43635 39.0329 7.46685 39.0428 7.48848 39.0688C7.44593 39.1067 7.41543 39.0971 7.39697 39.0399Z" fill="#D9D9D9"/>
<path opacity="0.031" fill-rule="evenodd" clip-rule="evenodd" d="M7.64087 39.0688C7.71893 39.0601 7.79012 39.0696 7.85439 39.0977C7.82886 39.1009 7.79836 39.1104 7.76288 39.1266C7.71633 39.1124 7.67567 39.093 7.64087 39.0688Z" fill="#D9D9D9"/>
<path opacity="0.392" fill-rule="evenodd" clip-rule="evenodd" d="M27.8948 39.1556C28.0209 39.1272 28.1531 39.1174 28.2913 39.1267C28.1526 39.1784 28.0204 39.1879 27.8948 39.1556Z" fill="#D9D9D9"/>
<path opacity="0.392" fill-rule="evenodd" clip-rule="evenodd" d="M8.67798 39.1555C8.84654 39.1463 9.00924 39.1558 9.16602 39.1844C9.07985 39.1807 8.98835 39.1902 8.8915 39.2133C8.81579 39.1968 8.7446 39.1778 8.67798 39.1555Z" fill="#D9D9D9"/>
<path opacity="0.392" fill-rule="evenodd" clip-rule="evenodd" d="M27.7423 39.1555C27.5734 39.176 27.4006 39.1951 27.2238 39.2133C27.1395 39.2021 27.0582 39.1925 26.9797 39.1844C27.2283 39.1558 27.4825 39.146 27.7423 39.1555Z" fill="#D9D9D9"/>
<path opacity="0.392" fill-rule="evenodd" clip-rule="evenodd" d="M9.77612 39.1844C10.0055 39.1752 10.2292 39.1847 10.4472 39.2133C10.4454 39.229 10.4352 39.2388 10.4167 39.2423C10.1992 39.224 9.98568 39.2047 9.77612 39.1844Z" fill="#D9D9D9"/>
<path opacity="0.141" fill-rule="evenodd" clip-rule="evenodd" d="M26.7359 39.1844C26.6835 39.2053 26.6275 39.2246 26.5681 39.2423C26.467 39.2194 26.3704 39.2099 26.2783 39.2133C26.4249 39.1847 26.5774 39.1752 26.7359 39.1844Z" fill="#D9D9D9"/>
<path opacity="0.235" fill-rule="evenodd" clip-rule="evenodd" d="M11.0574 39.2134C11.2302 39.2134 11.4031 39.2134 11.5759 39.2134C11.5759 39.2229 11.5759 39.2327 11.5759 39.2423C11.3978 39.2686 11.225 39.2588 11.0574 39.2134Z" fill="#D9D9D9"/>
<path opacity="0.51" fill-rule="evenodd" clip-rule="evenodd" d="M11.5759 39.2423C11.5759 39.2327 11.5759 39.2229 11.5759 39.2134C11.7243 39.2041 11.8666 39.2137 12.003 39.2423C11.8711 39.2553 11.7287 39.2553 11.5759 39.2423Z" fill="#D9D9D9"/>
<path opacity="0.392" fill-rule="evenodd" clip-rule="evenodd" d="M25.9121 39.2134C25.784 39.2342 25.6518 39.2536 25.5156 39.2712C25.4687 39.251 25.428 39.2414 25.3936 39.2423C25.5606 39.2137 25.7334 39.2041 25.9121 39.2134Z" fill="#D9D9D9"/>
<path opacity="0.322" fill-rule="evenodd" clip-rule="evenodd" d="M12.3384 39.2423C12.5677 39.2331 12.7914 39.2426 13.0094 39.2712C13.0076 39.2868 12.9975 39.2966 12.9789 39.3001C12.7615 39.2819 12.5479 39.2625 12.3384 39.2423Z" fill="#D9D9D9"/>
<path opacity="0.392" fill-rule="evenodd" clip-rule="evenodd" d="M25.1191 39.2423C24.9951 39.2622 24.868 39.2816 24.7378 39.3001C24.7257 39.2934 24.7206 39.2839 24.7226 39.2712C24.8487 39.2428 24.9809 39.233 25.1191 39.2423Z" fill="#D9D9D9"/>
<path opacity="0.235" fill-rule="evenodd" clip-rule="evenodd" d="M13.6196 39.2712C13.849 39.262 14.0727 39.2715 14.2907 39.3001C14.2045 39.2964 14.113 39.3059 14.0162 39.329C13.8799 39.3114 13.7477 39.292 13.6196 39.2712Z" fill="#D9D9D9"/>
<path opacity="0.392" fill-rule="evenodd" clip-rule="evenodd" d="M14.9006 39.3C15.165 39.3 15.4293 39.3 15.6937 39.3C15.653 39.3194 15.6124 39.3385 15.5717 39.3579C15.5514 39.3579 15.531 39.3579 15.5107 39.3579C15.3073 39.3385 15.104 39.3194 14.9006 39.3Z" fill="#D9D9D9"/>
</g>
<defs>
<clipPath id="clip0_7743_4883">
<rect width="37" height="39.3724" fill="white"/>
</clipPath>
</defs>
</svg>
