<svg id="Layer_1" data-name="Layer 1" xmlns="http://www.w3.org/2000/svg
" viewBox="0 0 837.39 909.62">
  <defs>
    <style>
      .cls-1,.cls-3{fill:#414141}.cls-1{stroke:#000;stroke-miterlimit:10}
    </style>
  </defs>
  <path class="cls-3" d="M783.25 145.87c-.32 1.51-.73 3-1.13 4.46A109.29 109.29 0 0 1 770 174.57c0 .05-.08.07-.1.12-19.16 29.25-49.74 52.18-59.38 59v-.3c-.78.63-1.58 1.26-2.39 1.89H352.38c-89.12-69.5-90.63-120.19-90.63-120.19-2.45-17.47 3.42-33.4 23.18-45 0 0 28.59-14 75.58-.3a181.44 181.44 0 0 1 22.88 8.48A211.44 211.44 0 0 1 405 89.37c44.8 21.77 77.27 3.87 89.75-5.47 0 0 .05 0 .08-.05a64.45 64.45 0 0 1 5.54-4.65h.05A66.08 66.08 0 0 1 526 66.94c14.8-3.37 33.42-1.71 55.25 12 .67.41 1.33.86 2 1.31 16.11 10.63 50.06 26.21 87.49 2.87 1.21-.83 2.39-1.61 3.6-2.36 2.22-1.46 4.43-2.77 6.57-4A125.69 125.69 0 0 1 701 67.32c1.86-.66 3.7-1.24 5.49-1.79a94.43 94.43 0 0 1 13.39-2.87c29.55-3.95 46.34 10 46.34 10a60.58 60.58 0 0 1 17.57 33.12c.07.33.15.68.2 1a88 88 0 0 1 1.71 13.59 91.93 91.93 0 0 1-2.45 25.5ZM921.11 689.42c-41.54-226.54-215-377.56-215-377.56h-351.8S78.23 568.6 90.45 777.52s153.92 193.81 153.92 193.81l187.94.08V656.82H609v314.66h107.18c38.38-1.76 86.41-7.5 116.32-23.94a219.92 219.92 0 0 0 18.32-14.12l.07-.07c45.4-38.89 94.26-112.74 70.22-243.93Zm-395.78-91.09c-54.77-2.84-99.27-48.7-102-105.12-3.22-65.9 49.31-120 113.25-116.66 54.76 2.86 99.24 48.7 102 105.1 3.24 65.88-49.29 120.01-113.25 116.68Z" transform="translate(-90.06 -61.95)"/>
  <rect class="cls-3" x="253.79" y="198.01" width="370.55" height="28.32" rx="14.16"/>
</svg>