<svg width="23" height="19" viewBox="0 0 23 19" fill="none" xmlns="http://www.w3.org/2000/svg">
<path d="M15.0974 9.15736C15.6023 8.4351 15.8968 7.55507 15.8968 6.60141C15.8968 4.12259 13.8878 2.11359 11.409 2.11359C8.93021 2.11359 6.92121 4.12259 6.92121 6.60141C6.92121 7.55507 7.21572 8.4351 7.7206 9.15736C7.85033 9.34318 8.0046 9.55355 8.16938 9.77794C8.62167 10.3985 9.16161 11.1418 9.56481 11.8746C9.92945 12.5408 10.1153 13.235 10.2064 13.8906H8.49896C8.42182 13.4699 8.2921 13.0597 8.08524 12.681C7.73813 12.0499 7.30688 11.4574 6.87563 10.8648C6.69331 10.6159 6.511 10.367 6.33569 10.1145C5.64499 9.1223 5.23828 7.90919 5.23828 6.60141C5.23828 3.19348 8.00109 0.430664 11.409 0.430664C14.817 0.430664 17.5798 3.19348 17.5798 6.60141C17.5798 7.90919 17.1731 9.1223 16.4789 10.118C16.3035 10.3705 16.1212 10.6194 15.9389 10.8683C15.5077 11.4574 15.0764 12.0499 14.7293 12.6845C14.5224 13.0632 14.3927 13.4734 14.3156 13.8941H12.6151C12.7063 13.2385 12.8921 12.5408 13.2567 11.8781C13.6599 11.1453 14.1999 10.402 14.6522 9.78145C14.817 9.55706 14.9677 9.34669 15.0974 9.16087V9.15736ZM11.409 4.91848C10.4799 4.91848 9.72609 5.67229 9.72609 6.60141C9.72609 6.90995 9.47366 7.16239 9.16512 7.16239C8.85658 7.16239 8.60414 6.90995 8.60414 6.60141C8.60414 5.05171 9.85933 3.79653 11.409 3.79653C11.7176 3.79653 11.97 4.04896 11.97 4.3575C11.97 4.66604 11.7176 4.91848 11.409 4.91848ZM11.409 18.3819C9.85933 18.3819 8.60414 17.1267 8.60414 15.577V15.0161H14.2139V15.577C14.2139 17.1267 12.9587 18.3819 11.409 18.3819Z" fill="#414141"/>
<rect x="18.2695" y="6.07422" width="4.73324" height="1.4375" rx="0.718752" fill="#414141"/>
<rect y="6.07422" width="4.55794" height="1.4375" rx="0.718752" fill="#414141"/>
<rect x="0.765625" y="11.6621" width="4.55204" height="1.4375" rx="0.718751" transform="rotate(-27.8354 0.765625 11.6621)" fill="#414141"/>
<rect width="4.52277" height="1.4375" rx="0.718751" transform="matrix(-0.886606 -0.462527 -0.462526 0.886606 22.2695 11.498)" fill="#414141"/>
<rect x="1.30469" width="4.765" height="1.4375" rx="0.718751" transform="rotate(29.7323 1.30469 0)" fill="#414141"/>
<rect width="4.72311" height="1.4375" rx="0.718751" transform="matrix(-0.841269 0.540617 0.540617 0.841269 21.1016 0.0791016)" fill="#414141"/>
</svg>
