<svg width="65" height="35" viewBox="0 0 40 17" fill="none" xmlns="http://www.w3.org/2000/svg">
<rect width="40" height="17" rx="8.5" fill="#414141"/>
<rect x="24" y="1" width="15" height="15" rx="7.5" fill="white"/>
<path d="M8.01458 5.05632C7.57708 5.76673 7.325 6.60423 7.325 7.50007C7.325 9.54173 8.63333 11.2792 10.4583 11.9105C10.2 11.9688 9.93125 12.0001 9.65417 12.0001C7.6375 12.0001 6 10.3605 6 8.3334C6 6.89798 6.82083 5.6584 8.01667 5.05632H8.01458ZM9.30833 3.68132C6.89792 3.8584 5 5.87298 5 8.3334C5 10.9105 7.08333 13.0001 9.65625 13.0001C10.6521 13.0001 11.5729 12.6876 12.3313 12.1542C12.3708 12.1271 12.4083 12.098 12.4458 12.0709C12.5458 11.9959 12.6417 11.9167 12.7354 11.8334C12.7917 11.7834 12.8458 11.7334 12.9 11.6813C13.0042 11.5792 13.0312 11.4209 12.9646 11.2917C12.8979 11.1626 12.7542 11.0896 12.6104 11.1146C12.5333 11.1271 12.4563 11.1396 12.3792 11.148C12.275 11.1584 12.1688 11.1667 12.0604 11.1688C12.0354 11.1688 12.0083 11.1688 11.9833 11.1688C11.9813 11.1688 11.9792 11.1688 11.9771 11.1688C9.96042 11.1646 8.32708 9.52507 8.32708 7.50215C8.32708 6.36048 8.84583 5.34173 9.6625 4.66882C9.68333 4.65007 9.70625 4.6334 9.72917 4.61465C9.8125 4.54798 9.9 4.48548 9.98958 4.42715C10.0542 4.38548 10.1208 4.34382 10.1896 4.30632C10.3167 4.2334 10.3812 4.08757 10.35 3.9459C10.3187 3.80423 10.1979 3.69798 10.0521 3.68548C9.97708 3.67923 9.90417 3.67507 9.82917 3.67298C9.77292 3.6709 9.71458 3.6709 9.65833 3.6709C9.58958 3.6709 9.52292 3.67298 9.45417 3.67507C9.40625 3.67715 9.35833 3.67923 9.31042 3.6834L9.30833 3.68132Z" fill="white"/>
<path d="M33.5561 8.98073C33.7756 8.66671 33.9037 8.28408 33.9037 7.86945C33.9037 6.79171 33.0302 5.91823 31.9525 5.91823C30.8747 5.91823 30.0012 6.79171 30.0012 7.86945C30.0012 8.28408 30.1293 8.66671 30.3488 8.98073C30.4052 9.06152 30.4723 9.15299 30.5439 9.25055C30.7406 9.52037 30.9753 9.84354 31.1506 10.1621C31.3092 10.4518 31.39 10.7536 31.4296 11.0387H30.6872C30.6537 10.8557 30.5973 10.6774 30.5073 10.5127C30.3564 10.2384 30.1689 9.98073 29.9814 9.72311C29.9022 9.61488 29.8229 9.50665 29.7467 9.39689C29.4464 8.96549 29.2695 8.43805 29.2695 7.86945C29.2695 6.38774 30.4708 5.18652 31.9525 5.18652C33.4342 5.18652 34.6354 6.38774 34.6354 7.86945C34.6354 8.43805 34.4586 8.96549 34.1567 9.39841C34.0805 9.50817 34.0012 9.6164 33.922 9.72463C33.7345 9.98073 33.547 10.2384 33.3961 10.5143C33.3061 10.6789 33.2497 10.8573 33.2162 11.0402H32.4768C32.5165 10.7551 32.5973 10.4518 32.7558 10.1637C32.9311 9.84506 33.1659 9.52189 33.3625 9.25207C33.4342 9.15451 33.4997 9.06305 33.5561 8.98226V8.98073ZM31.9525 7.13774C31.5485 7.13774 31.2208 7.46549 31.2208 7.86945C31.2208 8.0036 31.111 8.11335 30.9768 8.11335C30.8427 8.11335 30.7329 8.0036 30.7329 7.86945C30.7329 7.19567 31.2787 6.64994 31.9525 6.64994C32.0866 6.64994 32.1964 6.75969 32.1964 6.89384C32.1964 7.02799 32.0866 7.13774 31.9525 7.13774ZM31.9525 12.9914C31.2787 12.9914 30.7329 12.4457 30.7329 11.7719V11.528H33.172V11.7719C33.172 12.4457 32.6262 12.9914 31.9525 12.9914Z" fill="#414141"/>
<rect x="34.9414" y="7.64062" width="2.05793" height="0.625" rx="0.3125" fill="#0B1423"/>
<rect x="27" y="7.64062" width="1.98171" height="0.625" rx="0.3125" fill="#414141"/>
<rect x="27.3203" y="10.0693" width="1.97914" height="0.625" rx="0.3125" transform="rotate(-27.8354 27.3203 10.0693)" fill="#414141"/>
<rect width="1.96642" height="0.625" rx="0.3125" transform="matrix(-0.886606 -0.462526 -0.462526 0.886606 36.6836 9.99902)" fill="#414141"/>
<rect x="27.5742" y="5" width="2.07173" height="0.625" rx="0.3125" transform="rotate(29.7323 27.5742 5)" fill="#414141"/>
<rect width="2.05352" height="0.625" rx="0.3125" transform="matrix(-0.841269 0.540617 0.540617 0.841269 36.1719 5.03711)" fill="#414141"/>
</svg>
