<svg width="47" height="33" viewBox="0 0 47 33" fill="none" xmlns="http://www.w3.org/2000/svg">
<path d="M18.1648 11.0788C17.5209 11.7227 16.8769 12.3293 16.2837 12.9813C16.0806 13.2031 15.9149 13.5291 15.8936 13.8177C15.792 15.1083 15.7412 16.4042 15.6905 17.7002C15.6771 18.0369 15.6878 18.3843 15.76 18.7129C15.9149 19.389 16.3932 19.7764 17.1174 19.7844C18.4107 19.7978 19.4742 19.3115 20.1662 18.2453C20.6045 17.5693 20.9438 16.8318 21.3313 16.1237C21.4034 15.9901 21.4595 15.8004 21.5771 15.7416C22.515 15.2686 23.4529 14.7475 24.5592 14.7956C24.9306 14.8117 25.3314 14.9426 25.6574 15.1216C29.1258 17.0349 32.5835 18.9668 36.0411 20.9014C36.8695 21.3637 37.1073 22.0824 36.7305 22.852C36.3164 23.6937 35.4185 23.9823 34.5528 23.5147C33.4893 22.9402 32.4418 22.3336 31.3864 21.7458C31.1325 21.6041 30.8413 21.3717 30.6115 21.7404C30.3603 22.1386 30.7344 22.2748 31.0042 22.4271C32.3617 23.194 33.7298 23.9449 35.0792 24.7251C35.7953 25.1393 36.0091 25.8234 35.7071 26.5342C35.4159 27.2182 34.7265 27.611 34.0104 27.4614C33.7565 27.4079 33.5133 27.2877 33.2862 27.1621C31.9689 26.4326 30.6542 25.6898 29.3395 24.9523C29.2166 24.8828 29.0937 24.7626 28.9708 24.7626C28.7731 24.7599 28.5726 24.84 28.3722 24.8828C28.4444 25.0645 28.4604 25.3317 28.5967 25.4145C29.3556 25.8822 30.1465 26.3044 30.9241 26.7426C31.3062 26.9563 31.6963 27.1594 32.0651 27.3946C32.7839 27.8568 32.9576 28.6424 32.522 29.3666C32.0918 30.08 31.2661 30.3446 30.5153 29.9518C29.4277 29.3799 28.3669 28.7627 27.2981 28.1668C27.1591 28.0893 27.0228 28.0145 26.8866 27.9343C26.6274 27.782 26.3655 27.6564 26.1678 27.9985C25.9834 28.3191 26.2319 28.4607 26.4697 28.5943C27.3542 29.094 28.2493 29.5803 29.1231 30.0961C29.9087 30.5583 30.1171 31.3252 29.6949 32.0787C29.2807 32.8216 28.439 33.1022 27.6641 32.7094C26.8678 32.3032 26.0929 31.857 25.326 31.4C25.2165 31.3332 25.115 31.0794 25.1604 30.9698C25.7643 29.5429 24.6286 28.0492 23.0922 27.8836C23.0067 27.8755 22.9238 27.8542 22.8357 27.8408C23.6319 25.4974 22.9933 24.49 20.4655 24.1239C20.5537 23.0925 20.1689 22.2615 19.207 21.7431C18.2557 21.23 17.3392 21.3289 16.4627 22.029C16.3719 21.866 16.3024 21.7377 16.2329 21.6122C15.3672 20.0436 13.2936 19.8806 12.1954 21.2995C11.7972 21.8152 11.4205 22.3497 10.9368 23.0097C10.8273 22.8306 10.7712 22.705 10.683 22.6008C9.72369 21.4411 8.76708 20.2761 7.79177 19.1298C7.56464 18.8626 7.55395 18.6702 7.73565 18.3682C9.47252 15.4984 11.196 12.6206 12.9062 9.7347C13.0932 9.42206 13.2562 9.35259 13.6143 9.48085C14.9717 9.96984 16.3425 10.4214 17.7079 10.8917C17.8656 10.9425 18.0205 11.0173 18.1648 11.0788Z" fill="#D9D9D9"/>
<path d="M39.4299 18.6352C38.4199 19.1349 37.4686 19.6185 36.4987 20.0621C36.3597 20.1262 36.0952 20.022 35.9268 19.9285C32.8005 18.1943 29.6581 16.4868 26.5691 14.6965C25.2251 13.919 23.9532 13.8922 22.5316 14.424C21.4334 14.8355 20.5917 15.3833 20.2203 16.5189C20.0706 16.9812 19.75 17.3927 19.4881 17.8176C19.0285 18.5684 18.2803 18.8917 17.4306 19.0227C16.8507 19.1108 16.4767 18.8356 16.4927 18.2638C16.5328 16.7808 16.6183 15.3004 16.7038 13.8201C16.7118 13.6892 16.8294 13.5422 16.9363 13.4433C17.9276 12.5188 18.935 11.6103 19.9237 10.6831C21.4895 9.21608 23.3332 9.09049 25.3507 9.5394C28.0655 10.1433 30.783 10.1299 33.4899 9.42985C33.6368 9.39244 33.9254 9.4726 33.9949 9.58483C35.8012 12.5669 37.5915 15.5623 39.4299 18.6352Z" fill="#D9D9D9"/>
<path d="M0 16.6202C0.0587861 16.4733 0.128261 16.2061 0.264537 15.9763C2.39954 12.401 4.53989 8.83108 6.68558 5.26384C7.16388 4.46755 7.83725 4.28585 8.65491 4.73209C9.80926 5.36271 10.9583 6.00134 12.1019 6.64798C12.9677 7.13698 13.1467 7.78362 12.6417 8.628C10.5147 12.1872 8.38236 15.7438 6.24468 19.2977C5.76371 20.0993 5.09836 20.273 4.27535 19.8241C3.09161 19.1774 1.91856 18.5094 0.737498 17.8574C0.285914 17.6089 0.0320651 17.2482 0 16.6202Z" fill="#D9D9D9"/>
<path d="M38.9741 4.5C39.6929 4.50802 40.0643 4.80996 40.3368 5.26956C41.2159 6.74723 42.1031 8.22223 42.9875 9.69722C44.2167 11.7494 45.4485 13.7989 46.6777 15.8511C47.2495 16.805 47.0758 17.4142 46.0872 17.9674C44.9836 18.5819 43.8854 19.1992 42.7764 19.8058C41.9134 20.2787 41.2587 20.1157 40.7644 19.2927C38.6267 15.7388 36.497 12.1823 34.37 8.62304C33.8677 7.78133 34.0494 7.1427 34.9232 6.64836C36.0535 6.00973 37.1864 5.37912 38.3247 4.75919C38.5626 4.62559 38.8378 4.55344 38.9741 4.5Z" fill="#D9D9D9"/>
<path d="M15.0557 29.7429C14.1766 29.7055 13.7143 29.4302 13.4044 28.9225C13.0944 28.4148 13.1372 27.9045 13.4792 27.4315C14.6015 25.8817 15.7211 24.3292 16.8701 22.7954C17.3805 22.1167 18.2275 22.0125 18.9383 22.4748C19.6651 22.9477 19.8869 23.7841 19.3925 24.4815C18.2756 26.058 17.1426 27.6239 15.9642 29.155C15.7211 29.473 15.2481 29.6253 15.0557 29.7429Z" fill="#D9D9D9"/>
<path d="M18.4168 31.6859C17.5457 31.6405 17.0781 31.3733 16.7708 30.8656C16.4662 30.3579 16.501 29.8449 16.8403 29.3719C17.7649 28.084 18.6947 26.7987 19.6487 25.5321C20.1484 24.8668 21.0168 24.7572 21.7196 25.2141C22.4437 25.6818 22.6655 26.5181 22.1738 27.2209C21.2546 28.5329 20.3167 29.8342 19.328 31.0981C19.0822 31.4107 18.6119 31.5657 18.4168 31.6859Z" fill="#D9D9D9"/>
<path d="M15.7378 22.6381C15.6068 22.9294 15.516 23.2447 15.337 23.5039C14.725 24.3803 14.0918 25.2434 13.4505 26.0985C12.892 26.8413 12.0049 26.9883 11.2727 26.4833C10.5299 25.9729 10.3856 25.1419 10.9307 24.375C11.5693 23.4772 12.2186 22.582 12.8866 21.7029C13.3195 21.1338 13.9234 20.9708 14.5754 21.1899C15.2327 21.4116 15.671 21.9808 15.7378 22.6381Z" fill="#D9D9D9"/>
<path d="M22.647 28.6343C23.51 28.6824 23.983 28.9416 24.293 29.4519C24.5976 29.957 24.5628 30.47 24.2342 30.9483C23.8948 31.4453 23.5421 31.9397 23.1653 32.4126C22.6229 33.0887 21.7598 33.1849 21.0464 32.6825C20.3596 32.2015 20.186 31.3892 20.6509 30.6945C20.9849 30.1921 21.3163 29.6764 21.7304 29.2408C22.0163 28.9389 22.4466 28.7625 22.647 28.6343Z" fill="#D9D9D9"/>
<path d="M28.372 1.20512C28.372 1.47768 28.1475 1.72885 27.7707 1.92926C27.3138 2.17242 26.6351 2.34344 25.8548 2.39688C25.7961 2.37016 25.7399 2.34344 25.6785 2.32206C25.0612 2.07355 24.2382 1.93193 23.3591 1.93193C23.2282 1.93193 23.1026 1.93461 22.9743 1.93995L22.9583 1.93193C22.5815 1.72885 22.3571 1.47768 22.3571 1.2078C22.3571 0.539773 23.7065 9.8301e-06 25.3658 9.8301e-06C27.0225 -0.00266226 28.372 0.539773 28.372 1.20512ZM22.8648 2.43162C23.0251 2.42093 23.1881 2.41558 23.3564 2.41558C24.3317 2.41558 25.1975 2.60263 25.748 2.88854C26.1354 3.09162 26.3679 3.34547 26.3679 3.62337C26.3679 3.68483 26.3572 3.74361 26.3358 3.79973C26.2637 4.00013 26.0686 4.18184 25.788 4.33682C25.7854 4.33949 25.7827 4.33949 25.7827 4.33949C25.7773 4.34216 25.772 4.34483 25.7693 4.34751C25.2216 4.64144 24.3451 4.83116 23.3618 4.83116C22.4265 4.83116 21.5929 4.66014 21.0397 4.39293C21.0103 4.37957 20.9809 4.36354 20.9542 4.35018C20.5775 4.14977 20.353 3.89859 20.353 3.62604C20.353 3.09964 21.1894 2.65073 22.3597 2.48773C22.5174 2.46101 22.6884 2.4423 22.8648 2.43162ZM26.8676 3.62337C26.8676 3.29203 26.7019 3.01948 26.4908 2.8164C26.9344 2.74959 27.3405 2.64538 27.6852 2.50643C27.9417 2.40489 28.1796 2.27663 28.3746 2.12165V2.65607C28.3746 2.94733 28.1154 3.21721 27.6879 3.42563C27.4581 3.53786 27.1802 3.63139 26.8676 3.7062C26.8649 3.67681 26.8676 3.65009 26.8676 3.62337ZM26.3652 5.07164C26.3652 5.3442 26.1408 5.59537 25.764 5.79578C25.7346 5.81181 25.7079 5.82517 25.6785 5.83853C25.128 6.10842 24.2917 6.27676 23.3564 6.27676C22.3731 6.27676 21.4967 6.08704 20.9489 5.79311C20.5721 5.59003 20.3477 5.33885 20.3477 5.06897V4.53455C20.5427 4.68953 20.7805 4.8178 21.0371 4.91933C21.657 5.16784 22.4773 5.30946 23.3591 5.30946C24.2409 5.30946 25.0612 5.16784 25.6812 4.91933C25.8041 4.87124 25.9216 4.81512 26.0312 4.75366C26.1274 4.7029 26.2156 4.64411 26.3011 4.58532C26.3251 4.56929 26.3465 4.55059 26.3679 4.53455V4.58532V4.67083V5.07164H26.3652ZM26.8676 5.07164V4.588V4.19787C27.1642 4.13374 27.4394 4.05358 27.6852 3.95738C27.9417 3.85584 28.1796 3.72758 28.3746 3.5726V4.10702C28.3746 4.26467 28.2971 4.425 28.1422 4.57463C27.8856 4.82047 27.4367 5.02355 26.8676 5.15448C26.8649 5.12776 26.8676 5.09836 26.8676 5.07164ZM23.3564 6.76308C24.2382 6.76308 25.0586 6.62146 25.6785 6.37295C25.935 6.27141 26.1728 6.14315 26.3679 5.98817V6.52259C26.3679 7.19061 25.0185 7.73038 23.3591 7.73038C21.6971 7.73038 20.3503 7.19061 20.3503 6.52259V5.98817C20.5454 6.14315 20.7832 6.27141 21.0397 6.37295C21.6543 6.62146 22.4746 6.76308 23.3564 6.76308Z" fill="#D9D9D9"/>
</svg>
