<svg width="12" height="10" viewBox="0 0 12 10" fill="none" xmlns="http://www.w3.org/2000/svg">
<path d="M11.1111 0.555556V1.11111H1.66667C1.51932 1.11111 1.37802 1.16964 1.27383 1.27383C1.16964 1.37802 1.11111 1.51932 1.11111 1.66667C1.11111 1.81401 1.16964 1.95532 1.27383 2.0595C1.37802 2.16369 1.51932 2.22222 1.66667 2.22222H10.5556C10.7029 2.22222 10.8442 2.28075 10.9484 2.38494C11.0526 2.48913 11.1111 2.63044 11.1111 2.77778V8.88889C11.1111 9.18357 10.994 9.46619 10.7857 9.67456C10.5773 9.88294 10.2947 10 10 10H6.11111V6.34111L6.82944 7.05944C6.93422 7.16064 7.07456 7.21664 7.22022 7.21537C7.36589 7.21411 7.50523 7.15568 7.60823 7.05268C7.71124 6.94967 7.76966 6.81033 7.77093 6.66467C7.7722 6.519 7.7162 6.37867 7.615 6.27389L5.94833 4.60722C5.89673 4.55549 5.83542 4.51444 5.76793 4.48643C5.70043 4.45842 5.62807 4.44401 5.555 4.44401C5.48193 4.44401 5.40957 4.45842 5.34207 4.48643C5.27458 4.51444 5.21327 4.55549 5.16167 4.60722L3.495 6.27389C3.3938 6.37867 3.3378 6.519 3.33907 6.66467C3.34034 6.81033 3.39876 6.94967 3.50177 7.05268C3.60477 7.15568 3.74411 7.21411 3.88978 7.21537C4.03544 7.21664 4.17578 7.16064 4.28056 7.05944L5 6.34111V10H1.11111C0.816426 10 0.533811 9.88294 0.325437 9.67456C0.117063 9.46619 0 9.18357 0 8.88889V1.11111C0 0.816426 0.117063 0.533811 0.325437 0.325437C0.533811 0.117063 0.816426 0 1.11111 0H10.5556C10.7029 0 10.8442 0.0585316 10.9484 0.162718C11.0526 0.266905 11.1111 0.408213 11.1111 0.555556Z" fill="white"/>
</svg>
