<svg width="35" height="33" viewBox="0 0 35 33" fill="none" xmlns="http://www.w3.org/2000/svg">
<path d="M20.5614 32.226C15.8508 32.226 11.1402 32.226 6.4295 32.226C6.03483 32.0707 5.7802 31.7779 5.65034 31.3857C5.44918 30.7695 5.21492 30.1584 5.09015 29.5269C4.59617 27.0188 4.96284 24.582 5.79802 22.1962C6.35821 20.5996 7.16029 19.1228 8.00821 17.6663C9.66585 14.8221 10.5036 11.7589 10.3814 8.4538C10.3635 7.93945 10.3177 7.42764 10.282 6.87764C10.4094 6.87764 10.529 6.87764 10.6487 6.87764C14.6082 6.87764 18.5677 6.87764 22.5272 6.87764C23.5635 6.87764 24.5973 6.88019 25.6337 6.8751C25.8195 6.87255 25.9036 6.91839 25.9214 7.11954C26.1149 9.21769 26.0105 11.2929 25.5114 13.3478C25.0226 15.3568 24.2205 17.2309 23.1638 19.0006C21.9976 20.9561 21.0452 22.9957 20.6633 25.2619C20.3399 27.1767 20.3807 29.0584 21.2108 30.8663C21.4425 31.373 21.2235 31.8899 20.7193 32.1445C20.6658 32.1675 20.6124 32.198 20.5614 32.226ZM15.4714 15.1735C14.5522 15.2015 13.8443 15.5809 13.3198 16.2709C12.2707 17.6536 12.2682 19.4411 13.2867 20.8492C14.3663 22.3438 16.5205 22.3515 17.5925 20.8517C18.5295 19.5404 18.611 18.1425 17.8675 16.7293C17.3658 15.7744 16.551 15.2117 15.4714 15.1735ZM15.4358 10.804C15.4358 10.4807 15.4434 10.1547 15.4332 9.83135C15.4179 9.25589 14.9927 8.8332 14.4554 8.84084C13.9258 8.84848 13.5158 9.26607 13.5057 9.8288C13.4955 10.4679 13.4929 11.107 13.5057 11.7462C13.5158 12.3038 13.9411 12.7214 14.4682 12.7214C14.9952 12.7214 15.4154 12.3063 15.4332 11.7487C15.4434 11.4355 15.4358 11.1198 15.4358 10.804ZM17.3837 26.4026C17.3837 26.0793 17.3913 25.7533 17.3811 25.43C17.3658 24.8545 16.9406 24.4318 16.4033 24.4395C15.8737 24.4471 15.4638 24.8647 15.4536 25.4274C15.4434 26.0665 15.4408 26.7057 15.4536 27.3448C15.4638 27.9024 15.889 28.32 16.4161 28.32C16.9432 28.32 17.3633 27.905 17.3811 27.3473C17.3939 27.0316 17.3837 26.7158 17.3837 26.4026Z" fill="#D9D9D9"/>
<path d="M32.9857 15.8967C32.7692 16.4339 32.3745 16.6478 31.794 16.6427C30.1389 16.6249 28.4838 16.6351 26.8287 16.6351C26.7294 16.6351 26.6275 16.6351 26.49 16.6351C26.5333 16.5001 26.5664 16.3983 26.597 16.2939C26.9229 15.1659 27.2514 14.0379 27.5697 12.9073C27.6206 12.7214 27.6843 12.6043 27.8829 12.5177C28.6213 12.2045 29.0516 11.6316 29.0669 10.827C29.0924 9.50801 29.0949 8.18648 29.0694 6.8675C29.0465 5.7675 28.2495 4.99343 27.1495 4.93996C27.0782 4.93741 27.0069 4.93741 26.9356 4.93741C20.5699 4.93741 14.2067 4.93996 7.84097 4.93486C6.97523 4.93486 6.28519 5.24806 5.91088 6.05014C5.77338 6.34296 5.71736 6.69435 5.71227 7.02028C5.68935 8.20685 5.70208 9.39597 5.70463 10.5851C5.70718 11.8863 6.46852 12.6756 7.76458 12.7214C7.82315 12.724 7.88426 12.7342 8.00648 12.7469C7.76713 13.4166 7.56343 14.0735 7.30116 14.705C7.06181 15.2856 6.75625 15.8381 6.48889 16.4059C6.40995 16.5714 6.31065 16.6402 6.11713 16.6402C5.02986 16.63 3.94514 16.6376 2.85787 16.6351C2.19329 16.6325 1.79352 16.2353 1.79097 15.5758C1.78843 11.0867 1.78843 6.60014 1.79097 2.11102C1.79097 1.41334 2.1831 1.0263 2.89352 1.02375C6.56782 1.02121 10.2421 1.02375 13.919 1.02375C19.8671 1.02375 25.8178 1.02884 31.766 1.01611C32.3516 1.01611 32.7667 1.20454 32.9882 1.75963C32.9856 6.47537 32.9857 11.186 32.9857 15.8967Z" fill="#D9D9D9"/>
</svg>
