<svg width="32" height="32" viewBox="0 0 32 32" fill="none" xmlns="http://www.w3.org/2000/svg">
<path d="M19.5614 31.226C14.8508 31.226 10.1402 31.226 5.4295 31.226C5.03483 31.0707 4.7802 30.7779 4.65034 30.3857C4.44918 29.7695 4.21492 29.1584 4.09015 28.5269C3.59617 26.0188 3.96284 23.582 4.79802 21.1962C5.35821 19.5996 6.16029 18.1228 7.00821 16.6663C8.66585 13.8221 9.50358 10.7589 9.38135 7.4538C9.36353 6.93945 9.3177 6.42764 9.28205 5.87764C9.40936 5.87764 9.52904 5.87764 9.64872 5.87764C13.6082 5.87764 17.5677 5.87764 21.5272 5.87764C22.5635 5.87764 23.5973 5.88019 24.6337 5.8751C24.8195 5.87255 24.9036 5.91839 24.9214 6.11954C25.1149 8.21769 25.0105 10.2929 24.5114 12.3478C24.0226 14.3568 23.2205 16.2309 22.1638 18.0006C20.9976 19.9561 20.0452 21.9957 19.6633 24.2619C19.3399 26.1767 19.3807 28.0584 20.2108 29.8663C20.4425 30.373 20.2235 30.8899 19.7193 31.1445C19.6658 31.1675 19.6124 31.198 19.5614 31.226ZM14.4714 14.1735C13.5522 14.2015 12.8443 14.5809 12.3198 15.2709C11.2707 16.6536 11.2682 18.4411 12.2867 19.8492C13.3663 21.3438 15.5205 21.3515 16.5925 19.8517C17.5295 18.5404 17.611 17.1425 16.8675 15.7293C16.3658 14.7744 15.551 14.2117 14.4714 14.1735ZM14.4358 9.80403C14.4358 9.48065 14.4434 9.15473 14.4332 8.83135C14.4179 8.25589 13.9927 7.8332 13.4554 7.84084C12.9258 7.84848 12.5158 8.26607 12.5057 8.8288C12.4955 9.46792 12.4929 10.107 12.5057 10.7462C12.5158 11.3038 12.9411 11.7214 13.4682 11.7214C13.9952 11.7214 14.4154 11.3063 14.4332 10.7487C14.4434 10.4355 14.4358 10.1198 14.4358 9.80403ZM16.3837 25.4026C16.3837 25.0793 16.3913 24.7533 16.3811 24.43C16.3658 23.8545 15.9406 23.4318 15.4033 23.4395C14.8737 23.4471 14.4638 23.8647 14.4536 24.4274C14.4434 25.0665 14.4408 25.7057 14.4536 26.3448C14.4638 26.9024 14.889 27.32 15.4161 27.32C15.9432 27.32 16.3633 26.905 16.3811 26.3473C16.3939 26.0316 16.3837 25.7158 16.3837 25.4026Z" fill="#414141"/>
<path d="M31.9857 14.8967C31.7692 15.4339 31.3745 15.6478 30.794 15.6427C29.1389 15.6249 27.4838 15.6351 25.8287 15.6351C25.7294 15.6351 25.6275 15.6351 25.49 15.6351C25.5333 15.5001 25.5664 15.3983 25.597 15.2939C25.9229 14.1659 26.2514 13.0379 26.5697 11.9073C26.6206 11.7214 26.6843 11.6043 26.8829 11.5177C27.6213 11.2045 28.0516 10.6316 28.0669 9.82699C28.0924 8.50801 28.0949 7.18648 28.0694 5.8675C28.0465 4.7675 27.2495 3.99343 26.1495 3.93996C26.0782 3.93741 26.0069 3.93741 25.9356 3.93741C19.5699 3.93741 13.2067 3.93996 6.84097 3.93486C5.97523 3.93486 5.28519 4.24806 4.91088 5.05014C4.77338 5.34296 4.71736 5.69435 4.71227 6.02028C4.68935 7.20685 4.70208 8.39597 4.70463 9.58509C4.70718 10.8863 5.46852 11.6756 6.76458 11.7214C6.82315 11.724 6.88426 11.7342 7.00648 11.7469C6.76713 12.4166 6.56343 13.0735 6.30116 13.705C6.06181 14.2856 5.75625 14.8381 5.48889 15.4059C5.40995 15.5714 5.31065 15.6402 5.11713 15.6402C4.02986 15.63 2.94514 15.6376 1.85787 15.6351C1.19329 15.6325 0.793519 15.2353 0.790972 14.5758C0.788426 10.0867 0.788426 5.60014 0.790972 1.11102C0.790972 0.413336 1.1831 0.0262985 1.89352 0.0237522C5.56782 0.0212059 9.24213 0.0237522 12.919 0.0237522C18.8671 0.0237522 24.8178 0.0288448 30.766 0.0161133C31.3516 0.0161133 31.7667 0.204539 31.9882 0.759632C31.9856 5.47537 31.9857 10.186 31.9857 14.8967Z" fill="#414141"/>
</svg>
