<svg width="24" height="24" viewBox="0 0 30 30" fill="none" xmlns="http://www.w3.org/2000/svg">
<path d="M18.0431 30.0003C13.5151 30.0003 8.98705 30.0003 4.45902 30.0003C4.07965 29.851 3.83489 29.5695 3.71006 29.1926C3.5167 28.6003 3.29153 28.0129 3.1716 27.4059C2.69676 24.995 3.04922 22.6527 3.85202 20.3593C4.39049 18.8246 5.16148 17.405 5.97652 16.005C7.5699 13.2711 8.37515 10.3266 8.25767 7.14968C8.24054 6.65526 8.19648 6.1633 8.16221 5.63462C8.28459 5.63462 8.39963 5.63462 8.51466 5.63462C12.3207 5.63462 16.1266 5.63462 19.9326 5.63462C20.9288 5.63462 21.9225 5.63707 22.9187 5.63217C23.0973 5.62973 23.1781 5.67378 23.1953 5.86714C23.3813 7.88395 23.2809 9.87873 22.8012 11.8539C22.3313 13.7851 21.5603 15.5865 20.5445 17.2876C19.4235 19.1673 18.5081 21.1278 18.141 23.3062C17.8302 25.1467 17.8693 26.9555 18.6672 28.6933C18.89 29.1804 18.6795 29.6772 18.1948 29.922C18.1434 29.944 18.092 29.9734 18.0431 30.0003ZM13.1504 13.6088C12.2668 13.6358 11.5864 14.0005 11.0822 14.6637C10.0738 15.9928 10.0713 17.711 11.0504 19.0645C12.0881 20.5012 14.1588 20.5086 15.1892 19.0669C16.0899 17.8064 16.1682 16.4627 15.4536 15.1043C14.9714 14.1865 14.1882 13.6456 13.1504 13.6088ZM13.1161 9.40879C13.1161 9.09795 13.1235 8.78466 13.1137 8.47382C13.099 7.92066 12.6902 7.51436 12.1738 7.52171C11.6647 7.52905 11.2706 7.93045 11.2608 8.47137C11.2511 9.08571 11.2486 9.70005 11.2608 10.3144C11.2706 10.8504 11.6794 11.2518 12.186 11.2518C12.6927 11.2518 13.0965 10.8529 13.1137 10.3168C13.1235 10.0158 13.1161 9.71229 13.1161 9.40879ZM14.9885 24.4027C14.9885 24.0918 14.9959 23.7785 14.9861 23.4677C14.9714 22.9145 14.5626 22.5082 14.0462 22.5156C13.5371 22.5229 13.143 22.9243 13.1332 23.4653C13.1235 24.0796 13.121 24.6939 13.1332 25.3083C13.143 25.8443 13.5518 26.2457 14.0584 26.2457C14.5651 26.2457 14.9689 25.8467 14.9861 25.3107C14.9983 25.0072 14.9885 24.7037 14.9885 24.4027Z" fill="#9D9D9D"/>
<path d="M29.9871 14.3037C29.7791 14.8201 29.3997 15.0257 28.8417 15.0208C27.2508 15.0037 25.6598 15.0135 24.0689 15.0135C23.9734 15.0135 23.8755 15.0135 23.7434 15.0135C23.785 14.8837 23.8168 14.7858 23.8462 14.6855C24.1595 13.6012 24.4752 12.5169 24.7811 11.4302C24.8301 11.2515 24.8913 11.1389 25.0822 11.0557C25.792 10.7547 26.2056 10.204 26.2203 9.43053C26.2448 8.16268 26.2472 6.89239 26.2228 5.62454C26.2007 4.56719 25.4346 3.82312 24.3773 3.77172C24.3088 3.76927 24.2402 3.76927 24.1717 3.76927C18.0527 3.76927 11.9362 3.77172 5.81729 3.76683C4.98511 3.76683 4.32182 4.06788 3.96202 4.83887C3.82985 5.12034 3.77601 5.45811 3.77111 5.7714C3.74908 6.91197 3.76132 8.05499 3.76377 9.19801C3.76621 10.4487 4.49804 11.2075 5.74386 11.2515C5.80015 11.254 5.8589 11.2638 5.97638 11.276C5.74631 11.9197 5.5505 12.5512 5.2984 13.1582C5.06833 13.7162 4.77462 14.2474 4.51762 14.7932C4.44175 14.9523 4.34629 15.0184 4.16028 15.0184C3.11516 15.0086 2.07249 15.0159 1.02737 15.0135C0.388553 15.011 0.00428327 14.6292 0.00183569 13.9953C-0.000611895 9.68018 -0.000611895 5.36755 0.00183569 1.05246C0.00183569 0.381823 0.378763 0.00979032 1.06164 0.00734274C4.5935 0.00489515 8.12536 0.00734274 11.6597 0.00734274C17.3772 0.00734274 23.0972 0.0122379 28.8148 0C29.3777 0 29.7767 0.181121 29.9896 0.714694C29.9871 5.24761 29.9871 9.77564 29.9871 14.3037Z" fill="#9D9D9D"/>
</svg>
