<svg width="176" height="176" viewBox="0 0 176 176" fill="none" xmlns="http://www.w3.org/2000/svg">
<g opacity="0.8">
<mask id="mask0_14834_5566" style="mask-type:alpha" maskUnits="userSpaceOnUse" x="0" y="0" width="176" height="176">
<circle cx="88" cy="88" r="87" fill="#C4C4C4" stroke="url(#paint0_linear_14834_5566)" stroke-width="2"/>
</mask>
<g mask="url(#mask0_14834_5566)">
<path d="M-23.5508 42.5444C-23.5508 42.5444 12.9055 35.7912 22.3116 12.1552C31.3074 -10.5025 68.3635 -16.5928 68.3635 -16.5928" stroke="url(#paint1_linear_14834_5566)" stroke-width="2" stroke-miterlimit="10"/>
<path d="M-23.5508 53.9045C-23.5508 53.9045 21.1753 46.1102 32.6962 17.583C43.6804 -9.65046 89.1009 -16.5928 89.1009 -16.5928" stroke="url(#paint2_linear_14834_5566)" stroke-width="2" stroke-miterlimit="10"/>
<path d="M-23.5508 65.2966C-23.5508 65.2966 29.4135 56.4292 43.0491 23.0739C56.0535 -8.82985 109.839 -16.5928 109.839 -16.5928" stroke="url(#paint3_linear_14834_5566)" stroke-width="2" stroke-miterlimit="10"/>
<path d="M-23.5508 76.657C-23.5508 76.657 37.6833 66.7483 53.4337 28.5016C68.4266 -7.97781 130.576 -16.5928 130.576 -16.5928" stroke="url(#paint4_linear_14834_5566)" stroke-width="2" stroke-miterlimit="10"/>
<path d="M-23.5508 88.0174C-23.5508 88.0174 45.953 77.0673 63.8182 33.9609C80.7995 -7.12576 151.282 -16.5928 151.282 -16.5928" stroke="url(#paint5_linear_14834_5566)" stroke-width="2" stroke-miterlimit="10"/>
<path d="M-23.5508 99.4093C-23.5508 99.4093 54.1912 87.4178 74.1712 39.4201C93.2041 -6.3054 172.019 -16.5928 172.019 -16.5928" stroke="url(#paint6_linear_14834_5566)" stroke-width="2" stroke-miterlimit="10"/>
<path d="M-23.5508 110.77C-23.5508 110.77 62.461 97.7052 84.5558 44.8795C105.577 -5.45336 192.757 -16.5928 192.757 -16.5928" stroke="url(#paint7_linear_14834_5566)" stroke-width="2" stroke-miterlimit="10"/>
<path d="M-23.5508 122.13C-23.5508 122.13 70.7308 108.024 94.9086 50.3073C117.95 -4.60131 213.495 -16.5928 213.495 -16.5928" stroke="url(#paint8_linear_14834_5566)" stroke-width="2" stroke-miterlimit="10"/>
<path d="M-23.5508 133.522C-23.5508 133.522 78.9688 118.375 105.293 55.798C130.324 -3.78093 234.201 -16.5928 234.201 -16.5928" stroke="url(#paint9_linear_14834_5566)" stroke-width="2" stroke-miterlimit="10"/>
<path d="M-23.5508 144.882C-23.5508 144.882 87.2387 128.694 115.646 61.2574C142.696 -2.92889 254.938 -16.5928 254.938 -16.5928" stroke="url(#paint10_linear_14834_5566)" stroke-width="2" stroke-miterlimit="10"/>
<path d="M-23.5508 156.274C-23.5508 156.274 95.5084 139.013 126.031 66.7166C155.07 -2.07686 275.675 -16.5928 275.675 -16.5928" stroke="url(#paint11_linear_14834_5566)" stroke-width="2" stroke-miterlimit="10"/>
<path d="M-23.5508 167.635C-23.5508 167.635 103.747 149.332 136.384 72.1761C167.443 -1.25625 296.412 -16.5928 296.412 -16.5928" stroke="url(#paint12_linear_14834_5566)" stroke-width="2" stroke-miterlimit="10"/>
<path d="M-23.5508 178.994C-23.5508 178.994 112.016 159.651 146.768 77.6036C179.816 -0.404216 317.15 -16.5928 317.15 -16.5928" stroke="url(#paint13_linear_14834_5566)" stroke-width="2" stroke-miterlimit="10"/>
<path d="M-23.5508 190.386C-23.5508 190.386 120.286 169.97 157.153 83.0945C192.189 0.447831 337.856 -16.5928 337.856 -16.5928" stroke="url(#paint14_linear_14834_5566)" stroke-width="2" stroke-miterlimit="10"/>
<path d="M-23.5508 201.747C-23.5508 201.747 128.524 180.289 167.506 88.5223C204.562 1.2682 358.594 -16.5928 358.594 -16.5928" stroke="url(#paint15_linear_14834_5566)" stroke-width="2" stroke-miterlimit="10"/>
<path d="M-23.5508 213.109C-23.5508 213.109 136.794 190.608 177.89 93.9815C216.935 2.12026 379.331 -16.5928 379.331 -16.5928" stroke="url(#paint16_linear_14834_5566)" stroke-width="2" stroke-miterlimit="10"/>
<path d="M-23.5508 224.501C-23.5508 224.501 145.064 200.958 188.243 99.4409C229.308 2.97229 400.069 -16.5928 400.069 -16.5928" stroke="url(#paint17_linear_14834_5566)" stroke-width="2" stroke-miterlimit="10"/>
<path d="M-23.5508 235.86C-23.5508 235.86 153.302 211.246 198.628 104.9C241.681 3.79266 420.776 -16.5928 420.776 -16.5928" stroke="url(#paint18_linear_14834_5566)" stroke-width="2" stroke-miterlimit="10"/>
</g>
</g>
<defs>
<linearGradient id="paint0_linear_14834_5566" x1="88" y1="0" x2="88" y2="176" gradientUnits="userSpaceOnUse">
<stop stop-color="#EBEBEB"/>
<stop offset="1" stop-color="#D9D9D9"/>
</linearGradient>
<linearGradient id="paint1_linear_14834_5566" x1="22.4063" y1="-16.5928" x2="22.4063" y2="42.5444" gradientUnits="userSpaceOnUse">
<stop stop-color="#EBEBEB"/>
<stop offset="1" stop-color="#D9D9D9"/>
</linearGradient>
<linearGradient id="paint2_linear_14834_5566" x1="32.7751" y1="-16.5928" x2="32.7751" y2="53.9045" gradientUnits="userSpaceOnUse">
<stop stop-color="#EBEBEB"/>
<stop offset="1" stop-color="#D9D9D9"/>
</linearGradient>
<linearGradient id="paint3_linear_14834_5566" x1="43.1439" y1="-16.5928" x2="43.1439" y2="65.2966" gradientUnits="userSpaceOnUse">
<stop stop-color="#EBEBEB"/>
<stop offset="1" stop-color="#D9D9D9"/>
</linearGradient>
<linearGradient id="paint4_linear_14834_5566" x1="53.5126" y1="-16.5928" x2="53.5126" y2="76.657" gradientUnits="userSpaceOnUse">
<stop stop-color="#EBEBEB"/>
<stop offset="1" stop-color="#D9D9D9"/>
</linearGradient>
<linearGradient id="paint5_linear_14834_5566" x1="63.8656" y1="-16.5928" x2="63.8656" y2="88.0174" gradientUnits="userSpaceOnUse">
<stop stop-color="#EBEBEB"/>
<stop offset="1" stop-color="#D9D9D9"/>
</linearGradient>
<linearGradient id="paint6_linear_14834_5566" x1="74.2343" y1="-16.5928" x2="74.2343" y2="99.4093" gradientUnits="userSpaceOnUse">
<stop stop-color="#EBEBEB"/>
<stop offset="1" stop-color="#D9D9D9"/>
</linearGradient>
<linearGradient id="paint7_linear_14834_5566" x1="84.603" y1="-16.5928" x2="84.603" y2="110.77" gradientUnits="userSpaceOnUse">
<stop stop-color="#EBEBEB"/>
<stop offset="1" stop-color="#D9D9D9"/>
</linearGradient>
<linearGradient id="paint8_linear_14834_5566" x1="94.9719" y1="-16.5928" x2="94.9719" y2="122.13" gradientUnits="userSpaceOnUse">
<stop stop-color="#EBEBEB"/>
<stop offset="1" stop-color="#D9D9D9"/>
</linearGradient>
<linearGradient id="paint9_linear_14834_5566" x1="105.325" y1="-16.5928" x2="105.325" y2="133.522" gradientUnits="userSpaceOnUse">
<stop stop-color="#EBEBEB"/>
<stop offset="1" stop-color="#D9D9D9"/>
</linearGradient>
<linearGradient id="paint10_linear_14834_5566" x1="115.694" y1="-16.5928" x2="115.694" y2="144.882" gradientUnits="userSpaceOnUse">
<stop stop-color="#EBEBEB"/>
<stop offset="1" stop-color="#D9D9D9"/>
</linearGradient>
<linearGradient id="paint11_linear_14834_5566" x1="126.062" y1="-16.5928" x2="126.062" y2="156.274" gradientUnits="userSpaceOnUse">
<stop stop-color="#EBEBEB"/>
<stop offset="1" stop-color="#D9D9D9"/>
</linearGradient>
<linearGradient id="paint12_linear_14834_5566" x1="136.431" y1="-16.5928" x2="136.431" y2="167.635" gradientUnits="userSpaceOnUse">
<stop stop-color="#EBEBEB"/>
<stop offset="1" stop-color="#D9D9D9"/>
</linearGradient>
<linearGradient id="paint13_linear_14834_5566" x1="146.799" y1="-16.5928" x2="146.799" y2="178.994" gradientUnits="userSpaceOnUse">
<stop stop-color="#EBEBEB"/>
<stop offset="1" stop-color="#D9D9D9"/>
</linearGradient>
<linearGradient id="paint14_linear_14834_5566" x1="157.153" y1="-16.5928" x2="157.153" y2="190.386" gradientUnits="userSpaceOnUse">
<stop stop-color="#EBEBEB"/>
<stop offset="1" stop-color="#D9D9D9"/>
</linearGradient>
<linearGradient id="paint15_linear_14834_5566" x1="167.522" y1="-16.5928" x2="167.522" y2="201.747" gradientUnits="userSpaceOnUse">
<stop stop-color="#EBEBEB"/>
<stop offset="1" stop-color="#D9D9D9"/>
</linearGradient>
<linearGradient id="paint16_linear_14834_5566" x1="177.89" y1="-16.5928" x2="177.89" y2="213.109" gradientUnits="userSpaceOnUse">
<stop stop-color="#EBEBEB"/>
<stop offset="1" stop-color="#D9D9D9"/>
</linearGradient>
<linearGradient id="paint17_linear_14834_5566" x1="188.259" y1="-16.5928" x2="188.259" y2="224.501" gradientUnits="userSpaceOnUse">
<stop stop-color="#EBEBEB"/>
<stop offset="1" stop-color="#D9D9D9"/>
</linearGradient>
<linearGradient id="paint18_linear_14834_5566" x1="198.612" y1="-16.5928" x2="198.612" y2="235.86" gradientUnits="userSpaceOnUse">
<stop stop-color="#EBEBEB"/>
<stop offset="1" stop-color="#D9D9D9"/>
</linearGradient>
</defs>
</svg>
