<svg width="34" height="37" viewBox="0 0 34 37" fill="none" xmlns="http://www.w3.org/2000/svg">
<g clip-path="url(#clip0_311_287)">
<path opacity="0.999" fill-rule="evenodd" clip-rule="evenodd" d="M17.953 -0.0133057C18.196 -0.0133057 18.4389 -0.0133057 18.6818 -0.0133057C18.9967 0.0492268 19.305 0.1422 19.6068 0.265615C20.0985 0.511883 20.5937 0.750958 21.0924 0.98284C21.6345 1.17765 22.1857 1.20422 22.7461 1.06253C23.3186 0.884689 23.8792 0.681032 24.4279 0.451562C25.2561 0.242097 26.0783 0.259806 26.8945 0.50469C28.0732 0.971988 28.5637 1.80875 28.3661 3.01498C28.2136 3.6137 27.9614 4.17154 27.6093 4.6885C26.889 5.71708 26.0528 6.6601 25.1006 7.51755C20.5318 7.53527 15.9629 7.53527 11.3941 7.51755C11.1078 7.30342 10.8275 7.08647 10.5532 6.86674C10.5345 6.83133 10.5065 6.80477 10.4691 6.78705C10.4157 6.78072 10.3784 6.75416 10.357 6.70736C10.3383 6.67195 10.3103 6.64538 10.2729 6.62766C9.61048 6.10613 8.99383 5.53945 8.42295 4.92758C8.41361 4.90101 8.39492 4.88329 8.36689 4.87445C8.33886 4.8656 8.32016 4.84788 8.31083 4.82132C8.31287 4.78076 8.29418 4.75419 8.25477 4.74163C8.00368 4.48369 7.78877 4.21362 7.61008 3.93143C7.14902 3.36424 6.94816 2.7223 7.00745 2.00555C7.16172 1.38983 7.54946 0.960383 8.17068 0.717201C8.9996 0.456328 9.84049 0.420907 10.6933 0.610945C10.8615 0.655219 11.0297 0.699491 11.1979 0.743765C11.8531 0.986171 12.5165 1.20754 13.188 1.40786C14.0065 1.66083 14.7913 1.58999 15.5425 1.19535C15.7582 1.06667 15.973 0.938279 16.1872 0.810175C16.23 0.812114 16.258 0.794404 16.2713 0.757047C16.7654 0.372365 17.326 0.115581 17.953 -0.0133057Z" fill="#810019"/>
<path opacity="0.596" fill-rule="evenodd" clip-rule="evenodd" d="M16.2712 0.757102C16.258 0.794458 16.2299 0.812168 16.1871 0.810229C16.2004 0.772873 16.2284 0.755162 16.2712 0.757102Z" fill="#810019"/>
<path opacity="0.031" fill-rule="evenodd" clip-rule="evenodd" d="M8.25479 4.7417C8.2942 4.75426 8.3129 4.78083 8.31085 4.82139C8.27144 4.80883 8.25274 4.78226 8.25479 4.7417Z" fill="#810019"/>
<path opacity="0.031" fill-rule="evenodd" clip-rule="evenodd" d="M8.36682 4.87451C8.39485 4.88336 8.41355 4.90108 8.42288 4.92764C8.38552 4.92764 8.36682 4.90992 8.36682 4.87451Z" fill="#810019"/>
<path opacity="0.031" fill-rule="evenodd" clip-rule="evenodd" d="M10.2728 6.62769C10.3102 6.6454 10.3382 6.67197 10.3569 6.70738C10.3009 6.70738 10.2728 6.68081 10.2728 6.62769Z" fill="#810019"/>
<path opacity="0.031" fill-rule="evenodd" clip-rule="evenodd" d="M10.4691 6.78711C10.5065 6.80483 10.5345 6.83139 10.5532 6.8668C10.4971 6.8668 10.4691 6.84024 10.4691 6.78711Z" fill="#810019"/>
<path opacity="0.999" fill-rule="evenodd" clip-rule="evenodd" d="M11.2539 8.22151C15.72 8.21708 20.186 8.22151 24.6521 8.23479C25.1862 8.36607 25.4057 8.68928 25.3108 9.20438C25.1958 9.48162 24.9856 9.65429 24.6801 9.72237C20.1954 9.74009 15.7106 9.74009 11.2259 9.72237C10.725 9.60145 10.5054 9.29597 10.5672 8.80592C10.6695 8.47416 10.8984 8.27937 11.2539 8.22151Z" fill="#810019"/>
<path opacity="0.999" fill-rule="evenodd" clip-rule="evenodd" d="M33.986 27.3741C33.986 27.8966 33.986 28.4188 33.986 28.9413C33.6213 32.7665 31.4535 35.0422 27.4831 35.7682C27.4469 35.7619 27.4189 35.7709 27.399 35.7948C26.9366 35.8827 26.4695 35.9359 25.9975 35.9542C25.8705 35.9457 25.749 35.9547 25.6331 35.9807C25.5864 35.9807 25.5397 35.9807 25.493 35.9807C25.2542 35.972 25.0207 35.981 24.7922 36.0073C24.7175 36.0073 24.6427 36.0073 24.568 36.0073C24.4224 35.9988 24.2822 36.0076 24.1475 36.0339C24.0354 36.0339 23.9233 36.0339 23.8112 36.0339C23.647 36.0254 23.4881 36.0341 23.3347 36.0604C23.2506 36.0604 23.1665 36.0604 23.0824 36.0604C22.9554 36.0519 22.8339 36.061 22.718 36.087C22.3914 36.1053 22.0644 36.1144 21.737 36.1136C21.6062 36.1136 21.4754 36.1136 21.3446 36.1136C21.3446 31.9874 21.3446 27.861 21.3446 23.7348C19.0321 23.726 16.7243 23.7348 14.4212 23.7614C14.4212 27.8788 14.4212 31.9962 14.4212 36.1136C14.1783 36.1136 13.9354 36.1136 13.6925 36.1136C13.4961 36.1298 13.3093 36.1298 13.1319 36.1136C12.9315 36.0873 12.726 36.0785 12.5152 36.087C12.3189 36.1032 12.132 36.1032 11.9546 36.087C11.7543 36.0607 11.5487 36.0519 11.338 36.0604C11.2352 36.0604 11.1324 36.0604 11.0297 36.0604C10.9044 36.0341 10.7735 36.0254 10.6372 36.0339C10.4784 36.0339 10.3196 36.0339 10.1607 36.0339C9.96439 36.0501 9.77751 36.0501 9.60014 36.0339C9.39979 36.0076 9.19424 35.9988 8.98349 36.0073C8.78714 36.0235 8.60027 36.0235 8.4229 36.0073C8.27882 35.981 8.12931 35.9722 7.97442 35.9807C7.72002 35.9818 7.46776 35.9643 7.21762 35.9276C7.15856 35.9019 7.09314 35.8931 7.02141 35.9011C6.97469 35.9011 6.92799 35.9011 6.88126 35.9011C6.86139 35.8771 6.83336 35.8681 6.79717 35.8745C6.71112 35.8779 6.62703 35.8692 6.54491 35.8479C6.50513 35.8227 6.45844 35.8139 6.40476 35.8214C6.17831 35.7975 5.95407 35.7619 5.73205 35.7151C5.71217 35.6912 5.68414 35.6822 5.64796 35.6885C5.55156 35.6808 5.45814 35.6633 5.36766 35.6354C5.34779 35.6115 5.31976 35.6025 5.28357 35.6089C4.96698 35.556 4.65865 35.4763 4.35859 35.3698C4.33872 35.3459 4.31069 35.3368 4.2745 35.3432C4.03468 35.2726 3.81044 35.1929 3.60179 35.1041C3.57337 35.0731 3.536 35.0553 3.48967 35.051C3.36797 35.0205 3.24651 34.9673 3.12529 34.8916C3.10314 34.8677 3.07511 34.8499 3.0412 34.8385C2.90245 34.7904 2.77164 34.7285 2.64878 34.6526C2.20512 34.3917 1.82205 34.0639 1.49956 33.6697C1.48088 33.6344 1.45285 33.6078 1.41548 33.59C0.803924 32.9004 0.402166 32.13 0.210199 31.2789C0.216851 31.2447 0.207508 31.2181 0.18217 31.1992C0.18217 31.1905 0.18217 31.1815 0.18217 31.1727C0.188821 31.1384 0.179478 31.1119 0.15414 31.093C0.133997 31.033 0.124654 30.9708 0.12611 30.907C0.133617 30.8645 0.124274 30.8292 0.0980806 30.8008C0.0589476 30.6531 0.040261 30.5025 0.0420213 30.3492C0.0499952 30.2985 0.040652 30.2541 0.0139916 30.2164C0.0222524 30.1569 0.0129092 30.1038 -0.0140381 30.057C-0.0140381 29.6232 -0.0140381 29.1892 -0.0140381 28.7554C0.0102053 28.6093 0.0288919 28.4587 0.0420213 28.3038C0.0689684 28.257 0.0783119 28.2039 0.0700509 28.1444C0.245286 26.732 0.581643 25.355 1.07912 24.0137C1.90148 21.5386 3.10208 19.2408 4.68093 17.1204C6.49594 14.7001 8.58415 12.4997 10.9456 10.5193C15.5705 10.5016 20.1954 10.5016 24.8203 10.5193C25.5104 10.8811 26.1457 11.315 26.7263 11.8209C28.2685 13.2267 29.5346 14.8249 30.5243 16.6157C32.372 20.0045 33.5257 23.5906 33.986 27.3741ZM17.7848 13.2155C18.749 13.1909 19.6179 13.4122 20.3916 13.8796C20.4048 13.9169 20.4329 13.9347 20.4757 13.9327C20.9241 14.2338 21.3072 14.5968 21.6249 15.0218C21.6228 15.0624 21.6415 15.089 21.6809 15.1015C21.9253 15.4833 22.1075 15.8729 22.2275 16.2703C22.2787 16.4729 22.3207 16.6765 22.3536 16.8813C22.3263 16.9554 22.3357 17.0262 22.3817 17.0938C22.3817 17.2532 22.3817 17.4126 22.3817 17.572C22.3618 17.6355 22.3431 17.702 22.3256 17.7712C22.332 17.7818 22.3414 17.7862 22.3536 17.7845C22.3536 17.8111 22.3536 17.8376 22.3536 17.8642C22.3331 17.9008 22.3144 17.9406 22.2976 17.9837C22.304 17.9943 22.3133 17.9987 22.3256 17.997C22.0232 19.458 21.1543 20.5072 19.7189 21.1448C17.8979 21.7702 16.2862 21.4559 14.8837 20.2018C13.7281 18.9586 13.4104 17.5419 13.9307 15.9516C14.5054 14.5908 15.5285 13.7186 17 13.335C17.1856 13.2954 17.3725 13.2644 17.5606 13.2421C17.5587 13.2537 17.5634 13.2626 17.5746 13.2686C17.6477 13.2521 17.7177 13.2344 17.7848 13.2155Z" fill="#810019"/>
<path opacity="0.141" fill-rule="evenodd" clip-rule="evenodd" d="M17.7848 13.2156C17.7177 13.2344 17.6477 13.2521 17.5746 13.2687C17.5634 13.2626 17.5587 13.2538 17.5606 13.2421C17.6292 13.2163 17.7039 13.2074 17.7848 13.2156Z" fill="#810019"/>
<path opacity="0.51" fill-rule="evenodd" clip-rule="evenodd" d="M20.3916 13.8797C20.4344 13.8777 20.4624 13.8954 20.4757 13.9328C20.4329 13.9347 20.4049 13.917 20.3916 13.8797Z" fill="#810019"/>
<path opacity="0.031" fill-rule="evenodd" clip-rule="evenodd" d="M21.6249 15.0219C21.6643 15.0344 21.683 15.061 21.681 15.1015C21.6416 15.089 21.6229 15.0624 21.6249 15.0219Z" fill="#810019"/>
<path opacity="0.141" fill-rule="evenodd" clip-rule="evenodd" d="M22.3536 16.8813C22.3809 16.9464 22.3903 17.0172 22.3817 17.0939C22.3357 17.0262 22.3263 16.9554 22.3536 16.8813Z" fill="#810019"/>
<path opacity="0.322" fill-rule="evenodd" clip-rule="evenodd" d="M22.3817 17.572C22.3903 17.6487 22.381 17.7195 22.3537 17.7845C22.3414 17.7863 22.3321 17.7818 22.3257 17.7713C22.3431 17.702 22.3618 17.6356 22.3817 17.572Z" fill="#810019"/>
<path opacity="0.235" fill-rule="evenodd" clip-rule="evenodd" d="M22.3537 17.8643C22.3616 17.9151 22.3523 17.9594 22.3256 17.9971C22.3134 17.9988 22.304 17.9944 22.2976 17.9838C22.3144 17.9407 22.3331 17.9009 22.3537 17.8643Z" fill="#810019"/>
<path opacity="0.235" fill-rule="evenodd" clip-rule="evenodd" d="M14.4213 23.7614C16.7243 23.7349 19.0321 23.726 21.3446 23.7349C21.3446 27.861 21.3446 31.9875 21.3446 36.1136C21.4754 36.1136 21.6062 36.1136 21.737 36.1136C21.6723 36.1312 21.6022 36.1402 21.5268 36.1402C21.4419 36.1434 21.3625 36.1301 21.2885 36.1004C21.2925 31.9981 21.3018 27.894 21.3166 23.788C19.0182 23.7614 16.7198 23.7526 14.4213 23.7614Z" fill="#810019"/>
<path opacity="0.322" fill-rule="evenodd" clip-rule="evenodd" d="M0.0700974 28.1444C0.0783583 28.2039 0.0690149 28.257 0.0420678 28.3038C0.0341337 28.2847 0.0247905 28.2626 0.0140381 28.2374C0.0304298 28.2028 0.0491164 28.1718 0.0700974 28.1444Z" fill="#810019"/>
<path opacity="0.322" fill-rule="evenodd" clip-rule="evenodd" d="M0.0139916 30.2164C0.040652 30.2542 0.0499951 30.2985 0.0420213 30.3493C0.0233348 30.3405 0.00464837 30.3315 -0.0140381 30.3227C-0.0140381 30.3139 -0.0140381 30.3049 -0.0140381 30.2961C0.0233348 30.2874 0.0233348 30.2783 -0.0140381 30.2696C-0.0140381 30.2608 -0.0140381 30.2518 -0.0140381 30.243C0.00464837 30.243 0.0139916 30.2342 0.0139916 30.2164Z" fill="#810019"/>
<path opacity="0.141" fill-rule="evenodd" clip-rule="evenodd" d="M0.0981378 30.8008C0.124331 30.8292 0.133674 30.8645 0.126167 30.907C0.0810562 30.876 0.0717128 30.8406 0.0981378 30.8008Z" fill="#810019"/>
<path opacity="0.031" fill-rule="evenodd" clip-rule="evenodd" d="M0.154128 31.0931C0.179466 31.1119 0.18881 31.1385 0.182158 31.1728C0.160648 31.155 0.141962 31.1326 0.126099 31.1063C0.132502 31.0957 0.141845 31.0912 0.154128 31.0931Z" fill="#810019"/>
<path opacity="0.51" fill-rule="evenodd" clip-rule="evenodd" d="M0.182204 31.1993C0.207542 31.2181 0.216886 31.2447 0.210234 31.279C0.188724 31.2612 0.170038 31.2388 0.154175 31.2125C0.160578 31.2019 0.169921 31.1974 0.182204 31.1993Z" fill="#810019"/>
<path opacity="0.031" fill-rule="evenodd" clip-rule="evenodd" d="M1.41553 33.59C1.4529 33.6078 1.48093 33.6343 1.49962 33.6697C1.44356 33.6697 1.41553 33.6431 1.41553 33.59Z" fill="#810019"/>
<path opacity="0.031" fill-rule="evenodd" clip-rule="evenodd" d="M2.64961 34.6526C2.62982 34.6725 2.62982 34.6725 2.64961 34.6526V34.6526Z" fill="#810019"/>
<path opacity="0.031" fill-rule="evenodd" clip-rule="evenodd" d="M3.04126 34.8385C3.07518 34.8499 3.10321 34.8677 3.12535 34.8916C3.07829 34.8972 3.05026 34.8797 3.04126 34.8385Z" fill="#810019"/>
<path opacity="0.031" fill-rule="evenodd" clip-rule="evenodd" d="M3.48975 35.051C3.53608 35.0553 3.57344 35.0731 3.60186 35.1042C3.54917 35.1113 3.51181 35.0935 3.48975 35.051Z" fill="#810019"/>
<path opacity="0.031" fill-rule="evenodd" clip-rule="evenodd" d="M4.27454 35.3433C4.31072 35.3369 4.33875 35.3459 4.35863 35.3699C4.36045 35.3815 4.35579 35.3903 4.34461 35.3964C4.31672 35.3813 4.29337 35.3637 4.27454 35.3433Z" fill="#810019"/>
<path opacity="0.031" fill-rule="evenodd" clip-rule="evenodd" d="M5.28357 35.6089C5.31976 35.6025 5.34779 35.6116 5.36766 35.6355C5.36948 35.6472 5.36483 35.6559 5.35364 35.662C5.32575 35.6469 5.30241 35.6294 5.28357 35.6089Z" fill="#810019"/>
<path opacity="0.235" fill-rule="evenodd" clip-rule="evenodd" d="M5.64795 35.6885C5.68414 35.6821 5.71217 35.6912 5.73204 35.7151C5.69294 35.7499 5.66491 35.7411 5.64795 35.6885Z" fill="#810019"/>
<path opacity="0.031" fill-rule="evenodd" clip-rule="evenodd" d="M27.4831 35.7682C27.4629 35.8182 27.4349 35.8272 27.399 35.7948C27.4189 35.7709 27.447 35.7618 27.4831 35.7682Z" fill="#810019"/>
<path opacity="0.392" fill-rule="evenodd" clip-rule="evenodd" d="M6.40479 35.8214C6.45846 35.814 6.50516 35.8227 6.54493 35.848C6.54676 35.8597 6.5421 35.8684 6.53092 35.8745C6.48545 35.8586 6.44341 35.8408 6.40479 35.8214Z" fill="#810019"/>
<path opacity="0.141" fill-rule="evenodd" clip-rule="evenodd" d="M6.79724 35.8745C6.83343 35.8682 6.86146 35.8772 6.88133 35.9011C6.84223 35.9359 6.8142 35.9271 6.79724 35.8745Z" fill="#810019"/>
<path opacity="0.031" fill-rule="evenodd" clip-rule="evenodd" d="M7.02148 35.901C7.09321 35.8931 7.15863 35.9018 7.21769 35.9276C7.19423 35.9305 7.1662 35.9393 7.1336 35.9542C7.09083 35.9411 7.05347 35.9233 7.02148 35.901Z" fill="#810019"/>
<path opacity="0.392" fill-rule="evenodd" clip-rule="evenodd" d="M25.6332 35.9807C25.7491 35.9547 25.8705 35.9456 25.9976 35.9541C25.8701 36.0017 25.7487 36.0105 25.6332 35.9807Z" fill="#810019"/>
<path opacity="0.392" fill-rule="evenodd" clip-rule="evenodd" d="M7.97449 35.9808C8.12938 35.9723 8.27889 35.9811 8.42296 36.0074C8.34378 36.0039 8.25969 36.0127 8.1707 36.0339C8.10113 36.0188 8.0357 36.0012 7.97449 35.9808Z" fill="#810019"/>
<path opacity="0.392" fill-rule="evenodd" clip-rule="evenodd" d="M25.493 35.9808C25.3378 35.9996 25.179 36.0172 25.0165 36.0339C24.9391 36.0236 24.8643 36.0148 24.7922 36.0073C25.0207 35.9811 25.2542 35.972 25.493 35.9808Z" fill="#810019"/>
<path opacity="0.392" fill-rule="evenodd" clip-rule="evenodd" d="M8.98352 36.0073C9.19428 35.9988 9.39982 36.0076 9.60017 36.0338C9.59849 36.0482 9.58916 36.0572 9.57214 36.0604C9.37229 36.0437 9.17608 36.0259 8.98352 36.0073Z" fill="#810019"/>
<path opacity="0.141" fill-rule="evenodd" clip-rule="evenodd" d="M24.568 36.0073C24.5199 36.0264 24.4685 36.0442 24.4139 36.0604C24.321 36.0394 24.2322 36.0307 24.1476 36.0338C24.2823 36.0076 24.4224 35.9988 24.568 36.0073Z" fill="#810019"/>
<path opacity="0.235" fill-rule="evenodd" clip-rule="evenodd" d="M10.1608 36.0339C10.3196 36.0339 10.4784 36.0339 10.6373 36.0339C10.6373 36.0427 10.6373 36.0517 10.6373 36.0605C10.4736 36.0847 10.3148 36.0756 10.1608 36.0339Z" fill="#810019"/>
<path opacity="0.51" fill-rule="evenodd" clip-rule="evenodd" d="M10.6372 36.0605C10.6372 36.0517 10.6372 36.0427 10.6372 36.0339C10.7735 36.0254 10.9043 36.0342 11.0296 36.0605C10.9084 36.0724 10.7776 36.0724 10.6372 36.0605Z" fill="#810019"/>
<path opacity="0.392" fill-rule="evenodd" clip-rule="evenodd" d="M23.8112 36.0339C23.6935 36.053 23.572 36.0708 23.4468 36.087C23.4038 36.0684 23.3664 36.0597 23.3347 36.0605C23.4882 36.0342 23.647 36.0254 23.8112 36.0339Z" fill="#810019"/>
<path opacity="0.322" fill-rule="evenodd" clip-rule="evenodd" d="M11.338 36.0605C11.5488 36.052 11.7543 36.0608 11.9547 36.0871C11.953 36.1014 11.9436 36.1104 11.9266 36.1136C11.7268 36.0969 11.5306 36.0791 11.338 36.0605Z" fill="#810019"/>
<path opacity="0.392" fill-rule="evenodd" clip-rule="evenodd" d="M23.0824 36.0605C22.9685 36.0788 22.8517 36.0966 22.7321 36.1136C22.7209 36.1075 22.7162 36.0987 22.718 36.087C22.8339 36.061 22.9554 36.052 23.0824 36.0605Z" fill="#810019"/>
<path opacity="0.235" fill-rule="evenodd" clip-rule="evenodd" d="M12.5153 36.087C12.726 36.0785 12.9316 36.0873 13.1319 36.1136C13.0527 36.1101 12.9686 36.1189 12.8796 36.1401C12.7544 36.1239 12.633 36.1061 12.5153 36.087Z" fill="#810019"/>
<path opacity="0.392" fill-rule="evenodd" clip-rule="evenodd" d="M13.6925 36.1135C13.9354 36.1135 14.1783 36.1135 14.4213 36.1135C14.3839 36.1313 14.3465 36.1489 14.3092 36.1667C14.2905 36.1667 14.2718 36.1667 14.2531 36.1667C14.0662 36.1489 13.8794 36.1313 13.6925 36.1135Z" fill="#810019"/>
</g>
<defs>
<clipPath id="clip0_311_287">
<rect width="34" height="36.18" fill="white"/>
</clipPath>
</defs>
</svg>
