<svg width="24" height="27" viewBox="0 0 24 27" fill="none" xmlns="http://www.w3.org/2000/svg">
<g clip-path="url(#clip0_210_2335)">
<path opacity="0.999" fill-rule="evenodd" clip-rule="evenodd" d="M12.6727 -0.0100098C12.8442 -0.0100098 13.0157 -0.0100098 13.1871 -0.0100098C13.4094 0.0365665 13.6271 0.105816 13.8401 0.19774C14.1872 0.381168 14.5367 0.559239 14.8887 0.731952C15.2714 0.877054 15.6605 0.89684 16.0561 0.791309C16.4602 0.658846 16.8559 0.507156 17.2432 0.336239C17.8279 0.180223 18.4082 0.193413 18.9843 0.375811C19.8163 0.72387 20.1626 1.34712 20.0231 2.24555C19.9155 2.6915 19.7374 3.107 19.4889 3.49205C18.9804 4.25817 18.3902 4.96056 17.7181 5.59922C14.493 5.61242 11.2679 5.61242 8.04288 5.59922C7.84079 5.43973 7.64293 5.27814 7.44931 5.11448C7.43611 5.0881 7.41632 5.06832 7.38995 5.05512C7.35228 5.05041 7.32588 5.03062 7.31081 4.99576C7.29761 4.96939 7.27783 4.9496 7.25145 4.9364C6.78386 4.54795 6.34857 4.12586 5.9456 3.67012C5.93901 3.65034 5.92581 3.63714 5.90603 3.63055C5.88624 3.62396 5.87304 3.61077 5.86646 3.59098C5.8679 3.56077 5.8547 3.54098 5.82688 3.53162C5.64964 3.3395 5.49795 3.13834 5.37181 2.92816C5.04636 2.5057 4.90458 2.02756 4.94642 1.4937C5.05532 1.03509 5.32902 0.715226 5.76753 0.534096C6.35265 0.339789 6.94622 0.313407 7.54824 0.454953C7.66695 0.48793 7.78566 0.520905 7.90438 0.553881C8.36689 0.734433 8.83513 0.899315 9.30916 1.04852C9.88694 1.23694 10.4409 1.18418 10.9712 0.890238C11.1234 0.794394 11.2751 0.698762 11.4262 0.603346C11.4564 0.60479 11.4762 0.591599 11.4856 0.563774C11.8344 0.27725 12.2301 0.0859896 12.6727 -0.0100098Z" fill="#5C5656"/>
<path opacity="0.596" fill-rule="evenodd" clip-rule="evenodd" d="M11.4856 0.563828C11.4762 0.591652 11.4564 0.604843 11.4262 0.603399C11.4356 0.575574 11.4554 0.562383 11.4856 0.563828Z" fill="#5C5656"/>
<path opacity="0.031" fill-rule="evenodd" clip-rule="evenodd" d="M5.82689 3.53174C5.85471 3.5411 5.8679 3.56088 5.86646 3.5911C5.83864 3.58174 5.82544 3.56195 5.82689 3.53174Z" fill="#5C5656"/>
<path opacity="0.031" fill-rule="evenodd" clip-rule="evenodd" d="M5.90601 3.63062C5.92579 3.6372 5.93899 3.6504 5.94558 3.67019C5.9192 3.67019 5.90601 3.65699 5.90601 3.63062Z" fill="#5C5656"/>
<path opacity="0.031" fill-rule="evenodd" clip-rule="evenodd" d="M7.25146 4.93652C7.27784 4.94972 7.29762 4.96951 7.31082 4.99588C7.27125 4.99588 7.25146 4.97609 7.25146 4.93652Z" fill="#5C5656"/>
<path opacity="0.031" fill-rule="evenodd" clip-rule="evenodd" d="M7.38995 5.05518C7.41633 5.06837 7.43611 5.08816 7.44931 5.11453C7.40974 5.11453 7.38995 5.09475 7.38995 5.05518Z" fill="#5C5656"/>
<path opacity="0.999" fill-rule="evenodd" clip-rule="evenodd" d="M7.94395 6.12355C11.0965 6.12025 14.249 6.12355 17.4015 6.13345C17.7785 6.23123 17.9335 6.47196 17.8665 6.85562C17.7853 7.06213 17.6369 7.19073 17.4213 7.24144C14.2556 7.25464 11.0899 7.25464 7.92416 7.24144C7.57061 7.15138 7.41561 6.92384 7.4592 6.55884C7.53142 6.31174 7.69301 6.16665 7.94395 6.12355Z" fill="#5C5656"/>
<path opacity="0.999" fill-rule="evenodd" clip-rule="evenodd" d="M23.9901 20.3891C23.9901 20.7783 23.9901 21.1673 23.9901 21.5564C23.7327 24.4056 22.2025 26.1006 19.3998 26.6414C19.3743 26.6366 19.3545 26.6433 19.3405 26.6611C19.0141 26.7266 18.6844 26.7662 18.3512 26.7799C18.2615 26.7735 18.1758 26.7803 18.094 26.7996C18.061 26.7996 18.028 26.7996 17.9951 26.7996C17.8265 26.7931 17.6617 26.7998 17.5004 26.8194C17.4476 26.8194 17.3949 26.8194 17.3421 26.8194C17.2393 26.8131 17.1404 26.8196 17.0453 26.8392C16.9662 26.8392 16.8871 26.8392 16.8079 26.8392C16.692 26.8329 16.5799 26.8394 16.4716 26.859C16.4122 26.859 16.3528 26.859 16.2935 26.859C16.2038 26.8527 16.1181 26.8594 16.0363 26.8788C15.8057 26.8924 15.5749 26.8992 15.3438 26.8986C15.2514 26.8986 15.1591 26.8986 15.0668 26.8986C15.0668 23.8253 15.0668 20.7518 15.0668 17.6785C13.4344 17.6719 11.8054 17.6785 10.1797 17.6982C10.1797 20.765 10.1797 23.8318 10.1797 26.8986C10.0082 26.8986 9.83678 26.8986 9.6653 26.8986C9.5267 26.9106 9.39479 26.9106 9.26958 26.8986C9.12816 26.879 8.98307 26.8725 8.8343 26.8788C8.6957 26.8909 8.56379 26.8909 8.43859 26.8788C8.29716 26.8592 8.15207 26.8527 8.0033 26.859C7.93075 26.859 7.85821 26.859 7.78566 26.859C7.69722 26.8394 7.60488 26.8329 7.50866 26.8392C7.39654 26.8392 7.28443 26.8392 7.17231 26.8392C7.03371 26.8513 6.9018 26.8513 6.77659 26.8392C6.63516 26.8196 6.49008 26.8131 6.34131 26.8194C6.20271 26.8315 6.0708 26.8315 5.94559 26.8194C5.8439 26.7998 5.73836 26.7933 5.62902 26.7996C5.44945 26.8004 5.27138 26.7874 5.09481 26.7601C5.05312 26.7409 5.00694 26.7344 4.95631 26.7403C4.92333 26.7403 4.89037 26.7403 4.85738 26.7403C4.84336 26.7225 4.82357 26.7158 4.79803 26.7205C4.73728 26.7231 4.67793 26.7165 4.61996 26.7007C4.59188 26.6819 4.55892 26.6754 4.52103 26.6809C4.36118 26.6631 4.20289 26.6366 4.04617 26.6018C4.03214 26.584 4.01236 26.5773 3.98681 26.582C3.91877 26.5763 3.85283 26.5632 3.78896 26.5424C3.77493 26.5246 3.75514 26.5179 3.7296 26.5226C3.50612 26.4833 3.28848 26.4239 3.07667 26.3446C3.06265 26.3268 3.04286 26.32 3.01732 26.3248C2.84803 26.2722 2.68975 26.2128 2.54246 26.1467C2.5224 26.1236 2.49602 26.1103 2.46332 26.1071C2.37741 26.0844 2.29168 26.0448 2.20611 25.9884C2.19047 25.9706 2.17069 25.9574 2.14675 25.9489C2.04881 25.913 1.95647 25.8669 1.86975 25.8104C1.55658 25.6161 1.28618 25.3719 1.05854 25.0783C1.04535 25.052 1.02556 25.0322 0.999181 25.0189C0.567497 24.5053 0.283904 23.9315 0.148398 23.2976C0.153093 23.2721 0.146498 23.2523 0.128612 23.2382C0.128612 23.2317 0.128612 23.225 0.128612 23.2184C0.133307 23.1929 0.126712 23.1731 0.108826 23.1591C0.0946079 23.1144 0.0880127 23.0681 0.0890406 23.0206C0.0943394 22.9889 0.0877442 22.9626 0.0692549 22.9414C0.0416316 22.8314 0.0284411 22.7192 0.0296836 22.6051C0.0353122 22.5673 0.0287171 22.5343 0.00989796 22.5062C0.0157291 22.4618 0.00913392 22.4223 -0.0098877 22.3874C-0.0098877 22.0643 -0.0098877 21.741 -0.0098877 21.4179C0.00722531 21.3091 0.0204158 21.1969 0.0296836 21.0816C0.0487051 21.0468 0.0553005 21.0072 0.0494693 20.9629C0.173164 19.9109 0.410593 18.8853 0.761753 17.8862C1.34224 16.0426 2.18972 14.3312 3.30421 12.7518C4.58539 10.9491 6.05942 9.31019 7.7263 7.83509C10.9909 7.8219 14.2556 7.8219 17.5202 7.83509C18.0073 8.10459 18.4558 8.42777 18.8656 8.80459C19.9542 9.85165 20.848 11.0421 21.5466 12.3759C22.8509 14.9 23.6652 17.5711 23.9901 20.3891ZM12.554 9.84334C13.2346 9.82498 13.8479 9.98985 14.3941 10.338C14.4034 10.3658 14.4232 10.379 14.4534 10.3775C14.77 10.6018 15.0404 10.8722 15.2646 11.1888C15.2632 11.219 15.2764 11.2388 15.3042 11.2481C15.4767 11.5325 15.6053 11.8226 15.69 12.1187C15.7261 12.2695 15.7558 12.4212 15.7791 12.5738C15.7598 12.6289 15.7664 12.6817 15.7989 12.732C15.7989 12.8508 15.7989 12.9695 15.7989 13.0882C15.7848 13.1355 15.7716 13.185 15.7593 13.2366C15.7638 13.2445 15.7704 13.2478 15.7791 13.2465C15.7791 13.2663 15.7791 13.286 15.7791 13.3058C15.7645 13.3331 15.7513 13.3628 15.7395 13.3949C15.744 13.4028 15.7506 13.406 15.7593 13.4048C15.5458 14.4929 14.9325 15.2745 13.9192 15.7494C12.6338 16.2152 11.4961 15.981 10.5062 15.047C9.69046 14.121 9.46621 13.0658 9.83348 11.8813C10.2391 10.8677 10.9613 10.2181 12 9.93237C12.131 9.90285 12.263 9.87978 12.3957 9.86312C12.3944 9.87179 12.3977 9.8784 12.4056 9.88291C12.4572 9.87058 12.5067 9.85738 12.554 9.84334Z" fill="#5C5656"/>
<path opacity="0.141" fill-rule="evenodd" clip-rule="evenodd" d="M12.554 9.84348C12.5067 9.85753 12.4572 9.87073 12.4056 9.88305C12.3977 9.87854 12.3944 9.87193 12.3957 9.86327C12.4442 9.84402 12.4969 9.83743 12.554 9.84348Z" fill="#5C5656"/>
<path opacity="0.51" fill-rule="evenodd" clip-rule="evenodd" d="M14.394 10.338C14.4243 10.3366 14.444 10.3498 14.4534 10.3776C14.4232 10.379 14.4034 10.3658 14.394 10.338Z" fill="#5C5656"/>
<path opacity="0.031" fill-rule="evenodd" clip-rule="evenodd" d="M15.2646 11.1887C15.2925 11.1981 15.3056 11.2179 15.3042 11.2481C15.2764 11.2387 15.2632 11.2189 15.2646 11.1887Z" fill="#5C5656"/>
<path opacity="0.141" fill-rule="evenodd" clip-rule="evenodd" d="M15.7791 12.5737C15.7983 12.6222 15.8049 12.6749 15.7989 12.732C15.7664 12.6816 15.7598 12.6289 15.7791 12.5737Z" fill="#5C5656"/>
<path opacity="0.322" fill-rule="evenodd" clip-rule="evenodd" d="M15.7988 13.0881C15.8049 13.1452 15.7983 13.198 15.7791 13.2464C15.7704 13.2477 15.7638 13.2444 15.7593 13.2365C15.7716 13.1849 15.7848 13.1355 15.7988 13.0881Z" fill="#5C5656"/>
<path opacity="0.235" fill-rule="evenodd" clip-rule="evenodd" d="M15.7791 13.3059C15.7847 13.3438 15.7781 13.3768 15.7593 13.4048C15.7506 13.4061 15.744 13.4028 15.7395 13.3949C15.7514 13.3629 15.7646 13.3332 15.7791 13.3059Z" fill="#5C5656"/>
<path opacity="0.235" fill-rule="evenodd" clip-rule="evenodd" d="M10.1797 17.6983C11.8054 17.6785 13.4344 17.6719 15.0668 17.6785C15.0668 20.7518 15.0668 23.8253 15.0668 26.8986C15.1591 26.8986 15.2515 26.8986 15.3438 26.8986C15.2981 26.9117 15.2486 26.9184 15.1954 26.9184C15.1355 26.9208 15.0794 26.9109 15.0272 26.8887C15.03 23.8332 15.0366 20.7763 15.047 17.7181C13.4247 17.6983 11.8022 17.6917 10.1797 17.6983Z" fill="#5C5656"/>
<path opacity="0.322" fill-rule="evenodd" clip-rule="evenodd" d="M0.049459 20.9629C0.0552902 21.0072 0.0486949 21.0468 0.0296734 21.0816C0.0240728 21.0674 0.0174776 21.0509 0.0098877 21.0321C0.0214583 21.0064 0.0346489 20.9833 0.049459 20.9629Z" fill="#5C5656"/>
<path opacity="0.322" fill-rule="evenodd" clip-rule="evenodd" d="M0.00989796 22.5061C0.0287171 22.5342 0.0353122 22.5672 0.0296836 22.605C0.0164932 22.5985 0.00330275 22.5918 -0.0098877 22.5852C-0.0098877 22.5787 -0.0098877 22.572 -0.0098877 22.5655C0.0164932 22.5589 0.0164932 22.5522 -0.0098877 22.5457C-0.0098877 22.5391 -0.0098877 22.5324 -0.0098877 22.5259C0.00330275 22.5259 0.00989796 22.5194 0.00989796 22.5061Z" fill="#5C5656"/>
<path opacity="0.141" fill-rule="evenodd" clip-rule="evenodd" d="M0.0692343 22.9414C0.0877236 22.9626 0.0943187 22.9889 0.0890199 23.0205C0.0571767 22.9974 0.0505813 22.9711 0.0692343 22.9414Z" fill="#5C5656"/>
<path opacity="0.031" fill-rule="evenodd" clip-rule="evenodd" d="M0.108836 23.159C0.126722 23.173 0.133317 23.1928 0.128622 23.2184C0.113438 23.2051 0.100248 23.1885 0.0890503 23.1689C0.0935703 23.161 0.100165 23.1576 0.108836 23.159Z" fill="#5C5656"/>
<path opacity="0.51" fill-rule="evenodd" clip-rule="evenodd" d="M0.128611 23.2383C0.146497 23.2524 0.153092 23.2722 0.148397 23.2977C0.133214 23.2844 0.120023 23.2678 0.108826 23.2482C0.113346 23.2403 0.119941 23.237 0.128611 23.2383Z" fill="#5C5656"/>
<path opacity="0.031" fill-rule="evenodd" clip-rule="evenodd" d="M0.999146 25.019C1.02553 25.0323 1.04531 25.0521 1.0585 25.0784C1.01893 25.0784 0.999146 25.0586 0.999146 25.019Z" fill="#5C5656"/>
<path opacity="0.031" fill-rule="evenodd" clip-rule="evenodd" d="M1.87017 25.8103C1.85643 25.8241 1.85643 25.8241 1.87017 25.8103V25.8103Z" fill="#5C5656"/>
<path opacity="0.031" fill-rule="evenodd" clip-rule="evenodd" d="M2.14673 25.949C2.17067 25.9575 2.19045 25.9707 2.20609 25.9885C2.17287 25.9927 2.15308 25.9796 2.14673 25.949Z" fill="#5C5656"/>
<path opacity="0.031" fill-rule="evenodd" clip-rule="evenodd" d="M2.46332 26.1072C2.49602 26.1103 2.5224 26.1236 2.54246 26.1467C2.50526 26.1521 2.47889 26.1388 2.46332 26.1072Z" fill="#5C5656"/>
<path opacity="0.031" fill-rule="evenodd" clip-rule="evenodd" d="M3.01733 26.3247C3.04288 26.32 3.06266 26.3267 3.07669 26.3445C3.07798 26.3532 3.07469 26.3597 3.0668 26.3643C3.04711 26.353 3.03063 26.34 3.01733 26.3247Z" fill="#5C5656"/>
<path opacity="0.031" fill-rule="evenodd" clip-rule="evenodd" d="M3.72961 26.5227C3.75516 26.518 3.77494 26.5247 3.78897 26.5425C3.79026 26.5512 3.78697 26.5577 3.77908 26.5623C3.75939 26.551 3.74291 26.538 3.72961 26.5227Z" fill="#5C5656"/>
<path opacity="0.235" fill-rule="evenodd" clip-rule="evenodd" d="M3.98682 26.582C4.01236 26.5773 4.03215 26.584 4.04617 26.6018C4.01857 26.6277 3.99879 26.6212 3.98682 26.582Z" fill="#5C5656"/>
<path opacity="0.031" fill-rule="evenodd" clip-rule="evenodd" d="M19.3998 26.6414C19.3855 26.6786 19.3658 26.6853 19.3405 26.6612C19.3545 26.6433 19.3743 26.6366 19.3998 26.6414Z" fill="#5C5656"/>
<path opacity="0.392" fill-rule="evenodd" clip-rule="evenodd" d="M4.521 26.6809C4.55889 26.6753 4.59185 26.6818 4.61992 26.7006C4.62121 26.7094 4.61793 26.7159 4.61003 26.7204C4.57794 26.7086 4.54826 26.6953 4.521 26.6809Z" fill="#5C5656"/>
<path opacity="0.141" fill-rule="evenodd" clip-rule="evenodd" d="M4.79803 26.7205C4.82358 26.7157 4.84336 26.7224 4.85739 26.7403C4.82979 26.7662 4.81 26.7596 4.79803 26.7205Z" fill="#5C5656"/>
<path opacity="0.031" fill-rule="evenodd" clip-rule="evenodd" d="M4.9563 26.7404C5.00693 26.7345 5.05311 26.741 5.0948 26.7602C5.07824 26.7624 5.05845 26.7689 5.03544 26.78C5.00525 26.7703 4.97887 26.757 4.9563 26.7404Z" fill="#5C5656"/>
<path opacity="0.392" fill-rule="evenodd" clip-rule="evenodd" d="M18.094 26.7997C18.1758 26.7803 18.2615 26.7736 18.3512 26.7799C18.2612 26.8153 18.1755 26.8218 18.094 26.7997Z" fill="#5C5656"/>
<path opacity="0.392" fill-rule="evenodd" clip-rule="evenodd" d="M5.62903 26.7997C5.73836 26.7934 5.8439 26.7999 5.9456 26.8195C5.8897 26.8169 5.83035 26.8234 5.76753 26.8393C5.71842 26.828 5.67224 26.8149 5.62903 26.7997Z" fill="#5C5656"/>
<path opacity="0.392" fill-rule="evenodd" clip-rule="evenodd" d="M17.9951 26.7998C17.8855 26.8138 17.7734 26.8269 17.6587 26.8394C17.6041 26.8316 17.5513 26.8251 17.5004 26.8196C17.6617 26.8 17.8266 26.7933 17.9951 26.7998Z" fill="#5C5656"/>
<path opacity="0.392" fill-rule="evenodd" clip-rule="evenodd" d="M6.34131 26.8195C6.49008 26.8131 6.63517 26.8197 6.77659 26.8393C6.77541 26.8499 6.76882 26.8567 6.75681 26.859C6.61574 26.8466 6.47724 26.8333 6.34131 26.8195Z" fill="#5C5656"/>
<path opacity="0.141" fill-rule="evenodd" clip-rule="evenodd" d="M17.3421 26.8195C17.3081 26.8337 17.2719 26.847 17.2333 26.859C17.1677 26.8434 17.1051 26.8369 17.0453 26.8393C17.1404 26.8197 17.2393 26.8131 17.3421 26.8195Z" fill="#5C5656"/>
<path opacity="0.235" fill-rule="evenodd" clip-rule="evenodd" d="M7.1723 26.8394C7.28443 26.8394 7.39653 26.8394 7.50866 26.8394C7.50866 26.8459 7.50866 26.8526 7.50866 26.8591C7.39313 26.8771 7.281 26.8704 7.1723 26.8394Z" fill="#5C5656"/>
<path opacity="0.51" fill-rule="evenodd" clip-rule="evenodd" d="M7.50867 26.859C7.50867 26.8525 7.50867 26.8458 7.50867 26.8392C7.60488 26.8329 7.69722 26.8394 7.78567 26.859C7.70011 26.8679 7.60777 26.8679 7.50867 26.859Z" fill="#5C5656"/>
<path opacity="0.392" fill-rule="evenodd" clip-rule="evenodd" d="M16.8079 26.8392C16.7248 26.8535 16.6391 26.8668 16.5507 26.8788C16.5203 26.865 16.4939 26.8584 16.4716 26.859C16.5799 26.8394 16.692 26.8329 16.8079 26.8392Z" fill="#5C5656"/>
<path opacity="0.322" fill-rule="evenodd" clip-rule="evenodd" d="M8.0033 26.859C8.15206 26.8527 8.29715 26.8592 8.43858 26.8788C8.43739 26.8895 8.4308 26.8962 8.41879 26.8986C8.27772 26.8861 8.13922 26.8729 8.0033 26.859Z" fill="#5C5656"/>
<path opacity="0.392" fill-rule="evenodd" clip-rule="evenodd" d="M16.2935 26.859C16.2131 26.8726 16.1306 26.8859 16.0462 26.8986C16.0383 26.894 16.035 26.8875 16.0363 26.8788C16.1181 26.8594 16.2038 26.8527 16.2935 26.859Z" fill="#5C5656"/>
<path opacity="0.235" fill-rule="evenodd" clip-rule="evenodd" d="M8.83429 26.8788C8.98306 26.8725 9.12815 26.879 9.26957 26.8986C9.21368 26.896 9.15432 26.9025 9.0915 26.9184C9.00312 26.9063 8.91739 26.893 8.83429 26.8788Z" fill="#5C5656"/>
<path opacity="0.392" fill-rule="evenodd" clip-rule="evenodd" d="M9.66528 26.8987C9.83677 26.8987 10.0082 26.8987 10.1797 26.8987C10.1533 26.9119 10.1269 26.925 10.1006 26.9383C10.0874 26.9383 10.0742 26.9383 10.061 26.9383C9.92909 26.925 9.79719 26.9119 9.66528 26.8987Z" fill="#5C5656"/>
</g>
<defs>
<clipPath id="clip0_210_2335">
<rect width="24" height="26.9481" fill="white"/>
</clipPath>
</defs>
</svg>
