<svg width="22" height="22" viewBox="0 0 22 22" fill="none" xmlns="http://www.w3.org/2000/svg">
<path d="M10.8099 21.853C8.52298 21.853 6.23609 21.8547 3.95095 21.853C2.7174 21.8512 1.67981 21.412 0.88019 20.4567C0.281785 19.7428 0.00707851 18.9047 0.00532879 17.9808C7.96204e-05 15.1288 -0.00341982 12.2785 0.00532879 9.42644C0.00882823 8.15089 0.516248 7.10981 1.52409 6.31544C3.82322 4.50447 6.11711 2.68651 8.41799 0.877302C9.89301 -0.282763 11.7477 -0.296761 13.228 0.861555C15.5464 2.67602 17.8525 4.50622 20.1621 6.33118C21.1612 7.12031 21.6564 8.16314 21.6616 9.42644C21.6704 12.2785 21.6756 15.1288 21.6599 17.9808C21.6494 19.9335 20.3843 21.4295 18.4719 21.79C18.2094 21.839 17.9347 21.8495 17.667 21.8512C15.3819 21.8547 13.0968 21.853 10.8099 21.853ZM10.8361 20.7296C13.1475 20.7296 15.4606 20.7349 17.772 20.7279C19.3695 20.7226 20.5383 19.5573 20.5418 17.9616C20.5488 15.1095 20.5471 12.2592 20.5418 9.40719C20.5401 8.53058 20.2041 7.7957 19.513 7.24629C17.1719 5.39333 14.8307 3.53863 12.4791 1.69792C11.5045 0.935043 10.1905 0.922795 9.21412 1.68567C6.83799 3.53863 4.47762 5.40908 2.11899 7.28128C1.4576 7.8062 1.1339 8.52008 1.1304 9.35645C1.1199 12.2417 1.12515 15.127 1.12865 18.0123C1.12865 18.5005 1.24238 18.9677 1.49784 19.3876C2.05075 20.2957 2.87487 20.7244 3.92471 20.7261C6.22909 20.7331 8.53173 20.7296 10.8361 20.7296Z" fill="white"/>
<path d="M10.8189 18.0699C9.94924 18.0699 9.07963 18.0734 8.21176 18.0682C7.85307 18.0664 7.61336 17.8704 7.58011 17.573C7.54162 17.2213 7.78833 16.9518 8.17327 16.9413C8.52671 16.9326 8.88191 16.9378 9.2371 16.9378C10.6299 16.9378 12.0227 16.9361 13.4137 16.9378C13.7969 16.9378 14.0418 17.1181 14.0821 17.4208C14.1311 17.7882 13.8704 18.0647 13.4522 18.0664C12.5738 18.0734 11.6955 18.0699 10.8189 18.0699Z" fill="white"/>
</svg>
