<svg width="22" height="22" viewBox="0 0 22 22" fill="none" xmlns="http://www.w3.org/2000/svg">
<path d="M10.8099 21.853C8.52298 21.853 6.23609 21.8547 3.95095 21.853C2.7174 21.8512 1.67981 21.412 0.88019 20.4567C0.281785 19.7428 0.00707851 18.9047 0.00532879 17.9808C7.96204e-05 15.1288 -0.00341982 12.2785 0.00532879 9.42644C0.00882823 8.15089 0.516248 7.10981 1.52409 6.31544C3.82322 4.50447 6.11711 2.68651 8.41799 0.877302C9.89301 -0.282763 11.7477 -0.296761 13.228 0.861555C15.5464 2.67602 17.8525 4.50622 20.1621 6.33118C21.1612 7.12031 21.6564 8.16314 21.6616 9.42644C21.6704 12.2785 21.6756 15.1288 21.6599 17.9808C21.6494 19.9335 20.3843 21.4295 18.4719 21.79C18.2094 21.839 17.9347 21.8495 17.667 21.8512C15.3819 21.8547 13.0968 21.853 10.8099 21.853ZM10.8361 20.7296C13.1475 20.7296 15.4606 20.7349 17.772 20.7279C19.3695 20.7226 20.5383 19.5573 20.5418 17.9616C20.5488 15.1095 20.5471 12.2592 20.5418 9.40719C20.5401 8.53058 20.2041 7.7957 19.513 7.24629C17.1719 5.39333 14.8307 3.53863 12.4791 1.69792C11.5045 0.935043 10.1905 0.922795 9.21412 1.68567C6.83799 3.53863 4.47762 5.40908 2.11899 7.28128C1.4576 7.8062 1.1339 8.52008 1.1304 9.35645C1.1199 12.2417 1.12515 15.127 1.12865 18.0123C1.12865 18.5005 1.24238 18.9677 1.49784 19.3876C2.05075 20.2957 2.87487 20.7244 3.92471 20.7261C6.22909 20.7331 8.53173 20.7296 10.8361 20.7296Z" fill="#838383"/>
<path d="M10.8169 18.0702C9.94729 18.0702 9.07767 18.0737 8.20981 18.0684C7.85112 18.0667 7.61141 17.8707 7.57816 17.5732C7.53967 17.2215 7.78638 16.9521 8.17132 16.9416C8.52476 16.9328 8.87996 16.9381 9.23515 16.9381C10.6279 16.9381 12.0207 16.9363 13.4117 16.9381C13.7949 16.9381 14.0399 17.1183 14.0801 17.421C14.1291 17.7885 13.8684 18.0649 13.4502 18.0667C12.5719 18.0737 11.6935 18.0702 10.8169 18.0702Z" fill="#838383"/>
</svg>
