<svg width="21" height="22" viewBox="0 0 21 22" fill="none" xmlns="http://www.w3.org/2000/svg">
<g clip-path="url(#clip0_12706_5993)">
<path d="M17.4701 0.622559C17.6507 0.684611 17.8257 0.761677 17.9934 0.852948C18.1752 0.964944 18.3251 1.12191 18.4286 1.3087C18.5321 1.49548 18.5857 1.70579 18.5842 1.91932C18.5908 2.54796 18.5908 3.17659 18.5842 3.80522C18.5776 4.28908 18.391 4.75314 18.0609 5.10692C17.9979 5.17794 17.9527 5.26286 17.9289 5.35472C17.9051 5.44659 17.9034 5.54278 17.924 5.63542C17.9445 5.72807 17.9868 5.81452 18.0472 5.88771C18.1076 5.96089 18.1845 6.01872 18.2715 6.05646C18.7307 6.249 19.1964 6.42837 19.6588 6.61268C20.5688 6.97802 21.0033 7.61982 21.0033 8.60391C21.0033 9.04823 21.0033 9.49255 21.0033 9.93687C21.0033 10.1771 20.8881 10.3137 20.6972 10.3154C20.5063 10.317 20.3895 10.1788 20.3895 9.93852C20.3895 9.45964 20.3895 8.9824 20.3895 8.50352C20.4001 8.22754 20.323 7.9553 20.1693 7.72586C20.0155 7.49643 19.793 7.32161 19.5337 7.22651C19.0993 7.04384 18.6615 6.87269 18.2172 6.70319C18.1414 6.67778 18.0603 6.67267 17.9819 6.68838C17.0213 6.88338 16.0313 6.88338 15.0708 6.68838C14.9922 6.67455 14.9114 6.68252 14.8371 6.71142C14.3977 6.87599 13.9583 7.05042 13.5206 7.23474C13.2727 7.32314 13.0585 7.48673 12.9081 7.70268C12.7576 7.91863 12.6783 8.17616 12.6813 8.43934C12.6648 9.79864 12.6813 11.1596 12.6813 12.5189C12.6844 12.5383 12.6888 12.5576 12.6945 12.5765H13.6094V12.3395C13.6094 11.5167 13.6094 10.684 13.6094 9.85788C13.6094 9.64231 13.7246 9.52876 13.9089 9.51888C14.0933 9.50901 14.2068 9.64066 14.2216 9.84801C14.2216 9.89573 14.2216 9.94346 14.2216 9.99283V13.1969H18.8294C18.8294 13.113 18.8409 13.0323 18.8409 12.9533C18.8409 11.9659 18.8409 10.9753 18.8409 9.98131C18.8376 9.90584 18.8426 9.83024 18.8557 9.75585C18.8707 9.6896 18.9078 9.63042 18.9609 9.58803C19.014 9.54563 19.0799 9.52254 19.1478 9.52254C19.2158 9.52254 19.2817 9.54563 19.3348 9.58803C19.3878 9.63042 19.4249 9.6896 19.4399 9.75585C19.4531 9.82968 19.4581 9.90474 19.4547 9.97966C19.4547 10.7729 19.4547 11.5661 19.4547 12.3593C19.4547 12.4317 19.4547 12.5041 19.4663 12.5864H20.3779C20.3779 12.2177 20.3779 11.8573 20.3779 11.4969C20.3696 11.4251 20.3871 11.3526 20.4271 11.2923C20.4672 11.2321 20.5273 11.188 20.5968 11.1678C20.6426 11.1518 20.6917 11.1474 20.7397 11.1548C20.7876 11.1622 20.833 11.1814 20.8719 11.2104C20.9107 11.2395 20.9418 11.2777 20.9624 11.3217C20.983 11.3656 20.9926 11.4139 20.9901 11.4624C20.9901 12.1206 21.0016 12.7871 20.9901 13.4503C20.9874 13.609 20.9445 13.7644 20.8653 13.902C20.7862 14.0396 20.6734 14.1548 20.5376 14.2369C20.4817 14.2671 20.4362 14.3133 20.4068 14.3697C20.3775 14.426 20.3657 14.4898 20.373 14.5529C20.373 16.7537 20.373 18.9544 20.373 21.1552C20.3788 21.2299 20.3755 21.3051 20.3631 21.379C20.3504 21.4487 20.3136 21.5117 20.2592 21.5571C20.2048 21.6025 20.1361 21.6273 20.0653 21.6273C19.9944 21.6273 19.9258 21.6025 19.8714 21.5571C19.8169 21.5117 19.7802 21.4487 19.7674 21.379C19.7591 21.3046 19.7591 21.2296 19.7674 21.1552V14.4361L19.4383 14.3357C19.3955 14.7701 19.3527 15.1947 19.3132 15.6193C19.1832 17.0065 19.0565 18.3938 18.9232 19.7811C18.9109 19.8358 18.9148 19.893 18.9344 19.9456C18.9539 19.9981 18.9884 20.0439 19.0335 20.0773C19.1584 20.1795 19.2599 20.3073 19.3312 20.4521C19.4024 20.5969 19.4418 20.7553 19.4465 20.9166C19.4563 21.0075 19.4464 21.0994 19.4174 21.1861C19.3884 21.2728 19.341 21.3522 19.2785 21.4189C19.216 21.4856 19.1399 21.538 19.0553 21.5726C18.9707 21.6072 18.8796 21.6231 18.7883 21.6193C18.1744 21.6193 17.5557 21.6588 16.9451 21.6077C16.5025 21.5699 16.073 21.6456 15.6286 21.6242C15.1843 21.6028 14.7548 21.6242 14.3121 21.6242C13.7724 21.6242 13.4893 21.2622 13.6078 20.7306C13.6774 20.464 13.8302 20.2265 14.0439 20.0526C14.1052 19.9884 14.1389 19.9028 14.1377 19.814C13.983 18.0861 13.8228 16.3587 13.6572 14.6319C13.6572 14.5364 13.6325 14.4426 13.621 14.3488C12.7833 14.5381 12.3374 14.306 12.0708 13.5408H10.4251C10.096 13.5408 9.94295 13.4388 9.94789 13.2265C9.95282 13.0142 10.0943 12.9254 10.407 12.9254H12.0527V11.0674H1.07789C0.689523 11.0674 0.615469 11.1448 0.615469 11.5364C0.615469 11.8656 0.615469 12.1799 0.615469 12.5008C0.615469 12.8217 0.714207 12.9254 1.04334 12.9254H8.61327C8.9424 12.9254 9.0757 13.0142 9.08064 13.2232C9.08557 13.4322 8.9424 13.5408 8.61327 13.5408H1.22929V21.1404C1.23258 21.2018 1.23258 21.2633 1.22929 21.3247C1.22363 21.4018 1.18901 21.4739 1.13238 21.5265C1.07576 21.5791 1.00132 21.6084 0.924026 21.6084C0.846729 21.6084 0.772294 21.5791 0.715669 21.5265C0.659045 21.4739 0.624424 21.4018 0.61876 21.3247C0.61876 21.2638 0.61876 21.2013 0.61876 21.1404C0.61876 18.6588 0.61876 16.1777 0.61876 13.6972C0.628424 13.6378 0.617335 13.5769 0.587362 13.5247C0.557389 13.4726 0.510361 13.4324 0.454196 13.4108C0.207351 13.2874 0.0970927 13.0455 0 12.8036V11.1579C0.016965 11.1303 0.032349 11.1017 0.0460779 11.0724C0.109965 10.8876 0.231357 10.7281 0.392461 10.6174C0.553564 10.5066 0.74591 10.4504 0.941306 10.4569H1.23258C1.23258 10.113 1.23258 9.79864 1.23258 9.48432C1.23397 9.10438 1.3626 8.73584 1.59795 8.43756C1.8333 8.13927 2.16179 7.92843 2.53099 7.83869C3.05924 7.70703 3.59572 7.60336 4.12562 7.47335C4.23258 7.44702 4.39879 7.36639 4.40373 7.29892C4.42019 7.11625 4.50576 6.9089 4.32474 6.74269C4.11435 6.55569 3.94668 6.32561 3.8331 6.06806C3.71951 5.81052 3.66269 5.53155 3.66648 5.2501C3.66648 4.51943 3.66648 3.78877 3.66648 3.05646C3.65755 2.91053 3.67944 2.76435 3.73072 2.62744C3.782 2.49052 3.86153 2.36594 3.96413 2.26178C4.06673 2.15763 4.19011 2.07624 4.32624 2.02291C4.46237 1.96957 4.6082 1.94549 4.75425 1.95223C5.38288 1.94072 6.01152 1.93907 6.64015 1.95223C6.78569 1.94525 6.93106 1.96902 7.06679 2.022C7.20252 2.07498 7.32556 2.15597 7.42789 2.25969C7.53021 2.36341 7.60953 2.48754 7.66066 2.62398C7.71179 2.76041 7.73358 2.90609 7.72463 3.05152C7.72463 3.79041 7.72463 4.5326 7.72463 5.26655C7.73158 5.52009 7.68654 5.77237 7.5923 6.00784C7.49805 6.24331 7.35659 6.45699 7.17663 6.63572C7.10434 6.70276 7.04802 6.78518 7.01185 6.87689C6.97567 6.96861 6.96056 7.06728 6.96764 7.16562C6.96258 7.20237 6.96516 7.23976 6.97521 7.27547C6.98525 7.31118 7.00255 7.34443 7.02603 7.37315C7.0495 7.40188 7.07864 7.42545 7.11163 7.44241C7.14462 7.45937 7.18075 7.46934 7.21777 7.47171C7.72627 7.57374 8.23149 7.68729 8.73834 7.80084C9.6418 8.00325 10.1651 8.6615 10.1668 9.58964C10.1668 9.86776 10.1668 10.1475 10.1668 10.4371H12.0691V8.58745C12.0691 7.6242 12.5167 6.96595 13.412 6.61268C13.8694 6.43331 14.3269 6.25558 14.7811 6.06798C14.8732 6.03244 14.9551 5.97482 15.0197 5.90019C15.0843 5.82556 15.1295 5.73621 15.1515 5.63999C15.1734 5.54377 15.1714 5.44363 15.1455 5.34839C15.1197 5.25314 15.0709 5.1657 15.0033 5.09376C14.6777 4.73647 14.4944 4.27215 14.4882 3.78877C14.4794 3.16672 14.4794 2.54466 14.4882 1.92261C14.4923 1.65213 14.5797 1.38948 14.7384 1.17041C14.8971 0.951344 15.1195 0.786483 15.3752 0.698258L15.5842 0.622559H17.4701ZM14.1936 13.8321C14.3801 15.8255 14.5634 17.797 14.7433 19.7465L16.2244 19.8387V15.7345C16.2244 15.4234 16.328 15.272 16.5354 15.277C16.7427 15.2819 16.8382 15.4333 16.8382 15.7476C16.8382 17.0526 16.8382 18.3576 16.8382 19.6626C16.8382 19.7399 16.8382 19.8156 16.8382 19.837L18.3077 19.7482C18.4904 17.7734 18.6731 15.8135 18.8574 13.8321H14.1936ZM5.71037 8.9857C5.57872 9.12887 5.49643 9.2276 5.40263 9.31482C5.09984 9.61104 4.79375 9.60775 4.48766 9.30659C4.30828 9.13051 4.1322 8.94949 3.95118 8.77176C3.77016 8.59403 3.63193 8.35377 3.43116 8.29782C3.23039 8.24187 2.95392 8.36035 2.71695 8.4163C2.28908 8.51998 1.97477 8.78164 1.89413 9.21279C1.84547 9.61793 1.82348 10.0258 1.82831 10.4339H9.55129C9.55129 10.1146 9.55129 9.80851 9.55129 9.50407C9.55375 9.25213 9.46985 9.00695 9.31355 8.80933C9.15726 8.61172 8.938 8.47359 8.69226 8.41795C8.50396 8.36724 8.3127 8.32822 8.11958 8.30111C8.02499 8.29351 7.93115 8.32302 7.85793 8.38339C7.5288 8.69771 7.20954 9.02848 6.88042 9.34774C6.82777 9.40704 6.76315 9.45451 6.69081 9.48701C6.61848 9.51952 6.54008 9.53633 6.46078 9.53633C6.38148 9.53633 6.30308 9.51952 6.23074 9.48701C6.15841 9.45451 6.09379 9.40704 6.04114 9.34774C5.92595 9.25064 5.83544 9.12887 5.71037 8.9857ZM16.5469 1.24132C16.2951 1.24132 16.0417 1.24132 15.7899 1.24132C15.617 1.24368 15.451 1.30955 15.3236 1.42638C15.1961 1.54322 15.1161 1.70286 15.0987 1.87489C15.0658 2.31757 15.0691 2.75531 15.3012 3.16343C15.4542 3.43331 15.655 3.61927 15.9709 3.62914C16.3395 3.64231 16.7082 3.64231 17.0768 3.62914C17.224 3.62184 17.3662 3.57361 17.4874 3.48988C17.6086 3.40614 17.7041 3.29024 17.763 3.1552C17.972 2.77835 17.9835 2.37846 17.9671 1.96705C17.9686 1.87145 17.951 1.77652 17.9152 1.68788C17.8793 1.59924 17.8261 1.51869 17.7586 1.45101C17.691 1.38333 17.6106 1.3299 17.5221 1.29388C17.4335 1.25786 17.3386 1.23998 17.243 1.24132C17.006 1.24132 16.7789 1.24132 16.5469 1.24132ZM7.1322 4.99008C7.2441 4.53589 7.00055 4.35158 6.61382 4.22651C6.3898 4.12495 6.14204 4.08736 5.89797 4.1179C5.40428 4.22815 4.91059 4.34335 4.41689 4.46677C4.38393 4.47975 4.35467 4.50066 4.33171 4.52764C4.30875 4.55462 4.29279 4.58684 4.28524 4.62146C4.27043 4.87358 4.27043 5.12634 4.28524 5.37846C4.30483 5.71248 4.4428 6.02859 4.67441 6.27006C4.90603 6.51154 5.21611 6.66257 5.54902 6.69606C5.88194 6.72955 6.21589 6.6433 6.49096 6.4528C6.76602 6.26229 6.9642 5.98 7.04992 5.65657C7.09321 5.43665 7.1207 5.21392 7.1322 4.99008ZM7.08448 3.76079C7.09578 3.73552 7.10407 3.70901 7.10916 3.6818C7.10916 3.46951 7.10916 3.25887 7.10916 3.04658C7.09929 2.73227 6.9446 2.57593 6.61547 2.56606C6.41799 2.56606 6.21887 2.56606 6.02139 2.56606C5.60505 2.56606 5.1887 2.56606 4.77071 2.56606C4.50905 2.56606 4.31816 2.69277 4.3017 2.89519C4.27866 3.20457 4.3017 3.51888 4.3017 3.84801C4.79539 3.73611 5.25946 3.62914 5.73011 3.51888C6.07118 3.43581 6.43021 3.46881 6.75041 3.61268C6.85902 3.67028 6.96764 3.70978 7.08612 3.76079H7.08448ZM15.13 3.9484C15.1613 4.61982 15.836 5.18921 16.565 5.1744C17.2628 5.15958 17.9177 4.57209 17.9227 3.95827C17.1262 4.38613 15.8738 4.38614 15.1316 3.9484H15.13ZM16.2079 20.989C16.2128 20.915 16.203 20.8408 16.179 20.7706C16.1551 20.7004 16.1175 20.6357 16.0683 20.5802C16.0192 20.5246 15.9596 20.4793 15.8929 20.447C15.8261 20.4146 15.7537 20.3958 15.6796 20.3916C15.3732 20.3752 15.0662 20.3752 14.7597 20.3916C14.6858 20.3935 14.6131 20.4109 14.5463 20.4428C14.4796 20.4747 14.4204 20.5204 14.3725 20.5768C14.3247 20.6332 14.2893 20.6991 14.2686 20.7701C14.248 20.8411 14.2427 20.9157 14.2529 20.989H16.2079ZM16.8662 20.989H18.8327C18.8369 20.9148 18.8264 20.8405 18.8017 20.7704C18.7771 20.7003 18.7388 20.6357 18.6891 20.5805C18.6393 20.5253 18.5792 20.4804 18.512 20.4486C18.4449 20.4167 18.3721 20.3985 18.2979 20.3949C17.9984 20.3817 17.6988 20.3817 17.3993 20.3949C17.3242 20.396 17.25 20.4125 17.1815 20.4435C17.113 20.4745 17.0516 20.5192 17.0011 20.575C16.9506 20.6307 16.9122 20.6962 16.8881 20.7674C16.864 20.8386 16.8549 20.9141 16.8612 20.989H16.8662ZM15.6138 6.17824H17.4471L17.2825 5.64505C16.7954 5.83347 16.2556 5.83347 15.7685 5.64505L15.6138 6.17824ZM5.69062 8.16781C5.88316 7.97363 6.0362 7.79754 6.21229 7.64779C6.27721 7.60456 6.3262 7.54125 6.35175 7.46756C6.37731 7.39386 6.37803 7.31382 6.35381 7.23967H5.02578C5.04388 7.32031 5.02578 7.46019 5.09654 7.53918C5.27098 7.75476 5.47669 7.94565 5.69062 8.16781ZM12.6846 13.2183C12.6846 13.5951 12.8738 13.8354 13.1602 13.8206C13.4465 13.8058 13.6292 13.5474 13.5847 13.2183H12.6846ZM19.4696 13.2183C19.4491 13.3174 19.4579 13.4203 19.495 13.5144C19.5322 13.6085 19.5959 13.6898 19.6785 13.7482C19.745 13.7984 19.8255 13.8265 19.9087 13.8285C19.992 13.8306 20.0738 13.8065 20.1426 13.7597C20.2313 13.7045 20.301 13.6236 20.3424 13.5277C20.3839 13.4318 20.3951 13.3256 20.3747 13.2232L19.4696 13.2183ZM4.21613 8.10034L4.96818 8.8524L5.25617 8.57099C5.07186 8.38997 4.88919 8.20731 4.70159 8.02958C4.68445 8.01635 4.66488 8.00664 4.64398 8.00099C4.62308 7.99534 4.60128 7.99387 4.57981 7.99667C4.44981 8.02629 4.32309 8.06907 4.21613 8.10034ZM7.20625 8.10034C7.07789 8.06414 6.95447 8.02464 6.8294 7.99502C6.78683 7.98609 6.74246 7.99437 6.70598 8.01806C6.51344 8.19908 6.32748 8.38668 6.15963 8.55125L6.42951 8.86885L7.20625 8.10034Z" fill="#838383"/>
<path d="M7.1717 16.8256C7.1717 16.4504 7.1717 16.1048 7.1717 15.7576C7.1717 15.2639 7.45804 14.9776 7.94515 14.9759C8.51947 14.9759 9.09709 14.9759 9.66649 14.9759C9.76938 14.9677 9.87284 14.9817 9.96984 15.017C10.0668 15.0523 10.1551 15.108 10.2286 15.1805C10.3022 15.2529 10.3593 15.3403 10.396 15.4368C10.4327 15.5333 10.4483 15.6365 10.4416 15.7395C10.4416 16.0933 10.4416 16.4471 10.4416 16.8256C10.6769 16.8256 10.8941 16.8256 11.1097 16.8256C11.7071 16.8256 12.0971 17.2107 12.1086 17.813C12.1163 18.7565 12.1163 19.6989 12.1086 20.6402C12.1163 20.7719 12.096 20.9037 12.0491 21.0269C12.0021 21.1502 11.9297 21.2621 11.8364 21.3554C11.7432 21.4487 11.6312 21.5211 11.508 21.568C11.3847 21.615 11.2529 21.6353 11.1212 21.6276C9.57762 21.6276 8.03401 21.6276 6.4904 21.6276C6.35899 21.6342 6.22766 21.6132 6.10487 21.5659C5.98208 21.5186 5.87057 21.4461 5.77753 21.3531C5.6845 21.2601 5.612 21.1485 5.56471 21.0258C5.51743 20.903 5.49641 20.7716 5.50302 20.6402C5.50302 19.7055 5.50302 18.7697 5.50302 17.8328C5.49718 17.7015 5.51872 17.5705 5.56627 17.4481C5.61383 17.3257 5.68635 17.2145 5.77923 17.1216C5.87211 17.0287 5.98331 16.9562 6.10575 16.9086C6.22818 16.8611 6.35918 16.8395 6.4904 16.8454C6.70433 16.824 6.92156 16.8256 7.1717 16.8256ZM8.81734 17.4411H6.54471C6.21558 17.4411 6.11026 17.5514 6.11026 17.8673C6.11026 18.7669 6.11026 19.6682 6.11026 20.5711C6.11026 20.9002 6.21887 21.0039 6.53483 21.0056H11.0817C11.378 21.0056 11.4948 20.8937 11.4948 20.6007C11.4948 19.6858 11.4948 18.7708 11.4948 17.8558C11.4948 17.5497 11.3796 17.4411 11.0702 17.4411H8.81734ZM9.82447 16.8174C9.82447 16.4422 9.82447 16.0818 9.82447 15.7231C9.82447 15.677 9.73231 15.598 9.68294 15.5963C9.10368 15.5876 8.52441 15.5876 7.94515 15.5963C7.89413 15.5963 7.80033 15.672 7.80033 15.7132C7.79046 16.0785 7.79046 16.4438 7.79046 16.8174H9.82447Z" fill="#838383"/>
</g>
<defs>
<clipPath id="clip0_12706_5993">
<rect width="21" height="21.0132" fill="white" transform="translate(0 0.622559)"/>
</clipPath>
</defs>
</svg>
