<svg width="21" height="22" viewBox="0 0 21 22" fill="none" xmlns="http://www.w3.org/2000/svg">
<path d="M12.2291 7.31524C12.087 7.71026 12.2828 7.73452 12.5513 7.73971C12.8978 7.73971 13.4072 7.60111 13.4055 8.14513C13.4055 8.73245 12.8684 8.55574 12.5149 8.5696C12.009 8.58865 11.5031 8.5696 11.0024 8.5696C10.8015 9.33191 10.8656 9.53635 11.4217 9.95562C11.4771 9.99893 11.5551 10.0388 11.5724 10.0977C11.7994 10.8063 12.3867 10.6573 12.9065 10.6625C13.6238 10.6625 14.341 10.6625 15.0583 10.6625C15.8466 10.6746 16.3594 11.1961 16.3733 11.9896C16.3733 12.5094 16.3733 13.0291 16.3733 13.5991C17.4509 13.5991 18.4783 13.5991 19.5057 13.5991C20.5002 13.5991 20.9887 14.086 20.9905 15.0735C20.9905 16.3336 20.9905 17.5932 20.9905 18.8522C20.9905 19.8137 20.4967 20.3127 19.549 20.3179H17.6952C17.5843 20.5968 17.6103 20.7597 17.9516 20.7389C18.0556 20.7389 18.1612 20.7389 18.2669 20.7389C18.5719 20.725 18.8699 20.7805 18.8751 21.146C18.8751 21.5497 18.5632 21.5878 18.2409 21.5809C17.8944 21.5809 17.5479 21.5809 17.191 21.5809C16.0198 21.5809 14.8469 21.5809 13.674 21.5809C13.3569 21.5809 13.0278 21.5584 13.0347 21.153C13.0416 20.7476 13.3812 20.7562 13.6879 20.7302C13.9096 20.7094 14.3514 20.9416 14.244 20.3196C13.5995 20.3196 12.9567 20.3196 12.3122 20.3196C11.4286 20.3196 10.9262 19.7999 10.9262 18.9163C10.9262 17.603 10.9262 16.2903 10.9262 14.9782C10.9262 14.1241 11.446 13.6095 12.2984 13.6043C13.3621 13.6043 14.4242 13.6043 15.5399 13.6043C15.5631 13.0534 15.5556 12.5016 15.5174 11.9515C15.483 11.8474 15.4227 11.7538 15.342 11.6795C15.2614 11.6052 15.1631 11.5527 15.0566 11.527C14.0967 11.4854 13.1334 11.4976 12.1719 11.5166C12.1013 11.5282 12.0339 11.5545 11.9742 11.5939C11.9145 11.6333 11.8638 11.6849 11.8254 11.7453C11.1549 12.7727 9.84164 12.7848 9.17808 11.7696C9.12793 11.6999 9.06384 11.6414 8.98986 11.5979C8.91589 11.5543 8.83366 11.5267 8.74841 11.5166C7.83883 11.4941 6.92926 11.508 6.01968 11.5045C5.6905 11.5045 5.46873 11.624 5.46353 11.9809C5.46353 12.5007 5.46353 13.0205 5.46353 13.6043H8.58209C9.60775 13.6043 10.0807 14.0842 10.0825 15.1168C10.0836 16.3827 10.0842 17.6475 10.0842 18.9111C10.0842 19.831 9.57656 20.3335 8.65659 20.3387C8.02941 20.3387 7.40224 20.3387 6.78546 20.3387C6.64339 20.6973 6.78545 20.7597 7.08172 20.7649C7.42822 20.7649 7.9809 20.6124 7.94798 21.2015C7.91506 21.7905 7.37798 21.5878 7.02628 21.5913C5.62639 21.6069 4.22651 21.5913 2.82836 21.5913C2.50784 21.5913 2.13534 21.6207 2.12148 21.179C2.10762 20.7372 2.48705 20.7458 2.8145 20.751C2.97042 20.751 3.12808 20.751 3.30134 20.751C3.42088 20.4652 3.37757 20.3231 3.04146 20.3283C2.48185 20.3404 1.92224 20.3283 1.36264 20.3283C0.536218 20.3179 0.0112614 19.8085 0.00606386 18.9908C-0.00202129 17.6452 -0.00202129 16.2978 0.00606386 14.9488C0.00606386 14.1328 0.536218 13.6199 1.36264 13.613C2.42814 13.613 3.49191 13.613 4.62326 13.613C4.62326 13.0794 4.62326 12.5735 4.62326 12.078C4.62326 11.1892 5.13435 10.6798 6.02141 10.6746C6.90846 10.6694 7.77127 10.6746 8.64619 10.6746C8.76257 10.6905 8.88102 10.6706 8.98588 10.6177C9.09075 10.5648 9.1771 10.4814 9.23352 10.3784C9.42063 10.0856 9.74288 9.87766 10.0686 9.57793V8.57479C9.50553 8.57479 8.95112 8.57479 8.39844 8.57479C8.06406 8.57479 7.59974 8.68221 7.58588 8.17111C7.57202 7.66002 8.03288 7.75011 8.37245 7.73798C8.60634 7.73798 8.91473 7.81595 8.7796 7.31871H6.92752C5.93998 7.31871 5.45834 6.82667 5.45834 5.827C5.45834 4.55013 5.45834 3.27325 5.45834 1.99638C5.45834 1.11105 5.9781 0.610352 6.86342 0.610352C9.29589 0.610352 11.7278 0.610352 14.1591 0.610352C15.0115 0.610352 15.5295 1.13011 15.533 1.98252C15.5399 3.3131 15.5399 4.64137 15.533 5.96734C15.533 6.78856 15.0132 7.31005 14.192 7.32044C13.5493 7.32217 12.8996 7.31524 12.2291 7.31524ZM10.5173 6.47497C11.7058 6.47497 12.8926 6.47497 14.0811 6.47497C14.49 6.47497 14.6997 6.3277 14.6979 5.8963C14.6898 4.60383 14.6898 3.31137 14.6979 2.0189C14.6979 1.5927 14.5056 1.42811 14.0898 1.42984C11.6966 1.43677 9.30398 1.43677 6.91193 1.42984C6.45974 1.42984 6.28822 1.62215 6.29342 2.06394C6.30554 3.32003 6.30728 4.57785 6.29342 5.83566C6.29342 6.31731 6.49439 6.48363 6.95698 6.47843C8.14203 6.46457 9.33054 6.47497 10.5173 6.47497ZM5.01481 14.4533C3.84535 14.4533 2.67416 14.4671 1.5047 14.4533C1.00227 14.4533 0.823818 14.6525 0.832481 15.1463C0.851539 16.3868 0.846341 17.6273 0.832481 18.8678C0.832481 19.3044 0.986676 19.5088 1.44233 19.5071C3.83438 19.5001 6.227 19.5001 8.6202 19.5071C9.0724 19.5071 9.24392 19.3147 9.23872 18.873C9.22659 17.6169 9.22486 16.3591 9.23872 15.1012C9.23872 14.6231 9.03948 14.4515 8.57516 14.4585C7.39011 14.4637 6.20332 14.4533 5.01481 14.4533ZM15.9575 19.4915C17.1287 19.4915 18.2981 19.4793 19.4676 19.4915C19.9562 19.4915 20.1606 19.3303 20.1606 18.8227C20.1398 17.5822 20.1398 16.3423 20.1606 15.103C20.1606 14.5832 19.944 14.4377 19.4676 14.4394C17.1275 14.4533 14.7869 14.4533 12.4456 14.4394C11.9605 14.4394 11.7526 14.6023 11.7526 15.1082C11.7723 16.3487 11.7723 17.5891 11.7526 18.8296C11.7526 19.3494 11.9709 19.4984 12.4456 19.4915C13.6168 19.4793 14.788 19.4915 15.9575 19.4915ZM11.141 11.2533C11.0856 10.6642 10.824 10.4892 10.448 10.5083C10.0721 10.5274 9.8607 10.7249 9.87456 11.1147C9.86827 11.1988 9.88213 11.2831 9.91498 11.3608C9.94782 11.4384 9.99871 11.5071 10.0634 11.5611C10.1281 11.6152 10.2048 11.653 10.287 11.6715C10.3693 11.6899 10.4548 11.6885 10.5364 11.6674C10.7772 11.6171 10.9886 11.3624 11.141 11.2533ZM11.2467 7.72239L11.3819 7.58898C11.2814 7.49889 11.1861 7.33777 11.0769 7.3291C10.6942 7.29532 10.3093 7.29532 9.92653 7.3291C9.81912 7.3395 9.72556 7.51795 9.62507 7.61844L9.73422 7.72239H11.2467ZM5.79965 20.7389L5.92785 20.5916C5.82044 20.505 5.71822 20.3543 5.6056 20.3439C5.24177 20.3127 4.87274 20.3439 4.50545 20.33C4.13815 20.3162 4.14508 20.4825 4.26462 20.7389H5.79965ZM15.2056 20.3456L15.0687 20.4755C15.1692 20.5674 15.2645 20.7285 15.3719 20.7389C15.7546 20.7727 16.1396 20.7727 16.5223 20.7389C16.6314 20.7285 16.725 20.5518 16.8272 20.4496L16.7181 20.3473L15.2056 20.3456Z" fill="#838383"/>
</svg>
