<svg width="21" height="22" viewBox="0 0 21 22" fill="none" xmlns="http://www.w3.org/2000/svg">
<g clip-path="url(#clip0_14848_6167)">
<path d="M12.7974 21.6463H2.78991C2.38005 21.4053 2.26219 21.0201 2.30617 20.5908C1.31228 20.4888 1.31228 20.4888 1.10647 19.4298C0.0246272 19.2645 0 19.2346 0 18.0894V1.65601C0 0.850351 0.211091 0.646297 1.02555 0.646297C4.78296 0.646297 8.54213 0.660369 12.2995 0.635742C13.2196 0.635742 13.5432 0.899605 13.4817 1.7123C13.4817 1.73165 13.5098 1.75452 13.5256 1.77739C14.3946 1.85831 14.3946 1.85831 14.6972 2.8733C15.7526 3.01227 15.7913 3.05977 15.7913 4.17151V5.3026C15.9321 5.3026 15.9989 5.31668 16.0658 5.31844C17.0972 5.34501 18.0959 5.68656 18.9276 6.29722C19.7593 6.90788 20.3843 7.75841 20.7185 8.73459C20.8329 9.0653 20.9068 9.41184 21 9.75134V10.9827C20.9719 11.0865 20.9367 11.1885 20.9173 11.2941C20.7661 12.1177 20.4124 12.8909 19.8883 13.5439C19.7405 13.7198 19.5927 13.9573 19.3271 13.741C19.0615 13.5246 19.2691 13.3645 19.3904 13.178C19.6613 12.7576 19.9182 12.3266 20.1767 11.8939C20.1214 11.854 20.0625 11.8192 20.0008 11.7901C18.7361 11.4506 17.4713 11.1076 16.203 10.7839C16.1337 10.781 16.0646 10.7923 15.9998 10.8171C15.9351 10.8419 15.8761 10.8797 15.8265 10.9282C15.4008 11.3328 14.991 11.7549 14.5758 12.1701C14.0481 12.6978 13.5362 13.2044 12.9469 13.792C13.3674 14.0536 13.802 14.292 14.2486 14.5062C14.8425 14.7577 15.485 14.8734 16.1293 14.8448C16.7736 14.8162 17.4034 14.644 17.9726 14.3408C18.1749 14.2388 18.3772 14.179 18.5003 14.4235C18.6235 14.668 18.4528 14.8122 18.2453 14.8914C17.8438 15.0605 17.4326 15.2056 17.0139 15.3259C16.6067 15.4056 16.1957 15.4644 15.7825 15.5018C15.7825 16.4112 15.772 17.2978 15.7825 18.1844C15.7897 18.3258 15.7653 18.467 15.7111 18.5979C15.657 18.7287 15.5744 18.8458 15.4694 18.9408C14.5793 19.8485 13.691 20.7456 12.7974 21.6463ZM15.1563 18.1809V15.4121C13.9719 15.222 12.8911 14.6241 12.1008 13.7216C11.2952 12.8104 10.851 11.636 10.8518 10.4198C10.8323 9.38604 11.1402 8.37259 11.7314 7.52433C12.1221 6.9505 12.6261 6.46268 13.2124 6.09089C13.7987 5.71909 14.4548 5.47118 15.1405 5.36241V3.54352H2.96231V21.0095H12.3277C12.3277 20.3393 12.3277 19.6867 12.3277 19.0358C12.3277 18.4377 12.5845 18.1879 13.1809 18.1827C13.8247 18.1756 14.465 18.1809 15.1563 18.1809ZM1.81362 2.43353V19.9083H2.31144V19.3999C2.31144 14.2599 2.31144 9.11924 2.31144 3.97801C2.31144 3.10902 2.5067 2.91024 3.3669 2.91024H13.9971V2.43353H6.0671C5.93219 2.45078 5.79514 2.43756 5.66602 2.39483C5.61217 2.36035 5.56658 2.31441 5.53253 2.26029C5.49847 2.20616 5.47678 2.14519 5.46901 2.08171C5.46901 1.99552 5.58335 1.8671 5.67834 1.82489C5.7961 1.79155 5.91952 1.78317 6.04071 1.80026H12.8185C12.9363 1.39919 12.8378 1.25846 12.4491 1.26022C8.64944 1.27077 4.84863 1.27077 1.04666 1.26022C0.707154 1.26022 0.608645 1.35521 0.608645 1.69647C0.619199 7.24698 0.619199 12.7975 0.608645 18.348C0.608645 18.7632 0.763445 18.8476 1.15396 18.7315V18.2513C1.15396 13.1253 1.15396 7.9987 1.15396 2.87154C1.14426 2.73509 1.14426 2.59813 1.15396 2.46168C1.20673 2.09403 1.42134 1.83368 1.79075 1.81785C2.52781 1.78619 3.26663 1.79498 4.00369 1.81785C4.10395 1.81785 4.29042 2.01311 4.27634 2.08875C4.229 2.22905 4.1286 2.34524 3.99665 2.41242C3.87809 2.44531 3.75369 2.45132 3.63252 2.43001L1.81362 2.43353ZM17.4484 6.24548C16.02 5.5823 13.6171 5.91653 12.2767 7.82866C11.1034 9.49803 11.2318 11.9907 12.5845 13.2818L15.6207 10.2474C15.6665 10.1955 15.7029 10.136 15.728 10.0715C16.298 8.80495 16.8661 7.53489 17.4484 6.24196V6.24548ZM18.0219 6.47943C17.4642 7.7108 16.9207 8.92281 16.3595 10.1735L20.2594 11.2079C20.7766 9.56663 19.7299 7.33787 18.0219 6.47943ZM12.9768 20.3411L14.5371 18.8124H12.9768V20.3411Z" fill="white"/>
<path d="M8.9098 15.073C9.30912 15.073 9.63631 15.087 9.96526 15.073C10.3171 15.0536 10.456 15.2014 10.4508 15.5532C10.4385 16.4134 10.4508 17.2736 10.4508 18.1338C10.4538 18.2015 10.4603 18.269 10.4701 18.3361C10.5791 18.3507 10.6849 18.3834 10.7832 18.4328C10.8624 18.4891 10.9591 18.6087 10.9433 18.6861C10.932 18.7429 10.909 18.7966 10.8757 18.8439C10.8423 18.8911 10.7995 18.9309 10.7498 18.9605C10.6375 19.0019 10.517 19.0164 10.398 19.0028H5.26497C5.03101 19.0028 4.73724 19.0256 4.73724 18.7195C4.73724 18.5683 4.98527 18.417 5.12248 18.2657L5.22099 18.3255C5.22099 17.6711 5.23155 17.0167 5.22099 16.3624C5.2122 15.9965 5.35468 15.8346 5.72585 15.8487C6.04952 15.8628 6.37496 15.8487 6.75492 15.8487C6.75492 15.284 6.75492 14.7563 6.75492 14.2286C6.75492 13.7448 6.82176 13.6815 7.29496 13.678C7.66261 13.678 8.03378 13.6956 8.39967 13.678C8.80074 13.6534 8.94322 13.8346 8.92739 14.2057C8.89749 14.4784 8.9098 14.7475 8.9098 15.073ZM7.38819 18.3554H8.24838V14.3095H7.38819V18.3554ZM9.32319 15.6851V18.3449H9.8087V15.6851H9.32319ZM5.85251 18.3413H6.71974V16.5066H5.84371L5.85251 18.3413Z" fill="white"/>
<path d="M7.99856 6.32069C7.05745 6.32069 6.11458 6.32069 5.17171 6.32069C4.94303 6.32069 4.69323 6.32069 4.69675 6.01637C4.70027 5.71205 4.95006 5.71732 5.17874 5.71908C7.06214 5.71908 8.94671 5.71908 10.8325 5.71908C11.0611 5.71908 11.3092 5.71908 11.3056 6.02341C11.3021 6.32773 11.0506 6.31893 10.8254 6.31893L7.99856 6.32069Z" fill="white"/>
<path d="M7.309 8.59015C6.58425 8.59015 5.85951 8.59015 5.13477 8.59015C4.90784 8.59015 4.70203 8.54969 4.69675 8.28055C4.69148 8.01141 4.90081 7.96215 5.12597 7.96391H9.47444C9.69608 7.96391 9.90893 7.99733 9.91069 8.27175C9.91245 8.54617 9.71016 8.59015 9.48147 8.59015C8.75673 8.59015 8.03374 8.59015 7.309 8.59015Z" fill="white"/>
<path d="M6.95017 10.8383C6.33625 10.8383 5.71881 10.8559 5.10841 10.8243C4.96416 10.8243 4.7302 10.6624 4.71085 10.5481C4.66688 10.286 4.88676 10.2314 5.11896 10.2314C6.36088 10.2314 7.60455 10.2314 8.84647 10.2455C8.93027 10.2563 9.01016 10.2874 9.07916 10.3361C9.14815 10.3849 9.20416 10.4498 9.24226 10.5252C9.28976 10.7926 9.06636 10.8401 8.83416 10.8383H6.95017Z" fill="white"/>
</g>
<defs>
<clipPath id="clip0_14848_6167">
<rect width="21" height="21.0106" fill="white" transform="translate(0 0.635742)"/>
</clipPath>
</defs>
</svg>
