<svg width="434" height="258" viewBox="0 0 434 258" fill="none" xmlns="http://www.w3.org/2000/svg">
<g filter="url(#filter0_d_17062_8428)">
<rect x="4" y="3" width="310" height="64" rx="18" fill="white"/>
</g>
<rect x="14" y="16" width="8" height="38" rx="4" fill="#FFCCCC"/>
<path d="M33.88 42V28H36.48V39.8H43.8V42H33.88ZM50.535 42.14C49.3483 42.14 48.3083 41.9067 47.415 41.44C46.535 40.96 45.8483 40.3067 45.355 39.48C44.875 38.6533 44.635 37.7133 44.635 36.66C44.635 35.5933 44.8683 34.6533 45.335 33.84C45.815 33.0133 46.4683 32.3667 47.295 31.9C48.135 31.4333 49.0883 31.2 50.155 31.2C51.195 31.2 52.1217 31.4267 52.935 31.88C53.7483 32.3333 54.3883 32.9733 54.855 33.8C55.3217 34.6267 55.555 35.6 55.555 36.72C55.555 36.8267 55.5483 36.9467 55.535 37.08C55.535 37.2133 55.5283 37.34 55.515 37.46H46.615V35.8H54.195L53.215 36.32C53.2283 35.7067 53.1017 35.1667 52.835 34.7C52.5683 34.2333 52.2017 33.8667 51.735 33.6C51.2817 33.3333 50.755 33.2 50.155 33.2C49.5417 33.2 49.0017 33.3333 48.535 33.6C48.0817 33.8667 47.7217 34.24 47.455 34.72C47.2017 35.1867 47.075 35.74 47.075 36.38V36.78C47.075 37.42 47.2217 37.9867 47.515 38.48C47.8083 38.9733 48.2217 39.3533 48.755 39.62C49.2883 39.8867 49.9017 40.02 50.595 40.02C51.195 40.02 51.735 39.9267 52.215 39.74C52.695 39.5533 53.1217 39.26 53.495 38.86L54.835 40.4C54.355 40.96 53.7483 41.3933 53.015 41.7C52.295 41.9933 51.4683 42.14 50.535 42.14ZM62.4764 42.14C61.4497 42.14 60.5231 41.9133 59.6964 41.46C58.8831 40.9933 58.2431 40.3533 57.7764 39.54C57.3097 38.7267 57.0764 37.7667 57.0764 36.66C57.0764 35.5533 57.3097 34.5933 57.7764 33.78C58.2431 32.9667 58.8831 32.3333 59.6964 31.88C60.5231 31.4267 61.4497 31.2 62.4764 31.2C63.3697 31.2 64.1697 31.4 64.8764 31.8C65.5831 32.1867 66.1431 32.78 66.5564 33.58C66.9697 34.38 67.1764 35.4067 67.1764 36.66C67.1764 37.9 66.9764 38.9267 66.5764 39.74C66.1764 40.54 65.6231 41.14 64.9164 41.54C64.2097 41.94 63.3964 42.14 62.4764 42.14ZM62.7764 40C63.3764 40 63.9097 39.8667 64.3764 39.6C64.8564 39.3333 65.2364 38.9467 65.5164 38.44C65.8097 37.9333 65.9564 37.34 65.9564 36.66C65.9564 35.9667 65.8097 35.3733 65.5164 34.88C65.2364 34.3733 64.8564 33.9867 64.3764 33.72C63.9097 33.4533 63.3764 33.32 62.7764 33.32C62.1764 33.32 61.6364 33.4533 61.1564 33.72C60.6897 33.9867 60.3097 34.3733 60.0164 34.88C59.7364 35.3733 59.5964 35.9667 59.5964 36.66C59.5964 37.34 59.7364 37.9333 60.0164 38.44C60.3097 38.9467 60.6897 39.3333 61.1564 39.6C61.6364 39.8667 62.1764 40 62.7764 40ZM66.0164 42V39.48L66.1164 36.64L65.9164 33.8V27.16H68.3964V42H66.0164ZM76.5269 46.02C75.5402 46.02 74.5735 45.8867 73.6269 45.62C72.6935 45.3667 71.9269 44.9933 71.3269 44.5L72.4469 42.62C72.9135 43.0067 73.5002 43.3133 74.2069 43.54C74.9269 43.78 75.6535 43.9 76.3869 43.9C77.5602 43.9 78.4202 43.6267 78.9669 43.08C79.5135 42.5467 79.7869 41.74 79.7869 40.66V38.76L79.9869 36.34L79.9069 33.92V31.32H82.2869V40.38C82.2869 42.3133 81.7935 43.7333 80.8069 44.64C79.8202 45.56 78.3935 46.02 76.5269 46.02ZM76.2069 41.52C75.1935 41.52 74.2735 41.3067 73.4469 40.88C72.6335 40.44 71.9869 39.8333 71.5069 39.06C71.0402 38.2867 70.8069 37.38 70.8069 36.34C70.8069 35.3133 71.0402 34.4133 71.5069 33.64C71.9869 32.8667 72.6335 32.2667 73.4469 31.84C74.2735 31.4133 75.1935 31.2 76.2069 31.2C77.1135 31.2 77.9269 31.38 78.6469 31.74C79.3669 32.1 79.9402 32.66 80.3669 33.42C80.8069 34.18 81.0269 35.1533 81.0269 36.34C81.0269 37.5267 80.8069 38.5067 80.3669 39.28C79.9402 40.04 79.3669 40.6067 78.6469 40.98C77.9269 41.34 77.1135 41.52 76.2069 41.52ZM76.5869 39.4C77.2135 39.4 77.7735 39.2733 78.2669 39.02C78.7602 38.7533 79.1402 38.3933 79.4069 37.94C79.6869 37.4733 79.8269 36.94 79.8269 36.34C79.8269 35.74 79.6869 35.2133 79.4069 34.76C79.1402 34.2933 78.7602 33.94 78.2669 33.7C77.7735 33.4467 77.2135 33.32 76.5869 33.32C75.9602 33.32 75.3935 33.4467 74.8869 33.7C74.3935 33.94 74.0069 34.2933 73.7269 34.76C73.4602 35.2133 73.3269 35.74 73.3269 36.34C73.3269 36.94 73.4602 37.4733 73.7269 37.94C74.0069 38.3933 74.3935 38.7533 74.8869 39.02C75.3935 39.2733 75.9602 39.4 76.5869 39.4ZM90.5936 42.14C89.4069 42.14 88.3669 41.9067 87.4736 41.44C86.5936 40.96 85.9069 40.3067 85.4136 39.48C84.9336 38.6533 84.6936 37.7133 84.6936 36.66C84.6936 35.5933 84.9269 34.6533 85.3936 33.84C85.8736 33.0133 86.5269 32.3667 87.3536 31.9C88.1936 31.4333 89.1469 31.2 90.2136 31.2C91.2536 31.2 92.1803 31.4267 92.9936 31.88C93.8069 32.3333 94.4469 32.9733 94.9136 33.8C95.3803 34.6267 95.6136 35.6 95.6136 36.72C95.6136 36.8267 95.6069 36.9467 95.5936 37.08C95.5936 37.2133 95.5869 37.34 95.5736 37.46H86.6736V35.8H94.2536L93.2736 36.32C93.2869 35.7067 93.1603 35.1667 92.8936 34.7C92.6269 34.2333 92.2603 33.8667 91.7936 33.6C91.3403 33.3333 90.8136 33.2 90.2136 33.2C89.6003 33.2 89.0603 33.3333 88.5936 33.6C88.1403 33.8667 87.7803 34.24 87.5136 34.72C87.2603 35.1867 87.1336 35.74 87.1336 36.38V36.78C87.1336 37.42 87.2803 37.9867 87.5736 38.48C87.8669 38.9733 88.2803 39.3533 88.8136 39.62C89.3469 39.8867 89.9603 40.02 90.6536 40.02C91.2536 40.02 91.7936 39.9267 92.2736 39.74C92.7536 39.5533 93.1803 39.26 93.5536 38.86L94.8936 40.4C94.4136 40.96 93.8069 41.3933 93.0736 41.7C92.3536 41.9933 91.5269 42.14 90.5936 42.14ZM98.015 42V31.32H100.395V34.26L100.115 33.4C100.435 32.68 100.935 32.1333 101.615 31.76C102.308 31.3867 103.168 31.2 104.195 31.2V33.58C104.088 33.5533 103.988 33.54 103.895 33.54C103.802 33.5267 103.708 33.52 103.615 33.52C102.668 33.52 101.915 33.8 101.355 34.36C100.795 34.9067 100.515 35.7267 100.515 36.82V42H98.015ZM118.521 42V39.84L118.381 39.38V35.6C118.381 34.8667 118.161 34.3 117.721 33.9C117.281 33.4867 116.614 33.28 115.721 33.28C115.121 33.28 114.527 33.3733 113.941 33.56C113.367 33.7467 112.881 34.0067 112.481 34.34L111.501 32.52C112.074 32.08 112.754 31.7533 113.541 31.54C114.341 31.3133 115.167 31.2 116.021 31.2C117.567 31.2 118.761 31.5733 119.601 32.32C120.454 33.0533 120.881 34.1933 120.881 35.74V42H118.521ZM115.161 42.14C114.361 42.14 113.661 42.0067 113.061 41.74C112.461 41.46 111.994 41.08 111.661 40.6C111.341 40.1067 111.181 39.5533 111.181 38.94C111.181 38.34 111.321 37.8 111.601 37.32C111.894 36.84 112.367 36.46 113.021 36.18C113.674 35.9 114.541 35.76 115.621 35.76H118.721V37.42H115.801C114.947 37.42 114.374 37.56 114.081 37.84C113.787 38.1067 113.641 38.44 113.641 38.84C113.641 39.2933 113.821 39.6533 114.181 39.92C114.541 40.1867 115.041 40.32 115.681 40.32C116.294 40.32 116.841 40.18 117.321 39.9C117.814 39.62 118.167 39.2067 118.381 38.66L118.801 40.16C118.561 40.7867 118.127 41.2733 117.501 41.62C116.887 41.9667 116.107 42.14 115.161 42.14ZM124.089 42V27.16H126.589V42H124.089ZM129.87 42V31.32H132.37V42H129.87ZM131.13 29.56C130.664 29.56 130.277 29.4133 129.97 29.12C129.677 28.8267 129.53 28.4733 129.53 28.06C129.53 27.6333 129.677 27.28 129.97 27C130.277 26.7067 130.664 26.56 131.13 26.56C131.597 26.56 131.977 26.7 132.27 26.98C132.577 27.2467 132.73 27.5867 132.73 28C132.73 28.44 132.584 28.8133 132.29 29.12C131.997 29.4133 131.61 29.56 131.13 29.56ZM142.232 42V39.84L142.092 39.38V35.6C142.092 34.8667 141.872 34.3 141.432 33.9C140.992 33.4867 140.325 33.28 139.432 33.28C138.832 33.28 138.238 33.3733 137.652 33.56C137.078 33.7467 136.592 34.0067 136.192 34.34L135.212 32.52C135.785 32.08 136.465 31.7533 137.252 31.54C138.052 31.3133 138.878 31.2 139.732 31.2C141.278 31.2 142.472 31.5733 143.312 32.32C144.165 33.0533 144.592 34.1933 144.592 35.74V42H142.232ZM138.872 42.14C138.072 42.14 137.372 42.0067 136.772 41.74C136.172 41.46 135.705 41.08 135.372 40.6C135.052 40.1067 134.892 39.5533 134.892 38.94C134.892 38.34 135.032 37.8 135.312 37.32C135.605 36.84 136.078 36.46 136.732 36.18C137.385 35.9 138.252 35.76 139.332 35.76H142.432V37.42H139.512C138.658 37.42 138.085 37.56 137.792 37.84C137.498 38.1067 137.352 38.44 137.352 38.84C137.352 39.2933 137.532 39.6533 137.892 39.92C138.252 40.1867 138.752 40.32 139.392 40.32C140.005 40.32 140.552 40.18 141.032 39.9C141.525 39.62 141.878 39.2067 142.092 38.66L142.512 40.16C142.272 40.7867 141.838 41.2733 141.212 41.62C140.598 41.9667 139.818 42.14 138.872 42.14ZM151.1 42.14C150.207 42.14 149.347 42.0267 148.52 41.8C147.707 41.56 147.06 41.2733 146.58 40.94L147.54 39.04C148.02 39.3467 148.593 39.6 149.26 39.8C149.927 40 150.593 40.1 151.26 40.1C152.047 40.1 152.613 39.9933 152.96 39.78C153.32 39.5667 153.5 39.28 153.5 38.92C153.5 38.6267 153.38 38.4067 153.14 38.26C152.9 38.1 152.587 37.98 152.2 37.9C151.813 37.82 151.38 37.7467 150.9 37.68C150.433 37.6133 149.96 37.5267 149.48 37.42C149.013 37.3 148.587 37.1333 148.2 36.92C147.813 36.6933 147.5 36.3933 147.26 36.02C147.02 35.6467 146.9 35.1533 146.9 34.54C146.9 33.86 147.093 33.2733 147.48 32.78C147.867 32.2733 148.407 31.8867 149.1 31.62C149.807 31.34 150.64 31.2 151.6 31.2C152.32 31.2 153.047 31.28 153.78 31.44C154.513 31.6 155.12 31.8267 155.6 32.12L154.64 34.02C154.133 33.7133 153.62 33.5067 153.1 33.4C152.593 33.28 152.087 33.22 151.58 33.22C150.82 33.22 150.253 33.3333 149.88 33.56C149.52 33.7867 149.34 34.0733 149.34 34.42C149.34 34.74 149.46 34.98 149.7 35.14C149.94 35.3 150.253 35.4267 150.64 35.52C151.027 35.6133 151.453 35.6933 151.92 35.76C152.4 35.8133 152.873 35.9 153.34 36.02C153.807 36.14 154.233 36.3067 154.62 36.52C155.02 36.72 155.34 37.0067 155.58 37.38C155.82 37.7533 155.94 38.24 155.94 38.84C155.94 39.5067 155.74 40.0867 155.34 40.58C154.953 41.0733 154.4 41.46 153.68 41.74C152.96 42.0067 152.1 42.14 151.1 42.14ZM163.113 42.14C161.926 42.14 160.886 41.9067 159.993 41.44C159.113 40.96 158.426 40.3067 157.933 39.48C157.453 38.6533 157.213 37.7133 157.213 36.66C157.213 35.5933 157.446 34.6533 157.913 33.84C158.393 33.0133 159.046 32.3667 159.873 31.9C160.713 31.4333 161.666 31.2 162.733 31.2C163.773 31.2 164.7 31.4267 165.513 31.88C166.326 32.3333 166.966 32.9733 167.433 33.8C167.9 34.6267 168.133 35.6 168.133 36.72C168.133 36.8267 168.126 36.9467 168.113 37.08C168.113 37.2133 168.106 37.34 168.093 37.46H159.193V35.8H166.773L165.793 36.32C165.806 35.7067 165.68 35.1667 165.413 34.7C165.146 34.2333 164.78 33.8667 164.313 33.6C163.86 33.3333 163.333 33.2 162.733 33.2C162.12 33.2 161.58 33.3333 161.113 33.6C160.66 33.8667 160.3 34.24 160.033 34.72C159.78 35.1867 159.653 35.74 159.653 36.38V36.78C159.653 37.42 159.8 37.9867 160.093 38.48C160.386 38.9733 160.8 39.3533 161.333 39.62C161.866 39.8867 162.48 40.02 163.173 40.02C163.773 40.02 164.313 39.9267 164.793 39.74C165.273 39.5533 165.7 39.26 166.073 38.86L167.413 40.4C166.933 40.96 166.326 41.3933 165.593 41.7C164.873 41.9933 164.046 42.14 163.113 42.14ZM173.835 42.14C172.941 42.14 172.081 42.0267 171.255 41.8C170.441 41.56 169.795 41.2733 169.315 40.94L170.275 39.04C170.755 39.3467 171.328 39.6 171.995 39.8C172.661 40 173.328 40.1 173.995 40.1C174.781 40.1 175.348 39.9933 175.695 39.78C176.055 39.5667 176.235 39.28 176.235 38.92C176.235 38.6267 176.115 38.4067 175.875 38.26C175.635 38.1 175.321 37.98 174.935 37.9C174.548 37.82 174.115 37.7467 173.635 37.68C173.168 37.6133 172.695 37.5267 172.215 37.42C171.748 37.3 171.321 37.1333 170.935 36.92C170.548 36.6933 170.235 36.3933 169.995 36.02C169.755 35.6467 169.635 35.1533 169.635 34.54C169.635 33.86 169.828 33.2733 170.215 32.78C170.601 32.2733 171.141 31.8867 171.835 31.62C172.541 31.34 173.375 31.2 174.335 31.2C175.055 31.2 175.781 31.28 176.515 31.44C177.248 31.6 177.855 31.8267 178.335 32.12L177.375 34.02C176.868 33.7133 176.355 33.5067 175.835 33.4C175.328 33.28 174.821 33.22 174.315 33.22C173.555 33.22 172.988 33.3333 172.615 33.56C172.255 33.7867 172.075 34.0733 172.075 34.42C172.075 34.74 172.195 34.98 172.435 35.14C172.675 35.3 172.988 35.4267 173.375 35.52C173.761 35.6133 174.188 35.6933 174.655 35.76C175.135 35.8133 175.608 35.9 176.075 36.02C176.541 36.14 176.968 36.3067 177.355 36.52C177.755 36.72 178.075 37.0067 178.315 37.38C178.555 37.7533 178.675 38.24 178.675 38.84C178.675 39.5067 178.475 40.0867 178.075 40.58C177.688 41.0733 177.135 41.46 176.415 41.74C175.695 42.0067 174.835 42.14 173.835 42.14Z" fill="#414141"/>
<g filter="url(#filter1_d_17062_8428)">
<rect x="62" y="96" width="310" height="64" rx="18" fill="white"/>
</g>
<rect x="72" y="109" width="8" height="38" rx="4" fill="#FFCCCC"/>
<path d="M91.88 135V121H94.48V132.8H101.8V135H91.88ZM108.535 135.14C107.348 135.14 106.308 134.907 105.415 134.44C104.535 133.96 103.848 133.307 103.355 132.48C102.875 131.653 102.635 130.713 102.635 129.66C102.635 128.593 102.868 127.653 103.335 126.84C103.815 126.013 104.468 125.367 105.295 124.9C106.135 124.433 107.088 124.2 108.155 124.2C109.195 124.2 110.122 124.427 110.935 124.88C111.748 125.333 112.388 125.973 112.855 126.8C113.322 127.627 113.555 128.6 113.555 129.72C113.555 129.827 113.548 129.947 113.535 130.08C113.535 130.213 113.528 130.34 113.515 130.46H104.615V128.8H112.195L111.215 129.32C111.228 128.707 111.102 128.167 110.835 127.7C110.568 127.233 110.202 126.867 109.735 126.6C109.282 126.333 108.755 126.2 108.155 126.2C107.542 126.2 107.002 126.333 106.535 126.6C106.082 126.867 105.722 127.24 105.455 127.72C105.202 128.187 105.075 128.74 105.075 129.38V129.78C105.075 130.42 105.222 130.987 105.515 131.48C105.808 131.973 106.222 132.353 106.755 132.62C107.288 132.887 107.902 133.02 108.595 133.02C109.195 133.02 109.735 132.927 110.215 132.74C110.695 132.553 111.122 132.26 111.495 131.86L112.835 133.4C112.355 133.96 111.748 134.393 111.015 134.7C110.295 134.993 109.468 135.14 108.535 135.14ZM120.476 135.14C119.45 135.14 118.523 134.913 117.696 134.46C116.883 133.993 116.243 133.353 115.776 132.54C115.31 131.727 115.076 130.767 115.076 129.66C115.076 128.553 115.31 127.593 115.776 126.78C116.243 125.967 116.883 125.333 117.696 124.88C118.523 124.427 119.45 124.2 120.476 124.2C121.37 124.2 122.17 124.4 122.876 124.8C123.583 125.187 124.143 125.78 124.556 126.58C124.97 127.38 125.176 128.407 125.176 129.66C125.176 130.9 124.976 131.927 124.576 132.74C124.176 133.54 123.623 134.14 122.916 134.54C122.21 134.94 121.396 135.14 120.476 135.14ZM120.776 133C121.376 133 121.91 132.867 122.376 132.6C122.856 132.333 123.236 131.947 123.516 131.44C123.81 130.933 123.956 130.34 123.956 129.66C123.956 128.967 123.81 128.373 123.516 127.88C123.236 127.373 122.856 126.987 122.376 126.72C121.91 126.453 121.376 126.32 120.776 126.32C120.176 126.32 119.636 126.453 119.156 126.72C118.69 126.987 118.31 127.373 118.016 127.88C117.736 128.373 117.596 128.967 117.596 129.66C117.596 130.34 117.736 130.933 118.016 131.44C118.31 131.947 118.69 132.333 119.156 132.6C119.636 132.867 120.176 133 120.776 133ZM124.016 135V132.48L124.116 129.64L123.916 126.8V120.16H126.396V135H124.016ZM134.527 139.02C133.54 139.02 132.574 138.887 131.627 138.62C130.694 138.367 129.927 137.993 129.327 137.5L130.447 135.62C130.914 136.007 131.5 136.313 132.207 136.54C132.927 136.78 133.654 136.9 134.387 136.9C135.56 136.9 136.42 136.627 136.967 136.08C137.514 135.547 137.787 134.74 137.787 133.66V131.76L137.987 129.34L137.907 126.92V124.32H140.287V133.38C140.287 135.313 139.794 136.733 138.807 137.64C137.82 138.56 136.394 139.02 134.527 139.02ZM134.207 134.52C133.194 134.52 132.274 134.307 131.447 133.88C130.634 133.44 129.987 132.833 129.507 132.06C129.04 131.287 128.807 130.38 128.807 129.34C128.807 128.313 129.04 127.413 129.507 126.64C129.987 125.867 130.634 125.267 131.447 124.84C132.274 124.413 133.194 124.2 134.207 124.2C135.114 124.2 135.927 124.38 136.647 124.74C137.367 125.1 137.94 125.66 138.367 126.42C138.807 127.18 139.027 128.153 139.027 129.34C139.027 130.527 138.807 131.507 138.367 132.28C137.94 133.04 137.367 133.607 136.647 133.98C135.927 134.34 135.114 134.52 134.207 134.52ZM134.587 132.4C135.214 132.4 135.774 132.273 136.267 132.02C136.76 131.753 137.14 131.393 137.407 130.94C137.687 130.473 137.827 129.94 137.827 129.34C137.827 128.74 137.687 128.213 137.407 127.76C137.14 127.293 136.76 126.94 136.267 126.7C135.774 126.447 135.214 126.32 134.587 126.32C133.96 126.32 133.394 126.447 132.887 126.7C132.394 126.94 132.007 127.293 131.727 127.76C131.46 128.213 131.327 128.74 131.327 129.34C131.327 129.94 131.46 130.473 131.727 130.94C132.007 131.393 132.394 131.753 132.887 132.02C133.394 132.273 133.96 132.4 134.587 132.4ZM148.594 135.14C147.407 135.14 146.367 134.907 145.474 134.44C144.594 133.96 143.907 133.307 143.414 132.48C142.934 131.653 142.694 130.713 142.694 129.66C142.694 128.593 142.927 127.653 143.394 126.84C143.874 126.013 144.527 125.367 145.354 124.9C146.194 124.433 147.147 124.2 148.214 124.2C149.254 124.2 150.18 124.427 150.994 124.88C151.807 125.333 152.447 125.973 152.914 126.8C153.38 127.627 153.614 128.6 153.614 129.72C153.614 129.827 153.607 129.947 153.594 130.08C153.594 130.213 153.587 130.34 153.574 130.46H144.674V128.8H152.254L151.274 129.32C151.287 128.707 151.16 128.167 150.894 127.7C150.627 127.233 150.26 126.867 149.794 126.6C149.34 126.333 148.814 126.2 148.214 126.2C147.6 126.2 147.06 126.333 146.594 126.6C146.14 126.867 145.78 127.24 145.514 127.72C145.26 128.187 145.134 128.74 145.134 129.38V129.78C145.134 130.42 145.28 130.987 145.574 131.48C145.867 131.973 146.28 132.353 146.814 132.62C147.347 132.887 147.96 133.02 148.654 133.02C149.254 133.02 149.794 132.927 150.274 132.74C150.754 132.553 151.18 132.26 151.554 131.86L152.894 133.4C152.414 133.96 151.807 134.393 151.074 134.7C150.354 134.993 149.527 135.14 148.594 135.14ZM156.015 135V124.32H158.395V127.26L158.115 126.4C158.435 125.68 158.935 125.133 159.615 124.76C160.308 124.387 161.168 124.2 162.195 124.2V126.58C162.088 126.553 161.988 126.54 161.895 126.54C161.802 126.527 161.708 126.52 161.615 126.52C160.668 126.52 159.915 126.8 159.355 127.36C158.795 127.907 158.515 128.727 158.515 129.82V135H156.015Z" fill="#414141"/>
<g filter="url(#filter2_d_17062_8428)">
<rect x="120" y="189" width="310" height="64" rx="18" fill="white"/>
</g>
<rect x="130" y="202" width="8" height="38" rx="4" fill="#FFCCCC"/>
<path d="M149.88 228V214H152.48V225.8H159.8V228H149.88ZM161.613 228V217.32H164.113V228H161.613ZM162.873 215.56C162.406 215.56 162.019 215.413 161.713 215.12C161.419 214.827 161.273 214.473 161.273 214.06C161.273 213.633 161.419 213.28 161.713 213C162.019 212.707 162.406 212.56 162.873 212.56C163.339 212.56 163.719 212.7 164.013 212.98C164.319 213.247 164.473 213.587 164.473 214C164.473 214.44 164.326 214.813 164.033 215.12C163.739 215.413 163.353 215.56 162.873 215.56ZM173.454 217.2C174.307 217.2 175.067 217.367 175.734 217.7C176.414 218.033 176.947 218.547 177.334 219.24C177.721 219.92 177.914 220.8 177.914 221.88V228H175.414V222.2C175.414 221.253 175.187 220.547 174.734 220.08C174.294 219.613 173.674 219.38 172.874 219.38C172.287 219.38 171.767 219.5 171.314 219.74C170.861 219.98 170.507 220.34 170.254 220.82C170.014 221.287 169.894 221.88 169.894 222.6V228H167.394V217.32H169.774V220.2L169.354 219.32C169.727 218.64 170.267 218.12 170.974 217.76C171.694 217.387 172.521 217.2 173.454 217.2ZM183.125 225.62L183.185 222.48L188.765 217.32H191.765L187.025 222.08L185.705 223.18L183.125 225.62ZM181.085 228V213.16H183.585V228H181.085ZM189.145 228L185.245 223.18L186.825 221.18L192.185 228H189.145ZM200.185 228V225.84L200.045 225.38V221.6C200.045 220.867 199.825 220.3 199.385 219.9C198.945 219.487 198.278 219.28 197.385 219.28C196.785 219.28 196.192 219.373 195.605 219.56C195.032 219.747 194.545 220.007 194.145 220.34L193.165 218.52C193.738 218.08 194.418 217.753 195.205 217.54C196.005 217.313 196.832 217.2 197.685 217.2C199.232 217.2 200.425 217.573 201.265 218.32C202.118 219.053 202.545 220.193 202.545 221.74V228H200.185ZM196.825 228.14C196.025 228.14 195.325 228.007 194.725 227.74C194.125 227.46 193.658 227.08 193.325 226.6C193.005 226.107 192.845 225.553 192.845 224.94C192.845 224.34 192.985 223.8 193.265 223.32C193.558 222.84 194.032 222.46 194.685 222.18C195.338 221.9 196.205 221.76 197.285 221.76H200.385V223.42H197.465C196.612 223.42 196.038 223.56 195.745 223.84C195.452 224.107 195.305 224.44 195.305 224.84C195.305 225.293 195.485 225.653 195.845 225.92C196.205 226.187 196.705 226.32 197.345 226.32C197.958 226.32 198.505 226.18 198.985 225.9C199.478 225.62 199.832 225.207 200.045 224.66L200.465 226.16C200.225 226.787 199.792 227.273 199.165 227.62C198.552 227.967 197.772 228.14 196.825 228.14ZM211.673 228.14C210.767 228.14 209.96 227.94 209.253 227.54C208.547 227.14 207.987 226.54 207.573 225.74C207.173 224.927 206.973 223.9 206.973 222.66C206.973 221.407 207.18 220.38 207.593 219.58C208.02 218.78 208.587 218.187 209.293 217.8C210.013 217.4 210.807 217.2 211.673 217.2C212.727 217.2 213.653 217.427 214.453 217.88C215.267 218.333 215.907 218.967 216.373 219.78C216.853 220.593 217.093 221.553 217.093 222.66C217.093 223.767 216.853 224.727 216.373 225.54C215.907 226.353 215.267 226.993 214.453 227.46C213.653 227.913 212.727 228.14 211.673 228.14ZM205.753 228V213.16H208.253V219.8L208.053 222.64L208.133 225.48V228H205.753ZM211.393 226C211.993 226 212.527 225.867 212.993 225.6C213.473 225.333 213.853 224.947 214.133 224.44C214.413 223.933 214.553 223.34 214.553 222.66C214.553 221.967 214.413 221.373 214.133 220.88C213.853 220.373 213.473 219.987 212.993 219.72C212.527 219.453 211.993 219.32 211.393 219.32C210.793 219.32 210.253 219.453 209.773 219.72C209.293 219.987 208.913 220.373 208.633 220.88C208.353 221.373 208.213 221.967 208.213 222.66C208.213 223.34 208.353 223.933 208.633 224.44C208.913 224.947 209.293 225.333 209.773 225.6C210.253 225.867 210.793 226 211.393 226ZM219.464 228V213.16H221.964V228H219.464ZM230.265 228.14C229.079 228.14 228.039 227.907 227.145 227.44C226.265 226.96 225.579 226.307 225.085 225.48C224.605 224.653 224.365 223.713 224.365 222.66C224.365 221.593 224.599 220.653 225.065 219.84C225.545 219.013 226.199 218.367 227.025 217.9C227.865 217.433 228.819 217.2 229.885 217.2C230.925 217.2 231.852 217.427 232.665 217.88C233.479 218.333 234.119 218.973 234.585 219.8C235.052 220.627 235.285 221.6 235.285 222.72C235.285 222.827 235.279 222.947 235.265 223.08C235.265 223.213 235.259 223.34 235.245 223.46H226.345V221.8H233.925L232.945 222.32C232.959 221.707 232.832 221.167 232.565 220.7C232.299 220.233 231.932 219.867 231.465 219.6C231.012 219.333 230.485 219.2 229.885 219.2C229.272 219.2 228.732 219.333 228.265 219.6C227.812 219.867 227.452 220.24 227.185 220.72C226.932 221.187 226.805 221.74 226.805 222.38V222.78C226.805 223.42 226.952 223.987 227.245 224.48C227.539 224.973 227.952 225.353 228.485 225.62C229.019 225.887 229.632 226.02 230.325 226.02C230.925 226.02 231.465 225.927 231.945 225.74C232.425 225.553 232.852 225.26 233.225 224.86L234.565 226.4C234.085 226.96 233.479 227.393 232.745 227.7C232.025 227.993 231.199 228.14 230.265 228.14ZM249.794 228V225.84L249.654 225.38V221.6C249.654 220.867 249.434 220.3 248.994 219.9C248.554 219.487 247.888 219.28 246.994 219.28C246.394 219.28 245.801 219.373 245.214 219.56C244.641 219.747 244.154 220.007 243.754 220.34L242.774 218.52C243.348 218.08 244.028 217.753 244.814 217.54C245.614 217.313 246.441 217.2 247.294 217.2C248.841 217.2 250.034 217.573 250.874 218.32C251.728 219.053 252.154 220.193 252.154 221.74V228H249.794ZM246.434 228.14C245.634 228.14 244.934 228.007 244.334 227.74C243.734 227.46 243.268 227.08 242.934 226.6C242.614 226.107 242.454 225.553 242.454 224.94C242.454 224.34 242.594 223.8 242.874 223.32C243.168 222.84 243.641 222.46 244.294 222.18C244.948 221.9 245.814 221.76 246.894 221.76H249.994V223.42H247.074C246.221 223.42 245.648 223.56 245.354 223.84C245.061 224.107 244.914 224.44 244.914 224.84C244.914 225.293 245.094 225.653 245.454 225.92C245.814 226.187 246.314 226.32 246.954 226.32C247.568 226.32 248.114 226.18 248.594 225.9C249.088 225.62 249.441 225.207 249.654 224.66L250.074 226.16C249.834 226.787 249.401 227.273 248.774 227.62C248.161 227.967 247.381 228.14 246.434 228.14ZM260.282 228.14C259.162 228.14 258.162 227.907 257.282 227.44C256.416 226.96 255.736 226.307 255.242 225.48C254.749 224.653 254.502 223.713 254.502 222.66C254.502 221.593 254.749 220.653 255.242 219.84C255.736 219.013 256.416 218.367 257.282 217.9C258.162 217.433 259.162 217.2 260.282 217.2C261.322 217.2 262.236 217.413 263.022 217.84C263.822 218.253 264.429 218.867 264.842 219.68L262.922 220.8C262.602 220.293 262.209 219.92 261.742 219.68C261.289 219.44 260.796 219.32 260.262 219.32C259.649 219.32 259.096 219.453 258.602 219.72C258.109 219.987 257.722 220.373 257.442 220.88C257.162 221.373 257.022 221.967 257.022 222.66C257.022 223.353 257.162 223.953 257.442 224.46C257.722 224.953 258.109 225.333 258.602 225.6C259.096 225.867 259.649 226 260.262 226C260.796 226 261.289 225.88 261.742 225.64C262.209 225.4 262.602 225.027 262.922 224.52L264.842 225.64C264.429 226.44 263.822 227.06 263.022 227.5C262.236 227.927 261.322 228.14 260.282 228.14ZM271.747 228.14C270.627 228.14 269.627 227.907 268.747 227.44C267.88 226.96 267.2 226.307 266.707 225.48C266.214 224.653 265.967 223.713 265.967 222.66C265.967 221.593 266.214 220.653 266.707 219.84C267.2 219.013 267.88 218.367 268.747 217.9C269.627 217.433 270.627 217.2 271.747 217.2C272.787 217.2 273.7 217.413 274.487 217.84C275.287 218.253 275.894 218.867 276.307 219.68L274.387 220.8C274.067 220.293 273.674 219.92 273.207 219.68C272.754 219.44 272.26 219.32 271.727 219.32C271.114 219.32 270.56 219.453 270.067 219.72C269.574 219.987 269.187 220.373 268.907 220.88C268.627 221.373 268.487 221.967 268.487 222.66C268.487 223.353 268.627 223.953 268.907 224.46C269.187 224.953 269.574 225.333 270.067 225.6C270.56 225.867 271.114 226 271.727 226C272.26 226 272.754 225.88 273.207 225.64C273.674 225.4 274.067 225.027 274.387 224.52L276.307 225.64C275.894 226.44 275.287 227.06 274.487 227.5C273.7 227.927 272.787 228.14 271.747 228.14ZM283.112 228.14C282.019 228.14 281.045 227.907 280.192 227.44C279.339 226.96 278.665 226.307 278.172 225.48C277.679 224.653 277.432 223.713 277.432 222.66C277.432 221.593 277.679 220.653 278.172 219.84C278.665 219.013 279.339 218.367 280.192 217.9C281.045 217.433 282.019 217.2 283.112 217.2C284.219 217.2 285.199 217.433 286.052 217.9C286.919 218.367 287.592 219.007 288.072 219.82C288.565 220.633 288.812 221.58 288.812 222.66C288.812 223.713 288.565 224.653 288.072 225.48C287.592 226.307 286.919 226.96 286.052 227.44C285.199 227.907 284.219 228.14 283.112 228.14ZM283.112 226C283.725 226 284.272 225.867 284.752 225.6C285.232 225.333 285.605 224.947 285.872 224.44C286.152 223.933 286.292 223.34 286.292 222.66C286.292 221.967 286.152 221.373 285.872 220.88C285.605 220.373 285.232 219.987 284.752 219.72C284.272 219.453 283.732 219.32 283.132 219.32C282.519 219.32 281.972 219.453 281.492 219.72C281.025 219.987 280.652 220.373 280.372 220.88C280.092 221.373 279.952 221.967 279.952 222.66C279.952 223.34 280.092 223.933 280.372 224.44C280.652 224.947 281.025 225.333 281.492 225.6C281.972 225.867 282.512 226 283.112 226ZM295.723 228.14C294.816 228.14 294.016 227.973 293.323 227.64C292.629 227.293 292.089 226.773 291.703 226.08C291.316 225.373 291.123 224.487 291.123 223.42V217.32H293.623V223.08C293.623 224.04 293.836 224.76 294.263 225.24C294.703 225.707 295.323 225.94 296.123 225.94C296.709 225.94 297.216 225.82 297.643 225.58C298.083 225.34 298.423 224.98 298.663 224.5C298.916 224.02 299.043 223.427 299.043 222.72V217.32H301.543V228H299.163V225.12L299.583 226C299.223 226.693 298.696 227.227 298.003 227.6C297.309 227.96 296.549 228.14 295.723 228.14ZM310.876 217.2C311.729 217.2 312.489 217.367 313.156 217.7C313.836 218.033 314.369 218.547 314.756 219.24C315.142 219.92 315.336 220.8 315.336 221.88V228H312.836V222.2C312.836 221.253 312.609 220.547 312.156 220.08C311.716 219.613 311.096 219.38 310.296 219.38C309.709 219.38 309.189 219.5 308.736 219.74C308.282 219.98 307.929 220.34 307.676 220.82C307.436 221.287 307.316 221.88 307.316 222.6V228H304.816V217.32H307.196V220.2L306.776 219.32C307.149 218.64 307.689 218.12 308.396 217.76C309.116 217.387 309.942 217.2 310.876 217.2ZM322.527 228.14C321.354 228.14 320.447 227.84 319.807 227.24C319.167 226.627 318.847 225.727 318.847 224.54V214.96H321.347V224.48C321.347 224.987 321.474 225.38 321.727 225.66C321.994 225.94 322.361 226.08 322.827 226.08C323.387 226.08 323.854 225.933 324.227 225.64L324.927 227.42C324.634 227.66 324.274 227.84 323.847 227.96C323.421 228.08 322.981 228.14 322.527 228.14ZM317.087 219.4V217.4H324.207V219.4H317.087ZM330.284 228.14C329.39 228.14 328.53 228.027 327.704 227.8C326.89 227.56 326.244 227.273 325.764 226.94L326.724 225.04C327.204 225.347 327.777 225.6 328.444 225.8C329.11 226 329.777 226.1 330.444 226.1C331.23 226.1 331.797 225.993 332.144 225.78C332.504 225.567 332.684 225.28 332.684 224.92C332.684 224.627 332.564 224.407 332.324 224.26C332.084 224.1 331.77 223.98 331.384 223.9C330.997 223.82 330.564 223.747 330.084 223.68C329.617 223.613 329.144 223.527 328.664 223.42C328.197 223.3 327.77 223.133 327.384 222.92C326.997 222.693 326.684 222.393 326.444 222.02C326.204 221.647 326.084 221.153 326.084 220.54C326.084 219.86 326.277 219.273 326.664 218.78C327.05 218.273 327.59 217.887 328.284 217.62C328.99 217.34 329.824 217.2 330.784 217.2C331.504 217.2 332.23 217.28 332.964 217.44C333.697 217.6 334.304 217.827 334.784 218.12L333.824 220.02C333.317 219.713 332.804 219.507 332.284 219.4C331.777 219.28 331.27 219.22 330.764 219.22C330.004 219.22 329.437 219.333 329.064 219.56C328.704 219.787 328.524 220.073 328.524 220.42C328.524 220.74 328.644 220.98 328.884 221.14C329.124 221.3 329.437 221.427 329.824 221.52C330.21 221.613 330.637 221.693 331.104 221.76C331.584 221.813 332.057 221.9 332.524 222.02C332.99 222.14 333.417 222.307 333.804 222.52C334.204 222.72 334.524 223.007 334.764 223.38C335.004 223.753 335.124 224.24 335.124 224.84C335.124 225.507 334.924 226.087 334.524 226.58C334.137 227.073 333.584 227.46 332.864 227.74C332.144 228.007 331.284 228.14 330.284 228.14Z" fill="#414141"/>
<defs>
<filter id="filter0_d_17062_8428" x="0" y="0" width="318" height="72" filterUnits="userSpaceOnUse" color-interpolation-filters="sRGB">
<feFlood flood-opacity="0" result="BackgroundImageFix"/>
<feColorMatrix in="SourceAlpha" type="matrix" values="0 0 0 0 0 0 0 0 0 0 0 0 0 0 0 0 0 0 127 0" result="hardAlpha"/>
<feOffset dy="1"/>
<feGaussianBlur stdDeviation="2"/>
<feComposite in2="hardAlpha" operator="out"/>
<feColorMatrix type="matrix" values="0 0 0 0 0 0 0 0 0 0 0 0 0 0 0 0 0 0 0.25 0"/>
<feBlend mode="normal" in2="BackgroundImageFix" result="effect1_dropShadow_17062_8428"/>
<feBlend mode="normal" in="SourceGraphic" in2="effect1_dropShadow_17062_8428" result="shape"/>
</filter>
<filter id="filter1_d_17062_8428" x="58" y="93" width="318" height="72" filterUnits="userSpaceOnUse" color-interpolation-filters="sRGB">
<feFlood flood-opacity="0" result="BackgroundImageFix"/>
<feColorMatrix in="SourceAlpha" type="matrix" values="0 0 0 0 0 0 0 0 0 0 0 0 0 0 0 0 0 0 127 0" result="hardAlpha"/>
<feOffset dy="1"/>
<feGaussianBlur stdDeviation="2"/>
<feComposite in2="hardAlpha" operator="out"/>
<feColorMatrix type="matrix" values="0 0 0 0 0 0 0 0 0 0 0 0 0 0 0 0 0 0 0.25 0"/>
<feBlend mode="normal" in2="BackgroundImageFix" result="effect1_dropShadow_17062_8428"/>
<feBlend mode="normal" in="SourceGraphic" in2="effect1_dropShadow_17062_8428" result="shape"/>
</filter>
<filter id="filter2_d_17062_8428" x="116" y="186" width="318" height="72" filterUnits="userSpaceOnUse" color-interpolation-filters="sRGB">
<feFlood flood-opacity="0" result="BackgroundImageFix"/>
<feColorMatrix in="SourceAlpha" type="matrix" values="0 0 0 0 0 0 0 0 0 0 0 0 0 0 0 0 0 0 127 0" result="hardAlpha"/>
<feOffset dy="1"/>
<feGaussianBlur stdDeviation="2"/>
<feComposite in2="hardAlpha" operator="out"/>
<feColorMatrix type="matrix" values="0 0 0 0 0 0 0 0 0 0 0 0 0 0 0 0 0 0 0.25 0"/>
<feBlend mode="normal" in2="BackgroundImageFix" result="effect1_dropShadow_17062_8428"/>
<feBlend mode="normal" in="SourceGraphic" in2="effect1_dropShadow_17062_8428" result="shape"/>
</filter>
</defs>
</svg>
