<svg width="534" height="300" viewBox="0 0 534 300" fill="none" xmlns="http://www.w3.org/2000/svg">
<g filter="url(#filter0_d_17069_8540)">
<rect x="4" y="104" width="158" height="76" rx="10" fill="white"/>
</g>
<mask id="path-2-inside-1_17069_8540" fill="white">
<path d="M4 114C4 108.477 8.47715 104 14 104V180C8.47715 180 4 175.523 4 170V114Z"/>
</mask>
<path d="M4 114C4 108.477 8.47715 104 14 104V180C8.47715 180 4 175.523 4 170V114Z" fill="#FFCCCC"/>
<path d="M4 104H14H4ZM14 180H4H14ZM4 180V104V180ZM16 104V180H14C13.3284 180 12.6585 179.932 12.0004 179.798L12 114V104.2L12.0004 104.202C12.6585 104.068 13.3284 104 14 104L16 104Z" fill="#810019" mask="url(#path-2-inside-1_17069_8540)"/>
<path d="M32.326 128.112C31.5793 128.112 30.8653 128 30.184 127.776C29.5027 127.543 28.966 127.244 28.574 126.88L29.092 125.788C29.4653 126.115 29.9413 126.385 30.52 126.6C31.0987 126.815 31.7007 126.922 32.326 126.922C32.8953 126.922 33.3573 126.857 33.712 126.726C34.0667 126.595 34.328 126.418 34.496 126.194C34.664 125.961 34.748 125.699 34.748 125.41C34.748 125.074 34.636 124.803 34.412 124.598C34.1973 124.393 33.9127 124.229 33.558 124.108C33.2127 123.977 32.83 123.865 32.41 123.772C31.99 123.679 31.5653 123.571 31.136 123.45C30.716 123.319 30.3287 123.156 29.974 122.96C29.6287 122.764 29.3487 122.503 29.134 122.176C28.9193 121.84 28.812 121.411 28.812 120.888C28.812 120.384 28.9427 119.922 29.204 119.502C29.4747 119.073 29.8853 118.732 30.436 118.48C30.996 118.219 31.7053 118.088 32.564 118.088C33.1333 118.088 33.698 118.163 34.258 118.312C34.818 118.461 35.3033 118.676 35.714 118.956L35.252 120.076C34.832 119.796 34.3887 119.595 33.922 119.474C33.4553 119.343 33.0027 119.278 32.564 119.278C32.0133 119.278 31.5607 119.348 31.206 119.488C30.8513 119.628 30.59 119.815 30.422 120.048C30.2633 120.281 30.184 120.543 30.184 120.832C30.184 121.177 30.2913 121.453 30.506 121.658C30.73 121.863 31.0147 122.027 31.36 122.148C31.7147 122.269 32.102 122.381 32.522 122.484C32.942 122.577 33.362 122.685 33.782 122.806C34.2113 122.927 34.5987 123.086 34.944 123.282C35.2987 123.478 35.5833 123.739 35.798 124.066C36.0127 124.393 36.12 124.813 36.12 125.326C36.12 125.821 35.9847 126.283 35.714 126.712C35.4433 127.132 35.0233 127.473 34.454 127.734C33.894 127.986 33.1847 128.112 32.326 128.112ZM41.2733 128.084C40.48 128.084 39.78 127.921 39.1733 127.594C38.576 127.267 38.1093 126.819 37.7733 126.25C37.4466 125.681 37.2833 125.027 37.2833 124.29C37.2833 123.553 37.442 122.899 37.7593 122.33C38.086 121.761 38.5293 121.317 39.0893 121C39.6586 120.673 40.298 120.51 41.0073 120.51C41.726 120.51 42.3606 120.669 42.9113 120.986C43.462 121.303 43.8913 121.751 44.1993 122.33C44.5166 122.899 44.6753 123.567 44.6753 124.332C44.6753 124.388 44.6706 124.453 44.6613 124.528C44.6613 124.603 44.6566 124.673 44.6473 124.738H38.3333V123.772H43.9473L43.4013 124.108C43.4106 123.632 43.3126 123.207 43.1073 122.834C42.902 122.461 42.6173 122.171 42.2533 121.966C41.8986 121.751 41.4833 121.644 41.0073 121.644C40.5406 121.644 40.1253 121.751 39.7613 121.966C39.3973 122.171 39.1126 122.465 38.9073 122.848C38.702 123.221 38.5993 123.651 38.5993 124.136V124.36C38.5993 124.855 38.7113 125.298 38.9353 125.69C39.1686 126.073 39.4906 126.371 39.9013 126.586C40.312 126.801 40.7833 126.908 41.3153 126.908C41.754 126.908 42.1506 126.833 42.5053 126.684C42.8693 126.535 43.1866 126.311 43.4573 126.012L44.1993 126.88C43.8633 127.272 43.4433 127.571 42.9393 127.776C42.4446 127.981 41.8893 128.084 41.2733 128.084ZM46.5416 128V120.58H47.8296V122.596L47.7036 122.092C47.9089 121.579 48.2542 121.187 48.7396 120.916C49.2249 120.645 49.8222 120.51 50.5316 120.51V121.812C50.4756 121.803 50.4196 121.798 50.3636 121.798C50.3169 121.798 50.2702 121.798 50.2236 121.798C49.5049 121.798 48.9356 122.013 48.5156 122.442C48.0956 122.871 47.8856 123.492 47.8856 124.304V128H46.5416ZM54.4348 128L51.1868 120.58H52.5868L55.4708 127.3H54.7988L57.7388 120.58H59.0548L55.8068 128H54.4348ZM60.3092 128V120.58H61.6532V128H60.3092ZM60.9812 119.152C60.7198 119.152 60.5005 119.068 60.3232 118.9C60.1552 118.732 60.0712 118.527 60.0712 118.284C60.0712 118.032 60.1552 117.822 60.3232 117.654C60.5005 117.486 60.7198 117.402 60.9812 117.402C61.2425 117.402 61.4572 117.486 61.6252 117.654C61.8025 117.813 61.8912 118.013 61.8912 118.256C61.8912 118.508 61.8072 118.723 61.6392 118.9C61.4712 119.068 61.2518 119.152 60.9812 119.152ZM67.4533 128.084C66.6973 128.084 66.0206 127.921 65.4233 127.594C64.8353 127.267 64.3733 126.819 64.0373 126.25C63.7013 125.681 63.5333 125.027 63.5333 124.29C63.5333 123.553 63.7013 122.899 64.0373 122.33C64.3733 121.761 64.8353 121.317 65.4233 121C66.0206 120.673 66.6973 120.51 67.4533 120.51C68.1253 120.51 68.7226 120.645 69.2453 120.916C69.7773 121.177 70.188 121.569 70.4773 122.092L69.4553 122.75C69.2126 122.386 68.914 122.12 68.5593 121.952C68.214 121.775 67.8406 121.686 67.4393 121.686C66.954 121.686 66.52 121.793 66.1373 122.008C65.7546 122.223 65.4513 122.526 65.2273 122.918C65.0033 123.301 64.8913 123.758 64.8913 124.29C64.8913 124.822 65.0033 125.284 65.2273 125.676C65.4513 126.068 65.7546 126.371 66.1373 126.586C66.52 126.801 66.954 126.908 67.4393 126.908C67.8406 126.908 68.214 126.824 68.5593 126.656C68.914 126.479 69.2126 126.208 69.4553 125.844L70.4773 126.488C70.188 127.001 69.7773 127.398 69.2453 127.678C68.7226 127.949 68.1253 128.084 67.4533 128.084ZM75.412 128.084C74.6187 128.084 73.9187 127.921 73.312 127.594C72.7147 127.267 72.248 126.819 71.912 126.25C71.5853 125.681 71.422 125.027 71.422 124.29C71.422 123.553 71.5807 122.899 71.898 122.33C72.2247 121.761 72.668 121.317 73.228 121C73.7973 120.673 74.4367 120.51 75.146 120.51C75.8647 120.51 76.4993 120.669 77.05 120.986C77.6007 121.303 78.03 121.751 78.338 122.33C78.6553 122.899 78.814 123.567 78.814 124.332C78.814 124.388 78.8093 124.453 78.8 124.528C78.8 124.603 78.7953 124.673 78.786 124.738H72.472V123.772H78.086L77.54 124.108C77.5493 123.632 77.4513 123.207 77.246 122.834C77.0407 122.461 76.756 122.171 76.392 121.966C76.0373 121.751 75.622 121.644 75.146 121.644C74.6793 121.644 74.264 121.751 73.9 121.966C73.536 122.171 73.2513 122.465 73.046 122.848C72.8407 123.221 72.738 123.651 72.738 124.136V124.36C72.738 124.855 72.85 125.298 73.074 125.69C73.3073 126.073 73.6293 126.371 74.04 126.586C74.4507 126.801 74.922 126.908 75.454 126.908C75.8927 126.908 76.2893 126.833 76.644 126.684C77.008 126.535 77.3253 126.311 77.596 126.012L78.338 126.88C78.002 127.272 77.582 127.571 77.078 127.776C76.5833 127.981 76.028 128.084 75.412 128.084ZM82.8083 128.084C82.1923 128.084 81.6043 128 81.0443 127.832C80.4936 127.664 80.0596 127.459 79.7423 127.216L80.3023 126.152C80.6196 126.367 81.0116 126.549 81.4783 126.698C81.9449 126.847 82.4209 126.922 82.9062 126.922C83.5316 126.922 83.9796 126.833 84.2503 126.656C84.5303 126.479 84.6703 126.231 84.6703 125.914C84.6703 125.681 84.5863 125.499 84.4183 125.368C84.2503 125.237 84.0263 125.139 83.7463 125.074C83.4756 125.009 83.1723 124.953 82.8363 124.906C82.5003 124.85 82.1643 124.785 81.8283 124.71C81.4923 124.626 81.1843 124.514 80.9043 124.374C80.6243 124.225 80.4003 124.024 80.2323 123.772C80.0643 123.511 79.9803 123.165 79.9803 122.736C79.9803 122.288 80.1063 121.896 80.3583 121.56C80.6103 121.224 80.9649 120.967 81.4223 120.79C81.8889 120.603 82.4396 120.51 83.0743 120.51C83.5596 120.51 84.0496 120.571 84.5443 120.692C85.0483 120.804 85.4589 120.967 85.7763 121.182L85.2023 122.246C84.8663 122.022 84.5163 121.868 84.1523 121.784C83.7883 121.7 83.4243 121.658 83.0603 121.658C82.4723 121.658 82.0336 121.756 81.7443 121.952C81.4549 122.139 81.3103 122.381 81.3103 122.68C81.3103 122.932 81.3943 123.128 81.5623 123.268C81.7396 123.399 81.9636 123.501 82.2343 123.576C82.5143 123.651 82.8223 123.716 83.1583 123.772C83.4943 123.819 83.8303 123.884 84.1663 123.968C84.5023 124.043 84.8056 124.15 85.0763 124.29C85.3563 124.43 85.5803 124.626 85.7483 124.878C85.9256 125.13 86.0143 125.466 86.0143 125.886C86.0143 126.334 85.8836 126.721 85.6223 127.048C85.3609 127.375 84.9923 127.631 84.5163 127.818C84.0403 127.995 83.4709 128.084 82.8083 128.084Z" fill="#838383"/>
<path d="M32.41 163V143.8L34.51 145.9H28.21V142H37.27V163H32.41ZM49.918 163.36C48.198 163.36 46.658 162.94 45.298 162.1C43.938 161.24 42.868 160 42.088 158.38C41.308 156.76 40.918 154.8 40.918 152.5C40.918 150.2 41.308 148.24 42.088 146.62C42.868 145 43.938 143.77 45.298 142.93C46.658 142.07 48.198 141.64 49.918 141.64C51.658 141.64 53.198 142.07 54.538 142.93C55.898 143.77 56.968 145 57.748 146.62C58.528 148.24 58.918 150.2 58.918 152.5C58.918 154.8 58.528 156.76 57.748 158.38C56.968 160 55.898 161.24 54.538 162.1C53.198 162.94 51.658 163.36 49.918 163.36ZM49.918 159.25C50.738 159.25 51.448 159.02 52.048 158.56C52.668 158.1 53.148 157.37 53.488 156.37C53.848 155.37 54.028 154.08 54.028 152.5C54.028 150.92 53.848 149.63 53.488 148.63C53.148 147.63 52.668 146.9 52.048 146.44C51.448 145.98 50.738 145.75 49.918 145.75C49.118 145.75 48.408 145.98 47.788 146.44C47.188 146.9 46.708 147.63 46.348 148.63C46.008 149.63 45.838 150.92 45.838 152.5C45.838 154.08 46.008 155.37 46.348 156.37C46.708 157.37 47.188 158.1 47.788 158.56C48.408 159.02 49.118 159.25 49.918 159.25ZM67.2473 159.43V145.57H71.1173V159.43H67.2473ZM62.0573 154.33V150.67H76.3373V154.33H62.0573Z" fill="#414141"/>
<g filter="url(#filter1_d_17069_8540)">
<rect x="52" y="219" width="158" height="76" rx="10" fill="white"/>
</g>
<mask id="path-7-inside-2_17069_8540" fill="white">
<path d="M52 229C52 223.477 56.4772 219 62 219V295C56.4772 295 52 290.523 52 285V229Z"/>
</mask>
<path d="M52 229C52 223.477 56.4772 219 62 219V295C56.4772 295 52 290.523 52 285V229Z" fill="#FFCCCC"/>
<path d="M52 219H62H52ZM62 295H52H62ZM52 295V219V295ZM64 219V295H62C61.3284 295 60.6585 294.932 60.0004 294.798L60 229V219.2L60.0004 219.202C60.6585 219.068 61.3284 219 62 219L64 219Z" fill="#810019" mask="url(#path-7-inside-2_17069_8540)"/>
<path d="M81.894 243.112C81.1473 243.112 80.452 242.986 79.808 242.734C79.1733 242.482 78.6227 242.132 78.156 241.684C77.6893 241.227 77.3253 240.695 77.064 240.088C76.8027 239.481 76.672 238.819 76.672 238.1C76.672 237.381 76.8027 236.719 77.064 236.112C77.3253 235.505 77.6893 234.978 78.156 234.53C78.6227 234.073 79.1733 233.718 79.808 233.466C80.4427 233.214 81.138 233.088 81.894 233.088C82.6407 233.088 83.3267 233.214 83.952 233.466C84.5867 233.709 85.1373 234.059 85.604 234.516C86.08 234.964 86.444 235.491 86.696 236.098C86.9573 236.705 87.088 237.372 87.088 238.1C87.088 238.828 86.9573 239.495 86.696 240.102C86.444 240.709 86.08 241.241 85.604 241.698C85.1373 242.146 84.5867 242.496 83.952 242.748C83.3267 242.991 82.6407 243.112 81.894 243.112ZM81.894 241.866C82.4353 241.866 82.9347 241.773 83.392 241.586C83.8587 241.399 84.26 241.138 84.596 240.802C84.9413 240.457 85.2073 240.055 85.394 239.598C85.59 239.141 85.688 238.641 85.688 238.1C85.688 237.559 85.59 237.059 85.394 236.602C85.2073 236.145 84.9413 235.748 84.596 235.412C84.26 235.067 83.8587 234.801 83.392 234.614C82.9347 234.427 82.4353 234.334 81.894 234.334C81.3433 234.334 80.8347 234.427 80.368 234.614C79.9107 234.801 79.5093 235.067 79.164 235.412C78.8187 235.748 78.548 236.145 78.352 236.602C78.1653 237.059 78.072 237.559 78.072 238.1C78.072 238.641 78.1653 239.141 78.352 239.598C78.548 240.055 78.8187 240.457 79.164 240.802C79.5093 241.138 79.9107 241.399 80.368 241.586C80.8347 241.773 81.3433 241.866 81.894 241.866ZM92.9658 243.084C92.3498 243.084 91.7851 242.944 91.2718 242.664C90.7678 242.375 90.3618 241.95 90.0538 241.39C89.7551 240.83 89.6058 240.13 89.6058 239.29C89.6058 238.45 89.7505 237.75 90.0398 237.19C90.3385 236.63 90.7398 236.21 91.2438 235.93C91.7571 235.65 92.3311 235.51 92.9658 235.51C93.6938 235.51 94.3378 235.669 94.8978 235.986C95.4578 236.303 95.9011 236.747 96.2278 237.316C96.5545 237.876 96.7178 238.534 96.7178 239.29C96.7178 240.046 96.5545 240.709 96.2278 241.278C95.9011 241.847 95.4578 242.291 94.8978 242.608C94.3378 242.925 93.6938 243.084 92.9658 243.084ZM89.0318 245.716V235.58H90.3198V237.582L90.2358 239.304L90.3758 241.026V245.716H89.0318ZM92.8538 241.908C93.3298 241.908 93.7545 241.801 94.1278 241.586C94.5105 241.371 94.8091 241.068 95.0238 240.676C95.2478 240.275 95.3598 239.813 95.3598 239.29C95.3598 238.758 95.2478 238.301 95.0238 237.918C94.8091 237.526 94.5105 237.223 94.1278 237.008C93.7545 236.793 93.3298 236.686 92.8538 236.686C92.3871 236.686 91.9625 236.793 91.5798 237.008C91.2065 237.223 90.9078 237.526 90.6838 237.918C90.4691 238.301 90.3618 238.758 90.3618 239.29C90.3618 239.813 90.4691 240.275 90.6838 240.676C90.9078 241.068 91.2065 241.371 91.5798 241.586C91.9625 241.801 92.3871 241.908 92.8538 241.908ZM101.879 243.084C101.085 243.084 100.385 242.921 99.7788 242.594C99.1814 242.267 98.7148 241.819 98.3788 241.25C98.0521 240.681 97.8888 240.027 97.8888 239.29C97.8888 238.553 98.0474 237.899 98.3648 237.33C98.6914 236.761 99.1348 236.317 99.6948 236C100.264 235.673 100.903 235.51 101.613 235.51C102.331 235.51 102.966 235.669 103.517 235.986C104.067 236.303 104.497 236.751 104.805 237.33C105.122 237.899 105.281 238.567 105.281 239.332C105.281 239.388 105.276 239.453 105.267 239.528C105.267 239.603 105.262 239.673 105.253 239.738H98.9388V238.772H104.553L104.007 239.108C104.016 238.632 103.918 238.207 103.713 237.834C103.507 237.461 103.223 237.171 102.859 236.966C102.504 236.751 102.089 236.644 101.613 236.644C101.146 236.644 100.731 236.751 100.367 236.966C100.003 237.171 99.7181 237.465 99.5128 237.848C99.3074 238.221 99.2048 238.651 99.2048 239.136V239.36C99.2048 239.855 99.3168 240.298 99.5408 240.69C99.7741 241.073 100.096 241.371 100.507 241.586C100.917 241.801 101.389 241.908 101.921 241.908C102.359 241.908 102.756 241.833 103.111 241.684C103.475 241.535 103.792 241.311 104.063 241.012L104.805 241.88C104.469 242.272 104.049 242.571 103.545 242.776C103.05 242.981 102.495 243.084 101.879 243.084ZM107.147 243V235.58H108.435V237.596L108.309 237.092C108.514 236.579 108.86 236.187 109.345 235.916C109.83 235.645 110.428 235.51 111.137 235.51V236.812C111.081 236.803 111.025 236.798 110.969 236.798C110.922 236.798 110.876 236.798 110.829 236.798C110.11 236.798 109.541 237.013 109.121 237.442C108.701 237.871 108.491 238.492 108.491 239.304V243H107.147ZM116.853 243V241.432L116.783 241.138V238.464C116.783 237.895 116.615 237.456 116.279 237.148C115.952 236.831 115.457 236.672 114.795 236.672C114.356 236.672 113.927 236.747 113.507 236.896C113.087 237.036 112.732 237.227 112.443 237.47L111.883 236.462C112.265 236.154 112.723 235.921 113.255 235.762C113.796 235.594 114.361 235.51 114.949 235.51C115.966 235.51 116.75 235.757 117.301 236.252C117.851 236.747 118.127 237.503 118.127 238.52V243H116.853ZM114.417 243.084C113.866 243.084 113.381 242.991 112.961 242.804C112.55 242.617 112.233 242.361 112.009 242.034C111.785 241.698 111.673 241.32 111.673 240.9C111.673 240.499 111.766 240.135 111.953 239.808C112.149 239.481 112.461 239.22 112.891 239.024C113.329 238.828 113.917 238.73 114.655 238.73H117.007V239.696H114.711C114.039 239.696 113.586 239.808 113.353 240.032C113.119 240.256 113.003 240.527 113.003 240.844C113.003 241.208 113.147 241.502 113.437 241.726C113.726 241.941 114.127 242.048 114.641 242.048C115.145 242.048 115.583 241.936 115.957 241.712C116.339 241.488 116.615 241.161 116.783 240.732L117.049 241.656C116.871 242.095 116.559 242.445 116.111 242.706C115.663 242.958 115.098 243.084 114.417 243.084ZM123.162 243.084C122.415 243.084 121.837 242.883 121.426 242.482C121.015 242.081 120.81 241.507 120.81 240.76V233.956H122.154V240.704C122.154 241.105 122.252 241.413 122.448 241.628C122.653 241.843 122.943 241.95 123.316 241.95C123.736 241.95 124.086 241.833 124.366 241.6L124.786 242.566C124.581 242.743 124.333 242.874 124.044 242.958C123.764 243.042 123.47 243.084 123.162 243.084ZM119.55 236.686V235.58H124.282V236.686H119.55ZM129.343 243.084C128.596 243.084 127.933 242.921 127.355 242.594C126.776 242.267 126.319 241.819 125.983 241.25C125.647 240.671 125.479 240.018 125.479 239.29C125.479 238.553 125.647 237.899 125.983 237.33C126.319 236.761 126.776 236.317 127.355 236C127.933 235.673 128.596 235.51 129.343 235.51C130.08 235.51 130.738 235.673 131.317 236C131.905 236.317 132.362 236.761 132.689 237.33C133.025 237.89 133.193 238.543 133.193 239.29C133.193 240.027 133.025 240.681 132.689 241.25C132.362 241.819 131.905 242.267 131.317 242.594C130.738 242.921 130.08 243.084 129.343 243.084ZM129.343 241.908C129.819 241.908 130.243 241.801 130.617 241.586C130.999 241.371 131.298 241.068 131.513 240.676C131.727 240.275 131.835 239.813 131.835 239.29C131.835 238.758 131.727 238.301 131.513 237.918C131.298 237.526 130.999 237.223 130.617 237.008C130.243 236.793 129.819 236.686 129.343 236.686C128.867 236.686 128.442 236.793 128.069 237.008C127.695 237.223 127.397 237.526 127.173 237.918C126.949 238.301 126.837 238.758 126.837 239.29C126.837 239.813 126.949 240.275 127.173 240.676C127.397 241.068 127.695 241.371 128.069 241.586C128.442 241.801 128.867 241.908 129.343 241.908ZM135.051 243V235.58H136.339V237.596L136.213 237.092C136.419 236.579 136.764 236.187 137.249 235.916C137.735 235.645 138.332 235.51 139.041 235.51V236.812C138.985 236.803 138.929 236.798 138.873 236.798C138.827 236.798 138.78 236.798 138.733 236.798C138.015 236.798 137.445 237.013 137.025 237.442C136.605 237.871 136.395 238.492 136.395 239.304V243H135.051ZM142.908 243.084C142.292 243.084 141.704 243 141.144 242.832C140.593 242.664 140.159 242.459 139.842 242.216L140.402 241.152C140.719 241.367 141.111 241.549 141.578 241.698C142.045 241.847 142.521 241.922 143.006 241.922C143.631 241.922 144.079 241.833 144.35 241.656C144.63 241.479 144.77 241.231 144.77 240.914C144.77 240.681 144.686 240.499 144.518 240.368C144.35 240.237 144.126 240.139 143.846 240.074C143.575 240.009 143.272 239.953 142.936 239.906C142.6 239.85 142.264 239.785 141.928 239.71C141.592 239.626 141.284 239.514 141.004 239.374C140.724 239.225 140.5 239.024 140.332 238.772C140.164 238.511 140.08 238.165 140.08 237.736C140.08 237.288 140.206 236.896 140.458 236.56C140.71 236.224 141.065 235.967 141.522 235.79C141.989 235.603 142.539 235.51 143.174 235.51C143.659 235.51 144.149 235.571 144.644 235.692C145.148 235.804 145.559 235.967 145.876 236.182L145.302 237.246C144.966 237.022 144.616 236.868 144.252 236.784C143.888 236.7 143.524 236.658 143.16 236.658C142.572 236.658 142.133 236.756 141.844 236.952C141.555 237.139 141.41 237.381 141.41 237.68C141.41 237.932 141.494 238.128 141.662 238.268C141.839 238.399 142.063 238.501 142.334 238.576C142.614 238.651 142.922 238.716 143.258 238.772C143.594 238.819 143.93 238.884 144.266 238.968C144.602 239.043 144.905 239.15 145.176 239.29C145.456 239.43 145.68 239.626 145.848 239.878C146.025 240.13 146.114 240.466 146.114 240.886C146.114 241.334 145.983 241.721 145.722 242.048C145.461 242.375 145.092 242.631 144.616 242.818C144.14 242.995 143.571 243.084 142.908 243.084Z" fill="#838383"/>
<path d="M80.41 278V258.8L82.51 260.9H76.21V257H85.27V278H80.41ZM97.918 278.36C96.198 278.36 94.658 277.94 93.298 277.1C91.938 276.24 90.868 275 90.088 273.38C89.308 271.76 88.918 269.8 88.918 267.5C88.918 265.2 89.308 263.24 90.088 261.62C90.868 260 91.938 258.77 93.298 257.93C94.658 257.07 96.198 256.64 97.918 256.64C99.658 256.64 101.198 257.07 102.538 257.93C103.898 258.77 104.968 260 105.748 261.62C106.528 263.24 106.918 265.2 106.918 267.5C106.918 269.8 106.528 271.76 105.748 273.38C104.968 275 103.898 276.24 102.538 277.1C101.198 277.94 99.658 278.36 97.918 278.36ZM97.918 274.25C98.738 274.25 99.448 274.02 100.048 273.56C100.668 273.1 101.148 272.37 101.488 271.37C101.848 270.37 102.028 269.08 102.028 267.5C102.028 265.92 101.848 264.63 101.488 263.63C101.148 262.63 100.668 261.9 100.048 261.44C99.448 260.98 98.738 260.75 97.918 260.75C97.118 260.75 96.408 260.98 95.788 261.44C95.188 261.9 94.708 262.63 94.348 263.63C94.008 264.63 93.838 265.92 93.838 267.5C93.838 269.08 94.008 270.37 94.348 271.37C94.708 272.37 95.188 273.1 95.788 273.56C96.408 274.02 97.118 274.25 97.918 274.25ZM118.279 278.36C116.559 278.36 115.019 277.94 113.659 277.1C112.299 276.24 111.229 275 110.449 273.38C109.669 271.76 109.279 269.8 109.279 267.5C109.279 265.2 109.669 263.24 110.449 261.62C111.229 260 112.299 258.77 113.659 257.93C115.019 257.07 116.559 256.64 118.279 256.64C120.019 256.64 121.559 257.07 122.899 257.93C124.259 258.77 125.329 260 126.109 261.62C126.889 263.24 127.279 265.2 127.279 267.5C127.279 269.8 126.889 271.76 126.109 273.38C125.329 275 124.259 276.24 122.899 277.1C121.559 277.94 120.019 278.36 118.279 278.36ZM118.279 274.25C119.099 274.25 119.809 274.02 120.409 273.56C121.029 273.1 121.509 272.37 121.849 271.37C122.209 270.37 122.389 269.08 122.389 267.5C122.389 265.92 122.209 264.63 121.849 263.63C121.509 262.63 121.029 261.9 120.409 261.44C119.809 260.98 119.099 260.75 118.279 260.75C117.479 260.75 116.769 260.98 116.149 261.44C115.549 261.9 115.069 262.63 114.709 263.63C114.369 264.63 114.199 265.92 114.199 267.5C114.199 269.08 114.369 270.37 114.709 271.37C115.069 272.37 115.549 273.1 116.149 273.56C116.769 274.02 117.479 274.25 118.279 274.25ZM135.609 274.43V260.57H139.479V274.43H135.609ZM130.419 269.33V265.67H144.699V269.33H130.419Z" fill="#414141"/>
<g filter="url(#filter2_d_17069_8540)">
<rect x="116" y="3" width="158" height="76" rx="10" fill="white"/>
</g>
<mask id="path-12-inside-3_17069_8540" fill="white">
<path d="M116 13C116 7.47715 120.477 3 126 3V79C120.477 79 116 74.5229 116 69V13Z"/>
</mask>
<path d="M116 13C116 7.47715 120.477 3 126 3V79C120.477 79 116 74.5229 116 69V13Z" fill="#FFCCCC"/>
<path d="M116 3H126H116ZM126 79H116H126ZM116 79V3V79ZM128 3V79H126C125.328 79 124.658 78.9323 124 78.798L124 13V3.20004L124 3.20196C124.658 3.06766 125.328 3 126 3L128 3Z" fill="#810019" mask="url(#path-12-inside-3_17069_8540)"/>
<path d="M141.47 27V17.2H145.6C146.645 17.2 147.565 17.4053 148.358 17.816C149.161 18.2267 149.781 18.8007 150.22 19.538C150.668 20.2753 150.892 21.1293 150.892 22.1C150.892 23.0707 150.668 23.9247 150.22 24.662C149.781 25.3993 149.161 25.9733 148.358 26.384C147.565 26.7947 146.645 27 145.6 27H141.47ZM142.87 25.782H145.516C146.328 25.782 147.028 25.628 147.616 25.32C148.213 25.012 148.675 24.5827 149.002 24.032C149.329 23.472 149.492 22.828 149.492 22.1C149.492 21.3627 149.329 20.7187 149.002 20.168C148.675 19.6173 148.213 19.188 147.616 18.88C147.028 18.572 146.328 18.418 145.516 18.418H142.87V25.782ZM152.84 27V19.58H154.184V27H152.84ZM153.512 18.152C153.251 18.152 153.032 18.068 152.854 17.9C152.686 17.732 152.602 17.5267 152.602 17.284C152.602 17.032 152.686 16.822 152.854 16.654C153.032 16.486 153.251 16.402 153.512 16.402C153.774 16.402 153.988 16.486 154.156 16.654C154.334 16.8127 154.422 17.0133 154.422 17.256C154.422 17.508 154.338 17.7227 154.17 17.9C154.002 18.068 153.783 18.152 153.512 18.152ZM156.751 27V19.58H158.039V21.596L157.913 21.092C158.118 20.5787 158.463 20.1867 158.949 19.916C159.434 19.6453 160.031 19.51 160.741 19.51V20.812C160.685 20.8027 160.629 20.798 160.573 20.798C160.526 20.798 160.479 20.798 160.433 20.798C159.714 20.798 159.145 21.0127 158.725 21.442C158.305 21.8713 158.095 22.492 158.095 23.304V27H156.751ZM165.633 27.084C164.839 27.084 164.139 26.9207 163.533 26.594C162.935 26.2673 162.469 25.8193 162.133 25.25C161.806 24.6807 161.643 24.0273 161.643 23.29C161.643 22.5527 161.801 21.8993 162.119 21.33C162.445 20.7607 162.889 20.3173 163.449 20C164.018 19.6733 164.657 19.51 165.367 19.51C166.085 19.51 166.72 19.6687 167.271 19.986C167.821 20.3033 168.251 20.7513 168.559 21.33C168.876 21.8993 169.035 22.5667 169.035 23.332C169.035 23.388 169.03 23.4533 169.021 23.528C169.021 23.6027 169.016 23.6727 169.007 23.738H162.693V22.772H168.307L167.761 23.108C167.77 22.632 167.672 22.2073 167.467 21.834C167.261 21.4607 166.977 21.1713 166.613 20.966C166.258 20.7513 165.843 20.644 165.367 20.644C164.9 20.644 164.485 20.7513 164.121 20.966C163.757 21.1713 163.472 21.4653 163.267 21.848C163.061 22.2213 162.959 22.6507 162.959 23.136V23.36C162.959 23.8547 163.071 24.298 163.295 24.69C163.528 25.0727 163.85 25.3713 164.261 25.586C164.671 25.8007 165.143 25.908 165.675 25.908C166.113 25.908 166.51 25.8333 166.865 25.684C167.229 25.5347 167.546 25.3107 167.817 25.012L168.559 25.88C168.223 26.272 167.803 26.5707 167.299 26.776C166.804 26.9813 166.249 27.084 165.633 27.084ZM174.135 27.084C173.379 27.084 172.702 26.9207 172.105 26.594C171.517 26.2673 171.055 25.8193 170.719 25.25C170.383 24.6807 170.215 24.0273 170.215 23.29C170.215 22.5527 170.383 21.8993 170.719 21.33C171.055 20.7607 171.517 20.3173 172.105 20C172.702 19.6733 173.379 19.51 174.135 19.51C174.807 19.51 175.404 19.6453 175.927 19.916C176.459 20.1773 176.87 20.5693 177.159 21.092L176.137 21.75C175.894 21.386 175.596 21.12 175.241 20.952C174.896 20.7747 174.522 20.686 174.121 20.686C173.636 20.686 173.202 20.7933 172.819 21.008C172.436 21.2227 172.133 21.526 171.909 21.918C171.685 22.3007 171.573 22.758 171.573 23.29C171.573 23.822 171.685 24.284 171.909 24.676C172.133 25.068 172.436 25.3713 172.819 25.586C173.202 25.8007 173.636 25.908 174.121 25.908C174.522 25.908 174.896 25.824 175.241 25.656C175.596 25.4787 175.894 25.208 176.137 24.844L177.159 25.488C176.87 26.0013 176.459 26.398 175.927 26.678C175.404 26.9487 174.807 27.084 174.135 27.084ZM181.543 27.084C180.796 27.084 180.217 26.8833 179.807 26.482C179.396 26.0807 179.191 25.5067 179.191 24.76V17.956H180.535V24.704C180.535 25.1053 180.633 25.4133 180.829 25.628C181.034 25.8427 181.323 25.95 181.697 25.95C182.117 25.95 182.467 25.8333 182.747 25.6L183.167 26.566C182.961 26.7433 182.714 26.874 182.425 26.958C182.145 27.042 181.851 27.084 181.543 27.084ZM177.931 20.686V19.58H182.663V20.686H177.931ZM184.792 27V19.58H186.136V27H184.792ZM185.464 18.152C185.202 18.152 184.983 18.068 184.806 17.9C184.638 17.732 184.554 17.5267 184.554 17.284C184.554 17.032 184.638 16.822 184.806 16.654C184.983 16.486 185.202 16.402 185.464 16.402C185.725 16.402 185.94 16.486 186.108 16.654C186.285 16.8127 186.374 17.0133 186.374 17.256C186.374 17.508 186.29 17.7227 186.122 17.9C185.954 18.068 185.734 18.152 185.464 18.152ZM191.88 27.084C191.133 27.084 190.47 26.9207 189.892 26.594C189.313 26.2673 188.856 25.8193 188.52 25.25C188.184 24.6713 188.016 24.018 188.016 23.29C188.016 22.5527 188.184 21.8993 188.52 21.33C188.856 20.7607 189.313 20.3173 189.892 20C190.47 19.6733 191.133 19.51 191.88 19.51C192.617 19.51 193.275 19.6733 193.854 20C194.442 20.3173 194.899 20.7607 195.226 21.33C195.562 21.89 195.73 22.5433 195.73 23.29C195.73 24.0273 195.562 24.6807 195.226 25.25C194.899 25.8193 194.442 26.2673 193.854 26.594C193.275 26.9207 192.617 27.084 191.88 27.084ZM191.88 25.908C192.356 25.908 192.78 25.8007 193.154 25.586C193.536 25.3713 193.835 25.068 194.05 24.676C194.264 24.2747 194.372 23.8127 194.372 23.29C194.372 22.758 194.264 22.3007 194.05 21.918C193.835 21.526 193.536 21.2227 193.154 21.008C192.78 20.7933 192.356 20.686 191.88 20.686C191.404 20.686 190.979 20.7933 190.606 21.008C190.232 21.2227 189.934 21.526 189.71 21.918C189.486 22.3007 189.374 22.758 189.374 23.29C189.374 23.8127 189.486 24.2747 189.71 24.676C189.934 25.068 190.232 25.3713 190.606 25.586C190.979 25.8007 191.404 25.908 191.88 25.908ZM201.55 19.51C202.157 19.51 202.689 19.6267 203.146 19.86C203.613 20.0933 203.977 20.448 204.238 20.924C204.5 21.4 204.63 22.002 204.63 22.73V27H203.286V22.884C203.286 22.1653 203.109 21.624 202.754 21.26C202.409 20.896 201.919 20.714 201.284 20.714C200.808 20.714 200.393 20.8073 200.038 20.994C199.684 21.1807 199.408 21.456 199.212 21.82C199.026 22.184 198.932 22.6367 198.932 23.178V27H197.588V19.58H198.876V21.582L198.666 21.05C198.909 20.5647 199.282 20.1867 199.786 19.916C200.29 19.6453 200.878 19.51 201.55 19.51ZM209.246 27.084C208.63 27.084 208.042 27 207.482 26.832C206.931 26.664 206.497 26.4587 206.18 26.216L206.74 25.152C207.057 25.3667 207.449 25.5487 207.916 25.698C208.382 25.8473 208.858 25.922 209.344 25.922C209.969 25.922 210.417 25.8333 210.688 25.656C210.968 25.4787 211.108 25.2313 211.108 24.914C211.108 24.6807 211.024 24.4987 210.856 24.368C210.688 24.2373 210.464 24.1393 210.184 24.074C209.913 24.0087 209.61 23.9527 209.274 23.906C208.938 23.85 208.602 23.7847 208.266 23.71C207.93 23.626 207.622 23.514 207.342 23.374C207.062 23.2247 206.838 23.024 206.67 22.772C206.502 22.5107 206.418 22.1653 206.418 21.736C206.418 21.288 206.544 20.896 206.796 20.56C207.048 20.224 207.402 19.9673 207.86 19.79C208.326 19.6033 208.877 19.51 209.512 19.51C209.997 19.51 210.487 19.5707 210.982 19.692C211.486 19.804 211.896 19.9673 212.214 20.182L211.64 21.246C211.304 21.022 210.954 20.868 210.59 20.784C210.226 20.7 209.862 20.658 209.498 20.658C208.91 20.658 208.471 20.756 208.182 20.952C207.892 21.1387 207.748 21.3813 207.748 21.68C207.748 21.932 207.832 22.128 208 22.268C208.177 22.3987 208.401 22.5013 208.672 22.576C208.952 22.6507 209.26 22.716 209.596 22.772C209.932 22.8187 210.268 22.884 210.604 22.968C210.94 23.0427 211.243 23.15 211.514 23.29C211.794 23.43 212.018 23.626 212.186 23.878C212.363 24.13 212.452 24.466 212.452 24.886C212.452 25.334 212.321 25.7213 212.06 26.048C211.798 26.3747 211.43 26.6313 210.954 26.818C210.478 26.9953 209.908 27.084 209.246 27.084Z" fill="#838383"/>
<path d="M148.31 62.36C146.85 62.36 145.4 62.17 143.96 61.79C142.54 61.39 141.32 60.83 140.3 60.11L142.22 56.39C143.02 56.97 143.94 57.43 144.98 57.77C146.04 58.11 147.11 58.28 148.19 58.28C149.41 58.28 150.37 58.04 151.07 57.56C151.77 57.08 152.12 56.41 152.12 55.55C152.12 55.01 151.98 54.53 151.7 54.11C151.42 53.69 150.92 53.37 150.2 53.15C149.5 52.93 148.51 52.82 147.23 52.82H141.86L142.94 41H155.75V44.9H144.68L147.2 42.68L146.45 51.11L143.93 48.89H148.37C150.45 48.89 152.12 49.18 153.38 49.76C154.66 50.32 155.59 51.09 156.17 52.07C156.75 53.05 157.04 54.16 157.04 55.4C157.04 56.64 156.73 57.79 156.11 58.85C155.49 59.89 154.53 60.74 153.23 61.4C151.95 62.04 150.31 62.36 148.31 62.36Z" fill="#414141"/>
<g filter="url(#filter3_d_17069_8540)">
<rect x="188" y="104" width="158" height="76" rx="10" fill="white"/>
</g>
<mask id="path-17-inside-4_17069_8540" fill="white">
<path d="M188 114C188 108.477 192.477 104 198 104V180C192.477 180 188 175.523 188 170V114Z"/>
</mask>
<path d="M188 114C188 108.477 192.477 104 198 104V180C192.477 180 188 175.523 188 170V114Z" fill="#FFCCCC"/>
<path d="M188 104H198H188ZM198 180H188H198ZM188 180V104V180ZM200 104V180H198C197.328 180 196.658 179.932 196 179.798L196 114V104.2L196 104.202C196.658 104.068 197.328 104 198 104L200 104Z" fill="#810019" mask="url(#path-17-inside-4_17069_8540)"/>
<path d="M216.326 128.112C215.579 128.112 214.865 128 214.184 127.776C213.503 127.543 212.966 127.244 212.574 126.88L213.092 125.788C213.465 126.115 213.941 126.385 214.52 126.6C215.099 126.815 215.701 126.922 216.326 126.922C216.895 126.922 217.357 126.857 217.712 126.726C218.067 126.595 218.328 126.418 218.496 126.194C218.664 125.961 218.748 125.699 218.748 125.41C218.748 125.074 218.636 124.803 218.412 124.598C218.197 124.393 217.913 124.229 217.558 124.108C217.213 123.977 216.83 123.865 216.41 123.772C215.99 123.679 215.565 123.571 215.136 123.45C214.716 123.319 214.329 123.156 213.974 122.96C213.629 122.764 213.349 122.503 213.134 122.176C212.919 121.84 212.812 121.411 212.812 120.888C212.812 120.384 212.943 119.922 213.204 119.502C213.475 119.073 213.885 118.732 214.436 118.48C214.996 118.219 215.705 118.088 216.564 118.088C217.133 118.088 217.698 118.163 218.258 118.312C218.818 118.461 219.303 118.676 219.714 118.956L219.252 120.076C218.832 119.796 218.389 119.595 217.922 119.474C217.455 119.343 217.003 119.278 216.564 119.278C216.013 119.278 215.561 119.348 215.206 119.488C214.851 119.628 214.59 119.815 214.422 120.048C214.263 120.281 214.184 120.543 214.184 120.832C214.184 121.177 214.291 121.453 214.506 121.658C214.73 121.863 215.015 122.027 215.36 122.148C215.715 122.269 216.102 122.381 216.522 122.484C216.942 122.577 217.362 122.685 217.782 122.806C218.211 122.927 218.599 123.086 218.944 123.282C219.299 123.478 219.583 123.739 219.798 124.066C220.013 124.393 220.12 124.813 220.12 125.326C220.12 125.821 219.985 126.283 219.714 126.712C219.443 127.132 219.023 127.473 218.454 127.734C217.894 127.986 217.185 128.112 216.326 128.112ZM225.931 120.51C226.538 120.51 227.07 120.627 227.527 120.86C227.994 121.093 228.358 121.448 228.619 121.924C228.881 122.4 229.011 123.002 229.011 123.73V128H227.667V123.884C227.667 123.165 227.49 122.624 227.135 122.26C226.79 121.896 226.3 121.714 225.665 121.714C225.189 121.714 224.774 121.807 224.419 121.994C224.065 122.181 223.789 122.456 223.593 122.82C223.407 123.184 223.313 123.637 223.313 124.178V128H221.969V117.612H223.313V122.582L223.047 122.05C223.29 121.565 223.663 121.187 224.167 120.916C224.671 120.645 225.259 120.51 225.931 120.51ZM234.677 128.084C233.93 128.084 233.267 127.921 232.689 127.594C232.11 127.267 231.653 126.819 231.317 126.25C230.981 125.671 230.813 125.018 230.813 124.29C230.813 123.553 230.981 122.899 231.317 122.33C231.653 121.761 232.11 121.317 232.689 121C233.267 120.673 233.93 120.51 234.677 120.51C235.414 120.51 236.072 120.673 236.651 121C237.239 121.317 237.696 121.761 238.023 122.33C238.359 122.89 238.527 123.543 238.527 124.29C238.527 125.027 238.359 125.681 238.023 126.25C237.696 126.819 237.239 127.267 236.651 127.594C236.072 127.921 235.414 128.084 234.677 128.084ZM234.677 126.908C235.153 126.908 235.577 126.801 235.951 126.586C236.333 126.371 236.632 126.068 236.847 125.676C237.061 125.275 237.169 124.813 237.169 124.29C237.169 123.758 237.061 123.301 236.847 122.918C236.632 122.526 236.333 122.223 235.951 122.008C235.577 121.793 235.153 121.686 234.677 121.686C234.201 121.686 233.776 121.793 233.403 122.008C233.029 122.223 232.731 122.526 232.507 122.918C232.283 123.301 232.171 123.758 232.171 124.29C232.171 124.813 232.283 125.275 232.507 125.676C232.731 126.068 233.029 126.371 233.403 126.586C233.776 126.801 234.201 126.908 234.677 126.908ZM240.385 128V120.58H241.673V122.596L241.547 122.092C241.753 121.579 242.098 121.187 242.583 120.916C243.069 120.645 243.666 120.51 244.375 120.51V121.812C244.319 121.803 244.263 121.798 244.207 121.798C244.161 121.798 244.114 121.798 244.067 121.798C243.349 121.798 242.779 122.013 242.359 122.442C241.939 122.871 241.729 123.492 241.729 124.304V128H240.385ZM248.881 128.084C248.134 128.084 247.555 127.883 247.145 127.482C246.734 127.081 246.529 126.507 246.529 125.76V118.956H247.873V125.704C247.873 126.105 247.971 126.413 248.167 126.628C248.372 126.843 248.661 126.95 249.035 126.95C249.455 126.95 249.805 126.833 250.085 126.6L250.505 127.566C250.299 127.743 250.052 127.874 249.763 127.958C249.483 128.042 249.189 128.084 248.881 128.084ZM245.269 121.686V120.58H250.001V121.686H245.269ZM255.117 128.084C254.361 128.084 253.685 127.921 253.087 127.594C252.499 127.267 252.037 126.819 251.701 126.25C251.365 125.681 251.197 125.027 251.197 124.29C251.197 123.553 251.365 122.899 251.701 122.33C252.037 121.761 252.499 121.317 253.087 121C253.685 120.673 254.361 120.51 255.117 120.51C255.789 120.51 256.387 120.645 256.909 120.916C257.441 121.177 257.852 121.569 258.141 122.092L257.119 122.75C256.877 122.386 256.578 122.12 256.223 121.952C255.878 121.775 255.505 121.686 255.103 121.686C254.618 121.686 254.184 121.793 253.801 122.008C253.419 122.223 253.115 122.526 252.891 122.918C252.667 123.301 252.555 123.758 252.555 124.29C252.555 124.822 252.667 125.284 252.891 125.676C253.115 126.068 253.419 126.371 253.801 126.586C254.184 126.801 254.618 126.908 255.103 126.908C255.505 126.908 255.878 126.824 256.223 126.656C256.578 126.479 256.877 126.208 257.119 125.844L258.141 126.488C257.852 127.001 257.441 127.398 256.909 127.678C256.387 127.949 255.789 128.084 255.117 128.084ZM263.003 128.084C262.369 128.084 261.809 127.967 261.323 127.734C260.847 127.501 260.474 127.146 260.203 126.67C259.942 126.185 259.811 125.578 259.811 124.85V120.58H261.155V124.696C261.155 125.424 261.328 125.97 261.673 126.334C262.028 126.698 262.523 126.88 263.157 126.88C263.624 126.88 264.03 126.787 264.375 126.6C264.721 126.404 264.987 126.124 265.173 125.76C265.36 125.387 265.453 124.939 265.453 124.416V120.58H266.797V128H265.523V125.998L265.733 126.53C265.491 127.025 265.127 127.407 264.641 127.678C264.156 127.949 263.61 128.084 263.003 128.084ZM271.904 128.084C271.157 128.084 270.579 127.883 270.168 127.482C269.757 127.081 269.552 126.507 269.552 125.76V118.956H270.896V125.704C270.896 126.105 270.994 126.413 271.19 126.628C271.395 126.843 271.685 126.95 272.058 126.95C272.478 126.95 272.828 126.833 273.108 126.6L273.528 127.566C273.323 127.743 273.075 127.874 272.786 127.958C272.506 128.042 272.212 128.084 271.904 128.084ZM268.292 121.686V120.58H273.024V121.686H268.292ZM277.281 128.084C276.665 128.084 276.077 128 275.517 127.832C274.966 127.664 274.532 127.459 274.215 127.216L274.775 126.152C275.092 126.367 275.484 126.549 275.951 126.698C276.418 126.847 276.894 126.922 277.379 126.922C278.004 126.922 278.452 126.833 278.723 126.656C279.003 126.479 279.143 126.231 279.143 125.914C279.143 125.681 279.059 125.499 278.891 125.368C278.723 125.237 278.499 125.139 278.219 125.074C277.948 125.009 277.645 124.953 277.309 124.906C276.973 124.85 276.637 124.785 276.301 124.71C275.965 124.626 275.657 124.514 275.377 124.374C275.097 124.225 274.873 124.024 274.705 123.772C274.537 123.511 274.453 123.165 274.453 122.736C274.453 122.288 274.579 121.896 274.831 121.56C275.083 121.224 275.438 120.967 275.895 120.79C276.362 120.603 276.912 120.51 277.547 120.51C278.032 120.51 278.522 120.571 279.017 120.692C279.521 120.804 279.932 120.967 280.249 121.182L279.675 122.246C279.339 122.022 278.989 121.868 278.625 121.784C278.261 121.7 277.897 121.658 277.533 121.658C276.945 121.658 276.506 121.756 276.217 121.952C275.928 122.139 275.783 122.381 275.783 122.68C275.783 122.932 275.867 123.128 276.035 123.268C276.212 123.399 276.436 123.501 276.707 123.576C276.987 123.651 277.295 123.716 277.631 123.772C277.967 123.819 278.303 123.884 278.639 123.968C278.975 124.043 279.278 124.15 279.549 124.29C279.829 124.43 280.053 124.626 280.221 124.878C280.398 125.13 280.487 125.466 280.487 125.886C280.487 126.334 280.356 126.721 280.095 127.048C279.834 127.375 279.465 127.631 278.989 127.818C278.513 127.995 277.944 128.084 277.281 128.084Z" fill="#838383"/>
<path d="M216.41 163V143.8L218.51 145.9H212.21V142H221.27V163H216.41ZM233.918 163.36C232.198 163.36 230.658 162.94 229.298 162.1C227.938 161.24 226.868 160 226.088 158.38C225.308 156.76 224.918 154.8 224.918 152.5C224.918 150.2 225.308 148.24 226.088 146.62C226.868 145 227.938 143.77 229.298 142.93C230.658 142.07 232.198 141.64 233.918 141.64C235.658 141.64 237.198 142.07 238.538 142.93C239.898 143.77 240.968 145 241.748 146.62C242.528 148.24 242.918 150.2 242.918 152.5C242.918 154.8 242.528 156.76 241.748 158.38C240.968 160 239.898 161.24 238.538 162.1C237.198 162.94 235.658 163.36 233.918 163.36ZM233.918 159.25C234.738 159.25 235.448 159.02 236.048 158.56C236.668 158.1 237.148 157.37 237.488 156.37C237.848 155.37 238.028 154.08 238.028 152.5C238.028 150.92 237.848 149.63 237.488 148.63C237.148 147.63 236.668 146.9 236.048 146.44C235.448 145.98 234.738 145.75 233.918 145.75C233.118 145.75 232.408 145.98 231.788 146.44C231.188 146.9 230.708 147.63 230.348 148.63C230.008 149.63 229.838 150.92 229.838 152.5C229.838 154.08 230.008 155.37 230.348 156.37C230.708 157.37 231.188 158.1 231.788 158.56C232.408 159.02 233.118 159.25 233.918 159.25ZM251.247 159.43V145.57H255.117V159.43H251.247ZM246.057 154.33V150.67H260.337V154.33H246.057Z" fill="#414141"/>
<g filter="url(#filter4_d_17069_8540)">
<rect x="236" y="219" width="158" height="76" rx="10" fill="white"/>
</g>
<mask id="path-22-inside-5_17069_8540" fill="white">
<path d="M236 229C236 223.477 240.477 219 246 219V295C240.477 295 236 290.523 236 285V229Z"/>
</mask>
<path d="M236 229C236 223.477 240.477 219 246 219V295C240.477 295 236 290.523 236 285V229Z" fill="#FFCCCC"/>
<path d="M236 219H246H236ZM246 295H236H246ZM236 295V219V295ZM248 219V295H246C245.328 295 244.658 294.932 244 294.798L244 229V219.2L244 219.202C244.658 219.068 245.328 219 246 219L248 219Z" fill="#810019" mask="url(#path-22-inside-5_17069_8540)"/>
<path d="M261.47 243V233.2H265.866C266.995 233.2 267.863 233.429 268.47 233.886C269.077 234.334 269.38 234.95 269.38 235.734C269.38 236.266 269.259 236.714 269.016 237.078C268.783 237.442 268.465 237.722 268.064 237.918C267.663 238.114 267.229 238.212 266.762 238.212L267.014 237.792C267.574 237.792 268.069 237.89 268.498 238.086C268.927 238.282 269.268 238.571 269.52 238.954C269.772 239.327 269.898 239.794 269.898 240.354C269.898 241.194 269.581 241.847 268.946 242.314C268.321 242.771 267.387 243 266.146 243H261.47ZM262.87 241.866H266.09C266.865 241.866 267.457 241.735 267.868 241.474C268.279 241.213 268.484 240.802 268.484 240.242C268.484 239.673 268.279 239.257 267.868 238.996C267.457 238.735 266.865 238.604 266.09 238.604H262.744V237.47H265.74C266.449 237.47 267 237.339 267.392 237.078C267.784 236.817 267.98 236.425 267.98 235.902C267.98 235.379 267.784 234.987 267.392 234.726C267 234.465 266.449 234.334 265.74 234.334H262.87V241.866ZM271.87 243V235.58H273.158V237.596L273.032 237.092C273.237 236.579 273.582 236.187 274.068 235.916C274.553 235.645 275.15 235.51 275.86 235.51V236.812C275.804 236.803 275.748 236.798 275.692 236.798C275.645 236.798 275.598 236.798 275.552 236.798C274.833 236.798 274.264 237.013 273.844 237.442C273.424 237.871 273.214 238.492 273.214 239.304V243H271.87ZM281.575 243V241.432L281.505 241.138V238.464C281.505 237.895 281.337 237.456 281.001 237.148C280.675 236.831 280.18 236.672 279.517 236.672C279.079 236.672 278.649 236.747 278.229 236.896C277.809 237.036 277.455 237.227 277.165 237.47L276.605 236.462C276.988 236.154 277.445 235.921 277.977 235.762C278.519 235.594 279.083 235.51 279.671 235.51C280.689 235.51 281.473 235.757 282.023 236.252C282.574 236.747 282.849 237.503 282.849 238.52V243H281.575ZM279.139 243.084C278.589 243.084 278.103 242.991 277.683 242.804C277.273 242.617 276.955 242.361 276.731 242.034C276.507 241.698 276.395 241.32 276.395 240.9C276.395 240.499 276.489 240.135 276.675 239.808C276.871 239.481 277.184 239.22 277.613 239.024C278.052 238.828 278.64 238.73 279.377 238.73H281.729V239.696H279.433C278.761 239.696 278.309 239.808 278.075 240.032C277.842 240.256 277.725 240.527 277.725 240.844C277.725 241.208 277.87 241.502 278.159 241.726C278.449 241.941 278.85 242.048 279.363 242.048C279.867 242.048 280.306 241.936 280.679 241.712C281.062 241.488 281.337 241.161 281.505 240.732L281.771 241.656C281.594 242.095 281.281 242.445 280.833 242.706C280.385 242.958 279.821 243.084 279.139 243.084ZM289.299 235.51C289.905 235.51 290.437 235.627 290.895 235.86C291.361 236.093 291.725 236.448 291.987 236.924C292.248 237.4 292.379 238.002 292.379 238.73V243H291.035V238.884C291.035 238.165 290.857 237.624 290.503 237.26C290.157 236.896 289.667 236.714 289.033 236.714C288.557 236.714 288.141 236.807 287.787 236.994C287.432 237.181 287.157 237.456 286.961 237.82C286.774 238.184 286.681 238.637 286.681 239.178V243H285.337V235.58H286.625V237.582L286.415 237.05C286.657 236.565 287.031 236.187 287.535 235.916C288.039 235.645 288.627 235.51 289.299 235.51ZM298.1 243.084C297.344 243.084 296.667 242.921 296.07 242.594C295.482 242.267 295.02 241.819 294.684 241.25C294.348 240.681 294.18 240.027 294.18 239.29C294.18 238.553 294.348 237.899 294.684 237.33C295.02 236.761 295.482 236.317 296.07 236C296.667 235.673 297.344 235.51 298.1 235.51C298.772 235.51 299.369 235.645 299.892 235.916C300.424 236.177 300.834 236.569 301.124 237.092L300.102 237.75C299.859 237.386 299.56 237.12 299.206 236.952C298.86 236.775 298.487 236.686 298.086 236.686C297.6 236.686 297.166 236.793 296.784 237.008C296.401 237.223 296.098 237.526 295.874 237.918C295.65 238.301 295.538 238.758 295.538 239.29C295.538 239.822 295.65 240.284 295.874 240.676C296.098 241.068 296.401 241.371 296.784 241.586C297.166 241.801 297.6 241.908 298.086 241.908C298.487 241.908 298.86 241.824 299.206 241.656C299.56 241.479 299.859 241.208 300.102 240.844L301.124 241.488C300.834 242.001 300.424 242.398 299.892 242.678C299.369 242.949 298.772 243.084 298.1 243.084ZM306.73 235.51C307.337 235.51 307.869 235.627 308.326 235.86C308.793 236.093 309.157 236.448 309.418 236.924C309.679 237.4 309.81 238.002 309.81 238.73V243H308.466V238.884C308.466 238.165 308.289 237.624 307.934 237.26C307.589 236.896 307.099 236.714 306.464 236.714C305.988 236.714 305.573 236.807 305.218 236.994C304.863 237.181 304.588 237.456 304.392 237.82C304.205 238.184 304.112 238.637 304.112 239.178V243H302.768V232.612H304.112V237.582L303.846 237.05C304.089 236.565 304.462 236.187 304.966 235.916C305.47 235.645 306.058 235.51 306.73 235.51ZM315.601 243.084C314.808 243.084 314.108 242.921 313.501 242.594C312.904 242.267 312.437 241.819 312.101 241.25C311.775 240.681 311.611 240.027 311.611 239.29C311.611 238.553 311.77 237.899 312.087 237.33C312.414 236.761 312.857 236.317 313.417 236C313.987 235.673 314.626 235.51 315.335 235.51C316.054 235.51 316.689 235.669 317.239 235.986C317.79 236.303 318.219 236.751 318.527 237.33C318.845 237.899 319.003 238.567 319.003 239.332C319.003 239.388 318.999 239.453 318.989 239.528C318.989 239.603 318.985 239.673 318.975 239.738H312.661V238.772H318.275L317.729 239.108C317.739 238.632 317.641 238.207 317.435 237.834C317.23 237.461 316.945 237.171 316.581 236.966C316.227 236.751 315.811 236.644 315.335 236.644C314.869 236.644 314.453 236.751 314.089 236.966C313.725 237.171 313.441 237.465 313.235 237.848C313.03 238.221 312.927 238.651 312.927 239.136V239.36C312.927 239.855 313.039 240.298 313.263 240.69C313.497 241.073 313.819 241.371 314.229 241.586C314.64 241.801 315.111 241.908 315.643 241.908C316.082 241.908 316.479 241.833 316.833 241.684C317.197 241.535 317.515 241.311 317.785 241.012L318.527 241.88C318.191 242.272 317.771 242.571 317.267 242.776C316.773 242.981 316.217 243.084 315.601 243.084ZM322.998 243.084C322.382 243.084 321.794 243 321.234 242.832C320.683 242.664 320.249 242.459 319.932 242.216L320.492 241.152C320.809 241.367 321.201 241.549 321.668 241.698C322.134 241.847 322.61 241.922 323.096 241.922C323.721 241.922 324.169 241.833 324.44 241.656C324.72 241.479 324.86 241.231 324.86 240.914C324.86 240.681 324.776 240.499 324.608 240.368C324.44 240.237 324.216 240.139 323.936 240.074C323.665 240.009 323.362 239.953 323.026 239.906C322.69 239.85 322.354 239.785 322.018 239.71C321.682 239.626 321.374 239.514 321.094 239.374C320.814 239.225 320.59 239.024 320.422 238.772C320.254 238.511 320.17 238.165 320.17 237.736C320.17 237.288 320.296 236.896 320.548 236.56C320.8 236.224 321.154 235.967 321.612 235.79C322.078 235.603 322.629 235.51 323.264 235.51C323.749 235.51 324.239 235.571 324.734 235.692C325.238 235.804 325.648 235.967 325.966 236.182L325.392 237.246C325.056 237.022 324.706 236.868 324.342 236.784C323.978 236.7 323.614 236.658 323.25 236.658C322.662 236.658 322.223 236.756 321.934 236.952C321.644 237.139 321.5 237.381 321.5 237.68C321.5 237.932 321.584 238.128 321.752 238.268C321.929 238.399 322.153 238.501 322.424 238.576C322.704 238.651 323.012 238.716 323.348 238.772C323.684 238.819 324.02 238.884 324.356 238.968C324.692 239.043 324.995 239.15 325.266 239.29C325.546 239.43 325.77 239.626 325.938 239.878C326.115 240.13 326.204 240.466 326.204 240.886C326.204 241.334 326.073 241.721 325.812 242.048C325.55 242.375 325.182 242.631 324.706 242.818C324.23 242.995 323.66 243.084 322.998 243.084Z" fill="#838383"/>
<path d="M264.41 278V258.8L266.51 260.9H260.21V257H269.27V278H264.41ZM281.918 278.36C280.198 278.36 278.658 277.94 277.298 277.1C275.938 276.24 274.868 275 274.088 273.38C273.308 271.76 272.918 269.8 272.918 267.5C272.918 265.2 273.308 263.24 274.088 261.62C274.868 260 275.938 258.77 277.298 257.93C278.658 257.07 280.198 256.64 281.918 256.64C283.658 256.64 285.198 257.07 286.538 257.93C287.898 258.77 288.968 260 289.748 261.62C290.528 263.24 290.918 265.2 290.918 267.5C290.918 269.8 290.528 271.76 289.748 273.38C288.968 275 287.898 276.24 286.538 277.1C285.198 277.94 283.658 278.36 281.918 278.36ZM281.918 274.25C282.738 274.25 283.448 274.02 284.048 273.56C284.668 273.1 285.148 272.37 285.488 271.37C285.848 270.37 286.028 269.08 286.028 267.5C286.028 265.92 285.848 264.63 285.488 263.63C285.148 262.63 284.668 261.9 284.048 261.44C283.448 260.98 282.738 260.75 281.918 260.75C281.118 260.75 280.408 260.98 279.788 261.44C279.188 261.9 278.708 262.63 278.348 263.63C278.008 264.63 277.838 265.92 277.838 267.5C277.838 269.08 278.008 270.37 278.348 271.37C278.708 272.37 279.188 273.1 279.788 273.56C280.408 274.02 281.118 274.25 281.918 274.25ZM302.279 278.36C300.559 278.36 299.019 277.94 297.659 277.1C296.299 276.24 295.229 275 294.449 273.38C293.669 271.76 293.279 269.8 293.279 267.5C293.279 265.2 293.669 263.24 294.449 261.62C295.229 260 296.299 258.77 297.659 257.93C299.019 257.07 300.559 256.64 302.279 256.64C304.019 256.64 305.559 257.07 306.899 257.93C308.259 258.77 309.329 260 310.109 261.62C310.889 263.24 311.279 265.2 311.279 267.5C311.279 269.8 310.889 271.76 310.109 273.38C309.329 275 308.259 276.24 306.899 277.1C305.559 277.94 304.019 278.36 302.279 278.36ZM302.279 274.25C303.099 274.25 303.809 274.02 304.409 273.56C305.029 273.1 305.509 272.37 305.849 271.37C306.209 270.37 306.389 269.08 306.389 267.5C306.389 265.92 306.209 264.63 305.849 263.63C305.509 262.63 305.029 261.9 304.409 261.44C303.809 260.98 303.099 260.75 302.279 260.75C301.479 260.75 300.769 260.98 300.149 261.44C299.549 261.9 299.069 262.63 298.709 263.63C298.369 264.63 298.199 265.92 298.199 267.5C298.199 269.08 298.369 270.37 298.709 271.37C299.069 272.37 299.549 273.1 300.149 273.56C300.769 274.02 301.479 274.25 302.279 274.25ZM319.609 274.43V260.57H323.479V274.43H319.609ZM314.419 269.33V265.67H328.699V269.33H314.419Z" fill="#414141"/>
<g filter="url(#filter5_d_17069_8540)">
<rect x="300" y="3" width="158" height="76" rx="10" fill="white"/>
</g>
<mask id="path-27-inside-6_17069_8540" fill="white">
<path d="M300 13C300 7.47715 304.477 3 310 3V79C304.477 79 300 74.5229 300 69V13Z"/>
</mask>
<path d="M300 13C300 7.47715 304.477 3 310 3V79C304.477 79 300 74.5229 300 69V13Z" fill="#FFCCCC"/>
<path d="M300 3H310H300ZM310 79H300H310ZM300 79V3V79ZM312 3V79H310C309.328 79 308.658 78.9323 308 78.798L308 13V3.20004L308 3.20196C308.658 3.06766 309.328 3 310 3L312 3Z" fill="#810019" mask="url(#path-27-inside-6_17069_8540)"/>
<path d="M325.47 27V17.2H326.618L331.014 24.606H330.398L334.738 17.2H335.886L335.9 27H334.556L334.542 19.314H334.864L331 25.81H330.356L326.464 19.314H326.814V27H325.47ZM341.949 27.084C341.156 27.084 340.456 26.9207 339.849 26.594C339.252 26.2673 338.785 25.8193 338.449 25.25C338.122 24.6807 337.959 24.0273 337.959 23.29C337.959 22.5527 338.118 21.8993 338.435 21.33C338.762 20.7607 339.205 20.3173 339.765 20C340.334 19.6733 340.974 19.51 341.683 19.51C342.402 19.51 343.036 19.6687 343.587 19.986C344.138 20.3033 344.567 20.7513 344.875 21.33C345.192 21.8993 345.351 22.5667 345.351 23.332C345.351 23.388 345.346 23.4533 345.337 23.528C345.337 23.6027 345.332 23.6727 345.323 23.738H339.009V22.772H344.623L344.077 23.108C344.086 22.632 343.988 22.2073 343.783 21.834C343.578 21.4607 343.293 21.1713 342.929 20.966C342.574 20.7513 342.159 20.644 341.683 20.644C341.216 20.644 340.801 20.7513 340.437 20.966C340.073 21.1713 339.788 21.4653 339.583 21.848C339.378 22.2213 339.275 22.6507 339.275 23.136V23.36C339.275 23.8547 339.387 24.298 339.611 24.69C339.844 25.0727 340.166 25.3713 340.577 25.586C340.988 25.8007 341.459 25.908 341.991 25.908C342.43 25.908 342.826 25.8333 343.181 25.684C343.545 25.5347 343.862 25.3107 344.133 25.012L344.875 25.88C344.539 26.272 344.119 26.5707 343.615 26.776C343.12 26.9813 342.565 27.084 341.949 27.084ZM351.179 19.51C351.786 19.51 352.318 19.6267 352.775 19.86C353.242 20.0933 353.606 20.448 353.867 20.924C354.129 21.4 354.259 22.002 354.259 22.73V27H352.915V22.884C352.915 22.1653 352.738 21.624 352.383 21.26C352.038 20.896 351.548 20.714 350.913 20.714C350.437 20.714 350.022 20.8073 349.667 20.994C349.313 21.1807 349.037 21.456 348.841 21.82C348.655 22.184 348.561 22.6367 348.561 23.178V27H347.217V19.58H348.505V21.582L348.295 21.05C348.538 20.5647 348.911 20.1867 349.415 19.916C349.919 19.6453 350.507 19.51 351.179 19.51ZM359.869 27.084C359.234 27.084 358.674 26.9673 358.189 26.734C357.713 26.5007 357.339 26.146 357.069 25.67C356.807 25.1847 356.677 24.578 356.677 23.85V19.58H358.021V23.696C358.021 24.424 358.193 24.97 358.539 25.334C358.893 25.698 359.388 25.88 360.023 25.88C360.489 25.88 360.895 25.7867 361.241 25.6C361.586 25.404 361.852 25.124 362.039 24.76C362.225 24.3867 362.319 23.9387 362.319 23.416V19.58H363.663V27H362.389V24.998L362.599 25.53C362.356 26.0247 361.992 26.4073 361.507 26.678C361.021 26.9487 360.475 27.084 359.869 27.084ZM368.349 27.084C367.733 27.084 367.145 27 366.585 26.832C366.035 26.664 365.601 26.4587 365.283 26.216L365.843 25.152C366.161 25.3667 366.553 25.5487 367.019 25.698C367.486 25.8473 367.962 25.922 368.447 25.922C369.073 25.922 369.521 25.8333 369.791 25.656C370.071 25.4787 370.211 25.2313 370.211 24.914C370.211 24.6807 370.127 24.4987 369.959 24.368C369.791 24.2373 369.567 24.1393 369.287 24.074C369.017 24.0087 368.713 23.9527 368.377 23.906C368.041 23.85 367.705 23.7847 367.369 23.71C367.033 23.626 366.725 23.514 366.445 23.374C366.165 23.2247 365.941 23.024 365.773 22.772C365.605 22.5107 365.521 22.1653 365.521 21.736C365.521 21.288 365.647 20.896 365.899 20.56C366.151 20.224 366.506 19.9673 366.963 19.79C367.43 19.6033 367.981 19.51 368.615 19.51C369.101 19.51 369.591 19.5707 370.085 19.692C370.589 19.804 371 19.9673 371.317 20.182L370.743 21.246C370.407 21.022 370.057 20.868 369.693 20.784C369.329 20.7 368.965 20.658 368.601 20.658C368.013 20.658 367.575 20.756 367.285 20.952C366.996 21.1387 366.851 21.3813 366.851 21.68C366.851 21.932 366.935 22.128 367.103 22.268C367.281 22.3987 367.505 22.5013 367.775 22.576C368.055 22.6507 368.363 22.716 368.699 22.772C369.035 22.8187 369.371 22.884 369.707 22.968C370.043 23.0427 370.347 23.15 370.617 23.29C370.897 23.43 371.121 23.626 371.289 23.878C371.467 24.13 371.555 24.466 371.555 24.886C371.555 25.334 371.425 25.7213 371.163 26.048C370.902 26.3747 370.533 26.6313 370.057 26.818C369.581 26.9953 369.012 27.084 368.349 27.084Z" fill="#838383"/>
<path d="M328.41 62V42.8L330.51 44.9H324.21V41H333.27V62H328.41ZM345.918 62.36C344.198 62.36 342.658 61.94 341.298 61.1C339.938 60.24 338.868 59 338.088 57.38C337.308 55.76 336.918 53.8 336.918 51.5C336.918 49.2 337.308 47.24 338.088 45.62C338.868 44 339.938 42.77 341.298 41.93C342.658 41.07 344.198 40.64 345.918 40.64C347.658 40.64 349.198 41.07 350.538 41.93C351.898 42.77 352.968 44 353.748 45.62C354.528 47.24 354.918 49.2 354.918 51.5C354.918 53.8 354.528 55.76 353.748 57.38C352.968 59 351.898 60.24 350.538 61.1C349.198 61.94 347.658 62.36 345.918 62.36ZM345.918 58.25C346.738 58.25 347.448 58.02 348.048 57.56C348.668 57.1 349.148 56.37 349.488 55.37C349.848 54.37 350.028 53.08 350.028 51.5C350.028 49.92 349.848 48.63 349.488 47.63C349.148 46.63 348.668 45.9 348.048 45.44C347.448 44.98 346.738 44.75 345.918 44.75C345.118 44.75 344.408 44.98 343.788 45.44C343.188 45.9 342.708 46.63 342.348 47.63C342.008 48.63 341.838 49.92 341.838 51.5C341.838 53.08 342.008 54.37 342.348 55.37C342.708 56.37 343.188 57.1 343.788 57.56C344.408 58.02 345.118 58.25 345.918 58.25ZM363.247 58.43V44.57H367.117V58.43H363.247ZM358.057 53.33V49.67H372.337V53.33H358.057Z" fill="#414141"/>
<g filter="url(#filter6_d_17069_8540)">
<rect x="372" y="104" width="158" height="76" rx="10" fill="white"/>
</g>
<mask id="path-32-inside-7_17069_8540" fill="white">
<path d="M372 114C372 108.477 376.477 104 382 104V180C376.477 180 372 175.523 372 170V114Z"/>
</mask>
<path d="M372 114C372 108.477 376.477 104 382 104V180C376.477 180 372 175.523 372 170V114Z" fill="#FFCCCC"/>
<path d="M372 104H382H372ZM382 180H372H382ZM372 180V104V180ZM384 104V180H382C381.328 180 380.658 179.932 380 179.798L380 114V104.2L380 104.202C380.658 104.068 381.328 104 382 104L384 104Z" fill="#810019" mask="url(#path-32-inside-7_17069_8540)"/>
<path d="M399.416 128V119.418H396.056V118.2H404.162V119.418H400.802V128H399.416ZM408.029 128.084C407.236 128.084 406.536 127.921 405.929 127.594C405.332 127.267 404.865 126.819 404.529 126.25C404.203 125.681 404.039 125.027 404.039 124.29C404.039 123.553 404.198 122.899 404.515 122.33C404.842 121.761 405.285 121.317 405.845 121C406.415 120.673 407.054 120.51 407.763 120.51C408.482 120.51 409.117 120.669 409.667 120.986C410.218 121.303 410.647 121.751 410.955 122.33C411.273 122.899 411.431 123.567 411.431 124.332C411.431 124.388 411.427 124.453 411.417 124.528C411.417 124.603 411.413 124.673 411.403 124.738H405.089V123.772H410.703L410.157 124.108C410.167 123.632 410.069 123.207 409.863 122.834C409.658 122.461 409.373 122.171 409.009 121.966C408.655 121.751 408.239 121.644 407.763 121.644C407.297 121.644 406.881 121.751 406.517 121.966C406.153 122.171 405.869 122.465 405.663 122.848C405.458 123.221 405.355 123.651 405.355 124.136V124.36C405.355 124.855 405.467 125.298 405.691 125.69C405.925 126.073 406.247 126.371 406.657 126.586C407.068 126.801 407.539 126.908 408.071 126.908C408.51 126.908 408.907 126.833 409.261 126.684C409.625 126.535 409.943 126.311 410.213 126.012L410.955 126.88C410.619 127.272 410.199 127.571 409.695 127.776C409.201 127.981 408.645 128.084 408.029 128.084ZM413.297 128V117.612H414.641V128H413.297ZM417.208 128V117.612H418.552V128H417.208ZM424.422 128.084C423.628 128.084 422.928 127.921 422.322 127.594C421.724 127.267 421.258 126.819 420.922 126.25C420.595 125.681 420.432 125.027 420.432 124.29C420.432 123.553 420.59 122.899 420.908 122.33C421.234 121.761 421.678 121.317 422.238 121C422.807 120.673 423.446 120.51 424.156 120.51C424.874 120.51 425.509 120.669 426.06 120.986C426.61 121.303 427.04 121.751 427.348 122.33C427.665 122.899 427.824 123.567 427.824 124.332C427.824 124.388 427.819 124.453 427.81 124.528C427.81 124.603 427.805 124.673 427.796 124.738H421.482V123.772H427.096L426.55 124.108C426.559 123.632 426.461 123.207 426.256 122.834C426.05 122.461 425.766 122.171 425.402 121.966C425.047 121.751 424.632 121.644 424.156 121.644C423.689 121.644 423.274 121.751 422.91 121.966C422.546 122.171 422.261 122.465 422.056 122.848C421.85 123.221 421.748 123.651 421.748 124.136V124.36C421.748 124.855 421.86 125.298 422.084 125.69C422.317 126.073 422.639 126.371 423.05 126.586C423.46 126.801 423.932 126.908 424.464 126.908C424.902 126.908 425.299 126.833 425.654 126.684C426.018 126.535 426.335 126.311 426.606 126.012L427.348 126.88C427.012 127.272 426.592 127.571 426.088 127.776C425.593 127.981 425.038 128.084 424.422 128.084ZM429.69 128V120.58H430.978V122.596L430.852 122.092C431.057 121.579 431.403 121.187 431.888 120.916C432.373 120.645 432.971 120.51 433.68 120.51V121.812C433.624 121.803 433.568 121.798 433.512 121.798C433.465 121.798 433.419 121.798 433.372 121.798C432.653 121.798 432.084 122.013 431.664 122.442C431.244 122.871 431.034 123.492 431.034 124.304V128H429.69ZM437.547 128.084C436.931 128.084 436.343 128 435.783 127.832C435.232 127.664 434.798 127.459 434.481 127.216L435.041 126.152C435.358 126.367 435.75 126.549 436.217 126.698C436.683 126.847 437.159 126.922 437.645 126.922C438.27 126.922 438.718 126.833 438.989 126.656C439.269 126.479 439.409 126.231 439.409 125.914C439.409 125.681 439.325 125.499 439.157 125.368C438.989 125.237 438.765 125.139 438.485 125.074C438.214 125.009 437.911 124.953 437.575 124.906C437.239 124.85 436.903 124.785 436.567 124.71C436.231 124.626 435.923 124.514 435.643 124.374C435.363 124.225 435.139 124.024 434.971 123.772C434.803 123.511 434.719 123.165 434.719 122.736C434.719 122.288 434.845 121.896 435.097 121.56C435.349 121.224 435.703 120.967 436.161 120.79C436.627 120.603 437.178 120.51 437.813 120.51C438.298 120.51 438.788 120.571 439.283 120.692C439.787 120.804 440.197 120.967 440.515 121.182L439.941 122.246C439.605 122.022 439.255 121.868 438.891 121.784C438.527 121.7 438.163 121.658 437.799 121.658C437.211 121.658 436.772 121.756 436.483 121.952C436.193 122.139 436.049 122.381 436.049 122.68C436.049 122.932 436.133 123.128 436.301 123.268C436.478 123.399 436.702 123.501 436.973 123.576C437.253 123.651 437.561 123.716 437.897 123.772C438.233 123.819 438.569 123.884 438.905 123.968C439.241 124.043 439.544 124.15 439.815 124.29C440.095 124.43 440.319 124.626 440.487 124.878C440.664 125.13 440.753 125.466 440.753 125.886C440.753 126.334 440.622 126.721 440.361 127.048C440.099 127.375 439.731 127.631 439.255 127.818C438.779 127.995 438.209 128.084 437.547 128.084Z" fill="#838383"/>
<path d="M400.41 163V143.8L402.51 145.9H396.21V142H405.27V163H400.41ZM417.918 163.36C416.198 163.36 414.658 162.94 413.298 162.1C411.938 161.24 410.868 160 410.088 158.38C409.308 156.76 408.918 154.8 408.918 152.5C408.918 150.2 409.308 148.24 410.088 146.62C410.868 145 411.938 143.77 413.298 142.93C414.658 142.07 416.198 141.64 417.918 141.64C419.658 141.64 421.198 142.07 422.538 142.93C423.898 143.77 424.968 145 425.748 146.62C426.528 148.24 426.918 150.2 426.918 152.5C426.918 154.8 426.528 156.76 425.748 158.38C424.968 160 423.898 161.24 422.538 162.1C421.198 162.94 419.658 163.36 417.918 163.36ZM417.918 159.25C418.738 159.25 419.448 159.02 420.048 158.56C420.668 158.1 421.148 157.37 421.488 156.37C421.848 155.37 422.028 154.08 422.028 152.5C422.028 150.92 421.848 149.63 421.488 148.63C421.148 147.63 420.668 146.9 420.048 146.44C419.448 145.98 418.738 145.75 417.918 145.75C417.118 145.75 416.408 145.98 415.788 146.44C415.188 146.9 414.708 147.63 414.348 148.63C414.008 149.63 413.838 150.92 413.838 152.5C413.838 154.08 414.008 155.37 414.348 156.37C414.708 157.37 415.188 158.1 415.788 158.56C416.408 159.02 417.118 159.25 417.918 159.25ZM438.279 163.36C436.559 163.36 435.019 162.94 433.659 162.1C432.299 161.24 431.229 160 430.449 158.38C429.669 156.76 429.279 154.8 429.279 152.5C429.279 150.2 429.669 148.24 430.449 146.62C431.229 145 432.299 143.77 433.659 142.93C435.019 142.07 436.559 141.64 438.279 141.64C440.019 141.64 441.559 142.07 442.899 142.93C444.259 143.77 445.329 145 446.109 146.62C446.889 148.24 447.279 150.2 447.279 152.5C447.279 154.8 446.889 156.76 446.109 158.38C445.329 160 444.259 161.24 442.899 162.1C441.559 162.94 440.019 163.36 438.279 163.36ZM438.279 159.25C439.099 159.25 439.809 159.02 440.409 158.56C441.029 158.1 441.509 157.37 441.849 156.37C442.209 155.37 442.389 154.08 442.389 152.5C442.389 150.92 442.209 149.63 441.849 148.63C441.509 147.63 441.029 146.9 440.409 146.44C439.809 145.98 439.099 145.75 438.279 145.75C437.479 145.75 436.769 145.98 436.149 146.44C435.549 146.9 435.069 147.63 434.709 148.63C434.369 149.63 434.199 150.92 434.199 152.5C434.199 154.08 434.369 155.37 434.709 156.37C435.069 157.37 435.549 158.1 436.149 158.56C436.769 159.02 437.479 159.25 438.279 159.25ZM455.609 159.43V145.57H459.479V159.43H455.609ZM450.419 154.33V150.67H464.699V154.33H450.419Z" fill="#414141"/>
<defs>
<filter id="filter0_d_17069_8540" x="0" y="101" width="166" height="84" filterUnits="userSpaceOnUse" color-interpolation-filters="sRGB">
<feFlood flood-opacity="0" result="BackgroundImageFix"/>
<feColorMatrix in="SourceAlpha" type="matrix" values="0 0 0 0 0 0 0 0 0 0 0 0 0 0 0 0 0 0 127 0" result="hardAlpha"/>
<feOffset dy="1"/>
<feGaussianBlur stdDeviation="2"/>
<feComposite in2="hardAlpha" operator="out"/>
<feColorMatrix type="matrix" values="0 0 0 0 0 0 0 0 0 0 0 0 0 0 0 0 0 0 0.25 0"/>
<feBlend mode="normal" in2="BackgroundImageFix" result="effect1_dropShadow_17069_8540"/>
<feBlend mode="normal" in="SourceGraphic" in2="effect1_dropShadow_17069_8540" result="shape"/>
</filter>
<filter id="filter1_d_17069_8540" x="48" y="216" width="166" height="84" filterUnits="userSpaceOnUse" color-interpolation-filters="sRGB">
<feFlood flood-opacity="0" result="BackgroundImageFix"/>
<feColorMatrix in="SourceAlpha" type="matrix" values="0 0 0 0 0 0 0 0 0 0 0 0 0 0 0 0 0 0 127 0" result="hardAlpha"/>
<feOffset dy="1"/>
<feGaussianBlur stdDeviation="2"/>
<feComposite in2="hardAlpha" operator="out"/>
<feColorMatrix type="matrix" values="0 0 0 0 0 0 0 0 0 0 0 0 0 0 0 0 0 0 0.25 0"/>
<feBlend mode="normal" in2="BackgroundImageFix" result="effect1_dropShadow_17069_8540"/>
<feBlend mode="normal" in="SourceGraphic" in2="effect1_dropShadow_17069_8540" result="shape"/>
</filter>
<filter id="filter2_d_17069_8540" x="112" y="0" width="166" height="84" filterUnits="userSpaceOnUse" color-interpolation-filters="sRGB">
<feFlood flood-opacity="0" result="BackgroundImageFix"/>
<feColorMatrix in="SourceAlpha" type="matrix" values="0 0 0 0 0 0 0 0 0 0 0 0 0 0 0 0 0 0 127 0" result="hardAlpha"/>
<feOffset dy="1"/>
<feGaussianBlur stdDeviation="2"/>
<feComposite in2="hardAlpha" operator="out"/>
<feColorMatrix type="matrix" values="0 0 0 0 0 0 0 0 0 0 0 0 0 0 0 0 0 0 0.25 0"/>
<feBlend mode="normal" in2="BackgroundImageFix" result="effect1_dropShadow_17069_8540"/>
<feBlend mode="normal" in="SourceGraphic" in2="effect1_dropShadow_17069_8540" result="shape"/>
</filter>
<filter id="filter3_d_17069_8540" x="184" y="101" width="166" height="84" filterUnits="userSpaceOnUse" color-interpolation-filters="sRGB">
<feFlood flood-opacity="0" result="BackgroundImageFix"/>
<feColorMatrix in="SourceAlpha" type="matrix" values="0 0 0 0 0 0 0 0 0 0 0 0 0 0 0 0 0 0 127 0" result="hardAlpha"/>
<feOffset dy="1"/>
<feGaussianBlur stdDeviation="2"/>
<feComposite in2="hardAlpha" operator="out"/>
<feColorMatrix type="matrix" values="0 0 0 0 0 0 0 0 0 0 0 0 0 0 0 0 0 0 0.25 0"/>
<feBlend mode="normal" in2="BackgroundImageFix" result="effect1_dropShadow_17069_8540"/>
<feBlend mode="normal" in="SourceGraphic" in2="effect1_dropShadow_17069_8540" result="shape"/>
</filter>
<filter id="filter4_d_17069_8540" x="232" y="216" width="166" height="84" filterUnits="userSpaceOnUse" color-interpolation-filters="sRGB">
<feFlood flood-opacity="0" result="BackgroundImageFix"/>
<feColorMatrix in="SourceAlpha" type="matrix" values="0 0 0 0 0 0 0 0 0 0 0 0 0 0 0 0 0 0 127 0" result="hardAlpha"/>
<feOffset dy="1"/>
<feGaussianBlur stdDeviation="2"/>
<feComposite in2="hardAlpha" operator="out"/>
<feColorMatrix type="matrix" values="0 0 0 0 0 0 0 0 0 0 0 0 0 0 0 0 0 0 0.25 0"/>
<feBlend mode="normal" in2="BackgroundImageFix" result="effect1_dropShadow_17069_8540"/>
<feBlend mode="normal" in="SourceGraphic" in2="effect1_dropShadow_17069_8540" result="shape"/>
</filter>
<filter id="filter5_d_17069_8540" x="296" y="0" width="166" height="84" filterUnits="userSpaceOnUse" color-interpolation-filters="sRGB">
<feFlood flood-opacity="0" result="BackgroundImageFix"/>
<feColorMatrix in="SourceAlpha" type="matrix" values="0 0 0 0 0 0 0 0 0 0 0 0 0 0 0 0 0 0 127 0" result="hardAlpha"/>
<feOffset dy="1"/>
<feGaussianBlur stdDeviation="2"/>
<feComposite in2="hardAlpha" operator="out"/>
<feColorMatrix type="matrix" values="0 0 0 0 0 0 0 0 0 0 0 0 0 0 0 0 0 0 0.25 0"/>
<feBlend mode="normal" in2="BackgroundImageFix" result="effect1_dropShadow_17069_8540"/>
<feBlend mode="normal" in="SourceGraphic" in2="effect1_dropShadow_17069_8540" result="shape"/>
</filter>
<filter id="filter6_d_17069_8540" x="368" y="101" width="166" height="84" filterUnits="userSpaceOnUse" color-interpolation-filters="sRGB">
<feFlood flood-opacity="0" result="BackgroundImageFix"/>
<feColorMatrix in="SourceAlpha" type="matrix" values="0 0 0 0 0 0 0 0 0 0 0 0 0 0 0 0 0 0 127 0" result="hardAlpha"/>
<feOffset dy="1"/>
<feGaussianBlur stdDeviation="2"/>
<feComposite in2="hardAlpha" operator="out"/>
<feColorMatrix type="matrix" values="0 0 0 0 0 0 0 0 0 0 0 0 0 0 0 0 0 0 0.25 0"/>
<feBlend mode="normal" in2="BackgroundImageFix" result="effect1_dropShadow_17069_8540"/>
<feBlend mode="normal" in="SourceGraphic" in2="effect1_dropShadow_17069_8540" result="shape"/>
</filter>
</defs>
</svg>
