<svg width="665" height="285" viewBox="0 0 665 285" fill="none" xmlns="http://www.w3.org/2000/svg">
<path d="M466.749 142.5C470.201 142.5 473.014 145.3 472.863 148.749C472.077 166.658 467.918 184.276 460.585 200.674C452.4 218.976 440.445 235.345 425.502 248.711C410.559 262.078 392.963 272.14 373.865 278.241C356.755 283.708 338.783 285.884 320.898 284.676C317.454 284.444 314.983 281.337 315.367 277.906C315.75 274.475 318.842 272.02 322.288 272.238C338.423 273.259 354.626 271.263 370.061 266.332C387.483 260.766 403.535 251.586 417.167 239.393C430.799 227.199 441.705 212.266 449.171 195.57C455.786 180.778 459.57 164.897 460.347 148.749C460.513 145.301 463.296 142.5 466.749 142.5Z" fill="#EBEBEB"/>
<path d="M330.5 278.749C330.5 282.201 327.699 285.014 324.25 284.863C295.891 283.618 268.495 273.926 245.618 256.961C221.063 238.752 203.016 213.129 194.139 183.877C185.263 154.625 186.029 123.294 196.324 94.5102C206.619 65.7266 225.897 41.0166 251.311 24.0289C276.726 7.04131 306.929 -1.32335 337.462 0.170177C367.995 1.6637 397.238 12.9362 420.873 32.3231C444.508 51.7101 461.283 78.1836 468.719 107.835C475.648 135.461 474.128 164.48 464.434 191.161C463.255 194.406 459.585 195.918 456.395 194.598C453.205 193.278 451.704 189.625 452.87 186.375C461.546 162.178 462.868 135.9 456.592 110.876C449.808 83.8266 434.506 59.6757 412.944 41.9898C391.383 24.3038 364.705 14.0203 336.851 12.6578C308.997 11.2953 281.444 18.9261 258.259 34.4232C235.074 49.9204 217.488 72.4625 208.096 98.7207C198.705 124.979 198.006 153.561 206.103 180.247C214.201 206.932 230.665 230.307 253.065 246.918C273.788 262.286 298.574 271.112 324.251 272.347C327.699 272.513 330.5 275.296 330.5 278.749Z" fill="#810019"/>
<path d="M449.538 142.5C452.555 142.5 455.012 144.947 454.88 147.96C454.193 163.606 450.56 178.999 444.153 193.326C437.002 209.316 426.557 223.617 413.502 235.295C400.446 246.973 385.073 255.764 368.388 261.095C353.438 265.871 337.737 267.772 322.111 266.717C319.102 266.514 316.943 263.8 317.278 260.802C317.613 257.804 320.315 255.659 323.325 255.85C337.422 256.742 351.578 254.998 365.063 250.69C380.285 245.827 394.309 237.807 406.219 227.154C418.13 216.5 427.658 203.454 434.181 188.866C439.961 175.943 443.266 162.068 443.945 147.96C444.09 144.947 446.522 142.5 449.538 142.5Z" fill="#EBEBEB"/>
<path d="M330.5 261.538C330.5 264.555 328.053 267.012 325.04 266.88C301.859 265.863 279.384 258.384 260.177 245.237C239.466 231.061 223.523 210.955 214.439 187.558C205.356 164.16 203.556 138.564 209.276 114.126C214.997 89.6875 227.969 67.5489 246.493 50.6135C265.017 33.6781 288.227 22.7368 313.079 19.2249C337.931 15.7129 363.264 19.7941 385.755 30.9333C408.247 42.0726 426.846 59.7495 439.114 81.6456C450.491 101.951 455.93 125.005 454.87 148.184C454.733 151.197 452.066 153.414 449.062 153.144C446.057 152.875 443.854 150.22 443.979 147.206C444.85 126.223 439.885 105.369 429.585 86.9848C418.393 67.0098 401.425 50.8838 380.907 40.7219C360.389 30.56 337.279 26.8368 314.608 30.0407C291.936 33.2445 270.763 43.2258 253.864 58.6753C236.965 74.1248 225.131 94.3212 219.912 116.615C214.694 138.909 216.336 162.26 224.622 183.604C232.909 204.949 247.453 223.291 266.347 236.223C283.736 248.126 304.063 254.936 325.04 255.945C328.053 256.09 330.5 258.522 330.5 261.538Z" fill="#556B2F"/>
<path d="M426.338 105.355C428.766 104.414 431.508 105.617 432.342 108.084C437.692 123.915 439.284 140.798 436.964 157.39C434.425 175.541 427.288 192.742 416.23 207.358C405.173 221.974 390.562 233.521 373.785 240.9C358.45 247.646 341.771 250.706 325.082 249.863C322.48 249.732 320.577 247.42 320.822 244.827C321.067 242.235 323.368 240.343 325.97 240.464C341.057 241.161 356.124 238.365 369.988 232.267C385.292 225.535 398.621 215.001 408.709 201.667C418.796 188.334 425.307 172.642 427.623 156.083C429.721 141.084 428.313 125.824 423.538 111.496C422.715 109.025 423.909 106.296 426.338 105.355Z" fill="#EBEBEB"/>
<path d="M330.5 245.284C330.5 247.889 328.387 250.011 325.785 249.897C307.483 249.093 289.661 243.624 274.028 233.972C257.056 223.494 243.334 208.501 234.396 190.669C225.458 172.837 221.658 152.871 223.42 133.002C225.183 113.134 232.438 94.1481 244.374 78.1678C256.311 62.1875 272.458 49.8433 291.01 42.5161C309.562 35.1888 329.786 33.1675 349.421 36.6782C369.056 40.1889 387.327 49.0931 402.19 62.3949C415.88 74.6468 426.182 90.1843 432.145 107.506C432.993 109.969 431.557 112.597 429.06 113.336C426.562 114.075 423.95 112.645 423.091 110.186C417.631 94.5406 408.286 80.5078 395.9 69.4231C382.341 57.2884 365.673 49.1654 347.761 45.9627C329.849 42.76 311.399 44.604 294.475 51.2884C277.551 57.9728 262.82 69.2339 251.931 83.8121C241.042 98.3903 234.423 115.711 232.815 133.836C231.208 151.961 234.674 170.176 242.828 186.443C250.981 202.71 263.5 216.388 278.983 225.947C293.127 234.679 309.234 239.658 325.786 240.455C328.387 240.58 330.5 242.68 330.5 245.284Z" fill="#00C800"/>
<path d="M380.603 69.6189C381.873 67.7721 384.406 67.2971 386.195 68.6465C401.422 80.1292 412.756 96.0629 418.593 114.289C424.843 133.805 424.435 154.844 417.434 174.103C410.432 193.362 397.234 209.752 379.91 220.698C363.731 230.92 344.811 235.855 325.764 234.879C323.526 234.764 321.89 232.774 322.103 230.543C322.316 228.312 324.297 226.686 326.536 226.791C343.791 227.603 360.917 223.099 375.575 213.837C391.379 203.851 403.419 188.9 409.807 171.33C416.194 153.761 416.566 134.568 410.864 116.764C405.576 100.251 395.34 85.7999 381.592 75.3412C379.809 73.9843 379.334 71.4656 380.603 69.6189Z" fill="#EBEBEB"/>
<path d="M330.5 230.942C330.5 233.183 328.682 235.009 326.443 234.911C311.805 234.268 297.507 230.156 284.74 222.888C270.795 214.95 259.155 203.522 250.963 189.725C242.771 175.928 238.309 160.237 238.016 144.194C237.722 128.151 241.606 112.307 249.287 98.2197C256.968 84.1319 268.182 72.2846 281.827 63.8414C295.472 55.3982 311.078 50.6496 327.113 50.062C343.148 49.4745 359.06 53.0681 373.286 60.49C386.311 67.2854 397.512 77.076 405.982 89.0328C407.277 90.8615 406.727 93.3787 404.843 94.5926C402.959 95.8066 400.456 95.2571 399.153 93.4338C391.451 82.6577 381.309 73.8295 369.532 67.6854C356.554 60.9146 342.038 57.6363 327.41 58.1723C312.782 58.7083 298.545 63.0403 286.097 70.7427C273.65 78.4451 263.42 89.253 256.413 102.105C249.405 114.956 245.862 129.41 246.13 144.045C246.398 158.681 250.468 172.995 257.942 185.581C265.415 198.168 276.034 208.594 288.755 215.835C300.299 222.406 313.214 226.15 326.444 226.787C328.682 226.895 330.5 228.701 330.5 230.942Z" fill="#FF0080"/>
<path d="M321.367 68.0015C321.135 66.1137 322.478 64.3878 324.374 64.2394C334.047 63.4822 343.787 64.5242 353.098 67.3231C363.51 70.4528 373.158 75.711 381.431 82.7646C389.704 89.8182 396.421 98.5133 401.158 108.299C405.895 118.085 408.547 128.748 408.947 139.612C409.347 150.476 407.486 161.305 403.481 171.413C399.477 181.52 393.417 190.686 385.685 198.329C377.953 205.972 368.718 211.925 358.565 215.812C349.485 219.288 339.848 221.043 330.145 220.999C328.243 220.991 326.777 219.368 326.869 217.468C326.961 215.569 328.576 214.112 330.478 214.113C339.227 214.115 347.913 212.515 356.102 209.38C365.365 205.834 373.79 200.403 380.843 193.431C387.897 186.458 393.425 178.097 397.078 168.876C400.731 159.656 402.429 149.777 402.064 139.865C401.699 129.954 399.28 120.227 394.959 111.3C390.638 102.373 384.509 94.4403 376.962 88.0056C369.415 81.5709 360.614 76.774 351.115 73.9189C342.718 71.3946 333.938 70.4368 325.213 71.0828C323.316 71.2233 321.598 69.8892 321.367 68.0015Z" fill="#EBEBEB"/>
<path d="M330.5 217.556C330.5 219.458 328.957 221.008 327.057 220.924C316.647 220.467 306.419 217.942 296.976 213.482C286.493 208.531 277.238 201.32 269.873 192.367C262.509 183.413 257.219 172.94 254.384 161.699C251.549 150.459 251.238 138.73 253.475 127.355C255.712 115.98 260.44 105.241 267.32 95.911C274.2 86.5807 283.062 78.89 293.267 73.3915C303.473 67.8931 314.77 64.7233 326.347 64.11C336.776 63.5574 347.198 65.0919 357.007 68.6106C358.797 69.2528 359.638 71.2711 358.918 73.0314C358.198 74.7917 356.189 75.6266 354.396 74.992C345.532 71.854 336.124 70.4889 326.711 70.9877C316.15 71.5472 305.844 74.4389 296.534 79.4549C287.224 84.471 279.14 91.4869 272.863 99.9986C266.587 108.51 262.273 118.307 260.233 128.683C258.192 139.06 258.476 149.76 261.062 160.015C263.649 170.269 268.475 179.824 275.193 187.991C281.911 196.159 290.354 202.737 299.917 207.254C308.441 211.279 317.665 213.578 327.058 214.03C328.957 214.121 330.5 215.654 330.5 217.556Z" fill="#FF7D7D"/>
<line x1="137.547" y1="138.486" x2="223.636" y2="230.115" stroke="#810019" stroke-width="1.5" stroke-dasharray="4 4"/>
<line x1="129.53" y1="31.4697" x2="214.53" y2="116.47" stroke="#556B2F" stroke-width="1.5" stroke-dasharray="4 4"/>
<line x1="516.1" y1="32.7433" x2="382.1" y2="50.7433" stroke="#00C800" stroke-width="1.5" stroke-dasharray="4 4"/>
<line x1="515.66" y1="139.669" x2="389.66" y2="75.6687" stroke="#FF0080" stroke-width="1.5" stroke-dasharray="4 4"/>
<line x1="515.53" y1="251.585" x2="296.53" y2="75.5846" stroke="#FF7D7D" stroke-width="1.5" stroke-dasharray="4 4"/>
<path d="M56.5 135C56.5 129.753 60.7533 125.5 66 125.5H127C132.247 125.5 136.5 129.753 136.5 135V144C136.5 149.247 132.247 153.5 127 153.5H66C60.7533 153.5 56.5 149.247 56.5 144V135Z" fill="#FFCCCC" fill-opacity="0.5" stroke="#810019"/>
<path d="M0.5 28C0.5 22.7533 4.7533 18.5 10 18.5H119C124.247 18.5 128.5 22.7533 128.5 28V37C128.5 42.2467 124.247 46.5 119 46.5H10C4.75329 46.5 0.5 42.2467 0.5 37V28Z" fill="#FFCCCC" fill-opacity="0.5" stroke="#556B2F"/>
<path d="M516.5 28C516.5 22.7533 520.753 18.5 526 18.5H655C660.247 18.5 664.5 22.7533 664.5 28V37C664.5 42.2467 660.247 46.5 655 46.5H526C520.753 46.5 516.5 42.2467 516.5 37V28Z" fill="#FFCCCC" fill-opacity="0.5" stroke="#00C800"/>
<path d="M516.5 135C516.5 129.753 520.753 125.5 526 125.5H645C650.247 125.5 654.5 129.753 654.5 135V144C654.5 149.247 650.247 153.5 645 153.5H526C520.753 153.5 516.5 149.247 516.5 144V135Z" fill="#FFCCCC" fill-opacity="0.5" stroke="#FF0080"/>
<path d="M516.5 247C516.5 241.753 520.753 237.5 526 237.5H592C597.247 237.5 601.5 241.753 601.5 247V256C601.5 261.247 597.247 265.5 592 265.5H526C520.753 265.5 516.5 261.247 516.5 256V247Z" fill="#FFCCCC" fill-opacity="0.5" stroke="#FF7D7D"/>
<circle cx="137" cy="139" r="5.5" fill="#810019" stroke="#FFCCCC"/>
<circle cx="129" cy="32" r="5.5" fill="#556B2F" stroke="#FFCCCC"/>
<circle cx="516" cy="32" r="5.5" fill="#00C800" stroke="#FFCCCC"/>
<circle cx="516" cy="139" r="5.5" fill="#FF0080" stroke="#FFCCCC"/>
<circle cx="516" cy="251" r="5.5" fill="#FF7D7D" stroke="#FFCCCC"/>
<path d="M76.688 145.128C75.8347 145.128 75.0453 144.989 74.32 144.712C73.6053 144.424 72.9813 144.024 72.448 143.512C71.9253 142.989 71.5147 142.381 71.216 141.688C70.9173 140.995 70.768 140.232 70.768 139.4C70.768 138.568 70.9173 137.805 71.216 137.112C71.5147 136.419 71.9307 135.816 72.464 135.304C72.9973 134.781 73.6213 134.381 74.336 134.104C75.0613 133.816 75.8507 133.672 76.704 133.672C77.568 133.672 78.3627 133.821 79.088 134.12C79.824 134.408 80.448 134.84 80.96 135.416L79.92 136.424C79.4933 135.976 79.0133 135.645 78.48 135.432C77.9467 135.208 77.376 135.096 76.768 135.096C76.1387 135.096 75.552 135.203 75.008 135.416C74.4747 135.629 74.0107 135.928 73.616 136.312C73.2213 136.696 72.912 137.155 72.688 137.688C72.4747 138.211 72.368 138.781 72.368 139.4C72.368 140.019 72.4747 140.595 72.688 141.128C72.912 141.651 73.2213 142.104 73.616 142.488C74.0107 142.872 74.4747 143.171 75.008 143.384C75.552 143.597 76.1387 143.704 76.768 143.704C77.376 143.704 77.9467 143.597 78.48 143.384C79.0133 143.16 79.4933 142.819 79.92 142.36L80.96 143.368C80.448 143.944 79.824 144.381 79.088 144.68C78.3627 144.979 77.5627 145.128 76.688 145.128ZM83.0185 145V133.128H84.5545V145H83.0185ZM87.4873 145V136.52H89.0233V145H87.4873ZM88.2553 134.888C87.9566 134.888 87.7059 134.792 87.5033 134.6C87.3113 134.408 87.2153 134.173 87.2153 133.896C87.2153 133.608 87.3113 133.368 87.5033 133.176C87.7059 132.984 87.9566 132.888 88.2553 132.888C88.5539 132.888 88.7993 132.984 88.9913 133.176C89.1939 133.357 89.2953 133.587 89.2953 133.864C89.2953 134.152 89.1993 134.397 89.0073 134.6C88.8153 134.792 88.5646 134.888 88.2553 134.888ZM95.732 145.096C94.8253 145.096 94.0253 144.909 93.332 144.536C92.6493 144.163 92.116 143.651 91.732 143C91.3587 142.349 91.172 141.603 91.172 140.76C91.172 139.917 91.3533 139.171 91.716 138.52C92.0893 137.869 92.596 137.363 93.236 137C93.8867 136.627 94.6173 136.44 95.428 136.44C96.2493 136.44 96.9747 136.621 97.604 136.984C98.2333 137.347 98.724 137.859 99.076 138.52C99.4387 139.171 99.62 139.933 99.62 140.808C99.62 140.872 99.6147 140.947 99.604 141.032C99.604 141.117 99.5987 141.197 99.588 141.272H92.372V140.168H98.788L98.164 140.552C98.1747 140.008 98.0627 139.523 97.828 139.096C97.5933 138.669 97.268 138.339 96.852 138.104C96.4467 137.859 95.972 137.736 95.428 137.736C94.8947 137.736 94.42 137.859 94.004 138.104C93.588 138.339 93.2627 138.675 93.028 139.112C92.7933 139.539 92.676 140.029 92.676 140.584V140.84C92.676 141.405 92.804 141.912 93.06 142.36C93.3267 142.797 93.6947 143.139 94.164 143.384C94.6333 143.629 95.172 143.752 95.78 143.752C96.2813 143.752 96.7347 143.667 97.14 143.496C97.556 143.325 97.9187 143.069 98.228 142.728L99.076 143.72C98.692 144.168 98.212 144.509 97.636 144.744C97.0707 144.979 96.436 145.096 95.732 145.096ZM106.281 136.44C106.974 136.44 107.582 136.573 108.105 136.84C108.638 137.107 109.054 137.512 109.353 138.056C109.652 138.6 109.801 139.288 109.801 140.12V145H108.265V140.296C108.265 139.475 108.062 138.856 107.657 138.44C107.262 138.024 106.702 137.816 105.977 137.816C105.433 137.816 104.958 137.923 104.553 138.136C104.148 138.349 103.833 138.664 103.609 139.08C103.396 139.496 103.289 140.013 103.289 140.632V145H101.753V136.52H103.225V138.808L102.985 138.2C103.262 137.645 103.689 137.213 104.265 136.904C104.841 136.595 105.513 136.44 106.281 136.44ZM115.556 145.096C114.702 145.096 114.041 144.867 113.572 144.408C113.102 143.949 112.868 143.293 112.868 142.44V134.664H114.404V142.376C114.404 142.835 114.516 143.187 114.74 143.432C114.974 143.677 115.305 143.8 115.732 143.8C116.212 143.8 116.612 143.667 116.932 143.4L117.412 144.504C117.177 144.707 116.894 144.856 116.564 144.952C116.244 145.048 115.908 145.096 115.556 145.096ZM111.428 137.784V136.52H116.836V137.784H111.428ZM121.701 145.096C120.997 145.096 120.325 145 119.685 144.808C119.055 144.616 118.559 144.381 118.197 144.104L118.837 142.888C119.199 143.133 119.647 143.341 120.181 143.512C120.714 143.683 121.258 143.768 121.812 143.768C122.527 143.768 123.039 143.667 123.349 143.464C123.669 143.261 123.829 142.979 123.829 142.616C123.829 142.349 123.733 142.141 123.541 141.992C123.349 141.843 123.093 141.731 122.773 141.656C122.463 141.581 122.117 141.517 121.733 141.464C121.349 141.4 120.965 141.325 120.581 141.24C120.197 141.144 119.845 141.016 119.525 140.856C119.205 140.685 118.949 140.456 118.757 140.168C118.565 139.869 118.469 139.475 118.469 138.984C118.469 138.472 118.613 138.024 118.901 137.64C119.189 137.256 119.594 136.963 120.117 136.76C120.65 136.547 121.279 136.44 122.005 136.44C122.559 136.44 123.119 136.509 123.685 136.648C124.261 136.776 124.73 136.963 125.093 137.208L124.437 138.424C124.053 138.168 123.653 137.992 123.237 137.896C122.821 137.8 122.405 137.752 121.989 137.752C121.317 137.752 120.815 137.864 120.485 138.088C120.154 138.301 119.989 138.579 119.989 138.92C119.989 139.208 120.085 139.432 120.277 139.592C120.479 139.741 120.735 139.859 121.045 139.944C121.365 140.029 121.717 140.104 122.101 140.168C122.485 140.221 122.869 140.296 123.253 140.392C123.637 140.477 123.983 140.6 124.293 140.76C124.613 140.92 124.869 141.144 125.061 141.432C125.263 141.72 125.365 142.104 125.365 142.584C125.365 143.096 125.215 143.539 124.917 143.912C124.618 144.285 124.197 144.579 123.653 144.792C123.109 144.995 122.458 145.096 121.701 145.096Z" fill="#414141"/>
<path d="M17.944 38.128C17.0907 38.128 16.2747 38 15.496 37.744C14.7173 37.4773 14.104 37.136 13.656 36.72L14.248 35.472C14.6747 35.8453 15.2187 36.1547 15.88 36.4C16.5413 36.6453 17.2293 36.768 17.944 36.768C18.5947 36.768 19.1227 36.6933 19.528 36.544C19.9333 36.3947 20.232 36.192 20.424 35.936C20.616 35.6693 20.712 35.3707 20.712 35.04C20.712 34.656 20.584 34.3467 20.328 34.112C20.0827 33.8773 19.7573 33.6907 19.352 33.552C18.9573 33.4027 18.52 33.2747 18.04 33.168C17.56 33.0613 17.0747 32.9387 16.584 32.8C16.104 32.6507 15.6613 32.464 15.256 32.24C14.8613 32.016 14.5413 31.7173 14.296 31.344C14.0507 30.96 13.928 30.4693 13.928 29.872C13.928 29.296 14.0773 28.768 14.376 28.288C14.6853 27.7973 15.1547 27.408 15.784 27.12C16.424 26.8213 17.2347 26.672 18.216 26.672C18.8667 26.672 19.512 26.7573 20.152 26.928C20.792 27.0987 21.3467 27.344 21.816 27.664L21.288 28.944C20.808 28.624 20.3013 28.3947 19.768 28.256C19.2347 28.1067 18.7173 28.032 18.216 28.032C17.5867 28.032 17.0693 28.112 16.664 28.272C16.2587 28.432 15.96 28.6453 15.768 28.912C15.5867 29.1787 15.496 29.4773 15.496 29.808C15.496 30.2027 15.6187 30.5173 15.864 30.752C16.12 30.9867 16.4453 31.1733 16.84 31.312C17.2453 31.4507 17.688 31.5787 18.168 31.696C18.648 31.8027 19.128 31.9253 19.608 32.064C20.0987 32.2027 20.5413 32.384 20.936 32.608C21.3413 32.832 21.6667 33.1307 21.912 33.504C22.1573 33.8773 22.28 34.3573 22.28 34.944C22.28 35.5093 22.1253 36.0373 21.816 36.528C21.5067 37.008 21.0267 37.3973 20.376 37.696C19.736 37.984 18.9253 38.128 17.944 38.128ZM29.6575 38V36.208L29.5775 35.872V32.816C29.5775 32.1653 29.3855 31.664 29.0015 31.312C28.6282 30.9493 28.0628 30.768 27.3055 30.768C26.8042 30.768 26.3135 30.8533 25.8335 31.024C25.3535 31.184 24.9482 31.4027 24.6175 31.68L23.9775 30.528C24.4148 30.176 24.9375 29.9093 25.5455 29.728C26.1642 29.536 26.8095 29.44 27.4815 29.44C28.6442 29.44 29.5402 29.7227 30.1695 30.288C30.7988 30.8533 31.1135 31.7173 31.1135 32.88V38H29.6575ZM26.8735 38.096C26.2442 38.096 25.6895 37.9893 25.2095 37.776C24.7402 37.5627 24.3775 37.2693 24.1215 36.896C23.8655 36.512 23.7375 36.08 23.7375 35.6C23.7375 35.1413 23.8442 34.7253 24.0575 34.352C24.2815 33.9787 24.6388 33.68 25.1295 33.456C25.6308 33.232 26.3028 33.12 27.1455 33.12H29.8335V34.224H27.2095C26.4415 34.224 25.9242 34.352 25.6575 34.608C25.3908 34.864 25.2575 35.1733 25.2575 35.536C25.2575 35.952 25.4228 36.288 25.7535 36.544C26.0842 36.7893 26.5428 36.912 27.1295 36.912C27.7055 36.912 28.2068 36.784 28.6335 36.528C29.0708 36.272 29.3855 35.8987 29.5775 35.408L29.8815 36.464C29.6788 36.9653 29.3215 37.3653 28.8095 37.664C28.2975 37.952 27.6522 38.096 26.8735 38.096ZM36.0238 38L32.3117 29.52H33.9118L37.2078 37.2H36.4398L39.7998 29.52H41.3038L37.5918 38H36.0238ZM42.7373 38V29.52H44.2733V38H42.7373ZM43.5053 27.888C43.2066 27.888 42.9559 27.792 42.7533 27.6C42.5613 27.408 42.4653 27.1733 42.4653 26.896C42.4653 26.608 42.5613 26.368 42.7533 26.176C42.9559 25.984 43.2066 25.888 43.5053 25.888C43.8039 25.888 44.0493 25.984 44.2413 26.176C44.4439 26.3573 44.5453 26.5867 44.5453 26.864C44.5453 27.152 44.4493 27.3973 44.2573 27.6C44.0653 27.792 43.8146 27.888 43.5053 27.888ZM51.734 29.44C52.4273 29.44 53.0353 29.5733 53.558 29.84C54.0913 30.1067 54.5073 30.512 54.806 31.056C55.1047 31.6 55.254 32.288 55.254 33.12V38H53.718V33.296C53.718 32.4747 53.5153 31.856 53.11 31.44C52.7153 31.024 52.1553 30.816 51.43 30.816C50.886 30.816 50.4113 30.9227 50.006 31.136C49.6007 31.3493 49.286 31.664 49.062 32.08C48.8487 32.496 48.742 33.0133 48.742 33.632V38H47.206V29.52H48.678V31.808L48.438 31.2C48.7153 30.6453 49.142 30.2133 49.718 29.904C50.294 29.5947 50.966 29.44 51.734 29.44ZM61.8086 41.2C61.03 41.2 60.2726 41.088 59.5366 40.864C58.8113 40.6507 58.2193 40.3413 57.7606 39.936L58.4966 38.752C58.8913 39.0933 59.3766 39.36 59.9526 39.552C60.5286 39.7547 61.1313 39.856 61.7606 39.856C62.7633 39.856 63.4993 39.6213 63.9686 39.152C64.438 38.6827 64.6726 37.968 64.6726 37.008V35.216L64.8326 33.536L64.7526 31.84V29.52H66.2086V36.848C66.2086 38.3413 65.8353 39.44 65.0886 40.144C64.342 40.848 63.2486 41.2 61.8086 41.2ZM61.6166 37.648C60.7953 37.648 60.0593 37.4773 59.4086 37.136C58.7686 36.784 58.2566 36.2987 57.8726 35.68C57.4993 35.0613 57.3126 34.3467 57.3126 33.536C57.3126 32.7147 57.4993 32 57.8726 31.392C58.2566 30.7733 58.7686 30.2933 59.4086 29.952C60.0593 29.6107 60.7953 29.44 61.6166 29.44C62.342 29.44 63.0033 29.5893 63.6006 29.888C64.198 30.176 64.6726 30.624 65.0246 31.232C65.3873 31.84 65.5686 32.608 65.5686 33.536C65.5686 34.4533 65.3873 35.216 65.0246 35.824C64.6726 36.432 64.198 36.8907 63.6006 37.2C63.0033 37.4987 62.342 37.648 61.6166 37.648ZM61.7926 36.304C62.358 36.304 62.8593 36.1867 63.2966 35.952C63.734 35.7173 64.0753 35.392 64.3206 34.976C64.5766 34.56 64.7046 34.08 64.7046 33.536C64.7046 32.992 64.5766 32.512 64.3206 32.096C64.0753 31.68 63.734 31.36 63.2966 31.136C62.8593 30.9013 62.358 30.784 61.7926 30.784C61.2273 30.784 60.7206 30.9013 60.2726 31.136C59.8353 31.36 59.4886 31.68 59.2326 32.096C58.9873 32.512 58.8646 32.992 58.8646 33.536C58.8646 34.08 58.9873 34.56 59.2326 34.976C59.4886 35.392 59.8353 35.7173 60.2726 35.952C60.7206 36.1867 61.2273 36.304 61.7926 36.304ZM77.1364 38.096C76.2724 38.096 75.499 37.9093 74.8164 37.536C74.1444 37.1627 73.6164 36.6507 73.2324 36C72.8484 35.3493 72.6564 34.6027 72.6564 33.76C72.6564 32.9173 72.8484 32.1707 73.2324 31.52C73.6164 30.8693 74.1444 30.3627 74.8164 30C75.499 29.6267 76.2724 29.44 77.1364 29.44C77.9044 29.44 78.587 29.5947 79.1844 29.904C79.7924 30.2027 80.2617 30.6507 80.5924 31.248L79.4244 32C79.147 31.584 78.8057 31.28 78.4004 31.088C78.0057 30.8853 77.579 30.784 77.1204 30.784C76.5657 30.784 76.0697 30.9067 75.6324 31.152C75.195 31.3973 74.8484 31.744 74.5924 32.192C74.3364 32.6293 74.2084 33.152 74.2084 33.76C74.2084 34.368 74.3364 34.896 74.5924 35.344C74.8484 35.792 75.195 36.1387 75.6324 36.384C76.0697 36.6293 76.5657 36.752 77.1204 36.752C77.579 36.752 78.0057 36.656 78.4004 36.464C78.8057 36.2613 79.147 35.952 79.4244 35.536L80.5924 36.272C80.2617 36.8587 79.7924 37.312 79.1844 37.632C78.587 37.9413 77.9044 38.096 77.1364 38.096ZM82.4716 38V26.128H84.0076V38H82.4716ZM90.5084 38.096C89.783 38.096 89.143 37.9627 88.5884 37.696C88.0444 37.4293 87.6177 37.024 87.3084 36.48C87.0097 35.9253 86.8604 35.232 86.8604 34.4V29.52H88.3964V34.224C88.3964 35.056 88.5937 35.68 88.9884 36.096C89.3937 36.512 89.959 36.72 90.6844 36.72C91.2177 36.72 91.6817 36.6133 92.0764 36.4C92.471 36.176 92.775 35.856 92.9884 35.44C93.2017 35.0133 93.3084 34.5013 93.3084 33.904V29.52H94.8444V38H93.3884V35.712L93.6284 36.32C93.351 36.8853 92.935 37.3227 92.3804 37.632C91.8257 37.9413 91.2017 38.096 90.5084 38.096ZM102.265 38.096C101.539 38.096 100.883 37.936 100.297 37.616C99.7205 37.2853 99.2618 36.8 98.9205 36.16C98.5898 35.52 98.4245 34.72 98.4245 33.76C98.4245 32.8 98.5952 32 98.9365 31.36C99.2885 30.72 99.7525 30.24 100.329 29.92C100.915 29.6 101.561 29.44 102.265 29.44C103.097 29.44 103.833 29.6213 104.473 29.984C105.113 30.3467 105.619 30.8533 105.993 31.504C106.366 32.144 106.553 32.896 106.553 33.76C106.553 34.624 106.366 35.3813 105.993 36.032C105.619 36.6827 105.113 37.1893 104.473 37.552C103.833 37.9147 103.097 38.096 102.265 38.096ZM97.7685 38V26.128H99.3045V31.776L99.1445 33.744L99.2405 35.712V38H97.7685ZM102.137 36.752C102.681 36.752 103.166 36.6293 103.593 36.384C104.03 36.1387 104.371 35.792 104.617 35.344C104.873 34.8853 105.001 34.3573 105.001 33.76C105.001 33.152 104.873 32.6293 104.617 32.192C104.371 31.744 104.03 31.3973 103.593 31.152C103.166 30.9067 102.681 30.784 102.137 30.784C101.603 30.784 101.118 30.9067 100.681 31.152C100.254 31.3973 99.9125 31.744 99.6565 32.192C99.4112 32.6293 99.2885 33.152 99.2885 33.76C99.2885 34.3573 99.4112 34.8853 99.6565 35.344C99.9125 35.792 100.254 36.1387 100.681 36.384C101.118 36.6293 101.603 36.752 102.137 36.752ZM111.107 38.096C110.403 38.096 109.731 38 109.091 37.808C108.461 37.616 107.965 37.3813 107.603 37.104L108.243 35.888C108.605 36.1333 109.053 36.3413 109.587 36.512C110.12 36.6827 110.664 36.768 111.219 36.768C111.933 36.768 112.445 36.6667 112.755 36.464C113.075 36.2613 113.235 35.9787 113.235 35.616C113.235 35.3493 113.139 35.1413 112.947 34.992C112.755 34.8427 112.499 34.7307 112.179 34.656C111.869 34.5813 111.523 34.5173 111.139 34.464C110.755 34.4 110.371 34.3253 109.987 34.24C109.603 34.144 109.251 34.016 108.931 33.856C108.611 33.6853 108.355 33.456 108.163 33.168C107.971 32.8693 107.875 32.4747 107.875 31.984C107.875 31.472 108.019 31.024 108.307 30.64C108.595 30.256 109 29.9627 109.523 29.76C110.056 29.5467 110.685 29.44 111.411 29.44C111.965 29.44 112.525 29.5093 113.091 29.648C113.667 29.776 114.136 29.9627 114.499 30.208L113.843 31.424C113.459 31.168 113.059 30.992 112.643 30.896C112.227 30.8 111.811 30.752 111.395 30.752C110.723 30.752 110.221 30.864 109.891 31.088C109.56 31.3013 109.395 31.5787 109.395 31.92C109.395 32.208 109.491 32.432 109.683 32.592C109.885 32.7413 110.141 32.8587 110.451 32.944C110.771 33.0293 111.123 33.104 111.507 33.168C111.891 33.2213 112.275 33.296 112.659 33.392C113.043 33.4773 113.389 33.6 113.699 33.76C114.019 33.92 114.275 34.144 114.467 34.432C114.669 34.72 114.771 35.104 114.771 35.584C114.771 36.096 114.621 36.5387 114.323 36.912C114.024 37.2853 113.603 37.5787 113.059 37.792C112.515 37.9947 111.864 38.096 111.107 38.096Z" fill="#414141"/>
<path d="M535.688 38.128C534.835 38.128 534.045 37.9893 533.32 37.712C532.605 37.424 531.981 37.024 531.448 36.512C530.925 35.9893 530.515 35.3813 530.216 34.688C529.917 33.9947 529.768 33.232 529.768 32.4C529.768 31.568 529.917 30.8053 530.216 30.112C530.515 29.4187 530.931 28.816 531.464 28.304C531.997 27.7813 532.621 27.3813 533.336 27.104C534.061 26.816 534.851 26.672 535.704 26.672C536.568 26.672 537.363 26.8213 538.088 27.12C538.824 27.408 539.448 27.84 539.96 28.416L538.92 29.424C538.493 28.976 538.013 28.6453 537.48 28.432C536.947 28.208 536.376 28.096 535.768 28.096C535.139 28.096 534.552 28.2027 534.008 28.416C533.475 28.6293 533.011 28.928 532.616 29.312C532.221 29.696 531.912 30.1547 531.688 30.688C531.475 31.2107 531.368 31.7813 531.368 32.4C531.368 33.0187 531.475 33.5947 531.688 34.128C531.912 34.6507 532.221 35.104 532.616 35.488C533.011 35.872 533.475 36.1707 534.008 36.384C534.552 36.5973 535.139 36.704 535.768 36.704C536.376 36.704 536.947 36.5973 537.48 36.384C538.013 36.16 538.493 35.8187 538.92 35.36L539.96 36.368C539.448 36.944 538.824 37.3813 538.088 37.68C537.363 37.9787 536.563 38.128 535.688 38.128ZM545.321 38.096C544.596 38.096 543.956 37.9627 543.401 37.696C542.857 37.4293 542.43 37.024 542.121 36.48C541.822 35.9253 541.673 35.232 541.673 34.4V29.52H543.209V34.224C543.209 35.056 543.406 35.68 543.801 36.096C544.206 36.512 544.772 36.72 545.497 36.72C546.03 36.72 546.494 36.6133 546.889 36.4C547.284 36.176 547.588 35.856 547.801 35.44C548.014 35.0133 548.121 34.5013 548.121 33.904V29.52H549.657V38H548.201V35.712L548.441 36.32C548.164 36.8853 547.748 37.3227 547.193 37.632C546.638 37.9413 546.014 38.096 545.321 38.096ZM555.013 38.096C554.309 38.096 553.637 38 552.997 37.808C552.368 37.616 551.872 37.3813 551.509 37.104L552.149 35.888C552.512 36.1333 552.96 36.3413 553.493 36.512C554.026 36.6827 554.57 36.768 555.125 36.768C555.84 36.768 556.352 36.6667 556.661 36.464C556.981 36.2613 557.141 35.9787 557.141 35.616C557.141 35.3493 557.045 35.1413 556.853 34.992C556.661 34.8427 556.405 34.7307 556.085 34.656C555.776 34.5813 555.429 34.5173 555.045 34.464C554.661 34.4 554.277 34.3253 553.893 34.24C553.509 34.144 553.157 34.016 552.837 33.856C552.517 33.6853 552.261 33.456 552.069 33.168C551.877 32.8693 551.781 32.4747 551.781 31.984C551.781 31.472 551.925 31.024 552.213 30.64C552.501 30.256 552.906 29.9627 553.429 29.76C553.962 29.5467 554.592 29.44 555.317 29.44C555.872 29.44 556.432 29.5093 556.997 29.648C557.573 29.776 558.042 29.9627 558.405 30.208L557.749 31.424C557.365 31.168 556.965 30.992 556.549 30.896C556.133 30.8 555.717 30.752 555.301 30.752C554.629 30.752 554.128 30.864 553.797 31.088C553.466 31.3013 553.301 31.5787 553.301 31.92C553.301 32.208 553.397 32.432 553.589 32.592C553.792 32.7413 554.048 32.8587 554.357 32.944C554.677 33.0293 555.029 33.104 555.413 33.168C555.797 33.2213 556.181 33.296 556.565 33.392C556.949 33.4773 557.296 33.6 557.605 33.76C557.925 33.92 558.181 34.144 558.373 34.432C558.576 34.72 558.677 35.104 558.677 35.584C558.677 36.096 558.528 36.5387 558.229 36.912C557.93 37.2853 557.509 37.5787 556.965 37.792C556.421 37.9947 555.77 38.096 555.013 38.096ZM563.509 38.096C562.655 38.096 561.994 37.8667 561.525 37.408C561.055 36.9493 560.821 36.2933 560.821 35.44V27.664H562.357V35.376C562.357 35.8347 562.469 36.1867 562.693 36.432C562.927 36.6773 563.258 36.8 563.685 36.8C564.165 36.8 564.565 36.6667 564.885 36.4L565.365 37.504C565.13 37.7067 564.847 37.856 564.517 37.952C564.197 38.048 563.861 38.096 563.509 38.096ZM559.381 30.784V29.52H564.789V30.784H559.381ZM570.572 38.096C569.719 38.096 568.962 37.9093 568.3 37.536C567.639 37.1627 567.116 36.6507 566.732 36C566.348 35.3387 566.156 34.592 566.156 33.76C566.156 32.9173 566.348 32.1707 566.732 31.52C567.116 30.8693 567.639 30.3627 568.3 30C568.962 29.6267 569.719 29.44 570.572 29.44C571.415 29.44 572.167 29.6267 572.828 30C573.5 30.3627 574.023 30.8693 574.396 31.52C574.78 32.16 574.972 32.9067 574.972 33.76C574.972 34.6027 574.78 35.3493 574.396 36C574.023 36.6507 573.5 37.1627 572.828 37.536C572.167 37.9093 571.415 38.096 570.572 38.096ZM570.572 36.752C571.116 36.752 571.602 36.6293 572.028 36.384C572.466 36.1387 572.807 35.792 573.052 35.344C573.298 34.8853 573.42 34.3573 573.42 33.76C573.42 33.152 573.298 32.6293 573.052 32.192C572.807 31.744 572.466 31.3973 572.028 31.152C571.602 30.9067 571.116 30.784 570.572 30.784C570.028 30.784 569.543 30.9067 569.116 31.152C568.69 31.3973 568.348 31.744 568.092 32.192C567.836 32.6293 567.708 33.152 567.708 33.76C567.708 34.3573 567.836 34.8853 568.092 35.344C568.348 35.792 568.69 36.1387 569.116 36.384C569.543 36.6293 570.028 36.752 570.572 36.752ZM587.705 29.44C588.387 29.44 588.99 29.5733 589.513 29.84C590.035 30.1067 590.441 30.512 590.729 31.056C591.027 31.6 591.177 32.288 591.177 33.12V38H589.641V33.296C589.641 32.4747 589.449 31.856 589.065 31.44C588.681 31.024 588.142 30.816 587.449 30.816C586.937 30.816 586.489 30.9227 586.105 31.136C585.721 31.3493 585.422 31.664 585.209 32.08C585.006 32.496 584.905 33.0133 584.905 33.632V38H583.369V33.296C583.369 32.4747 583.177 31.856 582.793 31.44C582.419 31.024 581.881 30.816 581.177 30.816C580.675 30.816 580.233 30.9227 579.849 31.136C579.465 31.3493 579.166 31.664 578.953 32.08C578.739 32.496 578.633 33.0133 578.633 33.632V38H577.097V29.52H578.569V31.776L578.329 31.2C578.595 30.6453 579.006 30.2133 579.561 29.904C580.115 29.5947 580.761 29.44 581.497 29.44C582.307 29.44 583.006 29.6427 583.593 30.048C584.179 30.4427 584.563 31.0453 584.745 31.856L584.121 31.6C584.377 30.9493 584.825 30.4267 585.465 30.032C586.105 29.6373 586.851 29.44 587.705 29.44ZM597.779 38.096C596.872 38.096 596.072 37.9093 595.379 37.536C594.696 37.1627 594.163 36.6507 593.779 36C593.406 35.3493 593.219 34.6027 593.219 33.76C593.219 32.9173 593.4 32.1707 593.763 31.52C594.136 30.8693 594.643 30.3627 595.283 30C595.934 29.6267 596.664 29.44 597.475 29.44C598.296 29.44 599.022 29.6213 599.651 29.984C600.28 30.3467 600.771 30.8587 601.123 31.52C601.486 32.1707 601.667 32.9333 601.667 33.808C601.667 33.872 601.662 33.9467 601.651 34.032C601.651 34.1173 601.646 34.1973 601.635 34.272H594.419V33.168H600.835L600.211 33.552C600.222 33.008 600.11 32.5227 599.875 32.096C599.64 31.6693 599.315 31.3387 598.899 31.104C598.494 30.8587 598.019 30.736 597.475 30.736C596.942 30.736 596.467 30.8587 596.051 31.104C595.635 31.3387 595.31 31.6747 595.075 32.112C594.84 32.5387 594.723 33.0293 594.723 33.584V33.84C594.723 34.4053 594.851 34.912 595.107 35.36C595.374 35.7973 595.742 36.1387 596.211 36.384C596.68 36.6293 597.219 36.752 597.827 36.752C598.328 36.752 598.782 36.6667 599.187 36.496C599.603 36.3253 599.966 36.0693 600.275 35.728L601.123 36.72C600.739 37.168 600.259 37.5093 599.683 37.744C599.118 37.9787 598.483 38.096 597.779 38.096ZM603.8 38V29.52H605.272V31.824L605.128 31.248C605.362 30.6613 605.757 30.2133 606.312 29.904C606.866 29.5947 607.549 29.44 608.36 29.44V30.928C608.296 30.9173 608.232 30.912 608.168 30.912C608.114 30.912 608.061 30.912 608.008 30.912C607.186 30.912 606.536 31.1573 606.056 31.648C605.576 32.1387 605.336 32.848 605.336 33.776V38H603.8ZM619.155 38.096C618.43 38.096 617.774 37.936 617.187 37.616C616.611 37.2853 616.152 36.8 615.811 36.16C615.48 35.52 615.315 34.72 615.315 33.76C615.315 32.8 615.486 32 615.827 31.36C616.179 30.72 616.643 30.24 617.219 29.92C617.806 29.6 618.451 29.44 619.155 29.44C619.987 29.44 620.723 29.6213 621.363 29.984C622.003 30.3467 622.51 30.8533 622.883 31.504C623.256 32.144 623.443 32.896 623.443 33.76C623.443 34.624 623.256 35.3813 622.883 36.032C622.51 36.6827 622.003 37.1893 621.363 37.552C620.723 37.9147 619.987 38.096 619.155 38.096ZM614.659 38V26.128H616.195V31.776L616.035 33.744L616.131 35.712V38H614.659ZM619.027 36.752C619.571 36.752 620.056 36.6293 620.483 36.384C620.92 36.1387 621.262 35.792 621.507 35.344C621.763 34.8853 621.891 34.3573 621.891 33.76C621.891 33.152 621.763 32.6293 621.507 32.192C621.262 31.744 620.92 31.3973 620.483 31.152C620.056 30.9067 619.571 30.784 619.027 30.784C618.494 30.784 618.008 30.9067 617.571 31.152C617.144 31.3973 616.803 31.744 616.547 32.192C616.302 32.6293 616.179 33.152 616.179 33.76C616.179 34.3573 616.302 34.8853 616.547 35.344C616.803 35.792 617.144 36.1387 617.571 36.384C618.008 36.6293 618.494 36.752 619.027 36.752ZM630.751 38V36.208L630.671 35.872V32.816C630.671 32.1653 630.479 31.664 630.095 31.312C629.722 30.9493 629.157 30.768 628.399 30.768C627.898 30.768 627.407 30.8533 626.927 31.024C626.447 31.184 626.042 31.4027 625.711 31.68L625.071 30.528C625.509 30.176 626.031 29.9093 626.639 29.728C627.258 29.536 627.903 29.44 628.575 29.44C629.738 29.44 630.634 29.7227 631.263 30.288C631.893 30.8533 632.207 31.7173 632.207 32.88V38H630.751ZM627.967 38.096C627.338 38.096 626.783 37.9893 626.303 37.776C625.834 37.5627 625.471 37.2693 625.215 36.896C624.959 36.512 624.831 36.08 624.831 35.6C624.831 35.1413 624.938 34.7253 625.151 34.352C625.375 33.9787 625.733 33.68 626.223 33.456C626.725 33.232 627.397 33.12 628.239 33.12H630.927V34.224H628.303C627.535 34.224 627.018 34.352 626.751 34.608C626.485 34.864 626.351 35.1733 626.351 35.536C626.351 35.952 626.517 36.288 626.847 36.544C627.178 36.7893 627.637 36.912 628.223 36.912C628.799 36.912 629.301 36.784 629.727 36.528C630.165 36.272 630.479 35.8987 630.671 35.408L630.975 36.464C630.773 36.9653 630.415 37.3653 629.903 37.664C629.391 37.952 628.746 38.096 627.967 38.096ZM637.482 38.096C636.778 38.096 636.106 38 635.466 37.808C634.836 37.616 634.34 37.3813 633.978 37.104L634.618 35.888C634.98 36.1333 635.428 36.3413 635.962 36.512C636.495 36.6827 637.039 36.768 637.594 36.768C638.308 36.768 638.82 36.6667 639.13 36.464C639.45 36.2613 639.61 35.9787 639.61 35.616C639.61 35.3493 639.514 35.1413 639.322 34.992C639.13 34.8427 638.874 34.7307 638.554 34.656C638.244 34.5813 637.898 34.5173 637.514 34.464C637.13 34.4 636.746 34.3253 636.362 34.24C635.978 34.144 635.626 34.016 635.306 33.856C634.986 33.6853 634.73 33.456 634.538 33.168C634.346 32.8693 634.25 32.4747 634.25 31.984C634.25 31.472 634.394 31.024 634.682 30.64C634.97 30.256 635.375 29.9627 635.898 29.76C636.431 29.5467 637.06 29.44 637.786 29.44C638.34 29.44 638.9 29.5093 639.466 29.648C640.042 29.776 640.511 29.9627 640.874 30.208L640.218 31.424C639.834 31.168 639.434 30.992 639.018 30.896C638.602 30.8 638.186 30.752 637.77 30.752C637.098 30.752 636.596 30.864 636.266 31.088C635.935 31.3013 635.77 31.5787 635.77 31.92C635.77 32.208 635.866 32.432 636.058 32.592C636.26 32.7413 636.516 32.8587 636.826 32.944C637.146 33.0293 637.498 33.104 637.882 33.168C638.266 33.2213 638.65 33.296 639.034 33.392C639.418 33.4773 639.764 33.6 640.074 33.76C640.394 33.92 640.65 34.144 640.842 34.432C641.044 34.72 641.146 35.104 641.146 35.584C641.146 36.096 640.996 36.5387 640.698 36.912C640.399 37.2853 639.978 37.5787 639.434 37.792C638.89 37.9947 638.239 38.096 637.482 38.096ZM646.841 38.096C645.935 38.096 645.135 37.9093 644.441 37.536C643.759 37.1627 643.225 36.6507 642.841 36C642.468 35.3493 642.281 34.6027 642.281 33.76C642.281 32.9173 642.463 32.1707 642.825 31.52C643.199 30.8693 643.705 30.3627 644.345 30C644.996 29.6267 645.727 29.44 646.537 29.44C647.359 29.44 648.084 29.6213 648.713 29.984C649.343 30.3467 649.833 30.8587 650.185 31.52C650.548 32.1707 650.729 32.9333 650.729 33.808C650.729 33.872 650.724 33.9467 650.713 34.032C650.713 34.1173 650.708 34.1973 650.697 34.272H643.481V33.168H649.897L649.273 33.552C649.284 33.008 649.172 32.5227 648.937 32.096C648.703 31.6693 648.377 31.3387 647.961 31.104C647.556 30.8587 647.081 30.736 646.537 30.736C646.004 30.736 645.529 30.8587 645.113 31.104C644.697 31.3387 644.372 31.6747 644.137 32.112C643.903 32.5387 643.785 33.0293 643.785 33.584V33.84C643.785 34.4053 643.913 34.912 644.169 35.36C644.436 35.7973 644.804 36.1387 645.273 36.384C645.743 36.6293 646.281 36.752 646.889 36.752C647.391 36.752 647.844 36.6667 648.249 36.496C648.665 36.3253 649.028 36.0693 649.337 35.728L650.185 36.72C649.801 37.168 649.321 37.5093 648.745 37.744C648.18 37.9787 647.545 38.096 646.841 38.096Z" fill="#414141"/>
<path d="M532.904 145V135.192H529.064V133.8H538.328V135.192H534.488V145H532.904ZM542.748 145.096C541.841 145.096 541.041 144.909 540.348 144.536C539.665 144.163 539.132 143.651 538.748 143C538.374 142.349 538.188 141.603 538.188 140.76C538.188 139.917 538.369 139.171 538.732 138.52C539.105 137.869 539.612 137.363 540.252 137C540.902 136.627 541.633 136.44 542.444 136.44C543.265 136.44 543.99 136.621 544.62 136.984C545.249 137.347 545.74 137.859 546.092 138.52C546.454 139.171 546.636 139.933 546.636 140.808C546.636 140.872 546.63 140.947 546.62 141.032C546.62 141.117 546.614 141.197 546.604 141.272H539.388V140.168H545.804L545.18 140.552C545.19 140.008 545.078 139.523 544.844 139.096C544.609 138.669 544.284 138.339 543.868 138.104C543.462 137.859 542.988 137.736 542.444 137.736C541.91 137.736 541.436 137.859 541.02 138.104C540.604 138.339 540.278 138.675 540.044 139.112C539.809 139.539 539.692 140.029 539.692 140.584V140.84C539.692 141.405 539.82 141.912 540.076 142.36C540.342 142.797 540.71 143.139 541.18 143.384C541.649 143.629 542.188 143.752 542.796 143.752C543.297 143.752 543.75 143.667 544.156 143.496C544.572 143.325 544.934 143.069 545.244 142.728L546.092 143.72C545.708 144.168 545.228 144.509 544.652 144.744C544.086 144.979 543.452 145.096 542.748 145.096ZM548.769 145V136.52H550.241V138.824L550.097 138.248C550.331 137.661 550.726 137.213 551.281 136.904C551.835 136.595 552.518 136.44 553.329 136.44V137.928C553.265 137.917 553.201 137.912 553.137 137.912C553.083 137.912 553.03 137.912 552.977 137.912C552.155 137.912 551.505 138.157 551.025 138.648C550.545 139.139 550.305 139.848 550.305 140.776V145H548.769ZM565.83 136.44C566.512 136.44 567.115 136.573 567.638 136.84C568.16 137.107 568.566 137.512 568.854 138.056C569.152 138.6 569.302 139.288 569.302 140.12V145H567.766V140.296C567.766 139.475 567.574 138.856 567.19 138.44C566.806 138.024 566.267 137.816 565.574 137.816C565.062 137.816 564.614 137.923 564.23 138.136C563.846 138.349 563.547 138.664 563.334 139.08C563.131 139.496 563.03 140.013 563.03 140.632V145H561.494V140.296C561.494 139.475 561.302 138.856 560.918 138.44C560.544 138.024 560.006 137.816 559.302 137.816C558.8 137.816 558.358 137.923 557.974 138.136C557.59 138.349 557.291 138.664 557.078 139.08C556.864 139.496 556.758 140.013 556.758 140.632V145H555.222V136.52H556.694V138.776L556.454 138.2C556.72 137.645 557.131 137.213 557.686 136.904C558.24 136.595 558.886 136.44 559.622 136.44C560.432 136.44 561.131 136.643 561.718 137.048C562.304 137.443 562.688 138.045 562.87 138.856L562.246 138.6C562.502 137.949 562.95 137.427 563.59 137.032C564.23 136.637 564.976 136.44 565.83 136.44ZM579.929 145.096C579.107 145.096 578.371 144.915 577.721 144.552C577.081 144.189 576.574 143.683 576.201 143.032C575.827 142.381 575.641 141.624 575.641 140.76C575.641 139.896 575.827 139.144 576.201 138.504C576.574 137.853 577.081 137.347 577.721 136.984C578.371 136.621 579.107 136.44 579.929 136.44C580.643 136.44 581.289 136.6 581.865 136.92C582.441 137.24 582.899 137.72 583.241 138.36C583.593 139 583.769 139.8 583.769 140.76C583.769 141.72 583.598 142.52 583.257 143.16C582.926 143.8 582.473 144.285 581.897 144.616C581.321 144.936 580.665 145.096 579.929 145.096ZM580.057 143.752C580.59 143.752 581.07 143.629 581.497 143.384C581.934 143.139 582.275 142.792 582.521 142.344C582.777 141.885 582.905 141.357 582.905 140.76C582.905 140.152 582.777 139.629 582.521 139.192C582.275 138.744 581.934 138.397 581.497 138.152C581.07 137.907 580.59 137.784 580.057 137.784C579.513 137.784 579.027 137.907 578.601 138.152C578.174 138.397 577.833 138.744 577.577 139.192C577.321 139.629 577.193 140.152 577.193 140.76C577.193 141.357 577.321 141.885 577.577 142.344C577.833 142.792 578.174 143.139 578.601 143.384C579.027 143.629 579.513 143.752 580.057 143.752ZM582.953 145V142.712L583.049 140.744L582.889 138.776V133.128H584.425V145H582.953ZM591.107 145.096C590.2 145.096 589.4 144.909 588.707 144.536C588.024 144.163 587.491 143.651 587.107 143C586.734 142.349 586.547 141.603 586.547 140.76C586.547 139.917 586.728 139.171 587.091 138.52C587.464 137.869 587.971 137.363 588.611 137C589.262 136.627 589.992 136.44 590.803 136.44C591.624 136.44 592.35 136.621 592.979 136.984C593.608 137.347 594.099 137.859 594.451 138.52C594.814 139.171 594.995 139.933 594.995 140.808C594.995 140.872 594.99 140.947 594.979 141.032C594.979 141.117 594.974 141.197 594.963 141.272H587.747V140.168H594.163L593.539 140.552C593.55 140.008 593.438 139.523 593.203 139.096C592.968 138.669 592.643 138.339 592.227 138.104C591.822 137.859 591.347 137.736 590.803 137.736C590.27 137.736 589.795 137.859 589.379 138.104C588.963 138.339 588.638 138.675 588.403 139.112C588.168 139.539 588.051 140.029 588.051 140.584V140.84C588.051 141.405 588.179 141.912 588.435 142.36C588.702 142.797 589.07 143.139 589.539 143.384C590.008 143.629 590.547 143.752 591.155 143.752C591.656 143.752 592.11 143.667 592.515 143.496C592.931 143.325 593.294 143.069 593.603 142.728L594.451 143.72C594.067 144.168 593.587 144.509 593.011 144.744C592.446 144.979 591.811 145.096 591.107 145.096ZM601.624 145.096C600.92 145.096 600.275 144.936 599.688 144.616C599.112 144.285 598.648 143.8 598.296 143.16C597.955 142.52 597.784 141.72 597.784 140.76C597.784 139.8 597.949 139 598.28 138.36C598.621 137.72 599.08 137.24 599.656 136.92C600.243 136.6 600.899 136.44 601.624 136.44C602.456 136.44 603.192 136.621 603.832 136.984C604.472 137.347 604.979 137.853 605.352 138.504C605.725 139.144 605.912 139.896 605.912 140.76C605.912 141.624 605.725 142.381 605.352 143.032C604.979 143.683 604.472 144.189 603.832 144.552C603.192 144.915 602.456 145.096 601.624 145.096ZM597.128 148.104V136.52H598.6V138.808L598.504 140.776L598.664 142.744V148.104H597.128ZM601.496 143.752C602.04 143.752 602.525 143.629 602.952 143.384C603.389 143.139 603.731 142.792 603.976 142.344C604.232 141.885 604.36 141.357 604.36 140.76C604.36 140.152 604.232 139.629 603.976 139.192C603.731 138.744 603.389 138.397 602.952 138.152C602.525 137.907 602.04 137.784 601.496 137.784C600.963 137.784 600.477 137.907 600.04 138.152C599.613 138.397 599.272 138.744 599.016 139.192C598.771 139.629 598.648 140.152 598.648 140.76C598.648 141.357 598.771 141.885 599.016 142.344C599.272 142.792 599.613 143.139 600.04 143.384C600.477 143.629 600.963 143.752 601.496 143.752ZM611.666 145.096C610.813 145.096 610.055 144.909 609.394 144.536C608.733 144.163 608.21 143.651 607.826 143C607.442 142.339 607.25 141.592 607.25 140.76C607.25 139.917 607.442 139.171 607.826 138.52C608.21 137.869 608.733 137.363 609.394 137C610.055 136.627 610.813 136.44 611.666 136.44C612.509 136.44 613.261 136.627 613.922 137C614.594 137.363 615.117 137.869 615.49 138.52C615.874 139.16 616.066 139.907 616.066 140.76C616.066 141.603 615.874 142.349 615.49 143C615.117 143.651 614.594 144.163 613.922 144.536C613.261 144.909 612.509 145.096 611.666 145.096ZM611.666 143.752C612.21 143.752 612.695 143.629 613.122 143.384C613.559 143.139 613.901 142.792 614.146 142.344C614.391 141.885 614.514 141.357 614.514 140.76C614.514 140.152 614.391 139.629 614.146 139.192C613.901 138.744 613.559 138.397 613.122 138.152C612.695 137.907 612.21 137.784 611.666 137.784C611.122 137.784 610.637 137.907 610.21 138.152C609.783 138.397 609.442 138.744 609.186 139.192C608.93 139.629 608.802 140.152 608.802 140.76C608.802 141.357 608.93 141.885 609.186 142.344C609.442 142.792 609.783 143.139 610.21 143.384C610.637 143.629 611.122 143.752 611.666 143.752ZM620.622 145.096C619.918 145.096 619.246 145 618.606 144.808C617.977 144.616 617.481 144.381 617.118 144.104L617.758 142.888C618.121 143.133 618.569 143.341 619.102 143.512C619.636 143.683 620.18 143.768 620.734 143.768C621.449 143.768 621.961 143.667 622.27 143.464C622.59 143.261 622.75 142.979 622.75 142.616C622.75 142.349 622.654 142.141 622.462 141.992C622.27 141.843 622.014 141.731 621.694 141.656C621.385 141.581 621.038 141.517 620.654 141.464C620.27 141.4 619.886 141.325 619.502 141.24C619.118 141.144 618.766 141.016 618.446 140.856C618.126 140.685 617.87 140.456 617.678 140.168C617.486 139.869 617.39 139.475 617.39 138.984C617.39 138.472 617.534 138.024 617.822 137.64C618.11 137.256 618.516 136.963 619.038 136.76C619.572 136.547 620.201 136.44 620.926 136.44C621.481 136.44 622.041 136.509 622.606 136.648C623.182 136.776 623.652 136.963 624.014 137.208L623.358 138.424C622.974 138.168 622.574 137.992 622.158 137.896C621.742 137.8 621.326 137.752 620.91 137.752C620.238 137.752 619.737 137.864 619.406 138.088C619.076 138.301 618.91 138.579 618.91 138.92C618.91 139.208 619.006 139.432 619.198 139.592C619.401 139.741 619.657 139.859 619.966 139.944C620.286 140.029 620.638 140.104 621.022 140.168C621.406 140.221 621.79 140.296 622.174 140.392C622.558 140.477 622.905 140.6 623.214 140.76C623.534 140.92 623.79 141.144 623.982 141.432C624.185 141.72 624.286 142.104 624.286 142.584C624.286 143.096 624.137 143.539 623.838 143.912C623.54 144.285 623.118 144.579 622.574 144.792C622.03 144.995 621.38 145.096 620.622 145.096ZM626.206 145V136.52H627.742V145H626.206ZM626.974 134.888C626.675 134.888 626.425 134.792 626.222 134.6C626.03 134.408 625.934 134.173 625.934 133.896C625.934 133.608 626.03 133.368 626.222 133.176C626.425 132.984 626.675 132.888 626.974 132.888C627.273 132.888 627.518 132.984 627.71 133.176C627.913 133.357 628.014 133.587 628.014 133.864C628.014 134.152 627.918 134.397 627.726 134.6C627.534 134.792 627.283 134.888 626.974 134.888ZM633.587 145.096C632.733 145.096 632.072 144.867 631.603 144.408C631.133 143.949 630.899 143.293 630.899 142.44V134.664H632.435V142.376C632.435 142.835 632.547 143.187 632.771 143.432C633.005 143.677 633.336 143.8 633.763 143.8C634.243 143.8 634.643 143.667 634.963 143.4L635.443 144.504C635.208 144.707 634.925 144.856 634.595 144.952C634.275 145.048 633.939 145.096 633.587 145.096ZM629.459 137.784V136.52H634.867V137.784H629.459ZM639.732 145.096C639.028 145.096 638.356 145 637.716 144.808C637.086 144.616 636.59 144.381 636.228 144.104L636.868 142.888C637.23 143.133 637.678 143.341 638.212 143.512C638.745 143.683 639.289 143.768 639.844 143.768C640.558 143.768 641.07 143.667 641.38 143.464C641.7 143.261 641.86 142.979 641.86 142.616C641.86 142.349 641.764 142.141 641.572 141.992C641.38 141.843 641.124 141.731 640.804 141.656C640.494 141.581 640.148 141.517 639.764 141.464C639.38 141.4 638.996 141.325 638.612 141.24C638.228 141.144 637.876 141.016 637.556 140.856C637.236 140.685 636.98 140.456 636.788 140.168C636.596 139.869 636.5 139.475 636.5 138.984C636.5 138.472 636.644 138.024 636.932 137.64C637.22 137.256 637.625 136.963 638.148 136.76C638.681 136.547 639.31 136.44 640.036 136.44C640.59 136.44 641.15 136.509 641.716 136.648C642.292 136.776 642.761 136.963 643.124 137.208L642.468 138.424C642.084 138.168 641.684 137.992 641.268 137.896C640.852 137.8 640.436 137.752 640.02 137.752C639.348 137.752 638.846 137.864 638.516 138.088C638.185 138.301 638.02 138.579 638.02 138.92C638.02 139.208 638.116 139.432 638.308 139.592C638.51 139.741 638.766 139.859 639.076 139.944C639.396 140.029 639.748 140.104 640.132 140.168C640.516 140.221 640.9 140.296 641.284 140.392C641.668 140.477 642.014 140.6 642.324 140.76C642.644 140.92 642.9 141.144 643.092 141.432C643.294 141.72 643.396 142.104 643.396 142.584C643.396 143.096 643.246 143.539 642.948 143.912C642.649 144.285 642.228 144.579 641.684 144.792C641.14 144.995 640.489 145.096 639.732 145.096Z" fill="#414141"/>
<path d="M533.256 257L529.512 245.8H531.16L534.6 256.136H533.768L537.336 245.8H538.808L542.296 256.136H541.496L544.984 245.8H546.504L542.76 257H541.08L537.816 247.416H538.248L534.968 257H533.256ZM552.861 257V255.208L552.781 254.872V251.816C552.781 251.165 552.589 250.664 552.205 250.312C551.831 249.949 551.266 249.768 550.509 249.768C550.007 249.768 549.517 249.853 549.037 250.024C548.557 250.184 548.151 250.403 547.821 250.68L547.181 249.528C547.618 249.176 548.141 248.909 548.749 248.728C549.367 248.536 550.013 248.44 550.685 248.44C551.847 248.44 552.743 248.723 553.373 249.288C554.002 249.853 554.317 250.717 554.317 251.88V257H552.861ZM550.077 257.096C549.447 257.096 548.893 256.989 548.413 256.776C547.943 256.563 547.581 256.269 547.325 255.896C547.069 255.512 546.941 255.08 546.941 254.6C546.941 254.141 547.047 253.725 547.261 253.352C547.485 252.979 547.842 252.68 548.333 252.456C548.834 252.232 549.506 252.12 550.349 252.12H553.037V253.224H550.413C549.645 253.224 549.127 253.352 548.861 253.608C548.594 253.864 548.461 254.173 548.461 254.536C548.461 254.952 548.626 255.288 548.957 255.544C549.287 255.789 549.746 255.912 550.333 255.912C550.909 255.912 551.41 255.784 551.837 255.528C552.274 255.272 552.589 254.899 552.781 254.408L553.085 255.464C552.882 255.965 552.525 256.365 552.013 256.664C551.501 256.952 550.855 257.096 550.077 257.096ZM557.159 257V245.128H558.695V257H557.159ZM561.628 257V245.128H563.164V257H561.628ZM569.873 257.096C568.966 257.096 568.166 256.909 567.473 256.536C566.79 256.163 566.257 255.651 565.873 255C565.499 254.349 565.313 253.603 565.313 252.76C565.313 251.917 565.494 251.171 565.857 250.52C566.23 249.869 566.737 249.363 567.377 249C568.027 248.627 568.758 248.44 569.569 248.44C570.39 248.44 571.115 248.621 571.745 248.984C572.374 249.347 572.865 249.859 573.217 250.52C573.579 251.171 573.761 251.933 573.761 252.808C573.761 252.872 573.755 252.947 573.745 253.032C573.745 253.117 573.739 253.197 573.729 253.272H566.513V252.168H572.929L572.305 252.552C572.315 252.008 572.203 251.523 571.969 251.096C571.734 250.669 571.409 250.339 570.993 250.104C570.587 249.859 570.113 249.736 569.569 249.736C569.035 249.736 568.561 249.859 568.145 250.104C567.729 250.339 567.403 250.675 567.169 251.112C566.934 251.539 566.817 252.029 566.817 252.584V252.84C566.817 253.405 566.945 253.912 567.201 254.36C567.467 254.797 567.835 255.139 568.305 255.384C568.774 255.629 569.313 255.752 569.921 255.752C570.422 255.752 570.875 255.667 571.281 255.496C571.697 255.325 572.059 255.069 572.369 254.728L573.217 255.72C572.833 256.168 572.353 256.509 571.777 256.744C571.211 256.979 570.577 257.096 569.873 257.096ZM578.806 257.096C577.952 257.096 577.291 256.867 576.822 256.408C576.352 255.949 576.118 255.293 576.118 254.44V246.664H577.654V254.376C577.654 254.835 577.766 255.187 577.99 255.432C578.224 255.677 578.555 255.8 578.982 255.8C579.462 255.8 579.862 255.667 580.182 255.4L580.662 256.504C580.427 256.707 580.144 256.856 579.814 256.952C579.494 257.048 579.158 257.096 578.806 257.096ZM574.678 249.784V248.52H580.086V249.784H574.678ZM584.951 257.096C584.247 257.096 583.575 257 582.935 256.808C582.305 256.616 581.809 256.381 581.447 256.104L582.087 254.888C582.449 255.133 582.897 255.341 583.431 255.512C583.964 255.683 584.508 255.768 585.062 255.768C585.777 255.768 586.289 255.667 586.599 255.464C586.919 255.261 587.079 254.979 587.079 254.616C587.079 254.349 586.983 254.141 586.791 253.992C586.599 253.843 586.343 253.731 586.023 253.656C585.713 253.581 585.367 253.517 584.983 253.464C584.599 253.4 584.215 253.325 583.831 253.24C583.447 253.144 583.095 253.016 582.775 252.856C582.455 252.685 582.199 252.456 582.007 252.168C581.815 251.869 581.719 251.475 581.719 250.984C581.719 250.472 581.863 250.024 582.151 249.64C582.439 249.256 582.844 248.963 583.367 248.76C583.9 248.547 584.529 248.44 585.255 248.44C585.809 248.44 586.369 248.509 586.935 248.648C587.511 248.776 587.98 248.963 588.343 249.208L587.687 250.424C587.303 250.168 586.903 249.992 586.487 249.896C586.071 249.8 585.655 249.752 585.239 249.752C584.567 249.752 584.065 249.864 583.735 250.088C583.404 250.301 583.239 250.579 583.239 250.92C583.239 251.208 583.335 251.432 583.527 251.592C583.729 251.741 583.985 251.859 584.295 251.944C584.615 252.029 584.967 252.104 585.351 252.168C585.735 252.221 586.119 252.296 586.503 252.392C586.887 252.477 587.233 252.6 587.543 252.76C587.863 252.92 588.119 253.144 588.311 253.432C588.513 253.72 588.615 254.104 588.615 254.584C588.615 255.096 588.465 255.539 588.167 255.912C587.868 256.285 587.447 256.579 586.903 256.792C586.359 256.995 585.708 257.096 584.951 257.096Z" fill="#414141"/>
</svg>
