<svg width="517" height="378" viewBox="0 0 517 378" fill="none" xmlns="http://www.w3.org/2000/svg">
<g filter="url(#filter0_f_17133_8407)">
<path d="M503.5 189.248C503.5 286.462 424.484 365.281 327 365.281C229.516 365.281 150.5 286.462 150.5 189.248C150.5 92.034 229.516 13.2153 327 13.2153C424.484 13.2153 503.5 92.034 503.5 189.248Z" stroke="#810019" stroke-width="5"/>
</g>
<g clip-path="url(#clip0_17133_8407)">
<path d="M58.3068 151.721H0.03125V330.521H58.3068V151.721Z" fill="#F5F5F5"/>
<path d="M104.178 151.721H58.1211V330.521H104.178V151.721Z" fill="#FAFAFA"/>
<path d="M52.5967 180.336H3.16016V194.273H52.5967V180.336Z" fill="#E0E0E0"/>
<path d="M7.30497 182.088H4.53906V192.759H7.30497V182.088Z" fill="#F5F5F5"/>
<path d="M10.566 184.329C10.5673 184.505 10.5163 184.677 10.4197 184.824C10.323 184.97 10.1849 185.085 10.023 185.153C9.86108 185.221 9.68268 185.239 9.51048 185.205C9.33828 185.171 9.18006 185.086 9.05596 184.962C8.93185 184.838 8.84747 184.679 8.81355 184.507C8.77963 184.334 8.79771 184.156 8.86547 183.994C8.93324 183.831 9.04764 183.693 9.19411 183.596C9.34058 183.499 9.51251 183.448 9.68802 183.45C9.92033 183.451 10.1426 183.545 10.3069 183.709C10.4712 183.874 10.5643 184.096 10.566 184.329Z" fill="#FAFAFA"/>
<path d="M9.68655 188.984C10.1714 188.984 10.5645 188.591 10.5645 188.105C10.5645 187.619 10.1714 187.226 9.68655 187.226C9.20167 187.226 8.80859 187.619 8.80859 188.105C8.80859 188.591 9.20167 188.984 9.68655 188.984Z" fill="#FAFAFA"/>
<path d="M16.8056 183.45H14.0859V191.642H16.8056V183.45Z" fill="#F5F5F5"/>
<path d="M20.7314 183.45H18.0117V191.642H20.7314V183.45Z" fill="#F5F5F5"/>
<path d="M24.6611 183.45H21.9414V191.642H24.6611V183.45Z" fill="#F5F5F5"/>
<path d="M28.5908 183.45H25.8711V191.642H28.5908V183.45Z" fill="#F5F5F5"/>
<path d="M32.5205 183.45H29.8008V191.642H32.5205V183.45Z" fill="#F5F5F5"/>
<path d="M36.4502 183.45H33.7305V191.642H36.4502V183.45Z" fill="#F5F5F5"/>
<path d="M40.376 183.45H37.6562V191.642H40.376V183.45Z" fill="#F5F5F5"/>
<path d="M44.3056 183.45H41.5859V191.642H44.3056V183.45Z" fill="#F5F5F5"/>
<path d="M48.2392 183.45H45.5195V191.642H48.2392V183.45Z" fill="#F5F5F5"/>
<path d="M52.1689 183.45H49.4492V191.642H52.1689V183.45Z" fill="#F5F5F5"/>
<path d="M52.5967 202.664H3.16016V216.601H52.5967V202.664Z" fill="#E0E0E0"/>
<path d="M7.30497 204.416H4.53906V215.087H7.30497V204.416Z" fill="#F5F5F5"/>
<path d="M10.566 206.684C10.5673 206.859 10.5163 207.032 10.4197 207.178C10.323 207.325 10.1849 207.44 10.023 207.507C9.86108 207.575 9.68268 207.593 9.51048 207.559C9.33828 207.525 9.18006 207.441 9.05596 207.317C8.93185 207.192 8.84747 207.034 8.81355 206.861C8.77963 206.689 8.79771 206.51 8.86547 206.348C8.93324 206.186 9.04764 206.048 9.19411 205.951C9.34058 205.854 9.51251 205.803 9.68802 205.804C9.92033 205.806 10.1426 205.899 10.3069 206.064C10.4712 206.228 10.5643 206.451 10.566 206.684Z" fill="#FAFAFA"/>
<path d="M10.566 210.432C10.566 210.607 10.5139 210.779 10.4165 210.925C10.319 211.071 10.1804 211.184 10.0184 211.251C9.85639 211.318 9.67819 211.335 9.50643 211.3C9.33466 211.266 9.17706 211.181 9.05362 211.056C8.93018 210.931 8.84646 210.773 8.81308 210.601C8.77969 210.428 8.79815 210.25 8.86612 210.088C8.93408 209.926 9.04848 209.789 9.19482 209.692C9.34115 209.595 9.51281 209.545 9.68804 209.546C9.92149 209.548 10.1448 209.642 10.3093 209.808C10.4737 209.974 10.566 210.198 10.566 210.432Z" fill="#FAFAFA"/>
<path d="M16.8056 205.778H14.0859V213.97H16.8056V205.778Z" fill="#F5F5F5"/>
<path d="M20.7314 205.777H18.0117V213.969H20.7314V205.777Z" fill="#F5F5F5"/>
<path d="M24.6611 205.777H21.9414V213.969H24.6611V205.777Z" fill="#F5F5F5"/>
<path d="M28.5908 205.777H25.8711V213.969H28.5908V205.777Z" fill="#F5F5F5"/>
<path d="M32.5205 205.777H29.8008V213.969H32.5205V205.777Z" fill="#F5F5F5"/>
<path d="M36.4502 205.777H33.7305V213.969H36.4502V205.777Z" fill="#F5F5F5"/>
<path d="M40.376 205.777H37.6562V213.969H40.376V205.777Z" fill="#F5F5F5"/>
<path d="M44.3056 205.777H41.5859V213.969H44.3056V205.777Z" fill="#F5F5F5"/>
<path d="M48.2392 205.777H45.5195V213.969H48.2392V205.777Z" fill="#F5F5F5"/>
<path d="M52.1689 205.777H49.4492V213.969H52.1689V205.777Z" fill="#F5F5F5"/>
<path d="M52.5967 224.991H3.16016V238.929H52.5967V224.991Z" fill="#E0E0E0"/>
<path d="M7.30497 226.743H4.53906V237.414H7.30497V226.743Z" fill="#F5F5F5"/>
<path d="M10.566 228.985C10.5673 229.161 10.5163 229.333 10.4197 229.48C10.323 229.626 10.1849 229.741 10.023 229.809C9.86108 229.877 9.68268 229.895 9.51048 229.861C9.33828 229.827 9.18006 229.742 9.05596 229.618C8.93185 229.494 8.84747 229.335 8.81355 229.163C8.77963 228.99 8.79771 228.812 8.86547 228.649C8.93324 228.487 9.04764 228.349 9.19411 228.252C9.34058 228.155 9.51251 228.104 9.68802 228.105C9.92033 228.107 10.1426 228.2 10.3069 228.365C10.4712 228.53 10.5643 228.752 10.566 228.985Z" fill="#FAFAFA"/>
<path d="M9.68655 233.633C10.1714 233.633 10.5645 233.239 10.5645 232.753C10.5645 232.268 10.1714 231.874 9.68655 231.874C9.20167 231.874 8.80859 232.268 8.80859 232.753C8.80859 233.239 9.20167 233.633 9.68655 233.633Z" fill="#FAFAFA"/>
<path d="M16.8056 228.105H14.0859V236.297H16.8056V228.105Z" fill="#F5F5F5"/>
<path d="M20.7314 228.105H18.0117V236.297H20.7314V228.105Z" fill="#F5F5F5"/>
<path d="M24.6611 228.105H21.9414V236.297H24.6611V228.105Z" fill="#F5F5F5"/>
<path d="M28.5908 228.105H25.8711V236.297H28.5908V228.105Z" fill="#F5F5F5"/>
<path d="M32.5205 228.105H29.8008V236.297H32.5205V228.105Z" fill="#F5F5F5"/>
<path d="M36.4502 228.105H33.7305V236.297H36.4502V228.105Z" fill="#F5F5F5"/>
<path d="M40.376 228.105H37.6562V236.297H40.376V228.105Z" fill="#F5F5F5"/>
<path d="M44.3056 228.105H41.5859V236.297H44.3056V228.105Z" fill="#F5F5F5"/>
<path d="M48.2392 228.105H45.5195V236.297H48.2392V228.105Z" fill="#F5F5F5"/>
<path d="M52.1689 228.105H49.4492V236.297H52.1689V228.105Z" fill="#F5F5F5"/>
<path d="M52.5967 247.319H3.16016V261.256H52.5967V247.319Z" fill="#E0E0E0"/>
<path d="M7.30497 249.071H4.53906V259.742H7.30497V249.071Z" fill="#F5F5F5"/>
<path d="M10.566 251.312C10.5673 251.488 10.5163 251.66 10.4197 251.807C10.323 251.953 10.1849 252.068 10.023 252.136C9.86108 252.204 9.68268 252.222 9.51048 252.188C9.33828 252.154 9.18006 252.069 9.05596 251.945C8.93185 251.821 8.84747 251.662 8.81355 251.49C8.77963 251.317 8.79771 251.139 8.86547 250.976C8.93324 250.814 9.04764 250.676 9.19411 250.579C9.34058 250.482 9.51251 250.431 9.68802 250.433C9.92033 250.434 10.1426 250.528 10.3069 250.692C10.4712 250.857 10.5643 251.079 10.566 251.312Z" fill="#FAFAFA"/>
<path d="M9.68655 255.96C10.1714 255.96 10.5645 255.567 10.5645 255.081C10.5645 254.595 10.1714 254.202 9.68655 254.202C9.20167 254.202 8.80859 254.595 8.80859 255.081C8.80859 255.567 9.20167 255.96 9.68655 255.96Z" fill="#FAFAFA"/>
<path d="M16.8056 250.433H14.0859V258.625H16.8056V250.433Z" fill="#F5F5F5"/>
<path d="M20.7314 250.433H18.0117V258.624H20.7314V250.433Z" fill="#F5F5F5"/>
<path d="M24.6611 250.433H21.9414V258.624H24.6611V250.433Z" fill="#F5F5F5"/>
<path d="M28.5908 250.433H25.8711V258.624H28.5908V250.433Z" fill="#F5F5F5"/>
<path d="M32.5205 250.433H29.8008V258.624H32.5205V250.433Z" fill="#F5F5F5"/>
<path d="M36.4502 250.433H33.7305V258.624H36.4502V250.433Z" fill="#F5F5F5"/>
<path d="M40.376 250.433H37.6562V258.624H40.376V250.433Z" fill="#F5F5F5"/>
<path d="M44.3056 250.433H41.5859V258.624H44.3056V250.433Z" fill="#F5F5F5"/>
<path d="M48.2392 250.433H45.5195V258.624H48.2392V250.433Z" fill="#F5F5F5"/>
<path d="M52.1689 250.433H49.4492V258.624H52.1689V250.433Z" fill="#F5F5F5"/>
<path d="M52.5967 269.646H3.16016V283.584H52.5967V269.646Z" fill="#E0E0E0"/>
<path d="M7.30497 271.398H4.53906V282.07H7.30497V271.398Z" fill="#F5F5F5"/>
<path d="M10.566 273.64C10.5673 273.816 10.5163 273.988 10.4197 274.135C10.323 274.282 10.1849 274.396 10.023 274.464C9.86108 274.532 9.68268 274.55 9.51048 274.516C9.33828 274.482 9.18006 274.397 9.05596 274.273C8.93185 274.149 8.84747 273.99 8.81355 273.818C8.77963 273.645 8.79771 273.467 8.86547 273.305C8.93324 273.142 9.04764 273.004 9.19411 272.907C9.34058 272.81 9.51251 272.759 9.68802 272.761C9.92087 272.761 10.1442 272.853 10.3088 273.018C10.4735 273.183 10.566 273.407 10.566 273.64Z" fill="#FAFAFA"/>
<path d="M9.68655 278.288C10.1714 278.288 10.5645 277.894 10.5645 277.409C10.5645 276.923 10.1714 276.529 9.68655 276.529C9.20167 276.529 8.80859 276.923 8.80859 277.409C8.80859 277.894 9.20167 278.288 9.68655 278.288Z" fill="#FAFAFA"/>
<path d="M16.8056 272.761H14.0859V280.953H16.8056V272.761Z" fill="#F5F5F5"/>
<path d="M20.7314 272.761H18.0117V280.953H20.7314V272.761Z" fill="#F5F5F5"/>
<path d="M24.6611 272.761H21.9414V280.953H24.6611V272.761Z" fill="#F5F5F5"/>
<path d="M28.5908 272.761H25.8711V280.953H28.5908V272.761Z" fill="#F5F5F5"/>
<path d="M32.5205 272.761H29.8008V280.953H32.5205V272.761Z" fill="#F5F5F5"/>
<path d="M36.4502 272.761H33.7305V280.953H36.4502V272.761Z" fill="#F5F5F5"/>
<path d="M40.376 272.761H37.6562V280.953H40.376V272.761Z" fill="#F5F5F5"/>
<path d="M44.3056 272.761H41.5859V280.953H44.3056V272.761Z" fill="#F5F5F5"/>
<path d="M48.2392 272.761H45.5195V280.953H48.2392V272.761Z" fill="#F5F5F5"/>
<path d="M52.1689 272.761H49.4492V280.953H52.1689V272.761Z" fill="#F5F5F5"/>
<path d="M52.5967 291.975H3.16016V305.912H52.5967V291.975Z" fill="#E0E0E0"/>
<path d="M7.30497 293.727H4.53906V304.398H7.30497V293.727Z" fill="#F5F5F5"/>
<path d="M10.566 295.941C10.5673 296.117 10.5163 296.289 10.4197 296.436C10.323 296.582 10.1849 296.697 10.023 296.765C9.86108 296.833 9.68268 296.851 9.51048 296.817C9.33828 296.783 9.18006 296.698 9.05596 296.574C8.93185 296.45 8.84747 296.291 8.81355 296.119C8.77963 295.946 8.79771 295.768 8.86547 295.605C8.93324 295.443 9.04764 295.305 9.19411 295.208C9.34058 295.111 9.51251 295.06 9.68802 295.062C9.92087 295.062 10.1442 295.154 10.3088 295.319C10.4735 295.484 10.566 295.708 10.566 295.941Z" fill="#FAFAFA"/>
<path d="M9.68655 300.616C10.1714 300.616 10.5645 300.222 10.5645 299.736C10.5645 299.251 10.1714 298.857 9.68655 298.857C9.20167 298.857 8.80859 299.251 8.80859 299.736C8.80859 300.222 9.20167 300.616 9.68655 300.616Z" fill="#FAFAFA"/>
<path d="M16.8056 295.088H14.0859V303.28H16.8056V295.088Z" fill="#F5F5F5"/>
<path d="M20.7314 295.088H18.0117V303.28H20.7314V295.088Z" fill="#F5F5F5"/>
<path d="M24.6611 295.088H21.9414V303.28H24.6611V295.088Z" fill="#F5F5F5"/>
<path d="M28.5908 295.088H25.8711V303.28H28.5908V295.088Z" fill="#F5F5F5"/>
<path d="M32.5205 295.088H29.8008V303.28H32.5205V295.088Z" fill="#F5F5F5"/>
<path d="M36.4502 295.088H33.7305V303.28H36.4502V295.088Z" fill="#F5F5F5"/>
<path d="M40.376 295.088H37.6562V303.28H40.376V295.088Z" fill="#F5F5F5"/>
<path d="M44.3056 295.088H41.5859V303.28H44.3056V295.088Z" fill="#F5F5F5"/>
<path d="M48.2392 295.088H45.5195V303.28H48.2392V295.088Z" fill="#F5F5F5"/>
<path d="M52.1689 295.088H49.4492V303.28H52.1689V295.088Z" fill="#F5F5F5"/>
<path d="M52.5967 314.302H3.16016V328.239H52.5967V314.302Z" fill="#E0E0E0"/>
<path d="M7.30497 316.054H4.53906V326.725H7.30497V316.054Z" fill="#F5F5F5"/>
<path d="M10.566 318.295C10.5673 318.471 10.5163 318.643 10.4197 318.79C10.323 318.937 10.1849 319.051 10.023 319.119C9.86108 319.187 9.68268 319.205 9.51048 319.171C9.33828 319.137 9.18006 319.053 9.05596 318.928C8.93185 318.804 8.84747 318.646 8.81355 318.473C8.77963 318.301 8.79771 318.122 8.86547 317.96C8.93324 317.798 9.04764 317.659 9.19411 317.563C9.34058 317.466 9.51251 317.415 9.68802 317.416C9.92087 317.416 10.1442 317.509 10.3088 317.674C10.4735 317.838 10.566 318.062 10.566 318.295Z" fill="#FAFAFA"/>
<path d="M10.566 322.064C10.5673 322.24 10.5163 322.412 10.4197 322.559C10.323 322.705 10.1849 322.82 10.023 322.888C9.86108 322.956 9.68268 322.974 9.51048 322.94C9.33828 322.906 9.18006 322.821 9.05596 322.697C8.93185 322.573 8.84747 322.414 8.81355 322.242C8.77963 322.069 8.79771 321.891 8.86547 321.728C8.93324 321.566 9.04764 321.428 9.19411 321.331C9.34058 321.234 9.51251 321.183 9.68802 321.185C9.92087 321.185 10.1442 321.277 10.3088 321.442C10.4735 321.607 10.566 321.831 10.566 322.064Z" fill="#FAFAFA"/>
<path d="M16.8056 317.416H14.0859V325.608H16.8056V317.416Z" fill="#F5F5F5"/>
<path d="M20.7314 317.416H18.0117V325.608H20.7314V317.416Z" fill="#F5F5F5"/>
<path d="M24.6611 317.416H21.9414V325.608H24.6611V317.416Z" fill="#F5F5F5"/>
<path d="M28.5908 317.416H25.8711V325.608H28.5908V317.416Z" fill="#F5F5F5"/>
<path d="M32.5205 317.416H29.8008V325.608H32.5205V317.416Z" fill="#F5F5F5"/>
<path d="M36.4502 317.416H33.7305V325.608H36.4502V317.416Z" fill="#F5F5F5"/>
<path d="M40.376 317.416H37.6562V325.608H40.376V317.416Z" fill="#F5F5F5"/>
<path d="M44.3056 317.416H41.5859V325.608H44.3056V317.416Z" fill="#F5F5F5"/>
<path d="M48.2392 317.416H45.5195V325.608H48.2392V317.416Z" fill="#F5F5F5"/>
<path d="M52.1689 317.416H49.4492V325.608H52.1689V317.416Z" fill="#F5F5F5"/>
<path d="M33.7318 180.336C33.6959 180.195 33.6782 180.051 33.679 179.906C33.679 179.622 33.6394 179.205 33.6262 178.67C33.613 178.134 33.6262 177.473 33.5602 176.686C33.5339 175.83 33.4188 174.979 33.2169 174.147C32.9418 173.15 32.495 172.208 31.8967 171.364C31.2264 170.392 30.2884 169.636 29.1968 169.189C27.9688 168.751 26.6832 168.497 25.3813 168.435L21.1235 168.065C15.288 167.562 9.99385 167.231 6.16514 167.159C4.24419 167.119 2.6929 167.126 1.6169 167.159H0.362671C0.220171 167.176 0.0760944 167.176 -0.0664062 167.159C0.0745375 167.127 0.218257 167.109 0.362671 167.106L1.6169 167.013C2.6863 166.967 4.25739 166.914 6.16514 166.927C10.0071 166.927 15.3144 167.225 21.1499 167.727L25.4143 168.104C26.7687 168.177 28.1042 168.456 29.375 168.931C30.5175 169.411 31.4966 170.212 32.1937 171.238C32.7987 172.117 33.2455 173.095 33.514 174.127C33.7101 174.98 33.8098 175.851 33.811 176.726C33.811 177.493 33.811 178.147 33.811 178.709C33.811 179.271 33.811 179.628 33.811 179.952C33.7949 180.082 33.7684 180.21 33.7318 180.336Z" fill="#E0E0E0"/>
<path d="M18.732 180.336C18.7069 180.201 18.6958 180.063 18.699 179.926C18.699 179.622 18.699 179.265 18.699 178.762C18.699 178.26 18.699 177.638 18.6396 176.931C18.6021 176.132 18.3951 175.349 18.0323 174.637C17.4953 173.84 16.7147 173.239 15.8077 172.924C14.7742 172.524 13.6518 172.412 12.5599 172.6C11.9734 172.695 11.4067 172.888 10.8832 173.169C10.3343 173.443 9.876 173.87 9.56292 174.399C9.41362 174.662 9.33511 174.959 9.33511 175.261C9.33511 175.564 9.41362 175.861 9.56292 176.124C9.71999 176.4 9.93154 176.641 10.1847 176.832C10.4378 177.023 10.7271 177.16 11.035 177.235C11.3391 177.303 11.6555 177.293 11.9546 177.205C12.2536 177.117 12.5254 176.954 12.7447 176.733C13.1885 176.311 13.461 175.741 13.5098 175.13C13.5586 174.52 13.3801 173.913 13.0088 173.427C12.6662 172.944 12.2136 172.549 11.6885 172.276C11.173 172.044 10.6214 171.903 10.058 171.86C9.50351 171.774 8.95561 171.701 8.43411 171.642C7.38452 171.523 6.40094 171.456 5.49657 171.417C3.70104 171.344 2.23557 171.37 1.22558 171.37H0.0901721C-0.0435983 171.386 -0.17873 171.386 -0.3125 171.37C-0.180469 171.34 -0.045373 171.324 0.0901721 171.324L1.25199 171.265C2.26197 171.218 3.72084 171.159 5.53618 171.199C6.44054 171.199 7.43073 171.271 8.49352 171.377C9.02162 171.43 9.56952 171.503 10.1306 171.575L10.9888 171.714C11.2924 171.773 11.586 171.875 11.8601 172.018C12.4318 172.312 12.9234 172.741 13.2926 173.268C13.7102 173.809 13.9168 174.483 13.8735 175.166C13.8253 175.878 13.5148 176.547 13.0022 177.043C12.7374 177.303 12.4124 177.492 12.0564 177.595C11.7003 177.698 11.3244 177.71 10.9624 177.632C10.6059 177.546 10.2707 177.388 9.97772 177.168C9.68473 176.947 9.44018 176.668 9.25926 176.349C9.08233 176.033 8.9894 175.677 8.9894 175.314C8.9894 174.952 9.08233 174.596 9.25926 174.28C9.60086 173.695 10.1025 173.22 10.7049 172.911C11.2644 172.621 11.8658 172.42 12.4873 172.316C13.6385 172.129 14.8188 172.262 15.9001 172.699C16.8657 173.041 17.6887 173.698 18.2369 174.564C18.6087 175.31 18.8095 176.13 18.8244 176.964C18.864 177.685 18.8244 178.286 18.8244 178.815C18.8244 179.344 18.7848 179.668 18.7716 179.979C18.7717 180.099 18.7584 180.219 18.732 180.336Z" fill="#E0E0E0"/>
<path d="M37.7637 180.335C37.7142 180.185 37.6788 180.03 37.6581 179.873C37.6053 179.569 37.5194 179.126 37.394 178.55C37.0596 176.937 36.5733 175.358 35.9418 173.836C35.0486 171.561 33.5651 169.566 31.6444 168.058C30.4792 167.218 29.1125 166.702 27.6836 166.563C26.1494 166.391 24.6066 166.307 23.0628 166.312C16.6728 166.193 10.8835 166.213 6.69176 166.048C4.59917 165.975 2.90266 165.869 1.73424 165.79L0.413998 165.671C0.255978 165.664 0.0989881 165.642 -0.0546875 165.605C0.101144 165.589 0.258167 165.589 0.413998 165.605L1.73424 165.651C2.90926 165.697 4.59917 165.757 6.69176 165.803C10.8769 165.902 16.6662 165.836 23.0628 165.962C24.6243 165.956 26.1849 166.042 27.7364 166.219C29.2141 166.375 30.6241 166.92 31.8226 167.8C32.8764 168.612 33.7944 169.588 34.5423 170.689C35.1857 171.647 35.7256 172.671 36.153 173.744C36.7757 175.287 37.2337 176.891 37.5194 178.53C37.6251 179.112 37.6845 179.562 37.7175 179.853C37.75 180.012 37.7655 180.173 37.7637 180.335Z" fill="#E0E0E0"/>
<path d="M51.9165 153.942H3.83984V160.93H51.9165V153.942Z" fill="#E0E0E0"/>
<path d="M40.584 157.439H14.4102V160.937H40.584V157.439Z" fill="#F5F5F5"/>
<path d="M142.811 108.381H70.5273V330.157H142.811V108.381Z" fill="#F5F5F5"/>
<path d="M199.709 108.381H142.582V330.157H199.709V108.381Z" fill="#FAFAFA"/>
<path d="M135.725 143.872H74.4062V161.162H135.725V143.872Z" fill="#E0E0E0"/>
<path d="M79.5498 146.047H76.1172V159.277H79.5498V146.047Z" fill="#F5F5F5"/>
<path d="M83.5939 148.831C83.5952 149.049 83.5319 149.262 83.412 149.443C83.2921 149.625 83.121 149.767 82.9205 149.851C82.72 149.934 82.4992 149.957 82.286 149.915C82.0728 149.872 81.8769 149.768 81.7233 149.614C81.5696 149.46 81.4652 149.264 81.4231 149.05C81.381 148.837 81.4033 148.616 81.487 148.415C81.5708 148.214 81.7123 148.043 81.8935 147.922C82.0747 147.802 82.2874 147.739 82.5047 147.74C82.7936 147.74 83.0706 147.855 83.2749 148.06C83.4792 148.264 83.5939 148.542 83.5939 148.831Z" fill="#FAFAFA"/>
<path d="M82.5033 154.596C83.1048 154.596 83.5925 154.108 83.5925 153.505C83.5925 152.903 83.1048 152.415 82.5033 152.415C81.9017 152.415 81.4141 152.903 81.4141 153.505C81.4141 154.108 81.9017 154.596 82.5033 154.596Z" fill="#FAFAFA"/>
<path d="M91.3342 147.74H87.9609V157.902H91.3342V147.74Z" fill="#F5F5F5"/>
<path d="M96.2053 147.74H92.832V157.902H96.2053V147.74Z" fill="#F5F5F5"/>
<path d="M101.076 147.74H97.7031V157.902H101.076V147.74Z" fill="#F5F5F5"/>
<path d="M105.955 147.74H102.582V157.902H105.955V147.74Z" fill="#F5F5F5"/>
<path d="M110.826 147.74H107.453V157.902H110.826V147.74Z" fill="#F5F5F5"/>
<path d="M115.697 147.74H112.324V157.902H115.697V147.74Z" fill="#F5F5F5"/>
<path d="M120.576 147.74H117.203V157.902H120.576V147.74Z" fill="#F5F5F5"/>
<path d="M125.447 147.74H122.074V157.902H125.447V147.74Z" fill="#F5F5F5"/>
<path d="M130.319 147.74H126.945V157.902H130.319V147.74Z" fill="#F5F5F5"/>
<path d="M135.197 147.74H131.824V157.902H135.197V147.74Z" fill="#F5F5F5"/>
<path d="M135.725 171.568H74.4062V188.858H135.725V171.568Z" fill="#E0E0E0"/>
<path d="M79.5498 173.744H76.1172V186.974H79.5498V173.744Z" fill="#F5F5F5"/>
<path d="M83.594 176.527C83.5939 176.745 83.5295 176.957 83.4088 177.138C83.2881 177.318 83.1166 177.459 82.916 177.542C82.7153 177.625 82.4947 177.646 82.2819 177.603C82.0692 177.56 81.8739 177.455 81.721 177.301C81.568 177.147 81.4641 176.951 81.4226 176.737C81.3811 176.524 81.4037 176.303 81.4877 176.103C81.5716 175.902 81.7131 175.731 81.8942 175.611C82.0752 175.492 82.2877 175.428 82.5047 175.43C82.6483 175.43 82.7905 175.458 82.9231 175.513C83.0557 175.569 83.176 175.65 83.2773 175.752C83.3785 175.854 83.4586 175.975 83.5129 176.108C83.5673 176.241 83.5948 176.383 83.594 176.527Z" fill="#FAFAFA"/>
<path d="M83.5939 181.202C83.5952 181.42 83.5319 181.633 83.412 181.815C83.2921 181.996 83.121 182.138 82.9205 182.222C82.72 182.305 82.4992 182.328 82.286 182.286C82.0728 182.244 81.8769 182.139 81.7233 181.985C81.5696 181.831 81.4652 181.635 81.4231 181.421C81.381 181.208 81.4033 180.987 81.487 180.786C81.5708 180.585 81.7123 180.414 81.8935 180.294C82.0747 180.173 82.2874 180.11 82.5047 180.111C82.7936 180.111 83.0706 180.226 83.2749 180.431C83.4792 180.635 83.5939 180.913 83.5939 181.202Z" fill="#FAFAFA"/>
<path d="M91.3342 175.43H87.9609V185.592H91.3342V175.43Z" fill="#F5F5F5"/>
<path d="M96.2053 175.43H92.832V185.592H96.2053V175.43Z" fill="#F5F5F5"/>
<path d="M101.076 175.43H97.7031V185.592H101.076V175.43Z" fill="#F5F5F5"/>
<path d="M105.955 175.43H102.582V185.592H105.955V175.43Z" fill="#F5F5F5"/>
<path d="M110.826 175.43H107.453V185.592H110.826V175.43Z" fill="#F5F5F5"/>
<path d="M115.697 175.43H112.324V185.592H115.697V175.43Z" fill="#F5F5F5"/>
<path d="M120.576 175.43H117.203V185.592H120.576V175.43Z" fill="#F5F5F5"/>
<path d="M125.447 175.43H122.074V185.592H125.447V175.43Z" fill="#F5F5F5"/>
<path d="M130.319 175.43H126.945V185.592H130.319V175.43Z" fill="#F5F5F5"/>
<path d="M135.197 175.43H131.824V185.592H135.197V175.43Z" fill="#F5F5F5"/>
<path d="M135.725 199.265H74.4062V216.555H135.725V199.265Z" fill="#E0E0E0"/>
<path d="M79.5498 201.434H76.1172V214.664H79.5498V201.434Z" fill="#F5F5F5"/>
<path d="M83.5939 204.217C83.5952 204.435 83.5319 204.648 83.412 204.829C83.2921 205.011 83.121 205.152 82.9205 205.236C82.72 205.32 82.4992 205.342 82.286 205.3C82.0728 205.258 81.8769 205.153 81.7233 205C81.5696 204.846 81.4652 204.65 81.4231 204.436C81.381 204.223 81.4033 204.001 81.487 203.8C81.5708 203.6 81.7123 203.428 81.8935 203.308C82.0747 203.188 82.2874 203.125 82.5047 203.126C82.7936 203.126 83.0706 203.241 83.2749 203.446C83.4792 203.65 83.5939 203.928 83.5939 204.217Z" fill="#FAFAFA"/>
<path d="M82.5033 209.983C83.1048 209.983 83.5925 209.494 83.5925 208.892C83.5925 208.289 83.1048 207.801 82.5033 207.801C81.9017 207.801 81.4141 208.289 81.4141 208.892C81.4141 209.494 81.9017 209.983 82.5033 209.983Z" fill="#FAFAFA"/>
<path d="M91.3342 203.126H87.9609V213.288H91.3342V203.126Z" fill="#F5F5F5"/>
<path d="M96.2053 203.126H92.832V213.288H96.2053V203.126Z" fill="#F5F5F5"/>
<path d="M101.076 203.126H97.7031V213.288H101.076V203.126Z" fill="#F5F5F5"/>
<path d="M105.955 203.126H102.582V213.288H105.955V203.126Z" fill="#F5F5F5"/>
<path d="M110.826 203.126H107.453V213.288H110.826V203.126Z" fill="#F5F5F5"/>
<path d="M115.697 203.126H112.324V213.288H115.697V203.126Z" fill="#F5F5F5"/>
<path d="M120.576 203.126H117.203V213.288H120.576V203.126Z" fill="#F5F5F5"/>
<path d="M125.447 203.126H122.074V213.288H125.447V203.126Z" fill="#F5F5F5"/>
<path d="M130.319 203.126H126.945V213.288H130.319V203.126Z" fill="#F5F5F5"/>
<path d="M135.197 203.126H131.824V213.288H135.197V203.126Z" fill="#F5F5F5"/>
<path d="M135.725 226.955H74.4062V244.245H135.725V226.955Z" fill="#E0E0E0"/>
<path d="M79.5498 229.13H76.1172V242.36H79.5498V229.13Z" fill="#F5F5F5"/>
<path d="M83.5939 231.914C83.5952 232.131 83.5319 232.344 83.412 232.526C83.2921 232.707 83.121 232.849 82.9205 232.933C82.72 233.017 82.4992 233.039 82.286 232.997C82.0728 232.955 81.8769 232.85 81.7233 232.696C81.5696 232.542 81.4652 232.346 81.4231 232.133C81.381 231.919 81.4033 231.698 81.487 231.497C81.5708 231.296 81.7123 231.125 81.8935 231.005C82.0747 230.885 82.2874 230.821 82.5047 230.823C82.7936 230.823 83.0706 230.938 83.2749 231.142C83.4792 231.347 83.5939 231.624 83.5939 231.914Z" fill="#FAFAFA"/>
<path d="M83.5939 236.588C83.5952 236.806 83.5319 237.019 83.412 237.2C83.2921 237.382 83.121 237.523 82.9205 237.607C82.72 237.691 82.4992 237.714 82.286 237.671C82.0728 237.629 81.8769 237.525 81.7233 237.371C81.5696 237.217 81.4652 237.021 81.4231 236.807C81.381 236.594 81.4033 236.372 81.487 236.172C81.5708 235.971 81.7123 235.799 81.8935 235.679C82.0747 235.559 82.2874 235.496 82.5047 235.497C82.7936 235.497 83.0706 235.612 83.2749 235.817C83.4792 236.021 83.5939 236.299 83.5939 236.588Z" fill="#FAFAFA"/>
<path d="M91.3342 230.823H87.9609V240.985H91.3342V230.823Z" fill="#F5F5F5"/>
<path d="M96.2053 230.823H92.832V240.985H96.2053V230.823Z" fill="#F5F5F5"/>
<path d="M101.076 230.823H97.7031V240.985H101.076V230.823Z" fill="#F5F5F5"/>
<path d="M105.955 230.823H102.582V240.985H105.955V230.823Z" fill="#F5F5F5"/>
<path d="M110.826 230.823H107.453V240.985H110.826V230.823Z" fill="#F5F5F5"/>
<path d="M115.697 230.823H112.324V240.985H115.697V230.823Z" fill="#F5F5F5"/>
<path d="M120.576 230.823H117.203V240.985H120.576V230.823Z" fill="#F5F5F5"/>
<path d="M125.447 230.823H122.074V240.985H125.447V230.823Z" fill="#F5F5F5"/>
<path d="M130.319 230.823H126.945V240.985H130.319V230.823Z" fill="#F5F5F5"/>
<path d="M135.197 230.823H131.824V240.985H135.197V230.823Z" fill="#F5F5F5"/>
<path d="M135.725 254.651H74.4062V271.941H135.725V254.651Z" fill="#E0E0E0"/>
<path d="M79.5498 256.826H76.1172V270.056H79.5498V256.826Z" fill="#F5F5F5"/>
<path d="M83.594 259.61C83.5939 259.828 83.5295 260.04 83.4088 260.221C83.2881 260.401 83.1166 260.542 82.916 260.625C82.7153 260.708 82.4947 260.729 82.2819 260.686C82.0692 260.643 81.8739 260.538 81.721 260.384C81.568 260.23 81.4641 260.034 81.4226 259.82C81.3811 259.607 81.4037 259.386 81.4877 259.186C81.5716 258.985 81.7131 258.814 81.8942 258.694C82.0752 258.575 82.2877 258.511 82.5047 258.513C82.6483 258.513 82.7905 258.541 82.9231 258.596C83.0557 258.652 83.176 258.733 83.2773 258.835C83.3785 258.937 83.4586 259.058 83.5129 259.191C83.5673 259.324 83.5948 259.466 83.594 259.61Z" fill="#FAFAFA"/>
<path d="M82.5033 265.375C83.1048 265.375 83.5925 264.887 83.5925 264.284C83.5925 263.682 83.1048 263.193 82.5033 263.193C81.9017 263.193 81.4141 263.682 81.4141 264.284C81.4141 264.887 81.9017 265.375 82.5033 265.375Z" fill="#FAFAFA"/>
<path d="M91.3342 258.513H87.9609V268.675H91.3342V258.513Z" fill="#F5F5F5"/>
<path d="M96.2053 258.513H92.832V268.675H96.2053V258.513Z" fill="#F5F5F5"/>
<path d="M101.076 258.513H97.7031V268.675H101.076V258.513Z" fill="#F5F5F5"/>
<path d="M105.955 258.513H102.582V268.675H105.955V258.513Z" fill="#F5F5F5"/>
<path d="M110.826 258.513H107.453V268.675H110.826V258.513Z" fill="#F5F5F5"/>
<path d="M115.697 258.513H112.324V268.675H115.697V258.513Z" fill="#F5F5F5"/>
<path d="M120.576 258.513H117.203V268.675H120.576V258.513Z" fill="#F5F5F5"/>
<path d="M125.447 258.513H122.074V268.675H125.447V258.513Z" fill="#F5F5F5"/>
<path d="M130.319 258.513H126.945V268.675H130.319V258.513Z" fill="#F5F5F5"/>
<path d="M135.197 258.513H131.824V268.675H135.197V258.513Z" fill="#F5F5F5"/>
<path d="M135.725 282.341H74.4062V299.63H135.725V282.341Z" fill="#E0E0E0"/>
<path d="M79.5498 284.517H76.1172V297.747H79.5498V284.517Z" fill="#F5F5F5"/>
<path d="M83.5939 287.3C83.5952 287.518 83.5319 287.731 83.412 287.912C83.2921 288.094 83.121 288.235 82.9205 288.319C82.72 288.403 82.4992 288.425 82.286 288.383C82.0728 288.341 81.8769 288.236 81.7233 288.083C81.5696 287.929 81.4652 287.733 81.4231 287.519C81.381 287.306 81.4033 287.084 81.487 286.883C81.5708 286.683 81.7123 286.511 81.8935 286.391C82.0747 286.271 82.2874 286.208 82.5047 286.209C82.7936 286.209 83.0706 286.324 83.2749 286.529C83.4792 286.733 83.5939 287.011 83.5939 287.3Z" fill="#FAFAFA"/>
<path d="M83.5939 291.974C83.5952 292.192 83.5319 292.405 83.412 292.586C83.2921 292.768 83.121 292.91 82.9205 292.994C82.72 293.077 82.4992 293.1 82.286 293.058C82.0728 293.015 81.8769 292.911 81.7233 292.757C81.5696 292.603 81.4652 292.407 81.4231 292.193C81.381 291.98 81.4033 291.759 81.487 291.558C81.5708 291.357 81.7123 291.186 81.8935 291.066C82.0747 290.945 82.2874 290.882 82.5047 290.883C82.7936 290.883 83.0706 290.998 83.2749 291.203C83.4792 291.407 83.5939 291.685 83.5939 291.974Z" fill="#FAFAFA"/>
<path d="M91.3342 286.209H87.9609V296.371H91.3342V286.209Z" fill="#F5F5F5"/>
<path d="M96.2053 286.209H92.832V296.371H96.2053V286.209Z" fill="#F5F5F5"/>
<path d="M101.076 286.209H97.7031V296.371H101.076V286.209Z" fill="#F5F5F5"/>
<path d="M105.955 286.209H102.582V296.371H105.955V286.209Z" fill="#F5F5F5"/>
<path d="M110.826 286.209H107.453V296.371H110.826V286.209Z" fill="#F5F5F5"/>
<path d="M115.697 286.209H112.324V296.371H115.697V286.209Z" fill="#F5F5F5"/>
<path d="M120.576 286.209H117.203V296.371H120.576V286.209Z" fill="#F5F5F5"/>
<path d="M125.447 286.209H122.074V296.371H125.447V286.209Z" fill="#F5F5F5"/>
<path d="M130.319 286.209H126.945V296.371H130.319V286.209Z" fill="#F5F5F5"/>
<path d="M135.197 286.209H131.824V296.371H135.197V286.209Z" fill="#F5F5F5"/>
<path d="M135.725 310.037H74.4062V327.327H135.725V310.037Z" fill="#E0E0E0"/>
<path d="M79.5498 312.213H76.1172V325.443H79.5498V312.213Z" fill="#F5F5F5"/>
<path d="M83.5939 314.996C83.5952 315.214 83.5319 315.427 83.412 315.608C83.2921 315.79 83.121 315.932 82.9205 316.016C82.72 316.099 82.4992 316.122 82.286 316.08C82.0728 316.037 81.8769 315.933 81.7233 315.779C81.5696 315.625 81.4652 315.429 81.4231 315.215C81.381 315.002 81.4033 314.781 81.487 314.58C81.5708 314.379 81.7123 314.208 81.8935 314.087C82.0747 313.967 82.2874 313.904 82.5047 313.905C82.7936 313.905 83.0706 314.02 83.2749 314.225C83.4792 314.429 83.5939 314.707 83.5939 314.996Z" fill="#FAFAFA"/>
<path d="M82.5033 320.761C83.1048 320.761 83.5925 320.273 83.5925 319.671C83.5925 319.068 83.1048 318.58 82.5033 318.58C81.9017 318.58 81.4141 319.068 81.4141 319.671C81.4141 320.273 81.9017 320.761 82.5033 320.761Z" fill="#FAFAFA"/>
<path d="M91.3342 313.905H87.9609V324.067H91.3342V313.905Z" fill="#F5F5F5"/>
<path d="M96.2053 313.905H92.832V324.067H96.2053V313.905Z" fill="#F5F5F5"/>
<path d="M101.076 313.905H97.7031V324.067H101.076V313.905Z" fill="#F5F5F5"/>
<path d="M105.955 313.905H102.582V324.067H105.955V313.905Z" fill="#F5F5F5"/>
<path d="M110.826 313.905H107.453V324.067H110.826V313.905Z" fill="#F5F5F5"/>
<path d="M115.697 313.905H112.324V324.067H115.697V313.905Z" fill="#F5F5F5"/>
<path d="M120.576 313.905H117.203V324.067H120.576V313.905Z" fill="#F5F5F5"/>
<path d="M125.447 313.905H122.074V324.067H125.447V313.905Z" fill="#F5F5F5"/>
<path d="M130.319 313.905H126.945V324.067H130.319V313.905Z" fill="#F5F5F5"/>
<path d="M135.197 313.905H131.824V324.067H135.197V313.905Z" fill="#F5F5F5"/>
<path d="M112.324 143.872C112.282 143.699 112.26 143.521 112.258 143.343C112.258 142.986 112.212 142.47 112.192 141.803C112.172 141.135 112.192 140.322 112.113 139.376C112.083 138.315 111.942 137.26 111.69 136.229C111.347 134.993 110.793 133.825 110.053 132.778C109.218 131.574 108.054 130.637 106.7 130.08C105.173 129.521 103.571 129.196 101.947 129.115L96.6659 128.659C89.4046 127.997 82.8627 127.62 78.1033 127.528C75.7268 127.475 73.8059 127.488 72.4724 127.495H70.9409C70.7633 127.515 70.5839 127.515 70.4062 127.495C70.5792 127.453 70.7564 127.431 70.9343 127.429L72.4658 127.336C73.7861 127.277 75.7268 127.217 78.1099 127.23C82.8759 127.23 89.4574 127.594 96.6989 128.222L101.98 128.692C103.647 128.781 105.29 129.127 106.852 129.716C108.271 130.31 109.486 131.305 110.35 132.579C111.101 133.666 111.655 134.877 111.987 136.156C112.228 137.215 112.352 138.297 112.357 139.383C112.357 140.335 112.357 141.148 112.357 141.816C112.357 142.484 112.357 142.953 112.357 143.35C112.365 143.524 112.354 143.7 112.324 143.872Z" fill="#E0E0E0"/>
<path d="M93.7276 143.873C93.6882 143.708 93.6727 143.539 93.6814 143.37C93.6814 142.991 93.6814 142.508 93.6814 141.922C93.6814 141.301 93.6814 140.534 93.6088 139.648C93.5593 138.659 93.3006 137.692 92.8496 136.811C92.1837 135.813 91.2064 135.065 90.0705 134.682C88.7894 134.185 87.3977 134.046 86.0438 134.279C85.3161 134.397 84.6132 134.636 83.9644 134.986C83.2941 135.33 82.7354 135.857 82.3537 136.507C82.1673 136.834 82.0693 137.205 82.0693 137.582C82.0693 137.958 82.1673 138.329 82.3537 138.656C82.5478 138.997 82.8097 139.294 83.1231 139.529C83.4364 139.765 83.7947 139.933 84.1756 140.025C84.553 140.11 84.9456 140.098 85.3172 139.99C85.6888 139.883 86.0272 139.683 86.3012 139.41C86.8595 138.872 87.2003 138.147 87.2584 137.373C87.3004 136.622 87.0655 135.88 86.5983 135.291C86.1807 134.692 85.6261 134.202 84.981 133.863C84.3448 133.574 83.6637 133.397 82.9676 133.34C82.3075 133.241 81.6012 133.148 80.9476 133.076C79.6274 132.924 78.426 132.844 77.3104 132.791C75.0792 132.705 73.2638 132.739 72.0294 132.732H70.5903C70.4214 132.751 70.2509 132.751 70.082 132.732C70.2455 132.688 70.4145 132.668 70.5837 132.672L72.0294 132.593C73.277 132.547 75.0924 132.461 77.3104 132.514C78.4326 132.514 79.667 132.606 80.9806 132.739C81.6408 132.805 82.3009 132.891 83.0138 132.99C83.3637 133.043 83.7135 133.089 84.0766 133.155C84.4556 133.229 84.8223 133.356 85.1658 133.532C85.871 133.898 86.4779 134.429 86.9349 135.079C87.4539 135.752 87.7119 136.591 87.6611 137.439C87.5981 138.322 87.2099 139.149 86.5719 139.76C86.2455 140.085 85.843 140.322 85.4013 140.45C84.9595 140.578 84.4927 140.594 84.0436 140.494C83.6008 140.389 83.1846 140.193 82.8211 139.918C82.4576 139.644 82.1546 139.298 81.9312 138.901C81.7139 138.508 81.5999 138.067 81.5999 137.618C81.5999 137.169 81.7139 136.728 81.9312 136.335C82.3545 135.612 82.9751 135.025 83.7201 134.643C84.4132 134.279 85.1597 134.029 85.9316 133.902C87.3584 133.672 88.8209 133.835 90.1629 134.372C91.3599 134.8 92.3813 135.614 93.0675 136.686C93.5251 137.614 93.773 138.632 93.7936 139.668C93.8398 140.56 93.7936 141.334 93.7936 141.962C93.7936 142.59 93.7474 143.026 93.7342 143.403C93.7455 143.56 93.7433 143.717 93.7276 143.873Z" fill="#E0E0E0"/>
<path d="M117.334 143.872C117.268 143.689 117.223 143.498 117.202 143.304C117.136 142.927 117.031 142.371 116.872 141.664C116.457 139.66 115.852 137.701 115.063 135.813C113.947 133 112.107 130.534 109.73 128.665C108.293 127.627 106.608 126.986 104.845 126.807C102.938 126.598 101.02 126.494 99.1017 126.497C91.1803 126.351 83.9982 126.378 78.7964 126.173C76.2021 126.08 74.1029 125.955 72.6507 125.849L70.9806 125.703C70.7872 125.693 70.5951 125.667 70.4062 125.624C70.5991 125.599 70.7943 125.599 70.9872 125.624L72.6639 125.684C74.1095 125.736 76.2153 125.809 78.8096 125.862C83.9982 125.988 91.1737 125.908 99.1083 126.06C101.047 126.057 102.984 126.165 104.911 126.384C106.744 126.584 108.492 127.268 109.974 128.368C111.284 129.372 112.425 130.58 113.354 131.945C114.142 133.136 114.805 134.406 115.334 135.733C116.103 137.652 116.669 139.647 117.024 141.684C117.149 142.398 117.229 142.96 117.268 143.343C117.306 143.517 117.328 143.694 117.334 143.872Z" fill="#E0E0E0"/>
<path d="M134.879 111.138H75.25V119.806H134.879V111.138Z" fill="#E0E0E0"/>
<path d="M120.828 115.475H88.3633V119.812H120.828V115.475Z" fill="#F5F5F5"/>
<path d="M260.523 98.6219L299.952 92.5854C301.209 100.835 299.855 109.271 296.08 116.71C292.304 124.149 286.298 130.217 278.903 134.062C271.509 137.906 263.097 139.335 254.851 138.146C246.604 136.958 238.936 133.212 232.924 127.435C226.911 121.658 222.857 114.14 221.329 105.937C219.801 97.7338 220.876 89.2572 224.405 81.6976C227.933 74.138 233.737 67.8752 241.001 63.7885C248.265 59.7018 256.625 57.9965 264.906 58.9121L260.523 98.6219Z" fill="#F5F5F5"/>
<path d="M273.313 59.0376L268.527 89.6563L298.53 84.01C298.53 84.01 294.12 66.8526 273.313 59.0376Z" fill="#E0E0E0"/>
<path d="M11.7748 89.8615C11.7271 85.6099 12.9378 81.4396 15.2542 77.8765C17.5705 74.3135 20.8887 71.5175 24.79 69.8414C28.6912 68.1653 33.0008 67.6842 37.1748 68.4588C41.3488 69.2333 45.2002 71.2289 48.243 74.1936C51.2858 77.1583 53.3837 80.9594 54.2718 85.117C55.16 89.2747 54.7986 93.6027 53.2334 97.5549C51.6682 101.507 48.9692 104.906 45.4771 107.324C41.9849 109.741 37.8561 111.068 33.6116 111.138C27.9013 111.209 22.396 109.009 18.3026 105.02C14.2092 101.032 11.8617 95.5806 11.7748 89.8615ZM43.5399 89.3457C43.4979 87.3123 42.8554 85.3368 41.6935 83.6687C40.5317 82.0006 38.9025 80.7145 37.0116 79.9729C35.1207 79.2313 33.0528 79.0673 31.069 79.5017C29.0851 79.9361 27.2742 80.9493 25.8647 82.4135C24.4553 83.8777 23.5105 85.7273 23.1495 87.7289C22.7886 89.7304 23.0277 91.7942 23.8367 93.6597C24.6457 95.5253 25.9883 97.109 27.6951 98.211C29.4019 99.313 31.3963 99.8839 33.4268 99.8517C36.1581 99.7996 38.7572 98.664 40.6533 96.6942C42.5494 94.7244 43.5876 92.0815 43.5399 89.3457Z" fill="#F5F5F5"/>
<path d="M11.7766 89.8613C11.6793 84.1451 13.8478 78.6233 17.8071 74.5053C21.7664 70.3873 27.1938 68.0088 32.9005 67.8906L33.0787 79.1768C30.3773 79.2731 27.8213 80.4267 25.9598 82.3899C24.0983 84.3531 23.0798 86.9692 23.123 89.6763C23.1662 92.3833 24.2677 94.9655 26.1909 96.868C28.1141 98.7706 30.7056 99.8418 33.4088 99.8515L33.5936 111.138C27.8862 111.205 22.385 109.003 18.2955 105.015C14.206 101.027 11.8618 95.5775 11.7766 89.8613Z" fill="#E0E0E0"/>
<path d="M30.9883 66.1584C34.2536 66.0801 37.5016 66.6552 40.5422 67.85C43.5828 69.0448 46.3548 70.8353 48.6958 73.1166C51.0368 75.3979 52.8997 78.1241 54.1755 81.1356C55.4514 84.1471 56.1144 87.3834 56.1257 90.6547L43.0091 90.8663C42.9035 84.2017 37.8337 80.0033 31.2061 80.1091L30.9883 66.1584Z" fill="#EBEBEB"/>
<path d="M361.665 296.305C361.616 292.053 362.826 287.881 365.142 284.317C367.458 280.753 370.776 277.956 374.677 276.279C378.579 274.602 382.889 274.121 387.064 274.895C391.238 275.669 395.09 277.665 398.134 280.63C401.177 283.595 403.275 287.397 404.163 291.555C405.051 295.713 404.689 300.042 403.123 303.994C401.557 307.947 398.857 311.346 395.364 313.763C391.871 316.18 387.741 317.506 383.496 317.575C377.788 317.643 372.285 315.444 368.193 311.457C364.102 307.47 361.754 302.022 361.665 296.305ZM393.424 295.789C393.381 293.757 392.738 291.784 391.576 290.117C390.414 288.451 388.785 287.167 386.895 286.427C385.006 285.687 382.939 285.524 380.957 285.959C378.975 286.394 377.166 287.407 375.758 288.87C374.35 290.334 373.407 292.182 373.046 294.182C372.686 296.182 372.926 298.244 373.734 300.108C374.543 301.972 375.885 303.555 377.59 304.656C379.296 305.757 381.289 306.327 383.317 306.295C386.048 306.243 388.647 305.107 390.542 303.137C392.437 301.167 393.473 298.524 393.424 295.789Z" fill="#F5F5F5"/>
<path d="M361.667 296.305C361.57 290.588 363.738 285.067 367.698 280.949C371.657 276.831 377.084 274.452 382.791 274.334L382.969 285.62C380.268 285.716 377.712 286.87 375.85 288.833C373.989 290.796 372.97 293.413 373.014 296.12C373.057 298.827 374.158 301.409 376.082 303.311C378.005 305.214 380.596 306.285 383.299 306.295L383.478 317.574C377.771 317.643 372.271 315.443 368.182 311.456C364.094 307.468 361.751 302.02 361.667 296.305Z" fill="#E0E0E0"/>
<path d="M380.879 272.602C384.144 272.523 387.392 273.099 390.433 274.293C393.473 275.488 396.245 277.279 398.586 279.56C400.927 281.841 402.79 284.567 404.066 287.579C405.342 290.59 406.005 293.827 406.016 297.098L392.9 297.31C392.794 290.638 387.724 286.44 381.097 286.546L380.879 272.602Z" fill="#EBEBEB"/>
<path d="M432.768 83.7188H343.348V185.929H432.768V83.7188Z" fill="white"/>
<path d="M432.763 185.929C432.763 185.929 432.763 185.764 432.763 185.44C432.763 185.116 432.763 184.646 432.763 184.025C432.763 182.769 432.763 180.917 432.763 178.504C432.763 173.677 432.763 166.603 432.724 157.651C432.724 139.726 432.684 114.192 432.651 83.7188L432.796 83.8643H343.39L343.555 83.699C343.555 121.386 343.555 156.52 343.555 185.909L343.416 185.77L408.273 185.843L426.406 185.876H431.186H432.829H431.212H426.459L408.359 185.909L343.416 185.982H343.277V185.843C343.277 156.454 343.277 121.313 343.277 83.6328V83.4609H343.449H432.856H433.008V83.7056C433.008 114.219 432.948 139.786 432.935 157.757C432.935 166.709 432.935 173.763 432.895 178.577C432.895 180.977 432.895 182.821 432.895 184.064C432.895 184.686 432.895 185.149 432.895 185.473C432.895 185.797 432.763 185.929 432.763 185.929Z" fill="#263238"/>
<path d="M425.079 135.938C425.079 136.004 424.089 135.442 422.208 134.847C419.539 134.02 416.718 133.81 413.956 134.232C412.062 134.522 410.225 135.113 408.517 135.984C406.578 137.032 404.781 138.326 403.17 139.832C401.421 141.386 399.678 143.138 397.671 144.771C395.626 146.525 393.232 147.823 390.648 148.579C389.31 148.927 387.918 149.01 386.548 148.824C385.23 148.625 383.948 148.231 382.746 147.654C380.557 146.506 378.433 145.239 376.382 143.859C374.552 142.636 372.531 141.729 370.402 141.174C368.539 140.72 366.615 140.573 364.705 140.738C361.924 140.981 359.235 141.856 356.843 143.297C355.159 144.328 354.361 145.108 354.321 145.055C354.281 145.002 354.499 144.844 354.889 144.493C355.457 143.977 356.069 143.51 356.717 143.098C358.737 141.786 361.001 140.896 363.373 140.48C365.744 140.064 368.175 140.132 370.52 140.678C372.709 141.227 374.791 142.139 376.679 143.376C378.716 144.736 380.828 145.981 383.003 147.105C385.314 148.291 387.974 148.603 390.496 147.984C392.996 147.25 395.313 145.995 397.295 144.302C399.275 142.715 401.018 140.996 402.8 139.409C404.454 137.881 406.301 136.576 408.293 135.528C410.056 134.655 411.949 134.073 413.897 133.802C416.717 133.409 419.59 133.69 422.281 134.622C423.007 134.868 423.713 135.171 424.393 135.528C424.635 135.642 424.865 135.779 425.079 135.938Z" fill="#810019"/>
<path d="M375.566 149.637H367.961V170.233H375.566V149.637Z" fill="#810019"/>
<path d="M407.823 149.637H400.219V170.233H407.823V149.637Z" fill="#810019"/>
<path d="M418.577 137.545H410.973V170.233H418.577V137.545Z" fill="#810019"/>
<path d="M365.726 163.747H358.121V170.676H365.726V163.747Z" fill="#810019"/>
<path d="M386.316 158.934H378.711V170.226H386.316V158.934Z" fill="#810019"/>
<path d="M397.069 156.342H389.465V170.226H397.069V156.342Z" fill="#810019"/>
<path d="M375.899 172.653C375.899 172.825 374.064 172.957 371.793 172.957C369.523 172.957 367.688 172.825 367.688 172.653C367.688 172.481 369.523 172.349 371.793 172.349C374.064 172.349 375.899 172.487 375.899 172.653Z" fill="#263238"/>
<path d="M366.407 172.653C366.407 172.825 364.572 172.957 362.301 172.957C360.03 172.957 358.195 172.825 358.195 172.653C358.195 172.481 360.03 172.349 362.301 172.349C364.572 172.349 366.407 172.487 366.407 172.653Z" fill="#263238"/>
<path d="M420.066 172.653C420.066 172.825 417.987 172.957 415.445 172.957C412.904 172.957 410.824 172.825 410.824 172.653C410.824 172.481 412.897 172.349 415.445 172.349C417.993 172.349 420.066 172.487 420.066 172.653Z" fill="#263238"/>
<path d="M408.773 172.653C408.773 172.825 406.7 172.957 404.152 172.957C401.604 172.957 399.531 172.825 399.531 172.653C399.531 172.481 401.611 172.349 404.152 172.349C406.694 172.349 408.773 172.487 408.773 172.653Z" fill="#263238"/>
<path d="M397.07 172.653C397.07 172.825 395.228 172.964 392.958 172.964C390.687 172.964 388.852 172.825 388.852 172.653C388.852 172.481 390.693 172.349 392.958 172.349C395.222 172.349 397.07 172.487 397.07 172.653Z" fill="#263238"/>
<path d="M385.957 172.653C385.957 172.825 384.115 172.964 381.844 172.964C379.573 172.964 377.738 172.825 377.738 172.653C377.738 172.481 379.58 172.349 381.844 172.349C384.108 172.349 385.957 172.487 385.957 172.653Z" fill="#263238"/>
<path d="M420.065 98.6147H357.941V124.453H420.065V98.6147Z" fill="#E0E0E0"/>
<path d="M370.851 106.787C370.851 107.361 370.681 107.922 370.362 108.399C370.044 108.877 369.591 109.249 369.062 109.468C368.532 109.688 367.949 109.746 367.387 109.634C366.825 109.522 366.309 109.245 365.903 108.839C365.498 108.433 365.222 107.916 365.11 107.353C364.999 106.79 365.056 106.206 365.275 105.676C365.495 105.146 365.866 104.692 366.343 104.373C366.819 104.055 367.379 103.884 367.953 103.884C368.333 103.883 368.711 103.958 369.063 104.103C369.415 104.249 369.734 104.463 370.004 104.732C370.273 105.002 370.486 105.322 370.632 105.675C370.777 106.028 370.851 106.405 370.851 106.787Z" fill="#263238"/>
<path d="M393.93 104.784H373.75V105.908H393.93V104.784Z" fill="#263238"/>
<path d="M413.007 107.329H373.75V108.453H413.007V107.329Z" fill="white"/>
<path d="M370.851 115.7C370.851 116.275 370.68 116.837 370.36 117.315C370.041 117.793 369.586 118.165 369.055 118.384C368.524 118.602 367.94 118.658 367.377 118.544C366.815 118.43 366.298 118.151 365.894 117.742C365.49 117.334 365.216 116.814 365.107 116.249C364.998 115.685 365.06 115.1 365.283 114.57C365.506 114.04 365.882 113.589 366.362 113.273C366.842 112.958 367.405 112.792 367.979 112.797C368.744 112.802 369.475 113.111 370.013 113.655C370.551 114.198 370.852 114.934 370.851 115.7Z" fill="#810019"/>
<path d="M384.054 113.696H373.75V114.82H384.054V113.696Z" fill="#810019"/>
<path d="M413.007 116.248H373.75V117.372H413.007V116.248Z" fill="white"/>
<path d="M391.787 211.859L391.145 287.124L444.81 287.584L445.453 212.319L391.787 211.859Z" fill="white"/>
<path d="M391.156 287.134C391.156 287.134 391.156 287.022 391.156 286.784V285.746C391.156 284.807 391.156 283.438 391.156 281.667C391.156 278.083 391.209 272.853 391.249 266.235C391.341 252.965 391.473 234.128 391.638 211.867V211.715H391.79L445.451 212.158H445.63V212.33C445.372 240.515 445.141 266.546 444.969 287.597V287.736H444.831L405.725 287.346L394.932 287.22L392.113 287.181H391.156H394.992L405.811 287.24L444.824 287.505L444.686 287.644C444.857 266.625 445.068 240.555 445.299 212.376L445.471 212.548L391.81 212.072L391.968 211.92C391.744 234.135 391.559 252.912 391.427 266.182C391.348 272.794 391.288 278.05 391.249 281.647C391.249 283.438 391.209 284.814 391.196 285.753C391.196 286.215 391.196 286.566 391.196 286.817C391.196 287.068 391.156 287.134 391.156 287.134Z" fill="#263238"/>
<path d="M398.645 230.207C398.645 230.035 407.536 229.969 418.494 230.062C429.452 230.154 438.338 230.373 438.338 230.545C438.338 230.716 429.452 230.783 418.488 230.69C407.523 230.597 398.645 230.379 398.645 230.207Z" fill="#263238"/>
<path d="M398.609 235.523C398.609 235.345 407.495 235.285 418.453 235.378C429.411 235.47 438.296 235.688 438.296 235.86C438.296 236.032 429.411 236.098 418.446 236.006C407.481 235.913 398.603 235.695 398.609 235.523Z" fill="#263238"/>
<path d="M398.559 240.833C398.559 240.661 407.444 240.601 418.402 240.694C429.36 240.786 438.252 241.005 438.245 241.177C438.239 241.348 429.36 241.415 418.395 241.322C407.431 241.229 398.552 241.011 398.559 240.833Z" fill="#263238"/>
<path d="M398.516 246.148C398.516 245.976 407.401 245.91 418.359 246.009C429.317 246.108 438.209 246.32 438.202 246.492C438.196 246.664 429.317 246.73 418.352 246.637C407.388 246.545 398.509 246.353 398.516 246.148Z" fill="#263238"/>
<path d="M398.469 251.464C398.469 251.292 407.354 251.226 418.312 251.325C429.27 251.424 438.162 251.636 438.155 251.808C438.149 251.98 429.27 252.046 418.312 251.947C407.354 251.848 398.469 251.643 398.469 251.464Z" fill="#263238"/>
<path d="M412.683 257.633H406.293V277.613H412.683V257.633Z" fill="#455A64"/>
<path d="M422.222 262.201H415.832V277.62H422.222V262.201Z" fill="#455A64"/>
<path d="M431.046 268.463H424.656V277.62H431.046V268.463Z" fill="#455A64"/>
<path d="M344.016 199.007H344.247H344.907H347.514L357.079 198.954L388.646 198.901L416.86 198.941H417.025V199.073C416.992 203.1 416.966 206.392 416.952 208.706C416.952 209.83 416.919 210.69 416.906 211.351C416.906 211.635 416.906 211.86 416.906 212.012C416.915 212.089 416.915 212.167 416.906 212.244C416.906 212.244 416.906 212.164 416.906 212.012C416.906 211.86 416.906 211.609 416.906 211.351C416.906 210.723 416.906 209.837 416.867 208.706C416.867 206.392 416.82 203.1 416.794 199.073L416.959 199.205L388.745 199.245L357.178 199.192L347.514 199.073L344.907 199.04H344.247L344.016 199.007Z" fill="#263238"/>
<path d="M343.184 100.896C343.046 100.914 342.906 100.914 342.768 100.896H341.573L337.144 100.942L322.212 101.002L322.377 100.83C322.377 101.947 322.377 103.124 322.41 104.314C322.469 111.078 322.476 117.207 322.41 121.637C322.41 123.852 322.364 125.65 322.318 126.886C322.318 127.508 322.271 127.984 322.245 128.314C322.234 128.481 322.212 128.647 322.179 128.81C322.179 128.81 322.179 126.066 322.179 121.637C322.179 117.207 322.1 111.058 322.047 104.321C322.047 103.124 322.047 101.954 322.047 100.836V100.658H322.219L337.15 100.711L341.573 100.896H342.768C342.907 100.885 343.046 100.885 343.184 100.896Z" fill="#263238"/>
<path d="M344.873 100.896C344.875 101.232 344.776 101.562 344.59 101.842C344.404 102.123 344.14 102.341 343.829 102.471C343.519 102.6 343.177 102.635 342.848 102.569C342.518 102.504 342.215 102.342 341.977 102.104C341.74 101.866 341.578 101.562 341.513 101.232C341.448 100.902 341.482 100.56 341.611 100.249C341.74 99.9383 341.959 99.673 342.239 99.4867C342.519 99.3005 342.847 99.2018 343.184 99.2031C343.631 99.2049 344.06 99.3838 344.377 99.7008C344.693 100.018 344.872 100.447 344.873 100.896Z" fill="#263238"/>
<path d="M418.596 212.197C418.597 212.534 418.499 212.863 418.313 213.144C418.127 213.424 417.862 213.643 417.552 213.772C417.242 213.902 416.9 213.936 416.57 213.87C416.241 213.805 415.938 213.643 415.7 213.405C415.462 213.167 415.301 212.864 415.235 212.533C415.17 212.203 415.204 211.861 415.334 211.55C415.463 211.24 415.681 210.974 415.961 210.788C416.241 210.602 416.57 210.503 416.906 210.504C417.354 210.504 417.784 210.683 418.101 211C418.418 211.318 418.596 211.748 418.596 212.197Z" fill="#263238"/>
<path d="M341.049 127.271H111.855C109.957 127.271 108.137 128.026 106.795 129.37C105.453 130.714 104.699 132.537 104.699 134.438V296.603C104.701 298.503 105.455 300.325 106.797 301.669C108.139 303.012 109.958 303.768 111.855 303.77H199.803C199.803 303.77 205.394 321.099 188.046 330.071H270.284C270.284 330.071 250.698 323.34 255.761 303.77H341.049C342.942 303.763 344.756 303.004 346.092 301.661C347.428 300.318 348.179 298.499 348.179 296.603V134.438C348.179 132.541 347.428 130.722 346.092 129.379C344.756 128.036 342.942 127.278 341.049 127.271Z" fill="#455A64"/>
<path d="M229.494 286.685C232.616 291.148 227.732 296.034 223.276 292.913C223.128 292.808 222.998 292.678 222.893 292.53C219.784 288.067 224.655 283.187 229.111 286.302C229.261 286.405 229.391 286.535 229.494 286.685Z" fill="#263238"/>
<path d="M115.017 130.239H337.854C338.695 130.239 339.528 130.405 340.304 130.727C341.081 131.05 341.787 131.522 342.382 132.118C342.976 132.713 343.448 133.42 343.77 134.198C344.092 134.976 344.257 135.81 344.257 136.653V274.123H108.594V136.653C108.594 135.809 108.76 134.973 109.083 134.194C109.406 133.414 109.88 132.706 110.476 132.111C111.073 131.515 111.781 131.043 112.56 130.722C113.339 130.401 114.174 130.237 115.017 130.239Z" fill="white"/>
<path d="M114.661 130.239H339.301C340.617 130.239 341.88 130.763 342.811 131.696C343.742 132.628 344.265 133.893 344.265 135.211V142.193H108.602V136.289C108.602 135.493 108.758 134.705 109.063 133.969C109.368 133.234 109.815 132.566 110.378 132.004C110.941 131.442 111.609 130.997 112.344 130.694C113.079 130.391 113.867 130.237 114.661 130.239Z" fill="#EBEBEB"/>
<path d="M117.798 136.467C117.798 136.795 117.701 137.116 117.519 137.389C117.337 137.662 117.078 137.875 116.775 138C116.473 138.126 116.139 138.159 115.818 138.095C115.497 138.031 115.201 137.873 114.97 137.641C114.738 137.409 114.58 137.113 114.516 136.791C114.452 136.469 114.485 136.135 114.611 135.832C114.736 135.529 114.948 135.27 115.221 135.087C115.493 134.905 115.814 134.808 116.141 134.808C116.581 134.808 117.002 134.982 117.313 135.294C117.624 135.605 117.798 136.027 117.798 136.467Z" fill="#E0E0E0"/>
<path d="M122.704 136.467C122.704 136.796 122.607 137.117 122.425 137.39C122.242 137.663 121.983 137.876 121.68 138.001C121.377 138.126 121.043 138.159 120.722 138.094C120.4 138.03 120.105 137.871 119.874 137.638C119.642 137.406 119.485 137.109 119.422 136.787C119.358 136.465 119.392 136.131 119.519 135.828C119.645 135.524 119.858 135.266 120.132 135.084C120.405 134.903 120.726 134.806 121.054 134.808C121.271 134.808 121.487 134.851 121.687 134.934C121.888 135.018 122.07 135.14 122.223 135.294C122.377 135.448 122.498 135.631 122.581 135.833C122.663 136.034 122.705 136.25 122.704 136.467Z" fill="#E0E0E0"/>
<path d="M127.4 136.467C127.4 136.795 127.303 137.116 127.121 137.389C126.938 137.662 126.68 137.875 126.377 138C126.074 138.126 125.741 138.159 125.42 138.095C125.098 138.031 124.803 137.873 124.571 137.641C124.34 137.409 124.182 137.113 124.118 136.791C124.054 136.469 124.087 136.135 124.212 135.832C124.337 135.529 124.55 135.27 124.822 135.087C125.095 134.905 125.415 134.808 125.743 134.808C126.182 134.808 126.604 134.982 126.914 135.294C127.225 135.605 127.4 136.027 127.4 136.467Z" fill="#E0E0E0"/>
<path d="M300.069 303.789C300.069 303.869 267.453 303.928 227.218 303.928C186.984 303.928 154.367 303.875 154.367 303.789C154.367 303.703 186.977 303.65 227.218 303.65C267.459 303.65 300.069 303.717 300.069 303.789Z" fill="#263238"/>
<path d="M184.535 223.682L118.82 223.874L118.952 269.058L173.426 268.906L180.812 268.88L184.667 268.873L184.535 223.682Z" fill="#F5F5F5"/>
<path d="M123.877 264.205C123.798 264.205 123.712 256.542 123.685 247.088C123.659 237.633 123.685 229.963 123.778 229.963C123.87 229.963 123.943 237.626 123.969 247.088C123.996 256.549 123.956 264.205 123.877 264.205Z" fill="#263238"/>
<path d="M180.89 259.332C180.89 259.412 168.077 259.517 152.267 259.557C136.457 259.597 123.645 259.557 123.645 259.498C123.645 259.438 136.457 259.319 152.267 259.273C168.077 259.226 180.89 259.253 180.89 259.332Z" fill="#EBEBEB"/>
<path d="M180.875 254.288C180.875 254.367 168.055 254.473 152.252 254.519C136.448 254.566 123.629 254.519 123.629 254.453C123.629 254.387 136.442 254.275 152.252 254.228C168.062 254.182 180.875 254.228 180.875 254.288Z" fill="#EBEBEB"/>
<path d="M180.862 249.289C180.862 249.369 168.042 249.468 152.239 249.514C136.436 249.56 123.616 249.514 123.609 249.455C123.603 249.395 136.422 249.27 152.239 249.223C168.055 249.177 180.862 249.21 180.862 249.289Z" fill="#EBEBEB"/>
<path d="M180.843 244.265C180.843 244.344 168.03 244.443 152.227 244.489C136.424 244.536 123.598 244.489 123.598 244.43C123.598 244.37 136.411 244.245 152.221 244.198C168.03 244.152 180.843 244.185 180.843 244.265Z" fill="#EBEBEB"/>
<path d="M180.832 239.24C180.832 239.319 168.019 239.418 152.209 239.464C136.399 239.511 123.586 239.464 123.586 239.405C123.586 239.345 136.399 239.226 152.209 239.18C168.019 239.134 180.832 239.16 180.832 239.24Z" fill="#EBEBEB"/>
<path d="M180.82 234.215C180.82 234.294 168.007 234.394 152.197 234.44C136.387 234.486 123.574 234.44 123.574 234.38C123.574 234.321 136.387 234.202 152.197 234.156C168.007 234.109 180.82 234.136 180.82 234.215Z" fill="#EBEBEB"/>
<path d="M180.804 229.163C180.804 229.243 167.985 229.348 152.181 229.395C136.378 229.441 123.559 229.395 123.559 229.328C123.559 229.262 136.372 229.15 152.181 229.104C167.991 229.057 180.804 229.11 180.804 229.163Z" fill="#EBEBEB"/>
<path d="M131.598 256.378L127.492 256.39L127.514 264.218L131.62 264.206L131.598 256.378Z" fill="#810019"/>
<path d="M161.415 256.295L157.309 256.306L157.33 264.134L161.436 264.123L161.415 256.295Z" fill="#810019"/>
<path d="M139.668 250.568L135.562 250.58L135.603 264.167L139.709 264.155L139.668 250.568Z" fill="#810019"/>
<path d="M154.661 247.017L150.555 247.029L150.602 264.146L154.708 264.135L154.661 247.017Z" fill="#810019"/>
<path d="M147.243 236.608L143.137 236.62L143.218 264.144L147.324 264.132L147.243 236.608Z" fill="#810019"/>
<path d="M168.715 242.215H164.609V264.648H168.715V242.215Z" fill="#810019"/>
<path d="M174.294 264.067C174.294 264.146 163.025 264.245 149.137 264.285C135.248 264.325 123.973 264.285 123.973 264.212C123.973 264.139 135.234 264.04 149.137 264.001C163.039 263.961 174.294 263.987 174.294 264.067Z" fill="#263238"/>
<path d="M118.227 152.904V219.272H224.592H233.92H261.552V152.904H118.227Z" fill="#F5F5F5"/>
<path d="M128.308 198.75V200.845H128.09V198.941H127.602V198.75H128.308Z" fill="#263238"/>
<path d="M128.809 199.794C128.809 199.133 129.158 198.729 129.64 198.729C130.122 198.729 130.479 199.126 130.479 199.794C130.479 200.462 130.129 200.858 129.64 200.858C129.152 200.858 128.809 200.462 128.809 199.794ZM130.261 199.794C130.261 199.232 130.01 198.928 129.64 198.928C129.271 198.928 129.026 199.232 129.026 199.794C129.026 200.356 129.277 200.66 129.64 200.66C130.003 200.66 130.261 200.356 130.261 199.794Z" fill="#263238"/>
<path d="M129.155 187.622V187.814H127.696V187.662L128.567 186.809C128.805 186.577 128.851 186.432 128.851 186.293C128.851 186.048 128.68 185.896 128.356 185.896C128.25 185.891 128.143 185.909 128.045 185.95C127.947 185.991 127.859 186.054 127.789 186.134L127.637 186.002C127.73 185.9 127.845 185.82 127.972 185.767C128.1 185.715 128.238 185.691 128.376 185.698C128.799 185.698 129.069 185.916 129.069 186.267C129.066 186.396 129.033 186.522 128.973 186.637C128.914 186.751 128.829 186.851 128.726 186.928L128.013 187.629L129.155 187.622Z" fill="#263238"/>
<path d="M129.414 186.769C129.414 186.108 129.764 185.698 130.246 185.698C130.728 185.698 131.084 186.102 131.084 186.769C131.084 187.437 130.734 187.834 130.246 187.834C129.757 187.834 129.414 187.431 129.414 186.769ZM130.866 186.769C130.866 186.207 130.615 185.897 130.246 185.897C129.876 185.897 129.632 186.207 129.632 186.769C129.632 187.331 129.883 187.635 130.246 187.635C130.609 187.635 130.866 187.325 130.866 186.769Z" fill="#263238"/>
<path d="M129.113 174.18C129.113 174.531 128.856 174.802 128.354 174.802C128.078 174.812 127.808 174.715 127.602 174.531L127.707 174.366C127.887 174.529 128.124 174.615 128.367 174.604C128.711 174.604 128.902 174.445 128.902 174.18C128.902 173.916 128.73 173.771 128.341 173.771H128.189V173.625L128.77 172.898H127.701V172.706H129.021V172.858L128.427 173.599C128.889 173.625 129.113 173.85 129.113 174.18Z" fill="#263238"/>
<path d="M129.414 173.737C129.414 173.076 129.764 172.673 130.246 172.673C130.728 172.673 131.084 173.07 131.084 173.737C131.084 174.405 130.734 174.802 130.246 174.802C129.757 174.802 129.414 174.405 129.414 173.737ZM130.866 173.737C130.866 173.175 130.615 172.871 130.246 172.871C129.876 172.871 129.632 173.175 129.632 173.737C129.632 174.299 129.883 174.603 130.246 174.603C130.609 174.603 130.866 174.286 130.866 173.737Z" fill="#263238"/>
<path d="M137.539 206.683C137.539 206.022 137.889 205.612 138.371 205.612C138.853 205.612 139.209 206.016 139.209 206.683C139.209 207.351 138.859 207.748 138.371 207.748C137.882 207.748 137.539 207.345 137.539 206.683ZM138.991 206.683C138.991 206.121 138.74 205.811 138.371 205.811C138.001 205.811 137.757 206.121 137.757 206.683C137.757 207.245 138.008 207.55 138.371 207.55C138.734 207.55 138.991 207.226 138.991 206.683Z" fill="#263238"/>
<path d="M153.028 205.619V207.715H152.784V205.811H152.289V205.619H153.028Z" fill="#263238"/>
<path d="M169.344 207.523V207.715H167.879V207.563L168.743 206.71C168.981 206.478 169.027 206.333 169.027 206.194C169.027 205.95 168.855 205.797 168.539 205.797C168.431 205.792 168.324 205.811 168.225 205.852C168.125 205.893 168.037 205.956 167.964 206.035L167.812 205.903C167.906 205.802 168.021 205.722 168.149 205.67C168.276 205.617 168.414 205.593 168.552 205.599C168.981 205.599 169.245 205.817 169.245 206.168C169.241 206.297 169.209 206.423 169.149 206.538C169.09 206.652 169.005 206.752 168.902 206.829L168.195 207.53L169.344 207.523Z" fill="#263238"/>
<path d="M184.773 207.113C184.773 207.464 184.516 207.735 184.014 207.735C183.738 207.745 183.468 207.648 183.262 207.464L183.367 207.292C183.455 207.375 183.559 207.44 183.672 207.482C183.786 207.524 183.907 207.543 184.027 207.537C184.377 207.537 184.562 207.371 184.562 207.113C184.562 206.856 184.391 206.697 184.001 206.697H183.81V206.538L184.391 205.811H183.348V205.619H184.668V205.771L184.074 206.518C184.549 206.545 184.773 206.776 184.773 207.113Z" fill="#263238"/>
<path d="M200.637 207.166H200.221V207.715H200.003V207.166H198.828V207.008L199.937 205.619H200.175L199.105 206.975H200.01V206.485H200.221V206.975H200.637V207.166Z" fill="#263238"/>
<path d="M215.754 207.1C215.754 207.457 215.503 207.761 214.995 207.761C214.719 207.77 214.45 207.673 214.242 207.49L214.348 207.318C214.436 207.401 214.54 207.466 214.653 207.508C214.767 207.55 214.887 207.568 215.008 207.563C215.358 207.563 215.549 207.391 215.549 207.133C215.549 206.875 215.384 206.697 214.849 206.697H214.401L214.513 205.646H215.655V205.837H214.698L214.625 206.498H214.896C215.496 206.479 215.754 206.73 215.754 207.1Z" fill="#263238"/>
<path d="M231.376 207.087C231.376 207.178 231.357 207.269 231.321 207.353C231.285 207.436 231.231 207.512 231.164 207.574C231.097 207.636 231.018 207.684 230.932 207.714C230.845 207.744 230.754 207.755 230.663 207.748C230.102 207.748 229.805 207.358 229.805 206.697C229.805 206.035 230.194 205.612 230.762 205.612C230.935 205.604 231.106 205.646 231.257 205.731L231.171 205.903C231.047 205.831 230.905 205.797 230.762 205.804C230.313 205.804 230.023 206.095 230.023 206.664C230.02 206.721 230.02 206.778 230.023 206.835C230.082 206.715 230.178 206.615 230.296 206.55C230.414 206.485 230.549 206.458 230.683 206.472C230.856 206.463 231.025 206.522 231.155 206.637C231.285 206.752 231.364 206.914 231.376 207.087ZM231.165 207.087C231.165 206.816 230.96 206.637 230.636 206.637C230.571 206.63 230.504 206.636 230.441 206.655C230.378 206.674 230.319 206.706 230.268 206.749C230.218 206.792 230.176 206.844 230.146 206.903C230.117 206.963 230.099 207.027 230.095 207.093C230.095 207.325 230.287 207.543 230.65 207.543C230.714 207.55 230.778 207.544 230.84 207.525C230.901 207.506 230.958 207.474 231.006 207.432C231.055 207.39 231.094 207.338 231.121 207.279C231.148 207.221 231.163 207.158 231.165 207.093V207.087Z" fill="#263238"/>
<path d="M246.751 205.619V205.771L245.859 207.715H245.628L246.493 205.811H245.417V206.201H245.199V205.619H246.751Z" fill="#263238"/>
<path d="M246.865 199.893C246.865 200.006 222.652 200.098 192.788 200.098C162.924 200.098 138.711 200.006 138.711 199.893C138.711 199.781 162.918 199.688 192.788 199.688C222.659 199.688 246.865 199.781 246.865 199.893Z" fill="#263238"/>
<path d="M246.865 186.803C246.865 186.915 222.652 187.001 192.788 187.001C162.924 187.001 138.711 186.915 138.711 186.803C138.711 186.69 162.918 186.598 192.788 186.598C222.659 186.598 246.865 186.69 246.865 186.803Z" fill="#263238"/>
<path d="M246.865 173.704C246.865 173.817 222.652 173.909 192.788 173.909C162.924 173.909 138.711 173.817 138.711 173.704C138.711 173.592 162.918 173.5 192.788 173.5C222.659 173.5 246.865 173.625 246.865 173.704Z" fill="#263238"/>
<path d="M138.712 199.702C138.713 199.841 138.673 199.977 138.597 200.094C138.52 200.21 138.411 200.301 138.283 200.355C138.155 200.409 138.014 200.423 137.877 200.396C137.741 200.369 137.616 200.302 137.517 200.204C137.419 200.106 137.352 199.98 137.326 199.844C137.299 199.707 137.313 199.566 137.367 199.437C137.421 199.309 137.512 199.2 137.628 199.123C137.744 199.047 137.88 199.006 138.019 199.008C138.111 199.003 138.203 199.018 138.29 199.051C138.376 199.084 138.454 199.135 138.519 199.2C138.585 199.266 138.636 199.344 138.669 199.431C138.702 199.517 138.717 199.61 138.712 199.702Z" fill="#810019"/>
<path d="M154.253 199.702C154.253 199.839 154.213 199.973 154.137 200.088C154.06 200.202 153.952 200.291 153.826 200.343C153.699 200.396 153.56 200.41 153.425 200.383C153.291 200.356 153.167 200.29 153.07 200.193C152.973 200.096 152.907 199.972 152.881 199.837C152.854 199.703 152.867 199.563 152.92 199.436C152.972 199.309 153.061 199.201 153.175 199.125C153.289 199.048 153.423 199.008 153.56 199.008C153.653 199.003 153.745 199.018 153.831 199.051C153.917 199.084 153.996 199.135 154.061 199.2C154.126 199.266 154.177 199.344 154.21 199.431C154.243 199.517 154.258 199.61 154.253 199.702Z" fill="#810019"/>
<path d="M169.808 199.702C169.808 199.839 169.767 199.973 169.691 200.088C169.615 200.202 169.507 200.291 169.38 200.343C169.254 200.396 169.114 200.41 168.98 200.383C168.845 200.356 168.722 200.29 168.625 200.193C168.528 200.096 168.462 199.972 168.435 199.837C168.408 199.703 168.422 199.563 168.475 199.436C168.527 199.309 168.616 199.201 168.73 199.125C168.844 199.048 168.978 199.008 169.115 199.008C169.207 199.003 169.3 199.018 169.386 199.051C169.472 199.084 169.55 199.135 169.616 199.2C169.681 199.266 169.732 199.344 169.765 199.431C169.798 199.517 169.813 199.61 169.808 199.702Z" fill="#810019"/>
<path d="M185.356 199.702C185.358 199.841 185.318 199.977 185.241 200.094C185.165 200.21 185.056 200.301 184.928 200.355C184.799 200.409 184.658 200.423 184.522 200.396C184.386 200.369 184.26 200.302 184.162 200.204C184.064 200.106 183.997 199.98 183.97 199.844C183.943 199.707 183.958 199.566 184.012 199.437C184.065 199.309 184.156 199.2 184.272 199.123C184.388 199.047 184.524 199.006 184.663 199.008C184.756 199.003 184.848 199.018 184.934 199.051C185.02 199.084 185.099 199.135 185.164 199.2C185.229 199.266 185.28 199.344 185.313 199.431C185.347 199.517 185.361 199.61 185.356 199.702Z" fill="#810019"/>
<path d="M200.905 199.702C200.899 199.831 200.855 199.955 200.778 200.059C200.702 200.164 200.597 200.243 200.476 200.288C200.355 200.333 200.223 200.342 200.097 200.313C199.972 200.284 199.857 200.218 199.768 200.124C199.679 200.031 199.619 199.913 199.596 199.786C199.573 199.659 199.588 199.527 199.639 199.408C199.69 199.29 199.774 199.188 199.882 199.117C199.99 199.046 200.116 199.007 200.245 199.007C200.335 199.007 200.423 199.025 200.506 199.061C200.588 199.096 200.662 199.148 200.724 199.213C200.786 199.277 200.834 199.354 200.865 199.438C200.896 199.522 200.91 199.612 200.905 199.702Z" fill="#810019"/>
<path d="M231.997 199.702C231.998 199.84 231.958 199.977 231.882 200.093C231.806 200.209 231.697 200.3 231.57 200.354C231.442 200.408 231.301 200.423 231.165 200.396C231.029 200.37 230.903 200.304 230.805 200.206C230.706 200.108 230.639 199.983 230.612 199.847C230.584 199.711 230.598 199.57 230.65 199.442C230.703 199.313 230.793 199.203 230.908 199.126C231.023 199.049 231.159 199.007 231.297 199.007C231.389 199.006 231.48 199.024 231.565 199.058C231.649 199.093 231.727 199.144 231.792 199.208C231.857 199.273 231.908 199.35 231.944 199.434C231.979 199.519 231.997 199.61 231.997 199.702Z" fill="#810019"/>
<path d="M216.46 199.702C216.46 199.841 216.419 199.976 216.341 200.091C216.263 200.206 216.153 200.294 216.024 200.346C215.896 200.397 215.755 200.409 215.62 200.379C215.484 200.35 215.361 200.28 215.265 200.18C215.17 200.079 215.107 199.953 215.084 199.816C215.061 199.679 215.079 199.539 215.137 199.412C215.195 199.286 215.288 199.18 215.407 199.108C215.525 199.036 215.662 199.001 215.8 199.008C215.89 199.008 215.979 199.026 216.061 199.061C216.143 199.096 216.217 199.148 216.279 199.213C216.341 199.278 216.389 199.355 216.42 199.439C216.451 199.523 216.465 199.612 216.46 199.702Z" fill="#810019"/>
<path d="M247.558 199.702C247.558 199.839 247.517 199.973 247.441 200.088C247.365 200.202 247.257 200.291 247.13 200.343C247.004 200.396 246.864 200.41 246.73 200.383C246.595 200.356 246.472 200.29 246.375 200.193C246.278 200.096 246.212 199.972 246.185 199.837C246.158 199.703 246.172 199.563 246.225 199.436C246.277 199.309 246.366 199.201 246.48 199.125C246.594 199.048 246.728 199.008 246.865 199.008C246.957 199.003 247.05 199.018 247.136 199.051C247.222 199.084 247.3 199.135 247.366 199.2C247.431 199.266 247.482 199.344 247.515 199.431C247.548 199.517 247.563 199.61 247.558 199.702Z" fill="#810019"/>
<path d="M145.79 199.894C145.79 199.984 145.763 200.072 145.713 200.147C145.663 200.222 145.592 200.281 145.509 200.315C145.425 200.35 145.334 200.359 145.246 200.341C145.157 200.324 145.076 200.28 145.012 200.216C144.949 200.152 144.905 200.071 144.888 199.983C144.87 199.894 144.879 199.802 144.914 199.719C144.948 199.636 145.006 199.565 145.081 199.514C145.156 199.464 145.244 199.438 145.334 199.438C145.455 199.438 145.571 199.486 145.656 199.571C145.742 199.657 145.79 199.773 145.79 199.894Z" fill="#E0E0E0"/>
<path d="M161.403 199.894C161.403 199.984 161.376 200.072 161.326 200.147C161.276 200.222 161.205 200.281 161.122 200.315C161.039 200.35 160.947 200.359 160.859 200.341C160.77 200.324 160.689 200.28 160.626 200.216C160.562 200.152 160.519 200.071 160.501 199.983C160.483 199.894 160.492 199.802 160.527 199.719C160.561 199.636 160.62 199.565 160.695 199.514C160.77 199.464 160.858 199.438 160.948 199.438C161.068 199.438 161.184 199.486 161.27 199.571C161.355 199.657 161.403 199.773 161.403 199.894Z" fill="#E0E0E0"/>
<path d="M177.012 199.893C177.007 199.982 176.976 200.067 176.923 200.139C176.87 200.21 176.798 200.264 176.715 200.295C176.631 200.326 176.541 200.331 176.455 200.311C176.368 200.291 176.29 200.247 176.228 200.183C176.167 200.119 176.126 200.038 176.109 199.951C176.093 199.863 176.103 199.773 176.137 199.691C176.171 199.609 176.228 199.539 176.301 199.489C176.375 199.439 176.461 199.412 176.55 199.411C176.612 199.41 176.675 199.422 176.732 199.446C176.79 199.47 176.842 199.506 176.886 199.551C176.929 199.596 176.963 199.65 176.984 199.709C177.006 199.768 177.015 199.831 177.012 199.893Z" fill="#E0E0E0"/>
<path d="M192.622 199.894C192.622 199.984 192.595 200.072 192.545 200.147C192.495 200.222 192.424 200.281 192.341 200.315C192.257 200.35 192.166 200.359 192.078 200.341C191.989 200.324 191.908 200.28 191.844 200.216C191.781 200.152 191.737 200.071 191.72 199.983C191.702 199.894 191.711 199.802 191.746 199.719C191.78 199.636 191.838 199.565 191.913 199.514C191.988 199.464 192.076 199.438 192.166 199.438C192.287 199.438 192.403 199.486 192.489 199.571C192.574 199.657 192.622 199.773 192.622 199.894Z" fill="#E0E0E0"/>
<path d="M208.231 199.894C208.231 199.984 208.205 200.072 208.155 200.147C208.104 200.222 208.033 200.281 207.95 200.315C207.867 200.35 207.775 200.359 207.687 200.341C207.599 200.324 207.517 200.28 207.454 200.216C207.39 200.152 207.347 200.071 207.329 199.983C207.311 199.894 207.321 199.802 207.355 199.719C207.389 199.636 207.448 199.565 207.523 199.514C207.598 199.464 207.686 199.438 207.776 199.438C207.897 199.438 208.012 199.486 208.098 199.571C208.183 199.657 208.231 199.773 208.231 199.894Z" fill="#E0E0E0"/>
<path d="M223.836 199.893C223.83 199.984 223.798 200.07 223.744 200.142C223.689 200.214 223.614 200.268 223.529 200.298C223.443 200.327 223.351 200.33 223.264 200.307C223.177 200.283 223.098 200.235 223.039 200.167C222.979 200.099 222.941 200.014 222.93 199.925C222.918 199.835 222.933 199.744 222.973 199.663C223.013 199.582 223.077 199.515 223.155 199.47C223.233 199.425 223.323 199.404 223.413 199.411C223.533 199.419 223.645 199.475 223.724 199.565C223.803 199.655 223.843 199.773 223.836 199.893Z" fill="#E0E0E0"/>
<path d="M239.446 199.894C239.446 199.984 239.419 200.072 239.369 200.147C239.319 200.222 239.248 200.281 239.165 200.315C239.082 200.35 238.99 200.359 238.902 200.341C238.813 200.324 238.732 200.28 238.669 200.216C238.605 200.152 238.561 200.071 238.544 199.983C238.526 199.894 238.535 199.802 238.57 199.719C238.604 199.636 238.663 199.565 238.738 199.514C238.812 199.464 238.901 199.438 238.991 199.438C239.111 199.438 239.227 199.486 239.313 199.571C239.398 199.657 239.446 199.773 239.446 199.894Z" fill="#E0E0E0"/>
<path d="M155.262 194.121C155.262 194.459 155.162 194.789 154.975 195.069C154.788 195.35 154.522 195.568 154.21 195.697C153.899 195.826 153.557 195.86 153.226 195.794C152.896 195.729 152.592 195.566 152.354 195.328C152.116 195.089 151.954 194.785 151.888 194.454C151.822 194.123 151.856 193.78 151.985 193.469C152.114 193.157 152.332 192.89 152.612 192.703C152.892 192.516 153.222 192.416 153.559 192.416C153.782 192.416 154.004 192.46 154.21 192.545C154.417 192.631 154.605 192.757 154.763 192.915C154.921 193.074 155.046 193.262 155.132 193.469C155.218 193.676 155.262 193.897 155.262 194.121Z" fill="#810019"/>
<path d="M168.837 186.088C168.839 186.427 168.74 186.759 168.552 187.041C168.365 187.324 168.099 187.544 167.787 187.675C167.474 187.806 167.13 187.84 166.798 187.775C166.466 187.71 166.161 187.547 165.921 187.308C165.681 187.069 165.518 186.764 165.451 186.431C165.385 186.099 165.418 185.754 165.547 185.441C165.677 185.128 165.896 184.86 166.177 184.671C166.458 184.483 166.789 184.382 167.128 184.382C167.58 184.382 168.014 184.562 168.334 184.882C168.655 185.201 168.836 185.635 168.837 186.088Z" fill="#810019"/>
<path d="M185.672 186.802C185.672 187.139 185.572 187.469 185.385 187.75C185.198 188.03 184.932 188.249 184.621 188.378C184.309 188.507 183.967 188.541 183.636 188.475C183.306 188.409 183.003 188.247 182.764 188.008C182.526 187.77 182.364 187.466 182.298 187.135C182.233 186.804 182.266 186.461 182.395 186.149C182.524 185.838 182.742 185.571 183.023 185.384C183.303 185.196 183.632 185.096 183.969 185.096C184.42 185.096 184.854 185.276 185.173 185.596C185.492 185.916 185.672 186.35 185.672 186.802Z" fill="#810019"/>
<path d="M202.113 172.223C202.113 172.561 202.013 172.891 201.826 173.171C201.639 173.452 201.373 173.67 201.062 173.799C200.751 173.928 200.408 173.962 200.078 173.896C199.748 173.831 199.444 173.668 199.206 173.43C198.968 173.191 198.805 172.887 198.74 172.556C198.674 172.225 198.708 171.882 198.837 171.571C198.966 171.259 199.184 170.992 199.464 170.805C199.744 170.618 200.073 170.518 200.41 170.518C200.861 170.519 201.293 170.7 201.613 171.019C201.932 171.339 202.112 171.772 202.113 172.223Z" fill="#810019"/>
<path d="M217.477 181.493C217.477 181.83 217.377 182.16 217.19 182.441C217.002 182.721 216.736 182.94 216.425 183.069C216.114 183.198 215.772 183.232 215.441 183.166C215.111 183.1 214.807 182.938 214.569 182.699C214.331 182.461 214.169 182.157 214.103 181.826C214.037 181.495 214.071 181.152 214.2 180.84C214.329 180.528 214.547 180.262 214.827 180.075C215.107 179.887 215.437 179.787 215.773 179.787C215.997 179.787 216.219 179.831 216.425 179.917C216.632 180.003 216.82 180.128 216.978 180.287C217.136 180.445 217.261 180.633 217.347 180.84C217.432 181.047 217.477 181.269 217.477 181.493Z" fill="#810019"/>
<path d="M233.012 183.959C233.012 184.297 232.912 184.626 232.725 184.907C232.538 185.187 232.272 185.406 231.96 185.535C231.649 185.664 231.307 185.698 230.976 185.632C230.646 185.566 230.342 185.404 230.104 185.165C229.866 184.927 229.704 184.623 229.638 184.292C229.572 183.961 229.606 183.618 229.735 183.306C229.864 182.995 230.082 182.728 230.362 182.541C230.642 182.353 230.972 182.253 231.309 182.253C231.532 182.253 231.754 182.296 231.961 182.381C232.168 182.467 232.357 182.593 232.515 182.751C232.673 182.91 232.799 183.098 232.884 183.305C232.969 183.513 233.013 183.735 233.012 183.959Z" fill="#810019"/>
<path d="M247.555 194.122C247.423 194.13 247.291 194.13 247.159 194.122C246.768 194.096 246.38 194.043 245.997 193.963C244.505 193.683 243.11 193.02 241.95 192.039C241.127 191.313 240.454 190.433 239.97 189.447C239.387 188.304 238.69 187.223 237.891 186.221C237.008 185.049 235.776 184.19 234.372 183.768C233.604 183.59 232.803 183.617 232.049 183.847C231.256 184.109 230.522 184.524 229.89 185.07C228.57 186.181 227.593 187.754 226.306 189.189C225.661 189.951 224.865 190.571 223.969 191.007C223.002 191.432 221.922 191.52 220.899 191.259C220.38 191.087 219.902 190.807 219.499 190.437C219.096 190.066 218.777 189.614 218.562 189.11C218.116 188.113 217.777 187.071 217.552 186.002C217.342 184.923 217.033 183.865 216.628 182.842C216.433 182.348 216.083 181.931 215.631 181.652C215.142 181.417 214.602 181.31 214.06 181.341C212.908 181.468 211.766 181.671 210.641 181.949C210.048 182.072 209.444 182.14 208.839 182.154C208.208 182.177 207.58 182.055 207.004 181.797C206.422 181.522 205.922 181.101 205.551 180.574C205.196 180.057 204.897 179.503 204.66 178.921C204.165 177.764 203.835 176.561 203.393 175.397C203.175 174.819 202.899 174.265 202.568 173.744C202.248 173.248 201.788 172.857 201.247 172.62C201.102 172.581 200.963 172.528 200.818 172.495L200.369 172.448C200.082 172.432 199.795 172.491 199.538 172.62C199.013 172.941 198.584 173.398 198.297 173.943C197.669 175.073 197.183 176.276 196.851 177.526C196.481 178.782 196.191 180.065 195.867 181.361C195.372 183.51 194.923 185.652 194.375 187.748C194.108 188.795 193.789 189.827 193.418 190.842C193.078 191.88 192.528 192.837 191.801 193.652C191.397 194.065 190.847 194.303 190.27 194.313C189.71 194.302 189.165 194.137 188.692 193.837C187.807 193.257 187.056 192.495 186.487 191.602C185.407 189.898 184.521 188.077 183.847 186.174C183.101 184.376 182.256 182.597 180.869 181.374C180.194 180.784 179.387 180.366 178.516 180.154C177.645 179.942 176.736 179.943 175.866 180.158C175.024 180.381 174.223 180.733 173.489 181.202C172.758 181.649 172.062 182.154 171.41 182.71C170.154 183.769 168.994 184.937 167.944 186.201C166.363 187.775 164.644 189.204 162.808 190.472C161.168 191.632 159.395 192.591 157.527 193.328C155.9 194.006 154.138 194.3 152.379 194.188C150.912 194.017 149.471 193.668 148.088 193.15C146.17 192.44 144.307 191.586 142.516 190.597C141.896 190.26 141.434 189.989 141.123 189.797C140.813 189.606 140.668 189.5 140.668 189.5L141.15 189.758L142.563 190.512C144.364 191.464 146.23 192.288 148.147 192.978C149.517 193.477 150.942 193.808 152.392 193.963C154.118 194.06 155.843 193.759 157.435 193.083C159.269 192.343 161.009 191.387 162.617 190.234C164.43 188.968 166.127 187.543 167.687 185.976C168.744 184.687 169.915 183.497 171.185 182.419C171.833 181.861 172.522 181.353 173.245 180.898C174.009 180.408 174.844 180.038 175.72 179.801C176.647 179.57 177.616 179.567 178.545 179.792C179.473 180.016 180.334 180.461 181.054 181.09C182.526 182.379 183.384 184.217 184.144 186.022C184.824 187.897 185.709 189.691 186.784 191.371C187.322 192.216 188.033 192.937 188.87 193.487C189.282 193.749 189.756 193.895 190.243 193.91C190.719 193.889 191.168 193.685 191.497 193.341C192.171 192.568 192.687 191.669 193.016 190.697C193.38 189.695 193.692 188.676 193.953 187.642C194.501 185.559 194.943 183.417 195.445 181.262C195.749 179.939 196.059 178.67 196.435 177.401C196.777 176.119 197.276 174.884 197.92 173.724C198.252 173.123 198.74 172.623 199.333 172.277C199.65 172.112 200.006 172.037 200.363 172.058L200.871 172.111C201.036 172.151 201.201 172.21 201.36 172.257C201.987 172.52 202.523 172.964 202.898 173.533C203.248 174.077 203.538 174.658 203.762 175.265C204.218 176.455 204.541 177.658 205.023 178.776C205.505 179.893 206.099 181.004 207.169 181.46C208.238 181.916 209.439 181.784 210.568 181.586C211.713 181.309 212.876 181.108 214.047 180.984C214.656 180.947 215.263 181.07 215.81 181.341C216.33 181.658 216.734 182.136 216.958 182.703C217.375 183.746 217.691 184.827 217.902 185.93C218.113 186.976 218.438 187.996 218.873 188.971C219.064 189.434 219.352 189.85 219.718 190.193C220.083 190.535 220.518 190.795 220.992 190.955C221.938 191.2 222.94 191.121 223.837 190.73C224.691 190.303 225.447 189.702 226.055 188.964C227.322 187.569 228.312 185.983 229.685 184.839C230.348 184.27 231.118 183.841 231.95 183.576C232.749 183.331 233.599 183.306 234.412 183.503C235.865 183.944 237.137 184.841 238.043 186.062C238.848 187.089 239.545 188.197 240.122 189.368C240.589 190.338 241.242 191.208 242.043 191.926C243.175 192.912 244.537 193.595 246.004 193.91C246.382 194 246.765 194.064 247.152 194.102C247.287 194.101 247.421 194.107 247.555 194.122Z" fill="#810019"/>
<path d="M155.423 164.732C155.423 164.845 149.389 164.937 141.943 164.937C134.497 164.937 128.457 164.845 128.457 164.732C128.457 164.62 134.497 164.527 141.943 164.527C149.389 164.527 155.423 164.62 155.423 164.732Z" fill="#263238"/>
<path d="M267.27 153.333V218.214H275.112H285.898H336.206V153.333H267.27Z" fill="#F5F5F5"/>
<path d="M301.429 160.686C297.223 160.686 293.11 161.935 289.613 164.276C286.115 166.617 283.389 169.944 281.779 173.836C280.169 177.729 279.748 182.012 280.569 186.144C281.39 190.277 283.415 194.073 286.39 197.052C289.364 200.031 293.154 202.06 297.28 202.882C301.406 203.704 305.682 203.282 309.569 201.67C313.455 200.057 316.777 197.327 319.114 193.824C321.451 190.32 322.698 186.202 322.698 181.988C322.698 176.339 320.458 170.92 316.469 166.925C312.48 162.93 307.07 160.686 301.429 160.686ZM301.753 194.756C299.167 194.757 296.64 193.99 294.489 192.553C292.339 191.115 290.663 189.071 289.673 186.679C288.682 184.287 288.422 181.654 288.926 179.115C289.43 176.575 290.674 174.241 292.502 172.41C294.329 170.578 296.658 169.331 299.194 168.825C301.729 168.32 304.358 168.579 306.746 169.569C309.135 170.56 311.177 172.238 312.613 174.391C314.05 176.544 314.817 179.075 314.817 181.664C314.819 183.385 314.483 185.089 313.828 186.68C313.173 188.27 312.211 189.716 310.998 190.934C309.785 192.152 308.344 193.119 306.758 193.779C305.171 194.44 303.471 194.78 301.753 194.782V194.756Z" fill="#263238"/>
<path d="M301.758 160.692C301.758 162.96 301.758 166.015 301.758 168.58C303.813 168.58 305.839 169.065 307.671 169.997C309.504 170.928 311.091 172.28 312.304 173.941C313.517 175.602 314.321 177.527 314.652 179.558C314.983 181.59 314.831 183.67 314.208 185.632L321.918 187.728C322.794 184.589 322.939 181.291 322.343 178.087C321.746 174.883 320.423 171.859 318.477 169.248C316.53 166.636 314.011 164.507 311.114 163.024C308.216 161.541 305.018 160.743 301.764 160.692H301.758Z" fill="#810019"/>
<path d="M288.683 181.665C288.683 179.136 289.415 176.661 290.79 174.541C292.166 172.42 294.126 170.745 296.433 169.718L293.132 162.359C289.289 163.996 286.011 166.731 283.709 170.222C281.407 173.713 280.182 177.805 280.188 181.989C280.188 182.287 280.188 182.584 280.188 182.882H288.769C288.71 182.485 288.683 182.075 288.683 181.665Z" fill="#455A64"/>
<path d="M301.752 194.782C300.822 194.781 299.895 194.682 298.986 194.485C298.656 196.382 298.035 200.058 297.547 202.954C298.827 203.196 300.126 203.318 301.428 203.318C306.067 203.314 310.578 201.791 314.272 198.981C317.966 196.171 320.642 192.229 321.892 187.754L314.182 185.658C313.343 188.302 311.686 190.61 309.452 192.25C307.218 193.89 304.522 194.777 301.752 194.782Z" fill="#810019"/>
<g opacity="0.3">
<path d="M301.752 194.782C300.822 194.781 299.895 194.682 298.986 194.485C298.656 196.382 298.035 200.058 297.547 202.954C298.827 203.196 300.126 203.318 301.428 203.318C306.067 203.314 310.578 201.791 314.272 198.981C317.966 196.171 320.642 192.229 321.892 187.754L314.182 185.658C313.343 188.302 311.686 190.61 309.452 192.25C307.218 193.89 304.522 194.777 301.752 194.782Z" fill="black"/>
</g>
<path d="M298.924 182.723H298.138V183.741H297.049V182.723H294.441V181.969L296.719 178.901H297.894L295.781 181.811H297.102V180.898H298.158V181.804H298.943L298.924 182.723Z" fill="#263238"/>
<path d="M299.258 181.321C299.258 179.728 300.142 178.815 301.331 178.815C302.519 178.815 303.403 179.728 303.403 181.321C303.403 182.915 302.525 183.827 301.331 183.827C300.136 183.827 299.258 182.921 299.258 181.321ZM302.275 181.321C302.275 180.224 301.892 179.768 301.331 179.768C300.769 179.768 300.393 180.224 300.393 181.321C300.393 182.419 300.776 182.882 301.311 182.882C301.845 182.882 302.275 182.419 302.275 181.321Z" fill="#263238"/>
<path d="M303.865 180.184C303.888 179.952 303.978 179.732 304.123 179.55C304.268 179.369 304.463 179.233 304.683 179.16C304.904 179.087 305.141 179.08 305.366 179.139C305.59 179.198 305.793 179.321 305.949 179.493C306.106 179.665 306.209 179.879 306.246 180.108C306.284 180.338 306.254 180.573 306.161 180.786C306.067 180.999 305.914 181.181 305.72 181.308C305.526 181.436 305.299 181.505 305.067 181.506C304.898 181.507 304.732 181.472 304.578 181.404C304.424 181.337 304.285 181.237 304.172 181.112C304.059 180.988 303.973 180.841 303.92 180.681C303.867 180.521 303.849 180.351 303.865 180.184ZM305.568 180.184C305.568 179.661 305.37 179.41 305.067 179.41C304.763 179.41 304.558 179.668 304.558 180.184C304.558 180.699 304.77 180.951 305.067 180.951C305.364 180.951 305.568 180.699 305.568 180.184ZM307.945 178.901H308.763L305.463 183.741H304.644L307.945 178.901ZM307.153 182.465C307.174 182.231 307.264 182.008 307.41 181.824C307.555 181.641 307.752 181.503 307.974 181.429C308.197 181.355 308.436 181.347 308.663 181.407C308.889 181.466 309.094 181.591 309.251 181.765C309.408 181.939 309.512 182.155 309.549 182.387C309.585 182.619 309.554 182.857 309.458 183.071C309.362 183.286 309.206 183.468 309.009 183.595C308.812 183.722 308.582 183.788 308.347 183.787C308.18 183.787 308.014 183.752 307.861 183.683C307.707 183.615 307.57 183.516 307.457 183.391C307.345 183.266 307.26 183.12 307.207 182.96C307.155 182.801 307.136 182.632 307.153 182.465ZM308.849 182.465C308.849 181.949 308.651 181.698 308.347 181.698C308.044 181.698 307.839 181.942 307.839 182.465C307.839 182.987 308.05 183.232 308.347 183.232C308.645 183.232 308.849 182.974 308.849 182.465Z" fill="#263238"/>
<path d="M319.03 208.667C319.03 208.779 311.154 208.865 301.431 208.865C291.707 208.865 283.832 208.779 283.832 208.667C283.832 208.554 291.714 208.462 301.431 208.462C311.148 208.462 319.03 208.554 319.03 208.667Z" fill="#263238"/>
<path d="M311.21 211.9C311.21 212.012 306.84 212.105 301.447 212.105C296.054 212.105 291.684 212.012 291.684 211.9C291.684 211.788 296.054 211.702 301.447 211.702C306.84 211.702 311.21 211.794 311.21 211.9Z" fill="#263238"/>
<path d="M328.242 222.532H189.887V268.06H328.242V222.532Z" fill="#FAFAFA"/>
<path d="M316.572 233.302C316.572 233.382 293.059 233.448 264.06 233.448C235.06 233.448 211.547 233.382 211.547 233.302C211.547 233.223 235.054 233.157 264.06 233.157C293.065 233.157 316.572 233.223 316.572 233.302Z" fill="#EBEBEB"/>
<path d="M316.572 238.69C316.572 238.77 293.059 238.836 264.06 238.836C235.06 238.836 211.547 238.77 211.547 238.69C211.547 238.611 235.054 238.545 264.06 238.545C293.065 238.545 316.572 238.604 316.572 238.69Z" fill="#EBEBEB"/>
<path d="M316.572 244.079C316.572 244.159 293.059 244.225 264.06 244.225C235.06 244.225 211.547 244.159 211.547 244.079C211.547 244 235.054 243.927 264.06 243.927C293.065 243.927 316.572 243.993 316.572 244.079Z" fill="#EBEBEB"/>
<path d="M316.57 249.461C316.57 249.547 293.056 249.606 264.057 249.606C235.058 249.606 211.531 249.547 211.531 249.461C211.531 249.375 235.038 249.315 264.044 249.315C293.05 249.315 316.57 249.382 316.57 249.461Z" fill="#EBEBEB"/>
<path d="M316.57 254.85C316.57 254.929 293.056 254.995 264.057 254.995C235.058 254.995 211.531 254.949 211.531 254.85C211.531 254.75 235.038 254.704 264.044 254.704C293.05 254.704 316.57 254.77 316.57 254.85Z" fill="#EBEBEB"/>
<path d="M307.429 248.575C307.429 248.575 307.357 248.661 307.198 248.813C306.934 249.026 306.634 249.192 306.314 249.302C305.668 249.479 304.993 249.515 304.333 249.409C303.673 249.303 303.043 249.057 302.485 248.688C301.747 248.164 301.13 247.487 300.676 246.704C300.174 245.891 299.778 244.945 299.303 243.96C298.825 242.873 298.126 241.898 297.25 241.097C296.731 240.654 296.12 240.331 295.461 240.152C294.746 239.963 293.999 239.927 293.27 240.046C291.727 240.305 290.281 240.969 289.078 241.97C287.824 242.955 286.728 244.159 285.381 245.276C283.956 246.51 282.181 247.267 280.305 247.438C279.295 247.508 278.287 247.278 277.407 246.777C276.585 246.264 275.892 245.57 275.38 244.747C274.337 243.187 273.809 241.362 272.449 239.934C271.782 239.172 270.893 238.638 269.908 238.406C269.394 238.308 268.866 238.312 268.354 238.418C267.842 238.525 267.356 238.732 266.924 239.028C266.08 239.603 265.398 240.386 264.944 241.302C264.525 242.208 264.212 243.16 264.013 244.139C263.803 245.147 263.496 246.132 263.095 247.081C262.638 248.096 261.915 248.969 261.003 249.607C260.044 250.289 258.954 250.762 257.801 250.995C256.639 251.249 255.437 251.263 254.27 251.035C253.15 250.81 252.088 250.36 251.147 249.712C250.223 249.117 249.391 248.456 248.507 247.861C247.654 247.242 246.69 246.793 245.668 246.539C244.646 246.311 243.577 246.432 242.632 246.883C241.754 247.322 240.981 247.947 240.367 248.714C239.792 249.449 239.278 250.229 238.829 251.048C238.387 251.856 237.881 252.627 237.318 253.355C236.725 254.101 235.983 254.714 235.139 255.154C234.269 255.624 233.278 255.824 232.294 255.729C231.361 255.616 230.492 255.195 229.825 254.532C229.228 253.953 228.762 253.252 228.459 252.476C228.192 251.76 227.984 251.024 227.838 250.274C227.535 248.833 227.238 247.425 226.379 246.307C225.993 245.735 225.494 245.247 224.915 244.872C224.335 244.497 223.686 244.243 223.006 244.125C222.339 244.038 221.66 244.111 221.026 244.337C220.459 244.542 219.932 244.844 219.468 245.23C217.692 246.704 216.827 248.483 215.507 249.514C214.547 250.423 213.3 250.967 211.982 251.055C211.633 251.054 211.286 251.001 210.952 250.896L210.629 250.77C211.054 250.917 211.5 250.993 211.949 250.995C213.24 250.885 214.454 250.334 215.388 249.435C216.669 248.41 217.488 246.631 219.29 245.111C219.772 244.708 220.319 244.391 220.907 244.172C221.562 243.937 222.263 243.858 222.953 243.94C223.666 244.058 224.348 244.318 224.958 244.705C225.569 245.093 226.095 245.599 226.505 246.195C226.932 246.774 227.262 247.42 227.482 248.106C227.696 248.806 227.874 249.516 228.017 250.235C228.161 250.974 228.369 251.7 228.637 252.403C228.933 253.15 229.383 253.826 229.957 254.387C230.583 255 231.392 255.39 232.261 255.498C233.177 255.576 234.095 255.383 234.902 254.942C235.708 254.519 236.416 253.931 236.981 253.217C237.535 252.496 238.032 251.734 238.466 250.936C238.92 250.105 239.441 249.314 240.024 248.569C240.665 247.764 241.474 247.109 242.394 246.651C243.41 246.162 244.561 246.03 245.662 246.274C246.729 246.546 247.736 247.019 248.626 247.669C249.517 248.271 250.348 248.932 251.266 249.514C252.169 250.139 253.188 250.576 254.263 250.797C255.38 251.015 256.531 251.001 257.643 250.757C258.747 250.537 259.793 250.087 260.712 249.435C261.15 249.122 261.547 248.756 261.894 248.344C262.216 247.938 262.486 247.494 262.699 247.021C263.098 246.089 263.403 245.119 263.61 244.125C263.814 243.129 264.133 242.159 264.561 241.236C265.037 240.28 265.748 239.461 266.627 238.856C267.101 238.537 267.632 238.314 268.192 238.2C268.751 238.087 269.328 238.085 269.888 238.195C270.943 238.44 271.895 239.011 272.608 239.828C274.014 241.322 274.542 243.134 275.558 244.681C276.047 245.464 276.703 246.128 277.479 246.625C278.302 247.108 279.247 247.337 280.199 247.286C282.008 247.119 283.721 246.391 285.097 245.203C286.417 244.132 287.533 242.922 288.807 241.93C290.05 240.898 291.545 240.214 293.138 239.947C293.906 239.83 294.689 239.87 295.441 240.066C296.126 240.262 296.76 240.602 297.303 241.064C298.194 241.886 298.902 242.886 299.382 244C299.776 244.936 300.217 245.852 300.703 246.744C301.136 247.512 301.731 248.177 302.445 248.694C302.985 249.062 303.596 249.311 304.239 249.425C304.882 249.539 305.542 249.515 306.175 249.355C306.654 249.209 307.086 248.94 307.429 248.575Z" fill="#455A64"/>
<path d="M314.072 247.319C314.072 247.319 313.953 247.319 313.709 247.319C313.558 247.311 313.408 247.294 313.26 247.266C313.062 247.219 312.868 247.16 312.679 247.088C311.494 246.541 310.431 245.763 309.55 244.8C309.259 244.503 308.956 244.185 308.652 243.848C308.353 243.48 308.029 243.133 307.682 242.81C306.802 242.094 305.723 241.667 304.592 241.587C303.956 241.534 303.315 241.603 302.704 241.792C302.085 242.005 301.515 242.34 301.028 242.777C300.043 243.755 299.12 244.793 298.262 245.884C297.746 246.467 297.148 246.971 296.486 247.379C295.746 247.811 294.922 248.079 294.07 248.165C292.25 248.274 290.429 247.978 288.736 247.299C286.993 246.671 285.33 245.805 283.455 245.25C282.51 244.95 281.528 244.778 280.537 244.741C279.528 244.719 278.525 244.908 277.593 245.296C275.719 246.076 274.253 247.504 272.484 248.661C271.575 249.278 270.578 249.753 269.527 250.07C268.427 250.396 267.287 250.568 266.14 250.579C263.795 250.618 261.478 250.061 259.407 248.959C257.402 247.884 255.659 246.378 254.304 244.549C252.938 242.77 252.185 240.747 251.195 238.903C250.718 237.967 250.111 237.103 249.393 236.337C248.645 235.566 247.746 234.959 246.752 234.552C245.738 234.129 244.619 234.025 243.544 234.255C242.539 234.504 241.625 235.031 240.904 235.775C240.223 236.468 239.68 237.285 239.306 238.182C238.963 239.041 238.687 239.925 238.481 240.827C238.263 241.719 238.065 242.612 237.788 243.471C237.512 244.338 237.128 245.166 236.646 245.937C235.669 247.477 234.349 248.769 232.791 249.713C231.263 250.664 229.546 251.268 227.761 251.485C226.076 251.67 224.371 251.499 222.757 250.982C219.714 250.03 217.562 247.98 216.763 245.878C216.347 244.827 216.136 243.822 215.839 242.922C215.602 242.078 215.195 241.29 214.644 240.608C214.211 240.115 213.676 239.722 213.077 239.456C212.477 239.19 211.827 239.058 211.172 239.068C210.704 239.095 210.25 239.238 209.852 239.484C210.231 239.191 210.693 239.025 211.172 239.008C211.844 238.985 212.513 239.111 213.131 239.376C213.75 239.641 214.302 240.039 214.75 240.542C215.322 241.228 215.747 242.025 215.997 242.883C216.308 243.789 216.525 244.794 216.948 245.818C217.747 247.875 219.859 249.871 222.843 250.79C224.412 251.284 226.067 251.443 227.701 251.26C229.44 251.041 231.111 250.448 232.599 249.521C234.118 248.589 235.403 247.32 236.355 245.812C237.244 244.251 237.852 242.545 238.151 240.774C238.355 239.854 238.634 238.951 238.983 238.076C239.371 237.15 239.931 236.307 240.633 235.59C241.416 234.758 242.435 234.186 243.552 233.949C244.669 233.713 245.832 233.824 246.884 234.268C247.929 234.688 248.875 235.321 249.664 236.126C250.404 236.916 251.031 237.806 251.525 238.77C252.528 240.648 253.268 242.638 254.608 244.384C255.937 246.175 257.643 247.651 259.605 248.708C261.621 249.776 263.873 250.319 266.153 250.288C267.27 250.271 268.38 250.107 269.454 249.799C270.472 249.487 271.44 249.028 272.325 248.437C274.062 247.299 275.54 245.858 277.494 245.051C278.469 244.642 279.52 244.443 280.577 244.47C281.597 244.511 282.607 244.689 283.581 244.999C285.488 245.567 287.165 246.446 288.862 247.068C290.509 247.736 292.282 248.032 294.057 247.934C294.871 247.856 295.659 247.604 296.367 247.194C297.012 246.802 297.593 246.313 298.09 245.746C298.964 244.656 299.9 243.618 300.896 242.638C301.408 242.183 302.008 241.837 302.658 241.62C303.299 241.424 303.971 241.355 304.638 241.415C305.807 241.505 306.918 241.955 307.82 242.704C308.169 243.035 308.495 243.388 308.797 243.762C309.094 244.106 309.391 244.423 309.675 244.714C310.532 245.678 311.571 246.462 312.732 247.022C313.15 247.221 313.608 247.323 314.072 247.319Z" fill="#810019"/>
<path d="M204.338 233.567C203.89 233.717 203.415 233.768 202.945 233.719C202.477 233.769 202.004 233.717 201.559 233.567C202.006 233.424 202.478 233.375 202.945 233.421C203.414 233.375 203.888 233.425 204.338 233.567Z" fill="#E0E0E0"/>
<path d="M204.338 238.691C203.888 238.833 203.414 238.883 202.945 238.837C202.478 238.883 202.006 238.834 201.559 238.691C202.005 238.544 202.478 238.495 202.945 238.546C203.414 238.496 203.889 238.545 204.338 238.691Z" fill="#E0E0E0"/>
<path d="M204.338 243.808C203.888 243.95 203.414 244 202.945 243.954C202.478 244 202.006 243.951 201.559 243.808C202.006 243.666 202.478 243.616 202.945 243.663C203.414 243.617 203.888 243.666 204.338 243.808Z" fill="#E0E0E0"/>
<path d="M204.338 248.926C203.89 249.075 203.415 249.127 202.945 249.078C202.477 249.128 202.004 249.076 201.559 248.926C202.006 248.783 202.478 248.734 202.945 248.78C203.414 248.734 203.888 248.784 204.338 248.926Z" fill="#E0E0E0"/>
<path d="M204.338 254.049C203.888 254.191 203.414 254.241 202.945 254.195C202.478 254.241 202.006 254.192 201.559 254.049C202.004 253.899 202.477 253.847 202.945 253.897C203.415 253.848 203.89 253.9 204.338 254.049Z" fill="#E0E0E0"/>
<path d="M217.099 260.628C215.253 260.822 213.392 260.822 211.547 260.628C213.392 260.434 215.253 260.434 217.099 260.628Z" fill="#E0E0E0"/>
<path d="M241.587 260.628C239.741 260.822 237.881 260.822 236.035 260.628C237.881 260.434 239.741 260.434 241.587 260.628Z" fill="#E0E0E0"/>
<path d="M266.078 260.628C264.23 260.822 262.367 260.822 260.52 260.628C262.367 260.434 264.23 260.434 266.078 260.628Z" fill="#E0E0E0"/>
<path d="M290.566 260.628C288.718 260.822 286.855 260.822 285.008 260.628C286.855 260.434 288.718 260.434 290.566 260.628Z" fill="#E0E0E0"/>
<path d="M315.056 260.628C313.21 260.822 311.349 260.822 309.504 260.628C311.349 260.434 313.21 260.434 315.056 260.628Z" fill="#E0E0E0"/>
<path d="M64.9402 209.407L77.6014 178.815C78.1823 177.42 77.4561 176.289 75.9841 176.289H73.436C73.2196 176.315 73.0003 176.297 72.7911 176.236C72.5818 176.176 72.3868 176.074 72.2175 175.936C72.0483 175.799 71.9083 175.629 71.8058 175.436C71.7033 175.244 71.6403 175.032 71.6207 174.815L71.5349 173.691C71.5144 173.474 71.4508 173.264 71.3479 173.072C71.2451 172.88 71.1049 172.711 70.9358 172.574C70.7667 172.438 70.5719 172.336 70.363 172.276C70.1542 172.215 69.9354 172.198 69.7195 172.223H57.6195C56.5626 172.274 55.5624 172.717 54.814 173.466L53.8304 174.418C53.0865 175.17 52.0872 175.614 51.0315 175.661H35.6176C34.8327 175.705 34.0749 175.964 33.4266 176.409C32.7783 176.855 32.2644 177.469 31.9408 178.187L19.3984 209.407H64.9402Z" fill="#810019"/>
<g opacity="0.3">
<path d="M64.9402 209.407L77.6014 178.815C78.1823 177.42 77.4561 176.289 75.9841 176.289H73.436C73.2196 176.315 73.0003 176.297 72.7911 176.236C72.5818 176.176 72.3868 176.074 72.2175 175.936C72.0483 175.799 71.9083 175.629 71.8058 175.436C71.7033 175.244 71.6403 175.032 71.6207 174.815L71.5349 173.691C71.5144 173.474 71.4508 173.264 71.3479 173.072C71.2451 172.88 71.1049 172.711 70.9358 172.574C70.7667 172.438 70.5719 172.336 70.363 172.276C70.1542 172.215 69.9354 172.198 69.7195 172.223H57.6195C56.5626 172.274 55.5624 172.717 54.814 173.466L53.8304 174.418C53.0865 175.17 52.0872 175.614 51.0315 175.661H35.6176C34.8327 175.705 34.0749 175.964 33.4266 176.409C32.7783 176.855 32.2644 177.469 31.9408 178.187L19.3984 209.407H64.9402Z" fill="black"/>
</g>
<path d="M67.0349 199.014L71.8142 180.501C72.1244 179.285 71.3323 178.062 70.2233 178.062H32.801C32.4196 178.079 32.0552 178.224 31.7657 178.473C31.4762 178.723 31.2783 179.062 31.2035 179.437L24.2524 207.292C23.9488 208.515 24.4372 209.275 25.5727 209.236H63.1996C63.5754 209.213 63.9331 209.066 64.2171 208.819C64.5012 208.571 64.6958 208.237 64.7707 207.867L67.0349 199.014Z" fill="#E0E0E0"/>
<path d="M64.4505 208.568L66.4837 179.476C66.5 179.232 66.4659 178.987 66.3837 178.757C66.3014 178.526 66.1727 178.315 66.0056 178.136C65.8384 177.958 65.6364 177.816 65.412 177.719C65.1876 177.622 64.9457 177.572 64.7013 177.572H25.9258V208.594L64.4505 208.568Z" fill="#EBEBEB"/>
<path d="M64.8802 209.235L60.2593 179.218C60.1522 178.74 59.8847 178.314 59.5015 178.009C59.1183 177.705 58.6426 177.541 58.1535 177.546H18.9357C18.5827 177.54 18.2339 177.624 17.9211 177.788C17.6083 177.952 17.3414 178.191 17.1447 178.485C16.9479 178.779 16.8275 179.117 16.7945 179.469C16.7614 179.821 16.8167 180.176 16.9553 180.501L25.4247 208.006L64.8802 209.235Z" fill="#FAFAFA"/>
<path d="M64.94 209.394L55.4276 181.281C55.2515 180.715 54.9016 180.218 54.4276 179.862C53.9535 179.506 53.3796 179.309 52.7871 179.298H12.3481C12.0362 179.307 11.7309 179.39 11.4571 179.54C11.1833 179.689 10.9487 179.902 10.7723 180.16C10.596 180.417 10.483 180.713 10.4425 181.023C10.402 181.333 10.4352 181.648 10.5393 181.943L19.385 209.401L64.94 209.394Z" fill="#810019"/>
<path d="M440.594 329.985C440.594 330.084 342.461 330.157 221.434 330.157C100.407 330.157 2.27344 330.084 2.27344 329.985C2.27344 329.886 100.387 329.813 221.434 329.813C342.48 329.813 440.594 329.892 440.594 329.985Z" fill="#263238"/>
</g>
<defs>
<filter id="filter0_f_17133_8407" x="137.8" y="0.515332" width="378.4" height="377.465" filterUnits="userSpaceOnUse" color-interpolation-filters="sRGB">
<feFlood flood-opacity="0" result="BackgroundImageFix"/>
<feBlend mode="normal" in="SourceGraphic" in2="BackgroundImageFix" result="shape"/>
<feGaussianBlur stdDeviation="5.1" result="effect1_foregroundBlur_17133_8407"/>
</filter>
<clipPath id="clip0_17133_8407">
<rect width="446" height="272" fill="white" transform="translate(0 59)"/>
</clipPath>
</defs>
</svg>
