<svg width="465" height="98" viewBox="0 0 465 98" fill="none" xmlns="http://www.w3.org/2000/svg">
<g filter="url(#filter0_d_16986_1512)">
<rect x="4" y="3" width="457" height="90" rx="22" fill="white"/>
</g>
<rect x="14" y="15" width="65" height="65" rx="10" fill="#FFCCCC"/>
<path d="M96.692 31V18.4H99.032V29.02H105.62V31H96.692ZM111.484 31.126C110.5 31.126 109.624 30.916 108.856 30.496C108.088 30.064 107.482 29.476 107.038 28.732C106.594 27.988 106.372 27.142 106.372 26.194C106.372 25.234 106.594 24.388 107.038 23.656C107.482 22.912 108.088 22.33 108.856 21.91C109.624 21.49 110.5 21.28 111.484 21.28C112.48 21.28 113.362 21.49 114.13 21.91C114.91 22.33 115.516 22.906 115.948 23.638C116.392 24.37 116.614 25.222 116.614 26.194C116.614 27.142 116.392 27.988 115.948 28.732C115.516 29.476 114.91 30.064 114.13 30.496C113.362 30.916 112.48 31.126 111.484 31.126ZM111.484 29.2C112.036 29.2 112.528 29.08 112.96 28.84C113.392 28.6 113.728 28.252 113.968 27.796C114.22 27.34 114.346 26.806 114.346 26.194C114.346 25.57 114.22 25.036 113.968 24.592C113.728 24.136 113.392 23.788 112.96 23.548C112.528 23.308 112.042 23.188 111.502 23.188C110.95 23.188 110.458 23.308 110.026 23.548C109.606 23.788 109.27 24.136 109.018 24.592C108.766 25.036 108.64 25.57 108.64 26.194C108.64 26.806 108.766 27.34 109.018 27.796C109.27 28.252 109.606 28.6 110.026 28.84C110.458 29.08 110.944 29.2 111.484 29.2ZM124.564 31V29.056L124.438 28.642V25.24C124.438 24.58 124.24 24.07 123.844 23.71C123.448 23.338 122.848 23.152 122.044 23.152C121.504 23.152 120.97 23.236 120.442 23.404C119.926 23.572 119.488 23.806 119.128 24.106L118.246 22.468C118.762 22.072 119.374 21.778 120.082 21.586C120.802 21.382 121.546 21.28 122.314 21.28C123.706 21.28 124.78 21.616 125.536 22.288C126.304 22.948 126.688 23.974 126.688 25.366V31H124.564ZM121.54 31.126C120.82 31.126 120.19 31.006 119.65 30.766C119.11 30.514 118.69 30.172 118.39 29.74C118.102 29.296 117.958 28.798 117.958 28.246C117.958 27.706 118.084 27.22 118.336 26.788C118.6 26.356 119.026 26.014 119.614 25.762C120.202 25.51 120.982 25.384 121.954 25.384H124.744V26.878H122.116C121.348 26.878 120.832 27.004 120.568 27.256C120.304 27.496 120.172 27.796 120.172 28.156C120.172 28.564 120.334 28.888 120.658 29.128C120.982 29.368 121.432 29.488 122.008 29.488C122.56 29.488 123.052 29.362 123.484 29.11C123.928 28.858 124.246 28.486 124.438 27.994L124.816 29.344C124.6 29.908 124.21 30.346 123.646 30.658C123.094 30.97 122.392 31.126 121.54 31.126ZM135.03 21.28C135.798 21.28 136.482 21.43 137.082 21.73C137.694 22.03 138.174 22.492 138.522 23.116C138.87 23.728 139.044 24.52 139.044 25.492V31H136.794V25.78C136.794 24.928 136.59 24.292 136.182 23.872C135.786 23.452 135.228 23.242 134.508 23.242C133.98 23.242 133.512 23.35 133.104 23.566C132.696 23.782 132.378 24.106 132.15 24.538C131.934 24.958 131.826 25.492 131.826 26.14V31H129.576V21.388H131.718V23.98L131.34 23.188C131.676 22.576 132.162 22.108 132.798 21.784C133.446 21.448 134.19 21.28 135.03 21.28ZM144.868 31.126C144.064 31.126 143.29 31.024 142.546 30.82C141.814 30.604 141.232 30.346 140.8 30.046L141.664 28.336C142.096 28.612 142.612 28.84 143.212 29.02C143.812 29.2 144.412 29.29 145.012 29.29C145.72 29.29 146.23 29.194 146.542 29.002C146.866 28.81 147.028 28.552 147.028 28.228C147.028 27.964 146.92 27.766 146.704 27.634C146.488 27.49 146.206 27.382 145.858 27.31C145.51 27.238 145.12 27.172 144.688 27.112C144.268 27.052 143.842 26.974 143.41 26.878C142.99 26.77 142.606 26.62 142.258 26.428C141.91 26.224 141.628 25.954 141.412 25.618C141.196 25.282 141.088 24.838 141.088 24.286C141.088 23.674 141.262 23.146 141.61 22.702C141.958 22.246 142.444 21.898 143.068 21.658C143.704 21.406 144.454 21.28 145.318 21.28C145.966 21.28 146.62 21.352 147.28 21.496C147.94 21.64 148.486 21.844 148.918 22.108L148.054 23.818C147.598 23.542 147.136 23.356 146.668 23.26C146.212 23.152 145.756 23.098 145.3 23.098C144.616 23.098 144.106 23.2 143.77 23.404C143.446 23.608 143.284 23.866 143.284 24.178C143.284 24.466 143.392 24.682 143.608 24.826C143.824 24.97 144.106 25.084 144.454 25.168C144.802 25.252 145.186 25.324 145.606 25.384C146.038 25.432 146.464 25.51 146.884 25.618C147.304 25.726 147.688 25.876 148.036 26.068C148.396 26.248 148.684 26.506 148.9 26.842C149.116 27.178 149.224 27.616 149.224 28.156C149.224 28.756 149.044 29.278 148.684 29.722C148.336 30.166 147.838 30.514 147.19 30.766C146.542 31.006 145.768 31.126 144.868 31.126Z" fill="#414141"/>
<path d="M94.982 60L100.688 47.4H102.47L108.194 60H106.304L101.21 48.408H101.93L96.836 60H94.982ZM97.412 56.85L97.898 55.41H104.99L105.512 56.85H97.412ZM114.916 50.37C115.696 50.37 116.38 50.52 116.968 50.82C117.568 51.12 118.036 51.576 118.372 52.188C118.708 52.8 118.876 53.574 118.876 54.51V60H117.148V54.708C117.148 53.784 116.92 53.088 116.464 52.62C116.02 52.152 115.39 51.918 114.574 51.918C113.962 51.918 113.428 52.038 112.972 52.278C112.516 52.518 112.162 52.872 111.91 53.34C111.67 53.808 111.55 54.39 111.55 55.086V60H109.822V50.46H111.478V53.034L111.208 52.35C111.52 51.726 112 51.24 112.648 50.892C113.296 50.544 114.052 50.37 114.916 50.37ZM127.996 60V57.984L127.906 57.606V54.168C127.906 53.436 127.69 52.872 127.258 52.476C126.838 52.068 126.202 51.864 125.35 51.864C124.786 51.864 124.234 51.96 123.694 52.152C123.154 52.332 122.698 52.578 122.326 52.89L121.606 51.594C122.098 51.198 122.686 50.898 123.37 50.694C124.066 50.478 124.792 50.37 125.548 50.37C126.856 50.37 127.864 50.688 128.572 51.324C129.28 51.96 129.634 52.932 129.634 54.24V60H127.996ZM124.864 60.108C124.156 60.108 123.532 59.988 122.992 59.748C122.464 59.508 122.056 59.178 121.768 58.758C121.48 58.326 121.336 57.84 121.336 57.3C121.336 56.784 121.456 56.316 121.696 55.896C121.948 55.476 122.35 55.14 122.902 54.888C123.466 54.636 124.222 54.51 125.17 54.51H128.194V55.752H125.242C124.378 55.752 123.796 55.896 123.496 56.184C123.196 56.472 123.046 56.82 123.046 57.228C123.046 57.696 123.232 58.074 123.604 58.362C123.976 58.638 124.492 58.776 125.152 58.776C125.8 58.776 126.364 58.632 126.844 58.344C127.336 58.056 127.69 57.636 127.906 57.084L128.248 58.272C128.02 58.836 127.618 59.286 127.042 59.622C126.466 59.946 125.74 60.108 124.864 60.108ZM132.831 60V46.644H134.559V60H132.831ZM138.273 63.6C137.817 63.6 137.373 63.522 136.941 63.366C136.509 63.222 136.137 63.006 135.825 62.718L136.563 61.422C136.803 61.65 137.067 61.824 137.355 61.944C137.643 62.064 137.949 62.124 138.273 62.124C138.693 62.124 139.041 62.016 139.317 61.8C139.593 61.584 139.851 61.2 140.091 60.648L140.685 59.334L140.865 59.118L144.609 50.46H146.301L141.675 60.954C141.399 61.626 141.087 62.154 140.739 62.538C140.403 62.922 140.031 63.192 139.623 63.348C139.215 63.516 138.765 63.6 138.273 63.6ZM140.541 60.306L136.185 50.46H137.985L141.693 58.956L140.541 60.306ZM146.82 60V58.884L152.94 51.288L153.282 51.882H146.928V50.46H154.668V51.594L148.548 59.172L148.152 58.578H154.812V60H146.82ZM161.232 60.108C160.212 60.108 159.312 59.898 158.532 59.478C157.764 59.058 157.164 58.482 156.732 57.75C156.312 57.018 156.102 56.178 156.102 55.23C156.102 54.282 156.306 53.442 156.714 52.71C157.134 51.978 157.704 51.408 158.424 51C159.156 50.58 159.978 50.37 160.89 50.37C161.814 50.37 162.63 50.574 163.338 50.982C164.046 51.39 164.598 51.966 164.994 52.71C165.402 53.442 165.606 54.3 165.606 55.284C165.606 55.356 165.6 55.44 165.588 55.536C165.588 55.632 165.582 55.722 165.57 55.806H157.452V54.564H164.67L163.968 54.996C163.98 54.384 163.854 53.838 163.59 53.358C163.326 52.878 162.96 52.506 162.492 52.242C162.036 51.966 161.502 51.828 160.89 51.828C160.29 51.828 159.756 51.966 159.288 52.242C158.82 52.506 158.454 52.884 158.19 53.376C157.926 53.856 157.794 54.408 157.794 55.032V55.32C157.794 55.956 157.938 56.526 158.226 57.03C158.526 57.522 158.94 57.906 159.468 58.182C159.996 58.458 160.602 58.596 161.286 58.596C161.85 58.596 162.36 58.5 162.816 58.308C163.284 58.116 163.692 57.828 164.04 57.444L164.994 58.56C164.562 59.064 164.022 59.448 163.374 59.712C162.738 59.976 162.024 60.108 161.232 60.108ZM173.253 63.6C172.797 63.6 172.353 63.522 171.921 63.366C171.489 63.222 171.117 63.006 170.805 62.718L171.543 61.422C171.783 61.65 172.047 61.824 172.335 61.944C172.623 62.064 172.929 62.124 173.253 62.124C173.673 62.124 174.021 62.016 174.297 61.8C174.573 61.584 174.831 61.2 175.071 60.648L175.665 59.334L175.845 59.118L179.589 50.46H181.281L176.655 60.954C176.379 61.626 176.067 62.154 175.719 62.538C175.383 62.922 175.011 63.192 174.603 63.348C174.195 63.516 173.745 63.6 173.253 63.6ZM175.521 60.306L171.165 50.46H172.965L176.673 58.956L175.521 60.306ZM186.716 60.108C185.756 60.108 184.904 59.898 184.16 59.478C183.416 59.058 182.828 58.482 182.396 57.75C181.964 57.006 181.748 56.166 181.748 55.23C181.748 54.282 181.964 53.442 182.396 52.71C182.828 51.978 183.416 51.408 184.16 51C184.904 50.58 185.756 50.37 186.716 50.37C187.664 50.37 188.51 50.58 189.254 51C190.01 51.408 190.598 51.978 191.018 52.71C191.45 53.43 191.666 54.27 191.666 55.23C191.666 56.178 191.45 57.018 191.018 57.75C190.598 58.482 190.01 59.058 189.254 59.478C188.51 59.898 187.664 60.108 186.716 60.108ZM186.716 58.596C187.328 58.596 187.874 58.458 188.354 58.182C188.846 57.906 189.23 57.516 189.506 57.012C189.782 56.496 189.92 55.902 189.92 55.23C189.92 54.546 189.782 53.958 189.506 53.466C189.23 52.962 188.846 52.572 188.354 52.296C187.874 52.02 187.328 51.882 186.716 51.882C186.104 51.882 185.558 52.02 185.078 52.296C184.598 52.572 184.214 52.962 183.926 53.466C183.638 53.958 183.494 54.546 183.494 55.23C183.494 55.902 183.638 56.496 183.926 57.012C184.214 57.516 184.598 57.906 185.078 58.182C185.558 58.458 186.104 58.596 186.716 58.596ZM198.07 60.108C197.254 60.108 196.534 59.958 195.91 59.658C195.298 59.358 194.818 58.902 194.47 58.29C194.134 57.666 193.966 56.886 193.966 55.95V50.46H195.694V55.752C195.694 56.688 195.916 57.39 196.36 57.858C196.816 58.326 197.452 58.56 198.268 58.56C198.868 58.56 199.39 58.44 199.834 58.2C200.278 57.948 200.62 57.588 200.86 57.12C201.1 56.64 201.22 56.064 201.22 55.392V50.46H202.948V60H201.31V57.426L201.58 58.11C201.268 58.746 200.8 59.238 200.176 59.586C199.552 59.934 198.85 60.108 198.07 60.108ZM206.238 60V50.46H207.894V53.052L207.732 52.404C207.996 51.744 208.44 51.24 209.064 50.892C209.688 50.544 210.456 50.37 211.368 50.37V52.044C211.296 52.032 211.224 52.026 211.152 52.026C211.092 52.026 211.032 52.026 210.972 52.026C210.048 52.026 209.316 52.302 208.776 52.854C208.236 53.406 207.966 54.204 207.966 55.248V60H206.238ZM222.54 60.108C221.58 60.108 220.728 59.898 219.984 59.478C219.24 59.058 218.652 58.482 218.22 57.75C217.788 57.006 217.572 56.166 217.572 55.23C217.572 54.282 217.788 53.442 218.22 52.71C218.652 51.978 219.24 51.408 219.984 51C220.728 50.58 221.58 50.37 222.54 50.37C223.488 50.37 224.334 50.58 225.078 51C225.834 51.408 226.422 51.978 226.842 52.71C227.274 53.43 227.49 54.27 227.49 55.23C227.49 56.178 227.274 57.018 226.842 57.75C226.422 58.482 225.834 59.058 225.078 59.478C224.334 59.898 223.488 60.108 222.54 60.108ZM222.54 58.596C223.152 58.596 223.698 58.458 224.178 58.182C224.67 57.906 225.054 57.516 225.33 57.012C225.606 56.496 225.744 55.902 225.744 55.23C225.744 54.546 225.606 53.958 225.33 53.466C225.054 52.962 224.67 52.572 224.178 52.296C223.698 52.02 223.152 51.882 222.54 51.882C221.928 51.882 221.382 52.02 220.902 52.296C220.422 52.572 220.038 52.962 219.75 53.466C219.462 53.958 219.318 54.546 219.318 55.23C219.318 55.902 219.462 56.496 219.75 57.012C220.038 57.516 220.422 57.906 220.902 58.182C221.382 58.458 221.928 58.596 222.54 58.596ZM232.119 60L227.943 50.46H229.743L233.451 59.1H232.587L236.367 50.46H238.059L233.883 60H232.119ZM243.656 60.108C242.636 60.108 241.736 59.898 240.956 59.478C240.188 59.058 239.588 58.482 239.156 57.75C238.736 57.018 238.526 56.178 238.526 55.23C238.526 54.282 238.73 53.442 239.138 52.71C239.558 51.978 240.128 51.408 240.848 51C241.58 50.58 242.402 50.37 243.314 50.37C244.238 50.37 245.054 50.574 245.762 50.982C246.47 51.39 247.022 51.966 247.418 52.71C247.826 53.442 248.03 54.3 248.03 55.284C248.03 55.356 248.024 55.44 248.012 55.536C248.012 55.632 248.006 55.722 247.994 55.806H239.876V54.564H247.094L246.392 54.996C246.404 54.384 246.278 53.838 246.014 53.358C245.75 52.878 245.384 52.506 244.916 52.242C244.46 51.966 243.926 51.828 243.314 51.828C242.714 51.828 242.18 51.966 241.712 52.242C241.244 52.506 240.878 52.884 240.614 53.376C240.35 53.856 240.218 54.408 240.218 55.032V55.32C240.218 55.956 240.362 56.526 240.65 57.03C240.95 57.522 241.364 57.906 241.892 58.182C242.42 58.458 243.026 58.596 243.71 58.596C244.274 58.596 244.784 58.5 245.24 58.308C245.708 58.116 246.116 57.828 246.464 57.444L247.418 58.56C246.986 59.064 246.446 59.448 245.798 59.712C245.162 59.976 244.448 60.108 243.656 60.108ZM250.429 60V50.46H252.085V53.052L251.923 52.404C252.187 51.744 252.631 51.24 253.255 50.892C253.879 50.544 254.647 50.37 255.559 50.37V52.044C255.487 52.032 255.415 52.026 255.343 52.026C255.283 52.026 255.223 52.026 255.163 52.026C254.239 52.026 253.507 52.302 252.967 52.854C252.427 53.406 252.157 54.204 252.157 55.248V60H250.429ZM262.908 60V57.984L262.818 57.606V54.168C262.818 53.436 262.602 52.872 262.17 52.476C261.75 52.068 261.114 51.864 260.262 51.864C259.698 51.864 259.146 51.96 258.606 52.152C258.066 52.332 257.61 52.578 257.238 52.89L256.518 51.594C257.01 51.198 257.598 50.898 258.282 50.694C258.978 50.478 259.704 50.37 260.46 50.37C261.768 50.37 262.776 50.688 263.484 51.324C264.192 51.96 264.546 52.932 264.546 54.24V60H262.908ZM259.776 60.108C259.068 60.108 258.444 59.988 257.904 59.748C257.376 59.508 256.968 59.178 256.68 58.758C256.392 58.326 256.248 57.84 256.248 57.3C256.248 56.784 256.368 56.316 256.608 55.896C256.86 55.476 257.262 55.14 257.814 54.888C258.378 54.636 259.134 54.51 260.082 54.51H263.106V55.752H260.154C259.29 55.752 258.708 55.896 258.408 56.184C258.108 56.472 257.958 56.82 257.958 57.228C257.958 57.696 258.144 58.074 258.516 58.362C258.888 58.638 259.404 58.776 260.064 58.776C260.712 58.776 261.276 58.632 261.756 58.344C262.248 58.056 262.602 57.636 262.818 57.084L263.16 58.272C262.932 58.836 262.53 59.286 261.954 59.622C261.378 59.946 260.652 60.108 259.776 60.108ZM267.743 60V46.644H269.471V60H267.743ZM272.771 60V46.644H274.499V60H272.771ZM282.632 60V46.644H284.36V60H282.632ZM291.745 60.108C290.785 60.108 289.933 59.898 289.189 59.478C288.445 59.058 287.857 58.482 287.425 57.75C286.993 57.006 286.777 56.166 286.777 55.23C286.777 54.282 286.993 53.442 287.425 52.71C287.857 51.978 288.445 51.408 289.189 51C289.933 50.58 290.785 50.37 291.745 50.37C292.693 50.37 293.539 50.58 294.283 51C295.039 51.408 295.627 51.978 296.047 52.71C296.479 53.43 296.695 54.27 296.695 55.23C296.695 56.178 296.479 57.018 296.047 57.75C295.627 58.482 295.039 59.058 294.283 59.478C293.539 59.898 292.693 60.108 291.745 60.108ZM291.745 58.596C292.357 58.596 292.903 58.458 293.383 58.182C293.875 57.906 294.259 57.516 294.535 57.012C294.811 56.496 294.949 55.902 294.949 55.23C294.949 54.546 294.811 53.958 294.535 53.466C294.259 52.962 293.875 52.572 293.383 52.296C292.903 52.02 292.357 51.882 291.745 51.882C291.133 51.882 290.587 52.02 290.107 52.296C289.627 52.572 289.243 52.962 288.955 53.466C288.667 53.958 288.523 54.546 288.523 55.23C288.523 55.902 288.667 56.496 288.955 57.012C289.243 57.516 289.627 57.906 290.107 58.182C290.587 58.458 291.133 58.596 291.745 58.596ZM304.919 60V57.984L304.829 57.606V54.168C304.829 53.436 304.613 52.872 304.181 52.476C303.761 52.068 303.125 51.864 302.273 51.864C301.709 51.864 301.157 51.96 300.617 52.152C300.077 52.332 299.621 52.578 299.249 52.89L298.529 51.594C299.021 51.198 299.609 50.898 300.293 50.694C300.989 50.478 301.715 50.37 302.471 50.37C303.779 50.37 304.787 50.688 305.495 51.324C306.203 51.96 306.557 52.932 306.557 54.24V60H304.919ZM301.787 60.108C301.079 60.108 300.455 59.988 299.915 59.748C299.387 59.508 298.979 59.178 298.691 58.758C298.403 58.326 298.259 57.84 298.259 57.3C298.259 56.784 298.379 56.316 298.619 55.896C298.871 55.476 299.273 55.14 299.825 54.888C300.389 54.636 301.145 54.51 302.093 54.51H305.117V55.752H302.165C301.301 55.752 300.719 55.896 300.419 56.184C300.119 56.472 299.969 56.82 299.969 57.228C299.969 57.696 300.155 58.074 300.527 58.362C300.899 58.638 301.415 58.776 302.075 58.776C302.723 58.776 303.287 58.632 303.767 58.344C304.259 58.056 304.613 57.636 304.829 57.084L305.171 58.272C304.943 58.836 304.541 59.286 303.965 59.622C303.389 59.946 302.663 60.108 301.787 60.108ZM314.849 50.37C315.629 50.37 316.313 50.52 316.901 50.82C317.501 51.12 317.969 51.576 318.305 52.188C318.641 52.8 318.809 53.574 318.809 54.51V60H317.081V54.708C317.081 53.784 316.853 53.088 316.397 52.62C315.953 52.152 315.323 51.918 314.507 51.918C313.895 51.918 313.361 52.038 312.905 52.278C312.449 52.518 312.095 52.872 311.843 53.34C311.603 53.808 311.483 54.39 311.483 55.086V60H309.755V50.46H311.411V53.034L311.141 52.35C311.453 51.726 311.933 51.24 312.581 50.892C313.229 50.544 313.985 50.37 314.849 50.37ZM331.899 60.108C331.107 60.108 330.381 59.928 329.721 59.568C329.073 59.196 328.551 58.65 328.155 57.93C327.771 57.21 327.579 56.31 327.579 55.23C327.579 54.15 327.765 53.25 328.137 52.53C328.521 51.81 329.037 51.27 329.685 50.91C330.345 50.55 331.083 50.37 331.899 50.37C332.835 50.37 333.663 50.574 334.383 50.982C335.103 51.39 335.673 51.96 336.093 52.692C336.513 53.412 336.723 54.258 336.723 55.23C336.723 56.202 336.513 57.054 336.093 57.786C335.673 58.518 335.103 59.088 334.383 59.496C333.663 59.904 332.835 60.108 331.899 60.108ZM326.841 63.492V50.46H328.497V53.034L328.389 55.248L328.569 57.462V63.492H326.841ZM331.755 58.596C332.367 58.596 332.913 58.458 333.393 58.182C333.885 57.906 334.269 57.516 334.545 57.012C334.833 56.496 334.977 55.902 334.977 55.23C334.977 54.546 334.833 53.958 334.545 53.466C334.269 52.962 333.885 52.572 333.393 52.296C332.913 52.02 332.367 51.882 331.755 51.882C331.155 51.882 330.609 52.02 330.117 52.296C329.637 52.572 329.253 52.962 328.965 53.466C328.689 53.958 328.551 54.546 328.551 55.23C328.551 55.902 328.689 56.496 328.965 57.012C329.253 57.516 329.637 57.906 330.117 58.182C330.609 58.458 331.155 58.596 331.755 58.596ZM343.197 60.108C342.237 60.108 341.385 59.898 340.641 59.478C339.897 59.058 339.309 58.482 338.877 57.75C338.445 57.006 338.229 56.166 338.229 55.23C338.229 54.282 338.445 53.442 338.877 52.71C339.309 51.978 339.897 51.408 340.641 51C341.385 50.58 342.237 50.37 343.197 50.37C344.145 50.37 344.991 50.58 345.735 51C346.491 51.408 347.079 51.978 347.499 52.71C347.931 53.43 348.147 54.27 348.147 55.23C348.147 56.178 347.931 57.018 347.499 57.75C347.079 58.482 346.491 59.058 345.735 59.478C344.991 59.898 344.145 60.108 343.197 60.108ZM343.197 58.596C343.809 58.596 344.355 58.458 344.835 58.182C345.327 57.906 345.711 57.516 345.987 57.012C346.263 56.496 346.401 55.902 346.401 55.23C346.401 54.546 346.263 53.958 345.987 53.466C345.711 52.962 345.327 52.572 344.835 52.296C344.355 52.02 343.809 51.882 343.197 51.882C342.585 51.882 342.039 52.02 341.559 52.296C341.079 52.572 340.695 52.962 340.407 53.466C340.119 53.958 339.975 54.546 339.975 55.23C339.975 55.902 340.119 56.496 340.407 57.012C340.695 57.516 341.079 57.906 341.559 58.182C342.039 58.458 342.585 58.596 343.197 58.596ZM350.536 60V50.46H352.192V53.052L352.03 52.404C352.294 51.744 352.738 51.24 353.362 50.892C353.986 50.544 354.754 50.37 355.666 50.37V52.044C355.594 52.032 355.522 52.026 355.45 52.026C355.39 52.026 355.33 52.026 355.27 52.026C354.346 52.026 353.614 52.302 353.074 52.854C352.534 53.406 352.264 54.204 352.264 55.248V60H350.536ZM361.459 60.108C360.499 60.108 359.755 59.85 359.227 59.334C358.699 58.818 358.435 58.08 358.435 57.12V48.372H360.163V57.048C360.163 57.564 360.289 57.96 360.541 58.236C360.805 58.512 361.177 58.65 361.657 58.65C362.197 58.65 362.647 58.5 363.007 58.2L363.547 59.442C363.283 59.67 362.965 59.838 362.593 59.946C362.233 60.054 361.855 60.108 361.459 60.108ZM356.815 51.882V50.46H362.899V51.882H356.815ZM365.888 60V49.614C365.888 48.678 366.158 47.934 366.698 47.382C367.25 46.818 368.03 46.536 369.038 46.536C369.41 46.536 369.764 46.584 370.1 46.68C370.448 46.764 370.742 46.902 370.982 47.094L370.46 48.408C370.28 48.264 370.076 48.156 369.848 48.084C369.62 48 369.38 47.958 369.128 47.958C368.624 47.958 368.24 48.102 367.976 48.39C367.712 48.666 367.58 49.08 367.58 49.632V50.91L367.616 51.702V60H365.888ZM364.268 51.882V50.46H370.352V51.882H364.268ZM375.927 60.108C374.967 60.108 374.115 59.898 373.371 59.478C372.627 59.058 372.039 58.482 371.607 57.75C371.175 57.006 370.959 56.166 370.959 55.23C370.959 54.282 371.175 53.442 371.607 52.71C372.039 51.978 372.627 51.408 373.371 51C374.115 50.58 374.967 50.37 375.927 50.37C376.875 50.37 377.721 50.58 378.465 51C379.221 51.408 379.809 51.978 380.229 52.71C380.661 53.43 380.877 54.27 380.877 55.23C380.877 56.178 380.661 57.018 380.229 57.75C379.809 58.482 379.221 59.058 378.465 59.478C377.721 59.898 376.875 60.108 375.927 60.108ZM375.927 58.596C376.539 58.596 377.085 58.458 377.565 58.182C378.057 57.906 378.441 57.516 378.717 57.012C378.993 56.496 379.131 55.902 379.131 55.23C379.131 54.546 378.993 53.958 378.717 53.466C378.441 52.962 378.057 52.572 377.565 52.296C377.085 52.02 376.539 51.882 375.927 51.882C375.315 51.882 374.769 52.02 374.289 52.296C373.809 52.572 373.425 52.962 373.137 53.466C372.849 53.958 372.705 54.546 372.705 55.23C372.705 55.902 372.849 56.496 373.137 57.012C373.425 57.516 373.809 57.906 374.289 58.182C374.769 58.458 375.315 58.596 375.927 58.596ZM383.267 60V46.644H384.995V60H383.267ZM388.294 60V50.46H390.022V60H388.294ZM389.158 48.624C388.822 48.624 388.54 48.516 388.312 48.3C388.096 48.084 387.988 47.82 387.988 47.508C387.988 47.184 388.096 46.914 388.312 46.698C388.54 46.482 388.822 46.374 389.158 46.374C389.494 46.374 389.77 46.482 389.986 46.698C390.214 46.902 390.328 47.16 390.328 47.472C390.328 47.796 390.22 48.072 390.004 48.3C389.788 48.516 389.506 48.624 389.158 48.624ZM397.408 60.108C396.448 60.108 395.596 59.898 394.852 59.478C394.108 59.058 393.52 58.482 393.088 57.75C392.656 57.006 392.44 56.166 392.44 55.23C392.44 54.282 392.656 53.442 393.088 52.71C393.52 51.978 394.108 51.408 394.852 51C395.596 50.58 396.448 50.37 397.408 50.37C398.356 50.37 399.202 50.58 399.946 51C400.702 51.408 401.29 51.978 401.71 52.71C402.142 53.43 402.358 54.27 402.358 55.23C402.358 56.178 402.142 57.018 401.71 57.75C401.29 58.482 400.702 59.058 399.946 59.478C399.202 59.898 398.356 60.108 397.408 60.108ZM397.408 58.596C398.02 58.596 398.566 58.458 399.046 58.182C399.538 57.906 399.922 57.516 400.198 57.012C400.474 56.496 400.612 55.902 400.612 55.23C400.612 54.546 400.474 53.958 400.198 53.466C399.922 52.962 399.538 52.572 399.046 52.296C398.566 52.02 398.02 51.882 397.408 51.882C396.796 51.882 396.25 52.02 395.77 52.296C395.29 52.572 394.906 52.962 394.618 53.466C394.33 53.958 394.186 54.546 394.186 55.23C394.186 55.902 394.33 56.496 394.618 57.012C394.906 57.516 395.29 57.906 395.77 58.182C396.25 58.458 396.796 58.596 397.408 58.596ZM404.95 60.108C404.614 60.108 404.326 59.994 404.086 59.766C403.846 59.526 403.726 59.226 403.726 58.866C403.726 58.506 403.846 58.212 404.086 57.984C404.326 57.756 404.614 57.642 404.95 57.642C405.274 57.642 405.55 57.756 405.778 57.984C406.018 58.212 406.138 58.506 406.138 58.866C406.138 59.226 406.018 59.526 405.778 59.766C405.55 59.994 405.274 60.108 404.95 60.108Z" fill="#414141"/>
<path d="M50.875 36.5454H42.125L38.8848 31.6977C38.3994 30.9682 38.9189 30 39.7939 30H53.2061C54.0811 30 54.6006 30.9682 54.1152 31.6977L50.875 36.5454ZM42.125 38.7272H50.875C51.1348 38.8976 51.4287 39.0885 51.7637 39.2999C55.6396 41.7748 64 47.1066 64 58.3633C64 61.9769 61.0605 64.9086 57.4375 64.9086H35.5625C31.9395 64.9086 29 61.9769 29 58.3633C29 47.1066 37.3604 41.7748 41.2363 39.2999C41.5645 39.0885 41.8652 38.8976 42.125 38.7272ZM47.8672 44.7271C47.8672 43.9771 47.252 43.3635 46.5 43.3635C45.748 43.3635 45.1328 43.9771 45.1328 44.7271V45.6816C44.6133 45.7975 44.0938 45.9816 43.6152 46.2612C42.665 46.8271 41.8447 47.8157 41.8516 49.2543C41.8584 50.6384 42.6719 51.5111 43.54 52.0293C44.292 52.4793 45.2285 52.7656 45.9736 52.9838L46.0898 53.0179C46.9512 53.277 47.5801 53.4815 48.0039 53.7474C48.3525 53.9656 48.4004 54.1156 48.4072 54.3065C48.4141 54.6474 48.2842 54.8519 48.0039 55.0224C47.6621 55.2338 47.1221 55.3633 46.541 55.3429C45.7822 55.3156 45.0713 55.0769 44.1416 54.7633C43.9844 54.7088 43.8203 54.6542 43.6494 54.5997C42.9316 54.361 42.1592 54.7497 41.9199 55.4588C41.6807 56.1678 42.0703 56.9451 42.7812 57.1837C42.9111 57.2246 43.0547 57.2724 43.1982 57.3269C43.7656 57.5246 44.4219 57.7496 45.126 57.8996V58.8951C45.126 59.6451 45.7412 60.2587 46.4932 60.2587C47.2451 60.2587 47.8604 59.6451 47.8604 58.8951V57.9542C48.4072 57.8383 48.9541 57.6474 49.4463 57.3406C50.4238 56.7337 51.1621 55.6974 51.1416 54.2724C51.1211 52.8883 50.3418 51.9952 49.46 51.4361C48.6738 50.9452 47.6895 50.6452 46.9238 50.4134L46.876 50.3997C46.001 50.1338 45.3789 49.9429 44.9414 49.6838C44.5859 49.4725 44.5791 49.3497 44.5791 49.227C44.5791 48.9748 44.6748 48.7838 45.0029 48.5929C45.3721 48.3748 45.9326 48.2452 46.4727 48.252C47.1289 48.2589 47.8535 48.402 48.6055 48.6066C49.3369 48.7975 50.082 48.3679 50.2803 47.6384C50.4785 46.9089 50.041 46.1657 49.3096 45.968C48.8652 45.8521 48.373 45.7362 47.8672 45.6475V44.6998V44.7271Z" fill="#810019"/>
<defs>
<filter id="filter0_d_16986_1512" x="0" y="0" width="465" height="98" filterUnits="userSpaceOnUse" color-interpolation-filters="sRGB">
<feFlood flood-opacity="0" result="BackgroundImageFix"/>
<feColorMatrix in="SourceAlpha" type="matrix" values="0 0 0 0 0 0 0 0 0 0 0 0 0 0 0 0 0 0 127 0" result="hardAlpha"/>
<feOffset dy="1"/>
<feGaussianBlur stdDeviation="2"/>
<feComposite in2="hardAlpha" operator="out"/>
<feColorMatrix type="matrix" values="0 0 0 0 0 0 0 0 0 0 0 0 0 0 0 0 0 0 0.25 0"/>
<feBlend mode="normal" in2="BackgroundImageFix" result="effect1_dropShadow_16986_1512"/>
<feBlend mode="normal" in="SourceGraphic" in2="effect1_dropShadow_16986_1512" result="shape"/>
</filter>
</defs>
</svg>
