<svg width="465" height="98" viewBox="0 0 465 98" fill="none" xmlns="http://www.w3.org/2000/svg">
<g filter="url(#filter0_d_16986_1514)">
<rect x="4" y="3" width="457" height="90" rx="22" fill="white"/>
</g>
<rect x="14" y="15" width="65" height="65" rx="10" fill="#FFCCCC"/>
<path d="M96.692 31V18.4H99.032V29.02H105.62V31H96.692ZM111.484 31.126C110.5 31.126 109.624 30.916 108.856 30.496C108.088 30.064 107.482 29.476 107.038 28.732C106.594 27.988 106.372 27.142 106.372 26.194C106.372 25.234 106.594 24.388 107.038 23.656C107.482 22.912 108.088 22.33 108.856 21.91C109.624 21.49 110.5 21.28 111.484 21.28C112.48 21.28 113.362 21.49 114.13 21.91C114.91 22.33 115.516 22.906 115.948 23.638C116.392 24.37 116.614 25.222 116.614 26.194C116.614 27.142 116.392 27.988 115.948 28.732C115.516 29.476 114.91 30.064 114.13 30.496C113.362 30.916 112.48 31.126 111.484 31.126ZM111.484 29.2C112.036 29.2 112.528 29.08 112.96 28.84C113.392 28.6 113.728 28.252 113.968 27.796C114.22 27.34 114.346 26.806 114.346 26.194C114.346 25.57 114.22 25.036 113.968 24.592C113.728 24.136 113.392 23.788 112.96 23.548C112.528 23.308 112.042 23.188 111.502 23.188C110.95 23.188 110.458 23.308 110.026 23.548C109.606 23.788 109.27 24.136 109.018 24.592C108.766 25.036 108.64 25.57 108.64 26.194C108.64 26.806 108.766 27.34 109.018 27.796C109.27 28.252 109.606 28.6 110.026 28.84C110.458 29.08 110.944 29.2 111.484 29.2ZM124.564 31V29.056L124.438 28.642V25.24C124.438 24.58 124.24 24.07 123.844 23.71C123.448 23.338 122.848 23.152 122.044 23.152C121.504 23.152 120.97 23.236 120.442 23.404C119.926 23.572 119.488 23.806 119.128 24.106L118.246 22.468C118.762 22.072 119.374 21.778 120.082 21.586C120.802 21.382 121.546 21.28 122.314 21.28C123.706 21.28 124.78 21.616 125.536 22.288C126.304 22.948 126.688 23.974 126.688 25.366V31H124.564ZM121.54 31.126C120.82 31.126 120.19 31.006 119.65 30.766C119.11 30.514 118.69 30.172 118.39 29.74C118.102 29.296 117.958 28.798 117.958 28.246C117.958 27.706 118.084 27.22 118.336 26.788C118.6 26.356 119.026 26.014 119.614 25.762C120.202 25.51 120.982 25.384 121.954 25.384H124.744V26.878H122.116C121.348 26.878 120.832 27.004 120.568 27.256C120.304 27.496 120.172 27.796 120.172 28.156C120.172 28.564 120.334 28.888 120.658 29.128C120.982 29.368 121.432 29.488 122.008 29.488C122.56 29.488 123.052 29.362 123.484 29.11C123.928 28.858 124.246 28.486 124.438 27.994L124.816 29.344C124.6 29.908 124.21 30.346 123.646 30.658C123.094 30.97 122.392 31.126 121.54 31.126ZM135.03 21.28C135.798 21.28 136.482 21.43 137.082 21.73C137.694 22.03 138.174 22.492 138.522 23.116C138.87 23.728 139.044 24.52 139.044 25.492V31H136.794V25.78C136.794 24.928 136.59 24.292 136.182 23.872C135.786 23.452 135.228 23.242 134.508 23.242C133.98 23.242 133.512 23.35 133.104 23.566C132.696 23.782 132.378 24.106 132.15 24.538C131.934 24.958 131.826 25.492 131.826 26.14V31H129.576V21.388H131.718V23.98L131.34 23.188C131.676 22.576 132.162 22.108 132.798 21.784C133.446 21.448 134.19 21.28 135.03 21.28ZM144.868 31.126C144.064 31.126 143.29 31.024 142.546 30.82C141.814 30.604 141.232 30.346 140.8 30.046L141.664 28.336C142.096 28.612 142.612 28.84 143.212 29.02C143.812 29.2 144.412 29.29 145.012 29.29C145.72 29.29 146.23 29.194 146.542 29.002C146.866 28.81 147.028 28.552 147.028 28.228C147.028 27.964 146.92 27.766 146.704 27.634C146.488 27.49 146.206 27.382 145.858 27.31C145.51 27.238 145.12 27.172 144.688 27.112C144.268 27.052 143.842 26.974 143.41 26.878C142.99 26.77 142.606 26.62 142.258 26.428C141.91 26.224 141.628 25.954 141.412 25.618C141.196 25.282 141.088 24.838 141.088 24.286C141.088 23.674 141.262 23.146 141.61 22.702C141.958 22.246 142.444 21.898 143.068 21.658C143.704 21.406 144.454 21.28 145.318 21.28C145.966 21.28 146.62 21.352 147.28 21.496C147.94 21.64 148.486 21.844 148.918 22.108L148.054 23.818C147.598 23.542 147.136 23.356 146.668 23.26C146.212 23.152 145.756 23.098 145.3 23.098C144.616 23.098 144.106 23.2 143.77 23.404C143.446 23.608 143.284 23.866 143.284 24.178C143.284 24.466 143.392 24.682 143.608 24.826C143.824 24.97 144.106 25.084 144.454 25.168C144.802 25.252 145.186 25.324 145.606 25.384C146.038 25.432 146.464 25.51 146.884 25.618C147.304 25.726 147.688 25.876 148.036 26.068C148.396 26.248 148.684 26.506 148.9 26.842C149.116 27.178 149.224 27.616 149.224 28.156C149.224 28.756 149.044 29.278 148.684 29.722C148.336 30.166 147.838 30.514 147.19 30.766C146.542 31.006 145.768 31.126 144.868 31.126ZM156.136 31V21.388H158.278V24.034L158.026 23.26C158.314 22.612 158.764 22.12 159.376 21.784C160 21.448 160.774 21.28 161.698 21.28V23.422C161.602 23.398 161.512 23.386 161.428 23.386C161.344 23.374 161.26 23.368 161.176 23.368C160.324 23.368 159.646 23.62 159.142 24.124C158.638 24.616 158.386 25.354 158.386 26.338V31H156.136ZM168.037 31.126C166.969 31.126 166.033 30.916 165.229 30.496C164.437 30.064 163.819 29.476 163.375 28.732C162.943 27.988 162.727 27.142 162.727 26.194C162.727 25.234 162.937 24.388 163.357 23.656C163.789 22.912 164.377 22.33 165.121 21.91C165.877 21.49 166.735 21.28 167.695 21.28C168.631 21.28 169.465 21.484 170.197 21.892C170.929 22.3 171.505 22.876 171.925 23.62C172.345 24.364 172.555 25.24 172.555 26.248C172.555 26.344 172.549 26.452 172.537 26.572C172.537 26.692 172.531 26.806 172.519 26.914H164.509V25.42H171.331L170.449 25.888C170.461 25.336 170.347 24.85 170.107 24.43C169.867 24.01 169.537 23.68 169.117 23.44C168.709 23.2 168.235 23.08 167.695 23.08C167.143 23.08 166.657 23.2 166.237 23.44C165.829 23.68 165.505 24.016 165.265 24.448C165.037 24.868 164.923 25.366 164.923 25.942V26.302C164.923 26.878 165.055 27.388 165.319 27.832C165.583 28.276 165.955 28.618 166.435 28.858C166.915 29.098 167.467 29.218 168.091 29.218C168.631 29.218 169.117 29.134 169.549 28.966C169.981 28.798 170.365 28.534 170.701 28.174L171.907 29.56C171.475 30.064 170.929 30.454 170.269 30.73C169.621 30.994 168.877 31.126 168.037 31.126ZM178.784 31.126C177.86 31.126 177.026 30.922 176.282 30.514C175.55 30.106 174.974 29.536 174.554 28.804C174.134 28.06 173.924 27.19 173.924 26.194C173.924 25.198 174.134 24.334 174.554 23.602C174.974 22.87 175.55 22.3 176.282 21.892C177.026 21.484 177.86 21.28 178.784 21.28C179.612 21.28 180.338 21.46 180.962 21.82C181.598 22.168 182.096 22.702 182.456 23.422C182.828 24.142 183.014 25.066 183.014 26.194C183.014 27.31 182.822 28.234 182.438 28.966C182.066 29.686 181.562 30.226 180.926 30.586C180.29 30.946 179.576 31.126 178.784 31.126ZM179.036 29.2C179.576 29.2 180.062 29.08 180.494 28.84C180.926 28.6 181.268 28.252 181.52 27.796C181.772 27.34 181.898 26.806 181.898 26.194C181.898 25.57 181.772 25.036 181.52 24.592C181.268 24.136 180.926 23.788 180.494 23.548C180.062 23.308 179.576 23.188 179.036 23.188C178.496 23.188 178.01 23.308 177.578 23.548C177.158 23.788 176.822 24.136 176.57 24.592C176.318 25.036 176.192 25.57 176.192 26.194C176.192 26.806 176.318 27.34 176.57 27.796C176.822 28.252 177.158 28.6 177.578 28.84C178.01 29.08 178.496 29.2 179.036 29.2ZM181.862 34.492V28.768L182.042 26.212L181.97 23.656V21.388H184.112V34.492H181.862ZM191.124 31.126C190.308 31.126 189.588 30.976 188.964 30.676C188.34 30.364 187.854 29.896 187.506 29.272C187.158 28.636 186.984 27.838 186.984 26.878V21.388H189.234V26.572C189.234 27.436 189.426 28.084 189.81 28.516C190.206 28.936 190.764 29.146 191.484 29.146C192.012 29.146 192.468 29.038 192.852 28.822C193.248 28.606 193.554 28.282 193.77 27.85C193.998 27.418 194.112 26.884 194.112 26.248V21.388H196.362V31H194.22V28.408L194.598 29.2C194.274 29.824 193.8 30.304 193.176 30.64C192.552 30.964 191.868 31.126 191.124 31.126ZM203.826 31.126C202.758 31.126 201.822 30.916 201.018 30.496C200.226 30.064 199.608 29.476 199.164 28.732C198.732 27.988 198.516 27.142 198.516 26.194C198.516 25.234 198.726 24.388 199.146 23.656C199.578 22.912 200.166 22.33 200.91 21.91C201.666 21.49 202.524 21.28 203.484 21.28C204.42 21.28 205.254 21.484 205.986 21.892C206.718 22.3 207.294 22.876 207.714 23.62C208.134 24.364 208.344 25.24 208.344 26.248C208.344 26.344 208.338 26.452 208.326 26.572C208.326 26.692 208.32 26.806 208.308 26.914H200.298V25.42H207.12L206.238 25.888C206.25 25.336 206.136 24.85 205.896 24.43C205.656 24.01 205.326 23.68 204.906 23.44C204.498 23.2 204.024 23.08 203.484 23.08C202.932 23.08 202.446 23.2 202.026 23.44C201.618 23.68 201.294 24.016 201.054 24.448C200.826 24.868 200.712 25.366 200.712 25.942V26.302C200.712 26.878 200.844 27.388 201.108 27.832C201.372 28.276 201.744 28.618 202.224 28.858C202.704 29.098 203.256 29.218 203.88 29.218C204.42 29.218 204.906 29.134 205.338 28.966C205.77 28.798 206.154 28.534 206.49 28.174L207.696 29.56C207.264 30.064 206.718 30.454 206.058 30.73C205.41 30.994 204.666 31.126 203.826 31.126ZM213.475 31.126C212.671 31.126 211.897 31.024 211.153 30.82C210.421 30.604 209.839 30.346 209.407 30.046L210.271 28.336C210.703 28.612 211.219 28.84 211.819 29.02C212.419 29.2 213.019 29.29 213.619 29.29C214.327 29.29 214.837 29.194 215.149 29.002C215.473 28.81 215.635 28.552 215.635 28.228C215.635 27.964 215.527 27.766 215.311 27.634C215.095 27.49 214.813 27.382 214.465 27.31C214.117 27.238 213.727 27.172 213.295 27.112C212.875 27.052 212.449 26.974 212.017 26.878C211.597 26.77 211.213 26.62 210.865 26.428C210.517 26.224 210.235 25.954 210.019 25.618C209.803 25.282 209.695 24.838 209.695 24.286C209.695 23.674 209.869 23.146 210.217 22.702C210.565 22.246 211.051 21.898 211.675 21.658C212.311 21.406 213.061 21.28 213.925 21.28C214.573 21.28 215.227 21.352 215.887 21.496C216.547 21.64 217.093 21.844 217.525 22.108L216.661 23.818C216.205 23.542 215.743 23.356 215.275 23.26C214.819 23.152 214.363 23.098 213.907 23.098C213.223 23.098 212.713 23.2 212.377 23.404C212.053 23.608 211.891 23.866 211.891 24.178C211.891 24.466 211.999 24.682 212.215 24.826C212.431 24.97 212.713 25.084 213.061 25.168C213.409 25.252 213.793 25.324 214.213 25.384C214.645 25.432 215.071 25.51 215.491 25.618C215.911 25.726 216.295 25.876 216.643 26.068C217.003 26.248 217.291 26.506 217.507 26.842C217.723 27.178 217.831 27.616 217.831 28.156C217.831 28.756 217.651 29.278 217.291 29.722C216.943 30.166 216.445 30.514 215.797 30.766C215.149 31.006 214.375 31.126 213.475 31.126ZM223.387 31.126C222.331 31.126 221.515 30.856 220.939 30.316C220.363 29.764 220.075 28.954 220.075 27.886V19.264H222.325V27.832C222.325 28.288 222.439 28.642 222.667 28.894C222.907 29.146 223.237 29.272 223.657 29.272C224.161 29.272 224.581 29.14 224.917 28.876L225.547 30.478C225.283 30.694 224.959 30.856 224.575 30.964C224.191 31.072 223.795 31.126 223.387 31.126ZM218.491 23.26V21.46H224.899V23.26H218.491Z" fill="#414141"/>
<path d="M96.89 60V47.4H98.366L104.018 56.922H103.226L108.806 47.4H110.282L110.3 60H108.572L108.554 50.118H108.968L104 58.47H103.172L98.168 50.118H98.618V60H96.89ZM119.751 60V57.984L119.661 57.606V54.168C119.661 53.436 119.445 52.872 119.013 52.476C118.593 52.068 117.957 51.864 117.105 51.864C116.541 51.864 115.989 51.96 115.449 52.152C114.909 52.332 114.453 52.578 114.081 52.89L113.361 51.594C113.853 51.198 114.441 50.898 115.125 50.694C115.821 50.478 116.547 50.37 117.303 50.37C118.611 50.37 119.619 50.688 120.327 51.324C121.035 51.96 121.389 52.932 121.389 54.24V60H119.751ZM116.619 60.108C115.911 60.108 115.287 59.988 114.747 59.748C114.219 59.508 113.811 59.178 113.523 58.758C113.235 58.326 113.091 57.84 113.091 57.3C113.091 56.784 113.211 56.316 113.451 55.896C113.703 55.476 114.105 55.14 114.657 54.888C115.221 54.636 115.977 54.51 116.925 54.51H119.949V55.752H116.997C116.133 55.752 115.551 55.896 115.251 56.184C114.951 56.472 114.801 56.82 114.801 57.228C114.801 57.696 114.987 58.074 115.359 58.362C115.731 58.638 116.247 58.776 116.907 58.776C117.555 58.776 118.119 58.632 118.599 58.344C119.091 58.056 119.445 57.636 119.661 57.084L120.003 58.272C119.775 58.836 119.373 59.286 118.797 59.622C118.221 59.946 117.495 60.108 116.619 60.108ZM129.681 50.37C130.461 50.37 131.145 50.52 131.733 50.82C132.333 51.12 132.801 51.576 133.137 52.188C133.473 52.8 133.641 53.574 133.641 54.51V60H131.913V54.708C131.913 53.784 131.685 53.088 131.229 52.62C130.785 52.152 130.155 51.918 129.339 51.918C128.727 51.918 128.193 52.038 127.737 52.278C127.281 52.518 126.927 52.872 126.675 53.34C126.435 53.808 126.315 54.39 126.315 55.086V60H124.587V50.46H126.243V53.034L125.973 52.35C126.285 51.726 126.765 51.24 127.413 50.892C128.061 50.544 128.817 50.37 129.681 50.37ZM142.761 60V57.984L142.671 57.606V54.168C142.671 53.436 142.455 52.872 142.023 52.476C141.603 52.068 140.967 51.864 140.115 51.864C139.551 51.864 138.999 51.96 138.459 52.152C137.919 52.332 137.463 52.578 137.091 52.89L136.371 51.594C136.863 51.198 137.451 50.898 138.135 50.694C138.831 50.478 139.557 50.37 140.313 50.37C141.621 50.37 142.629 50.688 143.337 51.324C144.045 51.96 144.399 52.932 144.399 54.24V60H142.761ZM139.629 60.108C138.921 60.108 138.297 59.988 137.757 59.748C137.229 59.508 136.821 59.178 136.533 58.758C136.245 58.326 136.101 57.84 136.101 57.3C136.101 56.784 136.221 56.316 136.461 55.896C136.713 55.476 137.115 55.14 137.667 54.888C138.231 54.636 138.987 54.51 139.935 54.51H142.959V55.752H140.007C139.143 55.752 138.561 55.896 138.261 56.184C137.961 56.472 137.811 56.82 137.811 57.228C137.811 57.696 137.997 58.074 138.369 58.362C138.741 58.638 139.257 58.776 139.917 58.776C140.565 58.776 141.129 58.632 141.609 58.344C142.101 58.056 142.455 57.636 142.671 57.084L143.013 58.272C142.785 58.836 142.383 59.286 141.807 59.622C141.231 59.946 140.505 60.108 139.629 60.108ZM151.773 63.6C150.897 63.6 150.045 63.474 149.217 63.222C148.401 62.982 147.735 62.634 147.219 62.178L148.047 60.846C148.491 61.23 149.037 61.53 149.685 61.746C150.333 61.974 151.011 62.088 151.719 62.088C152.847 62.088 153.675 61.824 154.203 61.296C154.731 60.768 154.995 59.964 154.995 58.884V56.868L155.175 54.978L155.085 53.07V50.46H156.723V58.704C156.723 60.384 156.303 61.62 155.463 62.412C154.623 63.204 153.393 63.6 151.773 63.6ZM151.557 59.604C150.633 59.604 149.805 59.412 149.073 59.028C148.353 58.632 147.777 58.086 147.345 57.39C146.925 56.694 146.715 55.89 146.715 54.978C146.715 54.054 146.925 53.25 147.345 52.566C147.777 51.87 148.353 51.33 149.073 50.946C149.805 50.562 150.633 50.37 151.557 50.37C152.373 50.37 153.117 50.538 153.789 50.874C154.461 51.198 154.995 51.702 155.391 52.386C155.799 53.07 156.003 53.934 156.003 54.978C156.003 56.01 155.799 56.868 155.391 57.552C154.995 58.236 154.461 58.752 153.789 59.1C153.117 59.436 152.373 59.604 151.557 59.604ZM151.755 58.092C152.391 58.092 152.955 57.96 153.447 57.696C153.939 57.432 154.323 57.066 154.599 56.598C154.887 56.13 155.031 55.59 155.031 54.978C155.031 54.366 154.887 53.826 154.599 53.358C154.323 52.89 153.939 52.53 153.447 52.278C152.955 52.014 152.391 51.882 151.755 51.882C151.119 51.882 150.549 52.014 150.045 52.278C149.553 52.53 149.163 52.89 148.875 53.358C148.599 53.826 148.461 54.366 148.461 54.978C148.461 55.59 148.599 56.13 148.875 56.598C149.163 57.066 149.553 57.432 150.045 57.696C150.549 57.96 151.119 58.092 151.755 58.092ZM164.273 60.108C163.253 60.108 162.353 59.898 161.573 59.478C160.805 59.058 160.205 58.482 159.773 57.75C159.353 57.018 159.143 56.178 159.143 55.23C159.143 54.282 159.347 53.442 159.755 52.71C160.175 51.978 160.745 51.408 161.465 51C162.197 50.58 163.019 50.37 163.931 50.37C164.855 50.37 165.671 50.574 166.379 50.982C167.087 51.39 167.639 51.966 168.035 52.71C168.443 53.442 168.647 54.3 168.647 55.284C168.647 55.356 168.641 55.44 168.629 55.536C168.629 55.632 168.623 55.722 168.611 55.806H160.493V54.564H167.711L167.009 54.996C167.021 54.384 166.895 53.838 166.631 53.358C166.367 52.878 166.001 52.506 165.533 52.242C165.077 51.966 164.543 51.828 163.931 51.828C163.331 51.828 162.797 51.966 162.329 52.242C161.861 52.506 161.495 52.884 161.231 53.376C160.967 53.856 160.835 54.408 160.835 55.032V55.32C160.835 55.956 160.979 56.526 161.267 57.03C161.567 57.522 161.981 57.906 162.509 58.182C163.037 58.458 163.643 58.596 164.327 58.596C164.891 58.596 165.401 58.5 165.857 58.308C166.325 58.116 166.733 57.828 167.081 57.444L168.035 58.56C167.603 59.064 167.063 59.448 166.415 59.712C165.779 59.976 165.065 60.108 164.273 60.108ZM181.802 60V57.984L181.712 57.606V54.168C181.712 53.436 181.496 52.872 181.064 52.476C180.644 52.068 180.008 51.864 179.156 51.864C178.592 51.864 178.04 51.96 177.5 52.152C176.96 52.332 176.504 52.578 176.132 52.89L175.412 51.594C175.904 51.198 176.492 50.898 177.176 50.694C177.872 50.478 178.598 50.37 179.354 50.37C180.662 50.37 181.67 50.688 182.378 51.324C183.086 51.96 183.44 52.932 183.44 54.24V60H181.802ZM178.67 60.108C177.962 60.108 177.338 59.988 176.798 59.748C176.27 59.508 175.862 59.178 175.574 58.758C175.286 58.326 175.142 57.84 175.142 57.3C175.142 56.784 175.262 56.316 175.502 55.896C175.754 55.476 176.156 55.14 176.708 54.888C177.272 54.636 178.028 54.51 178.976 54.51H182V55.752H179.048C178.184 55.752 177.602 55.896 177.302 56.184C177.002 56.472 176.852 56.82 176.852 57.228C176.852 57.696 177.038 58.074 177.41 58.362C177.782 58.638 178.298 58.776 178.958 58.776C179.606 58.776 180.17 58.632 180.65 58.344C181.142 58.056 181.496 57.636 181.712 57.084L182.054 58.272C181.826 58.836 181.424 59.286 180.848 59.622C180.272 59.946 179.546 60.108 178.67 60.108ZM186.638 60V46.644H188.366V60H186.638ZM191.665 60V46.644H193.393V60H191.665ZM201.527 60V46.644H203.255V60H201.527ZM210.64 60.108C209.68 60.108 208.828 59.898 208.084 59.478C207.34 59.058 206.752 58.482 206.32 57.75C205.888 57.006 205.672 56.166 205.672 55.23C205.672 54.282 205.888 53.442 206.32 52.71C206.752 51.978 207.34 51.408 208.084 51C208.828 50.58 209.68 50.37 210.64 50.37C211.588 50.37 212.434 50.58 213.178 51C213.934 51.408 214.522 51.978 214.942 52.71C215.374 53.43 215.59 54.27 215.59 55.23C215.59 56.178 215.374 57.018 214.942 57.75C214.522 58.482 213.934 59.058 213.178 59.478C212.434 59.898 211.588 60.108 210.64 60.108ZM210.64 58.596C211.252 58.596 211.798 58.458 212.278 58.182C212.77 57.906 213.154 57.516 213.43 57.012C213.706 56.496 213.844 55.902 213.844 55.23C213.844 54.546 213.706 53.958 213.43 53.466C213.154 52.962 212.77 52.572 212.278 52.296C211.798 52.02 211.252 51.882 210.64 51.882C210.028 51.882 209.482 52.02 209.002 52.296C208.522 52.572 208.138 52.962 207.85 53.466C207.562 53.958 207.418 54.546 207.418 55.23C207.418 55.902 207.562 56.496 207.85 57.012C208.138 57.516 208.522 57.906 209.002 58.182C209.482 58.458 210.028 58.596 210.64 58.596ZM223.814 60V57.984L223.724 57.606V54.168C223.724 53.436 223.508 52.872 223.076 52.476C222.656 52.068 222.02 51.864 221.168 51.864C220.604 51.864 220.052 51.96 219.512 52.152C218.972 52.332 218.516 52.578 218.144 52.89L217.424 51.594C217.916 51.198 218.504 50.898 219.188 50.694C219.884 50.478 220.61 50.37 221.366 50.37C222.674 50.37 223.682 50.688 224.39 51.324C225.098 51.96 225.452 52.932 225.452 54.24V60H223.814ZM220.682 60.108C219.974 60.108 219.35 59.988 218.81 59.748C218.282 59.508 217.874 59.178 217.586 58.758C217.298 58.326 217.154 57.84 217.154 57.3C217.154 56.784 217.274 56.316 217.514 55.896C217.766 55.476 218.168 55.14 218.72 54.888C219.284 54.636 220.04 54.51 220.988 54.51H224.012V55.752H221.06C220.196 55.752 219.614 55.896 219.314 56.184C219.014 56.472 218.864 56.82 218.864 57.228C218.864 57.696 219.05 58.074 219.422 58.362C219.794 58.638 220.31 58.776 220.97 58.776C221.618 58.776 222.182 58.632 222.662 58.344C223.154 58.056 223.508 57.636 223.724 57.084L224.066 58.272C223.838 58.836 223.436 59.286 222.86 59.622C222.284 59.946 221.558 60.108 220.682 60.108ZM233.744 50.37C234.524 50.37 235.208 50.52 235.796 50.82C236.396 51.12 236.864 51.576 237.2 52.188C237.536 52.8 237.704 53.574 237.704 54.51V60H235.976V54.708C235.976 53.784 235.748 53.088 235.292 52.62C234.848 52.152 234.218 51.918 233.402 51.918C232.79 51.918 232.256 52.038 231.8 52.278C231.344 52.518 230.99 52.872 230.738 53.34C230.498 53.808 230.378 54.39 230.378 55.086V60H228.65V50.46H230.306V53.034L230.036 52.35C230.348 51.726 230.828 51.24 231.476 50.892C232.124 50.544 232.88 50.37 233.744 50.37ZM245.736 60V50.46H247.392V53.052L247.23 52.404C247.494 51.744 247.938 51.24 248.562 50.892C249.186 50.544 249.954 50.37 250.866 50.37V52.044C250.794 52.032 250.722 52.026 250.65 52.026C250.59 52.026 250.53 52.026 250.47 52.026C249.546 52.026 248.814 52.302 248.274 52.854C247.734 53.406 247.464 54.204 247.464 55.248V60H245.736ZM257.156 60.108C256.136 60.108 255.236 59.898 254.456 59.478C253.688 59.058 253.088 58.482 252.656 57.75C252.236 57.018 252.026 56.178 252.026 55.23C252.026 54.282 252.23 53.442 252.638 52.71C253.058 51.978 253.628 51.408 254.348 51C255.08 50.58 255.902 50.37 256.814 50.37C257.738 50.37 258.554 50.574 259.262 50.982C259.97 51.39 260.522 51.966 260.918 52.71C261.326 53.442 261.53 54.3 261.53 55.284C261.53 55.356 261.524 55.44 261.512 55.536C261.512 55.632 261.506 55.722 261.494 55.806H253.376V54.564H260.594L259.892 54.996C259.904 54.384 259.778 53.838 259.514 53.358C259.25 52.878 258.884 52.506 258.416 52.242C257.96 51.966 257.426 51.828 256.814 51.828C256.214 51.828 255.68 51.966 255.212 52.242C254.744 52.506 254.378 52.884 254.114 53.376C253.85 53.856 253.718 54.408 253.718 55.032V55.32C253.718 55.956 253.862 56.526 254.15 57.03C254.45 57.522 254.864 57.906 255.392 58.182C255.92 58.458 256.526 58.596 257.21 58.596C257.774 58.596 258.284 58.5 258.74 58.308C259.208 58.116 259.616 57.828 259.964 57.444L260.918 58.56C260.486 59.064 259.946 59.448 259.298 59.712C258.662 59.976 257.948 60.108 257.156 60.108ZM267.871 60.108C266.947 60.108 266.119 59.904 265.387 59.496C264.667 59.088 264.097 58.518 263.677 57.786C263.257 57.054 263.047 56.202 263.047 55.23C263.047 54.258 263.257 53.412 263.677 52.692C264.097 51.96 264.667 51.39 265.387 50.982C266.119 50.574 266.947 50.37 267.871 50.37C268.699 50.37 269.437 50.55 270.085 50.91C270.733 51.27 271.243 51.81 271.615 52.53C271.999 53.25 272.191 54.15 272.191 55.23C272.191 56.31 271.993 57.21 271.597 57.93C271.213 58.65 270.697 59.196 270.049 59.568C269.401 59.928 268.675 60.108 267.871 60.108ZM268.015 58.596C268.615 58.596 269.155 58.458 269.635 58.182C270.127 57.906 270.511 57.516 270.787 57.012C271.075 56.496 271.219 55.902 271.219 55.23C271.219 54.546 271.075 53.958 270.787 53.466C270.511 52.962 270.127 52.572 269.635 52.296C269.155 52.02 268.615 51.882 268.015 51.882C267.403 51.882 266.857 52.02 266.377 52.296C265.897 52.572 265.513 52.962 265.225 53.466C264.937 53.958 264.793 54.546 264.793 55.23C264.793 55.902 264.937 56.496 265.225 57.012C265.513 57.516 265.897 57.906 266.377 58.182C266.857 58.458 267.403 58.596 268.015 58.596ZM271.201 63.492V57.462L271.381 55.248L271.273 53.034V50.46H272.929V63.492H271.201ZM280.213 60.108C279.397 60.108 278.677 59.958 278.053 59.658C277.441 59.358 276.961 58.902 276.613 58.29C276.277 57.666 276.109 56.886 276.109 55.95V50.46H277.837V55.752C277.837 56.688 278.059 57.39 278.503 57.858C278.959 58.326 279.595 58.56 280.411 58.56C281.011 58.56 281.533 58.44 281.977 58.2C282.421 57.948 282.763 57.588 283.003 57.12C283.243 56.64 283.363 56.064 283.363 55.392V50.46H285.091V60H283.453V57.426L283.723 58.11C283.411 58.746 282.943 59.238 282.319 59.586C281.695 59.934 280.993 60.108 280.213 60.108ZM292.628 60.108C291.608 60.108 290.708 59.898 289.928 59.478C289.16 59.058 288.56 58.482 288.128 57.75C287.708 57.018 287.498 56.178 287.498 55.23C287.498 54.282 287.702 53.442 288.11 52.71C288.53 51.978 289.1 51.408 289.82 51C290.552 50.58 291.374 50.37 292.286 50.37C293.21 50.37 294.026 50.574 294.734 50.982C295.442 51.39 295.994 51.966 296.39 52.71C296.798 53.442 297.002 54.3 297.002 55.284C297.002 55.356 296.996 55.44 296.984 55.536C296.984 55.632 296.978 55.722 296.966 55.806H288.848V54.564H296.066L295.364 54.996C295.376 54.384 295.25 53.838 294.986 53.358C294.722 52.878 294.356 52.506 293.888 52.242C293.432 51.966 292.898 51.828 292.286 51.828C291.686 51.828 291.152 51.966 290.684 52.242C290.216 52.506 289.85 52.884 289.586 53.376C289.322 53.856 289.19 54.408 289.19 55.032V55.32C289.19 55.956 289.334 56.526 289.622 57.03C289.922 57.522 290.336 57.906 290.864 58.182C291.392 58.458 291.998 58.596 292.682 58.596C293.246 58.596 293.756 58.5 294.212 58.308C294.68 58.116 295.088 57.828 295.436 57.444L296.39 58.56C295.958 59.064 295.418 59.448 294.77 59.712C294.134 59.976 293.42 60.108 292.628 60.108ZM302.138 60.108C301.346 60.108 300.59 60 299.87 59.784C299.162 59.568 298.604 59.304 298.196 58.992L298.916 57.624C299.324 57.9 299.828 58.134 300.428 58.326C301.028 58.518 301.64 58.614 302.264 58.614C303.068 58.614 303.644 58.5 303.992 58.272C304.352 58.044 304.532 57.726 304.532 57.318C304.532 57.018 304.424 56.784 304.208 56.616C303.992 56.448 303.704 56.322 303.344 56.238C302.996 56.154 302.606 56.082 302.174 56.022C301.742 55.95 301.31 55.866 300.878 55.77C300.446 55.662 300.05 55.518 299.69 55.338C299.33 55.146 299.042 54.888 298.826 54.564C298.61 54.228 298.502 53.784 298.502 53.232C298.502 52.656 298.664 52.152 298.988 51.72C299.312 51.288 299.768 50.958 300.356 50.73C300.956 50.49 301.664 50.37 302.48 50.37C303.104 50.37 303.734 50.448 304.37 50.604C305.018 50.748 305.546 50.958 305.954 51.234L305.216 52.602C304.784 52.314 304.334 52.116 303.866 52.008C303.398 51.9 302.93 51.846 302.462 51.846C301.706 51.846 301.142 51.972 300.77 52.224C300.398 52.464 300.212 52.776 300.212 53.16C300.212 53.484 300.32 53.736 300.536 53.916C300.764 54.084 301.052 54.216 301.4 54.312C301.76 54.408 302.156 54.492 302.588 54.564C303.02 54.624 303.452 54.708 303.884 54.816C304.316 54.912 304.706 55.05 305.054 55.23C305.414 55.41 305.702 55.662 305.918 55.986C306.146 56.31 306.26 56.742 306.26 57.282C306.26 57.858 306.092 58.356 305.756 58.776C305.42 59.196 304.946 59.526 304.334 59.766C303.722 59.994 302.99 60.108 302.138 60.108ZM311.695 60.108C310.735 60.108 309.991 59.85 309.463 59.334C308.935 58.818 308.671 58.08 308.671 57.12V48.372H310.399V57.048C310.399 57.564 310.525 57.96 310.777 58.236C311.041 58.512 311.413 58.65 311.893 58.65C312.433 58.65 312.883 58.5 313.243 58.2L313.783 59.442C313.519 59.67 313.201 59.838 312.829 59.946C312.469 60.054 312.091 60.108 311.695 60.108ZM307.051 51.882V50.46H313.135V51.882H307.051ZM318.608 60.108C317.816 60.108 317.06 60 316.34 59.784C315.632 59.568 315.074 59.304 314.666 58.992L315.386 57.624C315.794 57.9 316.298 58.134 316.898 58.326C317.498 58.518 318.11 58.614 318.734 58.614C319.538 58.614 320.114 58.5 320.462 58.272C320.822 58.044 321.002 57.726 321.002 57.318C321.002 57.018 320.894 56.784 320.678 56.616C320.462 56.448 320.174 56.322 319.814 56.238C319.466 56.154 319.076 56.082 318.644 56.022C318.212 55.95 317.78 55.866 317.348 55.77C316.916 55.662 316.52 55.518 316.16 55.338C315.8 55.146 315.512 54.888 315.296 54.564C315.08 54.228 314.972 53.784 314.972 53.232C314.972 52.656 315.134 52.152 315.458 51.72C315.782 51.288 316.238 50.958 316.826 50.73C317.426 50.49 318.134 50.37 318.95 50.37C319.574 50.37 320.204 50.448 320.84 50.604C321.488 50.748 322.016 50.958 322.424 51.234L321.686 52.602C321.254 52.314 320.804 52.116 320.336 52.008C319.868 51.9 319.4 51.846 318.932 51.846C318.176 51.846 317.612 51.972 317.24 52.224C316.868 52.464 316.682 52.776 316.682 53.16C316.682 53.484 316.79 53.736 317.006 53.916C317.234 54.084 317.522 54.216 317.87 54.312C318.23 54.408 318.626 54.492 319.058 54.564C319.49 54.624 319.922 54.708 320.354 54.816C320.786 54.912 321.176 55.05 321.524 55.23C321.884 55.41 322.172 55.662 322.388 55.986C322.616 56.31 322.73 56.742 322.73 57.282C322.73 57.858 322.562 58.356 322.226 58.776C321.89 59.196 321.416 59.526 320.804 59.766C320.192 59.994 319.46 60.108 318.608 60.108ZM325.304 60.108C324.968 60.108 324.68 59.994 324.44 59.766C324.2 59.526 324.08 59.226 324.08 58.866C324.08 58.506 324.2 58.212 324.44 57.984C324.68 57.756 324.968 57.642 325.304 57.642C325.628 57.642 325.904 57.756 326.132 57.984C326.372 58.212 326.492 58.506 326.492 58.866C326.492 59.226 326.372 59.526 326.132 59.766C325.904 59.994 325.628 60.108 325.304 60.108Z" fill="#414141"/>
<path d="M48.3281 31.6363V32.3522C48.7656 32.4341 49.1895 32.5363 49.5723 32.6386C50.4473 32.8704 50.9668 33.7704 50.7344 34.6431C50.502 35.5158 49.5996 36.034 48.7246 35.8022C47.9795 35.6045 47.2822 35.4681 46.6602 35.4613C46.1611 35.4545 45.6553 35.5772 45.334 35.7613C45.1904 35.8499 45.1221 35.9249 45.0947 35.9658C45.0742 35.9999 45.0469 36.0476 45.0469 36.1567C45.0469 36.1772 45.0469 36.1908 45.0469 36.1976C45.0605 36.2113 45.1084 36.2795 45.2725 36.3749C45.6689 36.6136 46.2568 36.7976 47.1455 37.0635L47.207 37.084C47.9658 37.309 48.9775 37.6158 49.7979 38.1272C50.7344 38.7135 51.582 39.6885 51.6025 41.1885C51.623 42.7226 50.8232 43.8407 49.7773 44.4953C49.3193 44.7748 48.8271 44.9725 48.3213 45.0953V45.818C48.3213 46.7248 47.5898 47.4543 46.6807 47.4543C45.7715 47.4543 45.04 46.7248 45.04 45.818V45.0407C44.3906 44.8839 43.7959 44.6794 43.29 44.5089C43.1465 44.4612 43.0098 44.4134 42.8799 44.3725C42.0186 44.0862 41.5537 43.1589 41.8408 42.2998C42.1279 41.4408 43.0576 40.9771 43.9189 41.2635C44.0967 41.3249 44.2607 41.3794 44.418 41.4339C45.3477 41.7476 46.0176 41.9726 46.7354 41.9998C47.2822 42.0203 47.7676 41.8908 48.0479 41.7203C48.1777 41.6385 48.2393 41.5703 48.2666 41.5226C48.2939 41.4817 48.3281 41.3999 48.3213 41.243V41.2294C48.3213 41.1612 48.3213 41.0862 48.0479 40.9158C47.6582 40.6703 47.0703 40.4794 46.1953 40.2135L46.0654 40.1726C45.3271 39.9544 44.3564 39.6612 43.5771 39.1908C42.6543 38.6385 41.7656 37.6908 41.7588 36.184C41.752 34.6227 42.6406 33.5522 43.6523 32.9522C44.0898 32.6931 44.5615 32.5159 45.0332 32.3932L45.0469 31.6363C45.0469 30.7295 45.7783 30 46.6875 30C47.5967 30 48.3281 30.7295 48.3281 31.6363ZM65.8418 52.9292C66.7373 54.1429 66.4775 55.8474 65.2607 56.7406L56.6064 63.1018C55.0068 64.2746 53.0791 64.9086 51.0898 64.9086H40.125H29.1875C27.9775 64.9086 27 63.9337 27 62.7268V58.3633C27 57.1565 27.9775 56.1815 29.1875 56.1815H31.7031L34.7725 53.727C36.3242 52.4861 38.252 51.8179 40.2412 51.8179H45.5938H46.6875H51.0625C52.2725 51.8179 53.25 52.7929 53.25 53.9997C53.25 55.2065 52.2725 56.1815 51.0625 56.1815H46.6875H45.5938C44.9922 56.1815 44.5 56.6724 44.5 57.2724C44.5 57.8724 44.9922 58.3633 45.5938 58.3633H53.8379L62.0205 52.3497C63.2373 51.4565 64.9463 51.7156 65.8418 52.9292ZM40.2344 56.1815H40.1729C40.1934 56.1815 40.2139 56.1815 40.2344 56.1815Z" fill="#810019"/>
<defs>
<filter id="filter0_d_16986_1514" x="0" y="0" width="465" height="98" filterUnits="userSpaceOnUse" color-interpolation-filters="sRGB">
<feFlood flood-opacity="0" result="BackgroundImageFix"/>
<feColorMatrix in="SourceAlpha" type="matrix" values="0 0 0 0 0 0 0 0 0 0 0 0 0 0 0 0 0 0 127 0" result="hardAlpha"/>
<feOffset dy="1"/>
<feGaussianBlur stdDeviation="2"/>
<feComposite in2="hardAlpha" operator="out"/>
<feColorMatrix type="matrix" values="0 0 0 0 0 0 0 0 0 0 0 0 0 0 0 0 0 0 0.25 0"/>
<feBlend mode="normal" in2="BackgroundImageFix" result="effect1_dropShadow_16986_1514"/>
<feBlend mode="normal" in="SourceGraphic" in2="effect1_dropShadow_16986_1514" result="shape"/>
</filter>
</defs>
</svg>
