<svg width="465" height="98" viewBox="0 0 465 98" fill="none" xmlns="http://www.w3.org/2000/svg">
<g filter="url(#filter0_d_16986_1513)">
<rect x="4" y="3" width="457" height="90" rx="22" fill="white"/>
</g>
<rect x="14" y="15" width="65" height="65" rx="10" fill="#FFCCCC"/>
<path d="M102.524 31.18C101.564 31.18 100.67 31.024 99.842 30.712C99.026 30.388 98.312 29.938 97.7 29.362C97.1 28.774 96.632 28.084 96.296 27.292C95.96 26.5 95.792 25.636 95.792 24.7C95.792 23.764 95.96 22.9 96.296 22.108C96.632 21.316 97.106 20.632 97.718 20.056C98.33 19.468 99.044 19.018 99.86 18.706C100.676 18.382 101.57 18.22 102.542 18.22C103.574 18.22 104.516 18.4 105.368 18.76C106.22 19.108 106.94 19.63 107.528 20.326L106.016 21.748C105.56 21.256 105.05 20.89 104.486 20.65C103.922 20.398 103.31 20.272 102.65 20.272C101.99 20.272 101.384 20.38 100.832 20.596C100.292 20.812 99.818 21.118 99.41 21.514C99.014 21.91 98.702 22.378 98.474 22.918C98.258 23.458 98.15 24.052 98.15 24.7C98.15 25.348 98.258 25.942 98.474 26.482C98.702 27.022 99.014 27.49 99.41 27.886C99.818 28.282 100.292 28.588 100.832 28.804C101.384 29.02 101.99 29.128 102.65 29.128C103.31 29.128 103.922 29.008 104.486 28.768C105.05 28.516 105.56 28.138 106.016 27.634L107.528 29.074C106.94 29.758 106.22 30.28 105.368 30.64C104.516 31 103.568 31.18 102.524 31.18ZM109.554 31V21.388H111.696V24.034L111.444 23.26C111.732 22.612 112.182 22.12 112.794 21.784C113.418 21.448 114.192 21.28 115.116 21.28V23.422C115.02 23.398 114.93 23.386 114.846 23.386C114.762 23.374 114.678 23.368 114.594 23.368C113.742 23.368 113.064 23.62 112.56 24.124C112.056 24.616 111.804 25.354 111.804 26.338V31H109.554ZM121.455 31.126C120.387 31.126 119.451 30.916 118.647 30.496C117.855 30.064 117.237 29.476 116.793 28.732C116.361 27.988 116.145 27.142 116.145 26.194C116.145 25.234 116.355 24.388 116.775 23.656C117.207 22.912 117.795 22.33 118.539 21.91C119.295 21.49 120.153 21.28 121.113 21.28C122.049 21.28 122.883 21.484 123.615 21.892C124.347 22.3 124.923 22.876 125.343 23.62C125.763 24.364 125.973 25.24 125.973 26.248C125.973 26.344 125.967 26.452 125.955 26.572C125.955 26.692 125.949 26.806 125.937 26.914H117.927V25.42H124.749L123.867 25.888C123.879 25.336 123.765 24.85 123.525 24.43C123.285 24.01 122.955 23.68 122.535 23.44C122.127 23.2 121.653 23.08 121.113 23.08C120.561 23.08 120.075 23.2 119.655 23.44C119.247 23.68 118.923 24.016 118.683 24.448C118.455 24.868 118.341 25.366 118.341 25.942V26.302C118.341 26.878 118.473 27.388 118.737 27.832C119.001 28.276 119.373 28.618 119.853 28.858C120.333 29.098 120.885 29.218 121.509 29.218C122.049 29.218 122.535 29.134 122.967 28.966C123.399 28.798 123.783 28.534 124.119 28.174L125.325 29.56C124.893 30.064 124.347 30.454 123.687 30.73C123.039 30.994 122.295 31.126 121.455 31.126ZM132.202 31.126C131.278 31.126 130.444 30.922 129.7 30.514C128.968 30.094 128.392 29.518 127.972 28.786C127.552 28.054 127.342 27.19 127.342 26.194C127.342 25.198 127.552 24.334 127.972 23.602C128.392 22.87 128.968 22.3 129.7 21.892C130.444 21.484 131.278 21.28 132.202 21.28C133.006 21.28 133.726 21.46 134.362 21.82C134.998 22.168 135.502 22.702 135.874 23.422C136.246 24.142 136.432 25.066 136.432 26.194C136.432 27.31 136.252 28.234 135.892 28.966C135.532 29.686 135.034 30.226 134.398 30.586C133.762 30.946 133.03 31.126 132.202 31.126ZM132.472 29.2C133.012 29.2 133.492 29.08 133.912 28.84C134.344 28.6 134.686 28.252 134.938 27.796C135.202 27.34 135.334 26.806 135.334 26.194C135.334 25.57 135.202 25.036 134.938 24.592C134.686 24.136 134.344 23.788 133.912 23.548C133.492 23.308 133.012 23.188 132.472 23.188C131.932 23.188 131.446 23.308 131.014 23.548C130.594 23.788 130.252 24.136 129.988 24.592C129.736 25.036 129.61 25.57 129.61 26.194C129.61 26.806 129.736 27.34 129.988 27.796C130.252 28.252 130.594 28.6 131.014 28.84C131.446 29.08 131.932 29.2 132.472 29.2ZM135.388 31V28.732L135.478 26.176L135.298 23.62V17.644H137.53V31H135.388ZM140.492 31V21.388H142.742V31H140.492ZM141.626 19.804C141.206 19.804 140.858 19.672 140.582 19.408C140.318 19.144 140.186 18.826 140.186 18.454C140.186 18.07 140.318 17.752 140.582 17.5C140.858 17.236 141.206 17.104 141.626 17.104C142.046 17.104 142.388 17.23 142.652 17.482C142.928 17.722 143.066 18.028 143.066 18.4C143.066 18.796 142.934 19.132 142.67 19.408C142.406 19.672 142.058 19.804 141.626 19.804ZM149.313 31.126C148.257 31.126 147.441 30.856 146.865 30.316C146.289 29.764 146.001 28.954 146.001 27.886V19.264H148.251V27.832C148.251 28.288 148.365 28.642 148.593 28.894C148.833 29.146 149.163 29.272 149.583 29.272C150.087 29.272 150.507 29.14 150.843 28.876L151.473 30.478C151.209 30.694 150.885 30.856 150.501 30.964C150.117 31.072 149.721 31.126 149.313 31.126ZM144.417 23.26V21.46H150.825V23.26H144.417ZM158.298 31V17.644H160.548V31H158.298ZM163.501 31V21.388H165.751V31H163.501ZM164.635 19.804C164.215 19.804 163.867 19.672 163.591 19.408C163.327 19.144 163.195 18.826 163.195 18.454C163.195 18.07 163.327 17.752 163.591 17.5C163.867 17.236 164.215 17.104 164.635 17.104C165.055 17.104 165.397 17.23 165.661 17.482C165.937 17.722 166.075 18.028 166.075 18.4C166.075 18.796 165.943 19.132 165.679 19.408C165.415 19.672 165.067 19.804 164.635 19.804ZM174.159 21.28C174.927 21.28 175.611 21.43 176.211 21.73C176.823 22.03 177.303 22.492 177.651 23.116C177.999 23.728 178.173 24.52 178.173 25.492V31H175.923V25.78C175.923 24.928 175.719 24.292 175.311 23.872C174.915 23.452 174.357 23.242 173.637 23.242C173.109 23.242 172.641 23.35 172.233 23.566C171.825 23.782 171.507 24.106 171.279 24.538C171.063 24.958 170.955 25.492 170.955 26.14V31H168.705V21.388H170.847V23.98L170.469 23.188C170.805 22.576 171.291 22.108 171.927 21.784C172.575 21.448 173.319 21.28 174.159 21.28ZM185.562 31.126C184.494 31.126 183.558 30.916 182.754 30.496C181.962 30.064 181.344 29.476 180.9 28.732C180.468 27.988 180.252 27.142 180.252 26.194C180.252 25.234 180.462 24.388 180.882 23.656C181.314 22.912 181.902 22.33 182.646 21.91C183.402 21.49 184.26 21.28 185.22 21.28C186.156 21.28 186.99 21.484 187.722 21.892C188.454 22.3 189.03 22.876 189.45 23.62C189.87 24.364 190.08 25.24 190.08 26.248C190.08 26.344 190.074 26.452 190.062 26.572C190.062 26.692 190.056 26.806 190.044 26.914H182.034V25.42H188.856L187.974 25.888C187.986 25.336 187.872 24.85 187.632 24.43C187.392 24.01 187.062 23.68 186.642 23.44C186.234 23.2 185.76 23.08 185.22 23.08C184.668 23.08 184.182 23.2 183.762 23.44C183.354 23.68 183.03 24.016 182.79 24.448C182.562 24.868 182.448 25.366 182.448 25.942V26.302C182.448 26.878 182.58 27.388 182.844 27.832C183.108 28.276 183.48 28.618 183.96 28.858C184.44 29.098 184.992 29.218 185.616 29.218C186.156 29.218 186.642 29.134 187.074 28.966C187.506 28.798 187.89 28.534 188.226 28.174L189.432 29.56C189 30.064 188.454 30.454 187.794 30.73C187.146 30.994 186.402 31.126 185.562 31.126Z" fill="#414141"/>
<path d="M99.392 60V48.966H95.072V47.4H105.494V48.966H101.174V60H99.392ZM106.974 60V50.46H108.63V53.052L108.468 52.404C108.732 51.744 109.176 51.24 109.8 50.892C110.424 50.544 111.192 50.37 112.104 50.37V52.044C112.032 52.032 111.96 52.026 111.888 52.026C111.828 52.026 111.768 52.026 111.708 52.026C110.784 52.026 110.052 52.302 109.512 52.854C108.972 53.406 108.702 54.204 108.702 55.248V60H106.974ZM119.453 60V57.984L119.363 57.606V54.168C119.363 53.436 119.147 52.872 118.715 52.476C118.295 52.068 117.659 51.864 116.807 51.864C116.243 51.864 115.691 51.96 115.151 52.152C114.611 52.332 114.155 52.578 113.783 52.89L113.063 51.594C113.555 51.198 114.143 50.898 114.827 50.694C115.523 50.478 116.249 50.37 117.005 50.37C118.313 50.37 119.321 50.688 120.029 51.324C120.737 51.96 121.091 52.932 121.091 54.24V60H119.453ZM116.321 60.108C115.613 60.108 114.989 59.988 114.449 59.748C113.921 59.508 113.513 59.178 113.225 58.758C112.937 58.326 112.793 57.84 112.793 57.3C112.793 56.784 112.913 56.316 113.153 55.896C113.405 55.476 113.807 55.14 114.359 54.888C114.923 54.636 115.679 54.51 116.627 54.51H119.651V55.752H116.699C115.835 55.752 115.253 55.896 114.953 56.184C114.653 56.472 114.503 56.82 114.503 57.228C114.503 57.696 114.689 58.074 115.061 58.362C115.433 58.638 115.949 58.776 116.609 58.776C117.257 58.776 117.821 58.632 118.301 58.344C118.793 58.056 119.147 57.636 119.363 57.084L119.705 58.272C119.477 58.836 119.075 59.286 118.499 59.622C117.923 59.946 117.197 60.108 116.321 60.108ZM128.446 60.108C127.474 60.108 126.604 59.898 125.836 59.478C125.08 59.058 124.486 58.482 124.054 57.75C123.622 57.018 123.406 56.178 123.406 55.23C123.406 54.282 123.622 53.442 124.054 52.71C124.486 51.978 125.08 51.408 125.836 51C126.604 50.58 127.474 50.37 128.446 50.37C129.31 50.37 130.078 50.544 130.75 50.892C131.434 51.228 131.962 51.732 132.334 52.404L131.02 53.25C130.708 52.782 130.324 52.44 129.868 52.224C129.424 51.996 128.944 51.882 128.428 51.882C127.804 51.882 127.246 52.02 126.754 52.296C126.262 52.572 125.872 52.962 125.584 53.466C125.296 53.958 125.152 54.546 125.152 55.23C125.152 55.914 125.296 56.508 125.584 57.012C125.872 57.516 126.262 57.906 126.754 58.182C127.246 58.458 127.804 58.596 128.428 58.596C128.944 58.596 129.424 58.488 129.868 58.272C130.324 58.044 130.708 57.696 131.02 57.228L132.334 58.056C131.962 58.716 131.434 59.226 130.75 59.586C130.078 59.934 129.31 60.108 128.446 60.108ZM135.853 57.696L135.889 55.482L141.379 50.46H143.467L139.255 54.6L138.319 55.392L135.853 57.696ZM134.449 60V46.644H136.177V60H134.449ZM141.739 60L137.995 55.356L139.111 53.97L143.863 60H141.739ZM156.296 60V57.984L156.206 57.606V54.168C156.206 53.436 155.99 52.872 155.558 52.476C155.138 52.068 154.502 51.864 153.65 51.864C153.086 51.864 152.534 51.96 151.994 52.152C151.454 52.332 150.998 52.578 150.626 52.89L149.906 51.594C150.398 51.198 150.986 50.898 151.67 50.694C152.366 50.478 153.092 50.37 153.848 50.37C155.156 50.37 156.164 50.688 156.872 51.324C157.58 51.96 157.934 52.932 157.934 54.24V60H156.296ZM153.164 60.108C152.456 60.108 151.832 59.988 151.292 59.748C150.764 59.508 150.356 59.178 150.068 58.758C149.78 58.326 149.636 57.84 149.636 57.3C149.636 56.784 149.756 56.316 149.996 55.896C150.248 55.476 150.65 55.14 151.202 54.888C151.766 54.636 152.522 54.51 153.47 54.51H156.494V55.752H153.542C152.678 55.752 152.096 55.896 151.796 56.184C151.496 56.472 151.346 56.82 151.346 57.228C151.346 57.696 151.532 58.074 151.904 58.362C152.276 58.638 152.792 58.776 153.452 58.776C154.1 58.776 154.664 58.632 155.144 58.344C155.636 58.056 155.99 57.636 156.206 57.084L156.548 58.272C156.32 58.836 155.918 59.286 155.342 59.622C154.766 59.946 154.04 60.108 153.164 60.108ZM166.226 50.37C167.006 50.37 167.69 50.52 168.278 50.82C168.878 51.12 169.346 51.576 169.682 52.188C170.018 52.8 170.186 53.574 170.186 54.51V60H168.458V54.708C168.458 53.784 168.23 53.088 167.774 52.62C167.33 52.152 166.7 51.918 165.884 51.918C165.272 51.918 164.738 52.038 164.282 52.278C163.826 52.518 163.472 52.872 163.22 53.34C162.98 53.808 162.86 54.39 162.86 55.086V60H161.132V50.46H162.788V53.034L162.518 52.35C162.83 51.726 163.31 51.24 163.958 50.892C164.606 50.544 165.362 50.37 166.226 50.37ZM177.326 60.108C176.402 60.108 175.574 59.904 174.842 59.496C174.122 59.088 173.552 58.518 173.132 57.786C172.712 57.054 172.502 56.202 172.502 55.23C172.502 54.258 172.712 53.412 173.132 52.692C173.552 51.96 174.122 51.39 174.842 50.982C175.574 50.574 176.402 50.37 177.326 50.37C178.13 50.37 178.856 50.55 179.504 50.91C180.152 51.27 180.668 51.81 181.052 52.53C181.448 53.25 181.646 54.15 181.646 55.23C181.646 56.31 181.454 57.21 181.07 57.93C180.698 58.65 180.188 59.196 179.54 59.568C178.892 59.928 178.154 60.108 177.326 60.108ZM177.47 58.596C178.07 58.596 178.61 58.458 179.09 58.182C179.582 57.906 179.966 57.516 180.242 57.012C180.53 56.496 180.674 55.902 180.674 55.23C180.674 54.546 180.53 53.958 180.242 53.466C179.966 52.962 179.582 52.572 179.09 52.296C178.61 52.02 178.07 51.882 177.47 51.882C176.858 51.882 176.312 52.02 175.832 52.296C175.352 52.572 174.968 52.962 174.68 53.466C174.392 53.958 174.248 54.546 174.248 55.23C174.248 55.902 174.392 56.496 174.68 57.012C174.968 57.516 175.352 57.906 175.832 58.182C176.312 58.458 176.858 58.596 177.47 58.596ZM180.728 60V57.426L180.836 55.212L180.656 52.998V46.644H182.384V60H180.728ZM202.422 50.37C203.19 50.37 203.868 50.52 204.456 50.82C205.044 51.12 205.5 51.576 205.824 52.188C206.16 52.8 206.328 53.574 206.328 54.51V60H204.6V54.708C204.6 53.784 204.384 53.088 203.952 52.62C203.52 52.152 202.914 51.918 202.134 51.918C201.558 51.918 201.054 52.038 200.622 52.278C200.19 52.518 199.854 52.872 199.614 53.34C199.386 53.808 199.272 54.39 199.272 55.086V60H197.544V54.708C197.544 53.784 197.328 53.088 196.896 52.62C196.476 52.152 195.87 51.918 195.078 51.918C194.514 51.918 194.016 52.038 193.584 52.278C193.152 52.518 192.816 52.872 192.576 53.34C192.336 53.808 192.216 54.39 192.216 55.086V60H190.488V50.46H192.144V52.998L191.874 52.35C192.174 51.726 192.636 51.24 193.26 50.892C193.884 50.544 194.61 50.37 195.438 50.37C196.35 50.37 197.136 50.598 197.796 51.054C198.456 51.498 198.888 52.176 199.092 53.088L198.39 52.8C198.678 52.068 199.182 51.48 199.902 51.036C200.622 50.592 201.462 50.37 202.422 50.37ZM215.429 60V57.984L215.339 57.606V54.168C215.339 53.436 215.123 52.872 214.691 52.476C214.271 52.068 213.635 51.864 212.783 51.864C212.219 51.864 211.667 51.96 211.127 52.152C210.587 52.332 210.131 52.578 209.759 52.89L209.039 51.594C209.531 51.198 210.119 50.898 210.803 50.694C211.499 50.478 212.225 50.37 212.981 50.37C214.289 50.37 215.297 50.688 216.005 51.324C216.713 51.96 217.067 52.932 217.067 54.24V60H215.429ZM212.297 60.108C211.589 60.108 210.965 59.988 210.425 59.748C209.897 59.508 209.489 59.178 209.201 58.758C208.913 58.326 208.769 57.84 208.769 57.3C208.769 56.784 208.889 56.316 209.129 55.896C209.381 55.476 209.783 55.14 210.335 54.888C210.899 54.636 211.655 54.51 212.603 54.51H215.627V55.752H212.675C211.811 55.752 211.229 55.896 210.929 56.184C210.629 56.472 210.479 56.82 210.479 57.228C210.479 57.696 210.665 58.074 211.037 58.362C211.409 58.638 211.925 58.776 212.585 58.776C213.233 58.776 213.797 58.632 214.277 58.344C214.769 58.056 215.123 57.636 215.339 57.084L215.681 58.272C215.453 58.836 215.051 59.286 214.475 59.622C213.899 59.946 213.173 60.108 212.297 60.108ZM225.359 50.37C226.139 50.37 226.823 50.52 227.411 50.82C228.011 51.12 228.479 51.576 228.815 52.188C229.151 52.8 229.319 53.574 229.319 54.51V60H227.591V54.708C227.591 53.784 227.363 53.088 226.907 52.62C226.463 52.152 225.833 51.918 225.017 51.918C224.405 51.918 223.871 52.038 223.415 52.278C222.959 52.518 222.605 52.872 222.353 53.34C222.113 53.808 221.993 54.39 221.993 55.086V60H220.265V50.46H221.921V53.034L221.651 52.35C221.963 51.726 222.443 51.24 223.091 50.892C223.739 50.544 224.495 50.37 225.359 50.37ZM238.439 60V57.984L238.349 57.606V54.168C238.349 53.436 238.133 52.872 237.701 52.476C237.281 52.068 236.645 51.864 235.793 51.864C235.229 51.864 234.677 51.96 234.137 52.152C233.597 52.332 233.141 52.578 232.769 52.89L232.049 51.594C232.541 51.198 233.129 50.898 233.813 50.694C234.509 50.478 235.235 50.37 235.991 50.37C237.299 50.37 238.307 50.688 239.015 51.324C239.723 51.96 240.077 52.932 240.077 54.24V60H238.439ZM235.307 60.108C234.599 60.108 233.975 59.988 233.435 59.748C232.907 59.508 232.499 59.178 232.211 58.758C231.923 58.326 231.779 57.84 231.779 57.3C231.779 56.784 231.899 56.316 232.139 55.896C232.391 55.476 232.793 55.14 233.345 54.888C233.909 54.636 234.665 54.51 235.613 54.51H238.637V55.752H235.685C234.821 55.752 234.239 55.896 233.939 56.184C233.639 56.472 233.489 56.82 233.489 57.228C233.489 57.696 233.675 58.074 234.047 58.362C234.419 58.638 234.935 58.776 235.595 58.776C236.243 58.776 236.807 58.632 237.287 58.344C237.779 58.056 238.133 57.636 238.349 57.084L238.691 58.272C238.463 58.836 238.061 59.286 237.485 59.622C236.909 59.946 236.183 60.108 235.307 60.108ZM247.451 63.6C246.575 63.6 245.723 63.474 244.895 63.222C244.079 62.982 243.413 62.634 242.897 62.178L243.725 60.846C244.169 61.23 244.715 61.53 245.363 61.746C246.011 61.974 246.689 62.088 247.397 62.088C248.525 62.088 249.353 61.824 249.881 61.296C250.409 60.768 250.673 59.964 250.673 58.884V56.868L250.853 54.978L250.763 53.07V50.46H252.401V58.704C252.401 60.384 251.981 61.62 251.141 62.412C250.301 63.204 249.071 63.6 247.451 63.6ZM247.235 59.604C246.311 59.604 245.483 59.412 244.751 59.028C244.031 58.632 243.455 58.086 243.023 57.39C242.603 56.694 242.393 55.89 242.393 54.978C242.393 54.054 242.603 53.25 243.023 52.566C243.455 51.87 244.031 51.33 244.751 50.946C245.483 50.562 246.311 50.37 247.235 50.37C248.051 50.37 248.795 50.538 249.467 50.874C250.139 51.198 250.673 51.702 251.069 52.386C251.477 53.07 251.681 53.934 251.681 54.978C251.681 56.01 251.477 56.868 251.069 57.552C250.673 58.236 250.139 58.752 249.467 59.1C248.795 59.436 248.051 59.604 247.235 59.604ZM247.433 58.092C248.069 58.092 248.633 57.96 249.125 57.696C249.617 57.432 250.001 57.066 250.277 56.598C250.565 56.13 250.709 55.59 250.709 54.978C250.709 54.366 250.565 53.826 250.277 53.358C250.001 52.89 249.617 52.53 249.125 52.278C248.633 52.014 248.069 51.882 247.433 51.882C246.797 51.882 246.227 52.014 245.723 52.278C245.231 52.53 244.841 52.89 244.553 53.358C244.277 53.826 244.139 54.366 244.139 54.978C244.139 55.59 244.277 56.13 244.553 56.598C244.841 57.066 245.231 57.432 245.723 57.696C246.227 57.96 246.797 58.092 247.433 58.092ZM259.95 60.108C258.93 60.108 258.03 59.898 257.25 59.478C256.482 59.058 255.882 58.482 255.45 57.75C255.03 57.018 254.82 56.178 254.82 55.23C254.82 54.282 255.024 53.442 255.432 52.71C255.852 51.978 256.422 51.408 257.142 51C257.874 50.58 258.696 50.37 259.608 50.37C260.532 50.37 261.348 50.574 262.056 50.982C262.764 51.39 263.316 51.966 263.712 52.71C264.12 53.442 264.324 54.3 264.324 55.284C264.324 55.356 264.318 55.44 264.306 55.536C264.306 55.632 264.3 55.722 264.288 55.806H256.17V54.564H263.388L262.686 54.996C262.698 54.384 262.572 53.838 262.308 53.358C262.044 52.878 261.678 52.506 261.21 52.242C260.754 51.966 260.22 51.828 259.608 51.828C259.008 51.828 258.474 51.966 258.006 52.242C257.538 52.506 257.172 52.884 256.908 53.376C256.644 53.856 256.512 54.408 256.512 55.032V55.32C256.512 55.956 256.656 56.526 256.944 57.03C257.244 57.522 257.658 57.906 258.186 58.182C258.714 58.458 259.32 58.596 260.004 58.596C260.568 58.596 261.078 58.5 261.534 58.308C262.002 58.116 262.41 57.828 262.758 57.444L263.712 58.56C263.28 59.064 262.74 59.448 262.092 59.712C261.456 59.976 260.742 60.108 259.95 60.108ZM275.716 60.108C274.744 60.108 273.874 59.898 273.106 59.478C272.35 59.058 271.756 58.482 271.324 57.75C270.892 57.018 270.676 56.178 270.676 55.23C270.676 54.282 270.892 53.442 271.324 52.71C271.756 51.978 272.35 51.408 273.106 51C273.874 50.58 274.744 50.37 275.716 50.37C276.58 50.37 277.348 50.544 278.02 50.892C278.704 51.228 279.232 51.732 279.604 52.404L278.29 53.25C277.978 52.782 277.594 52.44 277.138 52.224C276.694 51.996 276.214 51.882 275.698 51.882C275.074 51.882 274.516 52.02 274.024 52.296C273.532 52.572 273.142 52.962 272.854 53.466C272.566 53.958 272.422 54.546 272.422 55.23C272.422 55.914 272.566 56.508 272.854 57.012C273.142 57.516 273.532 57.906 274.024 58.182C274.516 58.458 275.074 58.596 275.698 58.596C276.214 58.596 276.694 58.488 277.138 58.272C277.594 58.044 277.978 57.696 278.29 57.228L279.604 58.056C279.232 58.716 278.704 59.226 278.02 59.586C277.348 59.934 276.58 60.108 275.716 60.108ZM281.841 60V50.46H283.497V53.052L283.335 52.404C283.599 51.744 284.043 51.24 284.667 50.892C285.291 50.544 286.059 50.37 286.971 50.37V52.044C286.899 52.032 286.827 52.026 286.755 52.026C286.695 52.026 286.635 52.026 286.575 52.026C285.651 52.026 284.919 52.302 284.379 52.854C283.839 53.406 283.569 54.204 283.569 55.248V60H281.841ZM293.261 60.108C292.241 60.108 291.341 59.898 290.561 59.478C289.793 59.058 289.193 58.482 288.761 57.75C288.341 57.018 288.131 56.178 288.131 55.23C288.131 54.282 288.335 53.442 288.743 52.71C289.163 51.978 289.733 51.408 290.453 51C291.185 50.58 292.007 50.37 292.919 50.37C293.843 50.37 294.659 50.574 295.367 50.982C296.075 51.39 296.627 51.966 297.023 52.71C297.431 53.442 297.635 54.3 297.635 55.284C297.635 55.356 297.629 55.44 297.617 55.536C297.617 55.632 297.611 55.722 297.599 55.806H289.481V54.564H296.699L295.997 54.996C296.009 54.384 295.883 53.838 295.619 53.358C295.355 52.878 294.989 52.506 294.521 52.242C294.065 51.966 293.531 51.828 292.919 51.828C292.319 51.828 291.785 51.966 291.317 52.242C290.849 52.506 290.483 52.884 290.219 53.376C289.955 53.856 289.823 54.408 289.823 55.032V55.32C289.823 55.956 289.967 56.526 290.255 57.03C290.555 57.522 290.969 57.906 291.497 58.182C292.025 58.458 292.631 58.596 293.315 58.596C293.879 58.596 294.389 58.5 294.845 58.308C295.313 58.116 295.721 57.828 296.069 57.444L297.023 58.56C296.591 59.064 296.051 59.448 295.403 59.712C294.767 59.976 294.053 60.108 293.261 60.108ZM303.976 60.108C303.052 60.108 302.224 59.904 301.492 59.496C300.772 59.088 300.202 58.518 299.782 57.786C299.362 57.054 299.152 56.202 299.152 55.23C299.152 54.258 299.362 53.412 299.782 52.692C300.202 51.96 300.772 51.39 301.492 50.982C302.224 50.574 303.052 50.37 303.976 50.37C304.78 50.37 305.506 50.55 306.154 50.91C306.802 51.27 307.318 51.81 307.702 52.53C308.098 53.25 308.296 54.15 308.296 55.23C308.296 56.31 308.104 57.21 307.72 57.93C307.348 58.65 306.838 59.196 306.19 59.568C305.542 59.928 304.804 60.108 303.976 60.108ZM304.12 58.596C304.72 58.596 305.26 58.458 305.74 58.182C306.232 57.906 306.616 57.516 306.892 57.012C307.18 56.496 307.324 55.902 307.324 55.23C307.324 54.546 307.18 53.958 306.892 53.466C306.616 52.962 306.232 52.572 305.74 52.296C305.26 52.02 304.72 51.882 304.12 51.882C303.508 51.882 302.962 52.02 302.482 52.296C302.002 52.572 301.618 52.962 301.33 53.466C301.042 53.958 300.898 54.546 300.898 55.23C300.898 55.902 301.042 56.496 301.33 57.012C301.618 57.516 302.002 57.906 302.482 58.182C302.962 58.458 303.508 58.596 304.12 58.596ZM307.378 60V57.426L307.486 55.212L307.306 52.998V46.644H309.034V60H307.378ZM312.304 60V50.46H314.032V60H312.304ZM313.168 48.624C312.832 48.624 312.55 48.516 312.322 48.3C312.106 48.084 311.998 47.82 311.998 47.508C311.998 47.184 312.106 46.914 312.322 46.698C312.55 46.482 312.832 46.374 313.168 46.374C313.504 46.374 313.78 46.482 313.996 46.698C314.224 46.902 314.338 47.16 314.338 47.472C314.338 47.796 314.23 48.072 314.014 48.3C313.798 48.516 313.516 48.624 313.168 48.624ZM320.607 60.108C319.647 60.108 318.903 59.85 318.375 59.334C317.847 58.818 317.583 58.08 317.583 57.12V48.372H319.311V57.048C319.311 57.564 319.437 57.96 319.689 58.236C319.953 58.512 320.325 58.65 320.805 58.65C321.345 58.65 321.795 58.5 322.155 58.2L322.695 59.442C322.431 59.67 322.113 59.838 321.741 59.946C321.381 60.054 321.003 60.108 320.607 60.108ZM315.963 51.882V50.46H322.047V51.882H315.963ZM329.618 60V46.644H331.346V60H329.618ZM334.646 60V50.46H336.374V60H334.646ZM335.51 48.624C335.174 48.624 334.892 48.516 334.664 48.3C334.448 48.084 334.34 47.82 334.34 47.508C334.34 47.184 334.448 46.914 334.664 46.698C334.892 46.482 335.174 46.374 335.51 46.374C335.846 46.374 336.122 46.482 336.338 46.698C336.566 46.902 336.68 47.16 336.68 47.472C336.68 47.796 336.572 48.072 336.356 48.3C336.14 48.516 335.858 48.624 335.51 48.624ZM344.767 50.37C345.547 50.37 346.231 50.52 346.819 50.82C347.419 51.12 347.887 51.576 348.223 52.188C348.559 52.8 348.727 53.574 348.727 54.51V60H346.999V54.708C346.999 53.784 346.771 53.088 346.315 52.62C345.871 52.152 345.241 51.918 344.425 51.918C343.813 51.918 343.279 52.038 342.823 52.278C342.367 52.518 342.013 52.872 341.761 53.34C341.521 53.808 341.401 54.39 341.401 55.086V60H339.673V50.46H341.329V53.034L341.059 52.35C341.371 51.726 341.851 51.24 342.499 50.892C343.147 50.544 343.903 50.37 344.767 50.37ZM356.173 60.108C355.153 60.108 354.253 59.898 353.473 59.478C352.705 59.058 352.105 58.482 351.673 57.75C351.253 57.018 351.043 56.178 351.043 55.23C351.043 54.282 351.247 53.442 351.655 52.71C352.075 51.978 352.645 51.408 353.365 51C354.097 50.58 354.919 50.37 355.831 50.37C356.755 50.37 357.571 50.574 358.279 50.982C358.987 51.39 359.539 51.966 359.935 52.71C360.343 53.442 360.547 54.3 360.547 55.284C360.547 55.356 360.541 55.44 360.529 55.536C360.529 55.632 360.523 55.722 360.511 55.806H352.393V54.564H359.611L358.909 54.996C358.921 54.384 358.795 53.838 358.531 53.358C358.267 52.878 357.901 52.506 357.433 52.242C356.977 51.966 356.443 51.828 355.831 51.828C355.231 51.828 354.697 51.966 354.229 52.242C353.761 52.506 353.395 52.884 353.131 53.376C352.867 53.856 352.735 54.408 352.735 55.032V55.32C352.735 55.956 352.879 56.526 353.167 57.03C353.467 57.522 353.881 57.906 354.409 58.182C354.937 58.458 355.543 58.596 356.227 58.596C356.791 58.596 357.301 58.5 357.757 58.308C358.225 58.116 358.633 57.828 358.981 57.444L359.935 58.56C359.503 59.064 358.963 59.448 358.315 59.712C357.679 59.976 356.965 60.108 356.173 60.108ZM365.683 60.108C364.891 60.108 364.135 60 363.415 59.784C362.707 59.568 362.149 59.304 361.741 58.992L362.461 57.624C362.869 57.9 363.373 58.134 363.973 58.326C364.573 58.518 365.185 58.614 365.809 58.614C366.613 58.614 367.189 58.5 367.537 58.272C367.897 58.044 368.077 57.726 368.077 57.318C368.077 57.018 367.969 56.784 367.753 56.616C367.537 56.448 367.249 56.322 366.889 56.238C366.541 56.154 366.151 56.082 365.719 56.022C365.287 55.95 364.855 55.866 364.423 55.77C363.991 55.662 363.595 55.518 363.235 55.338C362.875 55.146 362.587 54.888 362.371 54.564C362.155 54.228 362.047 53.784 362.047 53.232C362.047 52.656 362.209 52.152 362.533 51.72C362.857 51.288 363.313 50.958 363.901 50.73C364.501 50.49 365.209 50.37 366.025 50.37C366.649 50.37 367.279 50.448 367.915 50.604C368.563 50.748 369.091 50.958 369.499 51.234L368.761 52.602C368.329 52.314 367.879 52.116 367.411 52.008C366.943 51.9 366.475 51.846 366.007 51.846C365.251 51.846 364.687 51.972 364.315 52.224C363.943 52.464 363.757 52.776 363.757 53.16C363.757 53.484 363.865 53.736 364.081 53.916C364.309 54.084 364.597 54.216 364.945 54.312C365.305 54.408 365.701 54.492 366.133 54.564C366.565 54.624 366.997 54.708 367.429 54.816C367.861 54.912 368.251 55.05 368.599 55.23C368.959 55.41 369.247 55.662 369.463 55.986C369.691 56.31 369.805 56.742 369.805 57.282C369.805 57.858 369.637 58.356 369.301 58.776C368.965 59.196 368.491 59.526 367.879 59.766C367.267 59.994 366.535 60.108 365.683 60.108ZM380.974 63.6C380.098 63.6 379.246 63.474 378.418 63.222C377.602 62.982 376.936 62.634 376.42 62.178L377.248 60.846C377.692 61.23 378.238 61.53 378.886 61.746C379.534 61.974 380.212 62.088 380.92 62.088C382.048 62.088 382.876 61.824 383.404 61.296C383.932 60.768 384.196 59.964 384.196 58.884V56.868L384.376 54.978L384.286 53.07V50.46H385.924V58.704C385.924 60.384 385.504 61.62 384.664 62.412C383.824 63.204 382.594 63.6 380.974 63.6ZM380.758 59.604C379.834 59.604 379.006 59.412 378.274 59.028C377.554 58.632 376.978 58.086 376.546 57.39C376.126 56.694 375.916 55.89 375.916 54.978C375.916 54.054 376.126 53.25 376.546 52.566C376.978 51.87 377.554 51.33 378.274 50.946C379.006 50.562 379.834 50.37 380.758 50.37C381.574 50.37 382.318 50.538 382.99 50.874C383.662 51.198 384.196 51.702 384.592 52.386C385 53.07 385.204 53.934 385.204 54.978C385.204 56.01 385 56.868 384.592 57.552C384.196 58.236 383.662 58.752 382.99 59.1C382.318 59.436 381.574 59.604 380.758 59.604ZM380.956 58.092C381.592 58.092 382.156 57.96 382.648 57.696C383.14 57.432 383.524 57.066 383.8 56.598C384.088 56.13 384.232 55.59 384.232 54.978C384.232 54.366 384.088 53.826 383.8 53.358C383.524 52.89 383.14 52.53 382.648 52.278C382.156 52.014 381.592 51.882 380.956 51.882C380.32 51.882 379.75 52.014 379.246 52.278C378.754 52.53 378.364 52.89 378.076 53.358C377.8 53.826 377.662 54.366 377.662 54.978C377.662 55.59 377.8 56.13 378.076 56.598C378.364 57.066 378.754 57.432 379.246 57.696C379.75 57.96 380.32 58.092 380.956 58.092ZM389.226 60V50.46H390.882V53.052L390.72 52.404C390.984 51.744 391.428 51.24 392.052 50.892C392.676 50.544 393.444 50.37 394.356 50.37V52.044C394.284 52.032 394.212 52.026 394.14 52.026C394.08 52.026 394.02 52.026 393.96 52.026C393.036 52.026 392.304 52.302 391.764 52.854C391.224 53.406 390.954 54.204 390.954 55.248V60H389.226ZM401.705 60V57.984L401.615 57.606V54.168C401.615 53.436 401.399 52.872 400.967 52.476C400.547 52.068 399.911 51.864 399.059 51.864C398.495 51.864 397.943 51.96 397.403 52.152C396.863 52.332 396.407 52.578 396.035 52.89L395.315 51.594C395.807 51.198 396.395 50.898 397.079 50.694C397.775 50.478 398.501 50.37 399.257 50.37C400.565 50.37 401.573 50.688 402.281 51.324C402.989 51.96 403.343 52.932 403.343 54.24V60H401.705ZM398.573 60.108C397.865 60.108 397.241 59.988 396.701 59.748C396.173 59.508 395.765 59.178 395.477 58.758C395.189 58.326 395.045 57.84 395.045 57.3C395.045 56.784 395.165 56.316 395.405 55.896C395.657 55.476 396.059 55.14 396.611 54.888C397.175 54.636 397.931 54.51 398.879 54.51H401.903V55.752H398.951C398.087 55.752 397.505 55.896 397.205 56.184C396.905 56.472 396.755 56.82 396.755 57.228C396.755 57.696 396.941 58.074 397.313 58.362C397.685 58.638 398.201 58.776 398.861 58.776C399.509 58.776 400.073 58.632 400.553 58.344C401.045 58.056 401.399 57.636 401.615 57.084L401.957 58.272C401.729 58.836 401.327 59.286 400.751 59.622C400.175 59.946 399.449 60.108 398.573 60.108ZM411.634 50.37C412.414 50.37 413.098 50.52 413.686 50.82C414.286 51.12 414.754 51.576 415.09 52.188C415.426 52.8 415.594 53.574 415.594 54.51V60H413.866V54.708C413.866 53.784 413.638 53.088 413.182 52.62C412.738 52.152 412.108 51.918 411.292 51.918C410.68 51.918 410.146 52.038 409.69 52.278C409.234 52.518 408.88 52.872 408.628 53.34C408.388 53.808 408.268 54.39 408.268 55.086V60H406.54V50.46H408.196V53.034L407.926 52.35C408.238 51.726 408.718 51.24 409.366 50.892C410.014 50.544 410.77 50.37 411.634 50.37ZM422.068 60.108C421.108 60.108 420.364 59.85 419.836 59.334C419.308 58.818 419.044 58.08 419.044 57.12V48.372H420.772V57.048C420.772 57.564 420.898 57.96 421.15 58.236C421.414 58.512 421.786 58.65 422.266 58.65C422.806 58.65 423.256 58.5 423.616 58.2L424.156 59.442C423.892 59.67 423.574 59.838 423.202 59.946C422.842 60.054 422.464 60.108 422.068 60.108ZM417.424 51.882V50.46H423.508V51.882H417.424ZM430.177 60.108C429.157 60.108 428.257 59.898 427.477 59.478C426.709 59.058 426.109 58.482 425.677 57.75C425.257 57.018 425.047 56.178 425.047 55.23C425.047 54.282 425.251 53.442 425.659 52.71C426.079 51.978 426.649 51.408 427.369 51C428.101 50.58 428.923 50.37 429.835 50.37C430.759 50.37 431.575 50.574 432.283 50.982C432.991 51.39 433.543 51.966 433.939 52.71C434.347 53.442 434.551 54.3 434.551 55.284C434.551 55.356 434.545 55.44 434.533 55.536C434.533 55.632 434.527 55.722 434.515 55.806H426.397V54.564H433.615L432.913 54.996C432.925 54.384 432.799 53.838 432.535 53.358C432.271 52.878 431.905 52.506 431.437 52.242C430.981 51.966 430.447 51.828 429.835 51.828C429.235 51.828 428.701 51.966 428.233 52.242C427.765 52.506 427.399 52.884 427.135 53.376C426.871 53.856 426.739 54.408 426.739 55.032V55.32C426.739 55.956 426.883 56.526 427.171 57.03C427.471 57.522 427.885 57.906 428.413 58.182C428.941 58.458 429.547 58.596 430.231 58.596C430.795 58.596 431.305 58.5 431.761 58.308C432.229 58.116 432.637 57.828 432.985 57.444L433.939 58.56C433.507 59.064 432.967 59.448 432.319 59.712C431.683 59.976 430.969 60.108 430.177 60.108ZM440.893 60.108C439.969 60.108 439.141 59.904 438.409 59.496C437.689 59.088 437.119 58.518 436.699 57.786C436.279 57.054 436.069 56.202 436.069 55.23C436.069 54.258 436.279 53.412 436.699 52.692C437.119 51.96 437.689 51.39 438.409 50.982C439.141 50.574 439.969 50.37 440.893 50.37C441.697 50.37 442.423 50.55 443.071 50.91C443.719 51.27 444.235 51.81 444.619 52.53C445.015 53.25 445.213 54.15 445.213 55.23C445.213 56.31 445.021 57.21 444.637 57.93C444.265 58.65 443.755 59.196 443.107 59.568C442.459 59.928 441.721 60.108 440.893 60.108ZM441.037 58.596C441.637 58.596 442.177 58.458 442.657 58.182C443.149 57.906 443.533 57.516 443.809 57.012C444.097 56.496 444.241 55.902 444.241 55.23C444.241 54.546 444.097 53.958 443.809 53.466C443.533 52.962 443.149 52.572 442.657 52.296C442.177 52.02 441.637 51.882 441.037 51.882C440.425 51.882 439.879 52.02 439.399 52.296C438.919 52.572 438.535 52.962 438.247 53.466C437.959 53.958 437.815 54.546 437.815 55.23C437.815 55.902 437.959 56.496 438.247 57.012C438.535 57.516 438.919 57.906 439.399 58.182C439.879 58.458 440.425 58.596 441.037 58.596ZM444.295 60V57.426L444.402 55.212L444.223 52.998V46.644H445.951V60H444.295ZM449.634 60.108C449.298 60.108 449.01 59.994 448.77 59.766C448.53 59.526 448.41 59.226 448.41 58.866C448.41 58.506 448.53 58.212 448.77 57.984C449.01 57.756 449.298 57.642 449.634 57.642C449.958 57.642 450.234 57.756 450.462 57.984C450.702 58.212 450.822 58.506 450.822 58.866C450.822 59.226 450.702 59.526 450.462 59.766C450.234 59.994 449.958 60.108 449.634 60.108Z" fill="#414141"/>
<path d="M27 37.3788V58.0691C27 59.2712 27.6763 60.4066 28.8079 60.8274C34.6335 62.9979 40.4591 61.5153 46.2847 60.0326C51.6282 58.6768 56.9717 57.3144 62.3084 58.7703C63.8485 59.1911 65.5694 58.1359 65.5694 56.5397V35.8427C65.5694 34.6406 64.8931 33.5052 63.7615 33.0844C57.9359 30.9272 52.1103 32.4099 46.2847 33.8925C40.9412 35.2483 35.5978 36.6041 30.261 35.1481C28.7142 34.7274 27 35.7826 27 37.3788ZM35.571 57.6483H31.2855V53.374C33.6492 53.374 35.571 55.2908 35.571 57.6483ZM31.2855 44.8254V40.5511H35.571C35.571 42.9087 33.6492 44.8254 31.2855 44.8254ZM56.9985 53.374C56.9985 51.0165 58.9202 49.0997 61.2839 49.0997V53.374H56.9985ZM61.2839 40.5511C58.9202 40.5511 56.9985 38.6344 56.9985 36.2768H61.2839V40.5511ZM52.713 46.9626C52.713 51.0966 49.8336 54.4426 46.2847 54.4426C42.7358 54.4426 39.8565 51.0966 39.8565 46.9626C39.8565 42.8285 42.7358 39.4825 46.2847 39.4825C49.8336 39.4825 52.713 42.8285 52.713 46.9626ZM43.8741 43.7568C43.8741 44.4047 44.3362 44.939 44.9455 45.0659V48.2983H44.6777C43.9411 48.2983 43.3384 48.8994 43.3384 49.634C43.3384 50.3687 43.9411 50.9697 44.6777 50.9697H46.2847H47.8918C48.6283 50.9697 49.231 50.3687 49.231 49.634C49.231 48.8994 48.6283 48.2983 47.8918 48.2983H47.6239V43.7568C47.6239 43.0222 47.0213 42.4211 46.2847 42.4211H45.2133C44.4768 42.4211 43.8741 43.0222 43.8741 43.7568Z" fill="#810019"/>
<defs>
<filter id="filter0_d_16986_1513" x="0" y="0" width="465" height="98" filterUnits="userSpaceOnUse" color-interpolation-filters="sRGB">
<feFlood flood-opacity="0" result="BackgroundImageFix"/>
<feColorMatrix in="SourceAlpha" type="matrix" values="0 0 0 0 0 0 0 0 0 0 0 0 0 0 0 0 0 0 127 0" result="hardAlpha"/>
<feOffset dy="1"/>
<feGaussianBlur stdDeviation="2"/>
<feComposite in2="hardAlpha" operator="out"/>
<feColorMatrix type="matrix" values="0 0 0 0 0 0 0 0 0 0 0 0 0 0 0 0 0 0 0.25 0"/>
<feBlend mode="normal" in2="BackgroundImageFix" result="effect1_dropShadow_16986_1513"/>
<feBlend mode="normal" in="SourceGraphic" in2="effect1_dropShadow_16986_1513" result="shape"/>
</filter>
</defs>
</svg>
