<svg width="600" height="235" viewBox="0 0 600 235" fill="none" xmlns="http://www.w3.org/2000/svg">
<g filter="url(#filter0_d_17042_8469)">
<circle cx="290" cy="142" r="74.5" fill="white" stroke="#810019" stroke-width="3"/>
<path d="M229.692 148V135.4H234.876C235.992 135.4 236.946 135.58 237.738 135.94C238.542 136.3 239.16 136.816 239.592 137.488C240.024 138.16 240.24 138.958 240.24 139.882C240.24 140.806 240.024 141.604 239.592 142.276C239.16 142.948 238.542 143.464 237.738 143.824C236.946 144.184 235.992 144.364 234.876 144.364H230.988L232.032 143.266V148H229.692ZM232.032 143.518L230.988 142.384H234.768C235.8 142.384 236.574 142.168 237.09 141.736C237.618 141.292 237.882 140.674 237.882 139.882C237.882 139.078 237.618 138.46 237.09 138.028C236.574 137.596 235.8 137.38 234.768 137.38H230.988L232.032 136.228V143.518ZM242.273 148V138.388H244.415V141.034L244.163 140.26C244.451 139.612 244.901 139.12 245.513 138.784C246.137 138.448 246.911 138.28 247.835 138.28V140.422C247.739 140.398 247.649 140.386 247.565 140.386C247.481 140.374 247.397 140.368 247.313 140.368C246.461 140.368 245.783 140.62 245.279 141.124C244.775 141.616 244.523 142.354 244.523 143.338V148H242.273ZM253.976 148.126C252.992 148.126 252.116 147.916 251.348 147.496C250.58 147.064 249.974 146.476 249.53 145.732C249.086 144.988 248.864 144.142 248.864 143.194C248.864 142.234 249.086 141.388 249.53 140.656C249.974 139.912 250.58 139.33 251.348 138.91C252.116 138.49 252.992 138.28 253.976 138.28C254.972 138.28 255.854 138.49 256.622 138.91C257.402 139.33 258.008 139.906 258.44 140.638C258.884 141.37 259.106 142.222 259.106 143.194C259.106 144.142 258.884 144.988 258.44 145.732C258.008 146.476 257.402 147.064 256.622 147.496C255.854 147.916 254.972 148.126 253.976 148.126ZM253.976 146.2C254.528 146.2 255.02 146.08 255.452 145.84C255.884 145.6 256.22 145.252 256.46 144.796C256.712 144.34 256.838 143.806 256.838 143.194C256.838 142.57 256.712 142.036 256.46 141.592C256.22 141.136 255.884 140.788 255.452 140.548C255.02 140.308 254.534 140.188 253.994 140.188C253.442 140.188 252.95 140.308 252.518 140.548C252.098 140.788 251.762 141.136 251.51 141.592C251.258 142.036 251.132 142.57 251.132 143.194C251.132 143.806 251.258 144.34 251.51 144.796C251.762 145.252 252.098 145.6 252.518 145.84C252.95 146.08 253.436 146.2 253.976 146.2ZM265.667 148.126C264.659 148.126 263.759 147.916 262.967 147.496C262.187 147.064 261.575 146.476 261.131 145.732C260.687 144.988 260.465 144.142 260.465 143.194C260.465 142.234 260.687 141.388 261.131 140.656C261.575 139.912 262.187 139.33 262.967 138.91C263.759 138.49 264.659 138.28 265.667 138.28C266.603 138.28 267.425 138.472 268.133 138.856C268.853 139.228 269.399 139.78 269.771 140.512L268.043 141.52C267.755 141.064 267.401 140.728 266.981 140.512C266.573 140.296 266.129 140.188 265.649 140.188C265.097 140.188 264.599 140.308 264.155 140.548C263.711 140.788 263.363 141.136 263.111 141.592C262.859 142.036 262.733 142.57 262.733 143.194C262.733 143.818 262.859 144.358 263.111 144.814C263.363 145.258 263.711 145.6 264.155 145.84C264.599 146.08 265.097 146.2 265.649 146.2C266.129 146.2 266.573 146.092 266.981 145.876C267.401 145.66 267.755 145.324 268.043 144.868L269.771 145.876C269.399 146.596 268.853 147.154 268.133 147.55C267.425 147.934 266.603 148.126 265.667 148.126ZM275.784 148.126C274.968 148.126 274.248 147.976 273.624 147.676C273 147.364 272.514 146.896 272.166 146.272C271.818 145.636 271.644 144.838 271.644 143.878V138.388H273.894V143.572C273.894 144.436 274.086 145.084 274.47 145.516C274.866 145.936 275.424 146.146 276.144 146.146C276.672 146.146 277.128 146.038 277.512 145.822C277.908 145.606 278.214 145.282 278.43 144.85C278.658 144.418 278.772 143.884 278.772 143.248V138.388H281.022V148H278.88V145.408L279.258 146.2C278.934 146.824 278.46 147.304 277.836 147.64C277.212 147.964 276.528 148.126 275.784 148.126ZM283.968 148V138.388H286.11V141.034L285.858 140.26C286.146 139.612 286.596 139.12 287.208 138.784C287.832 138.448 288.606 138.28 289.53 138.28V140.422C289.434 140.398 289.344 140.386 289.26 140.386C289.176 140.374 289.092 140.368 289.008 140.368C288.156 140.368 287.478 140.62 286.974 141.124C286.47 141.616 286.218 142.354 286.218 143.338V148H283.968ZM295.869 148.126C294.801 148.126 293.865 147.916 293.061 147.496C292.269 147.064 291.651 146.476 291.207 145.732C290.775 144.988 290.559 144.142 290.559 143.194C290.559 142.234 290.769 141.388 291.189 140.656C291.621 139.912 292.209 139.33 292.953 138.91C293.709 138.49 294.567 138.28 295.527 138.28C296.463 138.28 297.297 138.484 298.029 138.892C298.761 139.3 299.337 139.876 299.757 140.62C300.177 141.364 300.387 142.24 300.387 143.248C300.387 143.344 300.381 143.452 300.369 143.572C300.369 143.692 300.363 143.806 300.351 143.914H292.341V142.42H299.163L298.281 142.888C298.293 142.336 298.179 141.85 297.939 141.43C297.699 141.01 297.369 140.68 296.949 140.44C296.541 140.2 296.067 140.08 295.527 140.08C294.975 140.08 294.489 140.2 294.069 140.44C293.661 140.68 293.337 141.016 293.097 141.448C292.869 141.868 292.755 142.366 292.755 142.942V143.302C292.755 143.878 292.887 144.388 293.151 144.832C293.415 145.276 293.787 145.618 294.267 145.858C294.747 146.098 295.299 146.218 295.923 146.218C296.463 146.218 296.949 146.134 297.381 145.966C297.813 145.798 298.197 145.534 298.533 145.174L299.739 146.56C299.307 147.064 298.761 147.454 298.101 147.73C297.453 147.994 296.709 148.126 295.869 148.126ZM314.68 138.28C315.448 138.28 316.126 138.43 316.714 138.73C317.314 139.03 317.782 139.492 318.118 140.116C318.454 140.728 318.622 141.52 318.622 142.492V148H316.372V142.78C316.372 141.928 316.186 141.292 315.814 140.872C315.442 140.452 314.908 140.242 314.212 140.242C313.72 140.242 313.282 140.35 312.898 140.566C312.526 140.782 312.232 141.1 312.016 141.52C311.812 141.94 311.71 142.474 311.71 143.122V148H309.46V142.78C309.46 141.928 309.274 141.292 308.902 140.872C308.53 140.452 307.996 140.242 307.3 140.242C306.808 140.242 306.37 140.35 305.986 140.566C305.614 140.782 305.32 141.1 305.104 141.52C304.9 141.94 304.798 142.474 304.798 143.122V148H302.548V138.388H304.69V140.944L304.312 140.188C304.636 139.564 305.104 139.09 305.716 138.766C306.34 138.442 307.048 138.28 307.84 138.28C308.74 138.28 309.52 138.502 310.18 138.946C310.852 139.39 311.296 140.062 311.512 140.962L310.63 140.656C310.942 139.936 311.458 139.36 312.178 138.928C312.898 138.496 313.732 138.28 314.68 138.28ZM326.033 148.126C324.965 148.126 324.029 147.916 323.225 147.496C322.433 147.064 321.815 146.476 321.371 145.732C320.939 144.988 320.723 144.142 320.723 143.194C320.723 142.234 320.933 141.388 321.353 140.656C321.785 139.912 322.373 139.33 323.117 138.91C323.873 138.49 324.731 138.28 325.691 138.28C326.627 138.28 327.461 138.484 328.193 138.892C328.925 139.3 329.501 139.876 329.921 140.62C330.341 141.364 330.551 142.24 330.551 143.248C330.551 143.344 330.545 143.452 330.533 143.572C330.533 143.692 330.527 143.806 330.515 143.914H322.505V142.42H329.327L328.445 142.888C328.457 142.336 328.343 141.85 328.103 141.43C327.863 141.01 327.533 140.68 327.113 140.44C326.705 140.2 326.231 140.08 325.691 140.08C325.139 140.08 324.653 140.2 324.233 140.44C323.825 140.68 323.501 141.016 323.261 141.448C323.033 141.868 322.919 142.366 322.919 142.942V143.302C322.919 143.878 323.051 144.388 323.315 144.832C323.579 145.276 323.951 145.618 324.431 145.858C324.911 146.098 325.463 146.218 326.087 146.218C326.627 146.218 327.113 146.134 327.545 145.966C327.977 145.798 328.361 145.534 328.697 145.174L329.903 146.56C329.471 147.064 328.925 147.454 328.265 147.73C327.617 147.994 326.873 148.126 326.033 148.126ZM338.166 138.28C338.934 138.28 339.618 138.43 340.218 138.73C340.83 139.03 341.31 139.492 341.658 140.116C342.006 140.728 342.18 141.52 342.18 142.492V148H339.93V142.78C339.93 141.928 339.726 141.292 339.318 140.872C338.922 140.452 338.364 140.242 337.644 140.242C337.116 140.242 336.648 140.35 336.24 140.566C335.832 140.782 335.514 141.106 335.286 141.538C335.07 141.958 334.962 142.492 334.962 143.14V148H332.712V138.388H334.854V140.98L334.476 140.188C334.812 139.576 335.298 139.108 335.934 138.784C336.582 138.448 337.326 138.28 338.166 138.28ZM348.653 148.126C347.597 148.126 346.781 147.856 346.205 147.316C345.629 146.764 345.341 145.954 345.341 144.886V136.264H347.591V144.832C347.591 145.288 347.705 145.642 347.933 145.894C348.173 146.146 348.503 146.272 348.923 146.272C349.427 146.272 349.847 146.14 350.183 145.876L350.813 147.478C350.549 147.694 350.225 147.856 349.841 147.964C349.457 148.072 349.061 148.126 348.653 148.126ZM343.757 140.26V138.46H350.165V140.26H343.757Z" fill="#414141"/>
<line x1="340.725" y1="87.5826" x2="434.725" y2="25.5826" stroke="#810019" stroke-dasharray="2 2"/>
<g opacity="0.7" filter="url(#filter1_b_17042_8469)">
<path d="M437 25C437 16.7157 443.716 10 452 10H558V41H452C443.716 41 437 34.2843 437 26V25Z" fill="#FFCCCC"/>
<path d="M437.5 25C437.5 16.9919 443.992 10.5 452 10.5H557.5V40.5H452C443.992 40.5 437.5 34.0081 437.5 26V25Z" stroke="#810019"/>
</g>
<circle cx="437" cy="26" r="5.5" fill="#810019" stroke="#FFCCCC"/>
<circle cx="573.5" cy="25.5" r="22" fill="#FFCCCC" stroke="white"/>
<path d="M455.928 30V22.644H453.048V21.6H459.996V22.644H457.116V30H455.928ZM460.983 30V23.64H462.087V25.368L461.979 24.936C462.155 24.496 462.451 24.16 462.867 23.928C463.283 23.696 463.795 23.58 464.403 23.58V24.696C464.355 24.688 464.307 24.684 464.259 24.684C464.219 24.684 464.179 24.684 464.139 24.684C463.523 24.684 463.035 24.868 462.675 25.236C462.315 25.604 462.135 26.136 462.135 26.832V30H460.983ZM469.302 30V28.656L469.242 28.404V26.112C469.242 25.624 469.098 25.248 468.81 24.984C468.53 24.712 468.106 24.576 467.538 24.576C467.162 24.576 466.794 24.64 466.434 24.768C466.074 24.888 465.77 25.052 465.522 25.26L465.042 24.396C465.37 24.132 465.762 23.932 466.218 23.796C466.682 23.652 467.166 23.58 467.67 23.58C468.542 23.58 469.214 23.792 469.686 24.216C470.158 24.64 470.394 25.288 470.394 26.16V30H469.302ZM467.214 30.072C466.742 30.072 466.326 29.992 465.966 29.832C465.614 29.672 465.342 29.452 465.15 29.172C464.958 28.884 464.862 28.56 464.862 28.2C464.862 27.856 464.942 27.544 465.102 27.264C465.27 26.984 465.538 26.76 465.906 26.592C466.282 26.424 466.786 26.34 467.418 26.34H469.434V27.168H467.466C466.89 27.168 466.502 27.264 466.302 27.456C466.102 27.648 466.002 27.88 466.002 28.152C466.002 28.464 466.126 28.716 466.374 28.908C466.622 29.092 466.966 29.184 467.406 29.184C467.838 29.184 468.214 29.088 468.534 28.896C468.862 28.704 469.098 28.424 469.242 28.056L469.47 28.848C469.318 29.224 469.05 29.524 468.666 29.748C468.282 29.964 467.798 30.072 467.214 30.072ZM475.922 23.58C476.442 23.58 476.898 23.68 477.29 23.88C477.69 24.08 478.002 24.384 478.226 24.792C478.45 25.2 478.562 25.716 478.562 26.34V30H477.41V26.472C477.41 25.856 477.258 25.392 476.954 25.08C476.658 24.768 476.238 24.612 475.694 24.612C475.286 24.612 474.93 24.692 474.626 24.852C474.322 25.012 474.086 25.248 473.918 25.56C473.758 25.872 473.678 26.26 473.678 26.724V30H472.526V23.64H473.63V25.356L473.45 24.9C473.658 24.484 473.978 24.16 474.41 23.928C474.842 23.696 475.346 23.58 475.922 23.58ZM482.518 30.072C481.99 30.072 481.486 30 481.006 29.856C480.534 29.712 480.162 29.536 479.89 29.328L480.37 28.416C480.642 28.6 480.978 28.756 481.378 28.884C481.778 29.012 482.186 29.076 482.602 29.076C483.138 29.076 483.522 29 483.754 28.848C483.994 28.696 484.114 28.484 484.114 28.212C484.114 28.012 484.042 27.856 483.898 27.744C483.754 27.632 483.562 27.548 483.322 27.492C483.09 27.436 482.83 27.388 482.542 27.348C482.254 27.3 481.966 27.244 481.678 27.18C481.39 27.108 481.126 27.012 480.886 26.892C480.646 26.764 480.454 26.592 480.31 26.376C480.166 26.152 480.094 25.856 480.094 25.488C480.094 25.104 480.202 24.768 480.418 24.48C480.634 24.192 480.938 23.972 481.33 23.82C481.73 23.66 482.202 23.58 482.746 23.58C483.162 23.58 483.582 23.632 484.006 23.736C484.438 23.832 484.79 23.972 485.062 24.156L484.57 25.068C484.282 24.876 483.982 24.744 483.67 24.672C483.358 24.6 483.046 24.564 482.734 24.564C482.23 24.564 481.854 24.648 481.606 24.816C481.358 24.976 481.234 25.184 481.234 25.44C481.234 25.656 481.306 25.824 481.45 25.944C481.602 26.056 481.794 26.144 482.026 26.208C482.266 26.272 482.53 26.328 482.818 26.376C483.106 26.416 483.394 26.472 483.682 26.544C483.97 26.608 484.23 26.7 484.462 26.82C484.702 26.94 484.894 27.108 485.038 27.324C485.19 27.54 485.266 27.828 485.266 28.188C485.266 28.572 485.154 28.904 484.93 29.184C484.706 29.464 484.39 29.684 483.982 29.844C483.574 29.996 483.086 30.072 482.518 30.072ZM490.077 30.072C489.549 30.072 489.065 29.952 488.625 29.712C488.193 29.464 487.845 29.1 487.581 28.62C487.325 28.14 487.197 27.54 487.197 26.82C487.197 26.1 487.321 25.5 487.569 25.02C487.825 24.54 488.169 24.18 488.601 23.94C489.041 23.7 489.533 23.58 490.077 23.58C490.701 23.58 491.253 23.716 491.733 23.988C492.213 24.26 492.593 24.64 492.873 25.128C493.153 25.608 493.293 26.172 493.293 26.82C493.293 27.468 493.153 28.036 492.873 28.524C492.593 29.012 492.213 29.392 491.733 29.664C491.253 29.936 490.701 30.072 490.077 30.072ZM486.705 32.328V23.64H487.809V25.356L487.737 26.832L487.857 28.308V32.328H486.705ZM489.981 29.064C490.389 29.064 490.753 28.972 491.073 28.788C491.401 28.604 491.657 28.344 491.841 28.008C492.033 27.664 492.129 27.268 492.129 26.82C492.129 26.364 492.033 25.972 491.841 25.644C491.657 25.308 491.401 25.048 491.073 24.864C490.753 24.68 490.389 24.588 489.981 24.588C489.581 24.588 489.217 24.68 488.889 24.864C488.569 25.048 488.313 25.308 488.121 25.644C487.937 25.972 487.845 26.364 487.845 26.82C487.845 27.268 487.937 27.664 488.121 28.008C488.313 28.344 488.569 28.604 488.889 28.788C489.217 28.972 489.581 29.064 489.981 29.064ZM497.609 30.072C496.969 30.072 496.401 29.932 495.905 29.652C495.409 29.372 495.017 28.988 494.729 28.5C494.441 28.004 494.297 27.444 494.297 26.82C494.297 26.188 494.441 25.628 494.729 25.14C495.017 24.652 495.409 24.272 495.905 24C496.401 23.72 496.969 23.58 497.609 23.58C498.241 23.58 498.805 23.72 499.301 24C499.805 24.272 500.197 24.652 500.477 25.14C500.765 25.62 500.909 26.18 500.909 26.82C500.909 27.452 500.765 28.012 500.477 28.5C500.197 28.988 499.805 29.372 499.301 29.652C498.805 29.932 498.241 30.072 497.609 30.072ZM497.609 29.064C498.017 29.064 498.381 28.972 498.701 28.788C499.029 28.604 499.285 28.344 499.469 28.008C499.653 27.664 499.745 27.268 499.745 26.82C499.745 26.364 499.653 25.972 499.469 25.644C499.285 25.308 499.029 25.048 498.701 24.864C498.381 24.68 498.017 24.588 497.609 24.588C497.201 24.588 496.837 24.68 496.517 24.864C496.197 25.048 495.941 25.308 495.749 25.644C495.557 25.972 495.461 26.364 495.461 26.82C495.461 27.268 495.557 27.664 495.749 28.008C495.941 28.344 496.197 28.604 496.517 28.788C496.837 28.972 497.201 29.064 497.609 29.064ZM502.502 30V23.64H503.606V25.368L503.498 24.936C503.674 24.496 503.97 24.16 504.386 23.928C504.802 23.696 505.314 23.58 505.922 23.58V24.696C505.874 24.688 505.826 24.684 505.778 24.684C505.738 24.684 505.698 24.684 505.658 24.684C505.042 24.684 504.554 24.868 504.194 25.236C503.834 25.604 503.654 26.136 503.654 26.832V30H502.502ZM509.784 30.072C509.144 30.072 508.648 29.9 508.296 29.556C507.944 29.212 507.768 28.72 507.768 28.08V22.248H508.92V28.032C508.92 28.376 509.004 28.64 509.172 28.824C509.348 29.008 509.596 29.1 509.916 29.1C510.276 29.1 510.576 29 510.816 28.8L511.176 29.628C511 29.78 510.788 29.892 510.54 29.964C510.3 30.036 510.048 30.072 509.784 30.072ZM506.688 24.588V23.64H510.744V24.588H506.688ZM516.517 30V28.656L516.457 28.404V26.112C516.457 25.624 516.313 25.248 516.025 24.984C515.745 24.712 515.321 24.576 514.753 24.576C514.377 24.576 514.009 24.64 513.649 24.768C513.289 24.888 512.985 25.052 512.737 25.26L512.257 24.396C512.585 24.132 512.977 23.932 513.433 23.796C513.897 23.652 514.381 23.58 514.885 23.58C515.757 23.58 516.429 23.792 516.901 24.216C517.373 24.64 517.609 25.288 517.609 26.16V30H516.517ZM514.429 30.072C513.957 30.072 513.541 29.992 513.181 29.832C512.829 29.672 512.557 29.452 512.365 29.172C512.173 28.884 512.077 28.56 512.077 28.2C512.077 27.856 512.157 27.544 512.317 27.264C512.485 26.984 512.753 26.76 513.121 26.592C513.497 26.424 514.001 26.34 514.633 26.34H516.649V27.168H514.681C514.105 27.168 513.717 27.264 513.517 27.456C513.317 27.648 513.217 27.88 513.217 28.152C513.217 28.464 513.341 28.716 513.589 28.908C513.837 29.092 514.181 29.184 514.621 29.184C515.053 29.184 515.429 29.088 515.749 28.896C516.077 28.704 516.313 28.424 516.457 28.056L516.685 28.848C516.533 29.224 516.265 29.524 515.881 29.748C515.497 29.964 515.013 30.072 514.429 30.072ZM521.924 30.072C521.284 30.072 520.788 29.9 520.436 29.556C520.084 29.212 519.908 28.72 519.908 28.08V22.248H521.06V28.032C521.06 28.376 521.144 28.64 521.312 28.824C521.488 29.008 521.736 29.1 522.056 29.1C522.416 29.1 522.716 29 522.956 28.8L523.316 29.628C523.14 29.78 522.928 29.892 522.68 29.964C522.44 30.036 522.188 30.072 521.924 30.072ZM518.828 24.588V23.64H522.884V24.588H518.828ZM524.709 30V23.64H525.861V30H524.709ZM525.285 22.416C525.061 22.416 524.873 22.344 524.721 22.2C524.577 22.056 524.505 21.88 524.505 21.672C524.505 21.456 524.577 21.276 524.721 21.132C524.873 20.988 525.061 20.916 525.285 20.916C525.509 20.916 525.693 20.988 525.837 21.132C525.989 21.268 526.065 21.44 526.065 21.648C526.065 21.864 525.993 22.048 525.849 22.2C525.705 22.344 525.517 22.416 525.285 22.416ZM530.785 30.072C530.145 30.072 529.577 29.932 529.081 29.652C528.585 29.372 528.193 28.988 527.905 28.5C527.617 28.004 527.473 27.444 527.473 26.82C527.473 26.188 527.617 25.628 527.905 25.14C528.193 24.652 528.585 24.272 529.081 24C529.577 23.72 530.145 23.58 530.785 23.58C531.417 23.58 531.981 23.72 532.477 24C532.981 24.272 533.373 24.652 533.653 25.14C533.941 25.62 534.085 26.18 534.085 26.82C534.085 27.452 533.941 28.012 533.653 28.5C533.373 28.988 532.981 29.372 532.477 29.652C531.981 29.932 531.417 30.072 530.785 30.072ZM530.785 29.064C531.193 29.064 531.557 28.972 531.877 28.788C532.205 28.604 532.461 28.344 532.645 28.008C532.829 27.664 532.921 27.268 532.921 26.82C532.921 26.364 532.829 25.972 532.645 25.644C532.461 25.308 532.205 25.048 531.877 24.864C531.557 24.68 531.193 24.588 530.785 24.588C530.377 24.588 530.013 24.68 529.693 24.864C529.373 25.048 529.117 25.308 528.925 25.644C528.733 25.972 528.637 26.364 528.637 26.82C528.637 27.268 528.733 27.664 528.925 28.008C529.117 28.344 529.373 28.604 529.693 28.788C530.013 28.972 530.377 29.064 530.785 29.064ZM539.074 23.58C539.594 23.58 540.05 23.68 540.442 23.88C540.842 24.08 541.154 24.384 541.378 24.792C541.602 25.2 541.714 25.716 541.714 26.34V30H540.562V26.472C540.562 25.856 540.41 25.392 540.106 25.08C539.81 24.768 539.39 24.612 538.846 24.612C538.438 24.612 538.082 24.692 537.778 24.852C537.474 25.012 537.238 25.248 537.07 25.56C536.91 25.872 536.83 26.26 536.83 26.724V30H535.678V23.64H536.782V25.356L536.602 24.9C536.81 24.484 537.13 24.16 537.562 23.928C537.994 23.696 538.498 23.58 539.074 23.58Z" fill="#414141"/>
<path d="M563.5 14.9495C562.121 14.9495 561 16.0676 561 17.4429V25.5467V28.6636V29.2869C561 31.009 562.398 32.4038 564.125 32.4038C565.148 32.4038 566.055 31.9129 566.625 31.157C567.195 31.9129 568.102 32.4038 569.125 32.4038C570.852 32.4038 572.25 31.009 572.25 29.2869C572.25 29.0727 572.227 28.8662 572.188 28.6636H577.25H578.562C578.523 28.8662 578.5 29.0727 578.5 29.2869C578.5 31.009 579.898 32.4038 581.625 32.4038C583.352 32.4038 584.75 31.009 584.75 29.2869C584.75 29.0727 584.727 28.8662 584.688 28.6636H584.75C585.441 28.6636 586 28.1064 586 27.4168V24.9234V24.3V23.8987C586 23.5403 585.875 23.1896 585.648 22.913L583.352 20.1156C582.938 19.6091 582.316 19.3169 581.66 19.3169L579.75 19.313V17.4429C579.75 16.0676 578.629 14.9495 577.25 14.9495H563.5ZM583.852 23.6766H579.75V21.1831H581.656C581.75 21.1831 581.84 21.226 581.898 21.2961L583.852 23.6766ZM581.625 28.0402C581.957 28.0402 582.274 28.1716 582.509 28.4054C582.743 28.6392 582.875 28.9563 582.875 29.2869C582.875 29.6176 582.743 29.9347 582.509 30.1685C582.274 30.4023 581.957 30.5337 581.625 30.5337C581.293 30.5337 580.976 30.4023 580.741 30.1685C580.507 29.9347 580.375 29.6176 580.375 29.2869C580.375 28.9563 580.507 28.6392 580.741 28.4054C580.976 28.1716 581.293 28.0402 581.625 28.0402ZM567.875 29.2869C567.875 28.9563 568.007 28.6392 568.241 28.4054C568.476 28.1716 568.793 28.0402 569.125 28.0402C569.457 28.0402 569.774 28.1716 570.009 28.4054C570.243 28.6392 570.375 28.9563 570.375 29.2869C570.375 29.6176 570.243 29.9347 570.009 30.1685C569.774 30.4023 569.457 30.5337 569.125 30.5337C568.793 30.5337 568.476 30.4023 568.241 30.1685C568.007 29.9347 567.875 29.6176 567.875 29.2869ZM564.125 28.0402C564.457 28.0402 564.774 28.1716 565.009 28.4054C565.243 28.6392 565.375 28.9563 565.375 29.2869C565.375 29.6176 565.243 29.9347 565.009 30.1685C564.774 30.4023 564.457 30.5337 564.125 30.5337C563.793 30.5337 563.476 30.4023 563.241 30.1685C563.007 29.9347 562.875 29.6176 562.875 29.2869C562.875 28.9563 563.007 28.6392 563.241 28.4054C563.476 28.1716 563.793 28.0402 564.125 28.0402Z" fill="#810019"/>
<g opacity="0.7" filter="url(#filter2_b_17042_8469)">
<path d="M40 182H134C142.284 182 149 188.716 149 197V198C149 206.284 142.284 213 134 213H40V182Z" fill="#FFCCCC"/>
<path d="M40.5 182.5H134C142.008 182.5 148.5 188.992 148.5 197V198C148.5 206.008 142.008 212.5 134 212.5H40.5V182.5Z" stroke="#810019"/>
</g>
<circle cx="26.5" cy="198.5" r="22" fill="#FFCCCC" stroke="white"/>
<path d="M57.192 203L54.384 194.6H55.62L58.2 202.352H57.576L60.252 194.6H61.356L63.972 202.352H63.372L65.988 194.6H67.128L64.32 203H63.06L60.612 195.812H60.936L58.476 203H57.192ZM71.8955 203V201.656L71.8355 201.404V199.112C71.8355 198.624 71.6915 198.248 71.4035 197.984C71.1235 197.712 70.6995 197.576 70.1315 197.576C69.7555 197.576 69.3875 197.64 69.0275 197.768C68.6675 197.888 68.3635 198.052 68.1155 198.26L67.6355 197.396C67.9635 197.132 68.3555 196.932 68.8115 196.796C69.2755 196.652 69.7595 196.58 70.2635 196.58C71.1355 196.58 71.8075 196.792 72.2795 197.216C72.7515 197.64 72.9875 198.288 72.9875 199.16V203H71.8955ZM69.8075 203.072C69.3355 203.072 68.9195 202.992 68.5595 202.832C68.2075 202.672 67.9355 202.452 67.7435 202.172C67.5515 201.884 67.4555 201.56 67.4555 201.2C67.4555 200.856 67.5355 200.544 67.6955 200.264C67.8635 199.984 68.1315 199.76 68.4995 199.592C68.8755 199.424 69.3795 199.34 70.0115 199.34H72.0275V200.168H70.0595C69.4835 200.168 69.0955 200.264 68.8955 200.456C68.6955 200.648 68.5955 200.88 68.5955 201.152C68.5955 201.464 68.7195 201.716 68.9675 201.908C69.2155 202.092 69.5595 202.184 69.9995 202.184C70.4315 202.184 70.8075 202.088 71.1275 201.896C71.4555 201.704 71.6915 201.424 71.8355 201.056L72.0635 201.848C71.9115 202.224 71.6435 202.524 71.2595 202.748C70.8755 202.964 70.3915 203.072 69.8075 203.072ZM75.1193 203V196.64H76.2233V198.368L76.1153 197.936C76.2913 197.496 76.5873 197.16 77.0033 196.928C77.4193 196.696 77.9313 196.58 78.5393 196.58V197.696C78.4913 197.688 78.4433 197.684 78.3953 197.684C78.3553 197.684 78.3153 197.684 78.2753 197.684C77.6593 197.684 77.1713 197.868 76.8113 198.236C76.4513 198.604 76.2713 199.136 76.2713 199.832V203H75.1193ZM82.7326 203.072C82.0526 203.072 81.4526 202.932 80.9326 202.652C80.4206 202.372 80.0206 201.988 79.7326 201.5C79.4526 201.012 79.3126 200.452 79.3126 199.82C79.3126 199.188 79.4486 198.628 79.7206 198.14C80.0006 197.652 80.3806 197.272 80.8606 197C81.3486 196.72 81.8966 196.58 82.5046 196.58C83.1206 196.58 83.6646 196.716 84.1366 196.988C84.6086 197.26 84.9766 197.644 85.2406 198.14C85.5126 198.628 85.6486 199.2 85.6486 199.856C85.6486 199.904 85.6446 199.96 85.6366 200.024C85.6366 200.088 85.6326 200.148 85.6246 200.204H80.2126V199.376H85.0246L84.5566 199.664C84.5646 199.256 84.4806 198.892 84.3046 198.572C84.1286 198.252 83.8846 198.004 83.5726 197.828C83.2686 197.644 82.9126 197.552 82.5046 197.552C82.1046 197.552 81.7486 197.644 81.4366 197.828C81.1246 198.004 80.8806 198.256 80.7046 198.584C80.5286 198.904 80.4406 199.272 80.4406 199.688V199.88C80.4406 200.304 80.5366 200.684 80.7286 201.02C80.9286 201.348 81.2046 201.604 81.5566 201.788C81.9086 201.972 82.3126 202.064 82.7686 202.064C83.1446 202.064 83.4846 202 83.7886 201.872C84.1006 201.744 84.3726 201.552 84.6046 201.296L85.2406 202.04C84.9526 202.376 84.5926 202.632 84.1606 202.808C83.7366 202.984 83.2606 203.072 82.7326 203.072ZM90.6443 196.58C91.1643 196.58 91.6203 196.68 92.0123 196.88C92.4123 197.08 92.7243 197.384 92.9483 197.792C93.1723 198.2 93.2843 198.716 93.2843 199.34V203H92.1323V199.472C92.1323 198.856 91.9803 198.392 91.6763 198.08C91.3803 197.768 90.9603 197.612 90.4163 197.612C90.0083 197.612 89.6523 197.692 89.3483 197.852C89.0443 198.012 88.8083 198.248 88.6403 198.56C88.4803 198.872 88.4003 199.26 88.4003 199.724V203H87.2483V194.096H88.4003V198.356L88.1723 197.9C88.3803 197.484 88.7003 197.16 89.1323 196.928C89.5643 196.696 90.0683 196.58 90.6443 196.58ZM98.1402 203.072C97.5002 203.072 96.9322 202.932 96.4362 202.652C95.9402 202.372 95.5482 201.988 95.2602 201.5C94.9722 201.004 94.8282 200.444 94.8282 199.82C94.8282 199.188 94.9722 198.628 95.2602 198.14C95.5482 197.652 95.9402 197.272 96.4362 197C96.9322 196.72 97.5002 196.58 98.1402 196.58C98.7722 196.58 99.3362 196.72 99.8322 197C100.336 197.272 100.728 197.652 101.008 198.14C101.296 198.62 101.44 199.18 101.44 199.82C101.44 200.452 101.296 201.012 101.008 201.5C100.728 201.988 100.336 202.372 99.8322 202.652C99.3362 202.932 98.7722 203.072 98.1402 203.072ZM98.1402 202.064C98.5482 202.064 98.9122 201.972 99.2322 201.788C99.5602 201.604 99.8162 201.344 100 201.008C100.184 200.664 100.276 200.268 100.276 199.82C100.276 199.364 100.184 198.972 100 198.644C99.8162 198.308 99.5602 198.048 99.2322 197.864C98.9122 197.68 98.5482 197.588 98.1402 197.588C97.7322 197.588 97.3682 197.68 97.0482 197.864C96.7282 198.048 96.4722 198.308 96.2802 198.644C96.0882 198.972 95.9922 199.364 95.9922 199.82C95.9922 200.268 96.0882 200.664 96.2802 201.008C96.4722 201.344 96.7282 201.604 97.0482 201.788C97.3682 201.972 97.7322 202.064 98.1402 202.064ZM105.709 203.072C105.165 203.072 104.685 202.972 104.269 202.772C103.861 202.572 103.541 202.268 103.309 201.86C103.085 201.444 102.973 200.924 102.973 200.3V196.64H104.125V200.168C104.125 200.792 104.273 201.26 104.569 201.572C104.873 201.884 105.297 202.04 105.841 202.04C106.241 202.04 106.589 201.96 106.885 201.8C107.181 201.632 107.409 201.392 107.569 201.08C107.729 200.76 107.809 200.376 107.809 199.928V196.64H108.961V203H107.869V201.284L108.049 201.74C107.841 202.164 107.529 202.492 107.113 202.724C106.697 202.956 106.229 203.072 105.709 203.072ZM112.979 203.072C112.451 203.072 111.947 203 111.467 202.856C110.995 202.712 110.623 202.536 110.351 202.328L110.831 201.416C111.103 201.6 111.439 201.756 111.839 201.884C112.239 202.012 112.647 202.076 113.062 202.076C113.599 202.076 113.983 202 114.215 201.848C114.455 201.696 114.575 201.484 114.575 201.212C114.575 201.012 114.503 200.856 114.359 200.744C114.215 200.632 114.023 200.548 113.783 200.492C113.551 200.436 113.291 200.388 113.003 200.348C112.715 200.3 112.427 200.244 112.139 200.18C111.851 200.108 111.587 200.012 111.347 199.892C111.107 199.764 110.915 199.592 110.771 199.376C110.627 199.152 110.555 198.856 110.555 198.488C110.555 198.104 110.663 197.768 110.879 197.48C111.095 197.192 111.399 196.972 111.791 196.82C112.191 196.66 112.663 196.58 113.207 196.58C113.623 196.58 114.043 196.632 114.467 196.736C114.899 196.832 115.251 196.972 115.523 197.156L115.031 198.068C114.743 197.876 114.443 197.744 114.131 197.672C113.819 197.6 113.507 197.564 113.195 197.564C112.691 197.564 112.315 197.648 112.067 197.816C111.819 197.976 111.695 198.184 111.695 198.44C111.695 198.656 111.767 198.824 111.911 198.944C112.063 199.056 112.255 199.144 112.487 199.208C112.727 199.272 112.991 199.328 113.279 199.376C113.567 199.416 113.855 199.472 114.143 199.544C114.431 199.608 114.691 199.7 114.923 199.82C115.163 199.94 115.355 200.108 115.499 200.324C115.651 200.54 115.727 200.828 115.727 201.188C115.727 201.572 115.615 201.904 115.391 202.184C115.167 202.464 114.851 202.684 114.443 202.844C114.035 202.996 113.547 203.072 112.979 203.072ZM117.166 203V196.64H118.318V203H117.166ZM117.742 195.416C117.518 195.416 117.33 195.344 117.178 195.2C117.034 195.056 116.962 194.88 116.962 194.672C116.962 194.456 117.034 194.276 117.178 194.132C117.33 193.988 117.518 193.916 117.742 193.916C117.966 193.916 118.15 193.988 118.294 194.132C118.446 194.268 118.522 194.44 118.522 194.648C118.522 194.864 118.45 195.048 118.306 195.2C118.162 195.344 117.974 195.416 117.742 195.416ZM123.914 196.58C124.434 196.58 124.89 196.68 125.282 196.88C125.682 197.08 125.994 197.384 126.218 197.792C126.442 198.2 126.554 198.716 126.554 199.34V203H125.402V199.472C125.402 198.856 125.25 198.392 124.946 198.08C124.65 197.768 124.23 197.612 123.686 197.612C123.278 197.612 122.922 197.692 122.618 197.852C122.314 198.012 122.078 198.248 121.91 198.56C121.75 198.872 121.67 199.26 121.67 199.724V203H120.518V196.64H121.622V198.356L121.442 197.9C121.65 197.484 121.97 197.16 122.402 196.928C122.834 196.696 123.338 196.58 123.914 196.58ZM131.47 205.4C130.886 205.4 130.318 205.316 129.766 205.148C129.222 204.988 128.778 204.756 128.434 204.452L128.986 203.564C129.282 203.82 129.646 204.02 130.078 204.164C130.51 204.316 130.962 204.392 131.434 204.392C132.186 204.392 132.738 204.216 133.09 203.864C133.442 203.512 133.618 202.976 133.618 202.256V200.912L133.738 199.652L133.678 198.38V196.64H134.77V202.136C134.77 203.256 134.49 204.08 133.93 204.608C133.37 205.136 132.55 205.4 131.47 205.4ZM131.326 202.736C130.71 202.736 130.158 202.608 129.67 202.352C129.19 202.088 128.806 201.724 128.518 201.26C128.238 200.796 128.098 200.26 128.098 199.652C128.098 199.036 128.238 198.5 128.518 198.044C128.806 197.58 129.19 197.22 129.67 196.964C130.158 196.708 130.71 196.58 131.326 196.58C131.87 196.58 132.366 196.692 132.814 196.916C133.262 197.132 133.618 197.468 133.882 197.924C134.154 198.38 134.29 198.956 134.29 199.652C134.29 200.34 134.154 200.912 133.882 201.368C133.618 201.824 133.262 202.168 132.814 202.4C132.366 202.624 131.87 202.736 131.326 202.736ZM131.458 201.728C131.882 201.728 132.258 201.64 132.586 201.464C132.914 201.288 133.17 201.044 133.354 200.732C133.546 200.42 133.642 200.06 133.642 199.652C133.642 199.244 133.546 198.884 133.354 198.572C133.17 198.26 132.914 198.02 132.586 197.852C132.258 197.676 131.882 197.588 131.458 197.588C131.034 197.588 130.654 197.676 130.318 197.852C129.99 198.02 129.73 198.26 129.538 198.572C129.354 198.884 129.262 199.244 129.262 199.652C129.262 200.06 129.354 200.42 129.538 200.732C129.73 201.044 129.99 201.288 130.318 201.464C130.654 201.64 131.034 201.728 131.458 201.728Z" fill="#414141"/>
<path d="M14 204.514V192.115C14 191.089 14.6241 190.169 15.5779 189.79L26.0936 185.597C26.3919 185.475 26.7256 185.475 27.0278 185.597L37.5435 189.79C38.4973 190.169 39.1214 191.093 39.1214 192.115V204.514C39.1214 205.035 38.7014 205.453 38.1794 205.453H36.2953C35.7732 205.453 35.3532 205.035 35.3532 204.514V194.178C35.3532 193.485 34.7919 192.925 34.0971 192.925H19.0243C18.3295 192.925 17.7682 193.485 17.7682 194.178V204.514C17.7682 205.035 17.3482 205.453 16.8262 205.453H14.9421C14.42 205.453 14 205.035 14 204.514ZM33.1551 205.453H19.9663C19.4443 205.453 19.0243 205.035 19.0243 204.514V202.321H34.0971V204.514C34.0971 205.035 33.6772 205.453 33.1551 205.453ZM19.0243 201.069V198.563H34.0971V201.069H19.0243ZM19.0243 197.31V194.178H34.0971V197.31H19.0243Z" fill="#810019"/>
<circle cx="149" cy="197" r="5.5" fill="#810019" stroke="#FFCCCC"/>
<g opacity="0.7" filter="url(#filter3_b_17042_8469)">
<path d="M40 32H117C125.284 32 132 38.7157 132 47V48C132 56.2843 125.284 63 117 63H40V32Z" fill="#FFCCCC"/>
<path d="M40.5 32.5H117C125.008 32.5 131.5 38.9919 131.5 47V48C131.5 56.0081 125.008 62.5 117 62.5H40.5V32.5Z" stroke="#810019"/>
</g>
<circle cx="26.5" cy="47.5" r="22" fill="#FFCCCC" stroke="white"/>
<path d="M58.26 52V43.6H59.46V52H58.26ZM65.2028 45.58C65.7228 45.58 66.1788 45.68 66.5708 45.88C66.9708 46.08 67.2828 46.384 67.5068 46.792C67.7308 47.2 67.8428 47.716 67.8428 48.34V52H66.6908V48.472C66.6908 47.856 66.5388 47.392 66.2348 47.08C65.9388 46.768 65.5188 46.612 64.9748 46.612C64.5668 46.612 64.2108 46.692 63.9068 46.852C63.6028 47.012 63.3668 47.248 63.1988 47.56C63.0388 47.872 62.9588 48.26 62.9588 48.724V52H61.8068V45.64H62.9108V47.356L62.7308 46.9C62.9388 46.484 63.2588 46.16 63.6908 45.928C64.1228 45.696 64.6268 45.58 65.2028 45.58ZM71.5256 52L68.7416 45.64H69.9416L72.4136 51.4H71.8376L74.3576 45.64H75.4856L72.7016 52H71.5256ZM79.217 52.072C78.537 52.072 77.937 51.932 77.417 51.652C76.905 51.372 76.505 50.988 76.217 50.5C75.937 50.012 75.797 49.452 75.797 48.82C75.797 48.188 75.933 47.628 76.205 47.14C76.485 46.652 76.865 46.272 77.345 46C77.833 45.72 78.381 45.58 78.989 45.58C79.605 45.58 80.149 45.716 80.621 45.988C81.093 46.26 81.461 46.644 81.725 47.14C81.997 47.628 82.133 48.2 82.133 48.856C82.133 48.904 82.129 48.96 82.121 49.024C82.121 49.088 82.117 49.148 82.109 49.204H76.697V48.376H81.509L81.041 48.664C81.049 48.256 80.965 47.892 80.789 47.572C80.613 47.252 80.369 47.004 80.057 46.828C79.753 46.644 79.397 46.552 78.989 46.552C78.589 46.552 78.233 46.644 77.921 46.828C77.609 47.004 77.365 47.256 77.189 47.584C77.013 47.904 76.925 48.272 76.925 48.688V48.88C76.925 49.304 77.021 49.684 77.213 50.02C77.413 50.348 77.689 50.604 78.041 50.788C78.393 50.972 78.797 51.064 79.253 51.064C79.629 51.064 79.969 51 80.273 50.872C80.585 50.744 80.857 50.552 81.089 50.296L81.725 51.04C81.437 51.376 81.077 51.632 80.645 51.808C80.221 51.984 79.745 52.072 79.217 52.072ZM87.1286 45.58C87.6486 45.58 88.1046 45.68 88.4966 45.88C88.8966 46.08 89.2086 46.384 89.4326 46.792C89.6566 47.2 89.7686 47.716 89.7686 48.34V52H88.6166V48.472C88.6166 47.856 88.4646 47.392 88.1606 47.08C87.8646 46.768 87.4446 46.612 86.9006 46.612C86.4926 46.612 86.1366 46.692 85.8326 46.852C85.5286 47.012 85.2926 47.248 85.1246 47.56C84.9646 47.872 84.8846 48.26 84.8846 48.724V52H83.7326V45.64H84.8366V47.356L84.6566 46.9C84.8646 46.484 85.1846 46.16 85.6166 45.928C86.0486 45.696 86.5526 45.58 87.1286 45.58ZM94.0846 52.072C93.4446 52.072 92.9486 51.9 92.5966 51.556C92.2446 51.212 92.0686 50.72 92.0686 50.08V44.248H93.2206V50.032C93.2206 50.376 93.3046 50.64 93.4726 50.824C93.6486 51.008 93.8966 51.1 94.2166 51.1C94.5766 51.1 94.8766 51 95.1166 50.8L95.4766 51.628C95.3006 51.78 95.0886 51.892 94.8406 51.964C94.6006 52.036 94.3486 52.072 94.0846 52.072ZM90.9886 46.588V45.64H95.0446V46.588H90.9886ZM99.3824 52.072C98.7424 52.072 98.1744 51.932 97.6784 51.652C97.1824 51.372 96.7904 50.988 96.5024 50.5C96.2144 50.004 96.0704 49.444 96.0704 48.82C96.0704 48.188 96.2144 47.628 96.5024 47.14C96.7904 46.652 97.1824 46.272 97.6784 46C98.1744 45.72 98.7424 45.58 99.3824 45.58C100.014 45.58 100.578 45.72 101.074 46C101.578 46.272 101.97 46.652 102.25 47.14C102.538 47.62 102.682 48.18 102.682 48.82C102.682 49.452 102.538 50.012 102.25 50.5C101.97 50.988 101.578 51.372 101.074 51.652C100.578 51.932 100.014 52.072 99.3824 52.072ZM99.3824 51.064C99.7904 51.064 100.154 50.972 100.474 50.788C100.802 50.604 101.058 50.344 101.242 50.008C101.426 49.664 101.518 49.268 101.518 48.82C101.518 48.364 101.426 47.972 101.242 47.644C101.058 47.308 100.802 47.048 100.474 46.864C100.154 46.68 99.7904 46.588 99.3824 46.588C98.9744 46.588 98.6104 46.68 98.2904 46.864C97.9704 47.048 97.7144 47.308 97.5224 47.644C97.3304 47.972 97.2344 48.364 97.2344 48.82C97.2344 49.268 97.3304 49.664 97.5224 50.008C97.7144 50.344 97.9704 50.604 98.2904 50.788C98.6104 50.972 98.9744 51.064 99.3824 51.064ZM104.276 52V45.64H105.38V47.368L105.272 46.936C105.448 46.496 105.744 46.16 106.16 45.928C106.576 45.696 107.088 45.58 107.696 45.58V46.696C107.648 46.688 107.6 46.684 107.552 46.684C107.512 46.684 107.472 46.684 107.432 46.684C106.816 46.684 106.328 46.868 105.968 47.236C105.608 47.604 105.428 48.136 105.428 48.832V52H104.276ZM109.649 54.4C109.345 54.4 109.049 54.348 108.761 54.244C108.473 54.148 108.225 54.004 108.017 53.812L108.509 52.948C108.669 53.1 108.845 53.216 109.037 53.296C109.229 53.376 109.433 53.416 109.649 53.416C109.929 53.416 110.161 53.344 110.345 53.2C110.529 53.056 110.701 52.8 110.861 52.432L111.257 51.556L111.377 51.412L113.873 45.64H115.001L111.917 52.636C111.733 53.084 111.525 53.436 111.293 53.692C111.069 53.948 110.821 54.128 110.549 54.232C110.277 54.344 109.977 54.4 109.649 54.4ZM111.161 52.204L108.257 45.64H109.457L111.929 51.304L111.161 52.204Z" fill="#414141"/>
<path d="M21.5 34.8972C20.1211 34.8972 19 36.0154 19 37.3907V52.3515C19 53.7268 20.1211 54.845 21.5 54.845H31.5C32.8789 54.845 34 53.7268 34 52.3515V41.1309H29C28.3086 41.1309 27.75 40.5738 27.75 39.8842V34.8972H21.5ZM29 34.8972V39.8842H34L29 34.8972ZM23.375 44.8711H29.625C29.9688 44.8711 30.25 45.1516 30.25 45.4945C30.25 45.8373 29.9688 46.1179 29.625 46.1179H23.375C23.0312 46.1179 22.75 45.8373 22.75 45.4945C22.75 45.1516 23.0312 44.8711 23.375 44.8711ZM23.375 47.3646H29.625C29.9688 47.3646 30.25 47.6451 30.25 47.988C30.25 48.3308 29.9688 48.6113 29.625 48.6113H23.375C23.0312 48.6113 22.75 48.3308 22.75 47.988C22.75 47.6451 23.0312 47.3646 23.375 47.3646ZM23.375 49.8581H29.625C29.9688 49.8581 30.25 50.1386 30.25 50.4814C30.25 50.8243 29.9688 51.1048 29.625 51.1048H23.375C23.0312 51.1048 22.75 50.8243 22.75 50.4814C22.75 50.1386 23.0312 49.8581 23.375 49.8581Z" fill="#810019"/>
<line x1="364.842" y1="136.526" x2="427.842" y2="115.526" stroke="#810019" stroke-dasharray="2 2"/>
<g opacity="0.7" filter="url(#filter4_b_17042_8469)">
<path d="M430 116C430 107.716 436.716 101 445 101H558V132H445C436.716 132 430 125.284 430 117V116Z" fill="#FFCCCC"/>
<path d="M430.5 116C430.5 107.992 436.992 101.5 445 101.5H557.5V131.5H445C436.992 131.5 430.5 125.008 430.5 117V116Z" stroke="#810019"/>
</g>
<circle cx="573.5" cy="116.5" r="22" fill="#FFCCCC" stroke="white"/>
<path d="M444.26 121V112.6H445.46V121H444.26ZM451.203 114.58C451.723 114.58 452.179 114.68 452.571 114.88C452.971 115.08 453.283 115.384 453.507 115.792C453.731 116.2 453.843 116.716 453.843 117.34V121H452.691V117.472C452.691 116.856 452.539 116.392 452.235 116.08C451.939 115.768 451.519 115.612 450.975 115.612C450.567 115.612 450.211 115.692 449.907 115.852C449.603 116.012 449.367 116.248 449.199 116.56C449.039 116.872 448.959 117.26 448.959 117.724V121H447.807V114.64H448.911V116.356L448.731 115.9C448.939 115.484 449.259 115.16 449.691 114.928C450.123 114.696 450.627 114.58 451.203 114.58ZM456.143 121V114.076C456.143 113.452 456.323 112.956 456.683 112.588C457.051 112.212 457.571 112.024 458.243 112.024C458.491 112.024 458.727 112.056 458.951 112.12C459.183 112.176 459.379 112.268 459.539 112.396L459.191 113.272C459.071 113.176 458.935 113.104 458.783 113.056C458.631 113 458.471 112.972 458.303 112.972C457.967 112.972 457.711 113.068 457.535 113.26C457.359 113.444 457.271 113.72 457.271 114.088V114.94L457.295 115.468V121H456.143ZM455.063 115.588V114.64H459.119V115.588H455.063ZM462.836 121.072C462.196 121.072 461.628 120.932 461.132 120.652C460.636 120.372 460.244 119.988 459.956 119.5C459.668 119.004 459.524 118.444 459.524 117.82C459.524 117.188 459.668 116.628 459.956 116.14C460.244 115.652 460.636 115.272 461.132 115C461.628 114.72 462.196 114.58 462.836 114.58C463.468 114.58 464.032 114.72 464.528 115C465.032 115.272 465.424 115.652 465.704 116.14C465.992 116.62 466.136 117.18 466.136 117.82C466.136 118.452 465.992 119.012 465.704 119.5C465.424 119.988 465.032 120.372 464.528 120.652C464.032 120.932 463.468 121.072 462.836 121.072ZM462.836 120.064C463.244 120.064 463.608 119.972 463.928 119.788C464.256 119.604 464.512 119.344 464.696 119.008C464.88 118.664 464.972 118.268 464.972 117.82C464.972 117.364 464.88 116.972 464.696 116.644C464.512 116.308 464.256 116.048 463.928 115.864C463.608 115.68 463.244 115.588 462.836 115.588C462.428 115.588 462.064 115.68 461.744 115.864C461.424 116.048 461.168 116.308 460.976 116.644C460.784 116.972 460.688 117.364 460.688 117.82C460.688 118.268 460.784 118.664 460.976 119.008C461.168 119.344 461.424 119.604 461.744 119.788C462.064 119.972 462.428 120.064 462.836 120.064ZM467.729 121V114.64H468.833V116.368L468.725 115.936C468.901 115.496 469.197 115.16 469.613 114.928C470.029 114.696 470.541 114.58 471.149 114.58V115.696C471.101 115.688 471.053 115.684 471.005 115.684C470.965 115.684 470.925 115.684 470.885 115.684C470.269 115.684 469.781 115.868 469.421 116.236C469.061 116.604 468.881 117.136 468.881 117.832V121H467.729ZM480.525 114.58C481.037 114.58 481.489 114.68 481.881 114.88C482.273 115.08 482.577 115.384 482.793 115.792C483.017 116.2 483.129 116.716 483.129 117.34V121H481.977V117.472C481.977 116.856 481.833 116.392 481.545 116.08C481.257 115.768 480.853 115.612 480.333 115.612C479.949 115.612 479.613 115.692 479.325 115.852C479.037 116.012 478.813 116.248 478.653 116.56C478.501 116.872 478.425 117.26 478.425 117.724V121H477.273V117.472C477.273 116.856 477.129 116.392 476.841 116.08C476.561 115.768 476.157 115.612 475.629 115.612C475.253 115.612 474.921 115.692 474.633 115.852C474.345 116.012 474.121 116.248 473.961 116.56C473.801 116.872 473.721 117.26 473.721 117.724V121H472.569V114.64H473.673V116.332L473.493 115.9C473.693 115.484 474.001 115.16 474.417 114.928C474.833 114.696 475.317 114.58 475.869 114.58C476.477 114.58 477.001 114.732 477.441 115.036C477.881 115.332 478.169 115.784 478.305 116.392L477.837 116.2C478.029 115.712 478.365 115.32 478.845 115.024C479.325 114.728 479.885 114.58 480.525 114.58ZM489.196 121V119.656L489.136 119.404V117.112C489.136 116.624 488.992 116.248 488.704 115.984C488.424 115.712 488 115.576 487.432 115.576C487.056 115.576 486.688 115.64 486.328 115.768C485.968 115.888 485.664 116.052 485.416 116.26L484.936 115.396C485.264 115.132 485.656 114.932 486.112 114.796C486.576 114.652 487.06 114.58 487.564 114.58C488.436 114.58 489.108 114.792 489.58 115.216C490.052 115.64 490.288 116.288 490.288 117.16V121H489.196ZM487.108 121.072C486.636 121.072 486.22 120.992 485.86 120.832C485.508 120.672 485.236 120.452 485.044 120.172C484.852 119.884 484.756 119.56 484.756 119.2C484.756 118.856 484.836 118.544 484.996 118.264C485.164 117.984 485.432 117.76 485.8 117.592C486.176 117.424 486.68 117.34 487.312 117.34H489.328V118.168H487.36C486.784 118.168 486.396 118.264 486.196 118.456C485.996 118.648 485.896 118.88 485.896 119.152C485.896 119.464 486.02 119.716 486.268 119.908C486.516 120.092 486.86 120.184 487.3 120.184C487.732 120.184 488.108 120.088 488.428 119.896C488.756 119.704 488.992 119.424 489.136 119.056L489.364 119.848C489.212 120.224 488.944 120.524 488.56 120.748C488.176 120.964 487.692 121.072 487.108 121.072ZM494.604 121.072C493.964 121.072 493.468 120.9 493.116 120.556C492.764 120.212 492.588 119.72 492.588 119.08V113.248H493.74V119.032C493.74 119.376 493.824 119.64 493.992 119.824C494.168 120.008 494.416 120.1 494.736 120.1C495.096 120.1 495.396 120 495.636 119.8L495.996 120.628C495.82 120.78 495.608 120.892 495.36 120.964C495.12 121.036 494.868 121.072 494.604 121.072ZM491.508 115.588V114.64H495.564V115.588H491.508ZM497.389 121V114.64H498.541V121H497.389ZM497.965 113.416C497.741 113.416 497.553 113.344 497.401 113.2C497.257 113.056 497.185 112.88 497.185 112.672C497.185 112.456 497.257 112.276 497.401 112.132C497.553 111.988 497.741 111.916 497.965 111.916C498.189 111.916 498.373 111.988 498.517 112.132C498.669 112.268 498.745 112.44 498.745 112.648C498.745 112.864 498.673 113.048 498.529 113.2C498.385 113.344 498.197 113.416 497.965 113.416ZM503.464 121.072C502.824 121.072 502.256 120.932 501.76 120.652C501.264 120.372 500.872 119.988 500.584 119.5C500.296 119.004 500.152 118.444 500.152 117.82C500.152 117.188 500.296 116.628 500.584 116.14C500.872 115.652 501.264 115.272 501.76 115C502.256 114.72 502.824 114.58 503.464 114.58C504.096 114.58 504.66 114.72 505.156 115C505.66 115.272 506.052 115.652 506.332 116.14C506.62 116.62 506.764 117.18 506.764 117.82C506.764 118.452 506.62 119.012 506.332 119.5C506.052 119.988 505.66 120.372 505.156 120.652C504.66 120.932 504.096 121.072 503.464 121.072ZM503.464 120.064C503.872 120.064 504.236 119.972 504.556 119.788C504.884 119.604 505.14 119.344 505.324 119.008C505.508 118.664 505.6 118.268 505.6 117.82C505.6 117.364 505.508 116.972 505.324 116.644C505.14 116.308 504.884 116.048 504.556 115.864C504.236 115.68 503.872 115.588 503.464 115.588C503.056 115.588 502.692 115.68 502.372 115.864C502.052 116.048 501.796 116.308 501.604 116.644C501.412 116.972 501.316 117.364 501.316 117.82C501.316 118.268 501.412 118.664 501.604 119.008C501.796 119.344 502.052 119.604 502.372 119.788C502.692 119.972 503.056 120.064 503.464 120.064ZM511.754 114.58C512.274 114.58 512.73 114.68 513.122 114.88C513.522 115.08 513.834 115.384 514.058 115.792C514.282 116.2 514.394 116.716 514.394 117.34V121H513.242V117.472C513.242 116.856 513.09 116.392 512.786 116.08C512.49 115.768 512.07 115.612 511.526 115.612C511.118 115.612 510.762 115.692 510.458 115.852C510.154 116.012 509.918 116.248 509.75 116.56C509.59 116.872 509.51 117.26 509.51 117.724V121H508.358V114.64H509.462V116.356L509.282 115.9C509.49 115.484 509.81 115.16 510.242 114.928C510.674 114.696 511.178 114.58 511.754 114.58ZM519.916 121V114.076C519.916 113.452 520.096 112.956 520.456 112.588C520.824 112.212 521.344 112.024 522.016 112.024C522.264 112.024 522.5 112.056 522.724 112.12C522.956 112.176 523.152 112.268 523.312 112.396L522.964 113.272C522.844 113.176 522.708 113.104 522.556 113.056C522.404 113 522.244 112.972 522.076 112.972C521.74 112.972 521.484 113.068 521.308 113.26C521.132 113.444 521.044 113.72 521.044 114.088V114.94L521.068 115.468V121H519.916ZM518.836 115.588V114.64H522.892V115.588H518.836ZM523.984 121V112.096H525.136V121H523.984ZM530.054 121.072C529.414 121.072 528.846 120.932 528.35 120.652C527.854 120.372 527.462 119.988 527.174 119.5C526.886 119.004 526.742 118.444 526.742 117.82C526.742 117.188 526.886 116.628 527.174 116.14C527.462 115.652 527.854 115.272 528.35 115C528.846 114.72 529.414 114.58 530.054 114.58C530.686 114.58 531.25 114.72 531.746 115C532.25 115.272 532.642 115.652 532.922 116.14C533.21 116.62 533.354 117.18 533.354 117.82C533.354 118.452 533.21 119.012 532.922 119.5C532.642 119.988 532.25 120.372 531.746 120.652C531.25 120.932 530.686 121.072 530.054 121.072ZM530.054 120.064C530.462 120.064 530.826 119.972 531.146 119.788C531.474 119.604 531.73 119.344 531.914 119.008C532.098 118.664 532.19 118.268 532.19 117.82C532.19 117.364 532.098 116.972 531.914 116.644C531.73 116.308 531.474 116.048 531.146 115.864C530.826 115.68 530.462 115.588 530.054 115.588C529.646 115.588 529.282 115.68 528.962 115.864C528.642 116.048 528.386 116.308 528.194 116.644C528.002 116.972 527.906 117.364 527.906 117.82C527.906 118.268 528.002 118.664 528.194 119.008C528.386 119.344 528.642 119.604 528.962 119.788C529.282 119.972 529.646 120.064 530.054 120.064ZM536.116 121L533.752 114.64H534.844L536.944 120.4H536.428L538.612 114.64H539.584L541.72 120.4H541.216L543.364 114.64H544.396L542.02 121H540.916L538.912 115.744H539.248L537.22 121H536.116Z" fill="#414141"/>
<path d="M574 126.948C576.652 126.948 579.196 125.897 581.071 124.027C582.946 122.156 584 119.619 584 116.974C584 114.329 582.946 111.792 581.071 109.921C579.196 108.051 576.652 107 574 107C571.348 107 568.804 108.051 566.929 109.921C565.054 111.792 564 114.329 564 116.974C564 119.619 565.054 122.156 566.929 124.027C568.804 125.897 571.348 126.948 574 126.948ZM572.438 120.091H573.375V117.597H572.438C571.918 117.597 571.5 117.18 571.5 116.662C571.5 116.144 571.918 115.727 572.438 115.727H574.312C574.832 115.727 575.25 116.144 575.25 116.662V120.091H575.562C576.082 120.091 576.5 120.508 576.5 121.026C576.5 121.544 576.082 121.961 575.562 121.961H572.438C571.918 121.961 571.5 121.544 571.5 121.026C571.5 120.508 571.918 120.091 572.438 120.091ZM574 111.987C574.332 111.987 574.649 112.118 574.884 112.352C575.118 112.586 575.25 112.903 575.25 113.234C575.25 113.564 575.118 113.881 574.884 114.115C574.649 114.349 574.332 114.48 574 114.48C573.668 114.48 573.351 114.349 573.116 114.115C572.882 113.881 572.75 113.564 572.75 113.234C572.75 112.903 572.882 112.586 573.116 112.352C573.351 112.118 573.668 111.987 574 111.987Z" fill="#810019"/>
<circle cx="430" cy="116" r="5.5" fill="#810019" stroke="#FFCCCC"/>
<g opacity="0.7" filter="url(#filter5_b_17042_8469)">
<path d="M436 207C436 198.716 442.716 192 451 192H558V223H451C442.716 223 436 216.284 436 208V207Z" fill="#FFCCCC"/>
<path d="M436.5 207C436.5 198.992 442.992 192.5 451 192.5H557.5V222.5H451C442.992 222.5 436.5 216.008 436.5 208V207Z" stroke="#810019"/>
</g>
<circle cx="573.5" cy="207.5" r="22" fill="#FFCCCC" stroke="white"/>
<path d="M461.708 212.096C461.068 212.096 460.456 212 459.872 211.808C459.288 211.608 458.828 211.352 458.492 211.04L458.936 210.104C459.256 210.384 459.664 210.616 460.16 210.8C460.656 210.984 461.172 211.076 461.708 211.076C462.196 211.076 462.592 211.02 462.896 210.908C463.2 210.796 463.424 210.644 463.568 210.452C463.712 210.252 463.784 210.028 463.784 209.78C463.784 209.492 463.688 209.26 463.496 209.084C463.312 208.908 463.068 208.768 462.764 208.664C462.468 208.552 462.14 208.456 461.78 208.376C461.42 208.296 461.056 208.204 460.688 208.1C460.328 207.988 459.996 207.848 459.692 207.68C459.396 207.512 459.156 207.288 458.972 207.008C458.788 206.72 458.696 206.352 458.696 205.904C458.696 205.472 458.808 205.076 459.032 204.716C459.264 204.348 459.616 204.056 460.088 203.84C460.568 203.616 461.176 203.504 461.912 203.504C462.4 203.504 462.884 203.568 463.364 203.696C463.844 203.824 464.26 204.008 464.612 204.248L464.216 205.208C463.856 204.968 463.476 204.796 463.076 204.692C462.676 204.58 462.288 204.524 461.912 204.524C461.44 204.524 461.052 204.584 460.748 204.704C460.444 204.824 460.22 204.984 460.076 205.184C459.94 205.384 459.872 205.608 459.872 205.856C459.872 206.152 459.964 206.388 460.148 206.564C460.34 206.74 460.584 206.88 460.88 206.984C461.184 207.088 461.516 207.184 461.876 207.272C462.236 207.352 462.596 207.444 462.956 207.548C463.324 207.652 463.656 207.788 463.952 207.956C464.256 208.124 464.5 208.348 464.684 208.628C464.868 208.908 464.96 209.268 464.96 209.708C464.96 210.132 464.844 210.528 464.612 210.896C464.38 211.256 464.02 211.548 463.532 211.772C463.052 211.988 462.444 212.096 461.708 212.096ZM469.221 212.072C468.677 212.072 468.197 211.972 467.781 211.772C467.373 211.572 467.053 211.268 466.821 210.86C466.597 210.444 466.485 209.924 466.485 209.3V205.64H467.637V209.168C467.637 209.792 467.785 210.26 468.081 210.572C468.385 210.884 468.809 211.04 469.353 211.04C469.753 211.04 470.101 210.96 470.397 210.8C470.693 210.632 470.921 210.392 471.081 210.08C471.241 209.76 471.321 209.376 471.321 208.928V205.64H472.473V212H471.381V210.284L471.561 210.74C471.353 211.164 471.041 211.492 470.625 211.724C470.209 211.956 469.741 212.072 469.221 212.072ZM478.038 212.072C477.51 212.072 477.026 211.952 476.586 211.712C476.154 211.464 475.806 211.1 475.542 210.62C475.286 210.14 475.158 209.54 475.158 208.82C475.158 208.1 475.282 207.5 475.53 207.02C475.786 206.54 476.13 206.18 476.562 205.94C477.002 205.7 477.494 205.58 478.038 205.58C478.662 205.58 479.214 205.716 479.694 205.988C480.174 206.26 480.554 206.64 480.834 207.128C481.114 207.608 481.254 208.172 481.254 208.82C481.254 209.468 481.114 210.036 480.834 210.524C480.554 211.012 480.174 211.392 479.694 211.664C479.214 211.936 478.662 212.072 478.038 212.072ZM474.666 214.328V205.64H475.77V207.356L475.698 208.832L475.818 210.308V214.328H474.666ZM477.942 211.064C478.35 211.064 478.714 210.972 479.034 210.788C479.362 210.604 479.618 210.344 479.802 210.008C479.994 209.664 480.09 209.268 480.09 208.82C480.09 208.364 479.994 207.972 479.802 207.644C479.618 207.308 479.362 207.048 479.034 206.864C478.714 206.68 478.35 206.588 477.942 206.588C477.542 206.588 477.178 206.68 476.85 206.864C476.53 207.048 476.274 207.308 476.082 207.644C475.898 207.972 475.806 208.364 475.806 208.82C475.806 209.268 475.898 209.664 476.082 210.008C476.274 210.344 476.53 210.604 476.85 210.788C477.178 210.972 477.542 211.064 477.942 211.064ZM486.218 212.072C485.69 212.072 485.206 211.952 484.766 211.712C484.334 211.464 483.986 211.1 483.722 210.62C483.466 210.14 483.338 209.54 483.338 208.82C483.338 208.1 483.462 207.5 483.71 207.02C483.966 206.54 484.31 206.18 484.742 205.94C485.182 205.7 485.674 205.58 486.218 205.58C486.842 205.58 487.394 205.716 487.874 205.988C488.354 206.26 488.734 206.64 489.014 207.128C489.294 207.608 489.434 208.172 489.434 208.82C489.434 209.468 489.294 210.036 489.014 210.524C488.734 211.012 488.354 211.392 487.874 211.664C487.394 211.936 486.842 212.072 486.218 212.072ZM482.846 214.328V205.64H483.95V207.356L483.878 208.832L483.998 210.308V214.328H482.846ZM486.122 211.064C486.53 211.064 486.894 210.972 487.214 210.788C487.542 210.604 487.798 210.344 487.982 210.008C488.174 209.664 488.27 209.268 488.27 208.82C488.27 208.364 488.174 207.972 487.982 207.644C487.798 207.308 487.542 207.048 487.214 206.864C486.894 206.68 486.53 206.588 486.122 206.588C485.722 206.588 485.358 206.68 485.03 206.864C484.71 207.048 484.454 207.308 484.262 207.644C484.078 207.972 483.986 208.364 483.986 208.82C483.986 209.268 484.078 209.664 484.262 210.008C484.454 210.344 484.71 210.604 485.03 210.788C485.358 210.972 485.722 211.064 486.122 211.064ZM491.026 212V203.096H492.178V212H491.026ZM494.653 214.4C494.349 214.4 494.053 214.348 493.765 214.244C493.477 214.148 493.229 214.004 493.021 213.812L493.513 212.948C493.673 213.1 493.849 213.216 494.041 213.296C494.233 213.376 494.437 213.416 494.653 213.416C494.933 213.416 495.165 213.344 495.349 213.2C495.533 213.056 495.705 212.8 495.865 212.432L496.261 211.556L496.381 211.412L498.877 205.64H500.005L496.921 212.636C496.737 213.084 496.529 213.436 496.297 213.692C496.073 213.948 495.825 214.128 495.553 214.232C495.281 214.344 494.981 214.4 494.653 214.4ZM496.165 212.204L493.261 205.64H494.461L496.933 211.304L496.165 212.204ZM507.075 212.072C506.427 212.072 505.847 211.932 505.335 211.652C504.831 211.372 504.435 210.988 504.147 210.5C503.859 210.012 503.715 209.452 503.715 208.82C503.715 208.188 503.859 207.628 504.147 207.14C504.435 206.652 504.831 206.272 505.335 206C505.847 205.72 506.427 205.58 507.075 205.58C507.651 205.58 508.163 205.696 508.611 205.928C509.067 206.152 509.419 206.488 509.667 206.936L508.791 207.5C508.583 207.188 508.327 206.96 508.023 206.816C507.727 206.664 507.407 206.588 507.063 206.588C506.647 206.588 506.275 206.68 505.947 206.864C505.619 207.048 505.359 207.308 505.167 207.644C504.975 207.972 504.879 208.364 504.879 208.82C504.879 209.276 504.975 209.672 505.167 210.008C505.359 210.344 505.619 210.604 505.947 210.788C506.275 210.972 506.647 211.064 507.063 211.064C507.407 211.064 507.727 210.992 508.023 210.848C508.327 210.696 508.583 210.464 508.791 210.152L509.667 210.704C509.419 211.144 509.067 211.484 508.611 211.724C508.163 211.956 507.651 212.072 507.075 212.072ZM514.472 205.58C514.992 205.58 515.448 205.68 515.84 205.88C516.24 206.08 516.552 206.384 516.776 206.792C517 207.2 517.112 207.716 517.112 208.34V212H515.96V208.472C515.96 207.856 515.808 207.392 515.504 207.08C515.208 206.768 514.788 206.612 514.244 206.612C513.836 206.612 513.48 206.692 513.176 206.852C512.872 207.012 512.636 207.248 512.468 207.56C512.308 207.872 512.228 208.26 512.228 208.724V212H511.076V203.096H512.228V207.356L512 206.9C512.208 206.484 512.528 206.16 512.96 205.928C513.392 205.696 513.896 205.58 514.472 205.58ZM523.192 212V210.656L523.132 210.404V208.112C523.132 207.624 522.988 207.248 522.7 206.984C522.42 206.712 521.996 206.576 521.428 206.576C521.052 206.576 520.684 206.64 520.324 206.768C519.964 206.888 519.66 207.052 519.412 207.26L518.932 206.396C519.26 206.132 519.652 205.932 520.108 205.796C520.572 205.652 521.056 205.58 521.56 205.58C522.432 205.58 523.104 205.792 523.576 206.216C524.048 206.64 524.284 207.288 524.284 208.16V212H523.192ZM521.104 212.072C520.632 212.072 520.216 211.992 519.856 211.832C519.504 211.672 519.232 211.452 519.04 211.172C518.848 210.884 518.752 210.56 518.752 210.2C518.752 209.856 518.832 209.544 518.992 209.264C519.16 208.984 519.428 208.76 519.796 208.592C520.172 208.424 520.676 208.34 521.308 208.34H523.324V209.168H521.356C520.78 209.168 520.392 209.264 520.192 209.456C519.992 209.648 519.892 209.88 519.892 210.152C519.892 210.464 520.016 210.716 520.264 210.908C520.512 211.092 520.856 211.184 521.296 211.184C521.728 211.184 522.104 211.088 522.424 210.896C522.752 210.704 522.988 210.424 523.132 210.056L523.36 210.848C523.208 211.224 522.94 211.524 522.556 211.748C522.172 211.964 521.688 212.072 521.104 212.072ZM526.416 212V205.64H527.568V212H526.416ZM526.992 204.416C526.768 204.416 526.58 204.344 526.428 204.2C526.284 204.056 526.212 203.88 526.212 203.672C526.212 203.456 526.284 203.276 526.428 203.132C526.58 202.988 526.768 202.916 526.992 202.916C527.216 202.916 527.4 202.988 527.544 203.132C527.696 203.268 527.772 203.44 527.772 203.648C527.772 203.864 527.7 204.048 527.556 204.2C527.412 204.344 527.224 204.416 526.992 204.416ZM533.164 205.58C533.684 205.58 534.14 205.68 534.532 205.88C534.932 206.08 535.244 206.384 535.468 206.792C535.692 207.2 535.804 207.716 535.804 208.34V212H534.652V208.472C534.652 207.856 534.5 207.392 534.196 207.08C533.9 206.768 533.48 206.612 532.936 206.612C532.528 206.612 532.172 206.692 531.868 206.852C531.564 207.012 531.328 207.248 531.16 207.56C531 207.872 530.92 208.26 530.92 208.724V212H529.768V205.64H530.872V207.356L530.692 206.9C530.9 206.484 531.22 206.16 531.652 205.928C532.084 205.696 532.588 205.58 533.164 205.58Z" fill="#414141"/>
<path d="M571 196.35C571 195.317 571.84 194.479 572.875 194.479H584.125C585.16 194.479 586 195.317 586 196.35V212.557C586 213.59 585.16 214.427 584.125 214.427H575.895C575.965 214.232 576 214.022 576 213.804V204.348C576.727 204.091 577.25 203.398 577.25 202.583V201.337C577.25 200.304 576.41 199.466 575.375 199.466H571V196.35ZM583.316 208.01C583.559 207.769 583.559 207.372 583.316 207.13L580.816 204.637C580.574 204.395 580.176 204.395 579.934 204.637L577.434 207.13C577.191 207.372 577.191 207.769 577.434 208.01C577.676 208.252 578.074 208.252 578.316 208.01L579.75 206.581V211.31C579.75 211.653 580.031 211.934 580.375 211.934C580.719 211.934 581 211.653 581 211.31V206.581L582.434 208.01C582.676 208.252 583.074 208.252 583.316 208.01ZM561 201.337C561 200.994 561.281 200.713 561.625 200.713H575.375C575.719 200.713 576 200.994 576 201.337V202.583C576 202.926 575.719 203.207 575.375 203.207H561.625C561.281 203.207 561 202.926 561 202.583V201.337ZM574.75 204.453V213.181C574.75 213.87 574.191 214.427 573.5 214.427H563.5C562.809 214.427 562.25 213.87 562.25 213.181V204.453H574.75ZM566.625 206.947C566.281 206.947 566 207.227 566 207.57C566 207.913 566.281 208.194 566.625 208.194H570.375C570.719 208.194 571 207.913 571 207.57C571 207.227 570.719 206.947 570.375 206.947H566.625Z" fill="#810019"/>
<circle cx="436" cy="207" r="5.5" fill="#810019" stroke="#FFCCCC"/>
<circle cx="132" cy="47" r="5.5" fill="#810019" stroke="#FFCCCC"/>
<line x1="132.306" y1="46.6044" x2="220.306" y2="114.604" stroke="#810019" stroke-dasharray="2 2"/>
<line x1="148.737" y1="196.575" x2="216.737" y2="154.575" stroke="#810019" stroke-dasharray="2 2"/>
<line x1="349.127" y1="186.516" x2="433.127" y2="208.516" stroke="#810019" stroke-dasharray="2 2"/>
</g>
<defs>
<filter id="filter0_d_17042_8469" x="0" y="0" width="600" height="235" filterUnits="userSpaceOnUse" color-interpolation-filters="sRGB">
<feFlood flood-opacity="0" result="BackgroundImageFix"/>
<feColorMatrix in="SourceAlpha" type="matrix" values="0 0 0 0 0 0 0 0 0 0 0 0 0 0 0 0 0 0 127 0" result="hardAlpha"/>
<feOffset dy="1"/>
<feGaussianBlur stdDeviation="2"/>
<feComposite in2="hardAlpha" operator="out"/>
<feColorMatrix type="matrix" values="0 0 0 0 0 0 0 0 0 0 0 0 0 0 0 0 0 0 0.25 0"/>
<feBlend mode="normal" in2="BackgroundImageFix" result="effect1_dropShadow_17042_8469"/>
<feBlend mode="normal" in="SourceGraphic" in2="effect1_dropShadow_17042_8469" result="shape"/>
</filter>
<filter id="filter1_b_17042_8469" x="432.3" y="5.3" width="130.4" height="40.4" filterUnits="userSpaceOnUse" color-interpolation-filters="sRGB">
<feFlood flood-opacity="0" result="BackgroundImageFix"/>
<feGaussianBlur in="BackgroundImageFix" stdDeviation="2.35"/>
<feComposite in2="SourceAlpha" operator="in" result="effect1_backgroundBlur_17042_8469"/>
<feBlend mode="normal" in="SourceGraphic" in2="effect1_backgroundBlur_17042_8469" result="shape"/>
</filter>
<filter id="filter2_b_17042_8469" x="35.3" y="177.3" width="118.4" height="40.4" filterUnits="userSpaceOnUse" color-interpolation-filters="sRGB">
<feFlood flood-opacity="0" result="BackgroundImageFix"/>
<feGaussianBlur in="BackgroundImageFix" stdDeviation="2.35"/>
<feComposite in2="SourceAlpha" operator="in" result="effect1_backgroundBlur_17042_8469"/>
<feBlend mode="normal" in="SourceGraphic" in2="effect1_backgroundBlur_17042_8469" result="shape"/>
</filter>
<filter id="filter3_b_17042_8469" x="35.3" y="27.3" width="101.4" height="40.4" filterUnits="userSpaceOnUse" color-interpolation-filters="sRGB">
<feFlood flood-opacity="0" result="BackgroundImageFix"/>
<feGaussianBlur in="BackgroundImageFix" stdDeviation="2.35"/>
<feComposite in2="SourceAlpha" operator="in" result="effect1_backgroundBlur_17042_8469"/>
<feBlend mode="normal" in="SourceGraphic" in2="effect1_backgroundBlur_17042_8469" result="shape"/>
</filter>
<filter id="filter4_b_17042_8469" x="425.3" y="96.3" width="137.4" height="40.4" filterUnits="userSpaceOnUse" color-interpolation-filters="sRGB">
<feFlood flood-opacity="0" result="BackgroundImageFix"/>
<feGaussianBlur in="BackgroundImageFix" stdDeviation="2.35"/>
<feComposite in2="SourceAlpha" operator="in" result="effect1_backgroundBlur_17042_8469"/>
<feBlend mode="normal" in="SourceGraphic" in2="effect1_backgroundBlur_17042_8469" result="shape"/>
</filter>
<filter id="filter5_b_17042_8469" x="431.3" y="187.3" width="131.4" height="40.4" filterUnits="userSpaceOnUse" color-interpolation-filters="sRGB">
<feFlood flood-opacity="0" result="BackgroundImageFix"/>
<feGaussianBlur in="BackgroundImageFix" stdDeviation="2.35"/>
<feComposite in2="SourceAlpha" operator="in" result="effect1_backgroundBlur_17042_8469"/>
<feBlend mode="normal" in="SourceGraphic" in2="effect1_backgroundBlur_17042_8469" result="shape"/>
</filter>
</defs>
</svg>
