<svg width="530" height="342" viewBox="0 0 530 342" fill="none" xmlns="http://www.w3.org/2000/svg">
<g filter="url(#filter0_d_16983_1482)">
<rect x="4" y="3" width="522" height="334" rx="10" fill="white"/>
</g>
<path d="M93 177.049C116.666 170.088 115.088 211.44 146.249 217.473C177.409 223.506 186.086 181.275 200.286 169.209C214.486 157.143 220.797 102.16 244.463 105.872C268.129 109.585 279.962 146.785 299.683 151.425C319.405 156.066 323.349 186.844 341.888 209.584C360.426 232.324 377.387 235.108 400.658 230.467C423.93 225.827 430.241 178.905 441.285 177.049C452.329 175.193 462.19 197.568 471.656 202.673C481.123 207.778 483.884 230.467 504 230.467" stroke="#FFCCCC" stroke-width="4" stroke-linecap="round" stroke-linejoin="round"/>
<path d="M26.518 46V45.048L30.508 41.198C30.8627 40.862 31.124 40.568 31.292 40.316C31.4693 40.0547 31.586 39.8167 31.642 39.602C31.7073 39.378 31.74 39.1633 31.74 38.958C31.74 38.454 31.5627 38.0573 31.208 37.768C30.8533 37.4787 30.3353 37.334 29.654 37.334C29.1313 37.334 28.66 37.4227 28.24 37.6C27.82 37.768 27.456 38.034 27.148 38.398L26.196 37.572C26.5693 37.096 27.0687 36.732 27.694 36.48C28.3287 36.2187 29.024 36.088 29.78 36.088C30.4613 36.088 31.054 36.2 31.558 36.424C32.062 36.6387 32.4493 36.9513 32.72 37.362C33 37.7727 33.14 38.258 33.14 38.818C33.14 39.1353 33.098 39.448 33.014 39.756C32.93 40.064 32.7713 40.3907 32.538 40.736C32.3047 41.0813 31.9687 41.4687 31.53 41.898L27.974 45.328L27.638 44.782H33.56V46H26.518ZM38.8134 46.112C37.9454 46.112 37.2034 45.9207 36.5874 45.538C35.9714 45.1553 35.5001 44.6047 35.1734 43.886C34.8561 43.158 34.6974 42.2713 34.6974 41.226C34.6974 40.1153 34.8934 39.1773 35.2854 38.412C35.6774 37.6467 36.2234 37.068 36.9234 36.676C37.6234 36.284 38.4261 36.088 39.3314 36.088C39.7981 36.088 40.2414 36.1347 40.6614 36.228C41.0907 36.3213 41.4594 36.466 41.7674 36.662L41.2354 37.754C40.9834 37.5767 40.6941 37.4553 40.3674 37.39C40.0501 37.3247 39.7141 37.292 39.3594 37.292C38.3607 37.292 37.5674 37.6047 36.9794 38.23C36.3914 38.846 36.0974 39.7653 36.0974 40.988C36.0974 41.184 36.1067 41.4173 36.1254 41.688C36.1441 41.9587 36.1907 42.2247 36.2654 42.486L35.7894 42.01C35.9294 41.5807 36.1487 41.2213 36.4474 40.932C36.7554 40.6333 37.1194 40.414 37.5394 40.274C37.9687 40.1247 38.4307 40.05 38.9254 40.05C39.5787 40.05 40.1574 40.1713 40.6614 40.414C41.1654 40.6567 41.5621 41.002 41.8514 41.45C42.1407 41.8887 42.2854 42.4113 42.2854 43.018C42.2854 43.6433 42.1314 44.1893 41.8234 44.656C41.5154 45.1227 41.1001 45.482 40.5774 45.734C40.0547 45.986 39.4667 46.112 38.8134 46.112ZM38.7574 44.978C39.1867 44.978 39.5601 44.8987 39.8774 44.74C40.2041 44.5813 40.4607 44.362 40.6474 44.082C40.8341 43.7927 40.9274 43.4567 40.9274 43.074C40.9274 42.4953 40.7267 42.038 40.3254 41.702C39.9241 41.3567 39.3781 41.184 38.6874 41.184C38.2394 41.184 37.8474 41.268 37.5114 41.436C37.1754 41.604 36.9094 41.8327 36.7134 42.122C36.5267 42.402 36.4334 42.724 36.4334 43.088C36.4334 43.424 36.5221 43.7367 36.6994 44.026C36.8767 44.306 37.1381 44.5347 37.4834 44.712C37.8287 44.8893 38.2534 44.978 38.7574 44.978ZM47.342 46.112C46.5767 46.112 45.8907 45.916 45.284 45.524C44.6867 45.132 44.2107 44.5627 43.856 43.816C43.5107 43.0693 43.338 42.164 43.338 41.1C43.338 40.036 43.5107 39.1307 43.856 38.384C44.2107 37.6373 44.6867 37.068 45.284 36.676C45.8907 36.284 46.5767 36.088 47.342 36.088C48.098 36.088 48.7793 36.284 49.386 36.676C49.9927 37.068 50.4687 37.6373 50.814 38.384C51.1593 39.1307 51.332 40.036 51.332 41.1C51.332 42.164 51.1593 43.0693 50.814 43.816C50.4687 44.5627 49.9927 45.132 49.386 45.524C48.7793 45.916 48.098 46.112 47.342 46.112ZM47.342 44.866C47.8553 44.866 48.3033 44.726 48.686 44.446C49.078 44.166 49.3813 43.746 49.596 43.186C49.82 42.626 49.932 41.9307 49.932 41.1C49.932 40.2693 49.82 39.574 49.596 39.014C49.3813 38.454 49.078 38.034 48.686 37.754C48.3033 37.474 47.8553 37.334 47.342 37.334C46.8287 37.334 46.376 37.474 45.984 37.754C45.592 38.034 45.284 38.454 45.06 39.014C44.8453 39.574 44.738 40.2693 44.738 41.1C44.738 41.9307 44.8453 42.626 45.06 43.186C45.284 43.746 45.592 44.166 45.984 44.446C46.376 44.726 46.8287 44.866 47.342 44.866ZM53.4739 46V36.2H54.6219L59.0179 43.606H58.4019L62.7419 36.2H63.8899L63.9039 46H62.5599L62.5459 38.314H62.8679L59.0039 44.81H58.3599L54.4679 38.314H54.8179V46H53.4739Z" fill="#A2A3A5"/>
<path d="M26.518 118V117.048L30.508 113.198C30.8627 112.862 31.124 112.568 31.292 112.316C31.4693 112.055 31.586 111.817 31.642 111.602C31.7073 111.378 31.74 111.163 31.74 110.958C31.74 110.454 31.5627 110.057 31.208 109.768C30.8533 109.479 30.3353 109.334 29.654 109.334C29.1313 109.334 28.66 109.423 28.24 109.6C27.82 109.768 27.456 110.034 27.148 110.398L26.196 109.572C26.5693 109.096 27.0687 108.732 27.694 108.48C28.3287 108.219 29.024 108.088 29.78 108.088C30.4613 108.088 31.054 108.2 31.558 108.424C32.062 108.639 32.4493 108.951 32.72 109.362C33 109.773 33.14 110.258 33.14 110.818C33.14 111.135 33.098 111.448 33.014 111.756C32.93 112.064 32.7713 112.391 32.538 112.736C32.3047 113.081 31.9687 113.469 31.53 113.898L27.974 117.328L27.638 116.782H33.56V118H26.518ZM34.5571 118V117.048L38.5471 113.198C38.9017 112.862 39.1631 112.568 39.3311 112.316C39.5084 112.055 39.6251 111.817 39.6811 111.602C39.7464 111.378 39.7791 111.163 39.7791 110.958C39.7791 110.454 39.6017 110.057 39.2471 109.768C38.8924 109.479 38.3744 109.334 37.6931 109.334C37.1704 109.334 36.6991 109.423 36.2791 109.6C35.8591 109.768 35.4951 110.034 35.1871 110.398L34.2351 109.572C34.6084 109.096 35.1077 108.732 35.7331 108.48C36.3677 108.219 37.0631 108.088 37.8191 108.088C38.5004 108.088 39.0931 108.2 39.5971 108.424C40.1011 108.639 40.4884 108.951 40.7591 109.362C41.0391 109.773 41.1791 110.258 41.1791 110.818C41.1791 111.135 41.1371 111.448 41.0531 111.756C40.9691 112.064 40.8104 112.391 40.5771 112.736C40.3437 113.081 40.0077 113.469 39.5691 113.898L36.0131 117.328L35.6771 116.782H41.5991V118H34.5571ZM46.7405 118.112C45.9751 118.112 45.2891 117.916 44.6825 117.524C44.0851 117.132 43.6091 116.563 43.2545 115.816C42.9091 115.069 42.7365 114.164 42.7365 113.1C42.7365 112.036 42.9091 111.131 43.2545 110.384C43.6091 109.637 44.0851 109.068 44.6825 108.676C45.2891 108.284 45.9751 108.088 46.7405 108.088C47.4965 108.088 48.1778 108.284 48.7845 108.676C49.3911 109.068 49.8671 109.637 50.2125 110.384C50.5578 111.131 50.7305 112.036 50.7305 113.1C50.7305 114.164 50.5578 115.069 50.2125 115.816C49.8671 116.563 49.3911 117.132 48.7845 117.524C48.1778 117.916 47.4965 118.112 46.7405 118.112ZM46.7405 116.866C47.2538 116.866 47.7018 116.726 48.0845 116.446C48.4765 116.166 48.7798 115.746 48.9945 115.186C49.2185 114.626 49.3305 113.931 49.3305 113.1C49.3305 112.269 49.2185 111.574 48.9945 111.014C48.7798 110.454 48.4765 110.034 48.0845 109.754C47.7018 109.474 47.2538 109.334 46.7405 109.334C46.2271 109.334 45.7745 109.474 45.3825 109.754C44.9905 110.034 44.6825 110.454 44.4585 111.014C44.2438 111.574 44.1365 112.269 44.1365 113.1C44.1365 113.931 44.2438 114.626 44.4585 115.186C44.6825 115.746 44.9905 116.166 45.3825 116.446C45.7745 116.726 46.2271 116.866 46.7405 116.866ZM52.8723 118V108.2H54.0203L58.4163 115.606H57.8003L62.1403 108.2H63.2883L63.3023 118H61.9583L61.9443 110.314H62.2663L58.4023 116.81H57.7583L53.8663 110.314H54.2163V118H52.8723Z" fill="#A2A3A5"/>
<path d="M28.324 190V180.76L28.926 181.418H26.112V180.2H29.71V190H28.324ZM35.6756 190.112C34.8823 190.112 34.1963 189.995 33.6176 189.762C33.039 189.529 32.591 189.197 32.2736 188.768C31.9563 188.329 31.7976 187.816 31.7976 187.228C31.7976 186.649 31.947 186.159 32.2456 185.758C32.5536 185.347 32.997 185.039 33.5756 184.834C34.1543 184.619 34.8543 184.512 35.6756 184.512C36.497 184.512 37.197 184.619 37.7756 184.834C38.3636 185.039 38.8116 185.347 39.1196 185.758C39.4276 186.169 39.5816 186.659 39.5816 187.228C39.5816 187.816 39.423 188.329 39.1056 188.768C38.7883 189.197 38.3356 189.529 37.7476 189.762C37.1596 189.995 36.469 190.112 35.6756 190.112ZM35.6756 188.978C36.4596 188.978 37.071 188.819 37.5096 188.502C37.9576 188.175 38.1816 187.737 38.1816 187.186C38.1816 186.645 37.9576 186.22 37.5096 185.912C37.071 185.595 36.4596 185.436 35.6756 185.436C34.901 185.436 34.2943 185.595 33.8556 185.912C33.417 186.22 33.1976 186.645 33.1976 187.186C33.1976 187.737 33.417 188.175 33.8556 188.502C34.2943 188.819 34.901 188.978 35.6756 188.978ZM35.6756 185.268C34.929 185.268 34.2943 185.17 33.7716 184.974C33.249 184.769 32.8476 184.479 32.5676 184.106C32.2876 183.723 32.1476 183.271 32.1476 182.748C32.1476 182.197 32.2923 181.726 32.5816 181.334C32.8803 180.933 33.2956 180.625 33.8276 180.41C34.3596 180.195 34.9756 180.088 35.6756 180.088C36.385 180.088 37.0056 180.195 37.5376 180.41C38.0696 180.625 38.485 180.933 38.7836 181.334C39.0823 181.726 39.2316 182.197 39.2316 182.748C39.2316 183.271 39.0916 183.723 38.8116 184.106C38.5316 184.479 38.1256 184.769 37.5936 184.974C37.0616 185.17 36.4223 185.268 35.6756 185.268ZM35.6756 184.372C36.357 184.372 36.889 184.232 37.2716 183.952C37.6636 183.672 37.8596 183.289 37.8596 182.804C37.8596 182.309 37.659 181.922 37.2576 181.642C36.8563 181.362 36.329 181.222 35.6756 181.222C35.0223 181.222 34.4996 181.362 34.1076 181.642C33.725 181.922 33.5336 182.309 33.5336 182.804C33.5336 183.289 33.7203 183.672 34.0936 183.952C34.4763 184.232 35.0036 184.372 35.6756 184.372ZM44.8674 190.112C44.1021 190.112 43.4161 189.916 42.8094 189.524C42.2121 189.132 41.7361 188.563 41.3814 187.816C41.0361 187.069 40.8634 186.164 40.8634 185.1C40.8634 184.036 41.0361 183.131 41.3814 182.384C41.7361 181.637 42.2121 181.068 42.8094 180.676C43.4161 180.284 44.1021 180.088 44.8674 180.088C45.6234 180.088 46.3047 180.284 46.9114 180.676C47.5181 181.068 47.9941 181.637 48.3394 182.384C48.6847 183.131 48.8574 184.036 48.8574 185.1C48.8574 186.164 48.6847 187.069 48.3394 187.816C47.9941 188.563 47.5181 189.132 46.9114 189.524C46.3047 189.916 45.6234 190.112 44.8674 190.112ZM44.8674 188.866C45.3807 188.866 45.8287 188.726 46.2114 188.446C46.6034 188.166 46.9067 187.746 47.1214 187.186C47.3454 186.626 47.4574 185.931 47.4574 185.1C47.4574 184.269 47.3454 183.574 47.1214 183.014C46.9067 182.454 46.6034 182.034 46.2114 181.754C45.8287 181.474 45.3807 181.334 44.8674 181.334C44.3541 181.334 43.9014 181.474 43.5094 181.754C43.1174 182.034 42.8094 182.454 42.5854 183.014C42.3707 183.574 42.2634 184.269 42.2634 185.1C42.2634 185.931 42.3707 186.626 42.5854 187.186C42.8094 187.746 43.1174 188.166 43.5094 188.446C43.9014 188.726 44.3541 188.866 44.8674 188.866ZM50.9993 190V180.2H52.1473L56.5433 187.606H55.9273L60.2673 180.2H61.4153L61.4293 190H60.0853L60.0713 182.314H60.3933L56.5293 188.81H55.8853L51.9933 182.314H52.3433V190H50.9993Z" fill="#A2A3A5"/>
<path d="M28.324 262V252.76L28.926 253.418H26.112V252.2H29.71V262H28.324ZM31.7136 259.592V258.612L36.7256 252.2H38.2376L33.2676 258.612L32.5536 258.388H40.3796V259.592H31.7136ZM37.1596 262V259.592L37.2016 258.388V256.26H38.5176V262H37.1596ZM45.2229 262.112C44.4575 262.112 43.7715 261.916 43.1649 261.524C42.5675 261.132 42.0915 260.563 41.7369 259.816C41.3915 259.069 41.2189 258.164 41.2189 257.1C41.2189 256.036 41.3915 255.131 41.7369 254.384C42.0915 253.637 42.5675 253.068 43.1649 252.676C43.7715 252.284 44.4575 252.088 45.2229 252.088C45.9789 252.088 46.6602 252.284 47.2669 252.676C47.8735 253.068 48.3495 253.637 48.6949 254.384C49.0402 255.131 49.2129 256.036 49.2129 257.1C49.2129 258.164 49.0402 259.069 48.6949 259.816C48.3495 260.563 47.8735 261.132 47.2669 261.524C46.6602 261.916 45.9789 262.112 45.2229 262.112ZM45.2229 260.866C45.7362 260.866 46.1842 260.726 46.5669 260.446C46.9589 260.166 47.2622 259.746 47.4769 259.186C47.7009 258.626 47.8129 257.931 47.8129 257.1C47.8129 256.269 47.7009 255.574 47.4769 255.014C47.2622 254.454 46.9589 254.034 46.5669 253.754C46.1842 253.474 45.7362 253.334 45.2229 253.334C44.7095 253.334 44.2569 253.474 43.8649 253.754C43.4729 254.034 43.1649 254.454 42.9409 255.014C42.7262 255.574 42.6189 256.269 42.6189 257.1C42.6189 257.931 42.7262 258.626 42.9409 259.186C43.1649 259.746 43.4729 260.166 43.8649 260.446C44.2569 260.726 44.7095 260.866 45.2229 260.866ZM51.3548 262V252.2H52.5028L56.8988 259.606H56.2828L60.6228 252.2H61.7708L61.7848 262H60.4408L60.4268 254.314H60.7488L56.8848 260.81H56.2408L52.3488 254.314H52.6988V262H51.3548Z" fill="#A2A3A5"/>
<line x1="92" y1="45.5" x2="504" y2="45.5" stroke="#ECE9F1"/>
<line x1="92" y1="117.5" x2="504" y2="117.5" stroke="#ECE9F1"/>
<line x1="92" y1="189.5" x2="504" y2="189.5" stroke="#ECE9F1"/>
<line x1="92" y1="261.5" x2="504" y2="261.5" stroke="#ECE9F1"/>
<path d="M92 242.335C110.121 236.194 125.023 198.747 146.645 192.453C158.169 189.098 167.402 195.627 177.702 205.773C188.003 215.918 185.987 220.299 209.153 228.121C228.27 234.575 233.271 164.986 252.004 167.66C270.737 170.333 279.401 86.6655 299.179 93.6498C318.958 100.634 322.909 82.5765 341.501 116.799C360.092 151.022 377.269 71.251 400.607 64.2668C423.945 57.2825 430.023 131.412 441.099 128.618C452.175 125.825 462.147 178.647 471.641 186.33C481.134 194.012 483.826 166.104 504 166.104" stroke="#810019" stroke-width="4" stroke-linecap="round" stroke-linejoin="round"/>
<path d="M94.324 293V283.76L94.926 284.418H92.112V283.2H95.71V293H94.324Z" fill="#A2A3A5"/>
<path d="M284.148 293.112C283.457 293.112 282.785 293.005 282.132 292.79C281.488 292.575 280.96 292.286 280.55 291.922L281.194 290.816C281.52 291.124 281.945 291.376 282.468 291.572C282.99 291.768 283.546 291.866 284.134 291.866C284.88 291.866 285.454 291.707 285.856 291.39C286.257 291.073 286.458 290.648 286.458 290.116C286.458 289.752 286.369 289.435 286.192 289.164C286.014 288.893 285.706 288.688 285.268 288.548C284.838 288.399 284.246 288.324 283.49 288.324H281.264L281.782 283.2H287.312V284.418H282.3L283.028 283.732L282.622 287.778L281.894 287.106H283.784C284.764 287.106 285.552 287.232 286.15 287.484C286.747 287.736 287.181 288.086 287.452 288.534C287.722 288.973 287.858 289.481 287.858 290.06C287.858 290.62 287.722 291.133 287.452 291.6C287.181 292.057 286.77 292.426 286.22 292.706C285.678 292.977 284.988 293.112 284.148 293.112ZM293.027 293.112C292.261 293.112 291.575 292.916 290.969 292.524C290.371 292.132 289.895 291.563 289.541 290.816C289.195 290.069 289.023 289.164 289.023 288.1C289.023 287.036 289.195 286.131 289.541 285.384C289.895 284.637 290.371 284.068 290.969 283.676C291.575 283.284 292.261 283.088 293.027 283.088C293.783 283.088 294.464 283.284 295.071 283.676C295.677 284.068 296.153 284.637 296.499 285.384C296.844 286.131 297.017 287.036 297.017 288.1C297.017 289.164 296.844 290.069 296.499 290.816C296.153 291.563 295.677 292.132 295.071 292.524C294.464 292.916 293.783 293.112 293.027 293.112ZM293.027 291.866C293.54 291.866 293.988 291.726 294.371 291.446C294.763 291.166 295.066 290.746 295.281 290.186C295.505 289.626 295.617 288.931 295.617 288.1C295.617 287.269 295.505 286.574 295.281 286.014C295.066 285.454 294.763 285.034 294.371 284.754C293.988 284.474 293.54 284.334 293.027 284.334C292.513 284.334 292.061 284.474 291.669 284.754C291.277 285.034 290.969 285.454 290.745 286.014C290.53 286.574 290.423 287.269 290.423 288.1C290.423 288.931 290.53 289.626 290.745 290.186C290.969 290.746 291.277 291.166 291.669 291.446C292.061 291.726 292.513 291.866 293.027 291.866Z" fill="#A2A3A5"/>
<path d="M482.395 293V283.76L482.997 284.418H480.183V283.2H483.781V293H482.395ZM489.929 293.112C489.164 293.112 488.478 292.916 487.871 292.524C487.274 292.132 486.798 291.563 486.443 290.816C486.098 290.069 485.925 289.164 485.925 288.1C485.925 287.036 486.098 286.131 486.443 285.384C486.798 284.637 487.274 284.068 487.871 283.676C488.478 283.284 489.164 283.088 489.929 283.088C490.685 283.088 491.366 283.284 491.973 283.676C492.58 284.068 493.056 284.637 493.401 285.384C493.746 286.131 493.919 287.036 493.919 288.1C493.919 289.164 493.746 290.069 493.401 290.816C493.056 291.563 492.58 292.132 491.973 292.524C491.366 292.916 490.685 293.112 489.929 293.112ZM489.929 291.866C490.442 291.866 490.89 291.726 491.273 291.446C491.665 291.166 491.968 290.746 492.183 290.186C492.407 289.626 492.519 288.931 492.519 288.1C492.519 287.269 492.407 286.574 492.183 286.014C491.968 285.454 491.665 285.034 491.273 284.754C490.89 284.474 490.442 284.334 489.929 284.334C489.416 284.334 488.963 284.474 488.571 284.754C488.179 285.034 487.871 285.454 487.647 286.014C487.432 286.574 487.325 287.269 487.325 288.1C487.325 288.931 487.432 289.626 487.647 290.186C487.871 290.746 488.179 291.166 488.571 291.446C488.963 291.726 489.416 291.866 489.929 291.866ZM499.267 293.112C498.501 293.112 497.815 292.916 497.209 292.524C496.611 292.132 496.135 291.563 495.781 290.816C495.435 290.069 495.263 289.164 495.263 288.1C495.263 287.036 495.435 286.131 495.781 285.384C496.135 284.637 496.611 284.068 497.209 283.676C497.815 283.284 498.501 283.088 499.267 283.088C500.023 283.088 500.704 283.284 501.311 283.676C501.917 284.068 502.393 284.637 502.739 285.384C503.084 286.131 503.257 287.036 503.257 288.1C503.257 289.164 503.084 290.069 502.739 290.816C502.393 291.563 501.917 292.132 501.311 292.524C500.704 292.916 500.023 293.112 499.267 293.112ZM499.267 291.866C499.78 291.866 500.228 291.726 500.611 291.446C501.003 291.166 501.306 290.746 501.521 290.186C501.745 289.626 501.857 288.931 501.857 288.1C501.857 287.269 501.745 286.574 501.521 286.014C501.306 285.454 501.003 285.034 500.611 284.754C500.228 284.474 499.78 284.334 499.267 284.334C498.753 284.334 498.301 284.474 497.909 284.754C497.517 285.034 497.209 285.454 496.985 286.014C496.77 286.574 496.663 287.269 496.663 288.1C496.663 288.931 496.77 289.626 496.985 290.186C497.209 290.746 497.517 291.166 497.909 291.446C498.301 291.726 498.753 291.866 499.267 291.866Z" fill="#A2A3A5"/>
<line x1="431.5" y1="113" x2="431.5" y2="261" stroke="#810019" stroke-dasharray="4.4 4.4"/>
<g filter="url(#filter1_dd_16983_1482)">
<rect x="421" y="99.7085" width="20" height="19.9478" rx="9.9739" fill="#810019"/>
<rect x="423" y="101.708" width="16" height="15.9478" rx="7.9739" stroke="white" stroke-width="4"/>
</g>
<defs>
<filter id="filter0_d_16983_1482" x="0" y="0" width="530" height="342" filterUnits="userSpaceOnUse" color-interpolation-filters="sRGB">
<feFlood flood-opacity="0" result="BackgroundImageFix"/>
<feColorMatrix in="SourceAlpha" type="matrix" values="0 0 0 0 0 0 0 0 0 0 0 0 0 0 0 0 0 0 127 0" result="hardAlpha"/>
<feOffset dy="1"/>
<feGaussianBlur stdDeviation="2"/>
<feComposite in2="hardAlpha" operator="out"/>
<feColorMatrix type="matrix" values="0 0 0 0 0 0 0 0 0 0 0 0 0 0 0 0 0 0 0.25 0"/>
<feBlend mode="normal" in2="BackgroundImageFix" result="effect1_dropShadow_16983_1482"/>
<feBlend mode="normal" in="SourceGraphic" in2="effect1_dropShadow_16983_1482" result="shape"/>
</filter>
<filter id="filter1_dd_16983_1482" x="415.667" y="97.0418" width="30.6667" height="30.6144" filterUnits="userSpaceOnUse" color-interpolation-filters="sRGB">
<feFlood flood-opacity="0" result="BackgroundImageFix"/>
<feColorMatrix in="SourceAlpha" type="matrix" values="0 0 0 0 0 0 0 0 0 0 0 0 0 0 0 0 0 0 127 0" result="hardAlpha"/>
<feOffset dy="2.66667"/>
<feGaussianBlur stdDeviation="2.66667"/>
<feColorMatrix type="matrix" values="0 0 0 0 0.196487 0 0 0 0 0.196487 0 0 0 0 0.279476 0 0 0 0.06 0"/>
<feBlend mode="multiply" in2="BackgroundImageFix" result="effect1_dropShadow_16983_1482"/>
<feColorMatrix in="SourceAlpha" type="matrix" values="0 0 0 0 0 0 0 0 0 0 0 0 0 0 0 0 0 0 127 0" result="hardAlpha"/>
<feOffset dy="2.66667"/>
<feGaussianBlur stdDeviation="1.33333"/>
<feColorMatrix type="matrix" values="0 0 0 0 0.196487 0 0 0 0 0.196487 0 0 0 0 0.279476 0 0 0 0.06 0"/>
<feBlend mode="multiply" in2="effect1_dropShadow_16983_1482" result="effect2_dropShadow_16983_1482"/>
<feBlend mode="normal" in="SourceGraphic" in2="effect2_dropShadow_16983_1482" result="shape"/>
</filter>
</defs>
</svg>
