<svg width="22" height="19" viewBox="0 0 22 19" fill="none" xmlns="http://www.w3.org/2000/svg">
<path d="M6.40664 1.39107L5.95977 2.71429H2.75C1.2332 2.71429 0 3.93147 0 5.42857V16.2857C0 17.7828 1.2332 19 2.75 19H19.25C20.7668 19 22 17.7828 22 16.2857V5.42857C22 3.93147 20.7668 2.71429 19.25 2.71429H16.0402L15.5934 1.39107C15.3141 0.559822 14.5277 0 13.6383 0H8.36172C7.47227 0 6.68594 0.559822 6.40664 1.39107ZM11 6.78571C12.094 6.78571 13.1432 7.21467 13.9168 7.97821C14.6904 8.74175 15.125 9.77733 15.125 10.8571C15.125 11.937 14.6904 12.9725 13.9168 13.7361C13.1432 14.4996 12.094 14.9286 11 14.9286C9.90598 14.9286 8.85677 14.4996 8.08318 13.7361C7.3096 12.9725 6.875 11.937 6.875 10.8571C6.875 9.77733 7.3096 8.74175 8.08318 7.97821C8.85677 7.21467 9.90598 6.78571 11 6.78571Z" fill="#9D9D9D"/>
</svg>
