<svg width="110" height="110" viewBox="0 0 110 110" fill="none" xmlns="http://www.w3.org/2000/svg">
<circle cx="55" cy="55" r="53" stroke="#810019" stroke-width="4"/>
<mask id="path-2-inside-1_13279_5033" fill="white">
<path d="M22.9429 31.1351C22.5496 30.982 22.1345 30.9383 21.7194 30.982C21.348 31.332 20.6925 31.4195 20.19 31.4632C19.6874 30.9602 19.0538 30.5008 18.4202 30.1727C18.0051 29.954 17.5025 29.7353 17.3714 29.276C17.1529 28.5542 15.9076 28.2479 15.1647 28.4229C14.2252 28.1605 13.1546 28.4885 12.3899 29.1228C12.0621 29.3853 12.4336 30.0634 12.7176 30.3915C13.0016 30.7196 13.3731 31.0695 13.2857 31.4851C12.9361 31.6601 12.4554 31.6819 12.084 31.6601C11.8436 31.6601 11.6251 31.5945 11.4067 31.6819C11.21 31.7257 11.0352 31.9663 11.1008 32.1631C10.9478 32.4256 10.773 32.5569 10.9478 32.8193C11.0789 33.0162 11.3193 33.1693 11.3193 33.4099C11.3193 33.6067 11.1663 33.7599 10.9915 33.8255C10.8167 33.913 10.6419 33.9567 10.4671 34.0442C9.96462 34.3504 9.96462 35.0722 10.0302 35.6628C10.3579 36.0565 10.4016 36.7345 10.2487 37.2157C10.1831 37.3907 10.0957 37.5876 10.1613 37.7844C10.2268 38.0031 10.489 38.0688 10.6856 38.1344C11.1445 38.2437 11.6907 38.3531 12.0403 38.0469C13.0016 37.2595 14.4874 37.6532 15.7109 37.9375C16.126 38.025 16.563 38.1781 16.8252 38.55C17.1529 39.0312 17.0219 39.6873 16.7378 40.1904C16.4756 40.6935 16.0823 41.1528 15.9076 41.6996C15.7546 42.2246 15.7983 42.7714 15.842 43.2963C15.9076 43.9525 15.9731 44.6524 16.3445 45.1992C16.7378 45.7679 17 46.621 16.9563 47.299C16.9345 47.8458 16.7378 48.4145 16.7815 48.9613C16.8689 49.9675 17.7429 50.733 18.6387 51.2142C19.5782 51.7173 20.3647 52.5922 20.6925 53.5983C20.8454 54.1014 20.911 54.6482 21.0421 55.1513C21.2824 56.0481 21.8286 56.8355 22.5496 57.4261C23.074 57.8416 23.9261 57.9948 24.6035 58.1041C24.953 58.1697 25.3245 58.2135 25.5648 58.4541C25.6741 58.5634 25.7615 58.6947 25.8925 58.804C26.4388 59.3509 27.4657 59.1321 28.0119 59.6571C28.1648 59.7883 28.2522 59.9852 28.3833 60.1383C28.7329 60.5538 29.2791 60.7945 29.8035 60.7507C29.6724 61.1663 30.175 61.6475 30.022 62.0412C29.8909 62.3693 29.5413 62.5005 29.2791 62.7411C28.8422 63.1567 28.7766 63.8347 28.9514 64.4034C29.148 64.9721 29.5413 65.4315 29.9346 65.8908C30.6775 66.7219 31.5733 67.1156 32.3817 67.8812C33.1246 68.5811 33.2994 69.7404 33.1246 70.7465C32.9498 71.7526 32.5128 72.715 32.2069 73.6993C31.617 75.5366 31.464 77.5489 32.0321 79.3862C32.6002 81.2235 33.933 82.864 35.7027 83.5858C35.8994 83.6732 36.1397 83.5201 36.2927 83.367C36.4456 83.2139 36.4675 82.9514 36.3582 82.7765C36.0305 82.1859 35.4624 81.6828 35.0473 81.1579C34.9162 80.9829 34.7851 80.8079 34.7851 80.5892C34.8069 80.3486 35.0036 80.1736 35.1565 79.9986C35.375 79.7143 35.5061 79.3643 35.5061 78.9925C35.5061 78.6425 35.3095 78.3144 35.3095 77.9864C35.3313 77.6583 35.5061 77.2864 35.8338 77.1771C35.9868 77.1333 36.1397 77.1333 36.2927 77.0677C36.7515 76.8708 36.686 76.1491 37.0137 75.7772C37.1666 75.6022 37.407 75.5147 37.6036 75.4054C38.4994 74.9679 39.2423 74.1149 39.3297 73.1306C39.3952 72.3432 39.1112 71.3808 39.7011 70.8559C40.2473 70.3747 41.0995 70.7028 41.8205 70.5715C42.1045 70.5278 42.3012 70.2434 42.4541 69.981C42.5852 69.7185 42.607 69.4123 42.5633 69.1061C42.4978 68.7342 42.3448 68.3843 42.3885 68.0343C42.4322 67.5312 42.8474 67.1156 43.1533 66.7219C43.5247 66.2407 43.7869 65.6721 43.918 65.0815C44.0709 64.4034 43.6339 63.5942 43.0222 63.2661C42.4104 62.938 41.6894 62.9161 40.9902 62.8942C40.291 62.8724 39.5482 62.8286 38.9801 62.413C38.4557 62.0412 38.1717 61.4506 37.7566 60.9476C37.0574 60.1164 36.0523 59.6571 35.0691 59.1977C34.6977 59.0228 34.2826 58.8478 33.9111 58.979C33.7582 59.0228 33.6271 59.1321 33.4742 59.154C33.0372 59.2415 32.6876 58.8259 32.3162 58.6291C31.5077 58.1916 30.3716 58.8259 30.2842 59.7227C29.8691 59.8758 29.1044 59.7446 28.864 59.3727C28.6892 59.1103 28.6237 58.7384 28.3396 58.6072C28.1867 58.5416 27.9901 58.5634 27.859 58.4541C27.6405 58.2791 27.8153 57.9291 27.859 57.6667C27.9245 57.2292 27.5968 56.8136 27.1816 56.6168C26.7884 56.4199 26.3077 56.398 25.8707 56.398C25.4337 56.3762 24.953 56.3543 24.5598 56.1574C23.7732 55.7637 23.4673 54.7139 23.795 53.9046C24.1446 53.0953 25.0186 52.6141 25.8925 52.636C26.7447 52.6578 27.6405 53.2921 27.6405 54.1452C27.6405 54.3639 27.99 54.3858 28.1867 54.2764C28.3833 54.167 28.4707 53.9483 28.5144 53.7515C28.5581 53.5327 28.5581 53.314 28.6237 53.1172C28.7766 52.636 29.2573 52.286 29.7598 52.286C30.2842 52.286 30.6556 51.761 31.0271 51.4111C31.3985 51.0392 31.617 50.4924 31.464 49.9894C31.3766 49.7269 31.2019 49.4425 31.2893 49.1801C31.3548 48.9613 31.5733 48.852 31.7699 48.7645C32.338 48.5239 32.9498 48.4145 33.5615 48.4364C34.0859 48.4583 34.37 48.1302 34.6321 47.6709C34.8288 47.3428 34.9162 46.9272 35.2221 46.7085C35.6809 46.3804 36.3364 46.6647 36.9044 46.621C37.7347 46.5554 38.3902 45.6148 38.1498 44.8274C38.0406 44.4337 37.7784 44.1275 37.5599 43.7994C37.254 43.3401 37.0574 42.8151 36.9481 42.2902C36.8389 41.7871 36.817 41.2403 36.4893 40.8685C35.9868 40.8903 35.3532 40.8685 34.9162 41.1091C34.8288 40.5841 34.7195 40.0373 34.4137 39.6217C34.0859 39.2061 33.4742 38.9655 33.0153 39.228C32.5783 39.4905 32.4691 40.1029 32.5565 40.606C32.6439 41.1091 32.8405 41.6121 32.8405 42.1152C32.8187 42.6401 32.4691 43.2088 31.9447 43.187C31.6825 43.187 31.4422 43.012 31.2456 42.8151C30.9834 42.5527 30.7649 42.2027 30.4153 42.0277C30.1531 41.8965 29.8472 41.8965 29.5632 41.8309C28.58 41.6121 27.9027 40.4966 28.1867 39.5124C28.4489 38.55 29.6069 37.9375 30.5682 38.2437C31.7262 37.8282 32.1851 36.3627 31.7262 35.2253C31.2674 34.0879 30.022 33.388 28.7985 33.3224C28.4489 33.3005 28.0774 33.3443 27.7279 33.2568C26.7447 33.0162 26.2203 31.9225 25.3682 31.3757C24.8656 31.0258 23.5766 31.3757 22.9429 31.1351Z"/>
</mask>
<path d="M22.9429 31.1351C22.5496 30.982 22.1345 30.9383 21.7194 30.982C21.348 31.332 20.6925 31.4195 20.19 31.4632C19.6874 30.9602 19.0538 30.5008 18.4202 30.1727C18.0051 29.954 17.5025 29.7353 17.3714 29.276C17.1529 28.5542 15.9076 28.2479 15.1647 28.4229C14.2252 28.1605 13.1546 28.4885 12.3899 29.1228C12.0621 29.3853 12.4336 30.0634 12.7176 30.3915C13.0016 30.7196 13.3731 31.0695 13.2857 31.4851C12.9361 31.6601 12.4554 31.6819 12.084 31.6601C11.8436 31.6601 11.6251 31.5945 11.4067 31.6819C11.21 31.7257 11.0352 31.9663 11.1008 32.1631C10.9478 32.4256 10.773 32.5569 10.9478 32.8193C11.0789 33.0162 11.3193 33.1693 11.3193 33.4099C11.3193 33.6067 11.1663 33.7599 10.9915 33.8255C10.8167 33.913 10.6419 33.9567 10.4671 34.0442C9.96462 34.3504 9.96462 35.0722 10.0302 35.6628C10.3579 36.0565 10.4016 36.7345 10.2487 37.2157C10.1831 37.3907 10.0957 37.5876 10.1613 37.7844C10.2268 38.0031 10.489 38.0688 10.6856 38.1344C11.1445 38.2437 11.6907 38.3531 12.0403 38.0469C13.0016 37.2595 14.4874 37.6532 15.7109 37.9375C16.126 38.025 16.563 38.1781 16.8252 38.55C17.1529 39.0312 17.0219 39.6873 16.7378 40.1904C16.4756 40.6935 16.0823 41.1528 15.9076 41.6996C15.7546 42.2246 15.7983 42.7714 15.842 43.2963C15.9076 43.9525 15.9731 44.6524 16.3445 45.1992C16.7378 45.7679 17 46.621 16.9563 47.299C16.9345 47.8458 16.7378 48.4145 16.7815 48.9613C16.8689 49.9675 17.7429 50.733 18.6387 51.2142C19.5782 51.7173 20.3647 52.5922 20.6925 53.5983C20.8454 54.1014 20.911 54.6482 21.0421 55.1513C21.2824 56.0481 21.8286 56.8355 22.5496 57.4261C23.074 57.8416 23.9261 57.9948 24.6035 58.1041C24.953 58.1697 25.3245 58.2135 25.5648 58.4541C25.6741 58.5634 25.7615 58.6947 25.8925 58.804C26.4388 59.3509 27.4657 59.1321 28.0119 59.6571C28.1648 59.7883 28.2522 59.9852 28.3833 60.1383C28.7329 60.5538 29.2791 60.7945 29.8035 60.7507C29.6724 61.1663 30.175 61.6475 30.022 62.0412C29.8909 62.3693 29.5413 62.5005 29.2791 62.7411C28.8422 63.1567 28.7766 63.8347 28.9514 64.4034C29.148 64.9721 29.5413 65.4315 29.9346 65.8908C30.6775 66.7219 31.5733 67.1156 32.3817 67.8812C33.1246 68.5811 33.2994 69.7404 33.1246 70.7465C32.9498 71.7526 32.5128 72.715 32.2069 73.6993C31.617 75.5366 31.464 77.5489 32.0321 79.3862C32.6002 81.2235 33.933 82.864 35.7027 83.5858C35.8994 83.6732 36.1397 83.5201 36.2927 83.367C36.4456 83.2139 36.4675 82.9514 36.3582 82.7765C36.0305 82.1859 35.4624 81.6828 35.0473 81.1579C34.9162 80.9829 34.7851 80.8079 34.7851 80.5892C34.8069 80.3486 35.0036 80.1736 35.1565 79.9986C35.375 79.7143 35.5061 79.3643 35.5061 78.9925C35.5061 78.6425 35.3095 78.3144 35.3095 77.9864C35.3313 77.6583 35.5061 77.2864 35.8338 77.1771C35.9868 77.1333 36.1397 77.1333 36.2927 77.0677C36.7515 76.8708 36.686 76.1491 37.0137 75.7772C37.1666 75.6022 37.407 75.5147 37.6036 75.4054C38.4994 74.9679 39.2423 74.1149 39.3297 73.1306C39.3952 72.3432 39.1112 71.3808 39.7011 70.8559C40.2473 70.3747 41.0995 70.7028 41.8205 70.5715C42.1045 70.5278 42.3012 70.2434 42.4541 69.981C42.5852 69.7185 42.607 69.4123 42.5633 69.1061C42.4978 68.7342 42.3448 68.3843 42.3885 68.0343C42.4322 67.5312 42.8474 67.1156 43.1533 66.7219C43.5247 66.2407 43.7869 65.6721 43.918 65.0815C44.0709 64.4034 43.6339 63.5942 43.0222 63.2661C42.4104 62.938 41.6894 62.9161 40.9902 62.8942C40.291 62.8724 39.5482 62.8286 38.9801 62.413C38.4557 62.0412 38.1717 61.4506 37.7566 60.9476C37.0574 60.1164 36.0523 59.6571 35.0691 59.1977C34.6977 59.0228 34.2826 58.8478 33.9111 58.979C33.7582 59.0228 33.6271 59.1321 33.4742 59.154C33.0372 59.2415 32.6876 58.8259 32.3162 58.6291C31.5077 58.1916 30.3716 58.8259 30.2842 59.7227C29.8691 59.8758 29.1044 59.7446 28.864 59.3727C28.6892 59.1103 28.6237 58.7384 28.3396 58.6072C28.1867 58.5416 27.9901 58.5634 27.859 58.4541C27.6405 58.2791 27.8153 57.9291 27.859 57.6667C27.9245 57.2292 27.5968 56.8136 27.1816 56.6168C26.7884 56.4199 26.3077 56.398 25.8707 56.398C25.4337 56.3762 24.953 56.3543 24.5598 56.1574C23.7732 55.7637 23.4673 54.7139 23.795 53.9046C24.1446 53.0953 25.0186 52.6141 25.8925 52.636C26.7447 52.6578 27.6405 53.2921 27.6405 54.1452C27.6405 54.3639 27.99 54.3858 28.1867 54.2764C28.3833 54.167 28.4707 53.9483 28.5144 53.7515C28.5581 53.5327 28.5581 53.314 28.6237 53.1172C28.7766 52.636 29.2573 52.286 29.7598 52.286C30.2842 52.286 30.6556 51.761 31.0271 51.4111C31.3985 51.0392 31.617 50.4924 31.464 49.9894C31.3766 49.7269 31.2019 49.4425 31.2893 49.1801C31.3548 48.9613 31.5733 48.852 31.7699 48.7645C32.338 48.5239 32.9498 48.4145 33.5615 48.4364C34.0859 48.4583 34.37 48.1302 34.6321 47.6709C34.8288 47.3428 34.9162 46.9272 35.2221 46.7085C35.6809 46.3804 36.3364 46.6647 36.9044 46.621C37.7347 46.5554 38.3902 45.6148 38.1498 44.8274C38.0406 44.4337 37.7784 44.1275 37.5599 43.7994C37.254 43.3401 37.0574 42.8151 36.9481 42.2902C36.8389 41.7871 36.817 41.2403 36.4893 40.8685C35.9868 40.8903 35.3532 40.8685 34.9162 41.1091C34.8288 40.5841 34.7195 40.0373 34.4137 39.6217C34.0859 39.2061 33.4742 38.9655 33.0153 39.228C32.5783 39.4905 32.4691 40.1029 32.5565 40.606C32.6439 41.1091 32.8405 41.6121 32.8405 42.1152C32.8187 42.6401 32.4691 43.2088 31.9447 43.187C31.6825 43.187 31.4422 43.012 31.2456 42.8151C30.9834 42.5527 30.7649 42.2027 30.4153 42.0277C30.1531 41.8965 29.8472 41.8965 29.5632 41.8309C28.58 41.6121 27.9027 40.4966 28.1867 39.5124C28.4489 38.55 29.6069 37.9375 30.5682 38.2437C31.7262 37.8282 32.1851 36.3627 31.7262 35.2253C31.2674 34.0879 30.022 33.388 28.7985 33.3224C28.4489 33.3005 28.0774 33.3443 27.7279 33.2568C26.7447 33.0162 26.2203 31.9225 25.3682 31.3757C24.8656 31.0258 23.5766 31.3757 22.9429 31.1351Z" fill="white" stroke="#414141" stroke-width="2" mask="url(#path-2-inside-1_13279_5033)"/>
<path d="M38.2084 29.5609L38.2094 29.5594C38.3191 29.3902 38.505 29.3217 38.9569 29.2571C38.9856 29.253 39.0158 29.2488 39.0471 29.2445C39.2294 29.2193 39.4505 29.1888 39.6575 29.1328C39.9074 29.0652 40.1806 28.9507 40.415 28.7273C40.8321 28.3521 40.9979 27.855 41.1143 27.506C41.1333 27.449 41.151 27.3959 41.1683 27.348C41.2991 26.9847 41.4278 26.7521 41.7946 26.5958L41.7956 26.5954C42.036 26.4923 42.3174 26.4814 42.6775 26.522C42.8228 26.5384 42.967 26.5611 43.1228 26.5857C43.1606 26.5916 43.1992 26.5977 43.2386 26.6038C43.4327 26.634 43.6442 26.6645 43.856 26.6763L43.856 26.6763L43.861 26.6765C44.3051 26.6967 44.7759 26.6802 45.2201 26.6647C45.4656 26.6561 45.7029 26.6478 45.9231 26.6461C46.5771 26.6412 47.1834 26.6871 47.7717 26.8952C48.7508 27.2468 49.5034 28.057 49.5189 28.9255L49.5191 28.935L49.5196 28.9443C49.5351 29.2229 49.4743 29.5011 49.3654 29.7917L49.3652 29.7916L49.3615 29.8023C49.113 30.514 48.6836 31.1555 48.2126 31.8593C48.1668 31.9277 48.1206 31.9967 48.0741 32.0664C47.5666 32.8282 47.0311 33.671 46.813 34.6588L46.813 34.6588L46.8121 34.6631C46.7502 34.956 46.7132 35.2579 46.68 35.5369C46.6782 35.5521 46.6764 35.5672 46.6746 35.5822C46.6426 35.8513 46.6132 36.0985 46.5683 36.3334C46.4734 36.8295 46.325 37.175 46.0427 37.4035C45.8104 37.5857 45.5027 37.6683 45.0673 37.7482C45.0183 37.7572 44.967 37.7662 44.914 37.7755C44.5379 37.8417 44.0732 37.9234 43.6601 38.1301C43.328 38.2962 43.0548 38.5254 42.8203 38.7464C42.7172 38.8435 42.6163 38.9442 42.5213 39.0392C42.5083 39.0522 42.4954 39.0651 42.4826 39.0778C42.374 39.1861 42.2718 39.287 42.168 39.3815L42.1679 39.3814L42.1595 39.3894C41.7577 39.7722 41.3329 39.9648 40.9954 39.8833L40.9954 39.8832L40.9842 39.8807C40.7187 39.823 40.4642 39.5846 40.2389 39.2103C40.006 38.8019 39.8387 38.4181 39.789 38.0221C39.7393 37.6051 39.8118 37.1769 39.9557 36.7114C40.0543 36.3926 40.1743 36.0891 40.3018 35.7668C40.367 35.6019 40.4342 35.432 40.5015 35.2527C40.6995 34.7349 40.8566 34.1306 40.8683 33.5302C40.8801 32.9281 40.7454 32.2948 40.3195 31.7741C40.057 31.4467 39.7275 31.2249 39.436 31.0483C39.3434 30.9923 39.2572 30.9419 39.1757 30.8943C38.9792 30.7796 38.8105 30.6812 38.6483 30.5579C38.4558 30.4114 38.2902 30.1998 38.2089 29.9928C38.1285 29.7883 38.1496 29.6509 38.2084 29.5609Z" fill="white" stroke="#414141"/>
<mask id="path-4-inside-2_13279_5033" fill="white">
<path d="M67.5778 35.3311C66.899 34.6742 65.7822 35.3092 65.0814 35.9441C64.3807 36.5791 63.68 37.1922 62.9792 37.8271C62.4537 38.3088 61.8843 38.7905 61.1836 38.9C60.4828 39.0095 59.6507 38.5715 59.6288 37.8709C60.1105 37.4111 61.0522 38.0899 61.4901 37.6082C61.8843 37.1703 61.3149 36.5572 60.8113 36.2726C59.8916 35.7471 58.9499 35.1997 57.8769 35.0464C56.8258 34.8932 55.6214 35.2654 55.0739 36.1631C54.6141 36.9513 54.7017 37.9585 54.2199 38.7467C53.9352 39.2284 53.4535 39.5787 53.125 40.0604C52.7965 40.5202 52.6651 41.2209 53.0593 41.6369C53.3878 41.9653 53.9352 41.9653 54.2637 42.2937C54.5046 42.5564 54.5922 42.9725 54.9206 43.1038C55.2929 43.2571 55.709 42.9068 55.7966 42.5127C55.8842 42.1185 55.7528 41.7025 55.6871 41.3084C55.49 40.1261 56.1032 38.6591 57.2857 38.484C57.5484 38.484 57.6579 38.8781 57.5265 39.1189C57.3951 39.3598 57.1762 39.5349 57.0448 39.7758C56.8039 40.2356 57.0886 40.8705 57.5703 41.0019C58.0959 41.1333 58.9499 41.0238 58.8842 41.5493C58.8185 42.1185 57.7674 41.7463 57.4389 42.2061C57.2419 42.4689 57.417 42.863 57.417 43.1914C57.417 43.8483 56.6944 44.2643 56.0375 44.3299C55.3805 44.3737 54.7236 44.1767 54.0666 44.2424C53.4097 44.3081 52.7089 44.7678 52.7308 45.4247C51.833 45.8407 50.8914 46.191 49.9278 46.4538C49.9716 47.1544 51.3074 47.2201 51.3074 47.9426C51.3074 48.3586 50.7819 48.5995 50.3439 48.5557C49.9278 48.5338 49.4899 48.3586 49.0738 48.4681C48.3512 48.6652 48.1103 49.6504 48.5045 50.2854C48.8986 50.8985 49.7089 51.1612 50.4534 51.0955C50.7381 51.0736 51.0666 50.986 51.2417 50.7671C51.4169 50.5481 51.4388 50.2416 51.5045 49.9789C51.6797 49.3658 52.1834 48.8622 52.7965 48.7309C53.1469 48.6433 53.563 48.6433 53.76 48.3367C54.5484 48.7746 55.1177 49.6067 55.2053 50.5044C55.4681 50.8328 56.0375 50.4168 55.9718 50.0008C55.9061 49.5848 55.5557 49.3001 55.271 48.9936C54.9863 48.6871 54.7455 48.2273 54.9644 47.8769C56.3221 48.2711 57.417 49.4534 57.7236 50.8328C58.2054 50.7452 58.4682 50.0884 58.1835 49.6942C58.3368 49.3658 58.8623 49.5629 59.0156 49.8694C59.1689 50.1759 59.147 50.5919 59.3879 50.8766C60.0229 51.7086 61.7529 50.7014 62.2785 51.5991C62.6507 52.2341 61.8186 52.9785 61.0741 52.9566C60.3514 52.9347 59.6726 52.5187 58.9499 52.453C58.1397 52.3654 57.3514 52.7158 56.563 52.8033C55.7528 52.8909 54.7674 52.5844 54.5922 51.7962C54.5484 51.5772 54.5703 51.3583 54.4608 51.1612C54.3075 50.8985 53.9352 50.8328 53.6287 50.8766C52.2929 51.0298 50.9352 52.4092 49.8183 51.6429C49.1176 53.0223 47.3876 53.5259 46.4241 54.752C45.373 56.0657 45.4606 58.1019 46.4898 59.4375C47.4971 60.7731 49.3147 61.4081 50.979 61.1891C51.3512 61.1454 51.7673 61.0578 52.1177 61.211C52.468 61.3643 52.687 61.6927 52.9936 61.9336C53.2783 62.1744 53.7819 62.3058 54.0228 61.9993C53.7381 62.6999 53.8257 63.51 54.2199 64.145C54.6579 64.8237 55.4681 65.3492 55.4462 66.1593C55.4462 66.5753 55.2053 66.9475 55.0739 67.3417C54.5484 69.1808 56.7163 70.6697 57.0667 72.5527C57.1543 73.0563 57.1543 73.6693 57.5922 73.954C57.7893 74.0853 58.0302 74.1072 58.2711 74.1291C59.4755 74.2167 61.0084 73.8445 61.2492 72.6622C61.3149 72.3337 61.2711 71.9834 61.2711 71.6331C61.293 70.604 61.9281 69.6187 62.8478 69.1589C63.0887 69.0276 63.3734 68.94 63.5705 68.7429C64.0084 68.305 63.9208 67.5825 63.68 67.0132C63.461 66.444 63.1325 65.8747 63.1982 65.2616C63.3296 64.2763 64.3807 63.7728 65.169 63.1816C66.3734 62.3058 67.1837 60.9264 67.4027 59.4594C66.3077 59.8098 64.9501 60.0944 64.1179 59.3062C63.8332 59.0215 63.6581 58.6712 63.4829 58.299C62.9573 57.2042 62.4537 56.1314 61.9281 55.0366C61.8624 54.8834 61.7967 54.7301 61.8405 54.5768C61.9938 54.1827 62.6069 54.5111 62.8259 54.8615C63.6581 56.1533 64.4026 57.4889 65.0595 58.8902C66.3953 58.6493 67.6873 58.08 68.7822 57.2699C69.1326 57.0072 69.483 56.7007 69.5925 56.2846C69.702 55.8686 69.483 55.3213 69.0669 55.2556C68.8917 55.2337 68.7385 55.2775 68.5633 55.2775C67.5559 55.387 66.68 54.6206 66.0012 53.8324C66.461 53.3288 67.2713 53.6135 67.9063 53.8981C69.0231 54.4017 70.1837 54.7739 71.3881 54.9709C71.6947 55.0147 72.0013 55.0585 72.2641 55.2118C72.4612 55.2994 72.6144 55.4526 72.7677 55.584C74.1473 56.8539 75.1765 58.5179 75.7021 60.3352C76.2277 60.4447 76.5999 59.8098 76.6437 59.2624C76.6875 58.715 76.6218 58.1019 77.016 57.7297C77.3226 57.4232 77.8262 57.4013 78.089 57.051C78.4175 56.635 78.2423 55.9343 78.6365 55.5621C79.1401 55.1023 79.9285 55.6716 80.1912 56.2846C80.454 56.8977 80.5416 57.664 81.111 58.0363C81.4176 57.9925 81.7022 57.9487 82.0088 57.9049C82.0088 59.4156 82.5344 60.9264 83.476 62.1306C83.9797 61.8679 83.7607 61.0797 83.4322 60.598C83.1037 60.1163 82.7971 59.3937 83.257 59.0434C83.8921 59.0434 84.1767 59.9192 84.7899 60.0725C85.403 60.2258 85.9505 59.5032 85.841 58.8683C85.7315 58.2552 85.206 57.7954 84.6585 57.4889C84.1548 56.9415 84.8775 56.0876 85.6001 55.9562C86.3228 55.8249 87.1111 56.0438 87.7681 55.7154C88.5564 55.3213 88.8192 54.2922 88.644 53.4383C88.4688 52.5844 87.9651 51.84 87.5491 51.0736C87.1987 50.4168 87.0235 49.3877 87.7024 49.1031C87.8775 49.0155 88.0965 49.0374 88.2936 49.0155C90.8995 48.906 93.0674 46.1472 92.5419 43.5855C92.4324 43.1038 92.2572 42.6221 91.9068 42.2718C91.2937 41.6369 90.2426 41.4836 89.7608 40.7392C89.1914 39.8196 89.8922 38.5934 90.8119 38.0023C91.7097 37.4111 92.8266 37.1484 93.6806 36.4696C93.8996 36.4696 94.031 36.2507 94.0748 36.0098C94.0966 35.8785 94.0748 35.7252 94.0748 35.5938C94.0748 35.1997 94.3594 34.8275 94.7317 34.718C95.104 34.6085 95.5419 34.7618 95.7609 35.1121C96.0237 35.5281 95.9142 36.0536 95.7171 36.4915C95.52 36.9294 95.2573 37.3673 95.2135 37.8271C95.1697 38.3088 95.4324 38.8562 95.9142 38.9219C96.5055 38.9876 96.8777 38.2869 96.9215 37.7176C96.9653 37.1265 96.8558 36.4915 97.1624 35.9879C97.6442 35.2435 98.9581 35.0683 99.0019 34.1706C99.0238 33.4481 98.1259 33.0321 97.9507 32.3315C97.8851 32.0468 97.9508 31.7622 97.9726 31.4557C98.0821 30.3828 97.6004 29.2443 96.7463 28.5874C95.8923 27.9087 94.7098 27.6897 93.6587 28.04C93.3302 28.1495 93.0017 28.3247 92.6514 28.4122C92.1477 28.5436 91.6222 28.4998 91.0966 28.4779C90.155 28.4122 89.2352 28.3466 88.2936 28.2809C87.4615 28.2152 86.5637 28.1714 85.841 28.5655C84.768 29.1348 84.1548 30.558 82.9285 30.6893C82.0745 30.7988 81.3081 30.2076 80.4978 29.8792C79.2058 29.3756 77.6291 29.6165 76.5561 30.4923C76.1401 30.2952 76.2715 29.6822 76.1401 29.2443C75.9868 28.7845 75.505 28.5217 75.0233 28.4779C74.5415 28.4341 74.0816 28.5874 73.6218 28.7188C72.6363 29.0472 71.5195 29.5727 71.4319 30.6017C71.41 30.8864 71.4757 31.1929 71.3443 31.4557C71.1692 31.8279 70.7093 31.9592 70.4246 32.2439C70.0742 32.5942 70.0305 33.1197 70.0086 33.6233C69.9867 34.105 69.9867 34.6304 69.702 35.0464C69.4173 35.4843 67.9282 35.6814 67.5778 35.3311Z"/>
</mask>
<path d="M67.5778 35.3311C66.899 34.6742 65.7822 35.3092 65.0814 35.9441C64.3807 36.5791 63.68 37.1922 62.9792 37.8271C62.4537 38.3088 61.8843 38.7905 61.1836 38.9C60.4828 39.0095 59.6507 38.5715 59.6288 37.8709C60.1105 37.4111 61.0522 38.0899 61.4901 37.6082C61.8843 37.1703 61.3149 36.5572 60.8113 36.2726C59.8916 35.7471 58.9499 35.1997 57.8769 35.0464C56.8258 34.8932 55.6214 35.2654 55.0739 36.1631C54.6141 36.9513 54.7017 37.9585 54.2199 38.7467C53.9352 39.2284 53.4535 39.5787 53.125 40.0604C52.7965 40.5202 52.6651 41.2209 53.0593 41.6369C53.3878 41.9653 53.9352 41.9653 54.2637 42.2937C54.5046 42.5564 54.5922 42.9725 54.9206 43.1038C55.2929 43.2571 55.709 42.9068 55.7966 42.5127C55.8842 42.1185 55.7528 41.7025 55.6871 41.3084C55.49 40.1261 56.1032 38.6591 57.2857 38.484C57.5484 38.484 57.6579 38.8781 57.5265 39.1189C57.3951 39.3598 57.1762 39.5349 57.0448 39.7758C56.8039 40.2356 57.0886 40.8705 57.5703 41.0019C58.0959 41.1333 58.9499 41.0238 58.8842 41.5493C58.8185 42.1185 57.7674 41.7463 57.4389 42.2061C57.2419 42.4689 57.417 42.863 57.417 43.1914C57.417 43.8483 56.6944 44.2643 56.0375 44.3299C55.3805 44.3737 54.7236 44.1767 54.0666 44.2424C53.4097 44.3081 52.7089 44.7678 52.7308 45.4247C51.833 45.8407 50.8914 46.191 49.9278 46.4538C49.9716 47.1544 51.3074 47.2201 51.3074 47.9426C51.3074 48.3586 50.7819 48.5995 50.3439 48.5557C49.9278 48.5338 49.4899 48.3586 49.0738 48.4681C48.3512 48.6652 48.1103 49.6504 48.5045 50.2854C48.8986 50.8985 49.7089 51.1612 50.4534 51.0955C50.7381 51.0736 51.0666 50.986 51.2417 50.7671C51.4169 50.5481 51.4388 50.2416 51.5045 49.9789C51.6797 49.3658 52.1834 48.8622 52.7965 48.7309C53.1469 48.6433 53.563 48.6433 53.76 48.3367C54.5484 48.7746 55.1177 49.6067 55.2053 50.5044C55.4681 50.8328 56.0375 50.4168 55.9718 50.0008C55.9061 49.5848 55.5557 49.3001 55.271 48.9936C54.9863 48.6871 54.7455 48.2273 54.9644 47.8769C56.3221 48.2711 57.417 49.4534 57.7236 50.8328C58.2054 50.7452 58.4682 50.0884 58.1835 49.6942C58.3368 49.3658 58.8623 49.5629 59.0156 49.8694C59.1689 50.1759 59.147 50.5919 59.3879 50.8766C60.0229 51.7086 61.7529 50.7014 62.2785 51.5991C62.6507 52.2341 61.8186 52.9785 61.0741 52.9566C60.3514 52.9347 59.6726 52.5187 58.9499 52.453C58.1397 52.3654 57.3514 52.7158 56.563 52.8033C55.7528 52.8909 54.7674 52.5844 54.5922 51.7962C54.5484 51.5772 54.5703 51.3583 54.4608 51.1612C54.3075 50.8985 53.9352 50.8328 53.6287 50.8766C52.2929 51.0298 50.9352 52.4092 49.8183 51.6429C49.1176 53.0223 47.3876 53.5259 46.4241 54.752C45.373 56.0657 45.4606 58.1019 46.4898 59.4375C47.4971 60.7731 49.3147 61.4081 50.979 61.1891C51.3512 61.1454 51.7673 61.0578 52.1177 61.211C52.468 61.3643 52.687 61.6927 52.9936 61.9336C53.2783 62.1744 53.7819 62.3058 54.0228 61.9993C53.7381 62.6999 53.8257 63.51 54.2199 64.145C54.6579 64.8237 55.4681 65.3492 55.4462 66.1593C55.4462 66.5753 55.2053 66.9475 55.0739 67.3417C54.5484 69.1808 56.7163 70.6697 57.0667 72.5527C57.1543 73.0563 57.1543 73.6693 57.5922 73.954C57.7893 74.0853 58.0302 74.1072 58.2711 74.1291C59.4755 74.2167 61.0084 73.8445 61.2492 72.6622C61.3149 72.3337 61.2711 71.9834 61.2711 71.6331C61.293 70.604 61.9281 69.6187 62.8478 69.1589C63.0887 69.0276 63.3734 68.94 63.5705 68.7429C64.0084 68.305 63.9208 67.5825 63.68 67.0132C63.461 66.444 63.1325 65.8747 63.1982 65.2616C63.3296 64.2763 64.3807 63.7728 65.169 63.1816C66.3734 62.3058 67.1837 60.9264 67.4027 59.4594C66.3077 59.8098 64.9501 60.0944 64.1179 59.3062C63.8332 59.0215 63.6581 58.6712 63.4829 58.299C62.9573 57.2042 62.4537 56.1314 61.9281 55.0366C61.8624 54.8834 61.7967 54.7301 61.8405 54.5768C61.9938 54.1827 62.6069 54.5111 62.8259 54.8615C63.6581 56.1533 64.4026 57.4889 65.0595 58.8902C66.3953 58.6493 67.6873 58.08 68.7822 57.2699C69.1326 57.0072 69.483 56.7007 69.5925 56.2846C69.702 55.8686 69.483 55.3213 69.0669 55.2556C68.8917 55.2337 68.7385 55.2775 68.5633 55.2775C67.5559 55.387 66.68 54.6206 66.0012 53.8324C66.461 53.3288 67.2713 53.6135 67.9063 53.8981C69.0231 54.4017 70.1837 54.7739 71.3881 54.9709C71.6947 55.0147 72.0013 55.0585 72.2641 55.2118C72.4612 55.2994 72.6144 55.4526 72.7677 55.584C74.1473 56.8539 75.1765 58.5179 75.7021 60.3352C76.2277 60.4447 76.5999 59.8098 76.6437 59.2624C76.6875 58.715 76.6218 58.1019 77.016 57.7297C77.3226 57.4232 77.8262 57.4013 78.089 57.051C78.4175 56.635 78.2423 55.9343 78.6365 55.5621C79.1401 55.1023 79.9285 55.6716 80.1912 56.2846C80.454 56.8977 80.5416 57.664 81.111 58.0363C81.4176 57.9925 81.7022 57.9487 82.0088 57.9049C82.0088 59.4156 82.5344 60.9264 83.476 62.1306C83.9797 61.8679 83.7607 61.0797 83.4322 60.598C83.1037 60.1163 82.7971 59.3937 83.257 59.0434C83.8921 59.0434 84.1767 59.9192 84.7899 60.0725C85.403 60.2258 85.9505 59.5032 85.841 58.8683C85.7315 58.2552 85.206 57.7954 84.6585 57.4889C84.1548 56.9415 84.8775 56.0876 85.6001 55.9562C86.3228 55.8249 87.1111 56.0438 87.7681 55.7154C88.5564 55.3213 88.8192 54.2922 88.644 53.4383C88.4688 52.5844 87.9651 51.84 87.5491 51.0736C87.1987 50.4168 87.0235 49.3877 87.7024 49.1031C87.8775 49.0155 88.0965 49.0374 88.2936 49.0155C90.8995 48.906 93.0674 46.1472 92.5419 43.5855C92.4324 43.1038 92.2572 42.6221 91.9068 42.2718C91.2937 41.6369 90.2426 41.4836 89.7608 40.7392C89.1914 39.8196 89.8922 38.5934 90.8119 38.0023C91.7097 37.4111 92.8266 37.1484 93.6806 36.4696C93.8996 36.4696 94.031 36.2507 94.0748 36.0098C94.0966 35.8785 94.0748 35.7252 94.0748 35.5938C94.0748 35.1997 94.3594 34.8275 94.7317 34.718C95.104 34.6085 95.5419 34.7618 95.7609 35.1121C96.0237 35.5281 95.9142 36.0536 95.7171 36.4915C95.52 36.9294 95.2573 37.3673 95.2135 37.8271C95.1697 38.3088 95.4324 38.8562 95.9142 38.9219C96.5055 38.9876 96.8777 38.2869 96.9215 37.7176C96.9653 37.1265 96.8558 36.4915 97.1624 35.9879C97.6442 35.2435 98.9581 35.0683 99.0019 34.1706C99.0238 33.4481 98.1259 33.0321 97.9507 32.3315C97.8851 32.0468 97.9508 31.7622 97.9726 31.4557C98.0821 30.3828 97.6004 29.2443 96.7463 28.5874C95.8923 27.9087 94.7098 27.6897 93.6587 28.04C93.3302 28.1495 93.0017 28.3247 92.6514 28.4122C92.1477 28.5436 91.6222 28.4998 91.0966 28.4779C90.155 28.4122 89.2352 28.3466 88.2936 28.2809C87.4615 28.2152 86.5637 28.1714 85.841 28.5655C84.768 29.1348 84.1548 30.558 82.9285 30.6893C82.0745 30.7988 81.3081 30.2076 80.4978 29.8792C79.2058 29.3756 77.6291 29.6165 76.5561 30.4923C76.1401 30.2952 76.2715 29.6822 76.1401 29.2443C75.9868 28.7845 75.505 28.5217 75.0233 28.4779C74.5415 28.4341 74.0816 28.5874 73.6218 28.7188C72.6363 29.0472 71.5195 29.5727 71.4319 30.6017C71.41 30.8864 71.4757 31.1929 71.3443 31.4557C71.1692 31.8279 70.7093 31.9592 70.4246 32.2439C70.0742 32.5942 70.0305 33.1197 70.0086 33.6233C69.9867 34.105 69.9867 34.6304 69.702 35.0464C69.4173 35.4843 67.9282 35.6814 67.5778 35.3311Z" fill="white" stroke="#414141" stroke-width="2" mask="url(#path-4-inside-2_13279_5033)"/>
<path d="M85.4538 62.539L85.4539 62.5389L85.4489 62.5317C85.3692 62.4166 85.3603 62.3542 85.3595 62.3373L85.3594 62.3369C85.359 62.3287 85.3586 62.319 85.3769 62.2942C85.4364 62.2138 85.6116 62.0946 85.9484 61.9915C86.2633 61.8951 86.6391 61.8368 86.9887 61.8148C87.3465 61.7922 87.6305 61.8104 87.769 61.8415L87.7827 61.8446L87.7966 61.8469C87.8268 61.852 87.8569 61.8568 87.8853 61.8613C87.8662 61.8945 87.843 61.933 87.8158 61.9765C87.7298 62.1136 87.6151 62.2815 87.4925 62.45C87.3699 62.6184 87.244 62.7813 87.1366 62.9092C87.0417 63.0222 86.9863 63.0771 86.9687 63.0945C86.9632 63.1 86.9613 63.1018 86.9631 63.1006C86.9047 63.1396 86.8114 63.1661 86.6584 63.1505C86.504 63.1347 86.3265 63.0788 86.1488 62.9989L86.1415 62.9956L86.134 62.9925C85.7957 62.8531 85.5707 62.7144 85.4538 62.539Z" fill="white" stroke="#414141"/>
<path d="M82.5716 62.4184L82.5716 62.4184L82.5687 62.4132C82.5005 62.2914 82.427 62.1687 82.3524 62.048C82.3734 62.0666 82.3945 62.0857 82.4157 62.1053C82.8862 62.5404 83.2901 63.1058 83.4351 63.3959C83.4616 63.449 83.49 63.5086 83.5203 63.5723C83.5556 63.6466 83.5936 63.7263 83.6342 63.8076C83.2129 63.3997 82.8514 62.9326 82.5716 62.4184Z" fill="white" stroke="#414141"/>
<path d="M87.4158 68.8496L87.4158 68.8497L87.4191 68.8489C87.7597 68.7677 88.0173 68.5706 88.2123 68.3816C88.3451 68.2528 88.4796 68.0948 88.5919 67.9627C88.6337 67.9135 88.6726 67.8678 88.7071 67.8287C88.9934 67.5066 89.4107 67.1795 89.8655 66.9497C90.3264 66.7168 90.7736 66.6097 91.1323 66.6546L91.1352 66.6549C91.3935 66.6857 91.646 66.8775 92.0378 67.199L92.039 67.2C92.212 67.342 92.4172 67.5103 92.6346 67.6381C92.8565 67.7685 93.1323 67.8822 93.4519 67.8736L94.0638 67.857L93.9254 67.2607C93.9046 67.1711 93.8958 67.1008 93.8937 67.0475C93.9041 67.0536 93.9152 67.0606 93.927 67.0687C94.0149 67.1285 94.1152 67.23 94.1989 67.3757L94.1988 67.3757L94.2036 67.3837C94.3882 67.6915 94.443 68.0581 94.5072 68.5507L94.5339 68.7555L94.6974 68.8818C95.2785 69.3306 95.8519 69.8177 96.2604 70.3524C96.6657 70.8831 96.8747 71.4156 96.8119 71.973L96.8117 71.9753C96.7466 72.5771 96.3663 73.1331 95.8876 73.737L95.8876 73.737L95.8837 73.742C95.7071 73.9707 95.5308 74.2042 95.3564 74.4351L95.3554 74.4363C95.1801 74.6685 95.0068 74.898 94.8337 75.1221L94.8293 75.1278L94.825 75.1337C94.6498 75.3748 94.5426 75.5106 94.401 75.5932L94.4009 75.5931L94.3902 75.5997C94.1993 75.7177 93.9417 75.7381 93.6545 75.6379C93.3655 75.5371 93.0962 75.3281 92.9318 75.0738L92.9318 75.0738L92.9297 75.0706C92.827 74.9144 92.7395 74.7298 92.6508 74.5147C92.6197 74.4395 92.581 74.3406 92.5401 74.2363C92.4853 74.0966 92.4267 73.9473 92.3777 73.8318C92.1826 73.3718 91.9013 72.8311 91.3329 72.5181C90.7866 72.2163 90.2127 72.2482 89.7149 72.3832C89.226 72.5158 88.751 72.7646 88.3673 72.9667C87.9892 73.1658 87.5943 73.3385 87.2313 73.4069C86.8791 73.4732 86.6186 73.4313 86.4237 73.2878C86.3753 73.2452 86.3431 73.2095 86.3251 73.1828C86.3275 73.1741 86.3313 73.162 86.3374 73.146C86.3459 73.1235 86.3569 73.0981 86.3723 73.064C86.3754 73.057 86.379 73.0491 86.3829 73.0405C86.3955 73.0129 86.411 72.9788 86.4247 72.9468L86.428 72.939L86.4311 72.9311C86.6239 72.4351 86.5929 71.9413 86.5103 71.5079C86.4689 71.2909 86.412 71.0772 86.3573 70.8789C86.3466 70.8403 86.3361 70.8024 86.3257 70.7651C86.2819 70.6075 86.2411 70.4605 86.2061 70.3134C86.1387 69.9886 86.1441 69.6272 86.2313 69.3485C86.3167 69.0752 86.4519 68.9501 86.6142 68.9111C86.6833 68.8954 86.7602 68.8934 86.9018 68.8934C86.9069 68.8934 86.912 68.8934 86.9173 68.8934C87.0423 68.8934 87.2255 68.8936 87.4158 68.8496ZM86.321 73.2032C86.321 73.2032 86.321 73.2031 86.321 73.2031C86.321 73.2031 86.321 73.2032 86.321 73.2032Z" fill="white" stroke="#414141"/>
</svg>
