<svg width="63" height="76" viewBox="0 0 63 76" fill="none" xmlns="http://www.w3.org/2000/svg">
<path d="M62.2596 75.4097C62.2596 75.4376 49.1299 75.46 32.9381 75.46C16.7464 75.46 3.61523 75.4321 3.61523 75.4097C3.61523 75.3874 16.7407 75.3613 32.9381 75.3613C49.1356 75.3613 62.2596 75.3837 62.2596 75.4097Z" fill="#263238"/>
<path d="M20.9514 16.2498C20.9514 16.2498 21.0749 7.82857 15.8125 3.55127H32.4912C32.4912 3.55127 37.2595 8.66674 37.2993 16.2498H20.9514Z" fill="#EBEBEB"/>
<path d="M31.2187 6.6231C31.2187 6.65102 29.3136 6.67336 26.9599 6.67336C24.6063 6.67336 22.7012 6.65102 22.7012 6.6231C22.7012 6.59518 24.6063 6.57471 26.9599 6.57471C29.3136 6.57471 31.2187 6.59704 31.2187 6.6231Z" fill="#455A64"/>
<path d="M33.036 8.1445C33.036 8.17055 30.512 8.19289 27.3989 8.19289C24.2857 8.19289 21.7617 8.17055 21.7617 8.1445C21.7617 8.11844 24.2857 8.09424 27.3989 8.09424C30.512 8.09424 33.036 8.11658 33.036 8.1445Z" fill="#263238"/>
<path d="M33.9867 11.9986C33.9867 12.0246 31.4627 12.047 28.3495 12.047C25.2364 12.047 22.7109 12.0246 22.7109 11.9986C22.7109 11.9725 25.235 11.9502 28.3495 11.9502C31.4641 11.9502 33.9867 11.9725 33.9867 11.9986Z" fill="#263238"/>
<path d="M28.0978 9.89849C28.0217 9.91365 27.9448 9.92049 27.8678 9.91897L27.2375 9.93386C26.7052 9.94316 25.9712 9.94875 25.1592 9.94875C24.3472 9.94875 23.6133 9.94875 23.081 9.93386L22.4507 9.91897C22.3737 9.92049 22.2968 9.91365 22.2207 9.89849C22.2968 9.88395 22.3738 9.87773 22.4507 9.87988L23.081 9.86499C23.6133 9.86499 24.3472 9.8501 25.1592 9.8501C25.9712 9.8501 26.7052 9.8501 27.2375 9.86499L27.8678 9.87988C27.9447 9.87773 28.0216 9.88395 28.0978 9.89849Z" fill="#263238"/>
<path d="M33.0344 9.89849C32.9784 9.91369 32.9213 9.92056 32.8641 9.91897L32.3985 9.93386C32.0067 9.94316 31.463 9.94875 30.8639 9.94875C30.2648 9.94875 29.7211 9.94875 29.3293 9.93386L28.8637 9.91897C28.8065 9.92056 28.7494 9.91369 28.6934 9.89849C28.7495 9.88491 28.8066 9.87868 28.8637 9.87988L29.3293 9.86499C29.7211 9.86499 30.2648 9.8501 30.8639 9.8501C31.463 9.8501 31.9996 9.8501 32.3985 9.86499L32.8641 9.87988C32.9212 9.87775 32.9784 9.88399 33.0344 9.89849Z" fill="#263238"/>
<path d="M29.1422 14.065C29.0656 14.0802 28.9882 14.0871 28.9108 14.0855L28.2819 14.1004C27.7496 14.1004 27.0142 14.1153 26.2036 14.1153C25.393 14.1153 24.6563 14.1153 24.1239 14.1004L23.4951 14.0855C23.4176 14.0871 23.3402 14.0802 23.2637 14.065C23.3403 14.0504 23.4177 14.0442 23.4951 14.0464L24.1239 14.0315C24.6563 14.0315 25.3916 14.0166 26.2036 14.0166C27.0156 14.0166 27.7496 14.0166 28.2819 14.0315L28.9108 14.0464C28.9882 14.0442 29.0656 14.0504 29.1422 14.065Z" fill="#263238"/>
<path d="M34.0827 14.065C34.0267 14.0802 33.9696 14.0871 33.9124 14.0855L33.4468 14.1004C33.0535 14.1004 32.5113 14.1153 31.9122 14.1153C31.3131 14.1153 30.7765 14.1153 30.3762 14.1004L29.9106 14.0855C29.8534 14.0871 29.7963 14.0802 29.7402 14.065C29.7964 14.0514 29.8535 14.0452 29.9106 14.0464L30.3762 14.0315C30.7694 14.0315 31.3117 14.0166 31.9122 14.0166C32.5127 14.0166 33.0479 14.0166 33.4468 14.0315L33.9124 14.0464C33.9695 14.0452 34.0266 14.0514 34.0827 14.065Z" fill="#263238"/>
<path d="M17.537 16.0127H42.1441L43.4842 72.4483C43.4933 72.8269 43.4459 73.2042 43.3448 73.5586C43.2437 73.913 43.0908 74.2375 42.8949 74.5136C42.699 74.7897 42.4639 75.012 42.203 75.1678C41.9422 75.3235 41.6607 75.4097 41.3747 75.4214H15.7186C15.3571 75.4215 15.0094 75.2375 14.7475 74.9076C14.4856 74.5778 14.3296 74.1272 14.3118 73.6492L13.1292 41.7818C13.1292 41.7818 5.83117 38.275 5.95468 27.5761C5.95468 27.5761 6.28686 16.0127 17.537 16.0127Z" fill="#263238"/>
<path d="M18.8759 75.3368L17.8027 16.0127H43.0401L43.4958 72.8411C43.5114 73.5024 43.3281 74.145 42.986 74.6274C42.644 75.1099 42.1712 75.3928 41.6716 75.4139H41.6063L18.8759 75.3368Z" fill="#455A64"/>
<path d="M19.8867 19.4482L20.3978 47.0703H40.9519L40.6751 19.4482H19.8867Z" fill="#263238"/>
<path d="M22.1647 23.0228C23.1683 23.3817 24.436 23.2295 25.4666 23.1637C25.5419 23.1637 25.6142 23.1241 25.6674 23.0536C25.7206 22.9832 25.7506 22.8876 25.7506 22.7879C25.7506 22.6882 25.7206 22.5926 25.6674 22.5221C25.6142 22.4516 25.5419 22.412 25.4666 22.412C24.436 22.3444 23.1669 22.1921 22.1647 22.553C22.1167 22.5717 22.0763 22.6149 22.0524 22.673C22.0284 22.7311 22.0228 22.7995 22.0369 22.863C22.0461 22.903 22.0625 22.9393 22.0848 22.9688C22.1071 22.9983 22.1345 23.0201 22.1647 23.0322V23.0228Z" fill="#E0E0E0"/>
<path d="M27.2199 22.9689C28.205 23.3015 29.4784 23.2414 30.4849 23.1136C30.5602 23.1136 30.6324 23.074 30.6857 23.0035C30.7389 22.933 30.7688 22.8374 30.7688 22.7377C30.7688 22.638 30.7389 22.5424 30.6857 22.4719C30.6324 22.4014 30.5602 22.3618 30.4849 22.3618C29.4784 22.2322 28.205 22.1739 27.2199 22.5065C27.1968 22.5158 27.1754 22.5309 27.1568 22.5512C27.1382 22.5714 27.1228 22.5962 27.1114 22.6243C27.1001 22.6524 27.0931 22.6832 27.0907 22.7149C27.0884 22.7466 27.0908 22.7786 27.0978 22.8091C27.1064 22.8473 27.1221 22.8821 27.1434 22.9103C27.1647 22.9386 27.191 22.9593 27.2199 22.9707V22.9689Z" fill="#E0E0E0"/>
<path d="M32.2098 22.8494C32.7053 23.0486 33.2404 23.0147 33.7543 23.026C34.2791 23.0674 34.8055 23.0542 35.3287 22.9866C35.5856 22.9377 35.5856 22.3457 35.3287 22.2987C34.8055 22.2295 34.2791 22.2157 33.7543 22.2574C33.2404 22.2687 32.7053 22.2348 32.2098 22.434C32.1758 22.447 32.1459 22.4743 32.1246 22.5118C32.1033 22.5492 32.0918 22.5948 32.0918 22.6417C32.0918 22.6886 32.1033 22.7342 32.1246 22.7716C32.1459 22.8091 32.1758 22.8364 32.2098 22.8494Z" fill="#E0E0E0"/>
<path d="M36.8336 22.8885C37.2074 22.9605 37.5845 22.9988 37.9622 23.0032C38.337 23.0144 38.7415 23.0952 39.1049 22.9581C39.156 22.9376 39.2007 22.896 39.2325 22.8393C39.2643 22.7826 39.2814 22.7139 39.2814 22.6433C39.2814 22.5727 39.2643 22.504 39.2325 22.4473C39.2007 22.3906 39.156 22.3489 39.1049 22.3285C38.7415 22.1913 38.337 22.2721 37.9622 22.2834C37.5844 22.2874 37.2073 22.3263 36.8336 22.3999C36.7941 22.416 36.7596 22.4484 36.7351 22.4923C36.7105 22.5363 36.6973 22.5895 36.6973 22.6442C36.6973 22.6989 36.7105 22.7521 36.7351 22.7961C36.7596 22.8401 36.7941 22.8725 36.8336 22.8885Z" fill="#E0E0E0"/>
<path d="M26.3589 50.3564H20.4023V55.9925H26.3589V50.3564Z" fill="#810019"/>
<path d="M21.4798 50.3564H20.4023V55.9925H21.4798V50.3564Z" fill="#263238"/>
<path d="M33.6577 50.3564H27.7012V55.9925H33.6577V50.3564Z" fill="#810019"/>
<path d="M28.72 50.3564H27.6426V55.9925H28.72V50.3564Z" fill="#263238"/>
<path d="M40.9546 50.3564H34.998V55.9925H40.9546V50.3564Z" fill="#810019"/>
<path d="M35.8997 50.3564H34.8223V55.9925H35.8997V50.3564Z" fill="#263238"/>
<path d="M40.9546 57.855H34.998V63.491H40.9546V57.855Z" fill="#810019"/>
<path d="M36.1082 57.855H34.998V63.491H36.1082V57.855Z" fill="#263238"/>
<path d="M26.3589 57.855H20.4023V63.491H26.3589V57.855Z" fill="#810019"/>
<path d="M21.4798 57.8413H20.4023V63.4774H21.4798V57.8413Z" fill="#263238"/>
<path d="M26.3589 65.2793H20.4023V70.9153H26.3589V65.2793Z" fill="#810019"/>
<path opacity="0.3" d="M26.3589 65.2793H20.4023V70.9153H26.3589V65.2793Z" fill="black"/>
<path d="M21.4798 65.2793H20.4023V70.9153H21.4798V65.2793Z" fill="#263238"/>
<path d="M33.6265 57.855H27.6699V63.491H33.6265V57.855Z" fill="#810019"/>
<path d="M28.7474 57.8413H27.6699V63.4774H28.7474V57.8413Z" fill="#263238"/>
<path d="M33.6577 65.2793H27.7012V70.9153H33.6577V65.2793Z" fill="#810019"/>
<path opacity="0.3" d="M33.6577 65.2793H27.7012V70.9153H33.6577V65.2793Z" fill="black"/>
<path d="M28.7786 65.2793H27.7012V70.9153H28.7786V65.2793Z" fill="#263238"/>
<path d="M40.9546 65.2793H34.998V70.9153H40.9546V65.2793Z" fill="#E0E0E0"/>
<path d="M36.0755 65.2793H34.998V70.9153H36.0755V65.2793Z" fill="#263238"/>
<path d="M16.9122 75.4214C16.81 75.4214 16.4367 62.1272 16.0775 45.7284C15.7184 29.3295 15.5097 16.0184 15.6119 16.0146C15.7141 16.0109 16.0875 29.3051 16.4466 45.7077C16.8058 62.1103 17.0144 75.4177 16.9122 75.4214Z" fill="#455A64"/>
<path d="M40.9199 43.9263V44.9392L43.2764 45.7154L43.2637 44.1537L40.9199 43.9263Z" fill="#455A64"/>
<path d="M12.3147 41.8933C12.1857 41.8256 12.0473 41.7955 11.9087 41.8049C11.7693 41.8222 11.6325 41.8665 11.5027 41.9365L9.89008 42.6506L6.73861 44.0526L0.776358 46.6836C0.541106 46.7726 0.33892 46.9733 0.208525 47.2474C0.0793138 47.5155 0.0311625 47.8383 0.073665 48.1513C0.0997441 48.3065 0.133895 48.4591 0.175875 48.608L0.290861 49.0628C0.367518 49.3654 0.442756 49.6642 0.519414 49.963C0.818473 51.152 1.10996 52.3065 1.39388 53.4266C1.96171 55.6629 2.48412 57.749 2.96535 59.6452C3.92215 63.447 4.69866 66.5253 5.23669 68.6527C5.50357 69.7164 5.70941 70.5414 5.85137 71.0958C5.91951 71.3758 5.97345 71.5882 6.00894 71.7329C6.04443 71.8776 6.06004 71.9509 6.06004 71.9509C6.07906 72.0228 6.10331 72.092 6.13244 72.1576C6.2143 72.3534 6.33254 72.5184 6.47598 72.6368C6.59221 72.7322 6.72204 72.7947 6.85736 72.8206C6.99268 72.8465 7.13058 72.8351 7.26243 72.7872C7.5719 72.6556 7.9268 72.4903 8.32854 72.3136L14.2567 69.6675L7.93389 43.5264L11.0967 42.1225L16.8077 65.2888L16.5579 57.2303C15.408 52.6955 14.1659 47.7924 12.8669 42.675C12.8229 42.4997 12.7507 42.3391 12.6554 42.2042C12.5601 42.0692 12.4439 41.9632 12.3147 41.8933ZM5.02659 53.8024L3.61552 47.8901L4.09392 47.689L5.50499 53.6013L5.02659 53.8024ZM6.0061 50.5456L5.18274 47.0989L5.66114 46.8997L6.4845 50.3445L6.0061 50.5456ZM7.11054 54.9169L6.2886 51.4702L6.767 51.271L7.58893 54.7158L7.11054 54.9169ZM7.39445 55.8415L7.87285 55.6404L10.1442 65.1835L9.66578 65.3827L7.39445 55.8415ZM10.3756 68.3276L9.88866 66.2885L10.3671 66.0875L10.854 68.1284L10.3756 68.3276ZM12.3445 67.2451L11.8661 67.4443L8.86088 54.853L9.33928 54.6538L12.3445 67.2451ZM9.09369 53.4491L8.61529 53.6483L6.87205 46.351L7.35044 46.1499L9.09369 53.4491Z" fill="#810019"/>
<path opacity="0.3" d="M12.3147 41.8933C12.1857 41.8256 12.0473 41.7955 11.9087 41.8049C11.7693 41.8222 11.6325 41.8665 11.5027 41.9365L9.89008 42.6506L6.73861 44.0526L0.776358 46.6836C0.541106 46.7726 0.33892 46.9733 0.208525 47.2474C0.0793138 47.5155 0.0311625 47.8383 0.073665 48.1513C0.0997441 48.3065 0.133895 48.4591 0.175875 48.608L0.290861 49.0628C0.367518 49.3654 0.442756 49.6642 0.519414 49.963C0.818473 51.152 1.10996 52.3065 1.39388 53.4266C1.96171 55.6629 2.48412 57.749 2.96535 59.6452C3.92215 63.447 4.69866 66.5253 5.23669 68.6527C5.50357 69.7164 5.70941 70.5414 5.85137 71.0958C5.91951 71.3758 5.97345 71.5882 6.00894 71.7329C6.04443 71.8776 6.06004 71.9509 6.06004 71.9509C6.07906 72.0228 6.10331 72.092 6.13244 72.1576C6.2143 72.3534 6.33254 72.5184 6.47598 72.6368C6.59221 72.7322 6.72204 72.7947 6.85736 72.8206C6.99268 72.8465 7.13058 72.8351 7.26243 72.7872C7.5719 72.6556 7.9268 72.4903 8.32854 72.3136L14.2567 69.6675L7.93389 43.5264L11.0967 42.1225L16.8077 65.2888L16.5579 57.2303C15.408 52.6955 14.1659 47.7924 12.8669 42.675C12.8229 42.4997 12.7507 42.3391 12.6554 42.2042C12.5601 42.0692 12.4439 41.9632 12.3147 41.8933ZM5.02659 53.8024L3.61552 47.8901L4.09392 47.689L5.50499 53.6013L5.02659 53.8024ZM6.0061 50.5456L5.18274 47.0989L5.66114 46.8997L6.4845 50.3445L6.0061 50.5456ZM7.11054 54.9169L6.2886 51.4702L6.767 51.271L7.58893 54.7158L7.11054 54.9169ZM7.39445 55.8415L7.87285 55.6404L10.1442 65.1835L9.66578 65.3827L7.39445 55.8415ZM10.3756 68.3276L9.88866 66.2885L10.3671 66.0875L10.854 68.1284L10.3756 68.3276ZM12.3445 67.2451L11.8661 67.4443L8.86088 54.853L9.33928 54.6538L12.3445 67.2451ZM9.09369 53.4491L8.61529 53.6483L6.87205 46.351L7.35044 46.1499L9.09369 53.4491Z" fill="black"/>
<path d="M14.2624 69.7057L14.2553 69.6756L8.32709 72.3217C7.92535 72.4983 7.57045 72.6637 7.26098 72.7953C7.12913 72.8432 6.99123 72.8545 6.85591 72.8287C6.72059 72.8028 6.59075 72.7402 6.47453 72.6449C6.33109 72.5265 6.21285 72.3615 6.13099 72.1657C6.07563 72.0341 6.06285 71.9571 6.05859 71.959L6.07279 72.0135C6.14719 72.2804 6.28586 72.5076 6.46743 72.6599C6.58448 72.7593 6.71596 72.825 6.85338 72.8528C6.99081 72.8806 7.13112 72.87 7.26524 72.8216C7.57755 72.6919 7.93244 72.5303 8.3356 72.3536L15.1397 69.3467L16.7537 68.6326L16.9099 68.5273L14.2624 69.7057Z" fill="#263238"/>
<path d="M6.00815 71.7358C5.97266 71.5911 5.91872 71.3787 5.85058 71.0987C5.70862 70.5349 5.50278 69.7118 5.2359 68.6556C4.70072 66.5282 3.9242 63.4499 2.96457 59.6481C2.48333 57.7481 1.95808 55.6658 1.39309 53.4294C1.10917 52.3119 0.817685 51.1574 0.518626 49.9659C0.441968 49.6671 0.36673 49.3683 0.290073 49.0657L0.175087 48.6109C0.133107 48.462 0.098956 48.3094 0.072877 48.1542C0.0324621 47.84 0.0831628 47.5172 0.214835 47.2503C0.34523 46.9762 0.547417 46.7755 0.782668 46.6865L6.74492 44.0555L9.89639 42.6573L11.509 41.9431C11.6388 41.8732 11.7756 41.8288 11.915 41.8116C12.1248 41.7968 12.3324 41.8736 12.506 42.0301C12.6796 42.1866 12.8096 42.4142 12.8761 42.6779C14.1722 47.7953 15.4143 52.6984 16.567 57.2332L16.5571 56.9287C15.4299 52.471 14.2119 47.6637 12.9442 42.646C12.8965 42.4583 12.8186 42.2865 12.7159 42.1425C12.6132 41.9985 12.4882 41.8856 12.3494 41.8116C12.2111 41.7382 12.0623 41.7061 11.9136 41.7176C11.7675 41.7352 11.624 41.7808 11.4877 41.8529L9.87651 42.5689L6.72504 43.9671L0.762794 46.6132C0.513383 46.704 0.298051 46.9135 0.158052 47.2014C0.0215767 47.4881 -0.0290538 47.832 0.0160935 48.1655C0.0431194 48.3244 0.0782157 48.4808 0.121143 48.6335C0.159472 48.7857 0.19922 48.936 0.237549 49.0882C0.312786 49.3889 0.389444 49.6896 0.464682 49.9866C0.767526 51.1768 1.06043 52.3313 1.3434 53.4501L2.92056 59.6612L5.21035 68.6594C5.48291 69.7193 5.693 70.5387 5.83638 71.1025C5.90878 71.3806 5.96414 71.593 6.00105 71.7377L6.05926 71.9538C6.05926 71.9538 6.04364 71.8805 6.00815 71.7358Z" fill="#263238"/>
<path d="M9.33328 54.6551L8.85547 54.855L11.8613 67.4451L12.3392 67.2452L9.33328 54.6551Z" fill="#FAFAFA"/>
<path d="M7.35281 46.1487L6.875 46.3486L8.61837 53.6508L9.09619 53.4508L7.35281 46.1487Z" fill="#FAFAFA"/>
<path d="M5.66531 46.8982L5.1875 47.0981L6.0102 50.544L6.48801 50.3441L5.66531 46.8982Z" fill="#FAFAFA"/>
<path d="M4.00774 47.5122L3.53125 47.7114L4.93715 53.6036L5.41364 53.4044L4.00774 47.5122Z" fill="#FAFAFA"/>
<path d="M10.3763 66.0872L9.89844 66.2871L10.3853 68.3263L10.8631 68.1264L10.3763 66.0872Z" fill="#FAFAFA"/>
<path d="M6.76688 51.2718L6.28906 51.4717L7.11176 54.9176L7.58958 54.7176L6.76688 51.2718Z" fill="#FAFAFA"/>
<path d="M7.87235 55.6448L7.39453 55.8447L9.67268 65.3868L10.1505 65.1868L7.87235 55.6448Z" fill="#FAFAFA"/>
<path d="M7.93359 43.5274L14.2536 69.6742L14.2607 69.7043L16.9082 68.5297L16.8074 65.286L11.0964 42.1235L7.93359 43.5274Z" fill="#FAFAFA"/>
<path d="M14.2266 71.2637L16.7932 70.0684L16.7378 68.5781L14.2621 69.7019L14.2266 71.2637Z" fill="#263238"/>
<path d="M46.582 28.0075C46.582 28.0336 46.5025 28.0503 46.4031 28.0447C46.3038 28.0391 46.2271 28.0131 46.2285 27.9852C46.23 27.9572 46.3095 27.9424 46.4074 27.9479C46.5054 27.9535 46.5834 27.9796 46.582 28.0075Z" fill="#263238"/>
<path d="M47.971 27.9253C47.8619 27.9859 47.7443 28.0148 47.626 28.0098C47.5098 28.0384 47.3902 28.0339 47.2754 27.9967C47.5009 27.9084 47.7379 27.884 47.971 27.9253Z" fill="#263238"/>
<path d="M49.3488 27.6011C49.2466 27.6795 49.1329 27.7286 49.0152 27.7452C48.9025 27.7922 48.7837 27.8088 48.666 27.7939C48.881 27.6684 49.1137 27.6046 49.3488 27.6067V27.6011Z" fill="#263238"/>
<path d="M50.6773 27.0386C50.5841 27.134 50.4767 27.2025 50.3622 27.2397C50.2557 27.3075 50.1396 27.3447 50.0215 27.3487C50.1144 27.2525 50.2219 27.1839 50.3366 27.1476C50.4436 27.0815 50.5594 27.0444 50.6773 27.0386Z" fill="#263238"/>
<path d="M51.9334 26.2456C51.7515 26.4428 51.5408 26.5881 51.3145 26.6722C51.3979 26.5612 51.4973 26.4736 51.6069 26.4147C51.7057 26.329 51.8169 26.2714 51.9334 26.2456Z" fill="#263238"/>
<path d="M53.0951 25.2214C53.1078 25.2421 52.9914 25.3811 52.8339 25.5315C52.7458 25.6356 52.6423 25.7143 52.5301 25.7626C52.5187 25.7401 52.6351 25.601 52.7913 25.4507C52.9474 25.3003 53.0823 25.1988 53.0951 25.2214Z" fill="#263238"/>
<path d="M54.1207 23.971C54.1363 23.9898 54.0369 24.1589 53.9006 24.3318C53.7644 24.5047 53.6409 24.6438 53.6281 24.6231C53.6153 24.6024 53.7118 24.4352 53.8481 24.2623C53.9844 24.0894 54.1051 23.9466 54.1207 23.971Z" fill="#263238"/>
<path d="M54.9692 22.5039C54.9877 22.5171 54.911 22.6919 54.8003 22.9099C54.6896 23.1279 54.5859 23.2857 54.5703 23.2613C54.6055 23.1118 54.6629 22.9731 54.7392 22.8535C54.85 22.6467 54.9522 22.4889 54.9692 22.5039Z" fill="#263238"/>
<path d="M55.5906 20.8564C55.5423 21.1618 55.4455 21.4501 55.3066 21.7021C55.3518 21.3955 55.4489 21.1063 55.5906 20.8564Z" fill="#263238"/>
<path d="M55.9633 19.0771C55.9738 19.2327 55.9598 19.3895 55.9222 19.5376C55.9083 19.6932 55.8696 19.8431 55.8086 19.9773C55.8113 19.6661 55.864 19.3592 55.9633 19.0771Z" fill="#263238"/>
<path d="M56.1051 17.2412C56.141 17.5488 56.126 17.863 56.0611 18.1621C56.0322 18.0109 56.0274 17.8535 56.0469 17.6998C56.0427 17.5433 56.0625 17.3873 56.1051 17.2412Z" fill="#263238"/>
<path d="M56.0342 15.4014C56.1047 15.6982 56.1255 16.0118 56.0953 16.3203C56.0499 16.1763 56.0272 16.0216 56.0285 15.8656C56.007 15.7119 56.0089 15.554 56.0342 15.4014Z" fill="#263238"/>
<path d="M55.7498 13.5928C55.8121 13.7256 55.8532 13.874 55.8705 14.0288C55.9105 14.1761 55.927 14.333 55.9187 14.4892C55.8564 14.3563 55.8153 14.2079 55.7981 14.0532C55.7588 13.9056 55.7424 13.749 55.7498 13.5928Z" fill="#263238"/>
<path d="M55.2441 11.8735C55.3228 11.9901 55.3822 12.1271 55.4188 12.2757C55.478 12.4117 55.5143 12.563 55.5252 12.7192C55.4472 12.6013 55.3878 12.4639 55.3506 12.3152C55.2926 12.1792 55.2564 12.0289 55.2441 11.8735Z" fill="#263238"/>
<path d="M54.5039 10.3103C54.5195 10.2934 54.6217 10.4494 54.7339 10.6599C54.8108 10.7783 54.8683 10.9165 54.9028 11.0658C54.8858 11.0809 54.7821 10.923 54.6728 10.7163C54.5959 10.5979 54.5384 10.4597 54.5039 10.3103Z" fill="#263238"/>
<path d="M53.5342 8.9873C53.547 8.96663 53.6762 9.07939 53.8182 9.25416C53.9601 9.42894 54.0566 9.59431 54.0425 9.61311C54.0283 9.6319 53.909 9.49847 53.7685 9.32557C53.6279 9.15268 53.5215 9.00797 53.5342 8.9873Z" fill="#263238"/>
<path d="M52.6693 8.19667C52.6793 8.1742 52.7559 8.20977 52.8397 8.27717C52.9234 8.34457 52.9816 8.41758 52.9717 8.44004C52.9618 8.46251 52.8837 8.42694 52.8014 8.36141C52.719 8.29589 52.658 8.221 52.6693 8.19667Z" fill="#263238"/>
<g clip-path="url(#clip0_11191_7052)">
<path d="M49.1505 5.20508C49.2411 5.20508 49.3317 5.22477 49.4144 5.26219L53.1228 6.83577C53.5561 7.01893 53.8791 7.44629 53.8771 7.96228C53.8673 9.91596 53.0637 13.4905 49.6704 15.1153C49.3415 15.2728 48.9594 15.2728 48.6305 15.1153C45.2372 13.4905 44.4337 9.91596 44.4238 7.96228C44.4219 7.44629 44.7449 7.01893 45.1781 6.83577L48.8885 5.26219C48.9693 5.22477 49.0599 5.20508 49.1505 5.20508Z" fill="#810019"/>
<path d="M48.7646 10.424C48.7646 10.5224 48.751 10.6116 48.7239 10.6915C48.6968 10.7713 48.659 10.8419 48.6105 10.9033C48.5635 10.9646 48.5064 11.0174 48.4394 11.0616C48.3738 11.1058 48.301 11.1422 48.2211 11.1707C48.1413 11.1993 48.0557 11.2207 47.9644 11.2349C47.8745 11.2478 47.774 11.2542 47.6627 11.2542H46.9267C46.8796 11.2542 46.8396 11.2406 46.8068 11.2135C46.7755 11.185 46.7598 11.1393 46.7598 11.0766V8.66308C46.7598 8.60032 46.7755 8.55539 46.8068 8.52829C46.8396 8.49976 46.8796 8.48549 46.9267 8.48549H47.622C47.7918 8.48549 47.9351 8.49976 48.0521 8.52829C48.1705 8.55682 48.2696 8.60032 48.3495 8.6588C48.4308 8.71586 48.4929 8.78861 48.5357 8.87705C48.5785 8.96548 48.5998 9.06961 48.5998 9.18943C48.5998 9.25647 48.5913 9.31995 48.5742 9.37986C48.5571 9.43834 48.5321 9.49183 48.4993 9.54033C48.4665 9.58883 48.4258 9.63162 48.3773 9.66871C48.3303 9.7058 48.2761 9.73575 48.2147 9.75857C48.2932 9.77284 48.3652 9.7978 48.4308 9.83346C48.4979 9.86912 48.5556 9.91548 48.6041 9.97254C48.6541 10.0282 48.6933 10.0938 48.7218 10.1694C48.7503 10.245 48.7646 10.3299 48.7646 10.424ZM48.0371 9.2579C48.0371 9.20227 48.0286 9.15235 48.0114 9.10813C47.9943 9.06391 47.9687 9.02753 47.9344 8.99901C47.9002 8.96905 47.8567 8.94623 47.8039 8.93054C47.7526 8.91485 47.6834 8.907 47.5964 8.907H47.3118V9.62592H47.6263C47.7076 9.62592 47.7725 9.61665 47.821 9.5981C47.8695 9.57813 47.9095 9.55174 47.9408 9.51894C47.9736 9.4847 47.9979 9.44548 48.0136 9.40126C48.0293 9.35561 48.0371 9.30783 48.0371 9.2579ZM48.1805 10.4433C48.1805 10.3791 48.1698 10.322 48.1484 10.2721C48.127 10.2207 48.0956 10.1779 48.0542 10.1437C48.0129 10.1095 47.9601 10.0831 47.8959 10.0645C47.8317 10.046 47.7483 10.0367 47.6456 10.0367H47.3118V10.8241H47.7183C47.7968 10.8241 47.8624 10.8163 47.9152 10.8006C47.9694 10.7835 48.0157 10.7592 48.0542 10.7278C48.0942 10.695 48.1249 10.6551 48.1462 10.608C48.1691 10.5595 48.1805 10.5046 48.1805 10.4433Z" fill="white"/>
<path d="M49.7809 11.1771C49.7809 11.1914 49.7759 11.2043 49.7659 11.2157C49.7574 11.2271 49.7424 11.2363 49.721 11.2435C49.6996 11.2506 49.6711 11.2563 49.6354 11.2606C49.5998 11.2649 49.5541 11.267 49.4985 11.267C49.4443 11.267 49.3986 11.2649 49.3616 11.2606C49.3259 11.2563 49.2974 11.2506 49.276 11.2435C49.2546 11.2363 49.2389 11.2271 49.2289 11.2157C49.2203 11.2043 49.2161 11.1914 49.2161 11.1771V8.56252C49.2161 8.54826 49.2203 8.53542 49.2289 8.52401C49.2389 8.5126 49.2546 8.50332 49.276 8.49619C49.2988 8.48906 49.328 8.48335 49.3637 8.47908C49.3994 8.4748 49.4443 8.47266 49.4985 8.47266C49.5541 8.47266 49.5998 8.4748 49.6354 8.47908C49.6711 8.48335 49.6996 8.48906 49.721 8.49619C49.7424 8.50332 49.7574 8.5126 49.7659 8.52401C49.7759 8.53542 49.7809 8.54826 49.7809 8.56252V11.1771Z" fill="white"/>
<path d="M51.9377 8.71657C51.9377 8.75937 51.9355 8.79574 51.9313 8.8257C51.9284 8.85422 51.9227 8.87705 51.9141 8.89416C51.907 8.91128 51.8984 8.92412 51.8885 8.93268C51.8785 8.94124 51.8671 8.94551 51.8542 8.94551H50.9492V9.69011H51.7986C51.8114 9.69011 51.8228 9.69367 51.8328 9.7008C51.8428 9.70794 51.8514 9.72006 51.8585 9.73718C51.8671 9.7543 51.8728 9.77712 51.8756 9.80565C51.8799 9.83417 51.882 9.86984 51.882 9.91263C51.882 9.95542 51.8799 9.99108 51.8756 10.0196C51.8728 10.0481 51.8671 10.0717 51.8585 10.0902C51.8514 10.1088 51.8428 10.1223 51.8328 10.1309C51.8228 10.138 51.8114 10.1416 51.7986 10.1416H50.9492V11.1729C50.9492 11.1886 50.9449 11.2021 50.9363 11.2135C50.9278 11.2249 50.9121 11.2349 50.8893 11.2435C50.8679 11.2506 50.8393 11.2563 50.8037 11.2606C50.768 11.2649 50.7224 11.267 50.6667 11.267C50.6125 11.267 50.5669 11.2649 50.5298 11.2606C50.4941 11.2563 50.4656 11.2506 50.4442 11.2435C50.4228 11.2349 50.4071 11.2249 50.3971 11.2135C50.3886 11.2021 50.3843 11.1886 50.3843 11.1729V8.66308C50.3843 8.60032 50.4 8.55539 50.4314 8.52829C50.4642 8.49976 50.5041 8.48549 50.5512 8.48549H51.8542C51.8671 8.48549 51.8785 8.48977 51.8885 8.49833C51.8984 8.50546 51.907 8.5183 51.9141 8.53685C51.9227 8.55396 51.9284 8.5775 51.9313 8.60745C51.9355 8.63741 51.9377 8.67378 51.9377 8.71657Z" fill="white"/>
</g>
<path d="M51.6979 34.711L50.9739 31.1986C50.9739 31.1986 47.5669 32.3731 47.3497 32.0086C46.1132 29.9845 45.4886 27.2032 45.2941 26.2053C45.3211 26.0624 45.358 25.8952 45.4077 25.6997C45.4508 25.5325 45.5152 25.3761 45.5979 25.2374C45.6957 25.0607 45.8113 24.9027 45.9415 24.7676C45.9768 24.7411 46.0028 24.6972 46.0137 24.6454C46.0247 24.5936 46.0196 24.5382 45.9997 24.4913C45.9895 24.4651 45.9748 24.4425 45.9568 24.4252C45.9388 24.4079 45.918 24.3964 45.896 24.3917C45.7541 24.3786 45.3964 24.6642 45.1281 25.2073C44.8598 25.7505 44.7788 24.7356 44.7448 24.3673C44.7107 23.999 44.5616 22.8638 44.4679 22.783C44.326 22.6722 44.2138 22.8469 44.255 23.2153C44.2962 23.5836 44.3601 24.6999 44.2124 24.7187C44.0648 24.7375 43.9086 22.8394 43.9086 22.8394C43.9086 22.8394 43.9243 22.4297 43.7525 22.4391C43.4416 22.456 43.7212 24.4443 43.7525 24.6342C43.7738 24.7638 43.6105 24.7883 43.5963 24.6454C43.5821 24.5026 43.4714 22.7661 43.1563 22.7661C42.9135 22.7774 43.3734 24.4049 43.2443 24.7826C43.1151 25.1604 42.9902 23.5009 42.7588 23.5235C42.6736 23.5235 42.6097 23.5536 42.7857 24.4932C42.9338 25.163 43.1092 25.8217 43.311 26.4665H43.2982C43.2982 26.4665 44.5616 36.2802 47.8409 35.7315C51.3316 35.1602 51.6979 34.711 51.6979 34.711Z" fill="#FFBE9D"/>
<path d="M46.75 44.447L25.9431 42.4418C25.6611 42.4157 25.3983 42.243 25.2121 41.9613C25.0259 41.6796 24.9315 41.3119 24.9494 40.9383L25.8807 24.0151C25.9003 23.6418 26.0308 23.2939 26.2436 23.0474C26.4564 22.8009 26.7342 22.6759 27.0163 22.6996L47.8402 24.6973C48.1237 24.7238 48.3876 24.8983 48.5739 25.1823C48.7603 25.4664 48.8538 25.8368 48.8339 26.2121L47.9027 43.1352C47.8929 43.321 47.8556 43.5023 47.7929 43.669C47.7302 43.8357 47.6433 43.9843 47.5372 44.1065C47.4311 44.2287 47.3078 44.322 47.1744 44.381C47.041 44.4401 46.9002 44.4638 46.7599 44.4507L46.75 44.447Z" fill="#810019"/>
<path d="M46.7503 44.4461C46.8142 44.4461 46.8766 44.4461 46.9405 44.4461C47.1268 44.4197 47.3042 44.3275 47.4544 44.1793C47.5756 44.0602 47.6763 43.9082 47.7498 43.7335C47.8232 43.5589 47.8677 43.3655 47.8803 43.1663C47.9058 42.689 47.9356 42.1384 47.9683 41.5201L48.5361 31.0392C48.5957 29.9329 48.6587 28.7746 48.7249 27.5643C48.742 27.2636 48.7576 26.9573 48.7746 26.651C48.8145 26.3474 48.8087 26.0364 48.7576 25.7358C48.6933 25.4363 48.5529 25.1754 48.3601 24.9972C48.2634 24.9065 48.1559 24.8379 48.0421 24.7942C47.9246 24.7586 47.8048 24.7378 47.6844 24.7322L41.4084 24.1327L27.0294 22.7401C26.8755 22.7252 26.721 22.7562 26.5773 22.8306C26.4336 22.9051 26.3043 23.0212 26.199 23.1705C26.0937 23.3189 26.0151 23.4968 25.969 23.6911C25.9292 23.8898 25.9082 24.0943 25.9065 24.3C25.8592 25.1344 25.8119 25.9625 25.7646 26.7844C25.6699 28.4294 25.581 30.0481 25.4977 31.6405C25.3217 34.8241 25.1513 37.8968 24.9895 40.821C24.9524 41.1761 25.0194 41.5366 25.1769 41.8283C25.3319 42.1155 25.5649 42.3122 25.827 42.377C26.3566 42.4466 26.8932 42.4841 27.4156 42.5405L30.4606 42.8356L35.9288 43.3693L43.8444 44.1473L45.9951 44.3653L46.5629 44.4292L46.7531 44.4518C46.7531 44.4518 46.6892 44.4518 46.5629 44.4386L45.9951 44.3898L43.843 44.1924L35.9245 43.4407L30.4606 42.9258L27.4141 42.6345C26.8903 42.58 26.3636 42.5443 25.8185 42.4729C25.5394 42.4044 25.2912 42.1956 25.1258 41.8903C24.96 41.5812 24.8885 41.2006 24.9256 40.8247C25.086 37.8986 25.255 34.8278 25.4296 31.6424C25.5166 30.05 25.6051 28.4313 25.695 26.7863C25.7405 25.9631 25.7878 25.135 25.837 24.3018C25.8396 24.0887 25.8615 23.8767 25.9023 23.6704C25.9776 23.3564 26.1306 23.085 26.3366 22.9002C26.5427 22.7154 26.7897 22.6279 27.038 22.6518L41.4169 24.0425L47.6915 24.6514C47.8158 24.6572 47.9395 24.6792 48.0605 24.7172C48.2403 24.7858 48.4042 24.913 48.5373 25.0869C48.6705 25.2609 48.7686 25.4762 48.8229 25.7132C48.8571 25.868 48.871 26.0295 48.864 26.1905C48.864 26.3484 48.8484 26.5006 48.8399 26.6566C48.8229 26.9629 48.8058 27.2693 48.7888 27.57C48.7216 28.779 48.6572 29.9366 48.5957 31.0429C48.3473 35.4668 48.1457 39.0469 48.0066 41.5238C47.9711 42.1421 47.9399 42.689 47.9129 43.1682C47.8989 43.3713 47.8522 43.568 47.7758 43.745C47.6993 43.9221 47.5951 44.0753 47.47 44.1943C47.3177 44.3429 47.1375 44.4332 46.949 44.4555C46.9018 44.4612 46.8543 44.4612 46.8071 44.4555L46.7503 44.4461Z" fill="#263238"/>
<path d="M27.3039 35.4088L27.2116 37.1001L27.081 37.087L27.1648 35.5553L26.8652 35.5272L26.8738 35.373L27.3039 35.4088Z" fill="#FAFAFA"/>
<path d="M28.5337 37.075L28.5238 37.2291L27.6309 37.1426V37.0205L28.1987 36.3853C28.352 36.2105 28.3861 36.1015 28.3918 35.985C28.4031 35.797 28.3052 35.6599 28.1078 35.6411C28.0433 35.6288 27.9774 35.6363 27.9154 35.663C27.8534 35.6897 27.7968 35.7349 27.7501 35.7952L27.6635 35.6805C27.725 35.6041 27.7985 35.5467 27.8788 35.5126C27.9591 35.4784 28.0441 35.4684 28.1277 35.4832C28.3861 35.5076 28.5408 35.6974 28.5252 35.9793C28.516 36.0819 28.4898 36.1805 28.4486 36.2682C28.4074 36.3559 28.3521 36.4305 28.2867 36.4868L27.8239 37.0073L28.5337 37.075Z" fill="#FAFAFA"/>
<path d="M29.8876 36.913L29.6335 36.8885L29.608 37.332L29.4774 37.3189L29.5015 36.8754L28.7832 36.8077V36.6818L29.52 35.6294L29.6619 35.6426L28.9521 36.6687L29.5058 36.7232L29.5271 36.3323L29.6548 36.3435L29.6335 36.7344L29.8876 36.7589V36.913Z" fill="#FAFAFA"/>
<path d="M31.8369 37.1L31.5828 37.0755L31.5572 37.5191L31.4266 37.5059L31.4507 37.0643L30.7324 36.9947V36.8688L31.4692 35.8164L31.6111 35.8314L30.9014 36.8557L31.455 36.9102L31.4763 36.5193L31.604 36.5324L31.5813 36.9214L31.8369 36.9459V37.1Z" fill="#FAFAFA"/>
<path d="M32.9517 37.1555C32.9361 37.443 32.7728 37.6516 32.4619 37.6215C32.2939 37.6138 32.1346 37.5202 32.0176 37.3603L32.0886 37.2306C32.1876 37.371 32.3241 37.4546 32.469 37.4637C32.6848 37.4843 32.8069 37.3547 32.8182 37.1498C32.8296 36.945 32.7359 36.789 32.4122 36.7571L32.1411 36.7307L32.2532 35.8926L32.9502 35.9602L32.9417 36.1143L32.3597 36.058L32.2859 36.5898L32.4506 36.6067C32.8338 36.6424 32.9687 36.8567 32.9517 37.1555Z" fill="#FAFAFA"/>
<path d="M34.2163 37.269C34.2076 37.4074 34.1579 37.5356 34.0782 37.6257C33.9984 37.7158 33.895 37.7605 33.7904 37.7501H33.7563C33.417 37.7182 33.2509 37.3893 33.2808 36.8575C33.312 36.2843 33.5647 36.008 33.9111 36.0418C34.0163 36.0456 34.1189 36.0872 34.2077 36.1621L34.1467 36.2974C34.075 36.2326 33.9907 36.1967 33.904 36.1941C33.6286 36.1677 33.4397 36.382 33.4142 36.8405V36.9796C33.4558 36.89 33.5162 36.8184 33.5881 36.7737C33.6599 36.7289 33.7401 36.713 33.8188 36.7278C33.9199 36.7232 34.0183 36.7715 34.0927 36.8622C34.1671 36.953 34.2115 37.0789 34.2163 37.2126C34.2177 37.2314 34.2177 37.2503 34.2163 37.269ZM34.0871 37.269C34.0999 37.0473 33.9835 36.8932 33.7875 36.8744C33.7494 36.8648 33.7103 36.8654 33.6723 36.8759C33.6343 36.8864 33.5983 36.9067 33.5662 36.9357C33.5342 36.9647 33.5068 37.0017 33.4856 37.0447C33.4644 37.0877 33.4497 37.1359 33.4426 37.1863C33.4426 37.1863 33.4426 37.2032 33.4426 37.2108C33.4312 37.3987 33.5391 37.5866 33.7592 37.6054C33.796 37.6138 33.8337 37.6124 33.8701 37.6014C33.9065 37.5905 33.941 37.5701 33.9714 37.5414C34.0019 37.5128 34.0278 37.4765 34.0476 37.4346C34.0675 37.3927 34.0809 37.346 34.0871 37.2972C34.0878 37.2853 34.0878 37.2734 34.0871 37.2615V37.269Z" fill="#FAFAFA"/>
<path d="M35.9531 37.4575C35.9375 37.7394 35.7714 37.9405 35.4633 37.9104C35.2948 37.9028 35.1351 37.8092 35.0176 37.6492L35.0886 37.5195C35.189 37.6595 35.3262 37.7429 35.4718 37.7526C35.6834 37.7714 35.8069 37.653 35.8182 37.4444C35.8296 37.2358 35.7288 37.0986 35.4931 37.0685L35.4023 37.0591L35.4094 36.9313L35.7941 36.3807L35.1425 36.3187L35.151 36.1646L35.9701 36.2435L35.963 36.3656L35.5698 36.9294C35.8424 36.9839 35.9673 37.1869 35.9531 37.4575Z" fill="#FAFAFA"/>
<path d="M37.2303 37.5606C37.2223 37.6996 37.1729 37.8288 37.0931 37.9197C37.0133 38.0106 36.9094 38.0558 36.8044 38.0455C36.7916 38.0473 36.7788 38.0473 36.7661 38.0455C36.4282 38.0135 36.2607 37.6846 36.2905 37.1528C36.3217 36.589 36.5744 36.3033 36.9208 36.3372C37.0261 36.341 37.1286 36.3825 37.2175 36.4574L37.1564 36.5928C37.0851 36.5271 37.0006 36.4911 36.9137 36.4894C36.6383 36.4631 36.4495 36.6773 36.4239 37.1359V37.2749C36.4655 37.1853 36.5259 37.1137 36.5978 37.069C36.6697 37.0243 36.7499 37.0083 36.8285 37.0231C36.9307 37.0175 37.0304 37.0658 37.1057 37.1574C37.1811 37.249 37.2258 37.3765 37.2303 37.5117C37.2314 37.528 37.2314 37.5443 37.2303 37.5606ZM37.1011 37.5606C37.1139 37.3388 36.9975 37.1847 36.8015 37.1659C36.7634 37.1564 36.7243 37.1569 36.6863 37.1675C36.6483 37.178 36.6123 37.1983 36.5802 37.2273C36.5482 37.2563 36.5208 37.2933 36.4996 37.3363C36.4784 37.3793 36.4638 37.4274 36.4566 37.4779C36.4566 37.4779 36.4566 37.4948 36.4566 37.5023C36.4452 37.6903 36.5531 37.8782 36.7732 37.897C36.81 37.9053 36.8477 37.904 36.8841 37.893C36.9205 37.882 36.955 37.8616 36.9854 37.833C37.0159 37.8044 37.0418 37.7681 37.0616 37.7261C37.0815 37.6842 37.0949 37.6376 37.1011 37.5888C37.1018 37.5769 37.1018 37.565 37.1011 37.5531V37.5606Z" fill="#FAFAFA"/>
<path d="M38.4728 36.4888L38.4657 36.611L37.8467 38.1144L37.7048 38.1013L38.3138 36.6204L37.6594 36.5565L37.6409 36.8722L37.5117 36.8609L37.5387 36.3911L38.4728 36.4888Z" fill="#FAFAFA"/>
<path d="M40.2872 36.6685L40.2801 36.7926L39.6612 38.296L39.5192 38.2829L40.1268 36.802L39.4724 36.7381L39.4554 37.0538L39.3262 37.0406L39.3517 36.5708L40.2872 36.6685Z" fill="#FAFAFA"/>
<path d="M41.4726 38.0055C41.457 38.3043 41.2554 38.4697 40.9517 38.4415C40.6479 38.4133 40.4704 38.2084 40.4875 37.9096C40.4923 37.8139 40.5214 37.7232 40.5701 37.6523C40.6188 37.5813 40.6843 37.5342 40.7558 37.5187C40.6976 37.4891 40.6485 37.4349 40.6159 37.3646C40.5833 37.2943 40.5691 37.2118 40.5755 37.1297C40.5911 36.8553 40.777 36.7012 41.0468 36.7257C41.3165 36.7501 41.4868 36.9418 41.4726 37.2162C41.4696 37.299 41.446 37.3783 41.4054 37.4415C41.3649 37.5047 41.3096 37.5484 41.2483 37.5657C41.3178 37.5947 41.3777 37.654 41.4184 37.7338C41.4592 37.8137 41.4783 37.9094 41.4726 38.0055ZM41.3392 37.9904C41.3506 37.7818 41.2228 37.639 40.9971 37.6146C40.7714 37.5902 40.6323 37.7085 40.6209 37.9172C40.6095 38.1258 40.7345 38.2686 40.9602 38.293C41.1859 38.3174 41.3278 38.199 41.3392 37.9904ZM41.0042 37.4774C41.2029 37.4962 41.3278 37.3891 41.3378 37.2068C41.3477 37.0245 41.2285 36.8873 41.0383 36.8704C40.848 36.8535 40.7174 36.9549 40.7075 37.1429C40.6975 37.3308 40.8069 37.4605 41.0042 37.4774Z" fill="#FAFAFA"/>
<path d="M42.7288 37.7361C42.6976 38.3093 42.4449 38.5855 42.0985 38.5517C41.9935 38.5461 41.8913 38.5047 41.8018 38.4314L41.8615 38.2961C41.9337 38.3607 42.0185 38.3966 42.1056 38.3995C42.3796 38.4258 42.5684 38.2115 42.594 37.7511V37.6139C42.5523 37.7039 42.4916 37.7757 42.4195 37.8204C42.3473 37.8652 42.2668 37.8809 42.188 37.8658C42.0858 37.8714 41.9861 37.8231 41.9108 37.7314C41.8354 37.6398 41.7906 37.5124 41.7862 37.3771C41.7848 37.3578 41.7848 37.3382 41.7862 37.3189C41.7953 37.1807 41.845 37.0528 41.9247 36.9628C42.0044 36.8728 42.1076 36.8279 42.2121 36.8378H42.2447C42.5954 36.8754 42.7615 37.2042 42.7288 37.7361ZM42.567 37.3828C42.5769 37.1948 42.4705 37.0069 42.2504 36.99C42.1763 36.9731 42.1001 36.9959 42.0386 37.0533C41.9771 37.1107 41.9353 37.1982 41.9225 37.2963C41.9219 37.3063 41.9219 37.3164 41.9225 37.3264C41.9097 37.5481 42.0261 37.7023 42.222 37.721C42.2986 37.7416 42.3783 37.721 42.4435 37.664C42.5087 37.6069 42.5541 37.5179 42.5698 37.4166V37.3828H42.567Z" fill="#FAFAFA"/>
<path d="M36.5735 39.2598L36.5332 39.9927L46.7343 40.9749L46.7746 40.242L36.5735 39.2598Z" fill="#FAFAFA"/>
<path d="M41.466 41.2051L41.4258 41.938L46.6573 42.4417L46.6976 41.7089L41.466 41.2051Z" fill="#FAFAFA"/>
<path d="M26.7815 30.59L26.6508 32.9629C26.6225 33.4764 26.914 33.9229 27.3019 33.9604L30.1774 34.2379C30.5652 34.2753 30.9026 33.8895 30.9308 33.376L31.0615 31.0031C31.0898 30.4897 30.7983 30.0431 30.4105 30.0057L27.5349 29.7281C27.1471 29.6907 26.8098 30.0766 26.7815 30.59Z" fill="#455A64"/>
<path d="M26.666 32.7218L26.6816 32.4512L28.8848 32.6635C28.9453 32.6718 29.0064 32.6642 29.0647 32.6412C29.123 32.6182 29.1773 32.5802 29.2245 32.5294C29.2717 32.4786 29.3108 32.416 29.3398 32.3452C29.3687 32.2744 29.3868 32.1967 29.393 32.1166C29.3993 32.0366 29.3935 31.9556 29.3762 31.8785C29.3588 31.8013 29.3301 31.7295 29.2917 31.667C29.2534 31.6045 29.2061 31.5526 29.1526 31.5144C29.0991 31.4761 29.0404 31.4521 28.9799 31.4438H28.9586L26.7554 31.2315L26.7696 30.959L28.9743 31.1713C29.1467 31.1957 29.3052 31.3077 29.4164 31.4839C29.5276 31.66 29.5828 31.8865 29.5703 32.1154C29.5577 32.3444 29.4785 32.558 29.3493 32.7111C29.2201 32.8642 29.051 32.9448 28.8777 32.936L26.666 32.7218Z" fill="#810019"/>
<path d="M29.4898 31.9646L29.4746 32.2363L30.9866 32.384L31.0018 32.1123L29.4898 31.9646Z" fill="#810019"/>
<path d="M27.5317 26.2225L27.4629 27.4727L38.4709 28.5352L38.5398 27.285L27.5317 26.2225Z" fill="#FAFAFA"/>
<path d="M53.0181 22.9316C52.7242 23.58 52.7541 24.3937 52.8364 25.1436C52.9187 25.8934 53.0465 26.6583 52.9201 27.3988C52.8364 27.8855 52.6362 28.3722 52.7328 28.8552C52.7966 29.1991 52.9911 29.4698 53.0877 29.7949C53.2296 30.2647 53.1487 30.7872 53.1019 31.287C53.055 31.7869 53.0578 32.3451 53.3077 32.7228C53.6186 33.1927 54.1907 33.172 54.6165 32.9108C55.0424 32.6495 55.3803 32.1854 55.7749 31.8452C56.1696 31.505 56.6835 31.2814 57.1079 31.552C57.3038 31.6761 57.4727 31.8978 57.6885 31.9279C57.9909 31.958 58.2294 31.5915 58.5218 31.4844C58.7731 31.3942 59.0414 31.505 59.2998 31.4656C59.8264 31.3885 60.2154 30.6368 60.1416 29.9433C60.0923 29.597 59.9632 29.2793 59.772 29.034C59.5809 28.7887 59.3371 28.6278 59.074 28.5733C58.8512 28.5245 58.5829 28.5169 58.4608 28.2651C58.2791 27.8893 58.6027 27.4176 58.5417 26.9834C58.5019 26.6715 58.2777 26.4629 58.0576 26.3351C57.8376 26.2073 57.5948 26.1227 57.4245 25.901C57.1193 25.5063 57.1533 24.8598 57.0597 24.3073C56.9049 23.3977 56.2618 21.5353 54.8621 21.353" fill="#263238"/>
<path d="M52.3743 74.6867L52.4012 73.3599L54.2794 73.4106L54.2552 75.3519H54.1388C53.6207 75.3764 51.4998 75.4271 51.1577 75.2786C50.7716 75.1189 52.3743 74.6867 52.3743 74.6867Z" fill="#810019"/>
<path d="M53.5742 75.3146C53.6054 75.1062 53.6933 74.9203 53.8212 74.7921C53.9472 74.6645 54.1047 74.6042 54.2627 74.623L54.2528 75.3165L53.5742 75.3146Z" fill="#810019"/>
<path d="M51.5866 74.936C51.5866 74.936 51.0187 75.1352 51.0926 75.2593C51.1664 75.3833 53.3043 75.4472 54.2511 75.3532V75.2987L51.7512 75.2612C51.7512 75.2612 51.6959 74.9454 51.5866 74.936Z" fill="#810019"/>
<path d="M54.2798 75.2935H54.1549L53.8142 75.3047H52.6871C52.247 75.3047 51.8481 75.273 51.5599 75.2526L51.2192 75.2246L51.127 75.2153H51.2192L51.5613 75.2321C51.8453 75.247 52.247 75.2656 52.6871 75.2768C53.1271 75.2879 53.5246 75.2898 53.8128 75.2879H54.2798V75.2935Z" fill="#263238"/>
<path d="M51.7488 75.2994C51.7349 75.2239 51.7144 75.1508 51.6878 75.0814C51.655 75.0171 51.6169 74.9579 51.5742 74.9048C51.63 74.9395 51.6766 74.9958 51.7078 75.0663C51.7389 75.1367 51.7533 75.218 51.7488 75.2994Z" fill="#263238"/>
<path d="M52.3086 74.937C52.2866 74.9081 52.2671 74.8761 52.2504 74.8416C52.2234 74.7854 52.2064 74.733 52.212 74.7292C52.2177 74.7255 52.2433 74.7685 52.2702 74.8247C52.2972 74.8809 52.3142 74.9333 52.3086 74.937Z" fill="#263238"/>
<path d="M52.4632 74.8352C52.4395 74.8191 52.4176 74.7989 52.3979 74.7752C52.3652 74.7358 52.3439 74.6983 52.3482 74.6927C52.3525 74.687 52.3823 74.7133 52.4135 74.7527C52.4447 74.7921 52.4674 74.8296 52.4632 74.8352Z" fill="#263238"/>
<path d="M52.5592 74.6036C52.5592 74.6127 52.5152 74.6182 52.4612 74.6182C52.4073 74.6182 52.3633 74.6182 52.3633 74.6017C52.3947 74.5875 52.4283 74.5831 52.4612 74.5889C52.4943 74.5846 52.5277 74.5896 52.5592 74.6036Z" fill="#263238"/>
<path d="M52.5965 74.4382C52.564 74.4659 52.5258 74.4797 52.4871 74.4776C52.4488 74.4857 52.4094 74.4771 52.375 74.4532C52.4119 74.4495 52.4489 74.4495 52.4857 74.4532C52.522 74.4418 52.5592 74.4368 52.5965 74.4382Z" fill="#263238"/>
<path d="M52.2419 74.7226C52.202 74.732 52.1612 74.732 52.1213 74.7226C52.0778 74.7137 52.0351 74.6999 51.9935 74.6813C51.9684 74.6706 51.9442 74.6567 51.9211 74.6399C51.907 74.6281 51.8965 74.6101 51.8913 74.5892C51.8898 74.5772 51.8909 74.5648 51.8944 74.5535C51.8979 74.5422 51.9037 74.5325 51.9112 74.5253C51.9578 74.497 52.0104 74.4909 52.0601 74.5081C52.1097 74.5252 52.1534 74.5645 52.1837 74.6193C52.2022 74.6506 52.2148 74.6873 52.2206 74.7264V74.7696C52.2095 74.7201 52.1917 74.6736 52.1681 74.6324C52.1414 74.5894 52.1059 74.5575 52.0659 74.5403C52.0429 74.5293 52.0186 74.5244 51.9942 74.5261C51.9698 74.5277 51.9459 74.5357 51.9239 74.5497C51.9041 74.5685 51.9112 74.5986 51.9324 74.6155C51.954 74.6305 51.9763 74.6437 51.9992 74.655C52.0392 74.6754 52.0805 74.6912 52.1227 74.702C52.1627 74.706 52.2025 74.7129 52.2419 74.7226Z" fill="#263238"/>
<path d="M52.2178 74.7286C52.2035 74.6949 52.1995 74.6553 52.2065 74.6177C52.2106 74.5746 52.2233 74.5338 52.2434 74.4993C52.2536 74.4754 52.2685 74.4555 52.2865 74.4417C52.3044 74.4278 52.3248 74.4205 52.3456 74.4204C52.3573 74.4252 52.3674 74.4354 52.3739 74.4492C52.3804 74.463 52.383 74.4795 52.3811 74.4956C52.3776 74.5204 52.3703 74.5441 52.3598 74.5651C52.3436 74.6002 52.324 74.6325 52.3016 74.661C52.282 74.6893 52.2577 74.7112 52.2306 74.7249C52.2518 74.7004 52.2717 74.674 52.2902 74.6459C52.3101 74.6175 52.3272 74.5859 52.3413 74.552C52.3584 74.5181 52.3711 74.458 52.3413 74.4505C52.3115 74.443 52.2789 74.4843 52.2604 74.5163C52.2424 74.5464 52.2302 74.5818 52.2249 74.6196C52.2204 74.6557 52.2181 74.6921 52.2178 74.7286Z" fill="#263238"/>
<path d="M54.2514 74.6138C54.2041 74.6078 54.1566 74.6078 54.1094 74.6138C53.9983 74.6269 53.8924 74.6816 53.8039 74.7714C53.7154 74.8613 53.6481 74.9826 53.6097 75.1212C53.5799 75.2265 53.5756 75.2979 53.5714 75.2979C53.57 75.281 53.57 75.264 53.5714 75.2472C53.5886 75.0721 53.6518 74.9106 53.7499 74.791C53.848 74.6714 53.9748 74.6014 54.108 74.5931C54.142 74.5894 54.1762 74.5894 54.2102 74.5931C54.2245 74.5978 54.2383 74.6047 54.2514 74.6138Z" fill="#263238"/>
<path d="M54.0678 73.5747C54.0792 73.7447 54.082 73.9154 54.0763 74.0859C54.0794 74.2559 54.0747 74.4259 54.0621 74.5952C54.047 74.2553 54.047 73.9146 54.0621 73.5747H54.0678Z" fill="#263238"/>
<path d="M53.3424 75.0646C53.252 75.091 53.1593 75.1005 53.067 75.0928C52.9749 75.096 52.8828 75.0841 52.793 75.0571C52.793 75.0571 52.9165 75.0571 53.0684 75.0571C53.2203 75.0571 53.3409 75.0646 53.3424 75.0646Z" fill="#263238"/>
<path d="M53.7046 75.0713C53.6975 75.095 53.6894 75.1182 53.6805 75.1407C53.6663 75.1764 53.6606 75.212 53.6535 75.2101C53.6464 75.2083 53.645 75.1708 53.6606 75.1295C53.6763 75.0882 53.7004 75.0601 53.7046 75.0713Z" fill="#263238"/>
<path d="M53.8492 74.8512C53.8429 74.8723 53.8333 74.8913 53.8208 74.907C53.8009 74.9312 53.7825 74.948 53.7782 74.9424C53.774 74.9368 53.7853 74.9107 53.8052 74.8865C53.8251 74.8623 53.845 74.8456 53.8492 74.8512Z" fill="#263238"/>
<path d="M54.0486 74.7482C54.0486 74.7575 54.0216 74.7482 53.9946 74.7687C53.9676 74.7891 53.9464 74.7984 53.9421 74.7929C53.9378 74.7873 53.9534 74.7538 53.9875 74.7389C54.0216 74.724 54.05 74.7407 54.0486 74.7482Z" fill="#263238"/>
<path d="M54.1945 74.7054C54.1889 74.7183 54.1802 74.7283 54.1699 74.7341C54.1591 74.7384 54.1476 74.7384 54.1367 74.7341C54.1419 74.7208 54.1506 74.7106 54.1613 74.7054C54.1772 74.6978 54.1916 74.6978 54.1945 74.7054Z" fill="#263238"/>
<path d="M57.6995 74.6867L57.7265 73.3599L59.6032 73.4106L59.579 75.3519H59.4626C58.9445 75.3764 56.825 75.4271 56.4815 75.2786C56.0968 75.1189 57.6995 74.6867 57.6995 74.6867Z" fill="#810019"/>
<path d="M58.8984 75.3149C58.9296 75.1061 59.0181 74.9199 59.1469 74.7924C59.2725 74.664 59.4303 74.6035 59.5884 74.6233L59.577 75.3168L58.8984 75.3149Z" fill="#810019"/>
<path d="M56.9159 74.936C56.9159 74.936 56.348 75.1352 56.4204 75.2593C56.4928 75.3833 58.6321 75.4472 59.579 75.3532V75.2987L57.0777 75.2612C57.0777 75.2612 57.0252 74.9454 56.9159 74.936Z" fill="#810019"/>
<path d="M59.6035 75.2935H59.4786L59.1365 75.3047H58.0093C57.5693 75.3047 57.1704 75.273 56.8836 75.2526L56.5415 75.2246L56.4492 75.2153H56.5429L56.8836 75.2321C57.1675 75.247 57.5693 75.2656 58.0093 75.2768C58.4494 75.2879 58.8483 75.2898 59.1365 75.2879H59.6035V75.2935Z" fill="#263238"/>
<path d="M57.0755 75.2994C57.0621 75.224 57.042 75.1508 57.0159 75.0814C56.9832 75.0171 56.9451 74.9579 56.9023 74.9048C56.958 74.9396 57.0044 74.996 57.0353 75.0664C57.0663 75.1369 57.0803 75.2182 57.0755 75.2994Z" fill="#263238"/>
<path d="M57.6352 74.937C57.6135 74.9083 57.5944 74.8763 57.5784 74.8416C57.5529 74.7854 57.5344 74.733 57.5401 74.7292C57.5458 74.7255 57.5713 74.7685 57.5969 74.8247C57.6133 74.8598 57.6262 74.8976 57.6352 74.937Z" fill="#263238"/>
<path d="M57.7913 74.8352C57.7674 74.8196 57.7454 74.7994 57.726 74.7752C57.6948 74.7358 57.672 74.6983 57.6763 74.6927C57.6806 74.687 57.7089 74.7133 57.7416 74.7527C57.7742 74.7921 57.7955 74.8296 57.7913 74.8352Z" fill="#263238"/>
<path d="M57.8873 74.6036C57.8873 74.6127 57.8433 74.6182 57.7894 74.6182C57.7354 74.6182 57.6914 74.6182 57.6914 74.6017C57.7228 74.5875 57.7564 74.5831 57.7894 74.5889C57.8224 74.5846 57.8559 74.5896 57.8873 74.6036Z" fill="#263238"/>
<path d="M57.9182 74.4383C57.8849 74.4652 57.8465 74.4789 57.8075 74.4777C57.7691 74.4857 57.7297 74.4772 57.6953 74.4533C57.7322 74.4495 57.7692 74.4495 57.806 74.4533C57.8428 74.4417 57.8805 74.4367 57.9182 74.4383Z" fill="#263238"/>
<path d="M57.574 74.7226C57.5341 74.732 57.4932 74.732 57.4533 74.7226C57.4099 74.7137 57.3672 74.6999 57.3256 74.6813C57.2998 74.6714 57.275 74.6575 57.2517 74.6399C57.2377 74.6285 57.2275 74.6103 57.2233 74.5892C57.2219 74.5773 57.2228 74.5652 57.226 74.5539C57.2293 74.5427 57.2347 74.5328 57.2418 74.5253C57.2885 74.497 57.3411 74.4909 57.3907 74.5081C57.4404 74.5252 57.484 74.5645 57.5144 74.6193C57.5327 74.651 57.5458 74.6875 57.5527 74.7264C57.5555 74.7405 57.5555 74.7554 57.5527 74.7696C57.541 74.72 57.5228 74.6735 57.4987 74.6324C57.4729 74.5891 57.4378 74.557 57.398 74.5403C57.3515 74.5189 57.3006 74.5222 57.256 74.5497C57.2375 74.5685 57.2446 74.5986 57.2645 74.6155C57.2859 74.6324 57.3088 74.6457 57.3327 74.655C57.3727 74.6754 57.414 74.6912 57.4562 74.702C57.5271 74.717 57.574 74.717 57.574 74.7226Z" fill="#263238"/>
<path d="M57.543 74.7267C57.5283 74.6933 57.5237 74.6536 57.5303 74.6159C57.5348 74.5738 57.547 74.5338 57.5658 74.4993C57.5763 74.4762 57.591 74.4568 57.6086 74.4431C57.6262 74.4293 57.6461 74.4215 57.6665 74.4204C57.6787 74.4244 57.6893 74.4344 57.6962 74.4484C57.703 74.4623 57.7056 74.4792 57.7035 74.4956C57.7001 74.5208 57.6923 74.5446 57.6807 74.5651C57.665 74.6007 57.6454 74.633 57.6225 74.661C57.6037 74.6896 57.5798 74.7116 57.553 74.7249C57.5735 74.7 57.5929 74.6736 57.6112 74.6459C57.631 74.617 57.6486 74.5856 57.6637 74.552C57.6807 74.5181 57.6921 74.458 57.6637 74.4505C57.6353 74.443 57.6027 74.4843 57.5828 74.5163C57.5661 74.5474 57.5541 74.5825 57.5473 74.6196C57.5431 74.655 57.5416 74.6909 57.543 74.7267Z" fill="#263238"/>
<path d="M59.5767 74.6138C59.5294 74.6078 59.4819 74.6078 59.4347 74.6138C59.3237 74.6271 59.2178 74.6819 59.1293 74.7717C59.0409 74.8615 58.9735 74.9827 58.935 75.1212C58.9052 75.2265 58.9009 75.2979 58.8967 75.2979C58.8938 75.2812 58.8938 75.2639 58.8967 75.2472C58.9007 75.2017 58.9083 75.157 58.9194 75.1137C58.9547 74.9683 59.0227 74.8406 59.1143 74.7476C59.2058 74.6546 59.3166 74.6007 59.4319 74.5931C59.4663 74.5894 59.501 74.5894 59.5355 74.5931C59.5501 74.5964 59.5641 74.6034 59.5767 74.6138Z" fill="#263238"/>
<path d="M59.3981 73.5747C59.4132 73.9146 59.4132 74.2553 59.3981 74.5952C59.3867 74.4258 59.3839 74.2557 59.3896 74.0859C59.3846 73.9154 59.3874 73.7447 59.3981 73.5747Z" fill="#263238"/>
<path d="M58.6651 75.0646C58.5753 75.091 58.483 75.1005 58.3912 75.0928C58.299 75.097 58.2069 75.085 58.1172 75.0571C58.1172 75.0571 58.2407 75.0571 58.3912 75.0571C58.5416 75.0571 58.6651 75.0646 58.6651 75.0646Z" fill="#263238"/>
<path d="M59.0316 75.0713C59.0316 75.0713 59.0217 75.1051 59.0089 75.1407C58.9961 75.1764 58.9876 75.212 58.9819 75.2101C58.9763 75.2083 58.9734 75.1708 58.9819 75.1295C58.9905 75.0882 59.0288 75.0601 59.0316 75.0713Z" fill="#263238"/>
<path d="M59.1787 74.8512C59.1724 74.8723 59.1627 74.8913 59.1503 74.907C59.1304 74.9312 59.1105 74.948 59.1063 74.9424C59.102 74.9368 59.1148 74.9107 59.1347 74.8865C59.1546 74.8623 59.173 74.8456 59.1787 74.8512Z" fill="#263238"/>
<path d="M59.3732 74.7482C59.3732 74.7575 59.3476 74.7482 59.3192 74.7687C59.2908 74.7891 59.2724 74.7984 59.2667 74.7929C59.261 74.7873 59.2781 74.7538 59.3121 74.7389C59.3462 74.724 59.376 74.7407 59.3732 74.7482Z" fill="#263238"/>
<path d="M59.5187 74.7054C59.5131 74.7183 59.5045 74.7283 59.4942 74.7341C59.4833 74.7383 59.4718 74.7383 59.4609 74.7341C59.4609 74.7341 59.471 74.7131 59.4869 74.7054C59.5028 74.6978 59.5173 74.6978 59.5187 74.7054Z" fill="#263238"/>
<path d="M51.9938 40.5884L51.0938 58.3497V74.3671H54.691C54.691 74.3671 54.8429 60.5541 54.7478 59.6502C54.7478 59.6502 55.3355 45.8147 55.4022 46.0121C55.5441 46.4161 55.5356 58.1768 55.7372 59.6333C55.9388 61.0898 56.8729 74.3671 56.8729 74.3671H60.3352L59.1712 59.1447C59.147 57.3105 58.7907 41.2029 58.7907 41.2029L51.9938 40.5884Z" fill="#263238"/>
<path d="M60.2547 73.4573C60.2156 73.4944 60.1693 73.5159 60.1213 73.5193C59.9912 73.5345 59.8604 73.5061 59.7408 73.4366C59.5749 73.3279 59.4001 73.2447 59.2198 73.1885C59.0168 73.1491 58.8053 73.29 58.6037 73.4686C58.4183 73.6623 58.2009 73.795 57.9692 73.8557C57.7771 73.8798 57.5833 73.8484 57.4013 73.7636C57.2803 73.7104 57.1618 73.6477 57.0464 73.5757C57.0028 73.5535 56.9621 73.5225 56.9258 73.4836C56.9258 73.4667 57.1117 73.5813 57.4155 73.7016C57.5919 73.7728 57.7774 73.7958 57.9607 73.7693C58.1811 73.7077 58.3876 73.579 58.564 73.3934C58.6649 73.3031 58.7724 73.2263 58.8848 73.1641C58.9939 73.1071 59.1121 73.0877 59.2283 73.1077C59.415 73.1653 59.5954 73.2544 59.7649 73.3727C59.8766 73.4436 59.9989 73.4802 60.1227 73.4798C60.2064 73.4761 60.2519 73.4479 60.2547 73.4573Z" fill="#455A64"/>
<path d="M54.7173 73.3456C54.6817 73.3013 54.6437 73.2605 54.6037 73.2234C54.4885 73.1382 54.3537 73.1114 54.2247 73.1483C54.0334 73.2198 53.8541 73.3391 53.6966 73.4997C53.5956 73.59 53.4882 73.6668 53.3758 73.729C53.2505 73.7972 53.1135 73.8186 52.9797 73.791C52.7071 73.729 52.4914 73.5411 52.2699 73.4772C52.0769 73.4224 51.8765 73.4341 51.6879 73.511C51.3614 73.6407 51.1697 73.7741 51.1641 73.7553C51.204 73.7139 51.2479 73.6798 51.2947 73.6538C51.4166 73.5706 51.5434 73.5002 51.6737 73.4433C51.8703 73.3532 52.0816 73.3344 52.2855 73.3888C52.5169 73.4546 52.7355 73.6407 52.9854 73.6952C53.2352 73.7497 53.4638 73.5786 53.6526 73.4227C53.8183 73.2603 54.0071 73.1439 54.2076 73.0806C54.3487 73.0468 54.4942 73.0865 54.6136 73.1915C54.66 73.2264 54.6965 73.2806 54.7173 73.3456Z" fill="#455A64"/>
<path d="M58.5463 44.2698C58.4834 44.3242 58.4111 44.3566 58.3362 44.3637C58.1574 44.3992 57.975 44.384 57.8011 44.3192C57.6271 44.2544 57.4654 44.1415 57.3269 43.9879C57.2218 43.8695 57.175 43.7736 57.1849 43.7661C57.3689 43.9805 57.5874 44.1367 57.8237 44.223C58.06 44.3093 58.3081 44.3233 58.5491 44.2641L58.5463 44.2698Z" fill="#455A64"/>
<path d="M52.5716 43.5767C52.5801 43.5767 52.5801 43.6725 52.5432 43.8116C52.4932 43.9936 52.4097 44.1564 52.3004 44.2852C52.1906 44.4134 52.0592 44.5049 51.9172 44.552C51.8078 44.584 51.7383 44.5727 51.7383 44.5614C51.9288 44.5042 52.1053 44.3839 52.2511 44.2116C52.3968 44.0393 52.5071 43.8208 52.5716 43.5767Z" fill="#455A64"/>
<path d="M44.0709 37.0303L43.9772 38.7217L43.8466 38.7104L43.9304 37.1788L43.6309 37.1487L43.6394 36.9946L44.0709 37.0303Z" fill="#FAFAFA"/>
<path d="M45.2999 38.6885L45.2914 38.8426L44.3984 38.7581V38.634L44.9663 37.9988C45.1196 37.8259 45.1537 37.715 45.1608 37.5985C45.1707 37.4106 45.0742 37.2734 44.8768 37.2546C44.8123 37.2434 44.7467 37.2515 44.6848 37.2781C44.6229 37.3048 44.5663 37.3494 44.5191 37.4087L44.4368 37.2884C44.4982 37.212 44.5718 37.1546 44.6521 37.1205C44.7323 37.0863 44.8174 37.0763 44.901 37.0911C45.1593 37.1155 45.3141 37.3054 45.2985 37.5873C45.2899 37.7489 45.2431 37.8898 45.06 38.0947L44.5972 38.6171L45.2999 38.6885Z" fill="#FAFAFA"/>
<path d="M46.457 38.4716C46.4414 38.7516 46.2753 38.9545 45.9687 38.9245C45.7997 38.9169 45.6395 38.8233 45.5215 38.6632L45.5925 38.5317C45.6419 38.6021 45.7013 38.6589 45.7673 38.6989C45.8333 38.7389 45.9046 38.7613 45.9772 38.7647C46.1873 38.7854 46.3108 38.667 46.3235 38.4584C46.3363 38.2498 46.2341 38.1126 45.997 38.0825H45.9062L45.9133 37.9547L46.2994 37.4041L45.6478 37.3421L45.6563 37.188L46.474 37.2669V37.3891L46.0808 37.9529C46.3463 37.998 46.4726 38.2009 46.457 38.4716Z" fill="#FAFAFA"/>
<path d="M53.1638 21.939C53.0369 22.1097 52.9392 22.3145 52.8773 22.5395C52.8153 22.7645 52.7905 23.0045 52.8046 23.2432C52.8361 23.7208 52.9534 24.1815 53.1467 24.5869" fill="#263238"/>
<path d="M56.2638 29.2859L56.4569 23.398L54.6725 21.6089L53.0513 22.6575C53.0513 22.6575 52.9974 25.3525 53.0513 26.5214C53.1053 27.6903 53.9953 27.8144 53.9953 27.8144C53.9953 27.8144 53.9698 28.459 53.9414 29.1299C53.9258 29.5331 54.0301 29.9283 54.2321 30.2308C54.434 30.5333 54.7175 30.719 55.0217 30.748C55.3293 30.7764 55.6328 30.6418 55.8655 30.374C56.0982 30.1061 56.2409 29.7269 56.2624 29.3197C56.2624 29.3084 56.2638 29.2971 56.2638 29.2859Z" fill="#FFBE9D"/>
<path d="M53.3438 24.6206C53.3437 24.6503 53.3504 24.6794 53.3629 24.7041C53.3754 24.7288 53.3931 24.7481 53.4139 24.7595C53.4346 24.7708 53.4574 24.7738 53.4795 24.768C53.5015 24.7622 53.5217 24.7479 53.5376 24.7269C53.5535 24.7058 53.5643 24.6791 53.5687 24.6499C53.5731 24.6207 53.5708 24.5905 53.5622 24.563C53.5536 24.5356 53.5391 24.5121 53.5204 24.4956C53.5017 24.479 53.4798 24.4702 53.4573 24.4702C53.4424 24.4702 53.4276 24.4741 53.4139 24.4817C53.4001 24.4892 53.3876 24.5003 53.377 24.5142C53.3665 24.5282 53.3581 24.5448 53.3524 24.563C53.3467 24.5813 53.3438 24.6008 53.3438 24.6206Z" fill="#263238"/>
<path d="M53.1192 24.4576C53.1334 24.4763 53.2171 24.3827 53.3378 24.3734C53.4585 24.364 53.5507 24.4426 53.5635 24.422C53.5763 24.4014 53.555 24.3771 53.5153 24.3397C53.4614 24.2934 53.3976 24.2717 53.3335 24.2779C53.2696 24.2818 53.2086 24.3142 53.1604 24.3696C53.1234 24.4108 53.1121 24.4482 53.1192 24.4576Z" fill="#263238"/>
<path d="M54.6523 24.6224C54.6523 24.6618 54.6642 24.6996 54.6852 24.7274C54.7062 24.7553 54.7347 24.7709 54.7645 24.7709C54.787 24.7713 54.809 24.7628 54.8278 24.7466C54.8466 24.7304 54.8614 24.7071 54.8703 24.6798C54.8791 24.6525 54.8817 24.6223 54.8776 24.5931C54.8734 24.5638 54.8629 24.5369 54.8472 24.5156C54.8315 24.4943 54.8114 24.4796 54.7894 24.4735C54.7675 24.4673 54.7446 24.4699 54.7238 24.4809C54.7029 24.492 54.685 24.511 54.6723 24.5355C54.6596 24.56 54.6526 24.5889 54.6523 24.6187V24.6224Z" fill="#263238"/>
<path d="M54.4669 24.4574C54.481 24.4761 54.5648 24.3825 54.6855 24.3731C54.8061 24.3638 54.8984 24.4424 54.9112 24.4218C54.924 24.4012 54.9027 24.3769 54.8629 24.3394C54.8088 24.2939 54.7451 24.2723 54.6811 24.2777C54.617 24.283 54.5559 24.3152 54.5066 24.3694C54.4711 24.4106 54.4598 24.448 54.4669 24.4574Z" fill="#263238"/>
<path d="M54.4276 25.9741C54.2418 26.0983 54.0441 26.1881 53.8398 26.241C53.8849 26.3217 53.9489 26.3804 54.0219 26.4079C54.0948 26.4355 54.1725 26.4303 54.243 26.3932C54.275 26.3839 54.3054 26.3662 54.3322 26.3413C54.3591 26.3164 54.382 26.2847 54.3995 26.248C54.4171 26.2113 54.429 26.1703 54.4345 26.1275C54.4401 26.0847 54.4391 26.0409 54.4318 25.9986L54.4276 25.9741Z" fill="#FAFAFA"/>
<path d="M53.9961 27.8115C54.4156 27.7885 54.8215 27.6072 55.1658 27.2891C55.1658 27.2891 54.9004 28.1479 54.016 28.099L53.9961 27.8115Z" fill="#EB996E"/>
<path d="M54.0278 25.8233C53.9627 25.8023 53.896 25.7916 53.8291 25.7913C53.7978 25.7913 53.768 25.7913 53.7609 25.7537C53.7571 25.7084 53.7635 25.6626 53.7794 25.6222C53.8049 25.5169 53.8333 25.4061 53.8617 25.2896C53.9199 25.0509 53.9696 24.8366 54.0037 24.6788C54.0275 24.5955 54.0424 24.5082 54.0477 24.4194C54.0151 24.4967 53.9894 24.5787 53.971 24.6637C53.9284 24.8178 53.8731 25.0396 53.8149 25.2689C53.7879 25.3873 53.7609 25.4982 53.7354 25.6053C53.7182 25.658 53.7142 25.7166 53.724 25.7725C53.7283 25.787 53.7352 25.7999 53.7441 25.81C53.753 25.8202 53.7637 25.8273 53.7751 25.8308C53.7925 25.8345 53.8102 25.8345 53.8276 25.8308C53.8943 25.8405 53.9617 25.838 54.0278 25.8233Z" fill="#263238"/>
<path d="M56.3251 25.4886C56.3112 25.294 56.3276 25.0976 56.3734 24.9117C56.3963 24.8189 56.4378 24.7361 56.4936 24.6722C56.5494 24.6083 56.6173 24.5657 56.6899 24.549C56.7741 24.5431 56.857 24.578 56.9231 24.6472C56.9892 24.7164 57.034 24.8151 57.0491 24.9248C57.0595 25.037 57.0443 25.1507 57.0053 25.2513C56.9663 25.3518 56.9054 25.4345 56.8305 25.4886C56.7548 25.54 56.6714 25.5681 56.5863 25.5711C56.5013 25.574 56.4169 25.5516 56.3393 25.5056" fill="#FFBE9D"/>
<path d="M56.5852 25.3197C56.5852 25.3065 56.6321 25.3366 56.6945 25.3103C56.7334 25.2925 56.7671 25.259 56.7908 25.2145C56.8145 25.17 56.827 25.1167 56.8266 25.0622C56.8304 25.0348 56.8296 25.0066 56.8242 24.9796C56.8188 24.9526 56.809 24.9276 56.7953 24.9063C56.7677 24.8785 56.7334 24.8652 56.6988 24.8687C56.6335 24.8687 56.5866 24.8987 56.5824 24.8856C56.5781 24.8724 56.6122 24.8311 56.6917 24.801C56.716 24.7935 56.7413 24.7929 56.7658 24.7994C56.7902 24.8059 56.8134 24.8193 56.8336 24.8386C56.8568 24.8681 56.8744 24.9044 56.8851 24.9445C56.8957 24.9847 56.899 25.0276 56.8947 25.0698C56.891 25.1498 56.8682 25.2262 56.8294 25.2878C56.7957 25.338 56.7492 25.3701 56.6988 25.378C56.6179 25.3892 56.5767 25.3272 56.5852 25.3197Z" fill="#EB996E"/>
<path d="M53.0628 22.0533C52.671 22.6979 53.1934 23.1039 53.4532 23.3689C53.6533 23.5756 54.2439 24.1206 54.762 23.8631C54.5789 23.538 54.3702 23.3952 54.2893 23.0851C54.5008 23.4797 54.7237 23.7785 55.0871 23.8368C55.0147 23.5568 54.9125 22.9874 54.9906 22.9648C55.0871 24.0774 55.875 25.0132 56.4173 24.6562C56.5187 24.3062 56.5564 23.9295 56.5273 23.5566C56.4982 23.1837 56.4031 22.8251 56.2497 22.51C56.0924 22.1984 55.8878 21.9335 55.6491 21.7319C55.4104 21.5304 55.1426 21.3967 54.8628 21.3392C54.5416 21.2745 54.2135 21.305 53.9022 21.4285C53.5909 21.552 53.3042 21.7654 53.0628 22.0533Z" fill="#263238"/>
<path d="M56.7834 25.5981C56.7834 25.5868 56.8501 25.6714 56.8232 25.8312C56.8148 25.8772 56.7987 25.9202 56.7761 25.9569C56.7535 25.9937 56.7249 26.0233 56.6926 26.0435C56.6522 26.0679 56.608 26.0795 56.5636 26.0772C56.5193 26.0749 56.4759 26.0589 56.4371 26.0304C56.399 25.9999 56.3666 25.9586 56.342 25.9096C56.3175 25.8605 56.3015 25.8048 56.2951 25.7466C56.2864 25.6529 56.3046 25.5583 56.3462 25.4816C56.4172 25.3538 56.4967 25.3407 56.4967 25.3501C56.4546 25.3985 56.4186 25.4556 56.3902 25.5192C56.363 25.5845 56.3535 25.66 56.3632 25.7334C56.3686 25.7768 56.3809 25.8182 56.3992 25.8548C56.4176 25.8914 56.4416 25.9224 56.4697 25.9458C56.4985 25.9671 56.5305 25.9796 56.5634 25.9825C56.5963 25.9855 56.6292 25.9787 56.6599 25.9627C56.6852 25.9489 56.708 25.9283 56.7268 25.902C56.7457 25.8758 56.7601 25.8446 56.7692 25.8105C56.7846 25.7416 56.7894 25.6695 56.7834 25.5981Z" fill="#810019"/>
<path d="M50.6488 35.2782L51.9804 34.9117L52.3849 37.8773C52.043 39.3973 51.7587 40.939 51.5332 42.4966L54.6563 45.0769L55.1375 43.8666L55.9083 44.8364L59.2316 42.4966C58.8213 39.6777 57.785 38.941 57.785 38.4824C57.785 37.1669 57.6431 38.4448 58.4764 34.0867C59.3097 29.7286 56.2689 29.2832 56.2689 29.2832C56.2689 29.2832 56.3371 29.8921 53.9181 29.3114C53.0323 29.099 49.4961 31.5572 49.4961 31.5572L50.6488 35.2782Z" fill="#810019"/>
<path d="M53.9143 29.3131C53.9143 29.3131 53.8859 32.5379 54.4665 32.3199C55.0471 32.1019 56.2169 30.7244 56.2651 29.2773L53.9143 29.3131Z" fill="#FFBE9D"/>
<path d="M54.0601 34.9636C54.0532 34.5815 54.0698 34.1994 54.1098 33.8209C54.1265 33.441 54.1683 33.0637 54.2347 32.6934C54.2418 33.0761 54.2247 33.4589 54.1836 33.8379C54.1667 34.2171 54.1253 34.5937 54.0601 34.9636Z" fill="#263238"/>
<path d="M54.4287 34.7033C54.3862 34.4017 54.3676 34.0949 54.3733 33.7881C54.3553 33.4818 54.3615 33.1738 54.3918 32.8691C54.4343 33.1715 54.4529 33.4788 54.4472 33.7862C54.4666 34.0919 54.4604 34.3995 54.4287 34.7033Z" fill="#263238"/>
<path d="M53.9112 35.2796C53.8913 35.2796 53.8771 35.1969 53.9112 35.1048C53.9453 35.0127 54.0006 34.9714 54.0134 34.992C54.0262 35.0127 54.0035 35.0728 53.9793 35.1443C53.9552 35.2157 53.9325 35.2815 53.9112 35.2796Z" fill="#263238"/>
<path d="M53.9863 35.2792C53.9665 35.2792 53.9594 35.2116 53.9693 35.1383C53.9792 35.065 54.0062 35.0124 54.0261 35.018C54.046 35.0236 54.0531 35.0856 54.0431 35.1589C54.0332 35.2322 54.0062 35.2849 53.9863 35.2792Z" fill="#263238"/>
<path d="M54.0658 35.2807C54.0459 35.2807 54.0246 35.2262 54.0189 35.1529C54.0132 35.0796 54.026 35.0195 54.0473 35.0176C54.0686 35.0157 54.0885 35.0721 54.0927 35.1435C54.097 35.215 54.0885 35.277 54.0658 35.2807Z" fill="#263238"/>
<path d="M54.1868 35.3295C54.1655 35.3295 54.1499 35.2355 54.113 35.1416C54.0761 35.0476 54.0335 34.9649 54.0477 34.9424C54.0619 34.9198 54.1372 34.9762 54.1812 35.1002C54.2252 35.2243 54.2067 35.3314 54.1868 35.3295Z" fill="#263238"/>
<path d="M54.4435 34.993C54.425 35.0024 54.3867 34.9216 54.3867 34.8051C54.3867 34.6886 54.425 34.6172 54.4435 34.6172C54.462 34.6172 54.4605 34.7055 54.4605 34.8051C54.4605 34.9047 54.4634 34.9837 54.4435 34.993Z" fill="#263238"/>
<path d="M54.5195 34.9404C54.4997 34.9404 54.4784 34.8803 54.4727 34.8013C54.467 34.7224 54.4727 34.6548 54.4997 34.6529C54.5266 34.651 54.5408 34.713 54.5465 34.7919C54.5522 34.8709 54.5394 34.9385 54.5195 34.9404Z" fill="#263238"/>
<path d="M54.6402 34.915C54.6245 34.9319 54.5805 34.8926 54.5422 34.827C54.5039 34.7615 54.4854 34.696 54.5025 34.681C54.5195 34.666 54.5621 34.7035 54.6004 34.7671C54.6387 34.8308 54.6529 34.8982 54.6402 34.915Z" fill="#263238"/>
<path d="M54.6822 34.8621C54.6637 34.8733 54.6282 34.8246 54.5828 34.7722C54.5374 34.7198 54.4976 34.6805 54.5047 34.6542C54.5118 34.628 54.5757 34.6318 54.6325 34.6992C54.6893 34.7666 54.7006 34.8471 54.6822 34.8621Z" fill="#263238"/>
<path d="M53.7333 29.6689C53.7333 29.6576 53.7759 29.6294 53.8256 29.6895C53.846 29.7212 53.8561 29.7624 53.8537 29.8039C53.8513 29.8454 53.8366 29.884 53.8128 29.9113C53.8011 29.9251 53.7874 29.9357 53.7725 29.9424C53.7577 29.9491 53.742 29.9517 53.7263 29.9501C53.7107 29.9485 53.6954 29.9428 53.6815 29.9332C53.6676 29.9236 53.6553 29.9104 53.6453 29.8944C53.6384 29.885 53.6326 29.8742 53.6282 29.8624C53.6216 29.8375 53.6195 29.8109 53.6223 29.7847C53.625 29.7586 53.6324 29.7337 53.6439 29.7121C53.685 29.6407 53.7347 29.6576 53.7319 29.6689C53.7142 29.6915 53.6997 29.7183 53.6893 29.7478C53.6751 29.7985 53.6893 29.8662 53.7475 29.8568C53.8057 29.8474 53.81 29.7816 53.7872 29.7346C53.7645 29.6877 53.7347 29.6839 53.7333 29.6689Z" fill="#263238"/>
<path d="M53.7906 30.2737C53.7778 30.2943 53.7381 30.2737 53.6998 30.2474C53.6614 30.2212 53.6401 30.1649 53.6515 30.1424C53.6628 30.1199 53.704 30.1312 53.7423 30.1687C53.7807 30.2062 53.802 30.2512 53.7906 30.2737Z" fill="#263238"/>
<path d="M53.8283 30.405C53.8453 30.4219 53.8283 30.4877 53.7715 30.5159C53.7147 30.5441 53.6679 30.5159 53.6721 30.4877C53.6764 30.4595 53.7091 30.4445 53.7445 30.4257C53.78 30.4069 53.8127 30.3881 53.8283 30.405Z" fill="#263238"/>
<path d="M53.8317 30.7216C53.8473 30.7385 53.8317 30.7873 53.8104 30.8304C53.7891 30.8735 53.748 30.8961 53.7323 30.8773C53.7167 30.8585 53.7252 30.8117 53.7536 30.7685C53.782 30.7254 53.8147 30.7122 53.8317 30.7216Z" fill="#263238"/>
<path d="M53.7705 31.066C53.7705 31.0547 53.8273 31.0284 53.894 31.1092C53.9128 31.1329 53.9263 31.1629 53.933 31.1961C53.9398 31.2292 53.9396 31.2641 53.9324 31.2971C53.9228 31.3405 53.9031 31.3788 53.876 31.4065C53.849 31.4342 53.8161 31.4499 53.7819 31.4512C53.7483 31.4479 53.7164 31.4304 53.6908 31.4013C53.6653 31.3723 53.6474 31.3331 53.6399 31.2896C53.6337 31.2533 53.6366 31.2154 53.6481 31.1815C53.6596 31.1475 53.6792 31.1195 53.7038 31.1017C53.7862 31.0415 53.8458 31.1017 53.8316 31.1111C53.7965 31.1159 53.7629 31.132 53.7336 31.158C53.721 31.1701 53.7116 31.1872 53.7068 31.2068C53.702 31.2263 53.7019 31.2474 53.7067 31.267C53.7125 31.2903 53.7235 31.3108 53.7381 31.3259C53.7528 31.3409 53.7705 31.3499 53.789 31.3516C53.8018 31.3507 53.8143 31.3463 53.8259 31.3389C53.8374 31.3315 53.8477 31.321 53.8562 31.3083C53.8646 31.2955 53.8711 31.2806 53.8751 31.2645C53.8792 31.2484 53.8808 31.2314 53.8798 31.2144C53.8784 31.1886 53.8716 31.1639 53.86 31.143C53.8174 31.0885 53.7691 31.0885 53.7705 31.066Z" fill="#263238"/>
<path d="M53.9308 31.611C53.9407 31.6353 53.9095 31.6802 53.8754 31.7308C53.8413 31.7813 53.8129 31.8281 53.7931 31.8188C53.7732 31.8094 53.776 31.7345 53.82 31.6671C53.864 31.5997 53.9222 31.5866 53.9308 31.611Z" fill="#263238"/>
<path d="M54.0082 31.9524C54.0266 31.9617 54.0238 32.0366 53.9798 32.104C53.9358 32.1714 53.879 32.1845 53.8691 32.1621C53.8591 32.1396 53.8904 32.0909 53.9244 32.0404C53.9585 31.9898 53.9883 31.943 54.0082 31.9524Z" fill="#263238"/>
<path d="M54.0508 32.5025C54.0309 32.5025 54.0096 32.4423 54.0053 32.3615C54.0011 32.2807 54.0053 32.2168 54.0323 32.213C54.0593 32.2093 54.0735 32.2732 54.0777 32.354C54.082 32.4348 54.0721 32.5006 54.0508 32.5025Z" fill="#263238"/>
<path d="M54.743 32.5911C54.7331 32.6137 54.6933 32.6099 54.655 32.5911C54.6167 32.5723 54.594 32.5197 54.6039 32.4953C54.6138 32.4709 54.6536 32.4765 54.6919 32.4953C54.7302 32.5141 54.7529 32.5573 54.743 32.5911Z" fill="#263238"/>
<path d="M54.9821 32.2156C54.9963 32.2343 54.9722 32.2961 54.9296 32.3541C54.887 32.4122 54.8387 32.444 54.8245 32.4253C54.8103 32.4066 54.833 32.3448 54.877 32.2867C54.9211 32.2287 54.9665 32.1988 54.9821 32.2156Z" fill="#263238"/>
<path d="M55.1784 32.0048C55.1784 31.9897 55.2154 31.9822 55.2693 31.9841H55.2764L55.2863 31.9954C55.2989 32.0121 55.3082 32.0327 55.3134 32.0553C55.3186 32.0779 55.3195 32.1019 55.3161 32.1251C55.3122 32.1546 55.301 32.1817 55.2844 32.202C55.2677 32.2224 55.2465 32.235 55.2239 32.2378C55.1998 32.2407 55.1757 32.2333 55.155 32.2167C55.1343 32.2001 55.1182 32.1753 55.1089 32.1457C55.1014 32.1223 55.0996 32.0963 55.1037 32.0714C55.1077 32.0466 55.1175 32.0239 55.1316 32.0067C55.1784 31.9503 55.2224 31.9785 55.2168 31.9897C55.2111 32.001 55.1884 32.0085 55.1728 32.0499C55.1686 32.059 55.1664 32.0693 55.1664 32.0799C55.1664 32.0905 55.1686 32.1009 55.1728 32.11C55.1778 32.1201 55.1848 32.1282 55.1931 32.1335C55.2013 32.1388 55.2105 32.1411 55.2196 32.1401C55.2494 32.1401 55.2636 32.0706 55.248 32.0461L55.265 32.0574C55.2097 32.0386 55.177 32.0273 55.1784 32.0048Z" fill="#263238"/>
<path d="M55.3815 31.9547C55.3616 31.9547 55.3531 31.8852 55.3645 31.8137C55.3758 31.7423 55.4014 31.6878 55.4212 31.6916C55.4411 31.6953 55.4482 31.7611 55.4369 31.8325C55.4255 31.904 55.4014 31.9603 55.3815 31.9547Z" fill="#263238"/>
<path d="M55.6944 31.6633C55.6873 31.6877 55.6405 31.6839 55.5908 31.6633C55.5411 31.6426 55.5085 31.5901 55.517 31.5657C55.5255 31.5414 55.5723 31.5451 55.6206 31.5657C55.6689 31.5864 55.7029 31.6389 55.6944 31.6633Z" fill="#263238"/>
<path d="M55.7257 31.3056C55.7342 31.3056 55.7328 31.3393 55.7498 31.3636C55.7669 31.3879 55.7882 31.3935 55.8038 31.3636C55.8194 31.3336 55.8038 31.3112 55.7811 31.2999C55.7643 31.2941 55.7467 31.2941 55.73 31.2999C55.7215 31.2999 55.73 31.2475 55.7782 31.2344C55.7932 31.2307 55.8087 31.2322 55.8232 31.2388C55.8376 31.2453 55.8505 31.2567 55.8606 31.2719C55.8736 31.2919 55.8813 31.317 55.8826 31.3433C55.8839 31.3696 55.8787 31.3958 55.8677 31.4179C55.8576 31.4408 55.8423 31.459 55.8239 31.4697C55.8056 31.4805 55.7851 31.4833 55.7655 31.4778C55.7507 31.4732 55.7371 31.4635 55.7261 31.4497C55.7151 31.4359 55.7072 31.4184 55.703 31.3992C55.6888 31.328 55.7186 31.2962 55.7257 31.3056Z" fill="#263238"/>
<path d="M55.9424 31.0112C55.9298 31.0085 55.918 31.0013 55.9082 30.9905C55.8984 30.9796 55.891 30.9655 55.8868 30.9495C55.8826 30.9336 55.8817 30.9164 55.8842 30.8999C55.8868 30.8833 55.8927 30.868 55.9013 30.8555C55.9155 30.8555 55.9453 30.8742 55.9566 30.9174C55.968 30.9605 55.9609 31.0037 55.9424 31.0112Z" fill="#263238"/>
<path d="M56.1484 30.7466C56.1385 30.7691 56.0988 30.7654 56.0604 30.7354C56.0221 30.7053 55.9994 30.6641 56.0107 30.6416C56.0221 30.6191 56.059 30.6228 56.0973 30.651C56.1357 30.6791 56.1584 30.7222 56.1484 30.7466Z" fill="#263238"/>
<path d="M56.2856 30.353C56.2942 30.3793 56.2601 30.4225 56.2118 30.4506C56.1636 30.4787 56.1153 30.4825 56.1068 30.4506C56.0983 30.4187 56.1323 30.3831 56.1806 30.3549C56.1965 30.3428 56.2145 30.3363 56.2329 30.336C56.2513 30.3356 56.2695 30.3415 56.2856 30.353Z" fill="#263238"/>
<path d="M56.3515 29.8809C56.3515 29.8716 56.3785 29.836 56.4268 29.8697C56.4408 29.8799 56.4527 29.8948 56.4611 29.9128C56.4696 29.9309 56.4744 29.9515 56.475 29.9726C56.475 30.0002 56.4686 30.0271 56.4568 30.0498C56.445 30.0725 56.4282 30.09 56.4087 30.0999C56.3892 30.1098 56.3679 30.1118 56.3475 30.1054C56.3272 30.0991 56.3088 30.0848 56.2947 30.0644C56.2844 30.048 56.2775 30.0283 56.2748 30.0072C56.272 29.9862 56.2735 29.9646 56.2791 29.9446C56.2976 29.879 56.3373 29.8753 56.3387 29.8884C56.3402 29.9015 56.3274 29.9221 56.3302 29.9577C56.3331 29.9932 56.3501 30.0251 56.3813 30.0101C56.4126 29.9951 56.4126 29.9577 56.3941 29.9258C56.3757 29.894 56.36 29.894 56.3515 29.8809Z" fill="#263238"/>
<path d="M56.545 29.4693C56.545 29.4956 56.5137 29.5294 56.4641 29.5444C56.4144 29.5595 56.3718 29.5444 56.3675 29.5238C56.3633 29.5031 56.3988 29.4636 56.4485 29.4486C56.4981 29.4335 56.5407 29.4429 56.545 29.4693Z" fill="#263238"/>
<path d="M56.3438 29.334L56.4218 29.2559L56.3438 29.334Z" fill="#263238"/>
<path d="M49.8962 32.013C49.8778 32.013 49.8707 31.9587 49.8834 31.91C49.8962 31.8614 49.9203 31.8295 49.9388 31.837C49.9573 31.8445 49.9643 31.8913 49.953 31.94C49.9416 31.9887 49.9161 32.028 49.8962 32.013Z" fill="#263238"/>
<path d="M50.0688 32.2845C50.0688 32.2733 50.0943 32.2376 50.1454 32.2676C50.163 32.2779 50.178 32.2948 50.1885 32.3162C50.1989 32.3375 50.2045 32.3624 50.2045 32.3879C50.2045 32.4134 50.1989 32.4383 50.1885 32.4597C50.178 32.481 50.163 32.4979 50.1454 32.5082C50.1265 32.5218 50.1049 32.5273 50.0835 32.524C50.0622 32.5206 50.0421 32.5085 50.0262 32.4894C50.0144 32.4743 50.0057 32.4556 50.0008 32.4349C49.9958 32.4142 49.9948 32.3923 49.9978 32.371C50.0077 32.2977 50.0489 32.2864 50.0517 32.2977C50.0546 32.309 50.0432 32.3353 50.0517 32.3729C50.0602 32.4105 50.0801 32.4443 50.1156 32.4217C50.1511 32.3992 50.144 32.3578 50.1156 32.3259C50.0872 32.2939 50.073 32.2977 50.0688 32.2845Z" fill="#263238"/>
<path d="M50.2793 32.9015C50.2708 32.9259 50.2268 32.9259 50.18 32.9015C50.1331 32.8771 50.1033 32.8357 50.1104 32.8113C50.1175 32.7869 50.1629 32.7869 50.2098 32.8113C50.2566 32.8357 50.2864 32.8771 50.2793 32.9015Z" fill="#263238"/>
<path d="M50.3335 33.2757C50.3264 33.302 50.2923 33.3095 50.2554 33.2945C50.2185 33.2794 50.1944 33.2456 50.2 33.2193C50.2057 33.193 50.2412 33.1855 50.2781 33.2024C50.315 33.2193 50.3392 33.2513 50.3335 33.2757Z" fill="#263238"/>
<path d="M50.4198 33.5312C50.4368 33.5444 50.4326 33.5986 50.4084 33.6511C50.3843 33.7035 50.3517 33.7372 50.3346 33.7222C50.3176 33.7072 50.3219 33.6548 50.3446 33.6024C50.3512 33.5828 50.3617 33.566 50.3749 33.5535C50.3881 33.541 50.4036 33.5333 50.4198 33.5312Z" fill="#263238"/>
<path d="M50.4706 33.7938C50.4607 33.7938 50.4948 33.7243 50.5672 33.7506C50.5879 33.7581 50.607 33.7724 50.6226 33.7921C50.6382 33.8117 50.6499 33.8362 50.6566 33.8633C50.6648 33.9012 50.6617 33.9418 50.6479 33.9768C50.6342 34.0117 50.6109 34.0384 50.5828 34.0513C50.5573 34.0649 50.5294 34.0684 50.5024 34.0614C50.4754 34.0543 50.4506 34.0371 50.4309 34.0118C50.415 33.9875 50.4062 33.9565 50.4062 33.9244C50.4062 33.8923 50.415 33.8613 50.4309 33.837C50.4426 33.8216 50.4584 33.813 50.4749 33.813C50.4914 33.813 50.5072 33.8216 50.5189 33.837C50.5345 33.8615 50.5274 33.8802 50.5189 33.8802C50.5149 33.8809 50.5109 33.8801 50.5072 33.8782C50.5034 33.8762 50.5002 33.873 50.4976 33.869C50.4949 33.8668 50.4918 33.8654 50.4886 33.865C50.4855 33.8646 50.4823 33.8651 50.4793 33.8666C50.4763 33.868 50.4735 33.8703 50.4713 33.8733C50.4691 33.8764 50.4674 33.88 50.4664 33.884C50.4629 33.8956 50.4623 33.9084 50.4646 33.9205C50.4669 33.9327 50.472 33.9435 50.4791 33.9517C50.4899 33.9618 50.5025 33.9682 50.5157 33.9702C50.5288 33.9722 50.5421 33.9697 50.5544 33.9629C50.6126 33.9347 50.5884 33.8483 50.5459 33.8201C50.5033 33.7919 50.4777 33.8051 50.4706 33.7938Z" fill="#263238"/>
<path d="M50.6806 34.2797C50.6948 34.2984 50.6806 34.3416 50.6551 34.3753C50.6295 34.4091 50.594 34.4166 50.5798 34.3978C50.5656 34.3791 50.5798 34.3341 50.6054 34.3022C50.6309 34.2703 50.6622 34.2553 50.6806 34.2797Z" fill="#263238"/>
<path d="M50.7583 34.6074C50.7739 34.6262 50.7583 34.6731 50.7342 34.7125C50.71 34.7519 50.6703 34.7706 50.6547 34.7519C50.6391 34.7331 50.6547 34.6862 50.6802 34.6468C50.7058 34.6074 50.7441 34.5887 50.7583 34.6074Z" fill="#263238"/>
<path d="M52.2083 42.9729C52.1912 42.986 52.1529 42.9429 52.1259 42.8755C52.099 42.8081 52.089 42.7445 52.1061 42.7314C52.1231 42.7182 52.1614 42.7613 52.1898 42.8287C52.2182 42.8961 52.2267 42.9598 52.2083 42.9729Z" fill="#263238"/>
<path d="M52.3258 42.9722C52.3073 42.9835 52.2733 42.9385 52.2505 42.8711C52.2278 42.8037 52.225 42.742 52.2505 42.7307C52.2761 42.7195 52.3031 42.7644 52.3258 42.8318C52.3485 42.8992 52.3442 42.961 52.3258 42.9722Z" fill="#263238"/>
<path d="M52.5022 43.0962V43.1561C52.5022 43.1842 52.5235 43.1954 52.5434 43.1804C52.5632 43.1655 52.5618 43.1449 52.5434 43.1205C52.5249 43.0962 52.5107 43.0999 52.505 43.0868C52.4993 43.0737 52.5221 43.04 52.5675 43.0588C52.5886 43.0678 52.6062 43.0873 52.6165 43.1132C52.6268 43.1391 52.6291 43.1692 52.6228 43.1973C52.6157 43.2256 52.6004 43.2492 52.5803 43.2628C52.565 43.2774 52.5466 43.2853 52.5277 43.2853C52.5089 43.2853 52.4905 43.2774 52.4752 43.2628C52.4648 43.2502 52.4569 43.2343 52.4522 43.2167C52.4475 43.1991 52.4461 43.1802 52.4482 43.1617C52.4639 43.0925 52.4993 43.0831 52.5022 43.0962Z" fill="#263238"/>
<path d="M52.9399 43.2195C52.9526 43.2401 52.9257 43.2944 52.8802 43.3393C52.8348 43.3842 52.7894 43.403 52.7766 43.3805C52.7638 43.358 52.7908 43.3056 52.8362 43.2607C52.8817 43.2157 52.9285 43.197 52.9399 43.2195Z" fill="#263238"/>
<path d="M53.0851 43.4066C53.0936 43.431 53.0737 43.4686 53.0411 43.4911C53.0084 43.5137 52.9715 43.5118 52.963 43.4911C52.9545 43.4705 52.9729 43.4291 53.007 43.4066C53.0411 43.384 53.0766 43.384 53.0851 43.4066Z" fill="#263238"/>
<path d="M53.2825 43.7059C53.2612 43.7059 53.2414 43.6704 53.2343 43.6179C53.2272 43.5655 53.2414 43.5206 53.2612 43.5168C53.2811 43.5131 53.3024 43.5524 53.3081 43.6048C53.3138 43.6573 53.3024 43.7022 53.2825 43.7059Z" fill="#263238"/>
<path d="M53.6112 43.699C53.6066 43.723 53.6066 43.748 53.6112 43.772C53.6197 43.8094 53.6382 43.8357 53.6694 43.8113C53.7006 43.787 53.6921 43.7514 53.6694 43.7252C53.6467 43.699 53.624 43.7065 53.6183 43.6952C53.6126 43.684 53.6353 43.6428 53.6893 43.6615C53.705 43.6673 53.7194 43.6782 53.731 43.6933C53.7427 43.7083 53.7513 43.727 53.756 43.7477C53.7619 43.7829 53.757 43.8198 53.7424 43.8503C53.7278 43.8809 53.7046 43.9025 53.6779 43.9105C53.6627 43.9153 53.6468 43.9155 53.6316 43.9109C53.6163 43.9064 53.6021 43.8973 53.5899 43.8843C53.5779 43.8699 53.5689 43.8516 53.5637 43.8313C53.5585 43.811 53.5572 43.7894 53.5601 43.7683C53.5672 43.6952 53.6083 43.6784 53.6112 43.699Z" fill="#263238"/>
<path d="M53.9974 43.8952C54.0116 43.9158 53.9903 43.9682 53.9505 44.0132C53.9108 44.0581 53.8682 44.0787 53.8554 44.0581C53.8426 44.0375 53.8625 43.9851 53.9023 43.9401C53.942 43.8952 53.9846 43.8746 53.9974 43.8952Z" fill="#263238"/>
<path d="M54.2507 44.0962C54.2648 44.1149 54.2421 44.1731 54.1896 44.2049C54.1371 44.2368 54.0874 44.2199 54.086 44.1918C54.0846 44.1637 54.1186 44.1393 54.1584 44.1149C54.1981 44.0905 54.235 44.0755 54.2507 44.0962Z" fill="#263238"/>
<path d="M54.4481 44.4643C54.4283 44.4737 54.4027 44.4436 54.3914 44.3986C54.38 44.3536 54.3914 44.3105 54.4056 44.303C54.4197 44.2955 54.451 44.3236 54.4623 44.3686C54.4737 44.4136 54.4666 44.4568 54.4481 44.4643Z" fill="#263238"/>
<path d="M54.6634 44.2894C54.6549 44.2894 54.6719 44.2333 54.7259 44.237C54.7451 44.2384 54.7635 44.2481 54.7782 44.2647C54.7929 44.2813 54.803 44.3037 54.8071 44.3286C54.8111 44.3535 54.8088 44.3795 54.8005 44.4025C54.7923 44.4255 54.7785 44.4444 54.7613 44.456C54.743 44.4724 54.7207 44.4793 54.6988 44.4755C54.6768 44.4717 54.6567 44.4574 54.6421 44.4354C54.6323 44.4177 54.6265 44.3968 54.6253 44.375C54.624 44.3532 54.6274 44.3313 54.635 44.3119C54.662 44.2482 54.7074 44.2613 54.7031 44.2744C54.693 44.2926 54.6867 44.3139 54.6847 44.3362C54.6847 44.3699 54.696 44.3924 54.723 44.3718C54.75 44.3512 54.7401 44.325 54.7145 44.3044C54.6889 44.2838 54.6719 44.2988 54.6634 44.2894Z" fill="#263238"/>
<path d="M54.8673 44.028C54.8503 44.043 54.8205 44.028 54.8006 43.9886C54.7807 43.9492 54.7793 43.9079 54.8006 43.8929C54.8219 43.8779 54.8474 43.8929 54.8673 43.9323C54.8872 43.9717 54.8844 44.013 54.8673 44.028Z" fill="#263238"/>
<path d="M54.9686 43.8112C54.9544 43.83 54.9246 43.8225 54.9018 43.7924C54.8791 43.7623 54.872 43.7229 54.8862 43.7041C54.9004 43.6853 54.9317 43.6928 54.9544 43.7229C54.9771 43.753 54.9828 43.7924 54.9686 43.8112Z" fill="#263238"/>
<path d="M55.0801 43.3979C55.0702 43.3979 55.0915 43.3474 55.1355 43.368C55.1485 43.3742 55.1599 43.3853 55.1683 43.3999C55.1766 43.4145 55.1815 43.4321 55.1823 43.4503C55.1805 43.4793 55.1701 43.5062 55.1534 43.5251C55.1366 43.5441 55.1149 43.5535 55.0929 43.5514C55.0801 43.5506 55.0676 43.5457 55.0565 43.5373C55.0454 43.5288 55.036 43.517 55.029 43.5028C55.0228 43.4882 55.0195 43.4717 55.0195 43.455C55.0195 43.4383 55.0228 43.4219 55.029 43.4073C55.0461 43.3586 55.0773 43.3567 55.0801 43.368C55.0816 43.3866 55.0816 43.4055 55.0801 43.4241C55.0802 43.4295 55.0812 43.4347 55.0829 43.4395C55.0846 43.4443 55.087 43.4487 55.0901 43.4522H55.1184V43.4316C55.1184 43.4316 55.0915 43.4073 55.0801 43.3979Z" fill="#263238"/>
<path d="M55.305 43.7055C55.2946 43.6996 55.2862 43.6889 55.2815 43.6754C55.2768 43.6618 55.2761 43.6464 55.2794 43.6322C55.2799 43.625 55.2815 43.6181 55.2841 43.6117C55.2867 43.6054 55.2902 43.5998 55.2944 43.5952C55.2987 43.5907 55.3035 43.5873 55.3087 43.5852C55.314 43.5832 55.3194 43.5825 55.3248 43.5833C55.3351 43.5888 55.3434 43.5992 55.3482 43.6124C55.3529 43.6257 55.3537 43.6408 55.3504 43.6547C55.3487 43.669 55.3432 43.682 55.3348 43.6913C55.3265 43.7006 55.3159 43.7057 55.305 43.7055Z" fill="#263238"/>
<path d="M55.4134 43.8655C55.4056 43.855 55.3999 43.8422 55.3969 43.8281C55.394 43.8139 55.3937 43.7991 55.3963 43.7848C55.3963 43.7699 55.3999 43.7553 55.4065 43.7432C55.4132 43.7311 55.4225 43.722 55.4332 43.7173C55.4531 43.7173 55.4772 43.7492 55.4701 43.8017C55.463 43.8542 55.429 43.8823 55.4134 43.8655Z" fill="#263238"/>
<path d="M55.5511 44.0825C55.5434 44.0938 55.5334 44.1018 55.5223 44.1058C55.5113 44.1098 55.4995 44.1094 55.4886 44.1049C55.4771 44.1047 55.466 44.0998 55.4568 44.0907C55.4476 44.0817 55.4408 44.069 55.4375 44.0546C55.4375 44.0286 55.4631 43.9988 55.5028 44.0081C55.5425 44.0174 55.561 44.0528 55.5511 44.0825Z" fill="#263238"/>
<path d="M55.671 44.2679C55.6639 44.2586 55.6824 44.2211 55.7264 44.2305C55.74 44.2343 55.7526 44.2425 55.7633 44.2542C55.7739 44.266 55.7822 44.2809 55.7874 44.2979C55.7936 44.3264 55.7909 44.357 55.78 44.383C55.7691 44.4089 55.7508 44.4282 55.7292 44.4364C55.7146 44.4418 55.6992 44.4421 55.6845 44.4371C55.6698 44.4322 55.6563 44.4223 55.6455 44.4083C55.6372 44.3927 55.6328 44.3741 55.6328 44.355C55.6328 44.3359 55.6372 44.3173 55.6455 44.3016C55.6682 44.2455 55.7079 44.2604 55.7037 44.2736C55.6966 44.2887 55.6932 44.3063 55.6937 44.3241C55.6937 44.3484 55.6937 44.3484 55.7023 44.3484H55.7165C55.7307 44.3484 55.7264 44.3372 55.7278 44.3316C55.7264 44.3204 55.7218 44.3104 55.715 44.3035C55.6937 44.2792 55.6767 44.2792 55.671 44.2679Z" fill="#263238"/>
<path d="M55.8524 44.6407C55.8417 44.6368 55.8326 44.6276 55.8268 44.615C55.821 44.6025 55.819 44.5875 55.8212 44.5731C55.821 44.5659 55.8219 44.5587 55.8239 44.5519C55.8259 44.5452 55.8289 44.5391 55.8328 44.534C55.8367 44.5289 55.8413 44.5248 55.8464 44.5222C55.8515 44.5196 55.8569 44.5183 55.8624 44.5186C55.8677 44.5199 55.8727 44.5227 55.8773 44.5266C55.8818 44.5306 55.8857 44.5356 55.8887 44.5416C55.8917 44.5475 55.8938 44.5542 55.8949 44.5612C55.896 44.5682 55.896 44.5755 55.895 44.5825C55.8947 44.5975 55.8901 44.6118 55.8822 44.6225C55.8744 44.6333 55.8637 44.6398 55.8524 44.6407Z" fill="#263238"/>
<path d="M56.1282 44.4479C56.1282 44.4742 56.0884 44.4874 56.0487 44.4742C56.0089 44.4611 55.9805 44.431 55.9848 44.4047C55.9891 44.3784 56.026 44.3671 56.0657 44.3784C56.1055 44.3897 56.1324 44.431 56.1282 44.4479Z" fill="#263238"/>
<path d="M56.2326 44.3817C56.2212 44.3799 56.2107 44.3726 56.2031 44.3611C56.1955 44.3497 56.1913 44.335 56.1914 44.3198C56.1914 44.2823 56.2028 44.2485 56.2241 44.2467C56.2453 44.2448 56.2624 44.2729 56.2652 44.3104C56.2681 44.348 56.2539 44.3798 56.2326 44.3817Z" fill="#263238"/>
<path d="M56.4236 44.1785C56.4038 44.1785 56.3867 44.1485 56.3867 44.111C56.3867 44.0735 56.4038 44.0435 56.4236 44.0435C56.4435 44.0435 56.4605 44.0735 56.4605 44.111C56.4605 44.1485 56.4449 44.1785 56.4236 44.1785Z" fill="#263238"/>
<path d="M56.5723 43.9025C56.5723 43.8931 56.5978 43.8557 56.6447 43.8931C56.6584 43.9043 56.6694 43.9205 56.6762 43.9398C56.683 43.9591 56.6854 43.9807 56.683 44.0017C56.6792 44.03 56.6674 44.0554 56.6501 44.0727C56.6327 44.0901 56.611 44.0981 56.5893 44.0953C56.5699 44.0975 56.5504 44.0905 56.5345 44.0756C56.5186 44.0606 56.5073 44.0387 56.5025 44.0137C56.4977 43.9887 56.4998 43.9623 56.5085 43.9392C56.5171 43.9161 56.5316 43.8978 56.5496 43.8875C56.5978 43.8557 56.6276 43.8988 56.6191 43.9081C56.6106 43.9175 56.5936 43.9081 56.5794 43.9437C56.5757 43.9489 56.5729 43.9552 56.5712 43.9619C56.5695 43.9687 56.5689 43.9759 56.5694 43.983C56.5754 43.9914 56.5835 43.9967 56.5922 43.998C56.6064 43.998 56.6134 43.998 56.6163 43.9849C56.6177 43.9718 56.6177 43.9586 56.6163 43.9456C56.6163 43.9325 56.5765 43.9137 56.5723 43.9025Z" fill="#263238"/>
<path d="M56.9591 43.7441C56.9434 43.7646 56.9165 43.759 56.8895 43.7553C56.8625 43.7516 56.8341 43.7404 56.8256 43.7162C56.8171 43.692 56.8483 43.6473 56.9008 43.6585C56.9534 43.6697 56.9732 43.7274 56.9591 43.7441Z" fill="#263238"/>
<path d="M57.1513 43.6079C57.1414 43.6324 57.1016 43.6305 57.059 43.6211C57.0164 43.6117 56.9795 43.5948 56.9767 43.5666C56.9739 43.5384 57.0179 43.5102 57.0718 43.5233C57.1258 43.5365 57.1612 43.5854 57.1513 43.6079Z" fill="#263238"/>
<path d="M57.2632 43.4894C57.2433 43.4894 57.2291 43.4538 57.2306 43.4162C57.232 43.3787 57.2519 43.3506 57.2732 43.3543C57.2945 43.3581 57.3072 43.3881 57.3044 43.4256C57.3045 43.441 57.3004 43.456 57.2928 43.4677C57.2853 43.4794 57.2748 43.4871 57.2632 43.4894Z" fill="#263238"/>
<path d="M57.4313 43.1436C57.4243 43.1436 57.4455 43.0931 57.4966 43.1062C57.5124 43.1115 57.5266 43.1229 57.5375 43.1389C57.5484 43.1549 57.5554 43.1748 57.5577 43.196C57.5604 43.2233 57.5562 43.251 57.5457 43.2747C57.5351 43.2985 57.5189 43.3169 57.4995 43.3271C57.479 43.3355 57.457 43.3341 57.4373 43.3231C57.4175 43.3121 57.4013 43.2923 57.3916 43.2672C57.3833 43.2471 57.3808 43.2238 57.3844 43.2015C57.3881 43.1791 57.3977 43.1593 57.4115 43.1455C57.4569 43.1024 57.4896 43.1455 57.4825 43.1455C57.4754 43.1455 57.4583 43.1623 57.4484 43.1885C57.4384 43.2148 57.4484 43.211 57.4484 43.2166C57.4512 43.2209 57.4547 43.2244 57.4586 43.2266C57.4625 43.2289 57.4668 43.23 57.4711 43.2297C57.4752 43.2262 57.4788 43.2215 57.4815 43.216C57.4841 43.2105 57.4859 43.2044 57.4867 43.1979C57.4871 43.1918 57.4862 43.1856 57.4842 43.18C57.4822 43.1744 57.4792 43.1696 57.4754 43.1661C57.4597 43.1511 57.437 43.1548 57.4313 43.1436Z" fill="#263238"/>
<path d="M57.6736 43.1337C57.6627 43.1275 57.654 43.1162 57.649 43.102C57.644 43.0879 57.6432 43.0718 57.6466 43.0568C57.6466 43.0488 57.6478 43.041 57.6502 43.0336C57.6526 43.0263 57.6561 43.0198 57.6605 43.0143C57.6649 43.0088 57.67 43.0047 57.6757 43.002C57.6814 42.9993 57.6874 42.9981 57.6934 42.9987C57.7133 42.9987 57.7247 43.038 57.719 43.0756C57.7133 43.1131 57.6934 43.1393 57.6736 43.1337Z" fill="#263238"/>
<path d="M57.8798 42.9025C57.8691 42.8985 57.8599 42.8893 57.8541 42.8768C57.8483 42.8642 57.8463 42.8493 57.8485 42.8348C57.8477 42.8283 57.848 42.8216 57.8492 42.8151C57.8504 42.8087 57.8526 42.8026 57.8557 42.7973C57.8587 42.7921 57.8626 42.7877 57.867 42.7844C57.8713 42.7812 57.8762 42.7791 57.8812 42.7785C57.8862 42.7774 57.8914 42.7777 57.8963 42.7793C57.9013 42.7809 57.906 42.7838 57.9101 42.7878C57.9142 42.7918 57.9176 42.7969 57.9202 42.8027C57.9228 42.8086 57.9245 42.815 57.9252 42.8217C57.9265 42.8297 57.9265 42.8381 57.9252 42.8461C57.9245 42.8614 57.9194 42.8758 57.9109 42.8862C57.9025 42.8967 57.8913 42.9025 57.8798 42.9025Z" fill="#263238"/>
<path d="M58.168 42.6847C58.1567 42.7072 58.1212 42.7035 58.0843 42.6847C58.0473 42.6659 58.0147 42.6565 58.0119 42.6283C58.009 42.6001 58.0502 42.5738 58.1013 42.5888C58.1524 42.6039 58.1794 42.6621 58.168 42.6847Z" fill="#263238"/>
<path d="M58.3076 42.5488C58.2892 42.5601 58.2608 42.5244 58.2721 42.4756C58.2835 42.4267 58.3204 42.4173 58.3318 42.4399C58.3365 42.4491 58.3399 42.4595 58.3416 42.4705C58.3433 42.4814 58.3433 42.4928 58.3417 42.5037C58.3388 42.514 58.3342 42.5234 58.3283 42.5312C58.3225 42.539 58.3154 42.545 58.3076 42.5488Z" fill="#263238"/>
<path d="M58.4774 42.3336C58.4667 42.3296 58.4576 42.3204 58.4518 42.3079C58.446 42.2954 58.444 42.2804 58.4462 42.266C58.4462 42.2586 58.4473 42.2514 58.4495 42.2447C58.4516 42.2379 58.4548 42.2318 58.4587 42.2267C58.4627 42.2217 58.4674 42.2177 58.4726 42.2151C58.4777 42.2124 58.4833 42.2112 58.4888 42.2115C58.4994 42.215 58.5085 42.2238 58.5143 42.2361C58.5201 42.2483 58.5222 42.2631 58.52 42.2772C58.5193 42.2919 58.5146 42.3057 58.5068 42.3161C58.4989 42.3265 58.4885 42.3327 58.4774 42.3336Z" fill="#263238"/>
<path d="M56.4295 32.3515L55.4883 33.605L57.7681 36.5724C57.7681 36.5724 58.2323 34.7833 58.556 33.2085C58.7846 32.0959 56.4295 32.3515 56.4295 32.3515Z" fill="#810019"/>
<path d="M56.0599 33.7193C56.04 33.7193 56.0188 33.665 56.0131 33.5938C56.0074 33.5227 56.0202 33.4609 56.04 33.459C56.0599 33.4572 56.0812 33.5115 56.0869 33.5845C56.0926 33.6575 56.0798 33.7193 56.0599 33.7193Z" fill="#263238"/>
<path d="M56.2787 33.7769C56.2787 33.803 56.2432 33.8253 56.1992 33.8253C56.1552 33.8253 56.1211 33.803 56.1211 33.7769C56.1211 33.7509 56.1566 33.7285 56.1992 33.7285C56.2418 33.7285 56.2787 33.749 56.2787 33.7769Z" fill="#263238"/>
<path d="M56.3374 34.1918C56.3189 34.1768 56.3203 34.1338 56.3203 34.087C56.3203 34.0402 56.3203 33.999 56.3374 33.984C56.3544 33.969 56.3942 34.0102 56.3942 34.087C56.3942 34.1637 56.3572 34.2087 56.3374 34.1918Z" fill="#263238"/>
<path d="M56.524 34.2343C56.5155 34.2343 56.5481 34.1742 56.6092 34.2005C56.6277 34.2083 56.6443 34.2226 56.6573 34.2417C56.6702 34.2609 56.6791 34.2843 56.683 34.3095C56.6858 34.3436 56.6795 34.3779 56.6652 34.4065C56.6509 34.4351 56.6295 34.4561 56.6047 34.466C56.5799 34.4758 56.5532 34.4738 56.5294 34.4603C56.5056 34.4468 56.4861 34.4227 56.4743 34.3922C56.4678 34.367 56.467 34.3399 56.472 34.3142C56.4771 34.2884 56.4877 34.2652 56.5027 34.2475C56.5115 34.2359 56.5223 34.2271 56.5341 34.2219C56.5459 34.2167 56.5585 34.2151 56.5708 34.2174C56.5893 34.2174 56.595 34.2362 56.5921 34.24C56.5716 34.2497 56.5541 34.2682 56.5424 34.2926C56.524 34.3339 56.5339 34.3884 56.5836 34.3715C56.6333 34.3546 56.6205 34.2945 56.5836 34.2644C56.5467 34.2343 56.5297 34.2456 56.524 34.2343Z" fill="#263238"/>
<path d="M56.7701 34.7428C56.7517 34.7428 56.7446 34.6921 56.7545 34.649C56.7644 34.6058 56.79 34.5777 56.8099 34.5852C56.8297 34.5927 56.8368 34.6358 56.8255 34.679C56.8141 34.7221 56.79 34.7503 56.7701 34.7428Z" fill="#263238"/>
<path d="M56.9841 34.6877C57.004 34.6877 57.011 34.7666 56.9997 34.853C56.9883 34.9395 56.9628 35.0071 56.9429 35.0015C56.923 34.9959 56.9159 34.9226 56.9273 34.8361C56.9387 34.7497 56.9642 34.6839 56.9841 34.6877Z" fill="#263238"/>
<path d="M57.2088 35.0361C57.2088 35.0622 57.1734 35.0901 57.1237 35.0975C57.074 35.105 57.0342 35.0882 57.0314 35.0622C57.0286 35.0361 57.0669 35.0082 57.1166 35.0008C57.1663 34.9933 57.2088 35.0045 57.2088 35.0361Z" fill="#263238"/>
<path d="M57.3028 35.1771C57.3028 35.1658 57.3326 35.1357 57.3865 35.1658C57.4029 35.175 57.4175 35.1891 57.4291 35.2071C57.4407 35.225 57.4489 35.2463 57.4532 35.2692C57.4581 35.3006 57.455 35.3332 57.4445 35.362C57.434 35.3909 57.4166 35.4144 57.395 35.4289C57.373 35.4463 57.3468 35.4519 57.3217 35.4446C57.2966 35.4372 57.2746 35.4175 57.2602 35.3895C57.2509 35.3658 57.2479 35.3388 57.2515 35.3126C57.2551 35.2864 57.2651 35.2626 57.2801 35.2447C57.2892 35.2321 57.3009 35.2232 57.3137 35.2192C57.3266 35.2152 57.34 35.2163 57.3525 35.2222C57.3695 35.2316 57.3723 35.2447 57.3695 35.2485C57.3596 35.2501 57.3502 35.2551 57.3422 35.263C57.3342 35.2709 57.328 35.2815 57.3241 35.2936C57.3084 35.3387 57.3241 35.3688 57.3652 35.3462C57.4064 35.3237 57.3922 35.2635 57.3652 35.2297C57.3383 35.1959 57.3042 35.1921 57.3028 35.1771Z" fill="#263238"/>
<path d="M57.5408 35.8397C57.5209 35.8397 57.5039 35.7683 57.5039 35.6819C57.5039 35.5954 57.5209 35.5259 57.5408 35.5259C57.5607 35.5259 57.5777 35.5954 57.5777 35.6819C57.5777 35.7683 57.5621 35.8397 57.5408 35.8397Z" fill="#263238"/>
<path d="M57.1961 31.0684C57.1423 31.2149 57.0736 31.3508 56.9917 31.4724C56.8497 31.7092 56.6538 32.0362 56.4238 32.3688C56.1939 32.7015 55.9838 33.0153 55.829 33.2333C55.7497 33.3568 55.6618 33.4701 55.5664 33.5716C55.6309 33.4337 55.7055 33.3046 55.7893 33.1863C55.9312 32.9589 56.1413 32.647 56.3685 32.3049L56.9505 31.4273C57.0259 31.3002 57.108 31.1803 57.1961 31.0684Z" fill="#263238"/>
<path d="M58.7904 42.3121C58.7904 42.3384 58.7479 42.3478 58.7053 42.3347C58.6627 42.3215 58.6329 42.2877 58.6371 42.2614C58.6414 42.2351 58.6811 42.2257 58.7223 42.2388C58.7635 42.252 58.7947 42.2858 58.7904 42.3121Z" fill="#263238"/>
<path d="M58.8965 42.0826C58.8965 42.0733 58.905 42.0433 58.9462 42.0396C58.9596 42.0397 58.9727 42.0452 58.9839 42.0552C58.995 42.0652 59.0036 42.0793 59.0086 42.0957C59.0127 42.106 59.0152 42.1173 59.0159 42.1288C59.0167 42.1404 59.0156 42.1521 59.0128 42.1631C59.01 42.1741 59.0056 42.1843 58.9997 42.1929C58.9939 42.2016 58.9868 42.2087 58.9788 42.2137H58.9646C58.8937 42.238 58.8326 42.1463 58.8638 42.0751C58.8684 42.0644 58.8753 42.0558 58.8837 42.0504C58.8921 42.0451 58.9015 42.0432 58.9107 42.0452C58.9128 42.045 58.9149 42.0455 58.9168 42.0467C58.9187 42.0479 58.9204 42.0497 58.9217 42.0519C58.9229 42.0541 58.9237 42.0567 58.9241 42.0595C58.9244 42.0622 58.9242 42.065 58.9235 42.0676C58.919 42.0719 58.9155 42.0775 58.9133 42.0841C58.9111 42.0907 58.9102 42.0979 58.9107 42.1051C58.9107 42.1051 58.932 42.1257 58.9448 42.1201C58.9453 42.1161 58.9447 42.1121 58.9431 42.1086C58.9416 42.1052 58.9391 42.1026 58.9362 42.1013C58.9206 42.0957 58.9008 42.0957 58.8965 42.0826Z" fill="#263238"/>
<path d="M46.8147 35.4186C46.7337 35.0634 45.7159 34.3342 45.8692 34.1369C46.068 33.8775 46.9055 34.96 46.9807 35.0446C47.056 35.1292 47.1483 34.9845 47.0773 34.913C46.9751 34.8097 45.9161 33.6971 46.1105 33.4415C46.2184 33.2987 46.3945 33.5863 46.3945 33.5863C46.3945 33.5863 47.3285 34.727 47.418 34.6011C47.5074 34.4752 46.9751 33.7798 46.7834 33.5637C46.5918 33.3476 46.5932 33.139 46.7323 33.1051C46.826 33.0807 47.4251 33.7272 47.6096 33.949C47.7942 34.1707 48.2981 34.7871 48.2314 34.2102V34.1839C48.1547 33.6201 48.2314 33.1484 48.3308 33.0356C48.3517 33.0079 48.3786 32.9895 48.4078 32.9831C48.437 32.9766 48.4669 32.9823 48.4935 32.9995C48.5201 33.0167 48.542 33.0445 48.5561 33.0789C48.5701 33.1133 48.5758 33.1527 48.5721 33.1916C48.5763 33.2195 48.5763 33.2483 48.5721 33.2762V33.3175C48.5678 33.5144 48.5778 33.7114 48.6019 33.9057C48.6215 34.0804 48.6632 34.2494 48.7254 34.4056C48.7978 34.5936 48.8674 34.7364 48.9242 34.8623C49.6041 35.3584 51.5617 36.6683 53.5222 36.8675C53.8771 36.9032 55.6729 33.8287 55.6729 33.8287L57.4346 36.1196C57.1961 36.6589 57.1123 36.783 55.9156 38.9498C53.9637 42.4848 47.824 36.6307 47.824 36.6307L47.7672 36.5931C47.3007 36.2918 46.8476 35.9555 46.4101 35.5858C45.882 35.0953 45.9132 35.0314 45.9657 34.9563C46.085 34.7589 46.897 35.7832 46.8147 35.4186Z" fill="#FFBE9D"/>
<defs>
<clipPath id="clip0_11191_7052">
<rect width="10.0835" height="10.0835" fill="white" transform="translate(44.1074 5.20508)"/>
</clipPath>
</defs>
</svg>
