<svg width="65" height="76" viewBox="0 0 65 76" fill="none" xmlns="http://www.w3.org/2000/svg">
<path d="M62.9852 69.5723H57.918V69.6227H62.9852V69.5723Z" fill="#EBEBEB"/>
<path d="M35.9565 68.9375H33.9844V68.9879H35.9565V68.9375Z" fill="#EBEBEB"/>
<path d="M47.6523 69.1523H43.5V69.2028H47.6523V69.1523Z" fill="#EBEBEB"/>
<path d="M57.7682 67.6914H49.1836V67.7418H57.7682V67.6914Z" fill="#EBEBEB"/>
<path d="M6.23866 70.0352H2.17969V70.0856H6.23866V70.0352Z" fill="#EBEBEB"/>
<path d="M11.1205 70.0352H7.60156V70.0856H11.1205V70.0352Z" fill="#EBEBEB"/>
<path d="M23.499 68.9121H14.1953V68.9626H23.499V68.9121Z" fill="#EBEBEB"/>
<path d="M30.414 57.279H0.872075C0.640646 57.2785 0.418834 57.1564 0.255332 56.9396C0.09183 56.7227 -3.54908e-07 56.4289 0 56.1225V1.14639C0.00201464 0.841771 0.0947339 0.550506 0.258018 0.33586C0.421303 0.121213 0.641965 0.000521828 0.872075 0H30.414C30.6457 0 30.8679 0.121847 31.0317 0.338736C31.1955 0.555625 31.2876 0.84979 31.2876 1.15652V56.1225C31.2876 56.4292 31.1955 56.7234 31.0317 56.9403C30.8679 57.1572 30.6457 57.279 30.414 57.279ZM0.872075 0.0405086C0.65079 0.0410452 0.438707 0.157794 0.282378 0.365129C0.126049 0.572464 0.0382485 0.853443 0.0382489 1.14639V56.1225C0.0382485 56.4154 0.126049 56.6964 0.282378 56.9037C0.438707 57.1111 0.65079 57.2278 0.872075 57.2284H30.414C30.6354 57.2278 30.8476 57.1111 31.0042 56.9039C31.1608 56.6966 31.2489 56.4156 31.2493 56.1225V1.14639C31.2489 0.853257 31.1608 0.572282 31.0042 0.365005C30.8476 0.157728 30.6354 0.041044 30.414 0.0405086H0.872075Z" fill="#EBEBEB"/>
<path d="M63.5069 57.279H33.9634C33.7319 57.2785 33.5099 57.1565 33.3462 56.9397C33.1824 56.7229 33.0902 56.4291 33.0898 56.1225V1.14639C33.0923 0.841587 33.1853 0.550323 33.3488 0.335733C33.5124 0.121142 33.7332 0.000516137 33.9634 0H63.5069C63.7367 0.00105413 63.957 0.121981 64.12 0.33657C64.2829 0.55116 64.3754 0.842121 64.3774 1.14639V56.1225C64.3774 56.4285 64.2858 56.7221 64.1226 56.9388C63.9595 57.1556 63.738 57.2779 63.5069 57.279ZM33.9634 0.0405086C33.742 0.041044 33.5298 0.157728 33.3732 0.365005C33.2166 0.572282 33.1285 0.853257 33.1281 1.14639V56.1225C33.1285 56.4156 33.2166 56.6966 33.3732 56.9039C33.5298 57.1111 33.742 57.2278 33.9634 57.2284H63.5069C63.7283 57.2278 63.9405 57.1111 64.0971 56.9039C64.2537 56.6966 64.3418 56.4156 64.3422 56.1225V1.14639C64.3418 0.853257 64.2537 0.572282 64.0971 0.365005C63.9405 0.157728 63.7283 0.041044 63.5069 0.0405086H33.9634Z" fill="#EBEBEB"/>
<path d="M4.07115 66.3105H5.17578L5.17578 4.049H4.07115L4.07115 66.3105Z" fill="#E0E0E0"/>
<path d="M4.62004 66.3105H33.6953L33.6953 6.11897L4.62004 6.11897L4.62004 66.3105Z" fill="#F5F5F5"/>
<path d="M7.83984 42.8277H20.156V17.3296L8.02803 17.2324L7.83984 42.8277Z" fill="#E0E0E0"/>
<path d="M8.0237 42.6484H20.3398L20.3398 17.1524L8.0237 17.1524L8.0237 42.6484Z" fill="white"/>
<path d="M14.1847 30.198C16.1636 30.198 17.7679 28.0743 17.7679 25.4545C17.7679 22.8347 16.1636 20.7109 14.1847 20.7109C12.2058 20.7109 10.6016 22.8347 10.6016 25.4545C10.6016 28.0743 12.2058 30.198 14.1847 30.198Z" fill="#F5F5F5"/>
<path d="M15.0112 37.4694C16.1166 36.8633 16.6415 35.1856 16.1836 33.7222C15.7258 32.2588 14.4585 31.5639 13.3531 32.17C12.2477 32.7762 11.7227 34.4539 12.1806 35.9173C12.6385 37.3806 13.9058 38.0756 15.0112 37.4694Z" fill="#F5F5F5"/>
<path d="M59.6844 66.3105H60.7891L60.7891 4.049H59.6844L59.6844 66.3105Z" fill="#E0E0E0"/>
<path d="M53.4933 4.86133H3.52344V14.2228H53.4933V4.86133Z" fill="#F0F0F0"/>
<path d="M51.4405 7.29102H27.9297V11.7915H51.4405V7.29102Z" fill="white"/>
<path d="M5.58174 11.793L25.9883 11.793V7.29248L5.58174 7.29248V11.793Z" fill="white"/>
<path d="M53.4953 14.2227L61.2812 14.2227V4.86114L53.4953 4.86114V14.2227Z" fill="#E0E0E0"/>
<path d="M60.5442 7.29102H57.2227V11.7915H60.5442V7.29102Z" fill="white"/>
<path d="M54.6512 11.793H56.9492V7.29248H54.6512V11.793Z" fill="white"/>
<path d="M54.0853 66.3105H27.6094L27.6094 38.5075C27.6094 37.9704 27.7706 37.4552 28.0575 37.0753C28.3444 36.6955 28.7336 36.4821 29.1393 36.4821H52.5599C52.9657 36.4821 53.3548 36.6955 53.6417 37.0753C53.9287 37.4552 54.0898 37.9704 54.0898 38.5075V66.3105H54.0853Z" fill="#E0E0E0"/>
<path d="M51.0149 66.3105H24.5375L24.5375 38.5075C24.5375 37.9704 24.6987 37.4552 24.9856 37.0753C25.2726 36.6955 25.6617 36.4821 26.0675 36.4821H49.4896C49.8953 36.4821 50.2845 36.6955 50.5714 37.0753C50.8583 37.4552 51.0195 37.9704 51.0195 38.5075V66.3105H51.0149Z" fill="#E0E0E0"/>
<path opacity="0.3" d="M50.5078 38.511V66.314H25.0463V38.511C25.0463 38.1537 25.1535 37.8112 25.3443 37.5586C25.5351 37.306 25.7939 37.1641 26.0637 37.1641H49.4904C49.7602 37.1641 50.019 37.306 50.2098 37.5586C50.4006 37.8112 50.5078 38.1537 50.5078 38.511Z" fill="white"/>
<path opacity="0.9" d="M50.5078 38.511V66.32H25.3186V38.511C25.3186 38.1537 25.4258 37.8112 25.6166 37.5586C25.8074 37.306 26.0662 37.1641 26.3361 37.1641H49.4919C49.7615 37.1646 50.0199 37.3067 50.2104 37.5593C50.4008 37.8118 50.5078 38.1541 50.5078 38.511Z" fill="white"/>
<path d="M45.6606 36.4896H43.7252L43.1484 32.5137H45.0838L45.6606 36.4896Z" fill="#E0E0E0"/>
<path d="M46.7771 27.5772H44.1761C44.0808 27.5802 43.9887 27.6234 43.9132 27.7007C43.8378 27.778 43.783 27.8851 43.7569 28.0066L42.6385 34.3867C42.6273 34.4394 42.6259 34.495 42.6344 34.5487C42.6429 34.6024 42.661 34.6525 42.6873 34.6949C42.7136 34.7373 42.7473 34.7706 42.7854 34.792C42.8235 34.8135 42.865 34.8224 42.9063 34.8181H45.5072C45.6027 34.815 45.695 34.7714 45.7705 34.6938C45.8459 34.6161 45.9006 34.5085 45.9264 34.3867L47.0448 28.0066C47.0557 27.9539 47.0569 27.8986 47.0483 27.8452C47.0396 27.7918 47.0214 27.7419 46.9952 27.6998C46.9689 27.6577 46.9354 27.6246 46.8974 27.6032C46.8595 27.5819 46.8182 27.573 46.7771 27.5772Z" fill="#E6E6E6"/>
<path d="M45.5853 34.0656H43.0884C43.0667 34.0679 43.0448 34.0633 43.0247 34.0521C43.0046 34.0408 42.9868 34.0233 42.9728 34.0011C42.9589 33.9789 42.9492 33.9525 42.9445 33.9243C42.9399 33.896 42.9404 33.8667 42.9461 33.8388L43.9636 28.038C43.9773 27.9737 44.0063 27.917 44.0462 27.8761C44.0862 27.8353 44.135 27.8125 44.1854 27.8111H46.6823C46.7041 27.8088 46.7259 27.8135 46.7461 27.8247C46.7662 27.8359 46.784 27.8534 46.7979 27.8757C46.8119 27.8979 46.8216 27.9243 46.8262 27.9525C46.8309 27.9808 46.8303 28.0101 46.8246 28.038L45.8072 33.8388C45.7934 33.9031 45.7644 33.9598 45.7245 34.0006C45.6846 34.0415 45.6358 34.0643 45.5853 34.0656Z" fill="white"/>
<path d="M40.4278 36.4896H38.4909L37.9141 32.5137H39.8495L40.4278 36.4896Z" fill="#E0E0E0"/>
<path d="M42.0796 26.8137H38.8025C38.7071 26.8166 38.615 26.8599 38.5396 26.9372C38.4641 27.0145 38.4094 27.1216 38.3832 27.2431L37.1302 34.3867C37.1193 34.4397 37.1182 34.4953 37.1269 34.5489C37.1356 34.6026 37.1539 34.6526 37.1803 34.6949C37.2067 34.7372 37.2404 34.7705 37.2786 34.7919C37.3167 34.8134 37.3582 34.8224 37.3995 34.8182H40.6751C40.7707 34.8151 40.8629 34.7715 40.9384 34.6939C41.0138 34.6162 41.0685 34.5086 41.0943 34.3867L42.3489 27.2431C42.3599 27.1902 42.3611 27.1347 42.3523 27.0811C42.3436 27.0276 42.3253 26.9776 42.2988 26.9354C42.2724 26.8933 42.2387 26.8602 42.2005 26.839C42.1623 26.8178 42.1209 26.8091 42.0796 26.8137Z" fill="#E6E6E6"/>
<path d="M40.7551 34.0638H37.5835C37.5618 34.0663 37.5399 34.0617 37.5198 34.0505C37.4997 34.0392 37.4819 34.0217 37.4681 33.9994C37.4542 33.9771 37.4447 33.9506 37.4403 33.9223C37.4359 33.894 37.4367 33.8648 37.4427 33.837L38.5933 27.2726C38.607 27.2083 38.636 27.1516 38.6759 27.1107C38.7159 27.0699 38.7647 27.0471 38.8151 27.0457H41.9852C42.007 27.043 42.0291 27.0473 42.0494 27.0584C42.0697 27.0694 42.0877 27.0869 42.1017 27.1093C42.1157 27.1317 42.1254 27.1582 42.1299 27.1867C42.1344 27.2152 42.1336 27.2447 42.1275 27.2726L40.9723 33.837C40.9588 33.9003 40.9305 33.9563 40.8915 33.9971C40.8525 34.0378 40.8047 34.0612 40.7551 34.0638Z" fill="white"/>
<path d="M34.4731 36.4896H32.5377L31.9609 32.5137H33.8963L34.4731 36.4896Z" fill="#E0E0E0"/>
<path d="M36.5709 25.8571H32.3926C32.2973 25.8601 32.2052 25.9033 32.1297 25.9806C32.0543 26.0579 31.9995 26.1651 31.9734 26.2865L30.5521 34.3882C30.5412 34.4411 30.54 34.4967 30.5488 34.5504C30.5575 34.604 30.5758 34.6541 30.6022 34.6964C30.6286 34.7386 30.6623 34.7719 30.7004 34.7934C30.7386 34.8148 30.78 34.8238 30.8214 34.8196H35.0027C35.0983 34.8165 35.1905 34.7729 35.266 34.6953C35.3415 34.6176 35.3961 34.51 35.4219 34.3882L36.8417 26.2865C36.8532 26.2335 36.8546 26.1775 36.846 26.1236C36.8373 26.0696 36.8189 26.0193 36.7922 25.9769C36.7655 25.9346 36.7313 25.9015 36.6928 25.8807C36.6542 25.8598 36.6124 25.8517 36.5709 25.8571Z" fill="#E6E6E6"/>
<path d="M35.0797 34.0665H31.0069C30.9851 34.0693 30.963 34.065 30.9427 34.0539C30.9224 34.0428 30.9045 34.0253 30.8904 34.003C30.8764 33.9806 30.8667 33.954 30.8622 33.9256C30.8577 33.8971 30.8586 33.8676 30.8647 33.8397L32.1835 26.3193C32.1972 26.255 32.2262 26.1983 32.2661 26.1574C32.3061 26.1166 32.3549 26.0938 32.4053 26.0924H36.4781C36.4998 26.09 36.5217 26.0946 36.5418 26.1058C36.5619 26.117 36.5796 26.1346 36.5935 26.1569C36.6073 26.1792 36.6169 26.2057 36.6213 26.2339C36.6257 26.2622 36.6248 26.2915 36.6188 26.3193L35.3092 33.8397C35.2948 33.9054 35.2646 33.9632 35.2232 34.0041C35.1818 34.0451 35.1314 34.067 35.0797 34.0665Z" fill="white"/>
<path d="M45.6611 42.8027H26.7891V44.8282H45.6611V42.8027Z" fill="#F0F0F0"/>
<path d="M39.1695 47.1094H26.7891V49.1348H39.1695V47.1094Z" fill="#F0F0F0"/>
<path d="M42.9423 51.416H26.7891V53.4414H42.9423V51.416Z" fill="#F0F0F0"/>
<path d="M32.4026 75.4586C48.7857 75.4586 62.0669 74.4321 62.0669 73.1658C62.0669 71.8996 48.7857 70.873 32.4026 70.873C16.0194 70.873 2.73828 71.8996 2.73828 73.1658C2.73828 74.4321 16.0194 75.4586 32.4026 75.4586Z" fill="#F5F5F5"/>
<path d="M18.2457 70.852L19.4222 70.4915L18.9632 66.8457L17.7852 67.2083L18.2457 70.852Z" fill="#CE7A63"/>
<path d="M19.4522 70.286L18.1288 70.6911C18.1064 70.697 18.0866 70.7143 18.0737 70.7393C18.0609 70.7643 18.0559 70.795 18.06 70.8248L18.2313 72.2243C18.2373 72.2603 18.2486 72.2943 18.2645 72.3245C18.2804 72.3546 18.3007 72.3803 18.3242 72.4001C18.3476 72.4198 18.3738 72.4333 18.4012 72.4396C18.4286 72.4459 18.4566 72.4451 18.4838 72.437C18.9428 72.2851 19.1569 72.1818 19.7383 72.0036C20.0963 71.8942 21.6248 71.4749 22.1189 71.323C22.6131 71.1711 22.4892 70.5311 22.2719 70.5371C21.2882 70.5635 20.0627 70.5594 19.671 70.3184C19.6028 70.2759 19.5259 70.2645 19.4522 70.286Z" fill="#263238"/>
<path opacity="0.2" d="M17.7852 67.2122L18.9632 66.8496L19.2004 68.7272L18.0223 69.0897L17.7852 67.2122Z" fill="black"/>
<path d="M16.0154 31.0234C16.0154 31.0234 17.5622 44.0145 18.0212 48.5454C18.5199 53.5097 19.5725 68.0239 19.5725 68.0239L17.4398 68.8017C17.4398 68.8017 15.4202 54.7371 14.5879 49.9125C13.6837 44.6768 11.707 31.0234 11.707 31.0234H16.0154Z" fill="#810019"/>
<path opacity="0.5" d="M16.0154 31.0234C16.0154 31.0234 17.5622 44.0145 18.0212 48.5454C18.5199 53.5097 19.5725 68.0239 19.5725 68.0239L17.4398 68.8017C17.4398 68.8017 15.4202 54.7371 14.5879 49.9125C13.6837 44.6768 11.707 31.0234 11.707 31.0234H16.0154Z" fill="white"/>
<path opacity="0.3" d="M13.4874 35.5873C14.3029 38.3399 14.2524 43.7862 13.9051 45.7043C13.414 42.5548 12.8509 38.7855 12.418 35.8567C12.5832 35.1053 12.9917 33.9123 13.4874 35.5873Z" fill="black"/>
<path d="M17.3884 68.8588L19.6726 68.0263L19.6359 66.7969L17.0625 67.9716L17.3884 68.8588Z" fill="#810019"/>
<path d="M19.9144 70.4372C19.8082 70.4656 19.7 70.4791 19.5916 70.4778C19.5863 70.4781 19.581 70.4761 19.5765 70.4721C19.5721 70.4681 19.5688 70.4622 19.5671 70.4555C19.5641 70.4495 19.5625 70.4424 19.5625 70.4352C19.5625 70.428 19.5641 70.421 19.5671 70.415C19.5993 70.3704 19.8808 69.9673 20.0368 69.9977C20.0546 70.0005 20.0714 70.0095 20.0856 70.0238C20.0999 70.038 20.111 70.057 20.1179 70.0787C20.1314 70.1095 20.1384 70.1445 20.1384 70.18C20.1384 70.2156 20.1314 70.2505 20.1179 70.2813C20.0666 70.3641 19.9943 70.4195 19.9144 70.4372ZM19.6589 70.4028C19.8777 70.3927 20.0322 70.336 20.0751 70.2469C20.0841 70.2262 20.0888 70.2028 20.0888 70.179C20.0888 70.1552 20.0841 70.1318 20.0751 70.1112C20.0721 70.1004 20.067 70.091 20.0602 70.0839C20.0535 70.0767 20.0454 70.0722 20.0368 70.0706C19.9496 70.0544 19.7752 70.2448 19.6589 70.4028Z" fill="#810019"/>
<path d="M19.5997 70.4753H19.5875C19.5829 70.4738 19.5786 70.4708 19.5751 70.4666C19.5716 70.4623 19.569 70.4569 19.5676 70.451C19.5676 70.4327 19.4605 69.9932 19.5538 69.8069C19.5655 69.7826 19.5812 69.7621 19.5998 69.747C19.6183 69.7319 19.6392 69.7226 19.6609 69.7198C19.6844 69.7132 19.7089 69.7175 19.7303 69.7319C19.7517 69.7462 19.7688 69.7698 19.7787 69.7988C19.8353 69.9608 19.7145 70.3375 19.6135 70.4672C19.6099 70.4721 19.6049 70.4751 19.5997 70.4753ZM19.6533 69.7967C19.6314 69.8046 19.6124 69.8226 19.5997 69.8474C19.5578 70.0151 19.5578 70.1962 19.5997 70.3639C19.6897 70.2131 19.7329 70.0226 19.7206 69.8312C19.7206 69.8109 19.7007 69.7886 19.6594 69.7947L19.6533 69.7967Z" fill="#810019"/>
<path d="M16.4457 18.8594C16.562 19.2847 16.6859 19.7485 16.816 20.1881C16.946 20.6276 17.0761 21.0752 17.2153 21.5107C17.4765 22.3661 17.7832 23.1959 18.1333 23.9938L18.2633 24.2632L18.3138 24.3665C18.3226 24.3873 18.3328 24.407 18.3444 24.4252C18.3645 24.4641 18.3876 24.5001 18.4133 24.5326C18.4728 24.566 18.5391 24.5717 18.6015 24.5488C18.7255 24.5196 18.8456 24.4664 18.9579 24.3908C19.4904 24.0566 20.061 23.4105 20.5644 22.7907L21.2942 23.5016C21.0966 23.9675 20.8677 24.4088 20.6103 24.8202C20.3413 25.2589 20.0302 25.6491 19.6847 25.9808C19.4823 26.172 19.2616 26.3267 19.0283 26.4405C18.735 26.5829 18.4192 26.6247 18.1103 26.5621C17.7727 26.4872 17.4593 26.2821 17.2092 25.9727C17.1552 25.905 17.1041 25.8333 17.0562 25.758L16.9858 25.6506L16.9384 25.5676L16.7441 25.2334C16.2823 24.3689 15.8833 23.4487 15.5523 22.4849C15.3901 22.015 15.234 21.5451 15.0933 21.0671C14.9525 20.5891 14.8209 20.1212 14.7031 19.6088L16.4457 18.8594Z" fill="#CE7A63"/>
<path d="M15.6285 17.2174C14.4321 16.8488 13.7054 17.8595 14.0649 19.8505C14.2874 20.9854 14.5603 22.102 14.8819 23.1945C14.9523 23.4395 15.0166 23.6583 15.0701 23.8345L17.7888 21.8293C17.489 20.2556 16.4302 17.4666 15.6285 17.2174Z" fill="#263238"/>
<path opacity="0.3" d="M15.678 19.0982C14.9558 18.2455 15.6948 21.7049 15.9977 23.1491L16.7964 22.5597C16.7168 21.5571 16.2333 19.7524 15.678 19.0982Z" fill="black"/>
<path d="M9.32031 71.5382H10.5259L10.7049 67.8418H9.49779L9.32031 71.5382Z" fill="#CE7A63"/>
<path d="M10.5896 71.3537H9.23557C9.22419 71.3529 9.2128 71.3551 9.20208 71.3601C9.19135 71.3652 9.18149 71.3731 9.17308 71.3833C9.16468 71.3935 9.15789 71.4058 9.15312 71.4195C9.14835 71.4332 9.14569 71.448 9.1453 71.4631L9.07033 72.8809C9.06993 72.9177 9.07504 72.9543 9.08538 72.9886C9.09571 73.0228 9.11106 73.054 9.13054 73.0804C9.15003 73.1068 9.17326 73.1278 9.1989 73.1422C9.22454 73.1566 9.25208 73.1641 9.27994 73.1644C9.75117 73.1543 9.9776 73.1178 10.5728 73.1178C10.9399 73.1178 12.4974 73.1685 13.0023 73.1685C13.5072 73.1685 13.498 72.5062 13.2838 72.4454C12.3245 72.176 11.1419 71.8054 10.7961 71.4509C10.7372 71.3893 10.6646 71.3551 10.5896 71.3537Z" fill="#263238"/>
<path opacity="0.2" d="M9.49805 67.8438H10.7052L10.6119 69.7497H9.40625L9.49805 67.8438Z" fill="black"/>
<path d="M13.6641 31.0234C13.6641 31.0234 13.7069 43.1375 13.4835 47.7069C13.2403 52.7117 11.1396 69.2878 11.1396 69.2878H8.92578C8.92578 69.2878 10.0228 53.1147 9.91872 48.1606C9.80704 42.7831 9.57142 31.0234 9.57142 31.0234H13.6641Z" fill="#810019"/>
<path opacity="0.5" d="M13.6641 31.0234C13.6641 31.0234 13.7069 43.1375 13.4835 47.7069C13.2403 52.7117 11.1396 69.2878 11.1396 69.2878H8.92578C8.92578 69.2878 10.0228 53.1147 9.91872 48.1606C9.80704 42.7831 9.57142 31.0234 9.57142 31.0234H13.6641Z" fill="white"/>
<path d="M8.83519 69.2895H11.2219L11.3611 68.1816L8.72656 68.3538L8.83519 69.2895Z" fill="#810019"/>
<path d="M11.0174 71.63C10.9091 71.6262 10.8014 71.6072 10.6961 71.5733C10.691 71.5717 10.6864 71.5682 10.6829 71.5632C10.6793 71.5581 10.677 71.5518 10.6762 71.5449C10.6727 71.5377 10.6713 71.5291 10.6721 71.5205C10.6729 71.512 10.676 71.5041 10.6808 71.4983C10.7206 71.4639 11.0633 71.154 11.2102 71.231C11.2268 71.2397 11.2415 71.254 11.2528 71.2725C11.264 71.2909 11.2715 71.3129 11.2744 71.3363C11.2828 71.3713 11.2837 71.4086 11.2773 71.4443C11.2708 71.48 11.2571 71.5127 11.2377 71.5389C11.1751 71.6038 11.0968 71.6362 11.0174 71.63ZM10.7742 71.5186C10.9899 71.5773 11.149 71.5672 11.2056 71.4943C11.2173 71.4761 11.2252 71.4543 11.2287 71.4309C11.2322 71.4075 11.2311 71.3833 11.2255 71.3606C11.2245 71.349 11.2211 71.338 11.2157 71.3287C11.2103 71.3194 11.2031 71.3123 11.1949 71.308C11.1153 71.2674 10.9149 71.4011 10.7742 71.5186Z" fill="#810019"/>
<path d="M10.7014 71.5762H10.6892C10.685 71.573 10.6814 71.5687 10.6788 71.5634C10.6761 71.5581 10.6744 71.5521 10.6739 71.5458C10.6739 71.5255 10.6494 71.0658 10.7718 70.9118C10.7873 70.8915 10.8061 70.8762 10.8268 70.8671C10.8475 70.858 10.8695 70.8552 10.8911 70.8592C10.9151 70.8603 10.9381 70.8722 10.9564 70.8927C10.9748 70.9133 10.9873 70.9414 10.9921 70.9726C11.0181 71.1468 10.8391 71.4789 10.7167 71.5802C10.7114 71.581 10.7061 71.5796 10.7014 71.5762ZM10.8712 70.928C10.8599 70.9276 10.8486 70.9302 10.8381 70.9358C10.8276 70.9414 10.818 70.9498 10.81 70.9604C10.7427 71.1141 10.7138 71.2921 10.7274 71.4688C10.833 71.3513 10.9554 71.0982 10.937 70.9827C10.937 70.9625 10.9248 70.9361 10.8835 70.9301L10.8712 70.928Z" fill="#810019"/>
<path d="M16.0168 31.0236H9.56957C9.52826 30.26 9.67666 27.7829 9.59558 24.6233C9.5483 22.2835 9.34763 19.9536 8.99583 17.6598C8.96829 17.4877 8.93923 17.3175 8.91016 17.1454C8.91016 17.1454 9.23757 17.0583 9.70573 16.9671C10.0959 16.8922 10.5839 16.8132 11.0613 16.7849C11.9739 16.7149 12.8888 16.7149 13.8014 16.7849C14.2222 16.8355 14.6337 16.9287 14.9611 17.0117C15.3803 17.1231 15.6267 17.2142 15.6267 17.2142C15.6267 17.2142 17.1872 22.0469 16.0168 31.0236Z" fill="#263238"/>
<path d="M13.646 21.9427C13.6302 21.9426 13.6148 21.9362 13.6017 21.9244C13.5757 21.9001 10.9304 19.3947 9.99251 16.948C9.98344 16.9241 9.98189 16.8964 9.98819 16.8709C9.9945 16.8455 10.0082 16.8244 10.0262 16.8123C10.0351 16.806 10.0448 16.8023 10.0549 16.8011C10.0649 16.8 10.075 16.8016 10.0846 16.8057C10.0941 16.8099 10.103 16.8166 10.1106 16.8253C10.1181 16.8341 10.1243 16.8448 10.1287 16.8568C11.0467 19.259 13.6644 21.734 13.6904 21.7604C13.7067 21.7759 13.7177 21.7992 13.7212 21.8253C13.7246 21.8514 13.7201 21.8783 13.7088 21.9001C13.7016 21.9132 13.6921 21.9239 13.6812 21.9313C13.6703 21.9387 13.6583 21.9426 13.646 21.9427Z" fill="#810019"/>
<path d="M13.6472 21.9448C13.6313 21.9447 13.6159 21.9384 13.6028 21.9266C13.5946 21.9191 13.5876 21.9095 13.5822 21.8984C13.5768 21.8873 13.5731 21.8748 13.5714 21.8618C13.5697 21.8488 13.57 21.8354 13.5722 21.8226C13.5745 21.8097 13.5786 21.7975 13.5844 21.7868C14.2429 20.3152 14.5065 18.5923 14.3326 16.8974C14.3304 16.8709 14.336 16.8444 14.3483 16.8232C14.3605 16.8021 14.3785 16.788 14.3984 16.784C14.4084 16.7823 14.4186 16.7833 14.4284 16.7869C14.4382 16.7904 14.4473 16.7965 14.4553 16.8048C14.4633 16.8131 14.4699 16.8234 14.4749 16.8352C14.4798 16.8469 14.4829 16.8598 14.4841 16.8731C14.6628 18.6172 14.3899 20.3899 13.7099 21.9023C13.7029 21.9156 13.6935 21.9265 13.6825 21.9339C13.6716 21.9413 13.6595 21.9451 13.6472 21.9448Z" fill="#810019"/>
<path d="M14.7143 24.9729H12.9288L12.7422 21.5742H14.5276L14.7143 24.9729Z" fill="#810019"/>
<path d="M14.6346 24.7841H13.0526L12.8828 21.6953H14.4663L14.6346 24.7841Z" fill="white"/>
<path d="M13.7486 23.2567H13.0862L13.0234 22.1387H13.6874L13.7486 23.2567Z" fill="#810019"/>
<path d="M14.3935 23.7207H13.1068L13.0977 23.5469H14.3843L14.3935 23.7207Z" fill="#810019"/>
<path d="M14.417 24.1132H13.1303L13.1211 23.9414H14.4078L14.417 24.1132Z" fill="#810019"/>
<path d="M14.3211 24.5058H13.1537L13.1445 24.334H14.3119L14.3211 24.5058Z" fill="#810019"/>
<path opacity="0.3" d="M9.59584 24.6251C9.54864 22.2861 9.34797 19.9568 8.99609 17.6637C9.42754 17.6131 10.1634 17.6637 10.2813 18.5914C10.4067 19.5818 10.2201 21.9111 9.59584 24.6251Z" fill="black"/>
<path d="M10.1711 19.1717L9.52543 22.1147L9.20108 23.5871L8.89509 25.0556L8.8752 25.1467L8.86602 25.1913V25.2156C8.86854 25.1955 8.86854 25.1749 8.86602 25.1548C8.85378 25.1265 8.86602 25.1224 8.86602 25.1548C8.89823 25.2849 8.95031 25.4049 9.01902 25.5072C9.23834 25.8403 9.48461 26.1405 9.7534 26.4025C10.355 26.9959 10.9812 27.5443 11.6291 28.0451L11.2864 29.155C10.8923 29.0119 10.5046 28.8394 10.1252 28.6386C9.74029 28.4359 9.36479 28.2032 9.00066 27.9418C8.60249 27.6612 8.23285 27.3148 7.90062 26.9109C7.68938 26.6503 7.51525 26.3416 7.38656 25.9994C7.30071 25.7652 7.24881 25.5116 7.23356 25.252C7.22626 25.1025 7.2319 24.9523 7.25039 24.8044L7.28252 24.5776C7.42328 23.5345 7.58851 22.5096 7.78741 21.4929C7.9863 20.4761 8.19284 19.4674 8.43764 18.4648L10.1711 19.1717Z" fill="#CE7A63"/>
<path d="M8.91069 17.1435C8.10746 17.3906 7.20632 20.1918 6.88809 21.7676C6.83607 22.0349 6.79323 22.2658 6.7611 22.442C6.71826 22.6749 6.69531 22.8147 6.69531 22.8147L9.39109 23.8274C9.44617 23.6512 9.51349 23.4223 9.5854 23.1874C9.9204 22.0978 10.207 20.9833 10.4437 19.8495C10.8323 17.8605 10.1117 16.7749 8.91069 17.1435Z" fill="#263238"/>
<path d="M13.6727 16.772C12.8787 16.5229 12.7425 15.8707 12.8006 15.1516C12.814 14.9717 12.8359 14.7931 12.8664 14.6169L11.875 13.5192L11.1467 12.709C11.3426 13.8777 11.5583 16.0064 10.957 16.7862C11.1965 17.2536 11.5229 17.6315 11.9048 17.8834C12.2867 18.1353 12.7111 18.2527 13.1372 18.2242C13.8226 17.2419 13.6727 16.772 13.6727 16.772Z" fill="#CE7A63"/>
<path d="M10.4727 16.7796C10.6437 16.7272 10.8169 16.6879 10.9913 16.6621C11.2805 17.3143 12.5213 18.2359 12.942 18.2359C12.942 18.2359 12.5213 18.4789 12.4157 19.3579C11.7701 18.8779 10.5277 17.6485 10.4727 16.7796Z" fill="white"/>
<path d="M13.9723 16.7834C13.8514 16.7354 13.7249 16.7176 13.599 16.7308C13.6082 17.3688 13.4567 17.6645 13.2227 18.102C13.3898 18.1792 13.5365 18.3188 13.645 18.5039C13.7536 18.6889 13.8195 18.9116 13.8346 19.1451C14.3135 18.4747 14.1529 17.2635 13.9723 16.7834Z" fill="white"/>
<path opacity="0.2" d="M12.866 14.6173C12.8355 14.7935 12.8135 14.9721 12.8002 15.152C12.4284 15.0528 11.8669 14.6133 11.8164 14.0583C11.8191 13.8762 11.8386 13.6953 11.8745 13.5195L12.866 14.6173Z" fill="black"/>
<path d="M10.6811 10.9379C10.8708 12.5076 10.9229 13.4373 11.5838 14.1907C12.5767 15.3229 13.992 14.4642 14.1587 12.8641C14.3117 11.424 13.9736 9.09882 12.7634 8.58031C12.5016 8.46047 12.2208 8.43334 11.9486 8.50161C11.6765 8.56988 11.4226 8.73118 11.2121 8.96949C11.0017 9.2078 10.8419 9.51485 10.7488 9.86015C10.6556 10.2054 10.6323 10.577 10.6811 10.9379Z" fill="#CE7A63"/>
<path d="M11.1054 12.6751C11.5215 11.6867 11.7678 10.5059 11.3333 9.98334C11.9193 9.98334 12.6124 9.68965 12.8633 9.39799C13.3223 9.67952 13.8379 9.64104 14.049 8.99291C14.2265 8.45617 13.9694 7.73309 13.2702 7.7898C12.1564 6.61911 10.2103 6.86621 10.8223 7.86879C9.22045 7.71081 9.04145 8.88151 9.6519 9.28659C8.68956 10.0623 8.89457 12.0189 11.1054 12.6751Z" fill="#263238"/>
<path d="M10.3503 12.4827C10.5261 12.7977 10.7793 13.0219 11.0663 13.1166C11.432 13.224 11.5253 12.7743 11.3723 12.3247C11.2193 11.9196 10.846 11.3748 10.5125 11.4699C10.179 11.5651 10.127 12.0857 10.3503 12.4827Z" fill="#CE7A63"/>
<path d="M12.5156 11.2062C12.5248 11.3358 12.5845 11.4351 12.6472 11.429C12.7099 11.4229 12.7543 11.3135 12.7451 11.1859C12.7359 11.0583 12.6763 10.9571 12.612 10.9632C12.5478 10.9692 12.5156 11.0786 12.5156 11.2062Z" fill="#263238"/>
<path d="M13.6145 11.1066C13.6252 11.2342 13.6833 11.3334 13.7461 11.3274C13.8088 11.3213 13.8532 11.2139 13.844 11.0843C13.8348 10.9547 13.7751 10.8575 13.7124 10.8636C13.6497 10.8696 13.6053 10.979 13.6145 11.1066Z" fill="#263238"/>
<path d="M13.2812 11.2012C13.4262 11.5837 13.6094 11.9386 13.8259 12.2564C13.7632 12.3265 13.6894 12.377 13.61 12.4044C13.5305 12.4317 13.4475 12.4351 13.3669 12.4144L13.2812 11.2012Z" fill="#BA4D3C"/>
<path d="M12.9937 12.7951C12.8815 12.7901 12.7712 12.7548 12.6697 12.6914C12.5681 12.628 12.4774 12.5379 12.4031 12.4264C12.4004 12.4229 12.3982 12.4186 12.3968 12.4139C12.3953 12.4092 12.3945 12.4042 12.3945 12.3991C12.3945 12.394 12.3953 12.389 12.3968 12.3843C12.3982 12.3796 12.4004 12.3753 12.4031 12.3717C12.4085 12.3651 12.4156 12.3613 12.423 12.3613C12.4304 12.3613 12.4375 12.3651 12.4429 12.3717C12.5246 12.4919 12.6263 12.5852 12.74 12.6442C12.8537 12.7033 12.9761 12.7265 13.0977 12.712C13.1016 12.7114 13.1055 12.712 13.1092 12.7135C13.1129 12.7151 13.1163 12.7177 13.1192 12.7212C13.1221 12.7246 13.1244 12.7288 13.126 12.7335C13.1276 12.7382 13.1284 12.7433 13.1283 12.7485C13.1288 12.7533 13.1284 12.7582 13.1273 12.7629C13.1262 12.7676 13.1244 12.7718 13.1219 12.7755C13.1194 12.7791 13.1164 12.782 13.113 12.784C13.1097 12.786 13.106 12.787 13.1023 12.787C13.0663 12.7924 13.03 12.7951 12.9937 12.7951Z" fill="#263238"/>
<path d="M12.1482 10.7708C12.1384 10.7695 12.129 10.7653 12.1206 10.7586C12.1143 10.7534 12.1088 10.7466 12.1044 10.7386C12.1001 10.7306 12.097 10.7216 12.0953 10.712C12.0935 10.7024 12.0933 10.6925 12.0945 10.6827C12.0957 10.673 12.0983 10.6637 12.1023 10.6553C12.1485 10.5527 12.2129 10.4666 12.2899 10.4045C12.367 10.3423 12.4544 10.3061 12.5444 10.2988C12.5594 10.2988 12.5738 10.3067 12.5845 10.3208C12.5951 10.3348 12.601 10.3539 12.601 10.3738C12.601 10.3942 12.5949 10.4138 12.584 10.4282C12.5731 10.4426 12.5583 10.4507 12.5429 10.4507C12.4725 10.4579 12.4045 10.4874 12.3446 10.5368C12.2846 10.5861 12.2346 10.6539 12.1987 10.7343C12.1933 10.7456 12.1859 10.755 12.1771 10.7614C12.1682 10.7678 12.1582 10.771 12.1482 10.7708Z" fill="#263238"/>
<path d="M14.0446 10.5628C14.0353 10.5622 14.0262 10.5586 14.0182 10.5522C14.0102 10.5459 14.0035 10.537 13.9987 10.5264C13.9629 10.4425 13.9129 10.3707 13.8526 10.3166C13.7924 10.2625 13.7235 10.2275 13.6514 10.2144C13.6438 10.2139 13.6364 10.2114 13.6296 10.207C13.6227 10.2027 13.6167 10.1965 13.6117 10.1889C13.6067 10.1814 13.6029 10.1726 13.6005 10.163C13.5981 10.1535 13.5972 10.1434 13.5978 10.1334C13.599 10.1137 13.6059 10.0954 13.617 10.0822C13.6281 10.069 13.6426 10.062 13.6575 10.0625C13.7483 10.0767 13.8354 10.1189 13.9117 10.1858C13.9879 10.2526 14.0513 10.3422 14.0966 10.4474C14.1005 10.4559 14.103 10.4653 14.1041 10.4751C14.1052 10.4849 14.1048 10.4949 14.103 10.5045C14.1011 10.5141 14.0978 10.5231 14.0933 10.5311C14.0888 10.539 14.0832 10.5456 14.0767 10.5507C14.067 10.5584 14.0559 10.5626 14.0446 10.5628Z" fill="#263238"/>
<path d="M11.3057 27.9623L12.7485 27.7598L11.9927 29.5077C11.9927 29.5077 10.9003 29.3619 11.0074 28.6266L11.3057 27.9623Z" fill="#CE7A63"/>
<path d="M13.7938 28.2279L13.0793 29.7388L11.9961 29.5018L12.7519 27.7539L13.7938 28.2279Z" fill="#CE7A63"/>
<path d="M20.9673 23.7379L22.1392 23.4077L21.2809 22.0527C21.2809 22.0527 20.2099 22.632 20.5159 23.268L20.9673 23.7379Z" fill="#CE7A63"/>
<path d="M22.8051 22.6049L22.037 21.1973L21.2812 22.052L22.1396 23.407L22.8051 22.6049Z" fill="#CE7A63"/>
<path d="M13.7626 35.9512H31.1047C31.6095 35.9512 32.0936 36.2166 32.4505 36.6892C32.8074 37.1617 33.0079 37.8026 33.0079 38.4708V73.1663H11.8594V38.4708C11.8594 37.8026 12.0599 37.1617 12.4168 36.6892C12.7738 36.2166 13.2579 35.9512 13.7626 35.9512Z" fill="#810019"/>
<path d="M37.3757 38.4688H37.2227V43.1171H37.3757V38.4688Z" fill="#810019"/>
<path d="M37.3757 44.2871H37.2227V45.6826H37.3757V44.2871Z" fill="#810019"/>
<path d="M17.5947 35.9512H34.9352C35.44 35.9512 35.9241 36.2166 36.281 36.6892C36.6379 37.1617 36.8384 37.8026 36.8384 38.4708V73.1663H15.6914V38.4708C15.6914 37.8026 15.8919 37.1617 16.2489 36.6892C16.6058 36.2166 17.0899 35.9512 17.5947 35.9512Z" fill="#810019"/>
<path opacity="0.3" d="M36.2031 38.4681V73.1637H16.3244V38.4681C16.3244 38.0228 16.458 37.5957 16.6959 37.2809C16.9338 36.966 17.2564 36.7891 17.5928 36.7891H34.9348C35.2712 36.7891 35.5938 36.966 35.8316 37.2809C36.0695 37.5957 36.2031 38.0228 36.2031 38.4681Z" fill="white"/>
<path opacity="0.9" d="M35.8711 38.472V73.1675H16.329V38.472C16.3292 38.2513 16.3622 38.0329 16.4262 37.8291C16.4903 37.6254 16.584 37.4403 16.7021 37.2846C16.8202 37.1288 16.9603 37.0054 17.1144 36.9214C17.2685 36.8374 17.4337 36.7944 17.6004 36.7949H34.6028C34.9389 36.7949 35.2612 36.9716 35.4991 37.286C35.7369 37.6005 35.8707 38.027 35.8711 38.472Z" fill="white"/>
<path d="M24.2047 30.7148H17.9854C17.3635 30.7148 16.8594 31.3823 16.8594 32.2056V34.4578C16.8594 35.2811 17.3635 35.9485 17.9854 35.9485H24.2047C24.8266 35.9485 25.3307 35.2811 25.3307 34.4578V32.2056C25.3307 31.3823 24.8266 30.7148 24.2047 30.7148Z" fill="#810019"/>
<path d="M24.0404 31.0117H19.7993C19.2543 31.0117 18.8125 31.5966 18.8125 32.3181V34.3476C18.8125 35.0691 19.2543 35.654 19.7993 35.654H24.0404C24.5854 35.654 25.0272 35.0691 25.0272 34.3476V32.3181C25.0272 31.5966 24.5854 31.0117 24.0404 31.0117Z" fill="#263238"/>
<path d="M17.5912 32.3175C17.5912 32.3836 17.5714 32.4469 17.5361 32.4936C17.5008 32.5404 17.4529 32.5666 17.403 32.5666C17.3531 32.5666 17.3053 32.5404 17.27 32.4936C17.2347 32.4469 17.2148 32.3836 17.2148 32.3175C17.2148 32.2514 17.2347 32.188 17.27 32.1413C17.3053 32.0946 17.3531 32.0684 17.403 32.0684C17.4529 32.0684 17.5008 32.0946 17.5361 32.1413C17.5714 32.188 17.5912 32.2514 17.5912 32.3175Z" fill="white"/>
<path d="M17.5912 33.1105C17.5912 33.1597 17.5802 33.2079 17.5595 33.2489C17.5388 33.2898 17.5094 33.3218 17.475 33.3406C17.4407 33.3595 17.4028 33.3644 17.3663 33.3548C17.3298 33.3452 17.2963 33.3215 17.27 33.2866C17.2436 33.2518 17.2257 33.2074 17.2185 33.1591C17.2112 33.1107 17.2149 33.0606 17.2292 33.0151C17.2434 32.9696 17.2675 32.9307 17.2985 32.9033C17.3294 32.8759 17.3658 32.8613 17.403 32.8613C17.4528 32.8619 17.5004 32.8883 17.5357 32.9349C17.5709 32.9815 17.5908 33.0445 17.5912 33.1105Z" fill="white"/>
<path opacity="0.2" d="M30.6855 27.6562H27.7617L28.2528 35.9504H31.1766L30.6855 27.6562Z" fill="#810019"/>
<path d="M30.8612 26.9453H27.9375L28.4286 35.2394H31.3524L30.8612 26.9453Z" fill="#810019"/>
<path opacity="0.6" d="M30.9378 32.2382H28.4945L28.1992 27.2617H30.6426L30.9378 32.2382Z" fill="white"/>
<path opacity="0.6" d="M31.0971 34.9216H28.6523L28.5391 33.0137H30.9839L31.0971 34.9216Z" fill="white"/>
<path d="M30.9589 26.8987L28.0352 26.8906L28.514 35.2354L31.4378 35.2435L30.9589 26.8987Z" fill="#810019"/>
<path opacity="0.6" d="M31.0224 32.2239L28.5791 32.2158L28.293 27.2109L30.7363 27.217L31.0224 32.2239Z" fill="white"/>
<path opacity="0.6" d="M31.18 34.9242L28.7352 34.9182L28.625 32.998L31.0699 33.0041L31.18 34.9242Z" fill="white"/>
<path d="M31.0409 26.7933L28.1172 26.7852L28.5961 35.2312L31.5198 35.2393L31.0409 26.7933Z" fill="#810019"/>
<path opacity="0.6" d="M31.106 32.1831L28.6611 32.175L28.375 27.1074L30.8199 27.1155L31.106 32.1831Z" fill="white"/>
<path opacity="0.6" d="M31.2597 34.9173L28.8133 34.9092L28.7031 32.9668L31.1495 32.9729L31.2597 34.9173Z" fill="white"/>
<path opacity="0.4" d="M27.5156 27.6562H27.7619L28.2531 35.9504H28.0083L27.5156 27.6562Z" fill="#810019"/>
<path d="M52.8686 21.9863C52.9405 22.2071 52.994 22.3914 53.0476 22.594C53.1011 22.7965 53.1516 22.9828 53.2006 23.1773C53.2985 23.5662 53.3842 23.9571 53.4652 24.348C53.6182 25.1338 53.7544 25.9238 53.86 26.7197L53.8998 27.0175L53.9089 27.0924L53.9196 27.1836C53.9297 27.266 53.9353 27.3492 53.9365 27.4327C53.9406 27.7279 53.9022 28.0214 53.8233 28.2976C53.6931 28.7415 53.5063 29.1526 53.2709 29.5128C52.8542 30.1572 52.3662 30.7144 51.8236 31.1656L51.3906 30.4607C51.7674 29.911 52.1064 29.3179 52.4035 28.6885C52.5304 28.4206 52.6263 28.1291 52.688 27.8236C52.7064 27.7249 52.7105 27.6225 52.7003 27.5218L52.6131 27.0742C52.4601 26.3248 52.3071 25.5815 52.1388 24.8462C52.0562 24.4796 51.9644 24.115 51.8756 23.7545C51.8313 23.5743 51.7838 23.394 51.7364 23.2178L51.5941 22.7114L52.8686 21.9863Z" fill="#B55B52"/>
<path d="M51.9758 30.8851L52.3935 32.074L51.8197 32.5176C51.8197 32.5176 50.6952 30.3443 51.5428 30.2734L51.9758 30.8851Z" fill="#B55B52"/>
<path d="M49.6655 71.4401C49.7863 71.4368 49.9064 71.4158 50.0236 71.3773C50.0298 71.3754 50.0354 71.3711 50.0397 71.365C50.0441 71.3589 50.047 71.3512 50.048 71.3429C50.0491 71.3348 50.0483 71.3264 50.0459 71.3189C50.0435 71.3113 50.0394 71.3049 50.0343 71.3003C49.9884 71.2598 49.5753 70.9074 49.4223 71.0026C49.4046 71.0131 49.3895 71.0298 49.3785 71.0509C49.3674 71.0719 49.3609 71.0965 49.3596 71.1221C49.353 71.1623 49.3543 71.2041 49.3635 71.2435C49.3726 71.2828 49.3891 71.3184 49.4116 71.3469C49.4853 71.4165 49.5753 71.4495 49.6655 71.4401ZM49.9333 71.3165C49.6977 71.3773 49.5202 71.3672 49.4514 71.2841C49.4366 71.2649 49.4259 71.2411 49.42 71.2149C49.4141 71.1887 49.4133 71.1609 49.4177 71.1342C49.418 71.1226 49.4208 71.1114 49.4256 71.1017C49.4305 71.0921 49.4373 71.0844 49.4452 71.0795C49.5279 71.0309 49.765 71.1808 49.9333 71.3165Z" fill="#810019"/>
<path d="M50.0167 71.3765C50.0222 71.3786 50.028 71.3786 50.0335 71.3765C50.0383 71.3728 50.0423 71.3675 50.045 71.3611C50.0477 71.3546 50.049 71.3474 50.0488 71.34C50.0488 71.3178 50.0488 70.8013 49.8958 70.6291C49.8777 70.6069 49.8561 70.5903 49.8326 70.5805C49.809 70.5707 49.7841 70.5679 49.7597 70.5724C49.734 70.5731 49.7093 70.5853 49.6896 70.607C49.6698 70.6287 49.6562 70.6586 49.651 70.6919C49.6204 70.8944 49.8668 71.2813 49.9968 71.3785L50.0167 71.3765ZM49.7872 70.6494C49.8003 70.6493 49.8132 70.6527 49.8253 70.6593C49.8374 70.6659 49.8483 70.6756 49.8576 70.6878C49.9448 70.7891 49.9754 71.0808 49.983 71.2529C49.8545 71.1152 49.7 70.8256 49.7199 70.702C49.7199 70.6818 49.7306 70.6575 49.7719 70.6514L49.7872 70.6494Z" fill="#810019"/>
<path d="M49.7599 15.7988C49.6069 16.8642 49.2704 19.0213 49.8319 19.7302C49.8319 19.7302 49.6131 20.8118 48.1183 20.8118C46.4751 20.8118 47.3334 19.7302 47.3334 19.7302C48.23 19.4466 48.207 18.5656 48.051 17.7392L49.7599 15.7988Z" fill="#B55B52"/>
<path d="M46.8212 20.5654C46.5948 20.6038 47.1272 19.6499 47.2175 19.5526C47.4286 19.3278 50.1841 19.1374 50.1703 19.6944C50.1611 19.9334 50.0953 20.3993 49.976 20.5512C49.8567 20.7031 48.801 20.1724 46.8212 20.5654Z" fill="#263238"/>
<path d="M47.1092 13.2274C47.0991 13.2261 47.0893 13.2216 47.0808 13.2141C47.0722 13.2067 47.0652 13.1967 47.0603 13.1848C47.0227 13.0906 46.9689 13.0095 46.9033 12.9479C46.8376 12.8863 46.762 12.8461 46.6824 12.8304C46.6739 12.8299 46.6656 12.8272 46.658 12.8224C46.6504 12.8176 46.6435 12.8109 46.6378 12.8026C46.6321 12.7944 46.6277 12.7847 46.6249 12.7742C46.622 12.7636 46.6208 12.7525 46.6212 12.7413C46.6224 12.7185 46.6302 12.6973 46.6431 12.6822C46.656 12.667 46.6728 12.6591 46.69 12.6603C46.791 12.678 46.8874 12.7273 46.9712 12.8041C47.055 12.8808 47.1238 12.9829 47.172 13.1018C47.1763 13.1115 47.179 13.1222 47.1801 13.1333C47.1812 13.1444 47.1806 13.1557 47.1783 13.1664C47.176 13.1772 47.1721 13.1873 47.1668 13.196C47.1615 13.2048 47.1549 13.212 47.1475 13.2173C47.136 13.2264 47.1225 13.2299 47.1092 13.2274Z" fill="#263238"/>
<path d="M46.6633 14.1875C46.5472 14.5069 46.399 14.804 46.2227 15.0706C46.2753 15.1282 46.3367 15.17 46.4028 15.1931C46.4688 15.2162 46.5379 15.22 46.6051 15.2043L46.6633 14.1875Z" fill="#A02724"/>
<path d="M46.7828 13.9496C46.7751 14.0934 46.7109 14.2048 46.6389 14.1987C46.567 14.1927 46.5166 14.0691 46.5242 13.9253C46.5319 13.7815 46.5976 13.6681 46.668 13.6762C46.7384 13.6843 46.7828 13.8058 46.7828 13.9496Z" fill="#263238"/>
<path d="M46.6945 13.6878L46.4375 13.5625C46.4375 13.5625 46.5568 13.8455 46.6945 13.6878Z" fill="#263238"/>
<path d="M51.5938 71.3338H50.2383L50.3438 67.1797H51.6994L51.5938 71.3338Z" fill="#B55B52"/>
<path d="M50.1305 71.1289H51.6605C51.6865 71.1282 51.7118 71.1401 51.7316 71.1625C51.7514 71.185 51.7642 71.2163 51.7676 71.2505L51.942 72.8465C51.9452 72.8867 51.942 72.9274 51.9325 72.9659C51.9231 73.0044 51.9076 73.0398 51.8871 73.0698C51.8666 73.0998 51.8415 73.1238 51.8135 73.1401C51.7855 73.1564 51.7553 73.1647 51.7247 73.1645C51.1938 73.1523 50.9383 73.1118 50.2682 73.1118C49.8566 73.1118 49.2538 73.1685 48.6847 73.1685C48.1156 73.1685 48.0865 72.4232 48.3236 72.3584C49.3854 72.0566 49.5476 71.6393 49.9102 71.2403C49.9721 71.1715 50.0497 71.1322 50.1305 71.1289Z" fill="#263238"/>
<g opacity="0.2">
<path d="M51.7019 67.1777H50.3464L50.2852 69.586H51.6407L51.7019 67.1777Z" fill="black"/>
</g>
<path d="M45.7122 22.5616C45.443 23.4569 45.1538 24.3096 44.8279 25.1602C44.5078 26.0267 44.1449 26.8643 43.7417 27.6677C43.633 27.8703 43.5259 28.0728 43.4035 28.2753C43.3393 28.3786 43.2857 28.4779 43.2123 28.5812C43.1262 28.7073 43.0314 28.8226 42.9292 28.9255C42.7295 29.1195 42.5044 29.263 42.2652 29.3488C42.049 29.4276 41.8255 29.4665 41.6012 29.4643C41.1993 29.4583 40.8007 29.368 40.4201 29.1969C40.2397 29.1197 40.063 29.0284 39.8908 28.9235C39.7164 28.8206 39.5468 28.7043 39.3828 28.5751L39.672 27.7508C40.2916 27.9695 40.9831 28.1174 41.5355 28.012C41.7678 27.9835 41.9877 27.8596 42.1643 27.6576C42.1978 27.6132 42.229 27.5658 42.2576 27.5158L42.3892 27.2707C42.4794 27.1026 42.5651 26.9163 42.6493 26.734C42.8191 26.3613 42.9813 25.9724 43.1358 25.5734C43.2903 25.1744 43.4418 24.7633 43.5948 24.3582C43.8839 23.548 44.1685 22.6973 44.4317 21.875L45.7122 22.5616Z" fill="#B55B52"/>
<path d="M45.1821 20.1151C44.5089 20.3318 43.6797 22.7805 43.6797 22.7805L45.2831 25.4986C45.2831 25.4986 46.9385 22.3977 46.7182 21.4478C46.4872 20.4574 45.9991 19.8497 45.1821 20.1151Z" fill="#810019"/>
<path d="M39.9848 27.8763L38.9797 27.457L38.7578 28.8546C38.7578 28.8546 39.7462 29.1098 40.1348 28.5386L39.9848 27.8763Z" fill="#B55B52"/>
<path d="M38.043 27.617L38.2342 28.6804L38.7559 28.8546L38.9778 27.457L38.043 27.617Z" fill="#B55B52"/>
<path d="M50.4695 13.8169C50.2874 15.5811 50.2384 16.3325 49.5102 17.1751C48.4163 18.443 46.819 17.7604 46.6033 15.9598C46.4059 14.3395 46.7364 11.7267 48.0873 11.1514C48.3844 11.0241 48.701 10.9991 49.0074 11.0789C49.3138 11.1587 49.5997 11.3406 49.8382 11.6074C50.0766 11.8743 50.2597 12.2172 50.3702 12.6038C50.4807 12.9904 50.5148 13.4079 50.4695 13.8169Z" fill="#B55B52"/>
<path d="M47.4591 14.8207C48.5163 17.2675 49.0518 17.5996 49.8688 18.0047C49.8688 18.0047 50.2452 16.4998 51.0606 15.562C52.1591 14.3022 51.5196 11.9001 50.8495 11.6125C51.183 10.1947 47.2633 9.78958 46.8456 11.9062C46.5457 13.4252 47.4591 14.8207 47.4591 14.8207Z" fill="#263238"/>
<path d="M48.077 14.3484C48.0145 14.7408 47.8526 15.0931 47.618 15.3469C47.3028 15.6912 47.0305 15.4219 47.0198 14.958C47.0122 14.5408 47.1652 13.8582 47.5278 13.6901C47.8903 13.522 48.1413 13.8866 48.077 14.3484Z" fill="#B55B52"/>
<path d="M47.2812 30.9434C47.2812 30.9434 48.0676 43.2579 48.8846 50.1991C49.5441 55.8054 50.0627 68.9079 50.0627 68.9079H51.9109C51.9109 68.9079 52.7921 56.2531 52.4571 50.7095C51.611 36.6794 53.0966 34.1962 51.3326 30.9434H47.2812Z" fill="#263238"/>
<path opacity="0.2" d="M47.8555 38.8905C48.1049 42.1312 48.4154 45.8195 48.7398 48.8293C49.2615 47.2089 49.8108 44.9911 49.9163 40.4076C49.9745 37.3168 48.6862 36.7132 47.8555 38.8905Z" fill="black"/>
<path d="M42.9802 70.669C42.9857 70.6692 42.9912 70.6675 42.996 70.6639C43.0009 70.6604 43.0049 70.6551 43.0077 70.6487C43.0119 70.6419 43.0142 70.6333 43.0142 70.6244C43.0142 70.6156 43.0119 70.607 43.0077 70.6001C42.9618 70.5313 42.5609 69.9297 42.3728 69.9601C42.3551 69.9631 42.3383 69.972 42.3239 69.9857C42.3095 69.9995 42.2979 70.0179 42.2901 70.0391C42.2766 70.0731 42.2695 70.111 42.2695 70.1495C42.2695 70.1879 42.2766 70.2258 42.2901 70.2599C42.3789 70.4928 42.7614 70.6163 42.9802 70.6649V70.669ZM42.385 70.0452C42.4906 70.0452 42.7277 70.3287 42.8914 70.5616C42.5946 70.4766 42.3911 70.3591 42.3422 70.2214C42.3328 70.1995 42.3278 70.1747 42.3278 70.1495C42.3278 70.1243 42.3328 70.0995 42.3422 70.0776C42.3447 70.0687 42.349 70.061 42.3547 70.0553C42.3604 70.0496 42.3672 70.0461 42.3743 70.0452H42.385Z" fill="#810019"/>
<path d="M42.9804 70.6692H42.9881C42.9936 70.6673 42.9986 70.6635 43.0027 70.6581C43.0067 70.6528 43.0096 70.6461 43.011 70.6388C43.011 70.6206 43.1196 70.1547 43.011 69.8975C42.9963 69.8601 42.976 69.8271 42.9513 69.8007C42.9265 69.7742 42.8979 69.7547 42.8672 69.7436C42.78 69.7112 42.7402 69.7557 42.7142 69.7962C42.6346 69.9745 42.8244 70.4889 42.9483 70.657C42.9524 70.6626 42.9575 70.6666 42.9631 70.6688C42.9688 70.6709 42.9747 70.671 42.9804 70.6692ZM42.8121 69.8185C42.8248 69.8159 42.8377 69.8159 42.8504 69.8185C42.8732 69.8266 42.8944 69.8409 42.9129 69.8604C42.9313 69.8799 42.9465 69.9043 42.9575 69.9319C43.0077 70.1285 43.0104 70.3409 42.9651 70.5396C42.8473 70.337 42.7295 69.9481 42.7785 69.8428C42.78 69.8347 42.7876 69.8185 42.806 69.8185H42.8121Z" fill="#810019"/>
<path d="M44.341 71.8975L43.0742 71.1724L43.4322 69.0274L43.7948 66.8683L43.8361 66.6172L45.1504 67.0567L45.1045 67.3403L44.7541 69.4305L44.341 71.8975Z" fill="#B55B52"/>
<path opacity="0.2" d="M44.7565 69.4293L43.4102 69.1762L43.7972 66.8672L45.1069 67.3391L44.7565 69.4293Z" fill="black"/>
<path d="M45.8288 30.9434C45.8288 30.9434 44.9108 44.2058 44.5681 50.4887C44.2621 56.1599 43.3242 68.0674 43.3242 68.0674L45.1525 68.4279C45.1525 68.4279 47.6004 55.0216 47.9829 51.1429C49.0799 40.0031 51.228 36.5599 50.7032 30.9434H45.8288Z" fill="#263238"/>
<path d="M43.1206 70.4844L44.5388 71.2216C44.5634 71.2336 44.5837 71.2572 44.5959 71.2879C44.608 71.3186 44.6112 71.3541 44.6046 71.3877L44.3262 72.9554C44.3182 72.9946 44.304 73.0312 44.2846 73.0627C44.2652 73.0942 44.241 73.1199 44.2135 73.1381C44.186 73.1563 44.1559 73.1665 44.1253 73.1682C44.0946 73.1699 44.064 73.1629 44.0355 73.1478C43.5444 72.8804 43.3179 72.7184 42.6952 72.3943C42.3112 72.1918 41.5034 71.8333 40.974 71.5578C40.4447 71.2824 40.6221 70.5755 40.8608 70.6282C41.9318 70.8611 42.4367 70.6747 42.8804 70.4783C42.9585 70.4428 43.0435 70.4449 43.1206 70.4844Z" fill="#263238"/>
<path d="M43.0117 68.5838L45.3311 69.1125L45.5973 67.9539L43.1142 67.3848L43.0117 68.5838Z" fill="#810019"/>
<path d="M49.8106 68.9571H52.1652L52.2892 67.8633L49.7969 67.752L49.8106 68.9571Z" fill="#810019"/>
<path d="M53.4708 22.9098L52.1107 24.3438L51.2937 25.2066C51.2937 25.2066 51.208 24.9048 51.104 24.4734C50.9066 23.6369 50.645 22.3143 50.8271 21.7046C51.1071 20.7405 51.641 19.8716 52.3065 20.064C52.8696 20.2281 53.4708 22.9098 53.4708 22.9098Z" fill="#810019"/>
<path opacity="0.2" d="M51.9194 24.5479L51.2952 25.2062C51.2952 25.2062 51.2095 24.9044 51.1055 24.473L51.5905 21.291L51.9194 24.5479Z" fill="black"/>
<path d="M45.1807 20.1155C45.1807 20.1155 44.5351 20.4152 45.8279 30.9434H51.3358C51.244 27.9782 51.2409 26.1492 52.3119 20.0628C51.5411 19.8529 50.7598 19.7175 49.9741 19.6577C49.1419 19.5776 48.3064 19.5776 47.4742 19.6577C46.3986 19.7853 45.1807 20.1155 45.1807 20.1155Z" fill="#810019"/>
<path d="M50.0294 17.8247L49.5046 17.8105C48.5943 19.4734 49.6423 19.5443 49.6408 20.9743C49.6392 22.4042 48.4688 23.2468 49.9116 24.2534C48.8498 22.7769 51.8209 21.9181 50.0294 17.8247Z" fill="#263238"/>
<path d="M48.9246 17.2967C48.9617 17.5509 48.9862 17.808 48.998 18.0664C48.998 18.1201 49.0142 18.1716 49.0429 18.2096C49.0715 18.2476 49.1105 18.2689 49.151 18.2689C49.4157 18.2689 49.9436 18.2689 50.1975 18.2689C50.2372 18.2652 50.2745 18.2426 50.3026 18.2054C50.3307 18.1682 50.3477 18.1189 50.3505 18.0664C50.3722 17.7702 50.3819 17.4727 50.3796 17.1752C50.3796 17.1215 50.3635 17.07 50.3348 17.032C50.3061 16.994 50.2672 16.9727 50.2266 16.9727C49.8242 16.9727 49.3255 17.0071 49.0623 17.0314C49.0176 17.0427 48.978 17.0769 48.9523 17.1266C48.9265 17.1763 48.9165 17.2374 48.9246 17.2967Z" fill="#810019"/>
<path d="M51.4135 30.5181L51.6613 31.1702C51.6812 31.2209 51.6353 31.2735 51.5726 31.2735H45.7985C45.7496 31.2735 45.7083 31.2411 45.7052 31.1986L45.6562 30.5464C45.6562 30.5019 45.6945 30.4634 45.7496 30.4634H51.3232C51.3405 30.4614 51.3579 30.4654 51.3738 30.475C51.3896 30.4846 51.4033 30.4994 51.4135 30.5181Z" fill="#810019"/>
<path opacity="0.5" d="M51.4135 30.5181L51.6613 31.1702C51.6812 31.2209 51.6353 31.2735 51.5726 31.2735H45.7985C45.7496 31.2735 45.7083 31.2411 45.7052 31.1986L45.6562 30.5464C45.6562 30.5019 45.6945 30.4634 45.7496 30.4634H51.3232C51.3405 30.4614 51.3579 30.4654 51.3738 30.475C51.3896 30.4846 51.4033 30.4994 51.4135 30.5181Z" fill="white"/>
<path d="M50.6661 31.3401H50.8191C50.8497 31.3401 50.8711 31.3199 50.8696 31.2956L50.7992 30.4489C50.7992 30.4246 50.7717 30.4023 50.7426 30.4023H50.5896C50.5606 30.4023 50.5376 30.4246 50.5391 30.4489L50.6095 31.2956C50.608 31.3199 50.6355 31.3401 50.6661 31.3401Z" fill="#263238"/>
<path d="M47.0466 31.3401H47.1996C47.2286 31.3401 47.2516 31.3199 47.25 31.2956L47.1797 30.4489C47.1797 30.4246 47.1521 30.4023 47.1215 30.4023H46.9685C46.9379 30.4023 46.9165 30.4246 46.918 30.4489L46.9884 31.2956C46.9915 31.3199 47.0175 31.3401 47.0466 31.3401Z" fill="#263238"/>
</svg>
