<svg width="69" height="76" viewBox="0 0 69 76" fill="none" xmlns="http://www.w3.org/2000/svg">
<path d="M10.059 68.5009C23.4749 77.7782 45.2167 77.7782 58.6294 68.5009C72.0422 59.2236 72.0454 44.1877 58.6294 34.9103C45.2135 25.633 23.4718 25.6351 10.059 34.9103C-3.35379 44.1856 -3.35221 59.2257 10.059 68.5009Z" fill="#F5F5F5"/>
<path d="M6.07642 53.711H6.64147C6.90045 52.5662 7.07022 51.3892 7.14812 50.1986C7.27123 47.9942 6.46469 44.6197 4.98736 43.4893C3.51003 42.3588 2.70981 43.7567 3.20541 44.9519C3.70101 46.1471 5.37248 49.5467 5.39457 52.472L6.07642 53.711Z" fill="#810019"/>
<path d="M5.94068 53.7111H6.09852C6.25273 52.2675 6.25273 50.8023 6.09852 49.3587C5.84282 46.4982 5.13257 45.1693 4.47282 44.2457C4.45838 44.2255 4.43846 44.2137 4.41744 44.2129C4.39643 44.2121 4.37604 44.2224 4.36076 44.2416C4.34548 44.2607 4.33656 44.2871 4.33597 44.3149C4.33538 44.3427 4.34316 44.3697 4.3576 44.3899C4.99999 45.2863 5.6913 46.5818 5.93595 49.3817C6.0923 50.8173 6.0939 52.275 5.94068 53.7111Z" fill="white"/>
<path d="M6.1235 53.7128C5.83309 51.8991 4.51359 49.7428 3.26827 49.3708C1.82409 48.9529 1.12172 49.9622 1.32849 50.8335C1.53525 51.7048 2.67639 52.1102 3.78439 52.7934C4.15748 53.0221 4.49852 53.3329 4.79296 53.7128H6.1235Z" fill="#810019"/>
<path d="M5.5961 53.7093H5.76498C5.15416 51.6762 3.76522 50.2261 2.62881 50.0924C2.61852 50.0909 2.60812 50.0922 2.59822 50.0962C2.58832 50.1002 2.57913 50.1068 2.57118 50.1155C2.56323 50.1243 2.5567 50.1351 2.55195 50.1473C2.54721 50.1594 2.54436 50.1727 2.54358 50.1864C2.54226 50.2001 2.54309 50.2139 2.546 50.2272C2.54892 50.2404 2.55386 50.2527 2.56053 50.2633C2.56719 50.2739 2.57543 50.2825 2.58474 50.2887C2.59404 50.2949 2.60421 50.2985 2.6146 50.2992C3.68788 50.4267 4.99948 51.789 5.5961 53.7093Z" fill="white"/>
<path d="M57.0755 34.5938L58.2577 35.4149L58.3572 34.435C57.7716 32.2494 58.253 29.7712 58.8859 28.739C59.5188 27.7068 59.3973 26.9483 59.1684 26.6098C58.9396 26.2713 58.0715 26.0143 57.2129 27.3432C56.3542 28.6722 56.1569 30.2852 56.3006 31.913C56.3921 32.9305 56.7962 33.9753 57.0755 34.5938Z" fill="#810019"/>
<path opacity="0.2" d="M57.0755 34.5938L58.2577 35.4149L58.3572 34.435C57.7716 32.2494 58.253 29.7712 58.8859 28.739C59.5188 27.7068 59.3973 26.9483 59.1684 26.6098C58.9396 26.2713 58.0715 26.0143 57.2129 27.3432C56.3542 28.6722 56.1569 30.2852 56.3006 31.913C56.3921 32.9305 56.7962 33.9753 57.0755 34.5938Z" fill="black"/>
<path d="M57.5636 34.9313L57.7972 35.0943C57.7949 35.0884 57.7923 35.0828 57.7893 35.0776C57.4547 34.551 57.0222 31.9726 57.2037 30.4619C57.4278 28.596 58.1507 27.3778 58.7694 26.8617C58.777 26.8555 58.7836 26.8474 58.7887 26.8378C58.7939 26.8282 58.7975 26.8173 58.7995 26.8058C58.8014 26.7943 58.8015 26.7824 58.7999 26.7708C58.7982 26.7593 58.7949 26.7482 58.79 26.7384C58.78 26.7184 58.7645 26.7044 58.7468 26.6994C58.7291 26.6943 58.7106 26.6985 58.6953 26.7112C58.0639 27.2482 57.3 28.5082 57.068 30.4347C56.9007 31.8409 57.2353 34.0683 57.5636 34.9313Z" fill="white"/>
<path d="M58.2791 30.863C58.6248 31.985 58.6232 32.5346 58.0597 32.6495C57.5515 32.7498 56.9343 33.5668 57.5073 34.8936L60.8597 37.2213C60.8681 36.9732 60.9144 36.73 60.9958 36.5063C61.0772 36.2825 61.192 36.0829 61.3332 35.9195C61.884 35.1903 62.3923 34.6408 62.3133 33.83C62.2344 33.0193 61.7025 32.2378 61.6141 31.5316C61.5258 30.8254 61.7972 30.4221 62.3765 29.6302C62.9557 28.8383 63.4813 27.6096 62.7079 27.0497C61.9345 26.4897 61.0491 27.4487 60.6798 28.0944C60.3104 28.74 59.9727 29.0242 59.245 28.9699C58.5174 28.9156 57.9334 29.7409 58.2791 30.863Z" fill="#810019"/>
<path d="M59.2295 36.0906C59.2137 32.6471 61.0777 28.6144 62.1147 27.7995C62.13 27.7866 62.141 27.7664 62.1454 27.743C62.1498 27.7197 62.1473 27.6951 62.1384 27.6741C62.1289 27.654 62.1139 27.6395 62.0966 27.6337C62.0792 27.6279 62.0608 27.6311 62.0453 27.6428C60.9941 28.4786 59.1143 32.5134 59.0938 36.0007L59.2295 36.0906Z" fill="white"/>
<path d="M59.7279 32.5097C59.7137 32.514 59.6987 32.5118 59.6856 32.5035C59.6724 32.4951 59.6617 32.4811 59.6553 32.4637C59.3542 31.72 59.1008 30.9442 58.8977 30.1444C58.895 30.1331 58.894 30.1213 58.8948 30.1095C58.8955 30.0978 58.8981 30.0863 58.9022 30.0758C58.9063 30.0654 58.9119 30.0561 58.9187 30.0485C58.9255 30.0409 58.9334 30.0351 58.9419 30.0315C58.9504 30.028 58.9593 30.0267 58.9682 30.0277C58.9771 30.0287 58.9858 30.032 58.9937 30.0374C59.0016 30.0429 59.0086 30.0503 59.0144 30.0593C59.0201 30.0684 59.0244 30.0788 59.0271 30.0901C59.2283 30.8788 59.4786 31.6441 59.7753 32.378C59.7837 32.3994 59.7854 32.4243 59.7801 32.4474C59.7748 32.4704 59.7629 32.4898 59.7469 32.5013L59.7279 32.5097Z" fill="white"/>
<path d="M59.2809 34.62C59.268 34.6232 59.2547 34.6215 59.2424 34.6153C59.2301 34.609 59.2194 34.5983 59.2115 34.5845C59.2011 34.5645 59.1971 34.5399 59.2003 34.516C59.2036 34.4922 59.2138 34.471 59.2288 34.457C59.9085 33.8271 60.7331 33.5314 61.56 33.6212C61.578 33.6243 61.5944 33.6367 61.6055 33.6557C61.6166 33.6747 61.6215 33.6988 61.6192 33.7226C61.6169 33.7464 61.6076 33.7681 61.5932 33.7827C61.5789 33.7974 61.5607 33.804 61.5427 33.8009C60.7509 33.7212 59.9624 34.0021 59.3077 34.597C59.3001 34.607 59.2909 34.6148 59.2809 34.62Z" fill="white"/>
<path d="M39.4725 13.5883L35.6261 10.6484L31.7812 13.5883L35.6261 16.5283L39.4725 13.5883Z" fill="#F5F5F5"/>
<path d="M35.625 22.4097L39.4714 19.4698V13.5879L35.625 16.5278V22.4097Z" fill="#EBEBEB"/>
<path d="M36.3698 20.4583C36.3495 20.4588 36.3293 20.4523 36.3114 20.4395C36.2869 20.4158 36.2673 20.3841 36.2546 20.3475C36.2419 20.311 36.2365 20.2707 36.2388 20.2306V19.6037V19.5577H36.2625L36.6318 19.2715V19.9673C36.6313 20.0569 36.6146 20.145 36.583 20.2243C36.5514 20.3036 36.5059 20.3716 36.4503 20.4228C36.4264 20.4441 36.3986 20.4564 36.3698 20.4583ZM36.2988 19.6497V20.2264C36.2962 20.2532 36.2987 20.2805 36.3061 20.3057C36.3136 20.3309 36.3257 20.3532 36.3414 20.3706C36.3542 20.3781 36.3683 20.3809 36.3822 20.3787C36.3961 20.3765 36.4093 20.3694 36.4203 20.358C36.4676 20.3144 36.5065 20.2567 36.5339 20.1895C36.5613 20.1224 36.5765 20.0477 36.5782 19.9715V19.9213H36.4408L36.414 19.6768L36.2988 19.6497ZM36.4882 19.8419H36.5734V19.4136L36.3525 19.5828L36.4614 19.61L36.4882 19.8419Z" fill="white"/>
<path d="M36.4363 20.9573C36.4283 20.9573 36.4207 20.9531 36.4151 20.9457C36.4095 20.9382 36.4063 20.9281 36.4063 20.9176V20.3952C36.4061 20.3899 36.4067 20.3846 36.4081 20.3797C36.4095 20.3747 36.4117 20.3702 36.4146 20.3665C36.4174 20.3627 36.4208 20.3598 36.4245 20.3579C36.4283 20.356 36.4323 20.3552 36.4363 20.3555C36.4442 20.3555 36.4519 20.3597 36.4575 20.3672C36.4631 20.3746 36.4663 20.3847 36.4663 20.3952V20.9092C36.4669 20.9151 36.4667 20.921 36.4655 20.9267C36.4643 20.9323 36.4622 20.9376 36.4594 20.9422C36.4566 20.9467 36.453 20.9504 36.4491 20.953C36.4451 20.9556 36.4407 20.9571 36.4363 20.9573Z" fill="white"/>
<path d="M36.2643 21.0878C36.259 21.0878 36.2538 21.0858 36.2494 21.0821C36.2449 21.0784 36.2413 21.0732 36.239 21.0669C36.2368 21.0627 36.2354 21.0578 36.2347 21.0527C36.2341 21.0476 36.2343 21.0424 36.2354 21.0374C36.2364 21.0325 36.2383 21.0278 36.2408 21.0239C36.2433 21.02 36.2465 21.0169 36.25 21.0147L36.5925 20.7514C36.596 20.7488 36.5997 20.7471 36.6037 20.7464C36.6076 20.7458 36.6115 20.7461 36.6154 20.7475C36.6192 20.7488 36.6227 20.7512 36.6259 20.7543C36.629 20.7575 36.6316 20.7615 36.6336 20.7661C36.6372 20.7753 36.638 20.786 36.636 20.796C36.634 20.8061 36.6292 20.8148 36.6225 20.8204L36.2785 21.0816L36.2643 21.0878Z" fill="white"/>
<path d="M37.486 20.1855C37.4752 20.1899 37.4637 20.1899 37.4529 20.1855C37.4414 20.1753 37.4321 20.1612 37.426 20.1447C37.4199 20.1282 37.4172 20.1098 37.4182 20.0915V19.9849C37.4179 19.9798 37.4185 19.9747 37.4199 19.9699C37.4212 19.9651 37.4232 19.9607 37.4259 19.957C37.4286 19.9533 37.4318 19.9503 37.4353 19.9483C37.4389 19.9463 37.4427 19.9452 37.4466 19.9452C37.4506 19.9449 37.4546 19.9457 37.4583 19.9476C37.4621 19.9495 37.4655 19.9524 37.4683 19.9562C37.4711 19.9599 37.4733 19.9644 37.4747 19.9694C37.4762 19.9743 37.4768 19.9796 37.4766 19.9849V20.0727C37.4766 20.0894 37.4766 20.0978 37.4766 20.0978C37.4766 20.0978 37.486 20.0978 37.4955 20.0978C37.5139 20.0757 37.5284 20.0485 37.5379 20.0182C37.5475 19.9878 37.5518 19.9551 37.5507 19.9222V19.2369C37.5507 19.2318 37.5515 19.2267 37.553 19.222C37.5546 19.2173 37.5568 19.213 37.5596 19.2095C37.5624 19.206 37.5657 19.2033 37.5694 19.2015C37.573 19.1998 37.5769 19.199 37.5807 19.1993C37.5883 19.1993 37.5955 19.2032 37.6008 19.2103C37.6061 19.2173 37.6091 19.2269 37.6091 19.2369V19.9348C37.6103 19.9813 37.6034 20.0275 37.5889 20.0699C37.5744 20.1123 37.5527 20.1497 37.5255 20.1792C37.5128 20.1846 37.4994 20.1867 37.486 20.1855Z" fill="white"/>
<path d="M37.1758 19.5766V19.5097C37.1831 19.3357 37.2213 19.1664 37.287 19.0154C37.3528 18.8645 37.4445 18.7361 37.5546 18.6405C37.594 18.5966 37.6426 18.5698 37.6939 18.5638C37.7452 18.5578 37.7967 18.5728 37.8413 18.6068C37.8859 18.6407 37.9216 18.6921 37.9434 18.7538C37.9653 18.8156 37.9722 18.8847 37.9634 18.9518V18.9748L37.1758 19.5766ZM37.7314 18.6489C37.6792 18.651 37.6284 18.672 37.5846 18.7095C37.4908 18.7913 37.4114 18.8987 37.3515 19.0245C37.2916 19.1502 37.2527 19.2914 37.2373 19.4387L37.9034 18.931C37.9059 18.8816 37.8988 18.8323 37.8828 18.7877C37.8668 18.743 37.8423 18.7046 37.8119 18.676C37.7873 18.6576 37.7595 18.6483 37.7314 18.6489Z" fill="white"/>
<path d="M38.5417 19.3831C38.534 19.3831 38.5266 19.3792 38.521 19.3722C38.5155 19.3652 38.5121 19.3556 38.5117 19.3455V18.0124C38.5117 18.0018 38.5149 17.9917 38.5205 17.9843C38.5261 17.9768 38.5338 17.9727 38.5417 17.9727C38.5497 17.9727 38.5573 17.9768 38.5629 17.9843C38.5685 17.9917 38.5717 18.0018 38.5717 18.0124V19.3455C38.5713 19.3556 38.568 19.3652 38.5624 19.3722C38.5568 19.3792 38.5494 19.3831 38.5417 19.3831Z" fill="white"/>
<path d="M38.4629 18.3135H38.4518C38.4482 18.3114 38.4449 18.3084 38.4421 18.3047C38.4394 18.301 38.4372 18.2965 38.4357 18.2917C38.4343 18.2868 38.4335 18.2816 38.4336 18.2764C38.4336 18.2712 38.4345 18.266 38.436 18.2612L38.5418 17.9395L38.6586 18.1191C38.6611 18.123 38.663 18.1274 38.6642 18.1323C38.6653 18.1371 38.6658 18.1421 38.6655 18.1472C38.6652 18.1522 38.6642 18.1571 38.6624 18.1617C38.6607 18.1662 38.6583 18.1702 38.6554 18.1735C38.6525 18.1768 38.6492 18.1793 38.6455 18.1808C38.6419 18.1824 38.6381 18.183 38.6343 18.1826C38.6305 18.1822 38.6267 18.1809 38.6233 18.1786C38.6199 18.1763 38.6169 18.1731 38.6144 18.1693L38.5576 18.0857L38.4897 18.2947C38.487 18.3008 38.4831 18.3059 38.4783 18.3092C38.4736 18.3125 38.4682 18.314 38.4629 18.3135Z" fill="white"/>
<path d="M38.8222 19.1774C38.8145 19.1769 38.8073 19.1724 38.802 19.1651C38.7967 19.1577 38.7937 19.1479 38.7938 19.1377V17.8046C38.7927 17.7988 38.7927 17.7927 38.7937 17.7869C38.7947 17.781 38.7967 17.7756 38.7995 17.7709C38.8023 17.7662 38.8058 17.7624 38.8099 17.7598C38.814 17.7572 38.8184 17.7559 38.823 17.7559C38.8275 17.7559 38.8319 17.7572 38.836 17.7598C38.8401 17.7624 38.8436 17.7662 38.8465 17.7709C38.8493 17.7756 38.8512 17.781 38.8522 17.7869C38.8532 17.7927 38.8532 17.7988 38.8522 17.8046V19.1377C38.8522 19.1482 38.849 19.1583 38.8434 19.1658C38.8378 19.1732 38.8301 19.1774 38.8222 19.1774Z" fill="white"/>
<path d="M38.7363 18.1064H38.7253C38.7216 18.1044 38.7183 18.1014 38.7156 18.0977C38.7128 18.0939 38.7106 18.0895 38.7092 18.0847C38.7077 18.0798 38.707 18.0746 38.707 18.0694C38.7071 18.0642 38.7079 18.059 38.7095 18.0542L38.8152 17.7324L38.932 17.9121C38.9372 17.9195 38.9401 17.9292 38.9401 17.9393C38.9401 17.9494 38.9372 17.9591 38.932 17.9664C38.9262 17.9735 38.9186 17.9774 38.9107 17.9774C38.9028 17.9774 38.8952 17.9735 38.8894 17.9664L38.8342 17.8808L38.7663 18.0897C38.7631 18.096 38.7585 18.101 38.7532 18.1039C38.7478 18.1069 38.742 18.1078 38.7363 18.1064Z" fill="white"/>
<path d="M35.6277 22.4097L31.7812 19.4698L31.7828 13.5879L35.6277 16.5278V22.4097Z" fill="#E0E0E0"/>
<path d="M33.9122 15.2176L37.7555 12.2756L37.3214 11.9434L33.4766 14.8854L33.9122 15.2176Z" fill="white"/>
<path d="M32.3629 16.9596L33.7408 18.0043C33.82 18.0734 33.886 18.1661 33.9334 18.2749C33.9808 18.3838 34.0084 18.5057 34.0138 18.6312V19.7553C34.0138 19.9872 33.8907 20.0813 33.7408 19.9643L32.3629 18.9195C32.2836 18.8505 32.2175 18.7579 32.1701 18.649C32.1227 18.5402 32.0952 18.4181 32.0898 18.2927V17.1685C32.0898 16.9366 32.213 16.8447 32.3629 16.9596Z" fill="#810019"/>
<path d="M32.2578 17.2422L32.3099 17.284V18.5314L32.2578 18.4917V17.2422Z" fill="#810019"/>
<path d="M32.4727 17.4043L32.5626 17.4753V18.7228L32.4727 18.6538V17.4043Z" fill="#810019"/>
<path d="M32.6836 17.5684L32.7357 17.6081V18.8576L32.6836 18.8179V17.5684Z" fill="#810019"/>
<path d="M32.8438 17.6895L32.9495 17.7709V19.0205L32.8438 18.9369V17.6895Z" fill="#810019"/>
<path d="M33.1094 17.8926L33.163 17.9323V19.1818L33.1094 19.14V17.8926Z" fill="#810019"/>
<path d="M33.2633 18.0078L33.3738 18.0956V19.343L33.2617 19.2552L33.2633 18.0078Z" fill="#810019"/>
<path d="M33.5352 18.2188L33.5872 18.2585V19.5059L33.5352 19.4662V18.2188Z" fill="#810019"/>
<path d="M33.6562 18.3086L33.6831 18.3295V19.5769L33.6562 19.5581V18.3086Z" fill="#810019"/>
<path d="M33.4375 18.1484L33.4628 18.1693V19.4168L33.4375 19.3979V18.1484Z" fill="#810019"/>
<path d="M33.0078 17.8184L33.0331 17.8372V19.0867L33.0078 19.0658V17.8184Z" fill="#810019"/>
<path d="M32.7734 17.6367L32.8003 17.6576V18.9071L32.7734 18.8862V17.6367Z" fill="#810019"/>
<path d="M32.6055 17.5156L32.6323 17.5365V18.786L32.6055 18.7651V17.5156Z" fill="#810019"/>
<path d="M32.3789 17.3301L32.4057 17.351V18.6005L32.3789 18.5796V17.3301Z" fill="#810019"/>
<path d="M33.75 18.3789L33.8021 18.4186V19.6681L33.75 19.6284V18.3789Z" fill="#810019"/>
<path d="M34.3432 12.6085L29.8544 9.17969L25.3672 12.6085L29.8544 16.0395L34.3432 12.6085Z" fill="#F5F5F5"/>
<path d="M27.934 14.5677L32.4229 11.1389L31.9872 10.8066L27.5 14.2355L27.934 14.5677Z" fill="white"/>
<path d="M29.8555 26.818L34.3443 23.3892V12.6074L29.8555 16.0384V26.818Z" fill="#EBEBEB"/>
<path d="M30.5966 24.8764C30.576 24.8769 30.5558 24.8696 30.5382 24.8555C30.5133 24.8322 30.4935 24.8006 30.4807 24.7639C30.468 24.7273 30.4628 24.6868 30.4656 24.6466V24.0197V23.9738H30.4908L30.8586 23.6875V24.3833C30.8578 24.4728 30.841 24.5609 30.8094 24.6401C30.7778 24.7193 30.7325 24.7874 30.6771 24.8388C30.6534 24.8609 30.6255 24.8739 30.5966 24.8764ZM30.5256 24.0678V24.6445C30.5229 24.6713 30.5255 24.6986 30.5329 24.7238C30.5404 24.749 30.5525 24.7713 30.5682 24.7887C30.581 24.7962 30.5951 24.799 30.609 24.7968C30.6229 24.7946 30.636 24.7875 30.6471 24.7761C30.6944 24.7325 30.7333 24.6748 30.7607 24.6076C30.7881 24.5405 30.8032 24.4658 30.8049 24.3896V24.3394H30.6676L30.6408 24.0949L30.5256 24.0678ZM30.715 24.26H30.8081V23.8317L30.5871 24.003L30.696 24.0281L30.715 24.26Z" fill="white"/>
<path d="M30.6628 25.3675C30.6548 25.3675 30.6472 25.3633 30.6416 25.3558C30.636 25.3484 30.6328 25.3383 30.6328 25.3278V24.8033C30.6328 24.7982 30.6336 24.7931 30.6351 24.7884C30.6366 24.7837 30.6389 24.7795 30.6417 24.7759C30.6445 24.7724 30.6478 24.7697 30.6514 24.7679C30.6551 24.7662 30.6589 24.7654 30.6628 24.7657C30.6705 24.7657 30.6779 24.7696 30.6835 24.7766C30.689 24.7836 30.6924 24.7931 30.6928 24.8033V25.3278C30.6924 25.3381 30.6891 25.3479 30.6836 25.3553C30.678 25.3626 30.6706 25.3669 30.6628 25.3675Z" fill="white"/>
<path d="M30.4936 25.5037C30.4885 25.5039 30.4835 25.5022 30.479 25.4989C30.4746 25.4956 30.4709 25.4908 30.4683 25.4849C30.4647 25.4757 30.4639 25.465 30.4659 25.4549C30.468 25.4449 30.4728 25.4362 30.4794 25.4306L30.8219 25.1694C30.8253 25.1668 30.8291 25.1651 30.833 25.1644C30.8369 25.1637 30.8409 25.1641 30.8447 25.1654C30.8485 25.1668 30.8521 25.1691 30.8552 25.1723C30.8583 25.1755 30.861 25.1795 30.8629 25.184C30.8649 25.1884 30.8661 25.1932 30.8666 25.1983C30.8671 25.2033 30.8668 25.2084 30.8658 25.2133C30.8648 25.2181 30.863 25.2227 30.8606 25.2266C30.8582 25.2306 30.8553 25.2339 30.8519 25.2363L30.5078 25.4995C30.5035 25.5029 30.4985 25.5043 30.4936 25.5037Z" fill="white"/>
<path d="M31.7165 24.5941C31.705 24.5941 31.6936 24.5905 31.6834 24.5836C31.6718 24.5734 31.6626 24.5593 31.6565 24.5428C31.6504 24.5263 31.6477 24.5079 31.6486 24.4896V24.3809C31.6486 24.3758 31.6494 24.3708 31.6509 24.3661C31.6525 24.3613 31.6547 24.3571 31.6575 24.3536C31.6603 24.3501 31.6636 24.3473 31.6673 24.3456C31.6709 24.3438 31.6748 24.343 31.6786 24.3433C31.6823 24.3433 31.686 24.3443 31.6895 24.3462C31.6929 24.3481 31.6961 24.3509 31.6987 24.3543C31.7013 24.3578 31.7034 24.362 31.7049 24.3665C31.7063 24.3711 31.707 24.376 31.707 24.3809V24.4896C31.707 24.5042 31.707 24.5126 31.707 24.5147C31.707 24.5168 31.7165 24.5147 31.726 24.5147C31.7444 24.4922 31.7589 24.4646 31.7684 24.434C31.778 24.4033 31.7823 24.3702 31.7812 24.3371V23.6413C31.7812 23.6307 31.7844 23.6206 31.79 23.6132C31.7956 23.6057 31.8032 23.6016 31.8112 23.6016C31.819 23.6021 31.8264 23.6064 31.832 23.6138C31.8375 23.6211 31.8408 23.6309 31.8412 23.6413V24.3371C31.8427 24.3838 31.8357 24.4304 31.8209 24.4729C31.8061 24.5155 31.7838 24.5527 31.756 24.5815C31.7437 24.5896 31.7302 24.5939 31.7165 24.5941Z" fill="white"/>
<path d="M31.4062 23.9887V23.9198C31.4137 23.7461 31.4519 23.5771 31.5177 23.4265C31.5835 23.2759 31.6751 23.1478 31.7851 23.0526C31.8245 23.0087 31.8731 22.982 31.9244 22.9759C31.9757 22.9699 32.0271 22.9849 32.0718 23.0189C32.1164 23.0529 32.1521 23.1042 32.1739 23.1659C32.1957 23.2277 32.2027 23.2968 32.1938 23.364V23.3869L31.4062 23.9887ZM31.9618 23.0589C31.9098 23.062 31.8592 23.0829 31.815 23.1195C31.7211 23.2016 31.6415 23.3093 31.5817 23.4354C31.5218 23.5615 31.4829 23.7032 31.4678 23.8508L32.1339 23.3431C32.1362 23.2935 32.1291 23.2439 32.113 23.199C32.097 23.154 32.0727 23.1152 32.0423 23.0861C32.0176 23.0683 31.9899 23.0589 31.9618 23.0589Z" fill="white"/>
<path d="M32.78 23.7953C32.772 23.7953 32.7644 23.7911 32.7588 23.7837C32.7532 23.7762 32.75 23.7661 32.75 23.7556V22.4225C32.75 22.412 32.7532 22.4019 32.7588 22.3944C32.7644 22.387 32.772 22.3828 32.78 22.3828C32.7879 22.3828 32.7956 22.387 32.8012 22.3944C32.8068 22.4019 32.81 22.412 32.81 22.4225V23.7556C32.81 23.7661 32.8068 23.7762 32.8012 23.7837C32.7956 23.7911 32.7879 23.7953 32.78 23.7953Z" fill="white"/>
<path d="M32.6933 22.7254H32.6822C32.6786 22.7236 32.6754 22.7208 32.6726 22.7173C32.6699 22.7138 32.6677 22.7095 32.6662 22.7048C32.6648 22.7001 32.664 22.6951 32.6641 22.69C32.6641 22.685 32.6649 22.6799 32.6664 22.6753L32.7722 22.3535L32.889 22.5332C32.894 22.541 32.8965 22.5511 32.8959 22.5612C32.8953 22.5714 32.8917 22.5809 32.8858 22.5875C32.88 22.5942 32.8724 22.5975 32.8647 22.5967C32.857 22.5959 32.8498 22.5911 32.8448 22.5834L32.788 22.4977L32.7201 22.7066C32.7174 22.7128 32.7135 22.7179 32.7087 22.7212C32.704 22.7245 32.6986 22.726 32.6933 22.7254Z" fill="white"/>
<path d="M33.0519 23.5862C33.0444 23.5862 33.0371 23.5823 33.0318 23.5752C33.0265 23.5682 33.0235 23.5586 33.0235 23.5486V22.2155C33.0233 22.2104 33.0238 22.2053 33.0252 22.2005C33.0265 22.1957 33.0286 22.1913 33.0312 22.1876C33.0339 22.1839 33.0371 22.1809 33.0406 22.1789C33.0442 22.1769 33.048 22.1758 33.0519 22.1758C33.0559 22.1755 33.0599 22.1764 33.0636 22.1782C33.0674 22.1801 33.0708 22.183 33.0736 22.1868C33.0764 22.1905 33.0786 22.195 33.0801 22.2C33.0815 22.205 33.0821 22.2102 33.0819 22.2155V23.5486C33.0819 23.5538 33.0811 23.5588 33.0796 23.5635C33.0781 23.5682 33.0758 23.5725 33.073 23.576C33.0702 23.5795 33.0669 23.5822 33.0632 23.584C33.0596 23.5858 33.0558 23.5865 33.0519 23.5862Z" fill="white"/>
<path d="M32.9679 22.5186H32.9553C32.9482 22.514 32.9427 22.5061 32.9398 22.4965C32.9368 22.4868 32.9367 22.4761 32.9395 22.4663L33.0453 22.1445L33.1636 22.3242C33.1685 22.3318 33.1712 22.3414 33.1712 22.3514C33.1712 22.3614 33.1685 22.371 33.1636 22.3786C33.1608 22.3823 33.1575 22.3852 33.1539 22.3873C33.1502 22.3893 33.1463 22.3903 33.1423 22.3903C33.1384 22.3903 33.1344 22.3893 33.1308 22.3873C33.1271 22.3852 33.1238 22.3823 33.121 22.3786L33.0658 22.2929L32.9979 22.5018C32.9948 22.5084 32.9903 22.5134 32.9849 22.5164C32.9795 22.5194 32.9736 22.5202 32.9679 22.5186Z" fill="white"/>
<path d="M29.8544 26.818L25.3672 23.3892V12.6074L29.8544 16.0384V26.818Z" fill="#E0E0E0"/>
<path d="M26.2809 21.1486L27.6572 22.1933C27.7368 22.2621 27.8031 22.3546 27.8508 22.4635C27.8985 22.5723 27.9263 22.6945 27.9318 22.8202V23.9464C27.9318 24.1762 27.8087 24.2703 27.6572 24.1553L26.2809 23.1106C26.2013 23.042 26.1351 22.9494 26.0876 22.8405C26.0401 22.7316 26.0128 22.6093 26.0078 22.4837V21.3596C26.0078 21.1172 26.1309 21.0336 26.2809 21.1486Z" fill="#F5F5F5"/>
<path d="M26.1758 21.4277L26.2279 21.4695V22.7169L26.1758 22.6772V21.4277Z" fill="#E0E0E0"/>
<path d="M26.3867 21.5898L26.4767 21.6609V22.9104L26.3867 22.8394V21.5898Z" fill="#E0E0E0"/>
<path d="M26.6016 21.7539L26.6552 21.7936L26.6536 23.0431L26.6016 23.0034V21.7539Z" fill="#E0E0E0"/>
<path d="M26.7617 21.875L26.8659 21.9565V23.206L26.7617 23.1224V21.875Z" fill="#E0E0E0"/>
<path d="M27.0273 22.0801L27.0794 22.1198V23.3693L27.0273 23.3275V22.0801Z" fill="#E0E0E0"/>
<path d="M27.1797 22.1953L27.2918 22.2831V23.5305L27.1797 23.4427V22.1953Z" fill="#E0E0E0"/>
<path d="M27.4531 22.4023L27.5052 22.4441V23.6916L27.4531 23.6519V22.4023Z" fill="#E0E0E0"/>
<path d="M27.5742 22.4961L27.6011 22.517V23.7665L27.5742 23.7456V22.4961Z" fill="#E0E0E0"/>
<path d="M27.3555 22.3379L27.3807 22.3588V23.6062L27.3555 23.5874V22.3379Z" fill="#E0E0E0"/>
<path d="M26.9258 22.0039L26.951 22.0227V23.2722L26.9258 23.2513V22.0039Z" fill="#E0E0E0"/>
<path d="M26.6914 21.8262L26.7167 21.8471V23.0966L26.6914 23.0757V21.8262Z" fill="#E0E0E0"/>
<path d="M26.5234 21.7012L26.5503 21.7221V22.9716L26.5234 22.9507V21.7012Z" fill="#E0E0E0"/>
<path d="M26.293 21.5176L26.3198 21.5385V22.788L26.293 22.7671V21.5176Z" fill="#E0E0E0"/>
<path d="M27.6641 22.5684L27.7161 22.6081V23.8576L27.6641 23.8179V22.5684Z" fill="#E0E0E0"/>
<path d="M27.5 15.6279L27.934 15.9602V14.5686L27.5 14.2363V15.6279Z" fill="#F0F0F0"/>
<path d="M20.8804 23.8786L17.6747 21.4297L13.1875 24.8585L16.3931 27.3095L20.8804 23.8786Z" fill="#F5F5F5"/>
<path d="M16.3906 37.1095L20.8779 33.6807V23.8789L16.3906 27.3098V37.1095Z" fill="#EBEBEB"/>
<path d="M17.134 35.1596C17.1139 35.1602 17.0942 35.1529 17.0772 35.1387C17.0524 35.1153 17.0327 35.0836 17.0199 35.047C17.0072 35.0104 17.0019 34.97 17.0046 34.9298V34.3029V34.257H17.0283L17.3976 33.9707V34.6665C17.3968 34.7561 17.3799 34.8441 17.3484 34.9233C17.3168 35.0025 17.2715 35.0706 17.2161 35.122C17.1917 35.1439 17.1634 35.1569 17.134 35.1596ZM17.0646 34.351V34.9277C17.0616 34.9545 17.064 34.982 17.0715 35.0072C17.0789 35.0325 17.0912 35.0548 17.1072 35.0719C17.1201 35.0786 17.134 35.081 17.1478 35.0788C17.1616 35.0766 17.1748 35.0699 17.1861 35.0593C17.2334 35.0157 17.2722 34.958 17.2997 34.8908C17.3271 34.8237 17.3422 34.749 17.3439 34.6728V34.6226H17.2066L17.1798 34.3782L17.0646 34.351ZM17.254 34.5432H17.3392V34.1128L17.1182 34.2841L17.2271 34.3092L17.254 34.5432Z" fill="white"/>
<path d="M17.2019 35.6585C17.1939 35.6585 17.1863 35.6543 17.1807 35.6468C17.175 35.6394 17.1719 35.6293 17.1719 35.6188V35.0943C17.1719 35.0892 17.1727 35.0841 17.1742 35.0794C17.1757 35.0747 17.1779 35.0705 17.1807 35.0669C17.1836 35.0634 17.1869 35.0607 17.1905 35.0589C17.1941 35.0572 17.198 35.0564 17.2019 35.0567C17.2094 35.0567 17.2166 35.0607 17.222 35.0677C17.2273 35.0748 17.2303 35.0843 17.2303 35.0943V35.6188C17.2303 35.6289 17.2273 35.6387 17.2221 35.6461C17.2168 35.6535 17.2095 35.6579 17.2019 35.6585Z" fill="white"/>
<path d="M17.0303 35.7869C17.0252 35.7873 17.0201 35.7857 17.0156 35.7824C17.0112 35.7791 17.0075 35.7741 17.0051 35.7681C17.0028 35.7638 17.0013 35.7589 17.0005 35.7538C16.9998 35.7486 16.9998 35.7433 17.0007 35.7382C17.0016 35.7331 17.0033 35.7282 17.0057 35.724C17.0081 35.7198 17.0111 35.7163 17.0146 35.7138L17.3586 35.4526C17.3621 35.45 17.3658 35.4483 17.3698 35.4476C17.3737 35.4469 17.3776 35.4473 17.3815 35.4486C17.3853 35.45 17.3888 35.4523 17.392 35.4555C17.3951 35.4587 17.3977 35.4627 17.3997 35.4672C17.4016 35.4716 17.4029 35.4764 17.4034 35.4815C17.4039 35.4865 17.4036 35.4916 17.4026 35.4965C17.4015 35.5013 17.3998 35.5059 17.3974 35.5098C17.395 35.5138 17.392 35.5171 17.3886 35.5195L17.0446 35.7827C17.0403 35.7861 17.0353 35.7875 17.0303 35.7869Z" fill="white"/>
<path d="M18.2517 34.8863C18.2401 34.8864 18.2288 34.8828 18.2185 34.8759C18.207 34.8656 18.1977 34.8515 18.1916 34.835C18.1855 34.8185 18.1828 34.8002 18.1838 34.7818V34.6732C18.1838 34.6632 18.1868 34.6536 18.1921 34.6466C18.1974 34.6395 18.2047 34.6356 18.2122 34.6356C18.2161 34.6353 18.2199 34.6361 18.2236 34.6378C18.2272 34.6396 18.2305 34.6423 18.2333 34.6458C18.2361 34.6494 18.2384 34.6536 18.2399 34.6583C18.2414 34.663 18.2422 34.6681 18.2422 34.6732V34.7818C18.2422 34.7965 18.2422 34.8048 18.2422 34.8069C18.2422 34.809 18.2517 34.8069 18.2611 34.8069C18.2792 34.7841 18.2935 34.7565 18.303 34.7259C18.3125 34.6953 18.3171 34.6624 18.3164 34.6293V33.9335C18.3153 33.9277 18.3153 33.9216 18.3163 33.9158C18.3173 33.91 18.3193 33.9045 18.3221 33.8998C18.3249 33.8951 18.3284 33.8913 18.3325 33.8887C18.3366 33.8861 18.341 33.8848 18.3456 33.8848C18.3501 33.8848 18.3545 33.8861 18.3586 33.8887C18.3627 33.8913 18.3663 33.8951 18.3691 33.8998C18.3719 33.9045 18.3738 33.91 18.3748 33.9158C18.3758 33.9216 18.3758 33.9277 18.3748 33.9335V34.6293C18.3761 34.6759 18.3692 34.7222 18.3547 34.7646C18.3402 34.807 18.3184 34.8444 18.2911 34.8738C18.2789 34.8819 18.2654 34.8862 18.2517 34.8863Z" fill="white"/>
<path d="M17.9414 34.2809V34.212C17.9489 34.0383 17.9871 33.8693 18.0528 33.7187C18.1186 33.5681 18.2102 33.44 18.3202 33.3448C18.3594 33.3005 18.408 33.2733 18.4594 33.267C18.5107 33.2608 18.5623 33.2757 18.607 33.3099C18.6516 33.344 18.6872 33.3957 18.7088 33.4577C18.7303 33.5197 18.7369 33.589 18.7274 33.6562V33.6791L17.9414 34.2809ZM18.497 33.3511C18.4449 33.3542 18.3944 33.3751 18.3502 33.4117C18.2563 33.4938 18.1767 33.6015 18.1168 33.7276C18.0569 33.8537 18.0181 33.9954 18.003 34.143L18.669 33.6332C18.6712 33.5839 18.664 33.5347 18.648 33.4901C18.632 33.4456 18.6077 33.4071 18.5775 33.3782C18.5534 33.3601 18.5263 33.35 18.4986 33.349L18.497 33.3511Z" fill="white"/>
<path d="M19.3151 34.0844C19.3072 34.0844 19.2996 34.0802 19.2939 34.0727C19.2883 34.0653 19.2852 34.0552 19.2852 34.0447V32.7116C19.2852 32.701 19.2883 32.6909 19.2939 32.6835C19.2996 32.6761 19.3072 32.6719 19.3151 32.6719C19.3231 32.6719 19.3307 32.6761 19.3363 32.6835C19.342 32.6909 19.3451 32.701 19.3451 32.7116V34.0447C19.3451 34.0552 19.342 34.0653 19.3363 34.0727C19.3307 34.0802 19.3231 34.0844 19.3151 34.0844Z" fill="white"/>
<path d="M19.2284 33.0262H19.2174C19.2138 33.0244 19.2105 33.0216 19.2078 33.0181C19.2051 33.0145 19.2029 33.0103 19.2014 33.0056C19.1999 33.0009 19.1992 32.9959 19.1992 32.9908C19.1993 32.9857 19.2001 32.9807 19.2016 32.9761L19.3073 32.6543L19.4241 32.834C19.4292 32.8418 19.4317 32.8518 19.4311 32.862C19.4305 32.8722 19.4268 32.8817 19.421 32.8883C19.4181 32.8916 19.4147 32.8941 19.4111 32.8957C19.4075 32.8973 19.4036 32.8979 19.3998 32.8975C19.3921 32.8967 19.385 32.8919 19.38 32.8841L19.3231 32.7985L19.2553 33.0074C19.2526 33.0136 19.2487 33.0186 19.2439 33.022C19.2392 33.0253 19.2338 33.0268 19.2284 33.0262Z" fill="white"/>
<path d="M19.5886 33.8773C19.5809 33.8773 19.5735 33.8734 19.5679 33.8664C19.5623 33.8594 19.559 33.8498 19.5586 33.8396V32.5066C19.5586 32.496 19.5618 32.4859 19.5674 32.4785C19.573 32.471 19.5806 32.4669 19.5886 32.4669C19.5926 32.4666 19.5966 32.4674 19.6003 32.4693C19.6041 32.4711 19.6075 32.4741 19.6103 32.4778C19.6131 32.4816 19.6153 32.4861 19.6168 32.491C19.6182 32.496 19.6188 32.5013 19.6186 32.5066V33.8396C19.6186 33.8448 19.6178 33.8498 19.6163 33.8545C19.6147 33.8592 19.6125 33.8635 19.6097 33.867C19.6069 33.8705 19.6036 33.8733 19.5999 33.875C19.5963 33.8768 19.5924 33.8775 19.5886 33.8773Z" fill="white"/>
<path d="M19.5019 32.8172C19.4983 32.819 19.4944 32.819 19.4908 32.8172C19.4872 32.8154 19.484 32.8126 19.4812 32.8091C19.4785 32.8056 19.4763 32.8013 19.4748 32.7966C19.4734 32.7919 19.4726 32.7869 19.4727 32.7818C19.4727 32.7768 19.4735 32.7717 19.475 32.7671L19.5808 32.4453L19.6976 32.625C19.7028 32.6324 19.7057 32.6421 19.7057 32.6522C19.7057 32.6623 19.7028 32.672 19.6976 32.6793C19.6948 32.6831 19.6915 32.686 19.6878 32.688C19.6842 32.6901 19.6802 32.6911 19.6763 32.6911C19.6723 32.6911 19.6684 32.6901 19.6647 32.688C19.6611 32.686 19.6578 32.6831 19.655 32.6793L19.5997 32.5937L19.5319 32.8026C19.5284 32.8085 19.5238 32.8131 19.5185 32.8157C19.5132 32.8182 19.5074 32.8188 19.5019 32.8172Z" fill="white"/>
<path d="M16.3931 37.11L13.1875 34.6612V24.8594L16.3931 27.3103V37.11Z" fill="#E0E0E0"/>
<path d="M14.6758 27.3916L15.1098 27.7238V26.3322L14.6758 26V27.3916Z" fill="#F5F5F5"/>
<path d="M15.1098 26.3315L19.5986 22.9006L19.163 22.5684L14.6758 25.9993L15.1098 26.3315Z" fill="white"/>
<path d="M15.1096 32.2096L9.34075 27.8008L3.57031 32.2096L9.34075 36.6205L15.1096 32.2096Z" fill="#F5F5F5"/>
<path d="M9.33984 42.4997L15.1087 38.0909V32.209L9.33984 36.6199V42.4997Z" fill="#EBEBEB"/>
<path d="M10.0792 40.5504C10.0593 40.5499 10.0397 40.5427 10.0224 40.5295C9.99776 40.5059 9.97812 40.4742 9.9654 40.4376C9.95268 40.401 9.94731 40.3607 9.94982 40.3205V39.6937V39.6477H9.9735L10.3428 39.3594V40.0573C10.3418 40.1465 10.3248 40.2341 10.2933 40.3129C10.2617 40.3917 10.2165 40.4595 10.1613 40.5107C10.137 40.5331 10.1087 40.5468 10.0792 40.5504ZM10.0082 39.7418V40.3184C10.0054 40.345 10.0079 40.372 10.0153 40.397C10.0228 40.4219 10.035 40.4438 10.0508 40.4605C10.0638 40.4684 10.078 40.4715 10.0921 40.4697C10.1063 40.4678 10.1198 40.4611 10.1313 40.4501C10.1784 40.4062 10.2172 40.3484 10.2446 40.2814C10.272 40.2143 10.2872 40.1397 10.2892 40.0635V40.0113H10.1471L10.1203 39.7668L10.0082 39.7418ZM10.1976 39.934H10.2892V39.5056L10.0698 39.677L10.1787 39.7021L10.1976 39.934Z" fill="white"/>
<path d="M10.1464 41.0464C10.1427 41.0464 10.139 41.0454 10.1355 41.0435C10.1321 41.0416 10.1289 41.0388 10.1263 41.0353C10.1237 41.0319 10.1216 41.0277 10.1201 41.0232C10.1187 41.0186 10.118 41.0137 10.118 41.0088V40.4843C10.1169 40.4785 10.1169 40.4724 10.1179 40.4666C10.1189 40.4607 10.1209 40.4553 10.1237 40.4506C10.1265 40.4459 10.1301 40.4421 10.1341 40.4395C10.1382 40.4369 10.1427 40.4355 10.1472 40.4355C10.1517 40.4355 10.1562 40.4369 10.1602 40.4395C10.1643 40.4421 10.1679 40.4459 10.1707 40.4506C10.1735 40.4553 10.1755 40.4607 10.1764 40.4666C10.1774 40.4724 10.1774 40.4785 10.1764 40.4843V41.0088C10.1764 41.0139 10.1756 41.0189 10.1741 41.0236C10.1725 41.0284 10.1703 41.0326 10.1675 41.0361C10.1647 41.0396 10.1614 41.0424 10.1577 41.0441C10.1541 41.0459 10.1502 41.0467 10.1464 41.0464Z" fill="white"/>
<path d="M9.97343 41.1769C9.96711 41.1764 9.96107 41.1732 9.95619 41.1679C9.95131 41.1625 9.94783 41.1553 9.94626 41.1472C9.94468 41.1391 9.94508 41.1305 9.94741 41.1227C9.94974 41.1149 9.95388 41.1083 9.95922 41.1038L10.3033 40.8426C10.3064 40.8396 10.31 40.8376 10.3138 40.8366C10.3176 40.8356 10.3215 40.8357 10.3252 40.8369C10.3289 40.8381 10.3324 40.8404 10.3355 40.8435C10.3385 40.8466 10.341 40.8506 10.3428 40.8551C10.345 40.8594 10.3466 40.8643 10.3473 40.8695C10.3481 40.8746 10.348 40.8799 10.3471 40.8851C10.3462 40.8902 10.3445 40.895 10.3422 40.8992C10.3398 40.9034 10.3368 40.9069 10.3333 40.9095L9.98921 41.1769H9.97343Z" fill="white"/>
<path d="M11.2009 40.277C11.1905 40.28 11.1797 40.28 11.1693 40.277C11.1573 40.2668 11.1475 40.2525 11.1411 40.2356C11.1348 40.2186 11.132 40.1997 11.133 40.1809V40.0743C11.133 40.0638 11.1362 40.0537 11.1418 40.0462C11.1475 40.0388 11.1551 40.0346 11.163 40.0346C11.171 40.0346 11.1786 40.0388 11.1842 40.0462C11.1899 40.0537 11.193 40.0638 11.193 40.0743V40.1809C11.1909 40.1897 11.1909 40.1992 11.193 40.208C11.193 40.208 11.2025 40.208 11.2135 40.208C11.2313 40.185 11.2453 40.1573 11.2546 40.1267C11.2638 40.0962 11.2681 40.0633 11.2672 40.0304V39.3346C11.2676 39.3243 11.2709 39.3144 11.2764 39.3071C11.282 39.2998 11.2894 39.2954 11.2972 39.2949C11.3051 39.2949 11.3128 39.2991 11.3184 39.3065C11.324 39.314 11.3272 39.3241 11.3272 39.3346V40.0304C11.3285 40.077 11.3216 40.1233 11.3071 40.1657C11.2926 40.2081 11.2708 40.2455 11.2435 40.2749C11.2296 40.28 11.215 40.2807 11.2009 40.277Z" fill="white"/>
<path d="M10.8906 39.6696V39.6006C10.8975 39.4267 10.9354 39.2575 11.0012 39.1067C11.0671 38.956 11.159 38.8281 11.2694 38.7335C11.3086 38.6891 11.3573 38.6619 11.4086 38.6557C11.46 38.6494 11.5115 38.6644 11.5562 38.6986C11.6008 38.7327 11.6364 38.7843 11.658 38.8463C11.6796 38.9084 11.6861 38.9777 11.6766 39.0448V39.0678L10.8906 39.6696ZM11.4462 38.7398C11.3937 38.7433 11.3427 38.7641 11.2978 38.8004C11.2042 38.8826 11.1249 38.9905 11.0653 39.1166C11.0057 39.2427 10.9671 39.3842 10.9522 39.5317L11.6167 39.0218C11.6192 38.9727 11.6123 38.9236 11.5966 38.879C11.5808 38.8344 11.5568 38.7958 11.5267 38.7669C11.5022 38.7485 11.4744 38.7391 11.4462 38.7398Z" fill="white"/>
<path d="M12.2652 39.4743C12.2612 39.4746 12.2572 39.4738 12.2534 39.4719C12.2497 39.47 12.2463 39.4671 12.2434 39.4633C12.2406 39.4596 12.2384 39.4551 12.237 39.4501C12.2356 39.4452 12.2349 39.4399 12.2352 39.4346V38.1015C12.2341 38.0957 12.2341 38.0896 12.2351 38.0838C12.2361 38.0779 12.2381 38.0725 12.2409 38.0678C12.2437 38.0631 12.2472 38.0593 12.2513 38.0567C12.2554 38.0541 12.2598 38.0527 12.2644 38.0527C12.2689 38.0527 12.2733 38.0541 12.2774 38.0567C12.2815 38.0593 12.2851 38.0631 12.2879 38.0678C12.2907 38.0725 12.2926 38.0779 12.2936 38.0838C12.2946 38.0896 12.2946 38.0957 12.2936 38.1015V39.4346C12.2938 39.4397 12.2932 39.4448 12.2919 39.4496C12.2905 39.4544 12.2885 39.4588 12.2858 39.4625C12.2832 39.4662 12.28 39.4692 12.2764 39.4712C12.2728 39.4732 12.269 39.4743 12.2652 39.4743Z" fill="white"/>
<path d="M12.1864 38.4072H12.1737C12.1701 38.4052 12.1668 38.4022 12.1641 38.3984C12.1614 38.3947 12.1593 38.3902 12.1579 38.3852C12.1566 38.3803 12.156 38.3751 12.1563 38.3699C12.1566 38.3647 12.1577 38.3596 12.1595 38.355L12.2637 38.0332L12.3821 38.2129C12.3873 38.2209 12.3899 38.2314 12.3893 38.242C12.3887 38.2526 12.385 38.2624 12.3789 38.2693C12.3728 38.2762 12.3649 38.2797 12.3569 38.2789C12.349 38.2781 12.3415 38.2732 12.3363 38.2651L12.2811 38.1795L12.2132 38.3884C12.2104 38.3944 12.2064 38.3993 12.2017 38.4026C12.197 38.406 12.1917 38.4075 12.1864 38.4072Z" fill="white"/>
<path d="M12.5378 39.2699C12.5298 39.2699 12.5222 39.2657 12.5166 39.2583C12.511 39.2508 12.5078 39.2407 12.5078 39.2302V37.8971C12.5078 37.8866 12.511 37.8765 12.5166 37.869C12.5222 37.8616 12.5298 37.8574 12.5378 37.8574C12.5458 37.8574 12.5534 37.8616 12.559 37.869C12.5646 37.8765 12.5678 37.8866 12.5678 37.8971V39.2302C12.5678 39.2407 12.5646 39.2508 12.559 39.2583C12.5534 39.2657 12.5458 39.2699 12.5378 39.2699Z" fill="white"/>
<path d="M12.4511 38.2002H12.44C12.4365 38.1984 12.4332 38.1956 12.4305 38.192C12.4277 38.1885 12.4255 38.1843 12.4241 38.1796C12.4226 38.1749 12.4218 38.1699 12.4219 38.1648C12.4219 38.1597 12.4227 38.1547 12.4243 38.15L12.53 37.8262L12.6468 38.0059C12.6496 38.0096 12.6519 38.014 12.6534 38.0188C12.6549 38.0236 12.6557 38.0288 12.6557 38.0341C12.6557 38.0393 12.6549 38.0445 12.6534 38.0494C12.6519 38.0542 12.6496 38.0586 12.6468 38.0623C12.6441 38.066 12.641 38.0689 12.6374 38.0709C12.6339 38.0729 12.6301 38.0739 12.6263 38.0739C12.6224 38.0739 12.6187 38.0729 12.6151 38.0709C12.6116 38.0689 12.6084 38.066 12.6058 38.0623L12.5489 37.9766L12.4811 38.1856C12.4778 38.1917 12.4731 38.1964 12.4678 38.199C12.4624 38.2016 12.4566 38.202 12.4511 38.2002Z" fill="white"/>
<path d="M9.34075 42.5017L3.57031 38.0928V32.2109L9.34075 36.6218V42.5017Z" fill="#E0E0E0"/>
<path d="M6.23828 35.6416L6.67233 35.9738V34.5822L6.23828 34.25V35.6416Z" fill="#F5F5F5"/>
<path d="M6.67233 34.583L12.4428 30.1742L12.0087 29.8398L6.23828 34.2508L6.67233 34.583Z" fill="white"/>
<path d="M4.48399 35.8504L5.86031 36.8951C5.93994 36.9639 6.00626 37.0564 6.05396 37.1653C6.10166 37.2742 6.1294 37.3963 6.13494 37.522V38.6482C6.13494 38.8781 6.01183 38.9721 5.86031 38.8572L4.48399 37.8124C4.4044 37.7438 4.33818 37.6512 4.29072 37.5423C4.24327 37.4334 4.21594 37.3111 4.21094 37.1856V36.0614C4.21094 35.8274 4.33405 35.7438 4.48399 35.8504Z" fill="#F5F5F5"/>
<path d="M4.37891 36.1289L4.43099 36.1686V37.4181L4.37891 37.3784V36.1289Z" fill="#E0E0E0"/>
<path d="M4.58984 36.293L4.68139 36.364V37.6114L4.58984 37.5425V36.293Z" fill="#E0E0E0"/>
<path d="M4.80469 36.4551L4.85835 36.4948L4.85677 37.7443L4.80469 37.7046V36.4551Z" fill="#E0E0E0"/>
<path d="M4.96484 36.5762L5.07059 36.6577L5.06902 37.9072L4.96484 37.8236V36.5762Z" fill="#E0E0E0"/>
<path d="M5.23047 36.7812L5.28255 36.821V38.0705L5.23047 38.0287V36.7812Z" fill="#E0E0E0"/>
<path d="M5.38281 36.8984L5.49487 36.9862V38.2336L5.38281 38.1459V36.8984Z" fill="#E0E0E0"/>
<path d="M5.65625 37.1074L5.70834 37.1471V38.3945L5.65625 38.3548V37.1074Z" fill="#E0E0E0"/>
<path d="M5.77734 37.1973L5.80418 37.2182V38.4656L5.77734 38.4468V37.1973Z" fill="#E0E0E0"/>
<path d="M5.55859 37.0391L5.58385 37.0579V38.3074L5.55859 38.2886V37.0391Z" fill="#E0E0E0"/>
<path d="M5.12891 36.707L5.15416 36.7258V37.9753L5.12891 37.9545V36.707Z" fill="#E0E0E0"/>
<path d="M4.89453 36.5273L4.92136 36.5482V37.7957L4.89453 37.7769V36.5273Z" fill="#E0E0E0"/>
<path d="M4.72656 36.4043L4.75339 36.4252V37.6747L4.72656 37.6538V36.4043Z" fill="#E0E0E0"/>
<path d="M4.49609 36.2207L4.52293 36.2416V37.489L4.49609 37.4702V36.2207Z" fill="#E0E0E0"/>
<path d="M5.86719 37.2676L5.91927 37.3094V38.5568L5.86719 38.5171V37.2676Z" fill="#E0E0E0"/>
<path d="M13.8276 20.4505L9.34038 17.0195L4.85156 20.4505L9.34038 23.8793L13.8276 20.4505Z" fill="#F5F5F5"/>
<path d="M9.33984 35.6417L13.8271 32.2108V20.4512L9.33984 23.88V35.6417Z" fill="#EBEBEB"/>
<path d="M10.0792 33.6888C10.0594 33.689 10.0399 33.6825 10.0224 33.67C9.99776 33.6464 9.97812 33.6147 9.9654 33.5781C9.95268 33.5415 9.94731 33.5012 9.94982 33.461V32.8342V32.7882H9.9735L10.3428 32.502V33.1978C10.3419 33.2873 10.325 33.3752 10.2935 33.4544C10.2619 33.5336 10.2166 33.6017 10.1613 33.6533C10.1368 33.6744 10.1085 33.6867 10.0792 33.6888ZM10.0082 32.8801V33.4589C10.0057 33.4855 10.0083 33.5124 10.0158 33.5372C10.0232 33.5621 10.0353 33.584 10.0508 33.601C10.0638 33.6088 10.078 33.612 10.0921 33.6102C10.1063 33.6083 10.1198 33.6016 10.1313 33.5906C10.1785 33.5462 10.2172 33.4881 10.2446 33.4207C10.272 33.3533 10.2872 33.2784 10.2892 33.2019V33.1518H10.1471L10.1203 32.9073L10.0082 32.8801ZM10.1976 33.0724H10.2892V32.644L10.0698 32.8154L10.1787 32.8404L10.1976 33.0724Z" fill="white"/>
<path d="M10.1456 34.1878C10.1418 34.1878 10.1379 34.1867 10.1344 34.1847C10.1308 34.1827 10.1276 34.1797 10.125 34.176C10.1223 34.1723 10.1203 34.1679 10.1189 34.1631C10.1176 34.1583 10.117 34.1532 10.1172 34.1481V33.6257C10.117 33.6206 10.1176 33.6155 10.1189 33.6107C10.1203 33.6059 10.1223 33.6015 10.125 33.5977C10.1276 33.594 10.1308 33.5911 10.1344 33.589C10.1379 33.587 10.1418 33.586 10.1456 33.586C10.1496 33.5857 10.1536 33.5865 10.1574 33.5884C10.1611 33.5903 10.1645 33.5932 10.1674 33.597C10.1702 33.6007 10.1724 33.6052 10.1738 33.6102C10.1752 33.6151 10.1759 33.6204 10.1756 33.6257V34.1481C10.1759 34.1534 10.1752 34.1587 10.1738 34.1636C10.1724 34.1686 10.1702 34.1731 10.1674 34.1768C10.1645 34.1806 10.1611 34.1835 10.1574 34.1854C10.1536 34.1873 10.1496 34.1881 10.1456 34.1878Z" fill="white"/>
<path d="M9.97343 34.3183C9.96711 34.3178 9.96107 34.3146 9.95619 34.3093C9.95131 34.3039 9.94783 34.2967 9.94626 34.2885C9.94468 34.2804 9.94508 34.2719 9.94741 34.2641C9.94974 34.2563 9.95388 34.2496 9.95922 34.2451L10.3033 33.9819C10.3102 33.9766 10.3184 33.9752 10.3261 33.9779C10.3338 33.9807 10.3404 33.9874 10.3443 33.9965C10.3483 34.0056 10.3494 34.0165 10.3473 34.0267C10.3452 34.0369 10.3402 34.0456 10.3333 34.0508L9.98921 34.312C9.98457 34.3162 9.97905 34.3184 9.97343 34.3183Z" fill="white"/>
<path d="M11.2009 33.4182C11.1897 33.4183 11.1787 33.4139 11.1694 33.4057C11.1573 33.396 11.1475 33.3821 11.1411 33.3655C11.1347 33.3489 11.1319 33.3302 11.1331 33.3116V33.2051C11.1331 33.1946 11.1362 33.1845 11.1418 33.177C11.1475 33.1696 11.1551 33.1654 11.1631 33.1654C11.171 33.1654 11.1786 33.1696 11.1843 33.177C11.1899 33.1845 11.193 33.1946 11.193 33.2051V33.3116C11.1909 33.3205 11.1909 33.33 11.193 33.3388C11.1998 33.3413 11.2069 33.3413 11.2136 33.3388C11.2316 33.3164 11.2457 33.2892 11.255 33.2589C11.2642 33.2286 11.2684 33.1959 11.2672 33.1633V32.4675C11.2672 32.457 11.2704 32.4469 11.276 32.4394C11.2816 32.432 11.2893 32.4278 11.2972 32.4278C11.3012 32.4275 11.3052 32.4283 11.309 32.4302C11.3127 32.4321 11.3161 32.435 11.3189 32.4387C11.3218 32.4425 11.324 32.447 11.3254 32.452C11.3268 32.4569 11.3274 32.4622 11.3272 32.4675V33.1633C11.3285 33.2098 11.3216 33.2561 11.3071 33.2986C11.2926 33.341 11.2708 33.3784 11.2436 33.4078C11.2302 33.4157 11.2156 33.4193 11.2009 33.4182Z" fill="white"/>
<path d="M10.8906 32.8191V32.7522C10.8977 32.5781 10.9357 32.4087 11.0016 32.2576C11.0674 32.1066 11.1591 31.9783 11.2694 31.883C11.309 31.8396 11.3576 31.8134 11.4088 31.8078C11.46 31.8022 11.5112 31.8175 11.5556 31.8517C11.6 31.8858 11.6354 31.9372 11.6571 31.9988C11.6787 32.0605 11.6855 32.1294 11.6766 32.1964V32.2173L10.8906 32.8191ZM11.4462 31.8913C11.3937 31.8949 11.3427 31.9157 11.2978 31.9519C11.2044 32.034 11.1252 32.1415 11.0656 32.2672C11.006 32.393 10.9674 32.5341 10.9522 32.6812L11.6167 32.1734C11.6195 32.1243 11.6127 32.075 11.597 32.0303C11.5812 31.9856 11.557 31.9471 11.5267 31.9185C11.503 31.8964 11.4751 31.8834 11.4462 31.8809V31.8913Z" fill="white"/>
<path d="M12.2652 32.611C12.2572 32.611 12.2496 32.6068 12.2439 32.5994C12.2383 32.5919 12.2352 32.5818 12.2352 32.5713V31.2382C12.2341 31.2324 12.2341 31.2263 12.2351 31.2205C12.2361 31.2146 12.2381 31.2092 12.2409 31.2045C12.2437 31.1998 12.2472 31.196 12.2513 31.1934C12.2554 31.1908 12.2598 31.1895 12.2644 31.1895C12.2689 31.1895 12.2733 31.1908 12.2774 31.1934C12.2815 31.196 12.2851 31.1998 12.2879 31.2045C12.2907 31.2092 12.2926 31.2146 12.2936 31.2205C12.2946 31.2263 12.2946 31.2324 12.2936 31.2382V32.5713C12.2936 32.5815 12.2906 32.5913 12.2853 32.5987C12.2801 32.606 12.2728 32.6105 12.2652 32.611Z" fill="white"/>
<path d="M12.1864 31.5439H12.1737C12.1701 31.5419 12.1668 31.5389 12.1641 31.5352C12.1614 31.5314 12.1593 31.5269 12.1579 31.522C12.1566 31.5171 12.156 31.5118 12.1563 31.5066C12.1566 31.5014 12.1577 31.4963 12.1595 31.4917L12.2637 31.1699L12.3821 31.3496C12.3873 31.357 12.3902 31.3667 12.3902 31.3768C12.3902 31.3869 12.3873 31.3966 12.3821 31.4039C12.3762 31.411 12.3686 31.4149 12.3608 31.4149C12.3529 31.4149 12.3453 31.411 12.3395 31.4039L12.2842 31.3183L12.2163 31.5272C12.2132 31.5337 12.2087 31.5388 12.2033 31.5418C12.198 31.5448 12.192 31.5456 12.1864 31.5439Z" fill="white"/>
<path d="M12.5378 32.3988C12.53 32.3983 12.5226 32.394 12.517 32.3866C12.5115 32.3793 12.5082 32.3695 12.5078 32.3591V31.026C12.5078 31.0155 12.511 31.0054 12.5166 30.998C12.5222 30.9905 12.5298 30.9863 12.5378 30.9863C12.5458 30.9863 12.5534 30.9905 12.559 30.998C12.5646 31.0054 12.5678 31.0155 12.5678 31.026V32.3591C12.5674 32.3695 12.5641 32.3793 12.5586 32.3866C12.553 32.394 12.5456 32.3983 12.5378 32.3988Z" fill="white"/>
<path d="M12.4512 31.3408H12.4401C12.4365 31.3388 12.4332 31.3358 12.4304 31.332C12.4277 31.3283 12.4255 31.3239 12.424 31.319C12.4226 31.3142 12.4218 31.309 12.4219 31.3038C12.4219 31.2985 12.4228 31.2934 12.4243 31.2886L12.5301 30.9668L12.6469 31.1465C12.6497 31.1502 12.6519 31.1546 12.6534 31.1594C12.655 31.1643 12.6558 31.1695 12.6558 31.1747C12.6558 31.1799 12.655 31.1851 12.6534 31.19C12.6519 31.1948 12.6497 31.1992 12.6469 31.2029C12.6412 31.2094 12.6339 31.2129 12.6264 31.2129C12.6188 31.2129 12.6116 31.2094 12.6058 31.2029L12.549 31.1172L12.4811 31.3262C12.4777 31.3321 12.4731 31.3366 12.4677 31.3392C12.4624 31.3418 12.4567 31.3424 12.4512 31.3408Z" fill="white"/>
<path d="M9.34038 35.6417L4.85156 32.2108V20.4512L9.34038 23.88V35.6417Z" fill="#E0E0E0"/>
<path d="M6.98047 23.4678L7.41609 23.8V22.4105L6.98047 22.0762V23.4678Z" fill="#F5F5F5"/>
<path d="M7.41609 22.4116L11.9033 18.9807L11.4693 18.6484L6.98047 22.0773L7.41609 22.4116Z" fill="white"/>
<path d="M5.76682 29.969L7.14314 31.0137C7.22282 31.0822 7.28911 31.1747 7.33657 31.2837C7.38403 31.3927 7.41132 31.5149 7.41619 31.6406V32.7647C7.41619 32.9945 7.29466 33.0886 7.14314 32.9737L5.76682 31.9289C5.68693 31.8605 5.6204 31.7681 5.57267 31.6591C5.52494 31.5502 5.49736 31.4278 5.49219 31.3021V30.1779C5.49377 29.9481 5.6153 29.854 5.76682 29.969Z" fill="#F5F5F5"/>
<path d="M5.66016 30.25L5.71224 30.2897V31.5392L5.66016 31.4974V30.25Z" fill="#E0E0E0"/>
<path d="M5.87109 30.4121L5.96106 30.4811V31.7306L5.87109 31.6595V30.4121Z" fill="#E0E0E0"/>
<path d="M6.08594 30.5742L6.13802 30.616V31.8634L6.08594 31.8237V30.5742Z" fill="#E0E0E0"/>
<path d="M6.24609 30.6953L6.35026 30.7789V32.0263L6.24609 31.9448V30.6953Z" fill="#E0E0E0"/>
<path d="M6.51172 30.8984L6.5638 30.9381V32.1877L6.51172 32.1479V30.8984Z" fill="#E0E0E0"/>
<path d="M6.66406 31.0156L6.77613 31.1034V32.3529L6.66406 32.2651V31.0156Z" fill="#E0E0E0"/>
<path d="M6.9375 31.2246L6.98959 31.2643V32.5138L6.9375 32.472V31.2246Z" fill="#E0E0E0"/>
<path d="M7.05859 31.3184L7.08385 31.3372V32.5867L7.05859 32.5658V31.3184Z" fill="#E0E0E0"/>
<path d="M6.83984 31.1582L6.86668 31.1791V32.4286L6.83984 32.4077V31.1582Z" fill="#E0E0E0"/>
<path d="M6.41016 30.8242L6.43699 30.8451V32.0925L6.41016 32.0737V30.8242Z" fill="#E0E0E0"/>
<path d="M6.17578 30.6484L6.20261 30.6672V31.9168L6.17578 31.8959V30.6484Z" fill="#E0E0E0"/>
<path d="M6.00781 30.5234L6.03307 30.5422V31.7918L6.00781 31.7709V30.5234Z" fill="#E0E0E0"/>
<path d="M5.77734 30.3398L5.8026 30.3586V31.6082L5.77734 31.5873V30.3398Z" fill="#E0E0E0"/>
<path d="M7.14844 31.3887L7.2021 31.4284V32.6758L7.14844 32.6361V31.3887Z" fill="#E0E0E0"/>
<path d="M4.8962 52.8261L22.1223 65.9899C22.3341 66.1321 22.5682 66.2063 22.8057 66.2063C23.0432 66.2063 23.2773 66.1321 23.4891 65.9899L61.2321 37.1549C61.6093 36.8666 61.6093 36.3986 61.2321 36.1102L44.006 22.9464C43.7945 22.8032 43.5602 22.7285 43.3226 22.7285C43.085 22.7285 42.8508 22.8032 42.6392 22.9464L4.8962 51.7814C4.51898 52.0697 4.51898 52.5377 4.8962 52.8261Z" fill="#455A64"/>
<path d="M14.2067 58.9376C14.5004 59.1338 14.8247 59.236 15.1537 59.236C15.4827 59.236 15.807 59.1338 16.1007 58.9376C16.6263 58.5364 16.6263 57.8929 16.1007 57.4854C15.8072 57.2883 15.4828 57.1855 15.1537 57.1855C14.8246 57.1855 14.5002 57.2883 14.2067 57.4854C13.6811 57.8929 13.6811 58.5406 14.2067 58.9376Z" fill="#263238"/>
<path d="M22.4447 65.9893L5.21858 52.8256C4.88081 52.5665 4.84609 52.1653 5.11283 51.877C4.94435 52.0534 4.80584 52.2748 4.7063 52.5268C4.60677 52.7788 4.54846 53.0558 4.53516 53.3396V54.19C4.54811 54.5039 4.61674 54.8094 4.73547 55.0816C4.85421 55.3539 5.01971 55.5853 5.21858 55.7571L22.4447 68.9209C22.6553 69.0665 22.8905 69.1385 23.1281 69.1298V66.2067C22.89 66.2127 22.6547 66.1379 22.4447 65.9893Z" fill="#37474F"/>
<path d="M61.2295 40.0853C61.4289 39.9139 61.5948 39.6827 61.7138 39.4103C61.8329 39.138 61.9016 38.8323 61.9145 38.5181V37.6677C61.9017 37.3835 61.8435 37.1062 61.7436 36.854C61.6437 36.6019 61.5046 36.3807 61.3353 36.2051C61.6036 36.4934 61.5689 36.8946 61.2311 37.1516L23.4881 65.9907C23.2773 66.1358 23.0422 66.2077 22.8047 66.1997V69.1396C23.0422 69.1476 23.2773 69.0757 23.4881 68.9306L61.2295 40.0853Z" fill="#263238"/>
<path d="M24.9586 63.2617L8.47124 50.6537C8.24396 50.4803 8.24396 50.1982 8.47124 50.0268L40.3412 25.6613C40.4684 25.5758 40.609 25.5312 40.7516 25.5313C40.8942 25.5312 41.0348 25.5758 41.1619 25.6613L57.6557 38.2672C57.8814 38.4406 57.8814 38.7206 57.6557 38.8941L25.7731 63.2617C25.6467 63.3458 25.5073 63.3896 25.3659 63.3896C25.2244 63.3896 25.085 63.3458 24.9586 63.2617Z" fill="white"/>
<path d="M18.3166 56.2236L20.2406 54.7526L19.5998 54.2637L17.6758 55.7326L18.3166 56.2236Z" fill="#810019"/>
<path d="M41.3986 38.581L43.3226 37.11L42.6802 36.6211L40.7578 38.0921L41.3986 38.581Z" fill="#810019"/>
<path d="M45.2424 35.6416L47.1664 34.1706L46.5256 33.6816L44.6016 35.1505L45.2424 35.6416Z" fill="#810019"/>
<path d="M51.4196 30.4894C51.4944 30.5389 51.5768 30.5646 51.6603 30.5646C51.7439 30.5646 51.8263 30.5389 51.901 30.4894C51.93 30.4763 51.9551 30.4515 51.9729 30.4185C51.9907 30.3856 52.0003 30.3461 52.0003 30.3055C52.0003 30.265 51.9907 30.2255 51.9729 30.1925C51.9551 30.1595 51.93 30.1348 51.901 30.1217C51.8265 30.0712 51.744 30.0449 51.6603 30.0449C51.5766 30.0449 51.4941 30.0712 51.4196 30.1217C51.3906 30.1348 51.3655 30.1595 51.3477 30.1925C51.3299 30.2255 51.3203 30.265 51.3203 30.3055C51.3203 30.3461 51.3299 30.3856 51.3477 30.4185C51.3655 30.4515 51.3906 30.4763 51.4196 30.4894Z" fill="#263238"/>
<path d="M52.1872 33.3777C52.3361 33.4775 52.5008 33.5296 52.6678 33.5296C52.8347 33.5296 52.9994 33.4775 53.1484 33.3777C53.4135 33.1687 53.4135 32.8448 53.1484 32.6422C52.9994 32.5423 52.8347 32.4902 52.6678 32.4902C52.5008 32.4902 52.3361 32.5423 52.1872 32.6422C51.922 32.8448 51.922 33.175 52.1872 33.3777Z" fill="#263238"/>
<path d="M51.5098 32.098C51.6866 31.9622 51.6771 31.7366 51.4893 31.5924L48.3326 29.1748C48.231 29.1027 48.1179 29.0636 48.0026 29.0607C47.8874 29.0578 47.7733 29.0912 47.6697 29.1581C47.4929 29.2939 47.5024 29.5196 47.6902 29.6638L50.8563 32.0813C50.9568 32.1512 51.0681 32.1891 51.1816 32.192C51.295 32.1949 51.4074 32.1627 51.5098 32.098Z" fill="#263238"/>
<path d="M46.1195 22.2941L46.2268 22.2105C46.1527 22.5671 46.1166 22.9356 46.1195 23.3054V23.8152C46.1195 25.6456 47.7783 30.3219 48.3891 31.9768C48.4523 32.1502 47.6142 33.3307 47.6142 33.3307L48.6101 32.5702C48.6101 32.5702 51.0992 29.8538 51.0992 27.6223V27.1124C51.0992 24.8704 49.9849 22.2021 48.6101 21.1511C47.9156 20.6225 47.289 20.6037 46.8376 21.0049L45.8906 21.7236L46.1195 22.2941ZM47.3648 24.0054C47.3648 22.9606 47.922 22.5281 48.6101 23.0547C48.5533 23.7296 49.4845 25.8316 49.8539 25.9089C49.8539 26.9536 49.2967 27.3862 48.6101 26.8596C48.2487 26.5462 47.9482 26.1244 47.7329 25.6285C47.5177 25.1326 47.3937 24.5765 47.3711 24.0054H47.3648Z" fill="#810019"/>
<path d="M45.0943 24.6322C45.1227 26.8721 47.6922 33.3307 47.6922 33.3307C47.6922 33.3307 50.1481 30.5684 50.1213 28.3285V27.8186C50.0929 25.5787 48.9454 22.9334 47.5565 21.9138C46.1676 20.8941 45.0659 21.8803 45.0943 24.1223V24.6322ZM46.3412 24.7952C46.3286 23.7504 46.881 23.3054 47.5739 23.8152C47.9401 24.12 48.2469 24.5348 48.4693 25.0261C48.6917 25.5173 48.8235 26.071 48.8539 26.6423C48.8681 27.687 48.3157 28.1321 47.6212 27.6222C47.2554 27.3168 46.949 26.9018 46.7266 26.4107C46.5043 25.9196 46.3722 25.3662 46.3412 24.7952Z" fill="#810019"/>
<path opacity="0.1" d="M45.0943 24.6322C45.1227 26.8721 47.6922 33.3307 47.6922 33.3307C47.6922 33.3307 50.1481 30.5684 50.1213 28.3285V27.8186C50.0929 25.5787 48.9454 22.9334 47.5565 21.9138C46.1676 20.8941 45.0659 21.8803 45.0943 24.1223V24.6322ZM46.3412 24.7952C46.3286 23.7504 46.881 23.3054 47.5739 23.8152C47.9401 24.12 48.2469 24.5348 48.4693 25.0261C48.6917 25.5173 48.8235 26.071 48.8539 26.6423C48.8681 27.687 48.3157 28.1321 47.6212 27.6222C47.2554 27.3168 46.949 26.9018 46.7266 26.4107C46.5043 25.9196 46.3722 25.3662 46.3412 24.7952Z" fill="black"/>
<path d="M21.0212 54.5062C22.6169 55.7223 26.3576 54.8385 29.3769 52.5296L37.6711 46.1922C40.6905 43.8833 41.8427 41.0291 40.2439 39.8151C38.645 38.6011 34.9011 39.4891 31.8786 41.7959L23.6002 48.1249C20.5824 50.4317 19.427 53.2964 21.0212 54.5062Z" fill="#F0F0F0"/>
<path d="M45.1719 1.37421H45.1798L46.545 0.329462H46.5561C47.4163 -0.247236 48.5653 -0.0884341 49.8027 0.977204C52.2902 3.09594 54.189 7.98534 54.0453 11.8948C53.9727 13.8443 53.414 15.1815 52.5507 15.7708H52.5428L51.1759 16.8155H51.1664C50.3062 17.3943 49.1556 17.2334 47.9166 16.1699C45.4307 14.049 43.532 9.16172 43.6756 5.25229C43.7514 3.30071 44.318 1.96344 45.1719 1.37421Z" fill="#37474F"/>
<path d="M51.2461 16.7619L52.5482 15.7589H52.5577C53.4132 15.1676 53.9782 13.8303 54.0508 11.8829C54.1139 10.1403 53.7714 8.20334 53.1527 6.4043L51.7859 7.44904C52.4062 9.24809 52.7487 11.185 52.684 12.9298C52.6161 14.8312 52.0731 16.1538 51.2461 16.7619Z" fill="#263238"/>
<path d="M47.9244 16.1697C45.4385 14.0489 43.5398 9.16161 43.6834 5.25218C43.8271 1.34275 45.9626 -0.109445 48.4437 2.00929C50.9249 4.12803 52.8299 9.01743 52.6863 12.9269C52.5427 16.8363 50.4103 18.2885 47.9244 16.1697Z" fill="#455A64"/>
<path d="M50.0059 15.8913C51.4722 15.9854 51.7105 13.8019 51.7421 12.8616C51.8683 9.41393 50.1227 4.92154 47.9304 3.05144C47.4632 2.61827 46.9196 2.35198 46.352 2.27833C44.8873 2.18431 44.649 4.36782 44.6158 5.30809C44.4896 8.75574 46.2336 13.2481 48.4275 15.1287C48.8946 15.5619 49.4383 15.8281 50.0059 15.9018V15.8913Z" fill="#FAFAFA"/>
<path d="M47.8943 9.73585C47.9116 9.73592 47.9287 9.73167 47.9448 9.72332C47.9778 9.70915 48.0063 9.68101 48.026 9.64325C48.0456 9.60548 48.0554 9.56019 48.0537 9.51437V4.53512C48.0537 4.4797 48.0371 4.42656 48.0075 4.38737C47.9779 4.34819 47.9377 4.32617 47.8959 4.32617C47.854 4.32617 47.8139 4.34819 47.7843 4.38737C47.7547 4.42656 47.738 4.4797 47.738 4.53512V8.90842L45.9813 5.92045C45.9554 5.87612 45.9172 5.84725 45.8752 5.8402C45.8331 5.83314 45.7907 5.84848 45.7572 5.88284C45.7237 5.9172 45.7019 5.96776 45.6966 6.0234C45.6913 6.07905 45.7028 6.13521 45.7288 6.17955L47.7728 9.65436C47.7871 9.6791 47.8055 9.69926 47.8265 9.71336C47.8476 9.72746 47.8707 9.73515 47.8943 9.73585Z" fill="#37474F"/>
<path d="M48.8036 13.4177C48.8109 13.4196 48.8184 13.4196 48.8257 13.4177C48.8425 13.4109 48.8566 13.3958 48.8651 13.3756C48.8737 13.3553 48.8759 13.3315 48.8715 13.3091L47.9861 9.36202C47.981 9.33957 47.9695 9.32069 47.9539 9.30952C47.9384 9.29835 47.9202 9.29581 47.9032 9.30246C47.8862 9.30911 47.872 9.32441 47.8635 9.34498C47.8551 9.36555 47.8532 9.38972 47.8582 9.41216L48.7421 13.3592C48.7466 13.3761 48.7549 13.3908 48.7659 13.4012C48.7769 13.4117 48.7901 13.4175 48.8036 13.4177Z" fill="#810019"/>
<path d="M47.947 8.52424C47.6535 8.27559 47.4025 8.44693 47.3867 8.90662C47.3877 9.15735 47.4333 9.40424 47.52 9.62718C47.6067 9.85012 47.7319 10.0428 47.8855 10.1896C48.1775 10.4403 48.4284 10.269 48.4458 9.80928C48.4445 9.55834 48.3986 9.31133 48.312 9.08814C48.2254 8.86494 48.1004 8.67179 47.947 8.52424Z" fill="#810019"/>
<path d="M22.1642 53.2783L24.0867 51.8073L23.4459 51.3184L21.5234 52.7873L22.1642 53.2783Z" fill="#810019"/>
<path d="M26.0119 50.3388L27.9359 48.8678L27.2935 48.3789L25.3711 49.8478L26.0119 50.3388Z" fill="#810019"/>
<path d="M25.2205 49.7401C25.2205 50.9688 24.5702 52.4565 23.7668 53.0833C23.3391 53.4114 22.954 53.4218 22.6888 53.1753C22.5819 53.0641 22.4941 52.924 22.4312 52.7644C22.3684 52.6048 22.3319 52.4293 22.3242 52.2496C22.3782 52.2162 22.4309 52.1793 22.4821 52.1389C23.2854 51.5267 23.9357 50.0327 23.9357 48.7957C23.9365 48.7042 23.9322 48.6127 23.9231 48.522C24.0435 48.4376 24.1758 48.3874 24.3117 48.3744C24.4476 48.3615 24.584 48.3861 24.7123 48.4467C25.0279 48.6223 25.2205 49.0757 25.2205 49.7401Z" fill="#263238"/>
<path d="M25.3525 47.2171L25.3257 47.1962C24.9216 46.912 24.3787 46.9643 23.7678 47.4281C22.5288 48.3747 21.5234 50.6773 21.5234 52.5725C21.5234 53.5253 21.7776 54.1918 22.1879 54.5011C22.5983 54.8103 23.1523 54.7581 23.7663 54.2921C25.0053 53.3456 26.0091 51.0409 26.0091 49.1457C26.0107 48.1929 25.7613 47.5264 25.3525 47.2171ZM23.7742 53.0802C23.3449 53.4083 22.9597 53.4187 22.6946 53.1701C22.461 52.9611 22.3189 52.5432 22.3189 51.9686C22.3189 50.7421 22.9708 49.2523 23.7742 48.6254C24.1403 48.3454 24.4734 48.2974 24.7212 48.4416C25.0274 48.615 25.2199 49.0684 25.2199 49.737C25.2215 50.974 24.5712 52.468 23.7678 53.0844L23.7742 53.0802Z" fill="#37474F"/>
<path d="M24.7952 48.4978L24.7779 48.4853C24.5159 48.2993 24.1607 48.3348 23.7677 48.6336C22.9644 49.2479 22.3125 50.7419 22.3125 51.9768C22.3125 52.6037 22.4703 53.0216 22.7434 53.2305C23.0164 53.4395 23.3747 53.3977 23.7677 53.0926C24.5711 52.4783 25.2214 50.9843 25.2214 49.7494C25.2214 49.1309 25.0588 48.6963 24.7952 48.4978ZM23.7677 52.6454C23.4237 52.9087 23.1143 52.9171 22.8996 52.7165C22.7134 52.5431 22.5982 52.2108 22.5982 51.7511C22.6203 51.2141 22.7377 50.6914 22.9409 50.2257C23.1441 49.7599 23.4274 49.3641 23.7677 49.0703C23.8783 48.9681 24.0054 48.9015 24.1388 48.8757C24.2722 48.85 24.4084 48.8658 24.5364 48.922C24.7826 49.062 24.9373 49.4255 24.9373 49.9667C24.9153 50.5036 24.7979 51.0259 24.5947 51.4914C24.3915 51.9569 24.1081 52.3523 23.7677 52.6454Z" fill="#810019"/>
<path d="M29.8557 47.3994L31.7797 45.9305L31.1388 45.4395L29.2148 46.9105L29.8557 47.3994Z" fill="#810019"/>
<path d="M33.7049 44.4599L35.6273 42.991L34.9865 42.5L33.0625 43.971L33.7049 44.4599Z" fill="#810019"/>
<path d="M37.5525 41.5205L39.475 40.0516L38.8342 39.5605L36.9102 41.0315L37.5525 41.5205Z" fill="#810019"/>
<path d="M27.9781 27.8474C27.9982 27.8118 28.0263 27.7857 28.0584 27.7727C28.0905 27.7598 28.1249 27.7607 28.1565 27.7754C28.1882 27.7901 28.2155 27.8177 28.2345 27.8543C28.2535 27.891 28.2632 27.9346 28.2622 27.979C28.2745 28.098 28.2653 28.2191 28.2354 28.3324C28.2055 28.4457 28.1557 28.5481 28.0901 28.6309C27.9639 28.7751 27.836 28.7166 27.806 28.4993C27.7938 28.3804 27.803 28.2593 27.8329 28.146C27.8628 28.0327 27.9126 27.9304 27.9781 27.8474Z" fill="#810019"/>
<path d="M29.4595 28.7713L28.1731 27.7871L27.8906 28.6877L29.1817 29.6739L29.4595 28.7713Z" fill="#810019"/>
<path d="M29.2603 28.8275C29.3866 28.6854 29.5129 28.7439 29.5444 28.9612C29.5561 29.0799 29.5464 29.2006 29.5163 29.3135C29.4861 29.4264 29.4363 29.5283 29.3708 29.611C29.2446 29.7552 29.1167 29.6967 29.0867 29.4794C29.0752 29.3603 29.0849 29.2393 29.1151 29.1261C29.1452 29.0129 29.195 28.9106 29.2603 28.8275Z" fill="#810019"/>
<path d="M39.1489 37.0672C39.1489 37.109 39.1489 37.1466 39.1489 37.1884C39.1489 37.272 39.1489 37.3577 39.1489 37.4434C38.8932 37.2992 38.5602 37.3472 38.194 37.6272C37.3906 38.2415 36.7388 39.7355 36.7388 40.9704C36.7388 41.5429 36.8808 41.9566 37.1144 42.1719C37.0488 42.2336 36.9809 42.2908 36.9108 42.3432L36.8366 42.3933L36.6141 43.5029L35.3261 42.5521C34.9189 42.2408 34.668 41.5764 34.668 40.6277C34.668 38.7326 35.6718 36.43 36.9108 35.4813C37.5232 35.0133 38.0772 34.9652 38.4891 35.2724L39.7518 36.2085L39.7787 36.2294L39.1489 37.0672Z" fill="#455A64"/>
<path d="M39.7783 36.2113L39.7515 36.1904C39.3474 35.9062 38.8044 35.9584 38.1936 36.4223C36.9546 37.3688 35.9492 39.6714 35.9492 41.5666C35.9492 42.5194 36.2033 43.186 36.6137 43.4952C37.0241 43.8044 37.5781 43.7522 38.1921 43.2863C39.4311 42.3397 40.4349 40.035 40.4349 38.1398C40.4396 37.187 40.1855 36.5205 39.7783 36.2113ZM38.1999 42.0744C37.7706 42.4024 37.3855 42.4128 37.1204 42.1642C36.8868 41.9553 36.7447 41.5374 36.7447 40.9627C36.7447 39.7362 37.3966 38.2464 38.1999 37.6196C38.5661 37.3396 38.8991 37.2915 39.1548 37.4357C39.461 37.6091 39.6536 38.0625 39.6536 38.7312C39.6504 39.9682 38.997 41.4621 38.1936 42.0744H38.1999Z" fill="#37474F"/>
<path d="M39.6502 38.7382C39.6502 39.9668 38.9999 41.4545 38.1965 42.0814C37.7688 42.4094 37.3837 42.4199 37.1185 42.1733C37.0116 42.0621 36.9238 41.922 36.8609 41.7624C36.7981 41.6028 36.7616 41.4274 36.7539 41.2477C36.8079 41.2143 36.8606 41.1773 36.9117 41.1369C37.7151 40.5247 38.3654 39.0307 38.3654 37.7937C38.3662 37.7022 38.3619 37.6107 38.3528 37.52C38.4732 37.4357 38.6055 37.3854 38.7414 37.3725C38.8772 37.3595 39.0137 37.3842 39.1419 37.4448C39.4545 37.6203 39.6502 38.0696 39.6502 38.7382Z" fill="#263238"/>
<path d="M39.221 37.493L39.2037 37.4784C38.9417 37.2945 38.5849 37.3279 38.1935 37.6288C37.3901 38.2431 36.7383 39.735 36.7383 40.972C36.7383 41.5988 36.8961 42.0167 37.1692 42.2257C37.4422 42.4346 37.8005 42.3908 38.1935 42.0857C38.9969 41.4735 39.6472 39.9795 39.6472 38.7425C39.6503 38.1261 39.4925 37.6936 39.221 37.493ZM38.1935 41.6385C37.8479 41.9039 37.5385 41.9123 37.3254 41.7117C37.1376 41.5383 37.024 41.206 37.024 40.7463C37.0461 40.2093 37.1635 39.6866 37.3667 39.2209C37.5699 38.7551 37.8532 38.3593 38.1935 38.0655C38.4871 37.8399 38.7554 37.8002 38.9606 37.9172C39.2068 38.0572 39.3615 38.4207 39.3615 38.9619C39.3396 39.4982 39.2224 40.0202 39.0194 40.4852C38.8165 40.9503 38.5335 41.3455 38.1935 41.6385Z" fill="#810019"/>
<path d="M36.9078 39.3656L40.538 36.5908C40.9594 36.2669 39.591 34.376 38.573 34.2485C38.0125 34.1589 37.444 34.2301 36.9062 34.4574C36.9062 34.4574 37.6812 35.7717 37.5486 36.5177C37.4161 37.2636 36.9078 39.3656 36.9078 39.3656Z" fill="#810019"/>
<path d="M31.7796 31.5234C31.7796 31.5234 37.0418 35.038 37.2691 35.249C37.4964 35.46 37.2691 37.911 36.9077 39.3653C36.5462 40.8196 35.9907 43.0553 35.7681 43.6822C35.5456 44.309 35.2552 44.543 34.7217 44.9505L30.9336 47.8486L25.8056 48.676L23.7695 47.2134L24.2999 42.8025C24.2999 42.8025 29.7499 38.9641 30.4964 38.3937C31.243 37.8232 33.4511 35.1466 31.7796 31.5234Z" fill="#810019"/>
<path opacity="0.2" d="M31.7796 31.5234C31.7796 31.5234 37.0418 35.038 37.2691 35.249C37.4964 35.46 37.2691 37.911 36.9077 39.3653C36.5462 40.8196 35.9907 43.0553 35.7681 43.6822C35.5456 44.309 35.2552 44.543 34.7217 44.9505L30.9336 47.8486L25.8056 48.676L23.7695 47.2134L24.2999 42.8025C24.2999 42.8025 29.7499 38.9641 30.4964 38.3937C31.243 37.8232 33.4511 35.1466 31.7796 31.5234Z" fill="black"/>
<path d="M37.3731 38.5268C37.8466 36.8426 38.2001 35.4469 38.1401 34.5045C38.0675 33.3866 37.7519 32.4735 36.3598 32.0138C34.9677 31.5542 33.0216 31.5625 33.0216 31.5625L32.4297 32.0159C32.4297 32.0159 36.4324 35.0875 36.8869 35.4218C37.1647 35.6307 37.4615 36.5522 36.9169 39.3667L37.01 39.4378C37.0558 39.4754 37.2215 39.0679 37.3731 38.5268Z" fill="#810019"/>
<path opacity="0.3" d="M37.3731 38.5268C37.8466 36.8426 38.2001 35.4469 38.1401 34.5045C38.0675 33.3866 37.7519 32.4735 36.3598 32.0138C34.9677 31.5542 33.0216 31.5625 33.0216 31.5625L32.4297 32.0159C32.4297 32.0159 36.4324 35.0875 36.8869 35.4218C37.1647 35.6307 37.4615 36.5522 36.9169 39.3667L37.01 39.4378C37.0558 39.4754 37.2215 39.0679 37.3731 38.5268Z" fill="white"/>
<path d="M34.3382 33.4823L34.9853 32.9933C34.9853 32.9933 34.9474 30.0242 34.0035 29.3033C33.0597 28.5824 29.8557 29.0735 29.8557 29.0735L29.2148 29.5624L34.3382 33.4823Z" fill="#810019"/>
<path d="M32.2386 29.9821C31.9309 30.2182 31.9309 30.5985 32.2386 30.8325C32.4112 30.9488 32.6021 31.0095 32.7958 31.0095C32.9895 31.0095 33.1804 30.9488 33.353 30.8325C33.6592 30.5985 33.6592 30.2161 33.353 29.9821C33.1802 29.8667 32.9893 29.8066 32.7958 29.8066C32.6023 29.8066 32.4114 29.8667 32.2386 29.9821Z" fill="#F0F0F0"/>
<path d="M33.2247 31.4017C33.0084 31.5688 33.0084 31.8384 33.2247 32.0034C33.3468 32.0861 33.4821 32.1293 33.6193 32.1293C33.7565 32.1293 33.8917 32.0861 34.0138 32.0034C34.2317 31.8384 34.2317 31.5688 34.0138 31.4017C33.8915 31.3199 33.7563 31.2773 33.6193 31.2773C33.4822 31.2773 33.347 31.3199 33.2247 31.4017Z" fill="#F0F0F0"/>
<path d="M30.7454 29.6044C30.5276 29.7694 30.5276 30.039 30.7454 30.2061C30.8678 30.2879 31.0029 30.3304 31.14 30.3304C31.277 30.3304 31.4122 30.2879 31.5346 30.2061C31.7524 30.039 31.7524 29.7694 31.5346 29.6044C31.4124 29.5216 31.2772 29.4785 31.14 29.4785C31.0028 29.4785 30.8675 29.5216 30.7454 29.6044Z" fill="#F0F0F0"/>
<path d="M34.4405 32.622C34.5668 32.4778 34.693 32.5363 34.7246 32.7536C34.7362 32.8727 34.7266 32.9937 34.6964 33.1069C34.6663 33.2202 34.6164 33.3225 34.551 33.4055C34.5309 33.4411 34.5027 33.4672 34.4706 33.4802C34.4385 33.4931 34.4042 33.4922 34.3725 33.4775C34.3408 33.4628 34.3135 33.4352 34.2945 33.3986C34.2755 33.362 34.2658 33.3183 34.2669 33.2739C34.2547 33.1548 34.2641 33.0336 34.2943 32.9202C34.3245 32.8069 34.3746 32.7047 34.4405 32.622Z" fill="#810019"/>
<path d="M35.9126 33.5447L34.6247 32.5605L34.3438 33.4611L35.6333 34.4453L35.9126 33.5447Z" fill="#810019"/>
<path d="M35.7136 33.6013C35.7338 33.5657 35.7619 33.5396 35.794 33.5266C35.8261 33.5137 35.8605 33.5146 35.8921 33.5293C35.9238 33.544 35.9511 33.5716 35.9701 33.6082C35.9891 33.6449 35.9988 33.6885 35.9977 33.7329C36.0098 33.852 36.0003 33.9732 35.9701 34.0865C35.9399 34.1998 35.8899 34.3021 35.8241 34.3848C35.6979 34.529 35.5716 34.4684 35.54 34.2532C35.5283 34.1341 35.5379 34.0131 35.568 33.8998C35.5982 33.7865 35.6481 33.6843 35.7136 33.6013Z" fill="#810019"/>
<path d="M35.7136 33.6013C35.7338 33.5657 35.7619 33.5396 35.794 33.5266C35.8261 33.5137 35.8605 33.5146 35.8921 33.5293C35.9238 33.544 35.9511 33.5716 35.9701 33.6082C35.9891 33.6449 35.9988 33.6885 35.9977 33.7329C36.0098 33.852 36.0003 33.9732 35.9701 34.0865C35.9399 34.1998 35.8899 34.3021 35.8241 34.3848C35.6979 34.529 35.5716 34.4684 35.54 34.2532C35.5283 34.1341 35.5379 34.0131 35.568 33.8998C35.5982 33.7865 35.6481 33.6843 35.7136 33.6013Z" fill="black"/>
<path d="M24.723 48.0692C24.723 48.111 24.723 48.1486 24.723 48.1904C24.723 48.274 24.723 48.3596 24.723 48.4453C24.4673 48.3011 24.1343 48.3492 23.776 48.6292C22.9726 49.2435 22.3208 50.7375 22.3208 51.9724C22.3208 52.5449 22.4628 52.9586 22.6964 53.1738C22.6309 53.2356 22.5629 53.2927 22.4928 53.3452L22.4186 53.3953L22.1961 54.5048L20.9082 53.5541C20.501 53.2428 20.25 52.5783 20.25 51.6297C20.25 49.7345 21.2538 47.4319 22.4928 46.4833C23.1052 46.0152 23.6592 45.9672 24.0712 46.2743L25.3339 47.2104L25.3607 47.2313L24.723 48.0692Z" fill="#455A64"/>
<path d="M20.8792 44.7539L19.918 49.1648L21.842 50.6358L22.8379 46.2521L20.8792 44.7539Z" fill="#810019"/>
<path opacity="0.2" d="M20.8792 44.7539L19.918 49.1648L21.842 50.6358L22.8379 46.2521L20.8792 44.7539Z" fill="black"/>
<path d="M20.8789 44.7544C20.8789 44.7544 21.9695 45.9809 22.8376 46.2525C23.9772 46.6182 25.7891 46.6579 26.4315 46.7164C27.4133 46.8062 28.1551 46.8042 28.5023 46.6391C28.9521 46.4301 30.1612 45.5003 30.4958 45.2454C31.1366 44.7565 31.4096 42.832 29.6435 42.3055C28.4493 41.9779 27.2328 41.8134 26.0133 41.8145L20.8789 44.7544Z" fill="#810019"/>
<path d="M31.7577 44.1884C31.7028 44.3701 31.6657 44.5604 31.6472 44.7546C31.5963 44.9565 31.5844 45.1719 31.6125 45.3815C31.7328 45.6449 31.9221 45.8405 32.1444 45.931C32.3045 45.9781 32.4702 45.9811 32.6312 45.9398C32.7923 45.8985 32.9451 45.8137 33.0803 45.6907C33.4071 45.4316 33.6533 45.1182 34.1173 44.9427C34.449 44.8497 34.7614 44.6622 35.0327 44.3931C35.29 44.1194 35.6341 43.363 35.1417 43.1875C34.6492 43.012 33.5791 43.6305 32.6037 43.6869L31.7577 44.1884Z" fill="#37474F"/>
<path d="M31.7578 43.3809V44.3462C31.7877 44.4547 31.8396 44.5501 31.9078 44.622C31.9761 44.6939 32.058 44.7395 32.1445 44.7537C32.2238 44.769 32.3047 44.7575 32.3797 44.7202C32.4979 44.6605 32.6004 44.5562 32.6744 44.4203C32.7484 44.2844 32.7908 44.1229 32.7964 43.9555L32.8248 43.3809H31.7578Z" fill="#FFA8A7"/>
<path d="M33.146 37.4141C33.146 38.6155 32.8903 43.81 32.8903 43.81C32.8903 43.81 32.5194 44.4368 31.7129 43.81L31.4414 38.0054L33.146 37.4141Z" fill="#37474F"/>
<path d="M28.9178 42.5331L31.4431 40.6066C31.5466 40.5347 31.6333 40.4267 31.6937 40.2943C31.7542 40.1619 31.7861 40.0101 31.7861 39.8554C31.7861 39.7007 31.7542 39.5489 31.6937 39.4165C31.6333 39.2841 31.5466 39.1761 31.4431 39.1042L29.5617 37.6667C29.4558 37.5956 29.3387 37.5586 29.22 37.5586C29.1013 37.5586 28.9842 37.5956 28.8783 37.6667L26.3529 39.5932C26.2499 39.6656 26.1637 39.7737 26.1036 39.9061C26.0435 40.0384 26.0117 40.1899 26.0117 40.3443C26.0117 40.4988 26.0435 40.6503 26.1036 40.7826C26.1637 40.9149 26.2499 41.0231 26.3529 41.0955L28.2343 42.5331C28.3402 42.6041 28.4573 42.6411 28.576 42.6411C28.6948 42.6411 28.8118 42.6041 28.9178 42.5331Z" fill="#810019"/>
<path d="M28.9178 42.5331L31.4431 40.6066C31.5466 40.5347 31.6333 40.4267 31.6937 40.2943C31.7542 40.1619 31.7861 40.0101 31.7861 39.8554C31.7861 39.7007 31.7542 39.5489 31.6937 39.4165C31.6333 39.2841 31.5466 39.1761 31.4431 39.1042L29.5617 37.6667C29.4558 37.5956 29.3387 37.5586 29.22 37.5586C29.1013 37.5586 28.9842 37.5956 28.8783 37.6667L26.3529 39.5932C26.2499 39.6656 26.1637 39.7737 26.1036 39.9061C26.0435 40.0384 26.0117 40.1899 26.0117 40.3443C26.0117 40.4988 26.0435 40.6503 26.1036 40.7826C26.1637 40.9149 26.2499 41.0231 26.3529 41.0955L28.2343 42.5331C28.3402 42.6041 28.4573 42.6411 28.576 42.6411C28.6948 42.6411 28.8118 42.6041 28.9178 42.5331Z" fill="white"/>
<path d="M26.3523 40.1155L28.2337 41.5531C28.3396 41.6242 28.4567 41.6612 28.5754 41.6612C28.6942 41.6612 28.8112 41.6242 28.9171 41.5531L31.4425 39.6266C31.4837 39.6081 31.5195 39.5729 31.5449 39.5261C31.5703 39.4792 31.5839 39.423 31.5839 39.3654C31.5839 39.3078 31.5703 39.2516 31.5449 39.2047C31.5195 39.1579 31.4837 39.1227 31.4425 39.1042L29.5611 37.6667C29.4552 37.5956 29.3381 37.5586 29.2194 37.5586C29.1007 37.5586 28.9836 37.5956 28.8777 37.6667L26.3523 39.5932C26.3111 39.6117 26.2753 39.6468 26.2499 39.6937C26.2246 39.7405 26.2109 39.7967 26.2109 39.8544C26.2109 39.912 26.2246 39.9682 26.2499 40.015C26.2753 40.0619 26.3111 40.097 26.3523 40.1155Z" fill="#810019"/>
<path d="M27.8881 27.3278L27.5677 29.0767L26.1914 29.1875L26.4881 26.7637L27.8881 27.3278Z" fill="#FFA8A7"/>
<path d="M29.2302 26.0117C29.2302 26.0117 29.388 26.7514 29.3233 26.7932C29.2239 26.8133 29.1228 26.8133 29.0234 26.7932L29.2302 26.0117Z" fill="#F28F8F"/>
<path d="M28.9689 23.6486C29.1898 23.9934 29.3919 24.5596 29.2356 25.947C29.0652 27.464 28.8537 27.6395 28.6832 27.7858C28.4607 27.978 27.5705 27.8756 27.3195 27.6332C27.018 27.3428 26.5524 26.4213 26.4419 25.5124C26.3125 24.4447 26.5824 23.2599 27.1759 23.0573C28.0108 22.771 28.7811 23.3561 28.9689 23.6486Z" fill="#FFA8A7"/>
<path d="M26.3506 27.2538C26.5637 27.5463 27.0009 27.6257 27.2755 27.6925C27.5502 27.7594 28.3946 27.8325 28.644 27.0364C28.8933 26.2404 28.7229 25.6678 29.0291 25.4756C29.3353 25.2834 29.6415 25.158 29.722 25.0577C29.8025 24.9574 29.804 23.6473 28.9817 22.9682C28.1594 22.2891 26.8999 22.1324 26.0713 23.5094C25.4431 24.5729 25.7003 26.3553 26.3506 27.2538Z" fill="#455A64"/>
<path d="M27.1797 27.7026C27.3928 27.7276 28.0667 27.5876 28.2703 27.2199C28.4739 26.8521 28.556 26.1939 28.586 25.8492C28.5888 25.7134 28.6264 25.5829 28.6926 25.4792C28.7589 25.3755 28.8499 25.3048 28.9506 25.2787C29.1542 25.1931 29.604 24.9005 29.604 24.9005V24.7376C29.7491 24.7255 29.8946 24.7255 30.0396 24.7376C30.1344 24.7606 30.0823 24.9465 29.8424 25.1074C29.6024 25.2683 28.9443 25.5796 28.8433 25.6862C28.7422 25.7928 28.6949 26.242 28.6144 26.7205C28.5339 27.199 28.2845 27.9136 27.1797 27.7026Z" fill="#37474F"/>
<path d="M29.0724 29.6825L29.8616 29.0829C29.9374 28.7799 29.8158 28.6273 29.6012 28.6461C29.3865 28.665 29.4528 28.3891 29.3218 28.3118C29.1498 28.2074 29.0519 28.2659 28.9746 28.2178C28.8973 28.1697 28.8641 28.0486 28.7631 28.0339C28.3117 27.9775 28.0039 28.83 28.0039 28.83L29.0724 29.6825Z" fill="#F28F8F"/>
<path d="M23.7188 37.3537C23.7188 37.3537 27.2053 35.0657 27.813 34.6959C28.4206 34.3261 29.374 33.7891 29.8806 33.7891C30.0786 33.8107 30.2641 33.9262 30.4029 34.1142C30.5418 34.3023 30.6248 34.5504 30.6366 34.8129C30.6432 35.216 30.6258 35.6191 30.5846 36.0185C29.6266 36.4346 28.6477 36.7606 27.6551 36.9943C26.2046 37.3287 23.7188 37.3537 23.7188 37.3537Z" fill="#37474F"/>
<path d="M24.0965 36.0329C24.0965 36.9816 24.0286 37.9678 24.3269 38.6615C24.6252 39.3552 26.2415 40.96 27.763 40.6235C28.7573 40.4021 31.7088 38.603 31.7088 38.603C31.7088 38.603 33.1404 37.9072 33.1467 37.412C33.1562 36.6828 33.1183 35.6547 31.8698 35.6986C30.7318 35.7383 27.3747 36.6661 27.3747 36.6661L24.0965 36.0329Z" fill="#455A64"/>
<path d="M25.0699 28.5169C25.6097 27.7709 25.9743 27.7082 26.2331 27.8002C26.828 28.0256 27.4039 28.3308 27.9519 28.7112C27.9519 28.7112 27.7436 31.3816 28.73 32.1505V36.3128C28.73 36.3128 28.7001 36.7641 28.2708 37.2133C27.8919 37.6082 27.0349 38.0073 26.0121 37.8945C24.7968 37.7608 24.096 36.0328 24.096 36.0328C24.096 36.0328 24.0645 32.629 24.2365 31.2771C24.4385 29.6995 24.8836 28.776 25.0699 28.5169Z" fill="#455A64"/>
<path d="M28.7313 32.3519C28.7313 32.3519 28.1346 31.7251 27.9531 30.9102C27.9531 30.9102 28.0242 32.1889 28.7313 32.8367V32.3519Z" fill="#37474F"/>
<path d="M34.2544 34.3143C34.5377 34.3298 34.8164 34.2154 35.0435 33.9905C35.0435 33.9905 35.3182 33.2842 35.6559 33.3448C35.6559 33.3448 35.7159 33.0439 35.577 32.9457C35.4381 32.8475 35.3781 32.8747 35.3213 32.7702C35.2645 32.6657 35.2582 32.4714 35.0056 32.4714C34.9015 32.4714 34.9157 32.3732 34.6631 32.3335C34.4106 32.2938 34.1612 33.0648 33.9766 33.0648L34.2544 34.3143Z" fill="#FFA8A7"/>
<path d="M27.9507 28.7109C28.8172 28.8885 29.1313 29.2291 29.447 29.6157C29.7626 30.0022 31.6945 32.5681 31.6945 32.5681L34.0336 33.0132C34.1566 33.145 34.2468 33.3226 34.2925 33.523C34.3872 33.8866 34.302 34.2836 34.212 34.3776C34.212 34.3776 31.8918 34.5615 31.4357 34.4466C30.9795 34.3317 28.7209 32.3466 28.7209 32.3466C28.5051 32.1311 28.324 31.8605 28.1885 31.5508C28.0529 31.2411 27.9656 30.8985 27.9318 30.5434C27.785 29.2835 27.9507 28.7109 27.9507 28.7109Z" fill="#455A64"/>
<path d="M25.8711 39.7487L22.2867 45.5407C22.2469 45.5474 22.2069 45.5509 22.1667 45.5512C22.0246 45.5541 21.8841 45.5103 21.758 45.4237L18.7307 43.1086L18.5255 42.9518C18.4134 42.8662 18.3203 42.5151 18.3203 42.1683V41.1925C18.3202 40.1901 18.5194 39.2054 18.8978 38.3372C19.2763 37.469 19.8207 36.748 20.4763 36.2467L24.0907 33.4844L27.9372 36.4243L25.8711 39.7487Z" fill="#810019"/>
<g opacity="0.1">
<path d="M25.8711 39.7447L22.2867 45.5368C22.2469 45.5435 22.2069 45.547 22.1667 45.5473C22.0246 45.5502 21.8841 45.5064 21.758 45.4198L18.7307 43.1046L18.5255 42.9479C18.4134 42.8623 18.3203 42.5112 18.3203 42.1644V41.1886C18.3202 40.1862 18.5194 39.2015 18.8978 38.3333C19.2763 37.4651 19.8207 36.7441 20.4763 36.2428L24.0907 33.4805L27.9372 36.4204L25.8711 39.7447Z" fill="black"/>
</g>
<path d="M24.6352 41.7441L27.9324 36.4243L24.086 33.4844L20.4731 36.2446C20.0058 36.6028 19.5935 37.0741 19.2578 37.6341L24.6352 41.7441Z" fill="#810019"/>
<path d="M27.9345 40.6968C27.9345 41.0437 27.843 41.3947 27.7293 41.4804L27.5241 41.6371L22.5744 45.4212C22.4844 45.4854 22.3857 45.5259 22.284 45.5403C22.2442 45.5469 22.2042 45.5504 22.1641 45.5507V44.1319C22.1639 43.1293 22.3633 42.1444 22.742 41.2761C23.1208 40.4079 23.6656 39.6871 24.3217 39.1861L24.7305 38.8748L27.9345 36.4238V40.6968Z" fill="#810019"/>
<g opacity="0.2">
<path d="M27.9345 40.6929C27.9345 41.0398 27.843 41.3908 27.7293 41.4765L27.5241 41.6332L22.5744 45.4173C22.4844 45.4815 22.3857 45.522 22.284 45.5364C22.2442 45.543 22.2042 45.5465 22.1641 45.5468V44.128C22.1639 43.1254 22.3633 42.1405 22.742 41.2722C23.1208 40.404 23.6656 39.6832 24.3217 39.1822L24.7305 38.8709L27.9345 36.4199V40.6929Z" fill="black"/>
</g>
<path d="M28.9958 47.8615L30.9325 47.8531L33.704 45.7344L30.9893 48.3316L28.9453 48.3692L28.9958 47.8615Z" fill="#E0E0E0"/>
<path d="M24.293 51.5088C24.293 51.5088 27.7843 49.7662 28.0811 49.5614C28.4293 49.2789 28.7597 48.9595 29.0691 48.6065C29.1322 48.4959 29.1619 48.3582 29.1523 48.2202C29.1426 48.0822 29.0944 47.9539 29.017 47.8605C29.017 47.8605 27.5965 47.7749 27.2319 47.9232C27.0283 48.0047 23.7422 49.4005 23.7422 49.4005L24.293 51.5088Z" fill="#E0E0E0"/>
<path d="M24.1382 49.5638C23.8493 49.2357 23.5589 49.3716 23.4879 49.8647C23.4608 50.1368 23.4825 50.4135 23.5513 50.6723C23.6202 50.9312 23.7342 51.1649 23.8841 51.3545C24.1729 51.6825 24.4633 51.5488 24.5343 51.0536C24.5613 50.7815 24.5395 50.5049 24.4707 50.246C24.4019 49.9872 24.288 49.7535 24.1382 49.5638Z" fill="#455A64"/>
</svg>
