<svg width="29" height="30" viewBox="0 0 29 30" fill="none" xmlns="http://www.w3.org/2000/svg">
<path d="M4.93497 10.9687C4.31536 10.4925 4.0335 9.90931 4.24004 9.18279C4.4733 8.36393 5.09776 8.02862 5.95549 7.99946C5.557 7.36527 5.14393 6.79183 4.82319 6.17223C4.39554 5.34609 4.0335 4.48593 3.65445 3.63549C3.59127 3.49456 3.56697 3.32933 3.55239 3.17382C3.49651 2.63683 3.46492 2.09497 3.98004 1.73536C4.49274 1.37575 4.95197 1.66975 5.42093 1.88601C5.91419 2.11441 6.40501 2.35497 6.92014 2.52748C7.54703 2.73645 8.0986 2.5202 8.57971 2.09497C9.86752 0.955385 11.1796 0.945666 12.4553 2.09255C13.1624 2.72916 13.9302 2.69271 14.7272 2.36226C15.133 2.1946 15.5047 1.94433 15.9032 1.75723C16.8508 1.31743 17.626 1.81311 17.5069 2.84822C17.4316 3.49942 17.242 4.17005 16.9529 4.7605C16.4135 5.86364 15.7671 6.91333 15.1524 8.00432C15.2277 8.01161 15.3273 8.02133 15.4245 8.03348C16.3187 8.15497 16.8946 8.8256 16.8557 9.70277C16.8168 10.5313 16.1729 11.168 15.2909 11.1898C14.2655 11.2141 13.2377 11.1971 12.2123 11.1971C10.283 11.1971 8.35373 11.1874 6.42445 11.2093C6.19362 11.2117 5.90933 11.3332 5.74653 11.496C5.28729 11.9577 4.87422 12.4679 4.44657 12.9612C4.21088 13.2333 3.98976 13.6707 3.56697 13.3232C3.14661 12.9782 3.5281 12.6599 3.74921 12.3829C4.1234 11.9139 4.51704 11.4644 4.93497 10.9687ZM4.50975 2.46188C4.45872 2.4959 4.40769 2.53234 4.3591 2.56636C4.43685 2.93084 4.44171 3.33419 4.60937 3.6525C5.26056 4.899 5.93606 6.13578 6.66014 7.34341C7.13882 8.14282 7.27489 8.15497 8.24682 7.94357C8.24682 7.31911 8.24925 6.68735 8.24682 6.05317C8.24439 5.69841 8.26383 5.32179 8.72793 5.33151C9.15315 5.34123 9.17745 5.69841 9.17502 6.03616C9.17016 6.68249 9.17259 7.32883 9.17259 7.97759C10.1056 7.97759 10.9779 7.97759 11.8746 7.97759C11.8746 7.35313 11.8697 6.7724 11.877 6.18924C11.8818 5.82962 11.7871 5.34609 12.3241 5.33394C12.8684 5.32179 12.7906 5.79803 12.793 6.16251C12.7955 6.7724 12.793 7.38471 12.793 8.12095C13.279 8.00918 13.8694 8.04806 14.025 7.8075C14.8997 6.4468 15.6845 5.03021 16.4596 3.60876C16.6224 3.30746 16.6103 2.9114 16.6808 2.55907C16.6346 2.52748 16.5909 2.4959 16.5447 2.46188C16.2701 2.60038 15.9883 2.7243 15.7234 2.87981C14.1829 3.78128 13.0263 3.6938 11.6486 2.5615C10.9415 1.98077 9.99144 2.01236 9.28679 2.66598C8.7911 3.12522 8.24196 3.44596 7.55189 3.47998C6.72818 3.51885 5.98708 3.26615 5.28729 2.85308C5.03459 2.70972 4.76731 2.59309 4.50975 2.46188ZM10.458 10.2738C11.4129 10.2738 12.3702 10.2738 13.3252 10.2738C13.9812 10.2738 14.6348 10.2786 15.2909 10.2665C15.7161 10.2568 15.9567 9.99921 15.9542 9.59343C15.9518 9.21194 15.7161 8.97868 15.3176 8.94466C15.1427 8.93008 14.9629 8.93251 14.7879 8.93251C12.4869 8.93251 10.1834 8.93251 7.88235 8.93251C7.20929 8.93251 6.53622 8.93251 5.86316 8.93494C5.51812 8.93737 5.23383 9.04186 5.12449 9.40876C4.9787 9.8923 5.29701 10.2641 5.88989 10.2689C7.41339 10.2786 8.93446 10.2713 10.458 10.2738Z" fill="white"/>
<path d="M28.2055 20.4792C28.2055 22.5786 28.2079 24.6779 28.2055 26.7749C28.2055 27.844 27.6855 28.3615 26.6115 28.3615C23.443 28.364 20.277 28.364 17.1085 28.3615C16.0248 28.3615 15.5145 27.861 15.5121 26.7773C15.5072 22.5615 15.5072 18.3458 15.5121 14.13C15.5121 13.0342 16.0053 12.5507 17.1036 12.5507C20.2721 12.5482 23.4382 12.5482 26.6067 12.5507C27.7195 12.5507 28.2031 13.0488 28.2055 14.1811C28.2079 16.2804 28.2055 18.3798 28.2055 20.4792ZM16.4135 20.4719C16.4135 22.5372 16.4135 24.6002 16.4135 26.6655C16.4135 27.3532 16.5034 27.4504 17.1619 27.4528C20.2964 27.4552 23.4284 27.4552 26.5629 27.4528C27.202 27.4528 27.2919 27.3605 27.2919 26.7044C27.2943 22.5397 27.2943 18.3749 27.2919 14.2102C27.2919 13.5396 27.1923 13.4448 26.5192 13.4424C23.4212 13.44 20.3231 13.44 17.2251 13.4424C16.5059 13.4424 16.4135 13.5396 16.4135 14.2783C16.4135 16.3412 16.4135 18.4065 16.4135 20.4719Z" fill="white"/>
<path d="M10.6572 27.5307C11.6316 27.4019 12.6983 27.261 13.7626 27.1177C13.833 27.1079 13.9011 27.0934 13.9715 27.0812C14.2534 27.0302 14.528 27.035 14.6081 27.3728C14.6908 27.7202 14.4842 27.8782 14.1611 27.9584C12.5306 28.3617 10.8711 28.4735 9.20906 28.3034C8.16181 28.1965 7.09754 28.0264 6.09645 27.7105C3.11991 26.7726 1.55753 24.6198 1.12259 21.6019C0.818866 19.5001 1.03026 17.4518 1.86126 15.4836C1.91472 15.3548 1.94631 15.1775 2.04593 15.1119C2.21359 15.0001 2.47115 14.8592 2.60965 14.9199C2.74572 14.9807 2.82104 15.2674 2.84291 15.4642C2.85749 15.6027 2.736 15.7558 2.67526 15.9016C1.79566 18.0301 1.67903 20.2242 2.22574 22.4354C2.91581 25.2272 4.87911 26.6657 7.60052 27.1808C8.57002 27.3655 9.56382 27.4092 10.6572 27.5307Z" fill="white"/>
<path d="M21.8758 18.4133C20.8674 18.4133 19.8615 18.4181 18.8531 18.4133C18.1047 18.4084 17.7888 18.0974 17.7816 17.3563C17.7767 16.8096 17.7694 16.2629 17.7864 15.7186C17.8034 15.1743 18.1412 14.8147 18.683 14.8098C20.8043 14.7977 22.9255 14.7953 25.0467 14.8098C25.5789 14.8123 25.9166 15.1743 25.9409 15.7332C25.9652 16.3139 25.9652 16.8971 25.9409 17.4778C25.9142 18.0828 25.5643 18.406 24.952 18.4109C23.9266 18.4206 22.9012 18.4133 21.8758 18.4133ZM24.9787 17.5191C24.9787 16.8752 24.9787 16.3066 24.9787 15.7405C22.872 15.7405 20.8091 15.7405 18.6782 15.7405C18.6782 15.9737 18.6782 16.1803 18.6782 16.3868C18.6757 17.5191 18.6757 17.5191 19.8129 17.5191C21.5235 17.5191 23.2341 17.5191 24.9787 17.5191Z" fill="white"/>
<path d="M18.8798 24.2843C18.6514 24.2843 18.3963 24.345 18.1994 24.2649C18.0293 24.1968 17.8374 23.9757 17.8204 23.8056C17.8082 23.6817 18.0536 23.429 18.2019 23.412C18.6733 23.361 19.1592 23.361 19.6306 23.4144C19.7764 23.4314 20.0169 23.6914 20.0024 23.8153C19.9805 23.9854 19.7861 24.2065 19.616 24.2673C19.3949 24.345 19.1252 24.2867 18.8798 24.2843C18.8798 24.2867 18.8798 24.2867 18.8798 24.2843Z" fill="white"/>
<path d="M18.9235 25.1982C19.1544 25.1982 19.4071 25.1374 19.6063 25.2152C19.7788 25.2832 19.9781 25.4946 20.0024 25.6647C20.0194 25.7886 19.7837 26.0559 19.6379 26.0729C19.1665 26.1264 18.6805 26.1337 18.2116 26.0754C18.0561 26.0559 17.8155 25.7838 17.8204 25.6356C17.8252 25.4849 18.0609 25.2759 18.2383 25.2103C18.44 25.1374 18.6927 25.1933 18.9211 25.1933C18.9235 25.1958 18.9235 25.1982 18.9235 25.1982Z" fill="white"/>
<path d="M22.0652 24.2862C21.8344 24.2862 21.5817 24.347 21.3825 24.2668C21.2124 24.1988 21.018 23.9849 20.9961 23.8148C20.9815 23.6909 21.2197 23.4285 21.3655 23.4115C21.8368 23.358 22.3204 23.358 22.7942 23.4091C22.9448 23.4261 23.1927 23.6788 23.1781 23.8027C23.1611 23.9728 22.9691 24.2012 22.7991 24.2619C22.5804 24.3421 22.3107 24.2814 22.0652 24.2814C22.0652 24.2862 22.0652 24.2862 22.0652 24.2862Z" fill="white"/>
<path d="M22.075 26.0917C21.8272 26.0917 21.5623 26.1476 21.3388 26.0723C21.1833 26.0188 20.9889 25.788 20.9937 25.6397C20.9962 25.4915 21.21 25.2388 21.3534 25.2218C21.8247 25.1659 22.3107 25.1611 22.7821 25.2194C22.94 25.2388 23.183 25.5085 23.1782 25.6568C23.1733 25.8098 22.9376 26.0188 22.7602 26.0868C22.5586 26.1622 22.3058 26.1038 22.0774 26.1038C22.075 26.099 22.075 26.0941 22.075 26.0917Z" fill="white"/>
<path d="M25.2265 24.2866C24.9981 24.2866 24.7478 24.3401 24.5437 24.2696C24.3809 24.2137 24.1549 23.9877 24.1695 23.8638C24.1914 23.6937 24.3979 23.4362 24.5534 23.4143C25.0054 23.3536 25.4743 23.3511 25.9263 23.4094C26.0939 23.4313 26.3466 23.6719 26.3539 23.8225C26.3612 23.9732 26.1328 24.2064 25.9603 24.2696C25.7416 24.3474 25.4743 24.2866 25.2265 24.2866Z" fill="white"/>
<path d="M18.9089 21.585C19.1398 21.585 19.39 21.5267 19.5917 21.602C19.7667 21.6676 19.9683 21.8669 19.9999 22.037C20.0218 22.156 19.7885 22.4354 19.6476 22.45C19.1592 22.501 18.6587 22.501 18.1703 22.45C18.0293 22.4354 17.7936 22.156 17.8155 22.037C17.8471 21.8669 18.0512 21.6676 18.2261 21.602C18.4278 21.5291 18.6805 21.585 18.9089 21.585Z" fill="white"/>
<path d="M22.0458 22.5032C21.8004 22.4887 21.538 22.5203 21.312 22.4449C21.1686 22.3963 20.9767 22.1752 20.9913 22.0513C21.0083 21.8885 21.1954 21.6309 21.3314 21.6139C21.8198 21.5605 22.3228 21.558 22.8112 21.6091C22.957 21.6236 23.1757 21.8715 23.1805 22.0173C23.1854 22.1631 22.9886 22.4012 22.8355 22.4474C22.5925 22.5202 22.3131 22.4668 22.0482 22.4668C22.0458 22.4789 22.0458 22.4911 22.0458 22.5032Z" fill="white"/>
<path d="M25.2653 21.585C25.4961 21.585 25.7464 21.5267 25.9481 21.602C26.1255 21.6676 26.3296 21.8693 26.3587 22.0394C26.3806 22.156 26.1376 22.433 25.9943 22.45C25.5059 22.501 25.0053 22.501 24.5169 22.45C24.3784 22.4354 24.167 22.1755 24.1695 22.0297C24.1719 21.8814 24.3711 21.6603 24.5291 21.6093C24.7526 21.5364 25.0175 21.5899 25.2653 21.5899C25.2653 21.5899 25.2653 21.5874 25.2653 21.585Z" fill="white"/>
<path d="M25.2872 25.195C25.4986 25.195 25.7343 25.1391 25.919 25.212C26.1012 25.2825 26.3466 25.4744 26.3564 25.6275C26.3661 25.7757 26.128 26.0576 25.9724 26.077C25.5035 26.1378 25.0175 26.1378 24.5461 26.077C24.3955 26.0576 24.1647 25.7733 24.1744 25.6251C24.1841 25.472 24.4246 25.2752 24.602 25.212C24.8086 25.1391 25.0588 25.1926 25.2872 25.195Z" fill="white"/>
<path d="M18.8919 20.6637C18.6635 20.6637 18.4108 20.722 18.2116 20.6467C18.0391 20.5811 17.8155 20.3527 17.8228 20.2093C17.8301 20.0587 18.0779 19.823 18.2432 19.8011C18.6757 19.7428 19.1301 19.7379 19.5601 19.8035C19.7351 19.8303 19.8736 20.0903 20.0291 20.2458C19.8784 20.3867 19.7521 20.5932 19.5747 20.654C19.3706 20.7245 19.1228 20.671 18.8919 20.671C18.8919 20.6661 18.8919 20.6661 18.8919 20.6637Z" fill="white"/>
<path d="M22.0386 20.6589C21.8102 20.6589 21.5624 20.7124 21.3583 20.6419C21.2003 20.586 20.9962 20.3746 20.9962 20.2312C20.9962 20.083 21.2028 19.823 21.3413 19.806C21.8296 19.7526 22.3302 19.7526 22.8186 19.8036C22.9619 19.8182 23.1782 20.0684 23.1831 20.2142C23.1855 20.3576 22.9838 20.5884 22.8307 20.6346C22.5878 20.7051 22.3083 20.654 22.0435 20.654C22.0386 20.6565 22.0386 20.6565 22.0386 20.6589Z" fill="white"/>
<path d="M25.3018 20.6639C25.054 20.6639 24.7891 20.7198 24.568 20.6444C24.3979 20.5861 24.1695 20.3577 24.1768 20.2119C24.1841 20.0613 24.4246 19.8183 24.5874 19.7964C25.0394 19.7405 25.5084 19.7381 25.9579 19.7989C26.1182 19.8207 26.3296 20.0661 26.3588 20.2362C26.3782 20.3504 26.145 20.5813 25.9822 20.6396C25.7781 20.71 25.5302 20.6566 25.3018 20.6566C25.3018 20.6614 25.3018 20.6639 25.3018 20.6639Z" fill="white"/>
</svg>
