<svg width="95" height="99" viewBox="0 0 95 99" fill="none" xmlns="http://www.w3.org/2000/svg">
<path fill-rule="evenodd" clip-rule="evenodd" d="M14.2056 9.44629C11.8829 9.44629 10 11.3292 10 13.6519L10 87.5734C19.0907 85.3538 29.4352 84.0509 41.0246 84.0509C56.9511 84.0509 70.1934 85.6171 81.1599 88.1942L81.1599 13.6519C81.1599 11.3292 79.277 9.44629 76.9543 9.44629L14.2056 9.44629Z" fill="url(#paint0_linear_15532_7516)"/>
<rect opacity="0.800525" x="14.4492" y="13.8931" width="62.2649" height="78.2612" rx="4.20561" fill="url(#paint1_linear_15532_7516)"/>
<rect x="18.6953" y="20.0205" width="53.37" height="34.6839" fill="url(#paint2_linear_15532_7516)"/>
<rect x="18.8984" y="60.1377" width="53.37" height="5.33599" fill="url(#paint3_linear_15532_7516)"/>
<rect x="18.8984" y="72.5894" width="53.37" height="5.33599" fill="url(#paint4_linear_15532_7516)"/>
<rect x="25.125" y="8.55762" width="40.917" height="7.11465" fill="#D8DDE2"/>
<path d="M35.9352 5L55.2286 5L58.0349 8.55733L33.1289 8.55733L35.9352 5Z" fill="#D0D6DC"/>
<path fill-rule="evenodd" clip-rule="evenodd" d="M58.697 61.9177C59.7755 61.9431 60.7608 61.3226 61.1848 60.3515C61.6088 59.3802 61.3856 58.2542 60.6215 57.5086L53.8856 50.8952C52.8547 49.8859 51.183 49.8859 50.1521 50.8952C49.1212 51.9045 49.1212 53.5411 50.1521 54.5505L56.9071 61.1452C57.3793 61.6194 58.0208 61.8963 58.697 61.9177Z" fill="#838383"/>
<path fill-rule="evenodd" clip-rule="evenodd" d="M33.5006 51.9294C29.1599 47.612 28.534 40.8906 32.0052 35.874C35.4764 30.8574 42.0788 28.9418 47.7765 31.2983C53.4741 33.6548 56.6811 39.6275 55.437 45.5652C54.1928 51.5029 48.844 55.7531 42.6601 55.7177C39.2151 55.6959 35.9202 54.3331 33.5006 51.9294Z" fill="#939AA0"/>
<path fill-rule="evenodd" clip-rule="evenodd" d="M35.221 35.6586C31.1209 39.6845 31.1247 46.2054 35.2295 50.2266C39.3343 54.2477 45.9869 54.2477 50.0915 50.2266C54.1962 46.2054 54.2 39.6845 50.1001 35.6586C45.989 31.6366 39.332 31.6366 35.221 35.6586Z" fill="white"/>
<mask id="mask0_15532_7516" style="mask-type:luminance" maskUnits="userSpaceOnUse" x="32" y="32" width="22" height="22">
<path fill-rule="evenodd" clip-rule="evenodd" d="M35.221 35.6586C31.1209 39.6845 31.1247 46.2054 35.2295 50.2266C39.3343 54.2477 45.9869 54.2477 50.0915 50.2266C54.1962 46.2054 54.2 39.6845 50.1001 35.6586C45.989 31.6366 39.332 31.6366 35.221 35.6586Z" fill="white"/>
</mask>
<g mask="url(#mask0_15532_7516)">
<path d="M46.0706 37.5371C47.0106 37.5371 47.7727 38.2957 47.7727 39.2312C47.7727 40.1668 47.0106 40.9254 46.0706 40.9254C45.1309 40.9254 44.3688 40.1668 44.3688 39.2312C44.3688 38.2957 45.1309 37.5371 46.0706 37.5371L46.0706 37.5371ZM47.6129 41.5137C46.8472 41.5137 46.2261 42.132 46.2261 42.8939C46.2261 43.6564 46.8472 44.2744 47.6129 44.2746C48.3789 44.2746 49 43.6564 49 42.8939C49 42.132 48.3789 41.5137 47.6129 41.5137H47.6129ZM46.0048 45.5107C45.47 45.5107 45.0362 45.9425 45.0362 46.4749C45.0362 47.0073 45.47 47.4391 46.0048 47.4391C46.5396 47.4391 46.9735 47.0073 46.9735 46.4749C46.9735 45.9425 46.5397 45.5107 46.0048 45.5107ZM42.3001 47.0708C41.7653 47.0708 41.3314 47.5027 41.3314 48.035C41.3314 48.5677 41.7652 48.9995 42.3001 48.9995C42.8347 48.9995 43.2685 48.5677 43.2685 48.035C43.2685 47.5027 42.8347 47.0708 42.3001 47.0708H42.3001ZM38.5139 45.6119C38.0125 45.6119 37.6062 46.0164 37.6062 46.5154C37.6062 47.0142 38.0126 47.4189 38.5139 47.4189C39.015 47.4189 39.4213 47.0142 39.4213 46.5154C39.4213 46.0164 39.015 45.6119 38.5139 45.6119ZM36.9667 41.8047C36.4329 41.8047 36 42.2356 36 42.7668C36 43.2979 36.4329 43.7288 36.9667 43.7288C37.5004 43.7288 37.9332 43.2979 37.9332 42.7668C37.9332 42.2356 37.5004 41.8047 36.9667 41.8047ZM38.5139 37.8008C37.8385 37.8008 37.2907 38.3461 37.2907 39.0184C37.2907 39.6906 37.8385 40.2357 38.5139 40.2357C39.1892 40.2357 39.7368 39.6906 39.7368 39.0184C39.7368 38.3461 39.1892 37.8008 38.5139 37.8008ZM42.307 35.9995C41.4939 35.9995 40.8342 36.6559 40.8342 37.4654C40.8342 38.2749 41.4938 38.9313 42.307 38.9313C43.12 38.9313 43.7794 38.2749 43.7794 37.4654C43.7794 36.6559 43.12 35.9995 42.3071 35.9995H42.307Z" fill="#C4C4C4"/>
<path d="M52.1873 35.4559C52.1873 45.4471 47.3202 53.1645 40.3598 57.5228C33.3994 61.881 53.1625 54.7043 53.1625 54.7043L57.068 40.9538C57.068 40.9538 52.1873 25.4647 52.1873 35.4559Z" fill="url(#paint5_linear_15532_7516)"/>
</g>
<path d="M73.8171 91.8042L88.9774 97.7292L92.4587 92.7482L77.2063 89.2014L73.8171 91.8042Z" fill="url(#paint6_linear_15532_7516)"/>
<path d="M72.996 66.4339L83.4111 67.2549L81.0983 89.9097C81.0983 89.9097 80.8957 90.1362 80.4043 90.0483C79.9129 89.9604 79.3974 89.687 79.3974 89.687L77.8484 71.677C77.8484 71.677 76.9526 78.0453 77.0151 79.837C77.0623 81.1868 77.5238 82.8336 77.7708 84.2422C77.9834 85.4544 78.4307 88.3515 78.4307 88.3515C78.4307 88.3515 77.9022 88.5929 77.6211 88.6474C77.34 88.7019 76.9796 88.4022 76.9796 88.4022C76.9796 88.4022 73.328 81.3136 73.281 79.9674C73.234 78.6212 72.996 66.4339 72.996 66.4339Z" fill="url(#paint7_linear_15532_7516)"/>
<path d="M76.8117 88.3678C76.8117 88.3678 76.3479 89.2032 75.7716 89.7124C75.1953 90.2216 74.0582 90.8297 73.7989 91.106C73.5397 91.3823 73.8228 91.7895 73.8228 91.7895L76.6098 91.6921L78.8368 89.8081L78.5256 88.0127L76.8117 88.3678Z" fill="#677285"/>
<path d="M81.3556 89.3359L82.0063 91.1405C82.0063 91.1405 80.9378 91.968 79.4615 92.1983C77.9852 92.4286 76.968 92.0748 76.968 92.0748C76.968 92.0748 76.7014 91.5378 77.2038 91.3082C77.4345 91.2028 77.9517 90.7645 78.4057 90.2034C78.6107 89.9501 79.3828 89.4048 79.3828 89.4048L81.3556 89.3359Z" fill="#677285"/>
<path d="M86.0326 54.6227C86.0326 54.6227 86.8862 55.9213 87.4096 55.5738C87.9331 55.2264 91.2008 51.8771 91.2008 51.8771C91.2008 51.8771 92.1728 51.1287 92.3526 51.3066C92.5324 51.4845 92.0284 51.8771 92.0284 51.8771C92.0284 51.8771 93.0892 51.9813 93.4206 51.9813C93.752 51.9813 94.4491 52.5104 93.9933 52.6885C93.5375 52.8666 91.7692 52.9105 91.7692 52.9105C91.7692 52.9105 89.0846 57.9873 87.6857 58.3473C86.2868 58.7073 84.3594 56.6714 84.3594 56.6714L86.0326 54.6227Z" fill="#FDE7E6"/>
<path d="M72.3914 54.7159C72.3914 54.7159 71.8317 55.8619 71.3245 55.5869C70.8173 55.312 67.9714 52.3108 67.9714 52.3108C67.9714 52.3108 67.0237 51.7303 66.7919 51.8348C66.5602 51.9392 67.1315 52.3108 67.1315 52.3108C67.1315 52.3108 65.7372 52.4239 65.4749 52.5293C65.2126 52.6348 64.9071 52.9581 65.3037 53.1051C65.7003 53.252 67.2184 53.3566 67.2184 53.3566C67.2184 53.3566 69.3288 57.5269 70.9278 58.0146C72.5267 58.5022 73.8889 56.5808 73.8889 56.5808L72.3914 54.7159Z" fill="#FDE7E6"/>
<path d="M77.5739 51.2075V49.1585C77.5739 49.1585 76.5116 49.2123 76.0797 48.501C75.6479 47.7896 75.5312 45.7709 75.5312 45.7709L75.8566 44.8349L79.0564 44.6997L80.7375 46.1322L79.9548 47.5146L79.8056 47.7803L80.5516 50.9221L77.5739 51.2075Z" fill="#FDE7E6"/>
<mask id="mask1_15532_7516" style="mask-type:luminance" maskUnits="userSpaceOnUse" x="75" y="44" width="6" height="8">
<path d="M77.5739 51.2075V49.1585C77.5739 49.1585 76.5116 49.2123 76.0797 48.501C75.6479 47.7896 75.5312 45.7709 75.5312 45.7709L75.8566 44.8349L79.0564 44.6997L80.7375 46.1322L79.9548 47.5146L79.8056 47.7803L80.5516 50.9221L77.5739 51.2075Z" fill="white"/>
</mask>
<g mask="url(#mask1_15532_7516)">
<path d="M79.6543 47.2112C78.7087 48.3873 77.0731 49.2093 76.8601 49.2093C76.6472 49.2093 78.0494 50.6843 78.0494 50.6843L79.1902 51.2073L80.8094 50.864L81.3875 49.2093L80.367 47.3318C80.367 47.3318 80.5999 46.0351 79.6543 47.2112Z" fill="url(#paint8_linear_15532_7516)"/>
</g>
<path d="M71.7148 55.5392L73.2873 57.6573L74.2901 56.5983C74.2901 56.5983 73.5274 60.7802 73.2873 62.7859C73.0471 64.7915 73.0025 66.7892 73.0025 66.7892C73.0025 66.7892 75.5203 67.724 77.3973 67.8813C79.2742 68.0385 83.6438 67.6336 83.6438 67.6336L83.0797 55.8618L84.7162 57.3811L86.6378 55.1623C86.6378 55.1623 83.33 50.079 82.7044 49.7828C82.0789 49.4867 80.34 49.7828 80.34 49.7828C80.34 49.7828 79.1061 51.2431 78.6057 51.2635C78.1053 51.2838 76.9954 49.7828 76.9954 49.7828C76.9954 49.7828 75.2221 49.4996 74.7065 50.079C74.1909 50.6583 71.7148 55.5392 71.7148 55.5392Z" fill="url(#paint9_linear_15532_7516)"/>
<path d="M75.5264 45.7926C75.5264 45.7926 75.9035 44.841 76.3958 45.0068C76.8616 45.1637 77.2651 45.537 77.8446 45.7123C78.4242 45.8876 78.4882 45.1002 78.8821 45.2332C79.2759 45.3661 79.0159 46.5243 79.2935 46.74C79.5711 46.9557 79.5711 45.2332 80.1628 45.6969C80.7546 46.1606 79.5455 47.4658 79.5455 47.4658C79.5455 47.4658 79.7005 48.2681 79.7502 48.3226C79.7999 48.3772 79.7942 47.739 79.7942 47.739C79.7942 47.739 80.3593 47.5221 80.6002 46.5436C80.841 45.5651 80.9452 45.1756 80.6002 44.4646C80.2552 43.7537 80.1569 43.1969 79.2935 42.8615C78.4301 42.5261 77.7751 42.6573 77.1717 42.8615C76.5682 43.0657 76.1309 43.4715 75.8518 43.8752C75.201 44.8336 75.5264 45.7926 75.5264 45.7926Z" fill="#414141"/>
<g opacity="0.5">
<path d="M5.30083 8.04662L2.04067 6.36767C1.69889 6.19166 1.56632 5.77534 1.74456 5.4378C1.92281 5.10026 2.34437 4.96931 2.68615 5.14533L5.9463 6.82427C6.28808 7.00029 6.42065 7.4166 6.24241 7.75415C6.06417 8.09169 5.6426 8.22263 5.30083 8.04662Z" fill="url(#paint10_linear_15532_7516)"/>
<path d="M8.32582 4.20779L6.03042 1.34797C5.78978 1.04816 5.838 0.613917 6.13812 0.378056C6.43824 0.142195 6.87662 0.194035 7.11726 0.493845L9.41267 3.35366C9.65331 3.65347 9.60509 4.08772 9.30496 4.32358C9.00484 4.55944 8.56646 4.5076 8.32582 4.20779Z" fill="url(#paint11_linear_15532_7516)"/>
<path d="M4.65819 12.3483L0.995341 12.5243C0.611345 12.5428 0.288375 12.2485 0.273967 11.8671C0.259559 11.4857 0.559169 11.1615 0.943165 11.143L4.60601 10.967C4.99001 10.9485 5.31298 11.2427 5.32739 11.6242C5.3418 12.0056 5.04219 12.3298 4.65819 12.3483Z" fill="url(#paint12_linear_15532_7516)"/>
</g>
<defs>
<linearGradient id="paint0_linear_15532_7516" x1="57.3752" y1="82.2793" x2="57.3752" y2="58.7503" gradientUnits="userSpaceOnUse">
<stop stop-color="#F7F7F7"/>
<stop offset="1" stop-color="#E8EAEB"/>
</linearGradient>
<linearGradient id="paint1_linear_15532_7516" x1="14.4492" y1="13.8931" x2="14.4492" y2="92.1542" gradientUnits="userSpaceOnUse">
<stop stop-color="white"/>
<stop offset="0.746404" stop-color="white"/>
<stop offset="1" stop-color="white" stop-opacity="0.697577"/>
</linearGradient>
<linearGradient id="paint2_linear_15532_7516" x1="18.6953" y1="20.0205" x2="18.6953" y2="54.7044" gradientUnits="userSpaceOnUse">
<stop stop-color="#D7D7D7"/>
<stop offset="1" stop-color="#C6C7C7"/>
</linearGradient>
<linearGradient id="paint3_linear_15532_7516" x1="18.8984" y1="60.1377" x2="18.8984" y2="65.4737" gradientUnits="userSpaceOnUse">
<stop stop-color="#EAECEC"/>
<stop offset="1" stop-color="#F0F1F1"/>
</linearGradient>
<linearGradient id="paint4_linear_15532_7516" x1="18.8984" y1="72.5894" x2="18.8984" y2="77.9253" gradientUnits="userSpaceOnUse">
<stop stop-color="#EAECEC"/>
<stop offset="1" stop-color="#F0F1F1"/>
</linearGradient>
<linearGradient id="paint5_linear_15532_7516" x1="49.1524" y1="37.1738" x2="40.9096" y2="46.7396" gradientUnits="userSpaceOnUse">
<stop stop-color="#EEEEEE" stop-opacity="0.367499"/>
<stop offset="1" stop-color="#D8D8D8" stop-opacity="0.01"/>
</linearGradient>
<linearGradient id="paint6_linear_15532_7516" x1="69.6877" y1="94.1481" x2="76.0578" y2="104.577" gradientUnits="userSpaceOnUse">
<stop stop-color="#B7BFC3"/>
<stop offset="0.487221" stop-color="#D9E2E6"/>
<stop offset="1" stop-color="#E6EDF3" stop-opacity="0.01"/>
</linearGradient>
<linearGradient id="paint7_linear_15532_7516" x1="84.164" y1="89.9511" x2="83.3364" y2="66.252" gradientUnits="userSpaceOnUse">
<stop stop-color="#A1A7B8"/>
<stop offset="1" stop-color="#7B8195"/>
</linearGradient>
<linearGradient id="paint8_linear_15532_7516" x1="80.1024" y1="49.8315" x2="80.1024" y2="47.8462" gradientUnits="userSpaceOnUse">
<stop stop-color="#FBD8D6"/>
<stop offset="1" stop-color="#EAC0BE" stop-opacity="0.7"/>
</linearGradient>
<linearGradient id="paint9_linear_15532_7516" x1="64.1656" y1="57.9861" x2="79.8551" y2="74.537" gradientUnits="userSpaceOnUse">
<stop stop-color="#E5E9F0"/>
<stop offset="1" stop-color="#D2DAE8"/>
</linearGradient>
<linearGradient id="paint10_linear_15532_7516" x1="1.66406" y1="5.06836" x2="6.31731" y2="5.05986" gradientUnits="userSpaceOnUse">
<stop stop-color="#8FA1B0"/>
<stop offset="1" stop-color="#5F7083"/>
</linearGradient>
<linearGradient id="paint11_linear_15532_7516" x1="6.21484" y1="0.0078125" x2="10.4693" y2="1.8927" gradientUnits="userSpaceOnUse">
<stop stop-color="#8FA1B0"/>
<stop offset="1" stop-color="#5F7083"/>
</linearGradient>
<linearGradient id="paint12_linear_15532_7516" x1="0.0195312" y1="11.5874" x2="4.04512" y2="9.25342" gradientUnits="userSpaceOnUse">
<stop stop-color="#8FA1B0"/>
<stop offset="1" stop-color="#5F7083"/>
</linearGradient>
</defs>
</svg>
