<svg width="340" height="241" viewBox="0 0 340 241" fill="none" xmlns="http://www.w3.org/2000/svg">
<path d="M263.401 10.8965H66.1703C57.093 10.8965 49.7344 18.2551 49.7344 27.3324L49.7344 224.563C49.7344 233.64 57.093 240.999 66.1703 240.999H263.401C272.478 240.999 279.837 233.64 279.837 224.563V27.3324C279.837 18.2551 272.478 10.8965 263.401 10.8965Z" fill="#EBEBEB"/>
<g filter="url(#filter0_d_13020_4984)">
<path d="M237.118 27.334H15.2336C10.6949 27.334 7.01562 31.0133 7.01562 35.5519L7.01562 76.6416C7.01562 81.1803 10.6949 84.8596 15.2336 84.8596H237.118C241.657 84.8596 245.336 81.1803 245.336 76.6416L245.336 35.5519C245.336 31.0133 241.657 27.334 237.118 27.334Z" fill="white"/>
</g>
<path d="M120.426 40.4824H77.6925C74.9693 40.4824 72.7617 42.69 72.7617 45.4132C72.7617 48.1364 74.9693 50.344 77.6925 50.344H120.426C123.149 50.344 125.357 48.1364 125.357 45.4132C125.357 42.69 123.149 40.4824 120.426 40.4824Z" fill="#DEDEDE"/>
<path d="M150.01 61.8506H77.6925C74.9693 61.8506 72.7617 64.0582 72.7617 66.7814C72.7617 69.5045 74.9693 71.7121 77.6925 71.7121H150.01C152.734 71.7121 154.941 69.5045 154.941 66.7814C154.941 64.0582 152.734 61.8506 150.01 61.8506Z" fill="#EBEBEB"/>
<path d="M51.3836 32.2617H20.1554C15.6168 32.2617 11.9375 35.941 11.9375 40.4797L11.9375 71.7078C11.9375 76.2465 15.6168 79.9258 20.1554 79.9258H51.3836C55.9223 79.9258 59.6016 76.2465 59.6016 71.7078L59.6016 40.4797C59.6016 35.941 55.9223 32.2617 51.3836 32.2617Z" fill="#C4C4C4"/>
<path d="M32.0213 61.489H35.3085L35.3446 60.2235C35.3446 58.5601 36.3933 58.1262 37.8758 57.6562C39.3629 57.2331 40.6719 56.3374 41.6048 55.1044C42.5377 53.8715 43.0437 52.3683 43.0465 50.8221C43.0791 49.8781 42.9153 48.9377 42.5656 48.0602C42.2159 47.1828 41.6878 46.3875 41.0148 45.7248C40.3418 45.062 39.5386 44.5461 38.6559 44.2098C37.7733 43.8736 36.8304 43.7242 35.887 43.7711C34.89 43.7494 33.899 43.9304 32.9741 44.3032C32.0492 44.6759 31.2096 45.2327 30.5063 45.9397C29.803 46.6467 29.2507 47.4891 28.8828 48.416C28.5148 49.3429 28.339 50.3348 28.366 51.3316H31.7649C31.752 50.7812 31.8491 50.2338 32.0505 49.7214C32.2519 49.209 32.5535 48.7419 32.9377 48.3476C33.322 47.9533 33.781 47.6396 34.288 47.425C34.795 47.2104 35.3398 47.0991 35.8903 47.0978C36.3868 47.069 36.8837 47.1474 37.3472 47.3277C37.8106 47.5081 38.2299 47.7861 38.5763 48.1428C38.9228 48.4996 39.1884 48.9268 39.3551 49.3953C39.5218 49.8639 39.5857 50.3629 39.5424 50.8583C39.5205 51.6602 39.2416 52.4338 38.7469 53.0653C38.2521 53.6967 37.5677 54.1526 36.7943 54.3657L35.601 54.8391C34.4328 55.1205 33.4129 55.8305 32.7432 56.8283C32.0735 57.8261 31.803 59.0389 31.9852 60.2267L32.0213 61.489ZM33.6485 69.3026C33.9703 69.3141 34.2913 69.2609 34.5922 69.1461C34.8932 69.0314 35.1681 68.8575 35.4007 68.6347C35.6333 68.4119 35.8189 68.1448 35.9464 67.849C36.074 67.5533 36.141 67.2349 36.1434 66.9129C36.1406 66.5911 36.0733 66.2731 35.9455 65.9777C35.8177 65.6824 35.6321 65.4156 35.3995 65.1931C35.167 64.9707 34.8922 64.7971 34.5915 64.6826C34.2907 64.5681 33.9701 64.5149 33.6485 64.5264C33.3269 64.5149 33.0062 64.5681 32.7055 64.6826C32.4047 64.7971 32.13 64.9707 31.8974 65.1931C31.6648 65.4156 31.4792 65.6824 31.3514 65.9777C31.2237 66.2731 31.1564 66.5911 31.1535 66.9129C31.1559 67.2349 31.2229 67.5533 31.3505 67.849C31.4781 68.1448 31.6636 68.4119 31.8962 68.6347C32.1288 68.8575 32.4037 69.0314 32.7047 69.1461C33.0057 69.2609 33.3266 69.3141 33.6485 69.3026Z" fill="white"/>
<g filter="url(#filter1_d_13020_4984)">
<path d="M85.9015 98.0059H307.786C309.965 98.0059 312.056 98.8717 313.597 100.413C315.138 101.954 316.004 104.044 316.004 106.224V147.314C316.004 149.493 315.138 151.583 313.597 153.124C312.056 154.666 309.965 155.531 307.786 155.531H85.9015C83.722 155.531 81.6317 154.666 80.0906 153.124C78.5494 151.583 77.6836 149.493 77.6836 147.314L77.6836 106.224C77.6836 104.044 78.5494 101.954 80.0906 100.413C81.6317 98.8717 83.722 98.0059 85.9015 98.0059V98.0059Z" fill="white"/>
</g>
<path d="M191.07 111.154H148.337C145.614 111.154 143.406 113.362 143.406 116.085C143.406 118.808 145.614 121.016 148.337 121.016H191.07C193.793 121.016 196.001 118.808 196.001 116.085C196.001 113.362 193.793 111.154 191.07 111.154Z" fill="#DEDEDE"/>
<path d="M220.655 132.522H148.337C145.614 132.522 143.406 134.73 143.406 137.453C143.406 140.176 145.614 142.384 148.337 142.384H220.655C223.378 142.384 225.586 140.176 225.586 137.453C225.586 134.73 223.378 132.522 220.655 132.522Z" fill="#EBEBEB"/>
<path d="M122.059 102.941H90.8312C86.2926 102.941 82.6133 106.621 82.6133 111.159L82.6133 142.388C82.6133 146.926 86.2926 150.605 90.8312 150.605H122.059C126.598 150.605 130.277 146.926 130.277 142.388V111.159C130.277 106.621 126.598 102.941 122.059 102.941Z" fill="#C4C4C4"/>
<path d="M102.697 132.166H105.984L106.02 130.9C106.02 129.237 107.069 128.803 108.552 128.333C110.039 127.91 111.348 127.014 112.281 125.781C113.213 124.548 113.72 123.045 113.722 121.499C113.755 120.555 113.591 119.614 113.241 118.737C112.892 117.86 112.364 117.064 111.691 116.402C111.018 115.739 110.214 115.223 109.332 114.887C108.449 114.55 107.506 114.401 106.563 114.448C105.566 114.426 104.575 114.607 103.65 114.98C102.725 115.353 101.885 115.909 101.182 116.616C100.479 117.323 99.9265 118.166 99.5585 119.093C99.1906 120.02 99.0148 121.012 99.0418 122.008H102.441C102.428 121.458 102.525 120.911 102.726 120.398C102.928 119.886 103.229 119.419 103.614 119.024C103.998 118.63 104.457 118.316 104.964 118.102C105.471 117.887 106.016 117.776 106.566 117.775C107.063 117.746 107.559 117.824 108.023 118.005C108.486 118.185 108.906 118.463 109.252 118.82C109.599 119.176 109.864 119.604 110.031 120.072C110.198 120.541 110.261 121.04 110.218 121.535C110.196 122.337 109.917 123.111 109.423 123.742C108.928 124.374 108.243 124.829 107.47 125.042L106.277 125.516C105.109 125.797 104.089 126.507 103.419 127.505C102.749 128.503 102.479 129.716 102.661 130.903L102.697 132.166ZM104.324 139.979C104.646 139.991 104.967 139.938 105.268 139.823C105.569 139.708 105.844 139.534 106.076 139.311C106.309 139.089 106.495 138.822 106.622 138.526C106.75 138.23 106.817 137.912 106.819 137.59C106.816 137.268 106.749 136.95 106.621 136.654C106.494 136.359 106.308 136.092 106.075 135.87C105.843 135.647 105.568 135.474 105.267 135.359C104.966 135.245 104.646 135.192 104.324 135.203C104.003 135.192 103.682 135.245 103.381 135.359C103.08 135.474 102.806 135.647 102.573 135.87C102.341 136.092 102.155 136.359 102.027 136.654C101.899 136.95 101.832 137.268 101.829 137.59C101.832 137.912 101.899 138.23 102.026 138.526C102.154 138.822 102.339 139.089 102.572 139.311C102.805 139.534 103.08 139.708 103.38 139.823C103.681 139.938 104.002 139.991 104.324 139.979Z" fill="white"/>
<path d="M305.711 33.6181L310.829 32.0478L310.286 30.0772C309.498 27.5099 310.925 26.3392 313.01 24.9055C315.125 23.5421 316.739 21.5343 317.607 19.1856C318.476 16.8369 318.551 14.2749 317.823 11.8872C317.427 10.4146 316.727 9.04124 315.767 7.85401C314.807 6.66678 313.608 5.69155 312.246 4.99004C310.885 4.28854 309.39 3.87604 307.857 3.77865C306.323 3.68126 304.785 3.9011 303.338 4.42426C301.776 4.86698 300.319 5.61976 299.055 6.63696C297.792 7.65416 296.749 8.91457 295.988 10.3417C295.228 11.7689 294.768 13.3331 294.634 14.9395C294.5 16.5458 294.696 18.1609 295.21 19.6866L300.502 18.0629C300.221 17.2195 300.113 16.3282 300.183 15.4411C300.254 14.554 300.503 13.689 300.914 12.8969C301.326 12.1047 301.892 11.4013 302.579 10.8278C303.267 10.2544 304.062 9.82239 304.919 9.55726C305.678 9.27566 306.489 9.15937 307.296 9.2163C308.103 9.27324 308.887 9.50205 309.595 9.8872C310.304 10.2724 310.92 10.8048 311.401 11.4484C311.882 12.092 312.218 12.8316 312.385 13.617C312.731 14.8651 312.663 16.1925 312.192 17.4034C311.721 18.6144 310.871 19.645 309.768 20.3434L308.135 21.644C306.449 22.6365 305.198 24.2195 304.628 26.0795C304.058 27.9395 304.211 29.9408 305.057 31.6871L305.711 33.6181ZM311.945 44.901C312.452 44.7649 312.926 44.5294 313.34 44.2086C313.755 43.8878 314.1 43.488 314.357 43.033C314.613 42.578 314.776 42.077 314.834 41.5596C314.893 41.0422 314.846 40.5189 314.698 40.0206C314.541 39.5252 314.285 39.0666 313.947 38.6718C313.608 38.2769 313.192 37.9538 312.725 37.7216C312.258 37.4893 311.748 37.3526 311.225 37.3196C310.703 37.2865 310.178 37.3577 309.683 37.5289C309.177 37.6649 308.703 37.9001 308.289 38.2205C307.875 38.5409 307.53 38.9402 307.273 39.3946C307.016 39.849 306.854 40.3495 306.795 40.8664C306.736 41.3833 306.781 41.9062 306.929 42.4043C307.086 42.9003 307.341 43.3596 307.679 43.7551C308.018 44.1507 308.433 44.4744 308.901 44.7071C309.369 44.9399 309.879 45.077 310.402 45.1103C310.925 45.1436 311.45 45.0724 311.945 44.901Z" fill="#C4C4C4"/>
<path d="M14.0904 151.567L19.2078 149.997L18.6647 148.026C17.877 145.459 19.3039 144.288 21.3893 142.854C23.5041 141.491 25.1177 139.483 25.986 137.134C26.8544 134.786 26.9303 132.224 26.2024 129.836C25.806 128.363 25.1056 126.99 24.1456 125.803C23.1856 124.616 21.9868 123.64 20.6252 122.939C19.2636 122.237 17.7688 121.825 16.2354 121.727C14.702 121.63 13.1634 121.85 11.717 122.373C10.1546 122.816 8.69753 123.568 7.43415 124.586C6.17077 125.603 5.12742 126.863 4.36737 128.29C3.60732 129.718 3.14642 131.282 3.01262 132.888C2.87882 134.495 3.0749 136.11 3.58898 137.635L8.88046 136.012C8.59969 135.168 8.49155 134.277 8.5624 133.39C8.63324 132.503 8.88164 131.638 9.29303 130.846C9.70443 130.053 10.2705 129.35 10.9582 128.777C11.6459 128.203 12.4412 127.771 13.2977 127.506C14.057 127.224 14.8676 127.108 15.6746 127.165C16.4815 127.222 17.2659 127.451 17.9742 127.836C18.6826 128.221 19.2984 128.754 19.7798 129.397C20.2613 130.041 20.597 130.78 20.7642 131.566C21.11 132.814 21.0423 134.141 20.5711 135.352C20.1 136.563 19.2503 137.594 18.1472 138.292L16.5137 139.593C14.8283 140.585 13.5767 142.168 13.0068 144.028C12.4368 145.888 12.5901 147.89 13.4362 149.636L14.0904 151.567ZM20.3242 162.85C20.8307 162.714 21.3051 162.478 21.7193 162.157C22.1335 161.836 22.4791 161.437 22.7357 160.982C22.9923 160.527 23.1547 160.026 23.2132 159.508C23.2718 158.991 23.2253 158.468 23.0765 157.969C22.9196 157.474 22.6643 157.015 22.3255 156.621C21.9867 156.226 21.5713 155.903 21.1039 155.67C20.6365 155.438 20.1265 155.301 19.6041 155.268C19.0817 155.235 18.5573 155.306 18.0621 155.478C17.556 155.614 17.0819 155.849 16.668 156.169C16.254 156.49 15.9085 156.889 15.6518 157.343C15.3951 157.798 15.2324 158.298 15.1734 158.815C15.1144 159.332 15.1602 159.855 15.3082 160.353C15.4645 160.849 15.7195 161.308 16.0582 161.704C16.3969 162.099 16.8123 162.423 17.28 162.656C17.7476 162.889 18.2579 163.026 18.7808 163.059C19.3037 163.092 19.8285 163.021 20.3242 162.85Z" fill="#C4C4C4"/>
<path d="M311.891 209.662L316.774 211.856L317.665 210.016C318.766 207.566 320.61 207.627 323.123 207.924C325.612 208.293 328.149 207.847 330.351 206.654C332.552 205.46 334.298 203.584 335.325 201.309C335.998 199.94 336.377 198.446 336.438 196.92C336.499 195.395 336.241 193.871 335.679 192.446C335.118 191.021 334.266 189.725 333.177 188.641C332.089 187.557 330.787 186.707 329.354 186.147C327.888 185.45 326.296 185.055 324.675 184.987C323.055 184.919 321.439 185.179 319.927 185.751C318.415 186.323 317.037 187.195 315.877 188.315C314.717 189.434 313.8 190.778 313.181 192.264L318.23 194.532C318.575 193.712 319.081 192.971 319.719 192.351C320.357 191.73 321.114 191.244 321.946 190.919C322.777 190.595 323.667 190.439 324.562 190.462C325.457 190.484 326.34 190.683 327.159 191.049C327.915 191.338 328.601 191.785 329.171 192.359C329.74 192.934 330.179 193.623 330.457 194.38C330.736 195.137 330.848 195.943 330.786 196.744C330.723 197.546 330.488 198.323 330.096 199.024C329.533 200.19 328.607 201.144 327.454 201.744C326.302 202.343 324.983 202.558 323.694 202.356L321.608 202.257C319.686 201.892 317.702 202.257 316.047 203.28C314.392 204.302 313.188 205.908 312.673 207.779L311.891 209.662ZM309.14 222.256C309.61 222.487 310.122 222.623 310.645 222.655C311.168 222.687 311.691 222.614 312.184 222.441C312.677 222.268 313.13 221.998 313.515 221.648C313.9 221.298 314.21 220.873 314.427 220.401C314.635 219.925 314.746 219.412 314.751 218.891C314.757 218.371 314.658 217.854 314.459 217.372C314.261 216.889 313.968 216.45 313.597 216.08C313.226 215.711 312.784 215.419 312.299 215.221C311.829 214.99 311.318 214.854 310.795 214.822C310.273 214.79 309.75 214.862 309.257 215.035C308.764 215.207 308.312 215.476 307.927 215.826C307.542 216.176 307.231 216.599 307.014 217.071C306.805 217.547 306.694 218.061 306.688 218.581C306.681 219.102 306.78 219.619 306.979 220.103C307.177 220.586 307.47 221.026 307.841 221.395C308.212 221.765 308.654 222.058 309.14 222.256Z" fill="#C4C4C4"/>
<g filter="url(#filter2_d_13020_4984)">
<path d="M15.2179 168.684H237.102C239.282 168.684 241.372 169.549 242.913 171.091C244.454 172.632 245.32 174.722 245.32 176.902L245.32 217.991C245.32 220.171 244.454 222.261 242.913 223.802C241.372 225.343 239.282 226.209 237.102 226.209H15.2179C13.0384 226.209 10.9481 225.343 9.40698 223.802C7.86582 222.261 7 220.171 7 217.991L7 176.902C7 174.722 7.86582 172.632 9.40698 171.091C10.9481 169.549 13.0384 168.684 15.2179 168.684V168.684Z" fill="white"/>
</g>
<path d="M120.398 181.829H77.6651C74.942 181.829 72.7344 184.037 72.7344 186.76C72.7344 189.483 74.942 191.691 77.6651 191.691H120.398C123.122 191.691 125.329 189.483 125.329 186.76C125.329 184.037 123.122 181.829 120.398 181.829Z" fill="#DEDEDE"/>
<path d="M149.983 203.197H77.6651C74.942 203.197 72.7344 205.405 72.7344 208.128C72.7344 210.851 74.942 213.059 77.6651 213.059H149.983C152.706 213.059 154.914 210.851 154.914 208.128C154.914 205.405 152.706 203.197 149.983 203.197Z" fill="#EBEBEB"/>
<path d="M51.3758 173.619H20.1476C15.609 173.619 11.9297 177.298 11.9297 181.837L11.9297 213.065C11.9297 217.603 15.609 221.283 20.1476 221.283H51.3758C55.9144 221.283 59.5937 217.603 59.5937 213.065L59.5937 181.837C59.5937 177.298 55.9144 173.619 51.3758 173.619Z" fill="#C4C4C4"/>
<path d="M32.0135 202.846H35.3007L35.3368 201.58C35.3368 199.917 36.3854 199.483 37.868 199.013C39.3551 198.59 40.6641 197.694 41.597 196.461C42.5298 195.228 43.0359 193.725 43.0387 192.179C43.0712 191.235 42.9075 190.295 42.5578 189.417C42.2081 188.54 41.68 187.744 41.007 187.082C40.334 186.419 39.5308 185.903 38.6481 185.567C37.7655 185.23 36.8226 185.081 35.8792 185.128C34.8822 185.106 33.8912 185.287 32.9663 185.66C32.0414 186.033 31.2018 186.59 30.4985 187.297C29.7952 188.004 29.2429 188.846 28.875 189.773C28.507 190.7 28.3312 191.692 28.3582 192.689H31.7571C31.7442 192.138 31.8413 191.591 32.0427 191.078C32.2441 190.566 32.5457 190.099 32.9299 189.705C33.3141 189.31 33.7732 188.997 34.2802 188.782C34.7872 188.567 35.3319 188.456 35.8825 188.455C36.379 188.426 36.8759 188.504 37.3393 188.685C37.8028 188.865 38.222 189.143 38.5685 189.5C38.915 189.857 39.1806 190.284 39.3473 190.752C39.514 191.221 39.5779 191.72 39.5346 192.215C39.5127 193.017 39.2338 193.791 38.7391 194.422C38.2443 195.054 37.5598 195.51 36.7865 195.723L35.5932 196.196C34.425 196.477 33.405 197.187 32.7354 198.185C32.0657 199.183 31.7952 200.396 31.9773 201.584L32.0135 202.846ZM33.6406 210.66C33.9625 210.671 34.2834 210.618 34.5844 210.503C34.8854 210.388 35.1603 210.214 35.3929 209.992C35.6255 209.769 35.8111 209.502 35.9386 209.206C36.0662 208.91 36.1332 208.592 36.1356 208.27C36.1327 207.948 36.0654 207.63 35.9377 207.335C35.8099 207.039 35.6243 206.773 35.3917 206.55C35.1592 206.328 34.8844 206.154 34.5836 206.04C34.2829 205.925 33.9623 205.872 33.6406 205.883C33.319 205.872 32.9984 205.925 32.6976 206.04C32.3969 206.154 32.1221 206.328 31.8896 206.55C31.657 206.773 31.4714 207.039 31.3436 207.335C31.2159 207.63 31.1486 207.948 31.1457 208.27C31.1481 208.592 31.2151 208.91 31.3427 209.206C31.4702 209.502 31.6558 209.769 31.8884 209.992C32.121 210.214 32.3959 210.388 32.6969 210.503C32.9979 210.618 33.3188 210.671 33.6406 210.66Z" fill="white"/>
<defs>
<filter id="filter0_d_13020_4984" x="5.01562" y="25.334" width="248.32" height="67.5254" filterUnits="userSpaceOnUse" color-interpolation-filters="sRGB">
<feFlood flood-opacity="0" result="BackgroundImageFix"/>
<feColorMatrix in="SourceAlpha" type="matrix" values="0 0 0 0 0 0 0 0 0 0 0 0 0 0 0 0 0 0 127 0" result="hardAlpha"/>
<feOffset dx="3" dy="3"/>
<feGaussianBlur stdDeviation="2.5"/>
<feColorMatrix type="matrix" values="0 0 0 0 0.230539 0 0 0 0 0.370572 0 0 0 0 0.482993 0 0 0 0.1 0"/>
<feBlend mode="normal" in2="BackgroundImageFix" result="effect1_dropShadow_13020_4984"/>
<feBlend mode="normal" in="SourceGraphic" in2="effect1_dropShadow_13020_4984" result="shape"/>
</filter>
<filter id="filter1_d_13020_4984" x="75.6836" y="96.0059" width="248.32" height="67.5254" filterUnits="userSpaceOnUse" color-interpolation-filters="sRGB">
<feFlood flood-opacity="0" result="BackgroundImageFix"/>
<feColorMatrix in="SourceAlpha" type="matrix" values="0 0 0 0 0 0 0 0 0 0 0 0 0 0 0 0 0 0 127 0" result="hardAlpha"/>
<feOffset dx="3" dy="3"/>
<feGaussianBlur stdDeviation="2.5"/>
<feColorMatrix type="matrix" values="0 0 0 0 0.230539 0 0 0 0 0.370572 0 0 0 0 0.482993 0 0 0 0.1 0"/>
<feBlend mode="normal" in2="BackgroundImageFix" result="effect1_dropShadow_13020_4984"/>
<feBlend mode="normal" in="SourceGraphic" in2="effect1_dropShadow_13020_4984" result="shape"/>
</filter>
<filter id="filter2_d_13020_4984" x="5" y="166.684" width="248.32" height="67.5254" filterUnits="userSpaceOnUse" color-interpolation-filters="sRGB">
<feFlood flood-opacity="0" result="BackgroundImageFix"/>
<feColorMatrix in="SourceAlpha" type="matrix" values="0 0 0 0 0 0 0 0 0 0 0 0 0 0 0 0 0 0 127 0" result="hardAlpha"/>
<feOffset dx="3" dy="3"/>
<feGaussianBlur stdDeviation="2.5"/>
<feColorMatrix type="matrix" values="0 0 0 0 0.230539 0 0 0 0 0.370572 0 0 0 0 0.482993 0 0 0 0.1 0"/>
<feBlend mode="normal" in2="BackgroundImageFix" result="effect1_dropShadow_13020_4984"/>
<feBlend mode="normal" in="SourceGraphic" in2="effect1_dropShadow_13020_4984" result="shape"/>
</filter>
</defs>
</svg>
