<svg width="273" height="240" viewBox="0 0 273 240" fill="none" xmlns="http://www.w3.org/2000/svg">
<path d="M136.456 189.258C137.592 189.258 138.513 188.03 138.513 186.515C138.513 185 137.592 183.772 136.456 183.772C135.319 183.772 134.398 185 134.398 186.515C134.398 188.03 135.319 189.258 136.456 189.258Z" fill="#CFCFCF"/>
<path d="M71.3125 17.8286V28.8" stroke="#C4C4C4" stroke-linecap="round" stroke-linejoin="round"/>
<path d="M65.8281 23.3149H75.4281" stroke="#C4C4C4" stroke-linecap="round" stroke-linejoin="round"/>
<path d="M183.859 81.1962C164.49 81.1962 144.773 80.4127 126.33 75.2974C108.234 70.2972 91.6183 60.5965 76.808 49.375C67.1119 42.0706 58.2952 36.241 45.7064 37.1166C33.3909 37.7801 21.6138 42.3594 12.1056 50.1815C-3.90805 64.145 -1.50138 90.0213 4.9087 108.132C14.5354 135.483 43.832 154.539 68.7318 166.867C97.4962 181.176 129.107 189.494 160.787 194.264C188.556 198.481 224.24 201.522 248.307 183.48C270.406 166.867 276.469 128.986 271.054 103.409C269.741 95.8529 265.7 89.0353 259.692 84.2377C244.164 72.924 221 80.4819 203.552 80.8505C197.072 80.9888 190.477 81.1501 183.859 81.1962Z" fill="#4D4D4D"/>
<path d="M152.917 5.48571C154.053 5.48571 154.974 4.25769 154.974 2.74285C154.974 1.22802 154.053 0 152.917 0C151.78 0 150.859 1.22802 150.859 2.74285C150.859 4.25769 151.78 5.48571 152.917 5.48571Z" fill="#CFCFCF"/>
<path d="M34.2852 181.029V190.629" stroke="#C4C4C4" stroke-linecap="round" stroke-linejoin="round"/>
<path d="M30.1719 186.514H39.7719" stroke="#C4C4C4" stroke-linecap="round" stroke-linejoin="round"/>
<path d="M137.142 239.999C184.102 239.999 222.17 237.543 222.17 234.514C222.17 231.484 184.102 229.028 137.142 229.028C90.1819 229.028 52.1133 231.484 52.1133 234.514C52.1133 237.543 90.1819 239.999 137.142 239.999Z" fill="#4D4D4D"/>
<path d="M206.178 176.915H58.9132C57.9277 176.914 56.954 176.702 56.0596 176.293C55.1653 175.885 54.3715 175.289 53.7332 174.548C53.0949 173.806 52.6274 172.937 52.3629 172C52.0984 171.063 52.0433 170.08 52.2014 169.119L71.0362 56.361C71.2907 54.7916 72.1043 53.3635 73.3305 52.3337C74.5567 51.3039 76.115 50.7401 77.7248 50.7437H224.99C225.974 50.7438 226.947 50.9556 227.841 51.3645C228.734 51.7734 229.527 52.3695 230.163 53.1114C230.8 53.8532 231.265 54.7231 231.527 55.6604C231.788 56.5977 231.84 57.5801 231.678 58.5391L212.936 171.297C212.675 172.877 211.85 174.311 210.611 175.342C209.371 176.372 207.798 176.93 206.178 176.915Z" fill="#C4C4C4"/>
<path d="M207.564 47.3202L120.554 8.47186C117.989 7.32674 114.982 8.47758 113.837 11.0423L86.2602 72.806C85.1151 75.3708 86.266 78.3782 88.8307 79.5233L175.84 118.372C178.405 119.517 181.412 118.366 182.558 115.801L210.134 54.0376C211.279 51.4728 210.128 48.4654 207.564 47.3202Z" fill="#9D9D9D" stroke="#C4C4C4" stroke-linecap="round" stroke-linejoin="round"/>
<path d="M133.027 59.2079C135.355 56.0322 138.74 53.7367 142.609 52.7103C146.478 51.6839 150.593 51.9898 154.257 53.576C157.921 55.1623 160.908 57.9314 162.712 61.4141C164.516 64.8969 165.026 68.879 164.156 72.6857" stroke="white" stroke-width="0.68" stroke-linecap="round" stroke-linejoin="round"/>
<path d="M174.858 56.2294C175.994 56.2294 176.915 55.0014 176.915 53.4865C176.915 51.9717 175.994 50.7437 174.858 50.7437C173.722 50.7437 172.801 51.9717 172.801 53.4865C172.801 55.0014 173.722 56.2294 174.858 56.2294Z" fill="white"/>
<path d="M140.573 39.771C141.709 39.771 142.63 38.85 142.63 37.7139C142.63 36.5778 141.709 35.6567 140.573 35.6567C139.437 35.6567 138.516 36.5778 138.516 37.7139C138.516 38.85 139.437 39.771 140.573 39.771Z" fill="white"/>
<path d="M204.464 176.914H57.4797C55.6912 176.908 53.978 176.197 52.7155 174.939C51.453 173.68 50.7441 171.975 50.7441 170.198V67.2183C50.7226 66.3249 50.8808 65.4363 51.2094 64.6044C51.538 63.7725 52.0303 63.0142 52.6576 62.3738C53.2849 61.7334 54.0346 61.2239 54.8626 60.875C55.6906 60.5262 56.5804 60.3451 57.4797 60.3423H111.019C112.261 60.3468 113.478 60.6915 114.536 61.3384C115.594 61.9854 116.452 62.9096 117.016 64.0095L124.651 78.8617C125.213 79.9633 126.071 80.8889 127.129 81.5361C128.188 82.1833 129.406 82.527 130.649 82.5289H204.464C206.25 82.5289 207.963 83.234 209.227 84.4891C210.49 85.7443 211.199 87.4466 211.199 89.2216V170.198C211.199 171.975 210.49 173.68 209.228 174.939C207.965 176.197 206.252 176.908 204.464 176.914Z" fill="#9D9D9D" stroke="#C4C4C4" stroke-linecap="round" stroke-linejoin="round"/>
<path d="M182.424 86.4004C174.014 86.3959 165.792 88.8855 158.798 93.5542C151.804 98.223 146.351 104.861 143.13 112.629C139.908 120.397 139.063 128.946 140.701 137.195C142.339 145.443 146.386 153.021 152.331 158.969C158.276 164.917 165.851 168.968 174.098 170.61C182.346 172.253 190.895 171.412 198.665 168.195C206.435 164.978 213.076 159.529 217.749 152.537C222.421 145.545 224.915 137.324 224.915 128.915C224.915 117.643 220.439 106.833 212.471 98.8606C204.503 90.8883 193.695 86.4065 182.424 86.4004Z" fill="#9D9D9D" stroke="#C4C4C4" stroke-linecap="round" stroke-linejoin="round"/>
<path d="M212.57 160.458L224.913 171.429" stroke="#BABABA" stroke-linecap="round" stroke-linejoin="round"/>
<path d="M223.211 165.925L219.649 169.652C218.052 171.322 218.112 173.971 219.782 175.568L250.696 205.12C252.366 206.716 255.015 206.657 256.612 204.986L260.174 201.26C261.771 199.59 261.711 196.941 260.041 195.344L229.127 165.792C227.457 164.195 224.808 164.255 223.211 165.925Z" fill="#C4C4C4"/>
<path d="M245.484 2.74316V12.3432" stroke="#C4C4C4" stroke-linecap="round" stroke-linejoin="round"/>
<path d="M241.371 8.22803H250.971" stroke="#C4C4C4" stroke-linecap="round" stroke-linejoin="round"/>
</svg>
