<svg width="266" height="241" viewBox="0 0 266 241" fill="none" xmlns="http://www.w3.org/2000/svg">
<path d="M178.694 86.8704C159.869 86.8704 140.707 86.1057 122.782 81.1127C105.194 76.2321 89.045 66.7634 74.6507 55.8102C65.2269 48.6805 56.6578 42.9903 44.4226 43.8449C32.453 44.4927 21.0067 48.9624 11.7656 56.5974C-3.79828 70.227 -1.45921 95.4845 4.77083 113.163C14.1271 139.859 42.6008 158.46 66.8013 170.492C94.7577 184.459 125.481 192.579 156.271 197.234C183.26 201.35 217.941 204.319 241.332 186.708C262.811 170.492 268.704 133.517 263.441 108.552C262.164 101.177 258.237 94.522 252.398 89.8392C237.306 78.7961 214.793 86.1732 197.834 86.533C191.537 86.668 185.127 86.8254 178.694 86.8704Z" fill="#EBEBEB"/>
<path d="M133.537 241C179.137 241 216.102 238.694 216.102 235.85C216.102 233.005 179.137 230.699 133.537 230.699C87.9382 230.699 50.9727 233.005 50.9727 235.85C50.9727 238.694 87.9382 241 133.537 241Z" fill="#EBEBEB"/>
<path d="M17.0352 37.2751L46.2736 34.8011C49.9196 34.4819 53.5646 35.4247 56.5985 37.4719C59.6323 39.519 61.8709 42.5462 62.9395 46.0467L90.9634 139.835L85.4756 149.663C84.066 152.196 83.3701 155.063 83.4622 157.96C83.5543 160.857 84.4308 163.674 85.9983 166.112C87.5658 168.55 89.7655 170.517 92.3629 171.802C94.9603 173.088 97.858 173.645 100.747 173.414L212.978 163.878" stroke="#C4C4C4" stroke-linecap="round" stroke-linejoin="round"/>
<path d="M67.1211 60.2864L197.569 49.2208C198.854 49.1107 200.148 49.2913 201.354 49.7493C202.559 50.2073 203.646 50.9308 204.534 51.8662C205.422 52.8017 206.088 53.925 206.483 55.153C206.877 56.3809 206.99 57.6819 206.813 58.9595L197.974 122.767C197.706 124.681 196.801 126.45 195.406 127.788C194.011 129.126 192.206 129.956 190.282 130.144L90.9617 139.837L67.1211 60.2864Z" fill="white" stroke="#C4C4C4" stroke-linecap="round" stroke-linejoin="round"/>
<path d="M113.226 194.915C119.077 194.915 123.819 190.172 123.819 184.322C123.819 178.471 119.077 173.729 113.226 173.729C107.376 173.729 102.633 178.471 102.633 184.322C102.633 190.172 107.376 194.915 113.226 194.915Z" fill="white" stroke="#BABABA" stroke-linecap="round" stroke-linejoin="round"/>
<path d="M187 188.665C192.85 188.665 197.593 183.922 197.593 178.072C197.593 172.221 192.85 167.479 187 167.479C181.149 167.479 176.406 172.221 176.406 178.072C176.406 183.922 181.149 188.665 187 188.665Z" fill="white" stroke="#BABABA" stroke-linecap="round" stroke-linejoin="round"/>
<path d="M40.1832 32.2726L12.6182 34.6115C10.2294 34.8142 8.45728 36.915 8.65997 39.3038C8.86266 41.6925 10.9634 43.4647 13.3522 43.262L40.9172 40.9231C43.306 40.7204 45.0781 38.6196 44.8754 36.2308C44.6727 33.8421 42.572 32.0699 40.1832 32.2726Z" fill="#C4C4C4"/>
<path d="M122.039 109.563C122.577 105.459 124.502 101.661 127.495 98.8008C130.487 95.9404 134.368 94.189 138.493 93.8372C142.618 93.4853 146.739 94.5542 150.173 96.8664C153.607 99.1786 156.147 102.595 157.373 106.55" stroke="#BABABA" stroke-linecap="round" stroke-linejoin="round"/>
<path d="M157.671 85.2978C159.063 85.2978 160.19 84.17 160.19 82.7788C160.19 81.3876 159.063 80.2598 157.671 80.2598C156.28 80.2598 155.152 81.3876 155.152 82.7788C155.152 84.17 156.28 85.2978 157.671 85.2978Z" fill="#BABABA"/>
<path d="M117.749 88.6708C119.141 88.6708 120.268 87.543 120.268 86.1518C120.268 84.7606 119.141 83.6328 117.749 83.6328C116.358 83.6328 115.23 84.7606 115.23 86.1518C115.23 87.543 116.358 88.6708 117.749 88.6708Z" fill="#BABABA"/>
<path d="M46.793 181.197V190.891" stroke="#C4C4C4" stroke-linecap="round" stroke-linejoin="round"/>
<path d="M41.9492 186.033H51.6204" stroke="#C4C4C4" stroke-linecap="round" stroke-linejoin="round"/>
<path d="M201.32 1V10.6712" stroke="#C4C4C4" stroke-linecap="round" stroke-linejoin="round"/>
<path d="M196.488 5.83594H206.159" stroke="#C4C4C4" stroke-linecap="round" stroke-linejoin="round"/>
<path d="M86.8203 29.9004V39.5716" stroke="#C4C4C4" stroke-linecap="round" stroke-linejoin="round"/>
<path d="M81.9609 34.7363H91.6546" stroke="#C4C4C4" stroke-linecap="round" stroke-linejoin="round"/>
<path d="M225.458 65.4573C226.725 65.4573 227.752 64.4302 227.752 63.1632C227.752 61.8962 226.725 60.8691 225.458 60.8691C224.191 60.8691 223.164 61.8962 223.164 63.1632C223.164 64.4302 224.191 65.4573 225.458 65.4573Z" fill="white" stroke="#C4C4C4" stroke-linecap="round" stroke-linejoin="round"/>
<path d="M139.724 44.834C140.941 44.834 141.928 43.8472 141.928 42.6299C141.928 41.4126 140.941 40.4258 139.724 40.4258C138.506 40.4258 137.52 41.4126 137.52 42.6299C137.52 43.8472 138.506 44.834 139.724 44.834Z" fill="#C4C4C4"/>
<path d="M154.521 204.793C155.738 204.793 156.725 203.806 156.725 202.589C156.725 201.372 155.738 200.385 154.521 200.385C153.303 200.385 152.316 201.372 152.316 202.589C152.316 203.806 153.303 204.793 154.521 204.793Z" fill="#C4C4C4"/>
</svg>
