<svg width="291" height="240" viewBox="0 0 291 240" fill="none" xmlns="http://www.w3.org/2000/svg">
<path d="M195.417 71.4453C174.83 71.4453 153.875 70.6091 134.272 65.1488C115.038 59.8115 97.378 49.4566 81.6366 37.4784C71.331 29.6816 61.9599 23.4588 48.5798 24.3934C35.49 25.1018 22.9725 29.9898 12.8666 38.3393C-4.15373 53.2444 -1.59576 80.8655 5.21729 100.198C15.4492 129.393 46.5875 149.734 73.0527 162.893C103.625 178.167 137.223 187.046 170.895 192.137C200.41 196.638 238.337 199.885 263.917 180.626C287.406 162.893 293.85 122.457 288.094 95.1557C286.698 87.0904 282.403 79.813 276.018 74.692C259.514 62.6154 234.893 70.6828 216.348 71.0764C209.461 71.224 202.451 71.3961 195.417 71.4453Z" fill="#4D4D4D"/>
<path d="M146.037 239.999C195.904 239.999 236.329 237.477 236.329 234.366C236.329 231.256 195.904 228.734 146.037 228.734C96.1709 228.734 55.7461 231.256 55.7461 234.366C55.7461 237.477 96.1709 239.999 146.037 239.999Z" fill="#4D4D4D"/>
<path d="M51.1758 174.601V185.202" stroke="#C4C4C4" stroke-linecap="round" stroke-linejoin="round"/>
<path d="M45.875 179.888H56.4512" stroke="#C4C4C4" stroke-linecap="round" stroke-linejoin="round"/>
<path d="M276.496 24.564V35.1402" stroke="#C4C4C4" stroke-linecap="round" stroke-linejoin="round"/>
<path d="M271.211 29.853H281.787" stroke="#C4C4C4" stroke-linecap="round" stroke-linejoin="round"/>
<path d="M50.1094 6.95654V17.5328" stroke="#C4C4C4" stroke-linecap="round" stroke-linejoin="round"/>
<path d="M44.7969 12.2456H55.3977" stroke="#C4C4C4" stroke-linecap="round" stroke-linejoin="round"/>
<path d="M168.985 200.404C170.316 200.404 171.395 199.325 171.395 197.994C171.395 196.663 170.316 195.583 168.985 195.583C167.653 195.583 166.574 196.663 166.574 197.994C166.574 199.325 167.653 200.404 168.985 200.404Z" fill="#C4C4C4"/>
<path d="M239.71 7.58034L239.711 7.58103L263.442 40.0694C264.64 41.7099 265.342 43.6792 265.425 45.7283C265.656 51.4287 261.188 56.256 255.454 56.489L87.8286 63.3008C82.0954 63.5338 77.2489 59.0859 77.016 53.3552C76.934 51.3375 77.4724 49.3169 78.5345 47.5525C78.5348 47.5519 78.5351 47.5514 78.5355 47.5508L99.5511 13.2769L99.5516 13.276C101.938 9.36611 106.128 6.91842 110.697 6.73274L228.07 1.96301C232.669 1.77615 237.015 3.87647 239.71 7.58034ZM173.98 117.44L174.479 117.42L174.459 116.92L172.564 70.2981L190.506 69.569L192.4 116.191L193.358 139.752C193.664 147.279 187.775 153.639 180.206 153.946L113.914 156.64C106.345 156.948 99.9595 151.086 99.6536 143.56L98.6962 119.999L96.8016 73.3769L114.743 72.6478L116.638 119.27L116.658 119.77L117.158 119.749L173.98 117.44ZM232.43 142.884L229.386 67.989L247.328 67.2599L250.371 142.155C250.572 147.09 246.728 151.243 241.763 151.445C236.799 151.646 232.63 147.819 232.43 142.884Z" stroke="#C4C4C4"/>
<path d="M157.27 50.0486C157.858 45.5598 159.963 41.4068 163.236 38.2787C166.509 35.1507 170.752 33.2354 175.263 32.8506C179.774 32.4659 184.281 33.6348 188.036 36.1634C191.792 38.692 194.57 42.4284 195.91 46.7528" stroke="#BABABA" stroke-linecap="round" stroke-linejoin="round"/>
<path d="M196.235 23.5109C197.757 23.5109 198.99 22.2776 198.99 20.7562C198.99 19.2348 197.757 18.0015 196.235 18.0015C194.714 18.0015 193.48 19.2348 193.48 20.7562C193.48 22.2776 194.714 23.5109 196.235 23.5109Z" fill="white"/>
<path d="M152.579 27.2004C154.1 27.2004 155.334 25.9671 155.334 24.4457C155.334 22.9243 154.1 21.6909 152.579 21.6909C151.058 21.6909 149.824 22.9243 149.824 24.4457C149.824 25.9671 151.058 27.2004 152.579 27.2004Z" fill="white"/>
<path d="M98.1992 120.023L192.899 116.17L193.945 141.895C194.215 148.517 189.065 154.104 182.443 154.373L111.724 157.251C105.102 157.52 99.5154 152.371 99.246 145.749L98.1992 120.023Z" fill="#9D9D9D"/>
<path d="M172.035 69.8318L190.978 69.061L192.896 116.214L173.954 116.985L172.035 69.8318Z" fill="#9D9D9D"/>
<path d="M96.2812 72.9001L115.219 72.1296L117.137 119.256L98.1988 120.027L96.2812 72.9001Z" fill="#9D9D9D"/>
</svg>
